<?xml version="1.0" standalone="no"?>
<!DOCTYPE svg PUBLIC "-//W3C//DTD SVG 1.1//EN" "http://www.w3.org/Graphics/SVG/1.1/DTD/svg11.dtd" >
<svg xmlns="http://www.w3.org/2000/svg" xmlns:xlink="http://www.w3.org/1999/xlink" version="1.1">
<metadata>
Created by FontForge 20201107 at Wed Jun  3 04:57:49 2015
 By www-data
Converted by Andrey V. Panov from TeX fonts
</metadata>
<defs>
<font id="DescretMono-BoldItalic" horiz-adv-x="500" >
  <font-face 
    font-family="Descret Mono"
    font-weight="500"
    font-style="italic"
    font-stretch="normal"
    units-per-em="1000"
    panose-1="2 0 6 9 0 0 0 0 0 0"
    ascent="860"
    descent="-140"
    x-height="457"
    cap-height="642"
    bbox="-199 -405 785.08 1143"
    underline-thickness="50"
    underline-position="-200"
    slope="-14.04"
    unicode-range="U+0020-10147"
  />
<missing-glyph 
d="M-41 27l9 751q0 6 5 11.5t11 5.5h479q6 0 11 -5.5t5 -11.5l-9 -751q0 -7 -5 -12.5t-11 -5.5h-479q-6 0 -11 5.5t-5 12.5zM50 192l122 211l-117 211zM95 104h241q-108 194 -118 213q-22 -39 -61.5 -106.5t-61.5 -106.5zM102 701l118 -214q87 149 123 214h-241zM267 403
l116 -211l5 421z" />
    <glyph glyph-name=".notdef" 
d="M-41 27l9 751q0 6 5 11.5t11 5.5h479q6 0 11 -5.5t5 -11.5l-9 -751q0 -7 -5 -12.5t-11 -5.5h-479q-6 0 -11 5.5t-5 12.5zM50 192l122 211l-117 211zM95 104h241q-108 194 -118 213q-22 -39 -61.5 -106.5t-61.5 -106.5zM102 701l118 -214q87 149 123 214h-241zM267 403
l116 -211l5 421z" />
    <glyph glyph-name="uni0000" 
d="M-2 10l10 793h505l-10 -793h-505zM59 118l166 289l-159 289zM94 74h315l-155 280zM102 740l153 -280l162 280h-315zM285 407l159 -289l7 578z" />
    <glyph glyph-name="nonmarkingreturn" 
 />
    <glyph glyph-name="space" unicode=" " 
 />
    <glyph glyph-name="exclam" unicode="!" 
d="M226 268q0 4 2 12t2 13l59 281q9 44 30.5 61t44.5 17q27 0 43 -19t16 -50q0 -11 -5 -27l-83 -286q-2 -6 -4 -16.5t-3.5 -14.5t-5.5 -9t-11.5 -6.5t-18.5 -1.5h-27q-8 0 -14.5 1.5t-10.5 3t-7 5.5t-4.5 6.5t-2 8t-0.5 7.5v7.5v6.5zM156 71q0 34 25 61t60 27q28 0 47.5 -20
t19.5 -52q0 -37 -27 -62t-57 -25t-49.5 21t-18.5 50z" />
    <glyph glyph-name="quotedbl" unicode="&#x22;" 
d="M344 371q0 5 13 76q3 15 11 56.5t14 70.5v-3q0 1 0.5 3l0.5 2q8 75 66 75q23 0 38.5 -15.5t15.5 -41.5q0 -10 -66 -222v-1q-3 -9 -5 -14t-7.5 -13.5t-14.5 -12.5t-21 -4q-21 0 -33 13.5t-12 30.5zM178 371q1 14 18 104l19 98q0 1 0.5 2l0.5 1q8 75 66 75q23 0 38.5 -15.5
t15.5 -41.5q0 -12 -42 -145l-24 -77v-1v-3q-3 -8 -5.5 -13t-8 -13t-14 -11.5t-20.5 -3.5q-19 0 -31.5 12t-12.5 32z" />
    <glyph glyph-name="numbersign" unicode="#" 
d="M69 212v1q0 48 53 48h32l43 119h-21q-10 0 -17.5 1.5t-17 5.5t-14.5 15t-5 26q0 17 11.5 32.5t40.5 15.5h56q7 23 22 64.5t18 50.5v1q5 16 9 24t14 16t25 8q18 0 31.5 -13t13.5 -33q0 -9 -37 -118h42q8 22 22.5 64.5t17.5 50.5v1q5 16 9 24t14 16t25 8q19 0 32 -13
t13 -33q0 -8 -37 -118q16 0 27.5 -5.5t16 -14.5t6 -15.5t1.5 -13.5q0 -47 -52 -47h-33l-42 -119h21q53 0 53 -47q-1 -48 -52 -48h-55l-21 -61q-25 -73 -35.5 -89t-34.5 -16q-18 0 -31 14t-12 34q0 14 36 118h-41l-23 -66q-23 -70 -32.5 -85t-33.5 -15q-18 0 -31.5 13.5
t-12.5 33.5q0 11 37 119q-51 0 -51 46zM250 261h42l42 119h-42z" />
    <glyph glyph-name="dollar" unicode="$" 
d="M74 142q0 61 21 84t48 23q24 0 39.5 -16t14.5 -41q0 -31 -24 -51q-1 -29 17 -42l49 196q-49 18 -71.5 56.5t-22.5 83.5q1 66 50.5 128t130.5 80q10 51 20 66t37 15q21 0 32.5 -13.5t11.5 -31.5q0 -8 -7 -34v-1l-1 -4v-1q31 -9 52 -27.5t29 -40.5t10 -36.5t2 -29.5
q-1 -100 -68 -100q-24 0 -39 16.5t-14 40.5q0 31 23 51q-3 21 -18 32q-43 -167 -45 -175q42 -16 67 -55t25 -90q-1 -78 -55.5 -144.5t-127.5 -81.5q-11 -51 -21 -66.5t-37 -15.5q-24 0 -34.5 15t-9.5 30q0 8 5 28l-1 -2l3 14q-42 14 -67 50t-24 90zM240 442q0 -33 24 -44
q4 19 16 62.5t18 71.5q-25 -16 -41 -41.5t-17 -48.5zM326 266l-39 -153q27 21 43.5 48.5t17.5 55.5q0 33 -22 49zM279 77l-22 20q20 8 30 16z" />
    <glyph glyph-name="percent" unicode="%" 
d="M44 -32q0 16 13 38h-1q64 115 194 343.5t194 342.5v-1q20 33 48 33q20 0 34 -15.5t14 -36.5q0 -12 -9 -28v-4l-392 -689q-16 -34 -47 -34q-20 0 -34.5 15t-13.5 36zM150 523q1 38 15.5 83.5t43.5 81.5t62 36q26 0 46.5 -22t19.5 -76q0 -40 -15.5 -86t-44 -80.5
t-60.5 -34.5q-36 0 -51.5 29t-15.5 69zM237 528q0 -5 2 -20l-27 11q17 16 27.5 46t10.5 57q0 5 -1 20l27 -10q-20 -21 -29 -51t-10 -53zM246 14q1 43 17 89.5t44 79.5t59 33q35 0 51 -29t15 -68q0 -43 -15.5 -89t-44 -79.5t-59.5 -33.5q-35 0 -51 29t-16 68zM333 20
q0 -5 2 -16l-27 6q19 20 28.5 50t9.5 53v16l26 -6q-18 -20 -28 -50t-11 -53z" />
    <glyph glyph-name="ampersand" unicode="&#x26;" 
d="M38 183q1 43 21 96.5t47 93.5q-1 12 -1 38q1 55 26 111t66.5 93t85.5 37q43 0 72 -28.5t29 -72.5q-1 -40 -21.5 -58.5t-44.5 -18.5q-23 0 -39 16.5t-16 40.5q0 11 5 23q-18 -7 -33.5 -33t-24.5 -63q18 4 28 4q30 0 48 -21t18 -56q-1 -42 -27.5 -79t-64.5 -37
q-26 0 -48 12q-27 -60 -28 -98q0 -44 29 -71t77 -27q54 0 98.5 31.5t69.5 101.5q-37 2 -65.5 30.5t-27.5 73.5q0 23 7.5 43t21.5 36.5t24.5 26t28.5 22.5q6 7 17 13q45 45 64 112q9 34 20.5 49.5t37.5 15.5q18 0 32.5 -14t14.5 -35q0 -5 -5.5 -27t-22 -62t-38.5 -73
q17 -29 16 -78q0 -30 -13 -90.5t-31 -104.5q-24 -48 -57.5 -83t-69 -52t-66 -24t-58.5 -7q-95 0 -149 56.5t-53 136.5zM219 358q-3 -3 -12 -9v9l-13 -5l6 13q1 2 3 7.5t3 8.5l22 -18zM416 323l-1 -1l1 -1h8q2 0 5.5 -0.5t5.5 -0.5q2 19 2 26v4v3q-21 -17 -21 -30zM431 298
l4 22q6 -2 18 -8l-9 2l1 -1t2 -1z" />
    <glyph glyph-name="quotesingle" unicode="'" 
d="M261 371q1 14 18 104l19 98q0 1 0.5 2l0.5 1q8 75 67 75q22 0 38 -16t16 -41q0 -12 -42 -145l-25 -77v-1v-3q-4 -11 -7.5 -18t-14 -15t-25.5 -8q-20 0 -32.5 12t-12.5 32z" />
    <glyph glyph-name="parenleft" unicode="(" 
d="M185 193q2 141 77 287t199 232q18 12 34 12q20 0 32 -12.5t12 -31.5q0 -12 -5.5 -22t-10.5 -14t-14 -11h1q-72 -50 -124.5 -130t-77 -160.5t-25.5 -155.5q0 -50 10.5 -90.5t20.5 -56.5t25 -36q21 -24 21 -41q-1 -20 -13.5 -33t-31.5 -13q-14 0 -28 9t-35 39
q-68 94 -67 228z" />
    <glyph glyph-name="parenright" unicode=")" 
d="M47 -38q0 27 32 47h-1q105 77 164 203.5t60 243.5q1 48 -10 87.5t-20 55t-25 36.5q-22 31 -22 45q0 19 13 31.5t33 12.5q27 0 60 -45q70 -94 68 -233q-1 -139 -71.5 -279t-188.5 -226l-8 -6h1q-23 -18 -42 -18t-31.5 13.5t-11.5 31.5z" />
    <glyph glyph-name="asterisk" unicode="*" 
d="M97 225q0 35 39 55q5 6 9 6l29 15q29 18 38 22l-9 7q-44 34 -52.5 44t-8.5 27q0 23 18 41t38 18q12 0 20 -5.5t38 -33.5q8 -6 12 -10q3 11 4 22q15 72 27.5 95t46.5 23q22 0 31 -13.5t9 -25.5q0 -4 -6 -28.5t-12 -46.5l-6 -22l12 7q7 4 17 10.5t14.5 9t11 6.5t10 5.5
t7.5 3.5t7 2.5t6 0.5q18 0 29 -12.5t11 -31.5q-1 -24 -15.5 -37.5t-72.5 -45.5q-3 -2 -12 -6.5t-13 -7.5l8 -7q44 -35 53 -45t9 -27q0 -20 -18.5 -38.5t-38.5 -18.5q-13 0 -25 8t-45 39l-19 -84q-13 -56 -59 -56q-19 0 -30 11.5t-10 30.5q0 9 13 52q3 12 12 44
q-50 -32 -62 -38.5t-25 -6.5q-16 0 -28.5 11.5t-11.5 30.5z" />
    <glyph glyph-name="plus" unicode="+" 
d="M98 320q0 18 12 33.5t40 15.5h106l38 149q12 43 48 43q18 0 30.5 -13.5t12.5 -34.5q0 -3 -34 -144h80q15 0 23 -3q15 -5 24 -17.5t9 -27.5q0 -9 -3 -18.5t-15.5 -19t-33.5 -9.5h-108l-38 -150q-11 -43 -45 -43q-19 0 -32.5 13t-12.5 34q0 7 34 146h-82q-25 0 -39 10
t-14 36z" />
    <glyph glyph-name="comma" unicode="," 
d="M102 -89q0 13 6 21.5t11 12t20 11.5q37 18 59 48q-46 12 -45 65q0 35 25 62.5t61 27.5q34 0 55.5 -26.5t21.5 -66.5q-1 -49 -41.5 -109.5t-108.5 -89.5q-12 -5 -20 -5q-17 0 -30.5 15t-13.5 34z" />
    <glyph glyph-name="hyphen" unicode="-" 
d="M113 229q0 10 3 19.5t15.5 19.5t32.5 10h211q50 0 50 -45q0 -9 -3 -18.5t-15.5 -20t-32.5 -10.5h-212q-28 0 -38.5 15t-10.5 30z" />
    <glyph glyph-name="period" unicode="." 
d="M154 71q0 34 25 61t60 27q28 0 48 -20.5t20 -51.5q0 -36 -27 -61.5t-58 -25.5q-30 0 -49.5 21t-18.5 50z" />
    <glyph glyph-name="slash" unicode="/" 
d="M26 -35q0 16 13 36v-1l432 694q1 0 5 6.5t6.5 9t7.5 7t11 6t14 1.5q18 0 31.5 -14t13.5 -34q0 -15 -14 -37v1l-433 -690q0 -1 -3 -5.5t-4 -5.5t-4.5 -5t-5.5 -5.5t-5.5 -4.5t-6.5 -4t-7 -2t-8 -1q-17 0 -30.5 14.5t-12.5 33.5z" />
    <glyph glyph-name="zero" unicode="0" 
d="M86 195q1 82 28.5 166t68 147.5t91.5 103.5t97 40q60 0 94 -58t33 -149q-1 -103 -44 -210t-109.5 -176t-131.5 -69q-61 0 -94.5 58.5t-32.5 146.5zM185 197q0 -15 1.5 -31t5 -36t13.5 -32.5t24 -12.5q38 0 79 62.5t67 147t26 151.5q1 50 -10.5 80t-34.5 30
q-39 0 -78.5 -56t-65.5 -140t-27 -163z" />
    <glyph glyph-name="one" unicode="1" 
d="M82 46q0 50 49 50h64q40 157 88 349q-30 -12 -52 -12q-25 0 -36 14.5t-10 32.5q0 19 12.5 34t31.5 15q11 2 18.5 4.5t22.5 11t32 28t35 49.5q18 28 42 28q18 0 31 -12.5t13 -32.5q0 -2 -2 -11q0 -1 -0.5 -4.5t-0.5 -4.5l-115 -460l-3 -15t-3 -14h42q28 -2 38 -16t10 -31
q-1 -10 -4 -19.5t-15 -19.5t-33 -10h-207q-29 0 -39 14.5t-9 31.5z" />
    <glyph glyph-name="two" unicode="2" 
d="M32 35q1 13 11 40t29 62t56 73.5t83 65.5l34 18q28 15 42.5 23.5t40.5 27t39.5 35t24.5 41.5t12 53q0 37 -18 59.5t-48 22.5q-37 0 -74 -31.5t-53 -77.5q-2 -4 -2 -6q-3 -11 -5.5 -16t-8 -12t-14.5 -10t-22 -3q-26 0 -37 13.5t-11 30.5q1 22 17 55.5t44 68t73 59t94 25.5
q73 0 118.5 -51t44.5 -130q-1 -50 -17.5 -90.5t-50 -73t-67.5 -56t-87 -51.5q-57 -31 -92 -70q19 -5 59 -21q43 -19 66 -19t44.5 25.5t35.5 68.5q2 8 4 13t7 12.5t14.5 11t22.5 4.5q28 0 38.5 -14t10.5 -31q0 -11 -6.5 -31.5t-21.5 -48.5t-35 -52.5t-51 -41t-65 -16.5
q-40 0 -110 33v-1q-44 20 -55 20q-8 0 -14 -13q-1 -2 -2 -3q-4 -11 -8 -17.5t-14.5 -12.5t-25.5 -6q-50 0 -50 45z" />
    <glyph glyph-name="three" unicode="3" 
d="M58 130q0 46 19 68t46 22q23 0 39 -15.5t16 -40.5q0 -29 -22 -47q9 -32 45 -32q20 0 43 7.5t45 22.5t36.5 42t15.5 60q0 69 -56 69h-29q-9 0 -15.5 1t-15.5 5t-14 14t-5 26q0 20 12 34t35 14h32q40 0 71 22.5t44 49t13 50.5t-13.5 39t-38.5 15q-31 0 -61.5 -18.5
t-42.5 -47.5q-1 -2 -3.5 -8.5t-3.5 -8.5t-4 -7t-5 -6.5t-5.5 -4.5t-8 -4.5t-10 -2.5t-13.5 -1q-20 0 -33 11t-13 36q0 22 15.5 49t41.5 51.5t65.5 41t82.5 16.5q65 0 107.5 -42t41.5 -109q-1 -51 -29.5 -99.5t-73.5 -80.5q30 -47 30 -105q-1 -54 -24.5 -98.5t-59.5 -71.5
t-76.5 -41.5t-79.5 -14.5q-64 0 -103 39t-38 101z" />
    <glyph glyph-name="four" unicode="4" 
d="M347 66q5 1 18.5 8t21.5 7q19 0 32 -15.5t12 -32.5q0 -21 -20 -36t-43 -20.5t-42 -5.5h-5q-2 -8 -17 -69t-22 -93q-16 -29 -46 -30q-20 1 -33.5 14.5t-13.5 35.5q0 11 39 165l-11 4q-48 20 -80 20q-44 0 -59 -10q-10 -8 -25 -8q-18 0 -31 16.5t-12 31.5q0 19 12.5 34
t26.5 22h2q45 38 84.5 85t68 97t49 91.5t38 91t24 70.5t15.5 54l7 24q8 19 21.5 27t26.5 8q19 0 33.5 -14t14.5 -35q0 -5 -7 -33.5t-25 -82.5t-44 -113.5t-70.5 -131.5t-97.5 -131l-2 -2q20 -4 63 -22q33 129 37 136q13 29 44 29q19 0 33.5 -13.5t13.5 -36.5q0 -14 -15 -70
q-11 -41 -16 -66z" />
    <glyph glyph-name="five" unicode="5" 
d="M66 131q0 51 20 71t47 20q24 0 38.5 -16.5t14.5 -40.5q0 -26 -21 -47q10 -33 44 -33q52 0 99 52.5t48 120.5q0 26 -10 47t-34 21q-8 0 -15 -1.5t-13 -2.5t-12.5 -4t-11 -4.5t-10.5 -5.5l-9 -6t-8.5 -6.5t-7 -5.5t-6 -5.5l-5.5 -5.5q-14 -19 -40 -19q-23 0 -34.5 13
t-10.5 35q0 8 3 18l-1 -2q11 46 34 136q23 91 34 135q6 25 15.5 36t36.5 11h217q27 0 37.5 -15t10.5 -33q-3 -48 -50 -48h-177q-7 -25 -17.5 -66.5t-17.5 -68.5q29 10 62 10q65 0 101.5 -48t35.5 -118q-1 -54 -23 -104.5t-57 -85t-79 -55t-87 -20.5q-62 0 -102 39t-39 102z
" />
    <glyph glyph-name="six" unicode="6" 
d="M82 178q1 60 22 146q33 141 123.5 234.5t183.5 93.5q50 0 78.5 -27t28.5 -73q-1 -44 -21 -63.5t-44 -19.5q-23 0 -39 16t-16 41q0 18 7 30q-35 0 -82 -38t-83 -107q35 15 77 15q33 0 59.5 -12t42 -30.5t25.5 -42t13.5 -43t3.5 -37.5q0 -32 -12 -72.5t-29 -70.5
q-12 -21 -29.5 -41t-42.5 -41t-58 -33.5t-68 -12.5q-24 0 -46.5 8t-45 27t-36 58.5t-12.5 94.5zM180 171q0 -14 1.5 -26.5t5.5 -27t14 -23.5t24 -9q50 0 93 56t44 120q0 25 -11.5 48t-39.5 23q-41 0 -78.5 -33.5t-45.5 -78.5q-1 -2 -3.5 -16t-3.5 -22v-11z" />
    <glyph glyph-name="seven" unicode="7" 
d="M90 444q0 9 5 21t30 65l40 84q11 24 20 31t33 7q26 0 39 -19q41 19 79 19q18 0 31.5 -4.5t23 -14.5t13.5 -16t11 -20q8 -14 9 -14q10 0 20.5 4t20.5 12.5t16.5 15t15.5 16.5t11 12q13 9 32 9q28 0 37.5 -14.5t9.5 -31t-19 -42.5q-180 -259 -248 -525l1 1q-11 -50 -53 -50
q-20 0 -34 13.5t-14 35.5q1 10 13.5 58.5t52.5 149.5t95 200l23 41q-35 6 -61 49q-9 13 -10 13q-29 0 -70.5 -27t-73.5 -86v1q-5 -11 -9.5 -18t-15 -13.5t-24.5 -6.5q-30 0 -40 14t-10 30z" />
    <glyph glyph-name="eight" unicode="8" 
d="M64 146q0 58 35.5 112t98.5 88q-23 18 -36.5 45t-13.5 55q1 74 69.5 140t153.5 66q63 0 103.5 -39t39.5 -102q-1 -51 -30 -95.5t-86 -72.5q58 -39 57 -116q-1 -53 -34 -108t-89.5 -92t-118.5 -37q-67 0 -108.5 43.5t-40.5 112.5zM164 159q0 -32 18 -53t48 -21
q46 0 85.5 42t40.5 96q0 32 -18 53t-48 21q-46 0 -85.5 -42.5t-40.5 -95.5zM248 452q0 -27 16 -43t42 -16q41 0 73.5 32.5t33.5 73.5q0 26 -16 41.5t-42 15.5q-41 0 -73.5 -32.5t-33.5 -71.5z" />
    <glyph glyph-name="nine" unicode="9" 
d="M67 91q1 43 21.5 62t44.5 19q21 0 38 -15.5t16 -40.5q0 -18 -8 -31h8q40 0 83.5 40.5t76.5 106.5q-34 -18 -79 -18q-38 0 -67.5 16.5t-45.5 42t-24 53t-7 53.5q0 70 35.5 133.5t92 101.5t116.5 38q23 0 45 -8t43.5 -27t34.5 -58t13 -94q-1 -83 -37 -196
q-38 -119 -118 -199t-164 -80q-52 0 -85 26t-33 75zM223 380q-1 -24 11 -47t40 -23q43 0 79.5 34t44.5 78q0 2 1 5t1 5q7 30 7 37q1 87 -43 87q-37 0 -73 -32q-67 -59 -68 -144z" />
    <glyph glyph-name="colon" unicode=":" 
d="M231 374q1 37 27.5 62.5t57.5 25.5q28 0 48.5 -20t20.5 -51q-1 -37 -28.5 -62.5t-57.5 -25.5q-31 0 -49.5 20.5t-18.5 50.5zM155 71q0 34 25 61t60 27q28 0 48 -20.5t20 -51.5q0 -36 -27 -61.5t-58 -25.5q-30 0 -49.5 21t-18.5 50z" />
    <glyph glyph-name="semicolon" unicode=";" 
d="M229 375q1 37 28 62t59 25q27 0 47 -20t20 -51q-1 -37 -28 -62.5t-57 -25.5t-49.5 21t-19.5 51zM103 -89q0 13 6 21.5t11 12t20 11.5q37 18 59 48q-46 12 -45 65q0 35 25 62.5t61 27.5q34 0 55.5 -26.5t21.5 -66.5q-1 -49 -41.5 -109.5t-109.5 -89.5q-10 -5 -19 -5
q-17 0 -30.5 15t-13.5 34z" />
    <glyph glyph-name="less" unicode="&#x3c;" 
d="M113 320q0 26 26 43q2 3 9 6l305 202q20 11 30 11q18 0 31.5 -13.5t12.5 -32.5q0 -12 -5 -21.5t-9 -13t-14 -11.5l-268 -176q160 -158 164 -162l4.5 -4.5t6 -6.5t5 -6.5t5 -8.5t3 -9.5t1.5 -10.5q0 -19 -14.5 -32.5t-31.5 -13.5q-25 0 -43 25l-198 195q-20 22 -20 40z
" />
    <glyph glyph-name="equal" unicode="=" 
d="M78 246q0 18 11.5 31t26.5 16h300q17 0 28.5 -5.5t15.5 -14t5.5 -14.5t1.5 -12q0 -7 -2 -14t-7 -15.5t-16.5 -14t-28.5 -5.5h-287q-19 1 -31 11t-14.5 19t-2.5 18zM116 396q0 47 55 47h279q55 0 55 -47q0 -6 -2 -12.5t-6.5 -15t-16 -14t-27.5 -5.5h-290q-27 0 -37 16
t-10 31z" />
    <glyph glyph-name="greater" unicode="&#x3e;" 
d="M58 106q0 5 1 9.5t2 7.5t3 6.5t3.5 5.5t4.5 5t4.5 4t5 3.5t4.5 3.5l264 175h-1l2 2q1 0 2 1l-163 160q-25 25 -25 47q1 17 13.5 31.5t31.5 14.5q14 0 22.5 -5.5t22.5 -20.5l195 -192q21 -22 21 -43q0 -13 -6.5 -23.5t-10.5 -13.5t-14 -10l-308 -204q-18 -10 -29 -10
q-19 0 -32 13t-13 33z" />
    <glyph glyph-name="question" unicode="?" 
d="M157 484q0 22 15 50.5t40.5 55t66 44.5t85.5 18q59 0 95.5 -37.5t35.5 -94.5q0 -25 -15 -64.5t-53 -74.5q-22 -17 -64 -44q42 -4 41 -44q0 -36 -40 -73.5t-93 -37.5q-33 0 -53.5 24.5t-20.5 63.5q0 23 10.5 50.5t28.5 47.5q4 3 45 31l75 51q24 19 35 39t11 33
q0 16 -10.5 25t-29.5 9q-22 0 -44 -8.5t-34.5 -18.5t-12.5 -15v-4q3 -15 3 -16q0 -26 -18.5 -46t-44.5 -20q-22 0 -38.5 15.5t-15.5 40.5zM296 288q6 4 8 8l-4 -3q-2 -1 -4 -5zM166 62q0 29 21 50t48 21q24 0 41.5 -17.5t17.5 -44.5q0 -28 -22 -49.5t-48 -21.5
q-25 0 -42 17.5t-16 44.5z" />
    <glyph glyph-name="at" unicode="@" 
d="M89 223q1 100 46 199t116.5 162t145.5 63q20 0 38 -6.5t36.5 -22t29 -48.5t10.5 -81q-1 -84 -40 -214q-29 -85 -83 -133q20 -3 29.5 -16t9.5 -28q0 -17 -24.5 -41t-65.5 -43t-80 -19q-76 0 -123 63.5t-45 164.5zM258 89q24 0 50 17h-3q-46 0 -74 40.5t-27 106.5
q1 62 27 127.5t70 110.5t90 45q20 0 29 -5q-7 20 -26 20q-47 0 -98 -47t-85.5 -123.5t-35.5 -154.5q-1 -60 22 -98.5t61 -38.5zM291 256q0 -25 5 -39.5t13 -14.5q30 0 63 59.5t34 123.5q0 54 -19 54q-29 0 -62 -59.5t-34 -123.5z" />
    <glyph glyph-name="A" unicode="A" 
d="M62 0h-11t-11.5 1t-11 3t-9.5 5t-6 8.5t-2.5 13t2.5 17.5v2q5 28 35 41q11 3 37 3l239 512q11 22 23.5 33t22 12.5t30.5 1.5q18 0 26.5 -1t17.5 -6t11.5 -16.5t1.5 -32.5l-15 -503q24 0 32 -5h-2q26 -11 18 -46q-4 -15 -11.5 -24.5t-18 -13t-17.5 -4.5t-18 -1h-96
q-11 0 -19 1.5t-18 6.5t-11 15t1 27q6 25 21 34.5t40 9.5q1 13 1 35t1 35h-126q-3 -7 -14 -29.5t-19 -40.5q30 0 36.5 -8t-0.5 -43q-5 -15 -11.5 -24.5t-17 -13t-17 -4.5t-18.5 -1h-96zM262 258h84q2 33 6 95t7 117z" />
    <glyph glyph-name="B" unicode="B" 
d="M12 50q3 16 10 26t17.5 13.5t16.5 4t17 0.5h12q17 70 55 219t59 234h-4h-11t-11 1t-10 3t-9 5.5t-6.5 9t-2 14t2.5 18.5q4 16 11.5 25.5t17.5 13t16.5 4.5t16.5 1h214q71 0 108 -40t36 -98q0 -21 -5 -38q-11 -40 -40 -74.5t-70 -56.5q64 -36 63 -117q-1 -20 -6 -38
q-17 -70 -78 -125t-143 -55h-233h-10t-10.5 1t-10.5 3t-8.5 5.5t-6.5 9t-1.5 13.5t3.5 18zM184 94h101q49 0 84.5 29.5t45.5 65.5q3 14 4 25q0 30 -16 51t-52 21h-119q-6 -25 -48 -192zM258 380h77q54 0 88.5 30t43.5 64q1 14 0 30.5t-17 29.5t-44 13h-107q-23 -91 -41 -167
z" />
    <glyph glyph-name="C" unicode="C" 
d="M409 558q-35 0 -74.5 -26.5t-73 -69.5t-56 -104t-23.5 -124q-1 -68 27 -109t72 -41q21 0 45 8t52 34.5t41 66.5q13 41 55 41h9.5t11 -1.5t10.5 -5t8 -9.5t3.5 -15.5t-3.5 -22.5q-19 -75 -92 -132.5t-159 -57.5q-81 0 -131 63t-48 166q0 50 14 104l-1 3q35 138 129.5 232
t193.5 94q62 0 109 -39l14 18q20 21 42 21q17 0 26 -5.5t10.5 -16.5t0.5 -19t-4 -20h1q-5 -23 -18 -69q-12 -47 -18 -69q-4 -14 -6 -20.5t-8.5 -16t-17 -13.5t-26.5 -4q-22 0 -32 7.5t-10 18.5v24q5 51 -16 80t-57 29z" />
    <glyph glyph-name="D" unicode="D" 
d="M53 0h-10.5t-10.5 1t-10.5 3t-8.5 5.5t-6.5 8.5t-1.5 13t3 18l-1 1q3 16 10 26t17.5 13.5t16.5 4t17 0.5h8q19 76 56.5 226.5t56.5 226.5q-57 0 -46 50q17 45 63 45h195q78 0 119.5 -62t40.5 -158q-1 -48 -15 -110q-33 -129 -117 -220.5t-181 -91.5h-195zM175 94h70
q66 0 123.5 69t80.5 157q11 46 12 85q1 62 -22.5 102t-71.5 40h-78q-18 -70 -55.5 -219t-58.5 -234z" />
    <glyph glyph-name="E" unicode="E" 
d="M15 50q0 4 3 7q4 13 11 21.5t17 11.5t16 3.5t16 0.5h15q17 70 55 219t59 234h-8h-11t-10.5 1t-10.5 3t-8.5 5.5t-6.5 9t-2 14t3 18.5q4 16 11 25.5t17.5 13t16.5 4.5t17 1h354q35 0 43 -14t-2 -48l-18 -73q-3 -13 -5.5 -20t-9 -16t-17.5 -13t-27 -4q-15 0 -24 4t-13 8.5
t-4 15.5t1 15.5t4 18.5q0 7 8 31h-200q-37 -152 -41 -168h90q9 36 19 46.5t41 10.5q15 0 24.5 -4t13.5 -9t4 -15t-1.5 -16l-4.5 -18h1q-3 -15 -11.5 -46t-12.5 -47q-2 -11 -5 -19t-9 -16.5t-17 -13t-27 -4.5q-24 0 -33 7.5t-9 28.5q0 12 2 21h-90q-7 -30 -23 -91t-25 -100
h219q11 40 14 56q3 13 5.5 20t9 16t17.5 13.5t27 4.5q15 0 24.5 -4t13.5 -9t4 -15t-1 -16t-4 -18h1l-23 -88q-8 -32 -20.5 -43t-42.5 -11h-375h-10t-10.5 1t-10.5 3t-8.5 5.5t-6.5 9t-2 13.5t3 18z" />
    <glyph glyph-name="F" unicode="F" 
d="M17 50q2 7 4 9q4 12 11 20t17 11t16 3.5t16 0.5h18q17 70 55 219t59 234h-11q-58 0 -46 50q8 24 26 34.5t36 10.5h361q35 0 43 -14t-1 -48l-18 -73q-4 -14 -6.5 -20t-8.5 -15.5t-17 -13.5t-27 -4q-15 0 -24 4t-13 9t-4 14.5t1 16t4 18.5h-1q1 5 9 31h-204l-47 -179h96
q10 36 19.5 46t41.5 10q15 0 24 -4t13 -8.5t4 -15t-1 -15t-4 -18.5h1q-4 -16 -12 -47t-12 -45q-3 -13 -5.5 -20t-8.5 -16t-17 -13.5t-27 -4.5q-24 0 -33 8t-9 28q0 13 1 21h-95l-46 -180h30h10.5t10 -1t10.5 -2.5t8.5 -5.5t6 -9.5t1.5 -13.5t-2 -19q-4 -15 -11 -24.5
t-17.5 -13t-17 -4.5t-16.5 -1h-145h-10.5t-10.5 1t-11 3t-8.5 5.5t-6.5 9t-2 13.5t3 18z" />
    <glyph glyph-name="G" unicode="G" 
d="M95 326q0 4 2 4q36 137 125 229.5t180 92.5q57 0 95 -36q14 20 25.5 28t28.5 8t26 -5.5t10.5 -16.5t0.5 -19t-4 -20h1q-6 -28 -21 -83q-10 -37 -15 -55q-4 -14 -6 -20.5t-8.5 -16t-17 -13.5t-26.5 -4q-27 0 -35.5 12.5t-5.5 34.5q5 60 -14.5 86t-45.5 26
q-54 0 -113.5 -69t-84.5 -173q-12 -42 -12 -90q-1 -64 22 -103t60 -39q32 0 65 31t58 93h-16h-10t-10.5 1t-10.5 3t-8.5 5.5t-6 9t-1.5 14t3 18.5q4 16 11 25.5t17 13t16 4t17 0.5h113q58 0 45 -50q-11 -42 -56 -44l-38 -154q-3 -12 -5.5 -19.5t-8.5 -16.5t-17 -13.5
t-27 -4.5q-39 0 -44 22q-49 -32 -105 -32q-75 0 -120 61.5t-43 162.5q0 53 15 112z" />
    <glyph glyph-name="H" unicode="H" 
d="M12 50q3 16 10 25.5t17 13.5t16.5 4.5t16.5 0.5h11q17 70 55 219t59 234h-3q-57 0 -46 50q17 45 62 45h113q6 0 9.5 -0.5l10.5 -1.5t10.5 -2.5t8 -5.5t6 -9.5t2 -13.5t-2.5 -19q-4 -15 -11 -24.5t-17 -13t-16.5 -4.5t-16.5 -1h-12q-23 -91 -41 -167h169q22 91 41 167h-3
h-11t-10.5 1t-10.5 3t-8.5 5.5t-6 9t-1.5 14t2 18.5q4 16 11.5 25.5t17.5 13t16 4.5t17 1h113q6 0 10 -0.5t10.5 -1.5t10.5 -2.5t8.5 -5.5t6 -9.5t1.5 -13.5t-3 -19q-4 -15 -11 -24.5t-17 -13t-16 -4.5t-16 -1h-11q-18 -70 -55.5 -219t-58.5 -234h3h10.5t10.5 -1t11 -2.5
t8.5 -5.5t6 -9.5t1.5 -13.5t-2 -19q-5 -15 -12 -24.5t-17 -13t-16.5 -4.5t-16.5 -1h-113h-10.5t-10.5 1t-10.5 3t-8 5.5t-6 9t-1.5 14t3 18.5q3 16 10 25.5t17 13t16.5 4t16.5 0.5h13q7 27 21.5 89.5t24.5 102.5h-168q-6 -25 -48 -192h4h10.5t10.5 -1t10.5 -2.5t8 -5.5
t6 -9.5t1.5 -13.5t-2 -19q-4 -15 -11 -24.5t-17 -13t-16.5 -4.5t-16.5 -1h-113h-10.5t-10.5 1t-10.5 3t-8 5.5t-6.5 9t-1.5 13.5t3.5 18z" />
    <glyph glyph-name="I" unicode="I" 
d="M66 51q3 16 10.5 25.5t17.5 13t16.5 4t16.5 0.5h89q17 70 55 219t59 234h-81h-10.5t-11 1t-10.5 3t-9 5.5t-6 9t-2 14t2 18.5q4 16 11.5 25.5t17.5 13t16.5 4.5t17.5 1h270q6 0 10 -0.5t10.5 -1.5t10.5 -2.5t8.5 -5.5t6.5 -9t2 -13.5t-3 -19.5q-4 -15 -11 -24.5t-17 -13
t-16.5 -4.5t-16.5 -1h-89q-18 -70 -55.5 -219t-58.5 -234h81h10.5t10.5 -1t11 -2.5t8.5 -5.5t6 -9.5t1.5 -13.5t-2 -19q-4 -15 -11 -24.5t-17.5 -13t-17 -4.5t-16.5 -1h-270h-10.5t-10.5 1t-10.5 3t-8.5 5.5t-6.5 9t-1.5 14t3 18.5z" />
    <glyph glyph-name="J" unicode="J" 
d="M75 120q7 29 27 44.5t43 15.5q26 0 39 -19.5t6 -46.5q0 -1 -7 -18q17 -12 53 -12q10 0 20.5 2t28 8.5t32 23.5t20.5 43h1l98 386h-58h-11t-10.5 1t-10.5 3t-8.5 5.5t-6.5 9t-2 14t3 18.5q4 16 11 25.5t17.5 13t16.5 4.5t17 1h172q57 0 45 -51q-8 -24 -26 -34t-36 -10h-15
q-17 -67 -51 -200.5t-50 -200.5q-18 -71 -80 -113.5t-134 -42.5q-79 0 -118.5 36.5t-25.5 93.5z" />
    <glyph glyph-name="K" unicode="K" 
d="M61 0h-10.5t-11 1t-10.5 3t-8.5 5.5t-6 8.5t-2.5 13t2 18l-1 2q4 16 11 25.5t17.5 13t17 4t16.5 0.5h7q19 76 56.5 226.5t56.5 226.5h-10.5t-10.5 1t-10.5 3t-8 5.5t-6 9t-1.5 14t2 18.5q4 16 11 25.5t17.5 13t17 4.5t16.5 1h95q6 0 10 -0.5t11 -1.5t10.5 -2.5t9 -5.5
t6 -9.5t2.5 -13.5t-3 -19q-4 -15 -11.5 -24.5t-17.5 -13t-16.5 -4.5t-16.5 -1h-8l-51 -197l102.5 102.5t102.5 101.5q-20 13 -13 43q8 24 26 34.5t36 10.5h84q57 0 45 -51q-13 -44 -70 -44q-24 -23 -85 -83.5t-96 -95.5q13 -46 39 -135.5t38 -134.5q0 -1 1 -4q32 0 43 -9
t4 -42q-5 -15 -12 -24.5t-17.5 -13t-17 -4.5t-16.5 -1h-71q-57 0 -45 51q5 18 16 29t23 13q-11 42 -30.5 109.5t-25.5 91.5q-14 -13 -46.5 -44.5t-50.5 -49.5l-26 -106h1h10.5t11 -1t10.5 -3t9 -5.5t6 -9t2 -13.5t-2 -19q-5 -15 -12 -24.5t-17.5 -13t-17 -4.5t-16.5 -1h-94z
" />
    <glyph glyph-name="L" unicode="L" 
d="M64 0h-10.5t-10.5 1t-10 3t-8.5 5.5t-6 8.5t-2.5 13t3 18v1q3 16 10 25.5t17 13.5t16 4.5t17 0.5h22q17 70 55 219t59 234h-14q-57 0 -46 50q17 45 62 45h153q6 0 9.5 -0.5t11 -1.5t10.5 -2.5t9 -5.5t6.5 -9.5t2.5 -13.5t-3 -19q-11 -43 -62 -43h-40q-18 -70 -55.5 -219
t-58.5 -234h195q2 10 7 28.5t7 27.5q3 14 5.5 21t8.5 16t17.5 13t27.5 4t25.5 -4t13.5 -9t4 -14.5t-1.5 -16t-4.5 -18.5h1l-22 -88q-9 -33 -21.5 -43.5t-42.5 -10.5h-356z" />
    <glyph glyph-name="M" unicode="M" 
d="M51 0h-10.5t-10 1t-10.5 3t-8.5 5.5t-6 8.5t-1.5 13t3 18l-1 1q6 28 19.5 36t39.5 8q12 50 52 206.5t62 246.5q-26 1 -35 11t-1 40q4 16 11 25.5t17 13t16 4.5t17 1h53q10 0 16 -1t16 -4t16 -11.5t8 -21.5q0 -6 3 -39q13 -192 12 -208q13 24 21 36l114 201q12 20 18 27.5
t20.5 14t37.5 6.5h54q56 0 44 -51q-7 -25 -21.5 -34.5t-38.5 -9.5q-18 -70 -55.5 -219t-58.5 -234q27 0 36 -10.5t1 -40.5q-4 -15 -11 -24.5t-17 -13t-16.5 -4.5t-16.5 -1h-78q-57 0 -44 50q6 25 20.5 34.5t38.5 9.5q17 70 40.5 162.5t43.5 173.5q-102 -183 -113 -199
q-23 -28 -52 -28q-12 0 -23 7t-15 17q-4 6 -8 67q0 1 -0.5 4t-0.5 4v8q0 1 -4.5 50.5t-4.5 74.5l-85 -341q26 0 35 -10.5t2 -40.5q-5 -15 -12 -24.5t-17 -13t-16.5 -4.5t-16.5 -1h-78z" />
    <glyph glyph-name="N" unicode="N" 
d="M17 51q4 16 11 25.5t17 13t16.5 4t16.5 0.5h10q17 70 55 219t59 234h-3h-10.5t-10.5 1t-10.5 3t-8 5.5t-6 9t-1.5 14t2 18.5q4 16 11 25.5t17.5 13t16.5 4.5t17 1h64q28 0 41 -10t17 -41q20 -197 41 -403q8 31 40.5 158.5t50.5 200.5h-3q-56 0 -45 50q8 24 26 34.5
t36 10.5h100q6 0 10 -0.5t11 -1.5t10.5 -2.5t8 -5.5t6 -9.5t2 -13.5t-2.5 -19q-4 -15 -11 -24.5t-17.5 -13t-16.5 -4.5t-16 -1h-11l-124 -493q-9 -35 -22.5 -44.5t-43.5 -9.5q-29 0 -42.5 9t-16.5 41l-41 406q-13 -54 -44 -174t-48 -188h3h10.5t10.5 -1t11 -2.5t8.5 -5.5
t6 -9.5t1.5 -13.5t-2 -19q-5 -15 -12 -24.5t-17 -13t-16.5 -4.5t-16.5 -1h-100h-10.5t-10.5 1t-10.5 3t-8 5.5t-6.5 9t-2 14t3 18.5z" />
    <glyph glyph-name="O" unicode="O" 
d="M69 102q1 56 42 221l-1 1q20 81 34 129.5t33.5 89t36 59t46 31.5t59.5 16t81 3t80.5 -3.5t52.5 -15.5t32 -34.5t8 -59.5q0 -54 -41 -223q-19 -74 -33.5 -121t-33 -87t-37 -60.5t-46.5 -35t-60 -18.5t-79 -4q-52 0 -81 3.5t-52.5 15t-32 34t-8.5 59.5zM262 497
q-19 -39 -54 -170l1 -1q-34 -123 -36 -188q-1 -30 16 -42t68 -12q55 0 80.5 14.5t42.5 51.5q27 59 58 183h-1q34 139 34 178q0 29 -19 38t-67 9q-55 0 -80.5 -12t-42.5 -49zM193 346l15 -19v-1z" />
    <glyph glyph-name="P" unicode="P" 
d="M15 50q3 16 10 26t17.5 13.5t16.5 4t17 0.5h15q17 70 55 219t59 234h-7h-10.5t-11 1t-10.5 3t-9 5.5t-6 9t-2 14t2 18.5q4 16 11.5 25.5t17.5 13t16.5 4.5t17.5 1h212q73 0 114 -45t40 -112q-1 -24 -6 -46h1q-19 -78 -87.5 -136.5t-153.5 -58.5h-105q-34 -135 -38 -150h7
h10.5t10.5 -1t10.5 -3t9 -5.5t6 -9t2.5 -13.5t-2 -19q-5 -15 -12 -24.5t-17.5 -13t-17 -4.5t-16.5 -1h-122h-10.5t-10.5 1t-11 3t-8.5 5.5t-6.5 9t-1.5 13.5t3.5 18zM252 338h80q57 0 96 34t49 74q9 38 -11.5 69.5t-73.5 31.5h-87q-11 -43 -29.5 -115.5t-23.5 -93.5z" />
    <glyph glyph-name="Q" unicode="Q" 
d="M111 324q3 6 4 7q20 79 33.5 126t32.5 87t35.5 58.5t45.5 31t59.5 15.5t81 3t80 -3.5t52.5 -15.5t32 -34.5t8 -59.5q0 -63 -40 -224q-8 -22 -23.5 -82t-25.5 -85q-20 -56 -43 -88.5t-54 -49.5q1 -1 1 -4l-1 1q4 -15 13 -41l4 -23q11 -38 8 -49q-4 -15 -13.5 -22.5
t-16.5 -9t-21 -1.5h-9q-14 0 -20 1t-13.5 6.5t-11.5 17.5q0 1 -6 24l-20 80h-40q-51 0 -80.5 3.5t-52.5 15t-32 34t-9 59.5q1 57 42 222zM262 494q-19 -41 -53 -177l1 -1q-29 -103 -35 -169q-2 -34 12.5 -48.5t64.5 -14.5h10l-16 65q-3 11 -2 22q4 15 13.5 23t17 9t20.5 1
h10q23 0 28.5 -4t11.5 -24l18 -64q30 31 75 214q29 108 34 169q3 37 -14.5 50t-70.5 13q-56 0 -81.5 -14.5t-43.5 -49.5zM194 337l15 -20v-1z" />
    <glyph glyph-name="R" unicode="R" 
d="M351 232q0 22 -22 32t-42 10h-62l-45 -180h4h10.5t10 -1t10.5 -2.5t8.5 -5.5t6 -9.5t1.5 -13.5t-2 -19q-4 -15 -11 -24.5t-17.5 -13t-17 -4.5t-16.5 -1h-112h-10.5t-10.5 1t-10.5 3t-8.5 5.5t-6.5 9t-1.5 13.5t3 18q4 16 11 25.5t17 13.5t16 4.5t17 0.5h10q17 70 55 219
t59 234h-3q-57 0 -45 50q8 24 26 34.5t36 10.5h167q76 0 119.5 -42.5t42.5 -104.5q0 -21 -7 -41h1q-8 -36 -34 -74.5t-70 -65.5q17 -24 22 -54q2 -17 -0.5 -32t-15.5 -67h1q-15 -57 -15 -71v-6q3 0 8 12.5t6 19.5q13 43 56 43q6 0 9.5 -0.5t11 -2t10.5 -4.5t8 -9t3.5 -15.5
t-3.5 -22.5q-10 -39 -44 -77t-80 -38q-63 0 -77 57q-6 15 -6 36q0 31 19 99q10 37 10 50zM248 368h48q55 0 93 29t48 65q7 32 -15 58.5t-71 26.5h-56z" />
    <glyph glyph-name="S" unicode="S" 
d="M40 50l32 132q3 13 5.5 20t8.5 16.5t17 13.5t28 4q30 0 38 -14t2.5 -32.5t-4.5 -42t17 -37.5q32 -26 94 -26q48 0 83.5 29.5t44.5 67.5q3 12 3 25q1 52 -68 67l-95 24q-5 1 -5 2q-50 17 -76 53.5t-26 83.5q0 19 7 41h-1q18 71 84 123t149 52q65 0 116 -37q11 20 22 28.5
t30 8.5q17 0 26 -5.5t10.5 -16.5t0.5 -19t-4 -20l-33 -131q-3 -14 -5.5 -20.5t-9 -16t-17.5 -14t-26 -4.5q-24 0 -34 10.5t-7 36.5q2 14 2 22t-3 26t-11 28.5t-26 20t-45 9.5q-44 0 -79.5 -25.5t-43.5 -60.5q-7 -26 5.5 -46t35.5 -27l-1 1l72 -18q59 -15 83 -27t47 -44
q25 -41 25 -88q-1 -23 -7 -45h1q-19 -75 -86 -131.5t-152 -56.5q-91 0 -140 36q-21 -36 -51 -36q-14 0 -23 4t-12.5 9.5t-3.5 15.5t1.5 15.5t4.5 15.5z" />
    <glyph glyph-name="T" unicode="T" 
d="M131 516l17 71q7 33 20 44t45 11h371q35 0 43 -14t-2 -48l-18 -73q-4 -14 -6.5 -20t-8.5 -15.5t-17 -13.5t-27 -4q-15 0 -24 4t-13 8.5t-4 15.5t1 15.5t4 18.5h-1q1 5 9 31h-91q-18 -70 -55.5 -219t-58.5 -234h28h10.5t10.5 -1t11 -2.5t8.5 -5.5t6 -9.5t1.5 -13.5t-2 -19
q-4 -15 -11 -24.5t-17.5 -13t-17 -4.5t-16.5 -1h-164h-10.5t-10 1t-10.5 3t-8 5.5t-6 9t-2 14t3 18.5q3 16 10.5 25.5t17.5 13t16.5 4t16.5 0.5h36q17 70 55 219t59 234h-92l-12 -40q-3 -13 -5.5 -20t-8.5 -16t-17 -13t-27 -4q-15 0 -24.5 4t-13 8.5t-3.5 15t1 16t4 18.5h-1
z" />
    <glyph glyph-name="U" unicode="U" 
d="M132 598q4 16 11 25.5t17.5 13t16.5 4.5t17 1h122q58 0 46 -51q-9 -24 -27 -34t-35 -10h-15l-83 -327q-6 -28 -6 -50q0 -41 18.5 -63.5t44.5 -22.5q37 0 78 38.5t59 106.5h-1l80 318h-8h-11t-10.5 1t-10.5 3t-8.5 5.5t-6.5 9t-2 14t3 18.5q4 16 11 25.5t17.5 13t16.5 4.5
t17 1h122q58 0 46 -51q-17 -44 -62 -44h-17l-83 -331q-17 -62 -56.5 -114.5t-90 -82t-99.5 -29.5q-66 0 -107.5 47t-40.5 123q0 30 9 64l82 323h-8h-11t-10.5 1t-10.5 3t-8.5 5.5t-6.5 9t-2 14t3 18.5z" />
    <glyph glyph-name="V" unicode="V" 
d="M191 547q-32 1 -43 10t-4 39l-1 2q4 16 11.5 25.5t17.5 13t16.5 4.5t17.5 1h97q57 0 45 -51q-7 -25 -21 -34t-39 -10l-5 -370l1 -1q41 83 45 92l138 279q-22 2 -31.5 13t-3.5 38q4 16 11.5 25.5t17.5 13t16.5 4.5t17.5 1h96q58 0 46 -51q-8 -25 -24 -34.5t-43 -9.5
q-42 -84 -125.5 -254.5t-125.5 -254.5v1q-8 -17 -16 -27t-18.5 -14.5t-18 -5t-22.5 -0.5q-18 0 -26 1t-17 5.5t-12 16.5t-2 32zM284 176q1 4 0.5 6.5t-0.5 -0.5q-1 -4 -1 -9z" />
    <glyph glyph-name="W" unicode="W" 
d="M138 597q2 7 4 9q5 12 12 20t17 11t16 4t16 1h75q6 0 9.5 -0.5l10.5 -1.5t10.5 -2.5t8 -5.5t6 -9.5t2 -13.5t-2.5 -19q-4 -15 -11 -24.5t-17 -13t-16.5 -4.5t-16.5 -1h-9l-42 -336q63 145 73 159q21 29 58 29q44 0 48 -38q0 -16 -1 -35q-1 -15 -1 -38.5t-1 -40t-3 -36.5
q2 6 6 17.5t5 13.5l116 305h-1q-57 0 -46 50q17 45 62 45h75q6 0 9.5 -0.5l10.5 -1.5t10 -2.5t9 -5.5t6.5 -9.5t2 -13.5t-2.5 -19q-11 -43 -47 -43l-196 -509q-17 -46 -62 -46q-47 0 -49 41q2 152 7 182q-17 -37 -39.5 -84.5t-37.5 -78t-17 -33.5q-19 -27 -55 -27
q-50 0 -45 54l59 502q-37 5 -25 49z" />
    <glyph glyph-name="X" unicode="X" 
d="M16 50q3 16 10 26t17 13.5t16.5 4t16.5 0.5h13q32 44 93.5 127.5t89.5 122.5q-8 32 -26 98.5t-27 104.5h-10h-10.5t-10.5 1t-10 3t-9 5.5t-6.5 9t-2 14t2.5 18.5q4 16 11 25.5t17.5 13t17 4.5t17.5 1h98q57 0 45 -51q-12 -39 -44 -43q19 -73 23 -92q8 9 30 42t36 51
q-29 10 -20 49q4 16 11.5 25.5t17.5 13t16 4.5t17 1h98q6 0 9.5 -0.5t11 -1.5t10.5 -2.5t9 -5.5t6.5 -9.5t2.5 -13.5t-3 -19q-4 -15 -11.5 -24.5t-17.5 -13t-16.5 -4.5t-16.5 -1h-12q-20 -26 -154 -210l62 -243h10h10.5t10.5 -1t11 -2.5t8.5 -5.5t6 -9.5t1.5 -13.5t-2 -19
q-4 -15 -11 -24.5t-17.5 -13t-17 -4.5t-16.5 -1h-99q-57 0 -44 50q11 41 45 44q-16 72 -32 138q-46 -67 -97 -140q16 -3 20.5 -13t-0.5 -36q-4 -15 -11 -24.5t-17.5 -13t-17 -4.5t-16.5 -1h-99h-10t-10.5 1t-10.5 3t-8.5 5.5t-6 9t-1.5 13.5t3 18z" />
    <glyph glyph-name="Y" unicode="Y" 
d="M146 598q4 16 11.5 25.5t17.5 13t16 4.5t17 1h98q57 0 45 -51q-12 -35 -47 -43q33 -137 32 -171q15 21 54 77.5t64 93.5q-32 8 -22 50q4 16 11.5 25.5t17.5 13t16 4.5t17 1h98q6 0 10 -0.5t11 -1.5t10.5 -2.5t8 -5.5t6 -9.5t2 -13.5t-2.5 -19q-4 -15 -11 -24.5t-17 -13
t-16.5 -4.5t-16.5 -1h-11q-13 -18 -210 -294l-40 -159h3h10.5t10.5 -1t11 -2.5t8.5 -5.5t6 -9.5t1.5 -13.5t-2 -19q-5 -15 -12 -24.5t-17 -13t-16.5 -4.5t-16.5 -1h-113h-10.5t-10 1t-10.5 3t-8 5.5t-6 9t-2 14t3 18.5q3 16 10.5 25.5t17.5 13t16.5 4t16.5 0.5h10
q7 29 21 82.5t21 82.5l-60 288h-6h-11t-10.5 1t-10.5 3t-8.5 5.5t-6 9t-1.5 14t2 18.5z" />
    <glyph glyph-name="Z" unicode="Z" 
d="M82 0q-9 0 -14 0.5t-13 1.5t-12 4.5t-7.5 9.5t-3 15.5t4.5 23.5l-1 1q7 21 22 37q64 71 200.5 224t206.5 230h-195l-11 -40q-4 -14 -6.5 -20t-8.5 -15.5t-17 -13.5t-27 -4q-15 0 -24 4t-13 8.5t-4 15.5t1 15.5t4 18.5l18 72h-1q8 32 21 43t45 11h316q9 0 14 -0.5t13 -2
t11.5 -5t7 -10t3 -16.5t-4.5 -24q-9 -22 -20 -36l-406 -454h210l16 59q2 13 5 20.5t8.5 16t16.5 13t27 4.5q15 0 24.5 -4t13.5 -9t4 -15t-1 -16t-4 -18h1q-3 -14 -11.5 -45t-11.5 -46q-9 -33 -21.5 -43.5t-42.5 -10.5h-333z" />
    <glyph glyph-name="bracketleft" unicode="[" 
d="M152 -38q0 10 5 28l171 685h-1q7 27 18 38t37 11h144q51 0 50 -46q-1 -49 -52 -49h-106q-22 -91 -73.5 -296.5t-80.5 -320.5h86q26 0 37 -14t11 -32q-1 -49 -53 -49h-144q-16 0 -27 5.5t-15.5 14t-6 14.5t-0.5 11z" />
    <glyph glyph-name="backslash" unicode="\" 
d="M202 675q0 22 14.5 35.5t32.5 13.5q40 0 46 -58l85 -682q2 -10 2 -19q-1 -22 -15 -35t-31 -13q-42 0 -47 58l-85 682q-2 11 -2 18z" />
    <glyph glyph-name="bracketright" unicode="]" 
d="M10 -37q0 49 51 49h105l155 618h-81q-1 0 -2 -0.5t-3 -0.5q-25 0 -37 14t-12 31q0 21 12.5 35.5t40.5 14.5h144q20 0 32.5 -9t15 -17.5t2.5 -18.5q0 -9 -5 -27l-172 -687h1q-8 -30 -19 -39t-34 -9h-147q-28 0 -38 15t-9 31z" />
    <glyph glyph-name="asciicircum" unicode="^" 
d="M164 477q0 32 32 45l-1 -1q106 55 126 64.5t30 9.5q11 0 25.5 -8.5t68.5 -46.5l27 -20v1q29 -15 29 -44q-1 -17 -17.5 -37t-35.5 -20q-11 0 -19 5t-45 33q-2 2 -16 13t-23 17l-112 -62q-18 -6 -24 -6q-25 0 -35.5 19.5t-9.5 37.5z" />
    <glyph glyph-name="underscore" unicode="_" 
d="M18 -43q1 7 2.5 14t7 17t18 15.5t30.5 5.5h247q57 0 56 -52q0 -9 -3 -19.5t-17 -21t-36 -10.5h-249q-22 0 -35.5 10.5t-17 20.5t-3.5 20z" />
    <glyph glyph-name="grave" unicode="`" 
d="M230 616q1 21 16 37.5t36 16.5q10 0 18.5 -5t53.5 -34v1l41 -27q1 -1 5 -4.5t7 -7t7 -8.5t6 -11.5t2 -13.5q-1 -19 -18 -38t-37 -19q-8 0 -50 28l-58 39q-29 18 -29 46z" />
    <glyph glyph-name="a" unicode="a" 
d="M74 161q1 70 32 139t82 113.5t103 44.5q39 0 75 -31q14 16 35 16q19 0 33.5 -14t14.5 -35q0 -5 -4 -21l-62 -249q0 -4 -4 -11q-2 -6 -2 -14q0 -11 3 -11q5 0 25 70q3 9 4.5 13t6.5 13t14 13t22 4h4q20 0 31 -9.5t13 -18t2 -18.5q0 -1 -1.5 -9.5t-6 -23.5t-10.5 -31.5
t-16 -33.5t-22.5 -31t-30 -22.5t-37.5 -8.5q-47 0 -79 41q-50 -41 -102 -41q-56 0 -90 46.5t-33 119.5zM170 158q0 -26 6.5 -48t23.5 -22q39 0 79 67t41 139q0 33 -9 51.5t-24 18.5q-25 0 -52 -31.5t-46 -80.5t-19 -94z" />
    <glyph glyph-name="b" unicode="b" 
d="M310 364q-4 0 -5 1q-45 -4 -85.5 -67t-41.5 -132q-1 -79 44 -79q24 0 50.5 11.5t51 34t40.5 62.5t16 91q1 34 -21 56t-49 22zM295 380l15 -15h-5q-11 2 -10 15zM84 171q0 33 12 84q7 30 70 281h-37q-48 0 -47 44q0 10 3 19.5t15 19.5t32 10h95q49 0 49 -45q0 -10 -4 -20
h1l-31 -123q37 17 71 17q71 0 118 -49.5t46 -124.5q0 -68 -22.5 -123.5t-59 -91t-81.5 -54.5t-93 -19q-39 0 -66.5 14t-42.5 39.5t-21.5 55.5t-6.5 66z" />
    <glyph glyph-name="c" unicode="c" 
d="M55 175q1 69 37 134.5t95.5 107t122.5 41.5q55 0 91 -30t35 -78q0 -39 -20 -58t-44 -19q-22 0 -37.5 16t-15.5 39q0 17 9 32q-10 4 -20 4q-55 0 -105.5 -60t-51.5 -130q0 -14 3 -27.5t10.5 -27.5t23 -23t38.5 -9q99 0 141 38q20 15 33 15q17 0 32.5 -17.5t16.5 -35.5
q0 -22 -21 -40q-28 -24 -67.5 -36t-66 -14t-69.5 -2q-40 0 -71 12t-49 30.5t-30 43.5t-16 48t-4 46z" />
    <glyph glyph-name="d" unicode="d" 
d="M55 161q1 69 37 139t91.5 114t107.5 44q37 0 68 -24q20 78 25 100h-25q-28 0 -38 14t-10 31q0 11 3 20.5t15.5 19t32.5 9.5h85q48 0 48 -44q0 -9 -4 -22l-112 -444q-2 -11 -2 -19l1 -11q5 0 13 21.5t15.5 46t10.5 29.5q17 16 36 16q27 0 38 -14.5t11 -31.5q0 -3 -3 -17.5
t-12.5 -39.5t-22.5 -47.5t-36 -39t-51 -16.5q-24 0 -45 12t-34 30q-50 -42 -101 -42q-61 0 -102 41.5t-40 124.5zM152 158q-1 -32 12.5 -51t35.5 -19q38 0 78 66t41 140q0 33 -8.5 51.5t-23.5 18.5q-25 0 -57 -31.5t-55 -80.5t-23 -94z" />
    <glyph glyph-name="e" unicode="e" 
d="M56 177q1 72 38.5 137.5t96.5 104.5t119 39q55 0 93 -33.5t37 -85.5q0 -26 -13.5 -54t-32.5 -47q-65 -54 -233 -54h-10q0 -2 0.5 -4.5t0.5 -4.5q0 -34 16.5 -61t56.5 -27q45 0 77 7.5t41.5 13t21.5 16.5q23 16 37 16q16 0 31.5 -17.5t15.5 -35.5q0 -23 -31.5 -46
t-67.5 -34q-47 -12 -125 -12q-40 0 -70.5 12t-49 31t-30 44t-15.5 48.5t-4 46.5zM307 364q-32 0 -66.5 -25t-58.5 -63q160 3 161 62q0 12 -9.5 19t-26.5 7zM171 253l-15 23h26q-6 -11 -11 -23z" />
    <glyph glyph-name="f" unicode="f" 
d="M-5 -134q1 33 20.5 51.5t42.5 18.5q21 0 37.5 -15.5t16.5 -40.5l-1 -8h1q4 0 13 5q24 24 42 99t62 321l10 62h-42q-23 1 -33.5 14t-10.5 31q0 7 1.5 13t5.5 15t15 14.5t26 5.5h55q5 28 7.5 44.5t8.5 38.5t12 34t16.5 26t24 21t32.5 11.5t43 4.5q22 0 42 -4t39 -13t30 -27
t10 -43q0 -29 -17 -49t-44 -20q-25 0 -39.5 15t-14.5 39q0 4 -1 4.5t1 4.5q-1 0 -4.5 0.5t-4.5 0.5q-18 0 -25.5 -17t-15.5 -63q0 -6 -1 -8h57q25 0 36.5 -12.5t11.5 -32.5q0 -9 -3 -18.5t-15 -19.5t-33 -10h-71q-49 -292 -71.5 -386t-47.5 -128q-46 -65 -108 -65
q-19 0 -37.5 3.5t-37 12.5t-30 27t-11.5 43z" />
    <glyph glyph-name="g" unicode="g" 
d="M15 -143q1 27 18 47.5t44 20.5q23 0 37.5 -13.5t15.5 -38.5q8 -1 26 -1q78 0 112 63q6 8 23 84q-34 -19 -71 -19q-62 0 -100 48.5t-37 122.5q1 69 33.5 135.5t86 109t109.5 42.5q49 0 87 -34q15 19 38 19q19 0 32.5 -13t13.5 -35q0 -1 -1 -5t-1 -7q0 -4 -1 -9l-103 -415
v3q-3 -4 -3 -8q-6 -30 -15 -52q-24 -51 -77.5 -87.5t-122.5 -36.5l-4 2q-17 0 -29.5 0.5t-31 2.5t-30.5 7t-24.5 13.5t-18.5 22t-6 31.5zM179 169q0 -34 11.5 -55t31.5 -21q45 0 88 62t43 133q1 35 -10.5 55.5t-32.5 20.5q-44 0 -87 -61.5t-44 -133.5z" />
    <glyph glyph-name="h" unicode="h" 
d="M38 44q0 12 5 27v1l108 429l-1 -1q1 11 7 34h-23q-21 0 -33 8q-17 15 -17 37q0 9 2.5 18.5t15 20t32.5 10.5h81h6.5t12 -2.5t15.5 -7t12.5 -13.5t5.5 -22v-6t-0.5 -5t-2.5 -9.5t-4 -14.5t-6 -25.5t-9 -37.5l-12 -47q38 20 80 20q54 0 85 -32t30 -89q-1 -49 -46 -183
q-20 -59 -20 -62.5t-2 -3.5q5 0 16 12q17 23 26 52q5 14 7 20t8 14t14 11.5t20 3.5h3q20 0 31 -9.5t13.5 -18t2.5 -18.5q0 -12 -10 -37t-27 -53.5t-46.5 -49t-62.5 -20.5q-40 0 -64.5 28t-24.5 69q0 23 29 105q37 102 37 140q0 28 -22 28q-21 0 -41 -13.5t-36.5 -39
t-29.5 -52.5t-25 -63.5t-19 -61t-15 -56.5q-13 -49 -16 -54q-17 -30 -45 -30q-19 0 -32.5 14t-12.5 35z" />
    <glyph glyph-name="i" unicode="i" 
d="M293 570q0 29 21.5 50.5t48.5 21.5q24 0 41 -18t17 -44q0 -29 -22 -50.5t-48 -21.5q-24 0 -41.5 18t-16.5 44zM91 297v1q1 20 14 46.5t33.5 52t52 43.5t64.5 18q45 0 76 -29t30 -74v-5q0 -19 -52 -146q-40 -101 -40 -107q0 -9 11 -9q18 0 37 20.5t29 47.5q3 13 7 21
t15 16t27 8q20 0 34 -11t14 -35q0 -15 -12 -40.5t-31.5 -53t-52.5 -47t-69 -19.5q-43 0 -74.5 28t-31.5 74q0 4 1 10t3 14.5t4 15t6 18t6.5 18t8 20t8 20t8.5 21.5l8 20q38 94 38 102t-11 8q-20 0 -38 -20.5t-26 -47.5q-1 -1 -1.5 -2.5l-0.5 -1.5q-10 -29 -25 -36
q-10 -4 -24 -4q-27 0 -37 14t-9 31z" />
    <glyph glyph-name="j" unicode="j" 
d="M396 570q0 29 21.5 50.5t48.5 21.5q24 0 41 -18t17 -44q0 -29 -22 -50.5t-48 -21.5q-24 0 -41.5 18t-16.5 44zM36 -143q1 29 18.5 48.5t43.5 19.5q23 0 38.5 -15.5t15.5 -37.5q11 0 22 4.5t26.5 16.5t30 40t24.5 68q16 66 46.5 187.5t34.5 138.5q5 17 5 23q0 14 -18 14
q-23 0 -47.5 -21.5t-39.5 -51.5v-2q-12 -37 -46 -37h-4q-40 0 -46 36q-2 16 12.5 44t38.5 56.5t61 49t74 20.5q48 0 80 -30.5t31 -78.5q0 -19 -3 -36l-85 -333q-13 -54 -36.5 -94.5t-51.5 -62.5t-56 -32.5t-57 -10.5q-113 0 -112 77z" />
    <glyph glyph-name="k" unicode="k" 
d="M254 103q0 10 2.5 22.5t2.5 18.5q0 31 -82 38l-8 -33q-30 -122 -34 -126q-6 -11 -18.5 -19.5t-24.5 -8.5q-20 0 -33.5 14.5t-12.5 34.5q0 4 2 15v1l112 447l6 27h-38q-23 0 -34.5 13.5t-11.5 32.5q0 48 53 48h92q28 0 38.5 -14t10.5 -31q0 -6 -3 -14.5t-3 -13.5l-59 -240
q11 11 33 34.5t38.5 39t38.5 33.5t45.5 27t47.5 9q39 0 58.5 -26.5t18.5 -67.5q0 -23 -4.5 -43.5t-20.5 -38t-41 -17.5q-22 0 -37.5 15t-15.5 40q0 19 8 34q-3 -2 -6.5 -4.5t-6.5 -4.5t-7 -5.5t-6.5 -5.5t-7 -6.5t-7 -6.5t-8 -8t-7.5 -8t-8.5 -9t-9.5 -9l-29 -30
q80 -35 79 -112q0 -13 -2.5 -23t-2.5 -18q0 -6 3.5 -11t8.5 -5q9 0 16 12q16 20 23 50q4 15 6.5 21t8 14.5t15 12t23.5 3.5q26 0 36.5 -14.5t10.5 -31.5q0 -9 -8.5 -32.5t-24 -53.5t-44 -52t-63.5 -22q-45 0 -76.5 30t-31.5 78z" />
    <glyph glyph-name="l" unicode="l" 
d="M254 105q0 -8 11 -13t22 -5q29 0 52 78l1 5q6 14 14.5 21t15.5 8.5t19 1.5q24 0 34.5 -15t10.5 -31q0 -10 -9 -34.5t-26 -53.5t-47 -50.5t-66 -21.5q-55 0 -92.5 30.5t-37.5 78.5q0 20 9 44l3 14l53 212l40 160h-69q-49 0 -48 45q0 21 12 35t39 14h127q48 0 48 -45
q0 -8 -2 -18l-112 -447l-1 -5q-1 -4 -1 -8z" />
    <glyph glyph-name="m" unicode="m" 
d="M359 90q0 35 32 127t32 125q0 22 -10 22q-64 0 -125 -290q-8 -37 -13 -52q-13 -27 -50 -27q-23 0 -35.5 13.5t-12.5 30.5q1 20 34 134q41 133 41 169q0 22 -9 22q-65 0 -132 -297q-11 -45 -13 -47q-12 -25 -47 -25q-20 0 -34 12t-16 30v1q1 13 16.5 70t28 98t16.5 52
l-1 -1q3 15 10.5 42.5t9.5 39.5q20 81 28 97t34 16q25 0 33 -18q34 24 73 24q53 0 78 -46q46 46 99 46q37 0 65.5 -26.5t27.5 -85.5q0 -11 -2 -25t-4 -24.5t-7.5 -29t-7.5 -26.5t-9 -29.5t-9 -25.5q-24 -73 -24 -90q0 -5 4 -7q30 -9 30 -41q-1 -18 -13.5 -33t-32.5 -15
q-12 0 -25.5 4.5t-27.5 14t-23 28.5t-9 43z" />
    <glyph glyph-name="n" unicode="n" 
d="M375 96q5 4 9.5 11.5t9 17.5t7 17t6 19t4.5 15q15 25 41 25q28 0 38.5 -14t10.5 -32q0 -10 -8.5 -34t-24 -53t-44 -51t-62.5 -22q-38 0 -61 26.5t-23 68.5q0 24 29 106q37 113 37 144q0 24 -14 24q-18 0 -35.5 -13t-32.5 -38.5t-26.5 -50.5t-23.5 -62.5t-18.5 -60
t-15.5 -56.5q-15 -57 -20 -65q-15 -23 -40 -23q-18 0 -33 14t-14 35q0 11 5 23l65 262q5 18 5 26q-7 -15 -15 -51q-1 -2 -1 -4q-4 -12 -6 -17.5t-7.5 -14.5t-14.5 -12.5t-22 -3.5q-48 0 -47 44q0 3 2.5 17.5t11 40t20.5 48t34 39.5t49 17q49 0 76 -43q47 43 107 43
q50 0 79 -31.5t28 -88.5q0 -43 -45 -184z" />
    <glyph glyph-name="o" unicode="o" 
d="M56 170q1 64 23.5 119t58.5 91.5t81.5 57t92.5 20.5q71 0 118 -50t46 -126q0 -67 -22.5 -122.5t-59 -91t-81.5 -54.5t-93 -19q-71 0 -118 50t-46 125zM152 166q0 -29 20.5 -54t48.5 -25q25 0 51 11.5t51 34t41 62.5t16 91q1 34 -21 56t-49 22q-24 0 -50.5 -12.5
t-50.5 -36t-40 -63t-17 -86.5z" />
    <glyph glyph-name="p" unicode="p" 
d="M-39 -171q1 48 51 48h26q21 90 62.5 255t51.5 206q2 9 2 15q0 10 -3 10q-7 0 -21 -53q0 -1 -1 -5.5t-1 -5.5q-3 -11 -5 -17t-7.5 -14.5t-15 -12t-23.5 -3.5q-47 0 -46 45q0 9 6.5 32t19.5 53.5t38.5 53t57.5 22.5q48 0 79 -43q51 43 102 43q58 0 100.5 -48t41.5 -118
q0 -74 -22 -132.5t-56.5 -93.5t-75 -53t-82.5 -18q-45 0 -70 19q-6 -24 -17 -67.5t-17 -69.5h20q20 0 28 -4q25 -17 25 -40q0 -10 -3 -19.5t-15 -19.5t-33 -10h-148q-50 0 -49 45zM212 158q0 -15 0.5 -23.5t3 -21t9.5 -19t18 -6.5q21 0 43 11.5t43.5 34.5t35.5 64.5t15 95.5
q0 31 -15.5 50.5t-34.5 19.5q-25 0 -52.5 -31.5t-46.5 -80.5t-19 -94z" />
    <glyph glyph-name="q" unicode="q" 
d="M64 166q1 67 24 123.5t59.5 92.5t80 56t86.5 20q50 0 89 -38q15 37 44 37q18 0 30 -14t12 -30q0 -2 -3 -15l-130 -521h33q19 0 27 -4q25 -17 25 -40q0 -10 -3 -19.5t-15 -19.5t-32 -10h-194q-27 0 -37 14t-10 31q0 10 2.5 19t14.5 19t32 10h61l32 137q-36 -19 -72 -19
q-64 0 -110.5 49t-45.5 122zM161 165q0 -33 19 -55.5t42 -22.5q43 0 87.5 63t44.5 139q1 33 -10.5 54t-32.5 21q-22 0 -47.5 -12.5t-48.5 -36t-38 -63t-16 -87.5z" />
    <glyph glyph-name="r" unicode="r" 
d="M156 -5q-24 0 -37.5 19t-5.5 46q1 1 1 2l68 273q0 2 0.5 7t0.5 9q0 12 -9 12q-5 0 -6 -1q-9 -15 -24 -60l1 1q-4 -14 -6.5 -21t-8 -15.5t-14.5 -11.5t-24 -3q-47 0 -46 44q0 4 3.5 19.5t13.5 40.5t24 47t37.5 38.5t50.5 16.5q28 0 51.5 -12.5t36.5 -33.5q51 46 117 46
t107 -32.5t40 -84.5q0 -39 -20 -57.5t-43 -18.5t-38 16.5t-15 38.5q0 19 10 34q-16 10 -43 10q-16 0 -31.5 -7.5t-28.5 -24t-24 -32t-21.5 -42.5l-17.5 -45t-15.5 -48.5t-12 -43.5t-10.5 -40q-11 -42 -17 -58q-16 -28 -44 -28z" />
    <glyph glyph-name="s" unicode="s" 
d="M46 105q1 39 21 57.5t43 18.5q22 0 37.5 -15.5t14.5 -39.5q0 -20 -6 -28q26 -11 65 -11q67 0 97 23t30 46q0 24 -93 40l16 -6q-10 2 -56 16q-35 10 -62 37t-26 69q0 23 10 47t31 47t58.5 37.5t86.5 14.5q27 0 51 -5t46.5 -16t35.5 -32t12 -49q0 -32 -17.5 -51t-43.5 -19
q-21 0 -36 15t-15 38q0 13 3 20q-13 5 -40 5q-47 0 -70 -16.5t-23 -34.5q0 -10 18.5 -16t55.5 -11l13 -4q39 -8 67 -23.5t41.5 -34t19.5 -35t6 -31.5q0 -27 -12 -54t-36 -52t-67.5 -41t-100.5 -16q-54 0 -91 10.5t-54 28t-23.5 34.5t-6.5 37z" />
    <glyph glyph-name="t" unicode="t" 
d="M105 403q0 49 49 49h78l15 60q18 76 29.5 98t41.5 22q17 0 31 -13.5t14 -34.5q0 -14 -18 -77h1l-14 -55h57q28 0 38 -14.5t10 -30.5q0 -10 -3 -19.5t-15.5 -19t-32.5 -9.5h-78l-26 -104q-15 -57 -25.5 -101t-10.5 -51t4.5 -11.5t12.5 -4.5q26 0 50 22.5t39 55.5
q6 14 10 19.5t13 11t23 5.5q28 0 38.5 -13.5t10.5 -31.5q0 -12 -14 -37.5t-37 -54t-59.5 -49t-75.5 -20.5q-49 0 -80.5 30t-31.5 78v1q0 12 19 87l19 76h-1q4 18 11.5 46t11.5 46h-57q-20 0 -31.5 9.5t-13.5 17.5t-2 17z" />
    <glyph glyph-name="u" unicode="u" 
d="M33 296q0 11 8.5 35t24.5 53.5t45 51.5t63 22q39 0 63 -27.5t23 -69.5q0 -23 -26 -100q-34 -99 -34 -135q-1 -39 21 -39q11 0 21 5t18.5 16.5t15.5 22.5t14 30t11.5 30.5t10.5 34t8 30.5t7 29q4 12 8.5 31t5.5 24q7 26 9.5 36.5t8 27.5t9 22.5t10 13t14 10t17.5 2.5
q17 0 31 -14t15 -34q0 -4 -2 -14t-3 -13l-65 -257q-3 -19 -3 -23l-1 -9q7 0 21 59q1 2 1 4q3 13 5 18.5t7.5 14.5t14.5 13t21 4h4q20 0 31 -9.5t13 -18t2 -18.5q0 -1 -1.5 -9.5t-5.5 -23.5t-10 -31.5t-16 -33.5t-22 -31t-29 -22.5t-37 -8.5q-45 0 -72 33q-39 -33 -89 -33
q-20 0 -38.5 6t-37 20t-29.5 41t-10 65q0 54 43 175q16 46 17 58q-7 -6 -15 -17q-10 -17 -19 -44q-4 -13 -7 -19.5t-8.5 -14t-14 -10.5t-21.5 -3q-15 0 -25.5 5t-14.5 13.5t-5.5 14t-0.5 11.5z" />
    <glyph glyph-name="v" unicode="v" 
d="M390 361q0 12 -3 24t-3 20q0 20 16 36t35 16q53 0 52 -93q0 -21 -7 -60.5t-24 -94t-40.5 -101.5t-63 -80t-85.5 -33q-24 0 -47 6.5t-45.5 21.5t-36 45t-12.5 71q0 10 1.5 21.5t2.5 20t5 23t5.5 21t7 22.5t6.5 19.5t7 21t7 18.5q17 44 17 52q0 6 -3 6q-8 0 -15 -7
q-22 -16 -36 -57q-5 -16 -9.5 -25t-15 -16t-27.5 -7q-48 0 -47 44q0 13 10.5 38.5t28.5 53.5t49 49t65 21q42 0 70 -28.5t27 -73.5q0 -20 -26 -90q-34 -95 -34 -128q-1 -51 48 -51q15 0 35 18q13 16 22 31.5t22.5 52.5t25.5 89q15 59 15 83z" />
    <glyph glyph-name="w" unicode="w" 
d="M439 346q0 15 -6 31t-6 28q0 21 21 36.5t39 15.5q52 0 51 -82q0 -41 -24 -142t-48 -148q-44 -90 -118 -90q-57 0 -91 42q-36 -42 -86 -42q-21 0 -41 6t-40 20t-32 42.5t-11 67.5q0 25 6.5 54.5t11.5 43t17 44.5q20 52 20 72q0 14 -5 14l-4 1q-16 4 -24.5 16.5t-8.5 28.5
q0 20 12.5 33.5t33.5 13.5q32 0 62 -25t29 -75q0 -38 -28 -109.5t-28 -107.5q-1 -48 32 -48q28 0 51.5 74.5t51.5 238.5q2 8 6.5 17t17 22t26.5 13q18 0 32 -14.5t14 -29.5q0 -17 -21 -109q-32 -139 -32 -167q-1 -45 31 -45q18 0 34.5 42.5t36.5 118.5l3 11q15 49 15 87z
" />
    <glyph glyph-name="x" unicode="x" 
d="M33 296q0 17 13 43.5t35 53.5t57 46t73 19q51 0 89 -36q43 36 92 36t79.5 -32.5t29.5 -80.5q0 -42 -20 -61t-44 -19q-22 0 -37 15.5t-15 39.5q0 23 14 41q-4 3 -9 3q-14 0 -28.5 -12t-20.5 -29q-3 -5 -25 -94.5t-22 -102.5q-1 -18 7 -28.5t22 -10.5q24 0 47 20.5t34 51.5
v-1q2 8 4.5 13t7.5 13t14.5 12.5t22.5 4.5q48 0 48 -46q0 -17 -13.5 -43.5t-36 -53t-57.5 -45t-73 -18.5q-53 0 -87 34q-41 -34 -94 -34q-46 0 -77.5 31t-31.5 80q1 43 20.5 62t43.5 19t39 -17t15 -40q-1 -24 -15 -40q4 -2 9 -2q13 0 27.5 11.5t21.5 28.5q2 7 24.5 96
t22.5 102q0 16 -7.5 27t-22.5 11q-23 0 -46 -20t-33 -50q-7 -18 -10.5 -24t-13.5 -12t-28 -6q-19 0 -30 9t-13.5 17t-1.5 18z" />
    <glyph glyph-name="y" unicode="y" 
d="M32 296q0 12 10 37t27 54t47.5 50t64.5 21q41 0 67 -29t25 -71q0 -25 -26 -96q-34 -88 -34 -132q-1 -22 8 -32.5t23 -10.5t26.5 7t23.5 21t20 29t17.5 38.5t14.5 41.5t13 45t10.5 42t9.5 40q12 58 21 74q17 27 44 27q18 0 32 -14t14 -35l-5 -26l-89 -353
q-15 -61 -40.5 -107.5t-50.5 -71.5t-54 -40.5t-48.5 -20t-37.5 -4.5q-48 0 -79.5 30t-30.5 79q0 39 19.5 58.5t45.5 19.5q22 0 37 -14.5t15 -39.5q0 -18 -12 -39q2 -2 11 -2q32 0 66.5 35.5t53.5 95.5q-19 -8 -49 -8q-21 0 -41.5 6t-41 20.5t-32.5 43t-11 67.5q0 54 44 174
q17 47 17 54v3q-24 0 -46 -64q-5 -13 -7.5 -19t-8.5 -14t-14.5 -11t-21.5 -3q-28 0 -38 13.5t-9 30.5z" />
    <glyph glyph-name="z" unicode="z" 
d="M227 127q7 -3 22.5 -11t29 -13.5t24.5 -5.5q17 0 38 16q28 25 42 62q5 14 7.5 19t8 12.5t13.5 9.5t20 2h4q24 0 34 -14t10 -30q0 -17 -13.5 -46t-36 -59t-58.5 -52t-75 -22q-33 0 -80 30q-25 18 -38 18q-22 0 -39 -21q-8 -10 -12.5 -14t-14.5 -8.5t-23 -4.5
q-25 0 -36 13.5t-11 30.5q1 12 13 33v-1q22 35 58.5 75.5t55.5 58.5t71 66q12 11 33 29.5t36 33.5l-15 8q-20 13 -36 13q-14 0 -28.5 -12.5t-21.5 -31.5q-12 -39 -46 -39h-4q-46 0 -45 43q0 23 18 55.5t54 60t76 27.5q6 0 11.5 -0.5t10 -1.5t9.5 -3t8.5 -3t8.5 -3.5t7.5 -4
t8 -5t7 -4.5t7 -4.5t6.5 -4.5q22 -14 28 -14l9 11q6 11 11 17.5t16.5 13t25.5 6.5q23 0 34.5 -14t11.5 -31q0 -20 -40 -73t-115 -121l-79 -70z" />
    <glyph glyph-name="braceleft" unicode="{" 
d="M109 318q0 18 9.5 32t24.5 18h8q16 0 35.5 2.5t46 14.5t34.5 33l19 76q27 111 36 132q13 27 37.5 47.5t47 29.5t50.5 14.5t40 6t22 0.5q27 0 37.5 -14.5t10.5 -31.5q0 -28 -23 -44v1q-8 -4 -32 -6q-79 -9 -98 -39q-6 -8 -32 -121l-16 -58h1q-14 -64 -67 -98
q23 -29 23 -65q0 -18 -31 -131q-2 -10 -5 -23t-5 -21t-4.5 -16.5t-3.5 -13.5t-1 -7q0 -18 71 -24q19 -3 20 -4q26 -12 26 -42q-1 -9 -3.5 -19t-15 -20t-32.5 -10q-29 0 -56 6t-52.5 18.5t-40.5 36t-15 56.5q0 7 30 132h-1q19 74 19 81q0 6 -12 13q-11 8 -31 10.5t-34.5 3.5
t-25.5 11.5t-11 32.5z" />
    <glyph glyph-name="bar" unicode="|" 
d="M156 -32q0 13 4 25l170 681h-1q12 50 53 50q19 0 33 -15.5t14 -36.5q0 -1 -3 -14v-2l-171 -686l1 1q-1 -6 -3 -12.5t-7 -17t-16 -17.5t-26 -7q-20 0 -34.5 14t-13.5 37z" />
    <glyph glyph-name="braceright" unicode="}" 
d="M18 -37q0 34 27 45q11 3 20 4q87 6 107 42q3 4 33 126h-1l13 51q15 62 67 98q-22 27 -21 66q0 23 30 137q17 62 17 73q0 4 -2 7t-6.5 5t-8.5 3.5t-10.5 3t-10.5 2t-10.5 1.5t-8.5 1q-15 2 -22.5 3.5t-17.5 6.5t-14 14t-4 23q0 11 3 20.5t16 19t34 9.5q25 0 51 -5
t52.5 -17t43 -36.5t15.5 -57.5q0 -17 -31 -136q-4 -13 -8.5 -33t-7 -30.5t-2.5 -13.5q0 -13 17 -18.5t40.5 -7.5t30.5 -6l-2 2q13 -4 21 -16.5t8 -26.5q0 -16 -9 -29t-24 -18q-8 -2 -23 -2q-30 -2 -62 -15q-17 -7 -27.5 -17.5t-13 -17t-5.5 -19.5h1l-28 -111
q-10 -42 -13.5 -54.5t-8.5 -21.5v1q-12 -28 -35.5 -48t-46 -30t-50 -15.5t-41 -6.5t-24.5 -1q-8 0 -14 1t-15.5 4.5t-14.5 14t-4 26.5z" />
    <glyph glyph-name="asciitilde" unicode="~" 
d="M180 537q1 17 19 38q60 67 110 67q37 0 76 -37q13 -16 22 -16q12 0 32 23q28 28 46 28t31.5 -14.5t13.5 -31.5q0 -23 -44.5 -64.5t-83.5 -41.5q-16 0 -32 6.5t-24 13t-21 17.5q-15 16 -22 16t-31 -22q-26 -30 -46 -30q-17 0 -31.5 13.5t-14.5 34.5z" />
    <glyph glyph-name="uni00A0" unicode="&#xa0;" 
 />
    <glyph glyph-name="exclamdown" unicode="&#xa1;" 
d="M95 -162q0 9 5 26l89 312q2 8 4.5 13.5t8 13.5t15 12t22.5 4h30q28 0 38 -14t10 -31q0 -10 -4 -26l-64 -304q-9 -40 -34 -58t-52 -18q-28 0 -48 20t-20 50zM220 333q0 37 27 62.5t58 25.5q28 0 48 -20.5t19 -51.5q0 -37 -27 -62t-58 -25q-30 0 -48.5 20.5t-18.5 50.5z
" />
    <glyph glyph-name="cent" unicode="&#xa2;" 
d="M412 532q0 -14 -13 -64q101 -8 101 -81q-1 -28 -18.5 -48.5t-44.5 -20.5q-24 0 -38.5 15t-15.5 41q-6 0 -8 1l-67 -271q18 9 38 34q8 11 13 16.5t14.5 10.5t21.5 5q29 0 39.5 -14.5t9.5 -30.5q0 -8 -6 -21.5t-20 -30t-32.5 -32t-46.5 -28t-59 -16.5l-5 -25h1
q-6 -24 -8.5 -33t-7 -22t-9.5 -16.5t-13 -7t-19 -3.5q-19 0 -32.5 12.5t-13.5 31.5q0 9 9 38l7 31q-55 19 -89 66.5t-33 113.5q1 98 72 182.5t165 100.5q15 72 26.5 90.5t38.5 18.5q22 0 33 -14.5t10 -28.5zM166 184q-1 -63 46 -85q12 49 33.5 131.5t32.5 127.5
q-50 -28 -80.5 -79t-31.5 -95z" />
    <glyph glyph-name="sterling" unicode="&#xa3;" 
d="M33 59q0 36 27.5 66t66.5 30q12 0 17 -1l5 15l-1 -1q4 15 8.5 32.5t10 39t8.5 34.5q-25 1 -33.5 15t-8.5 29q0 50 52 50h13q16 62 37 141q22 61 64.5 101t87.5 40q15 0 28.5 -4.5t27.5 -16t22 -34.5t7 -55q0 -21 -5 -50.5t-11 -41.5t-20.5 -24t-35.5 -12q-25 0 -40 16.5
t-14 39.5q0 35 27 54q0 1 1 3q3 14 4 24v3q-11 -6 -25.5 -26t-24.5 -49q-8 -27 -28 -109h6q24 0 38 -9.5t14 -36.5q-1 -48 -53 -48l-29 -1q-20 -96 -46 -161q29 -19 45 -19q6 0 10.5 13t9 30t6.5 22q12 26 45 26q20 0 34 -12t14 -33q0 -9 -7 -30t-20 -48t-38.5 -46.5
t-56.5 -19.5q-40 0 -98 37q-37 -37 -83 -37q-27 0 -43 18.5t-15 45.5z" />
    <glyph glyph-name="currency" unicode="&#xa4;" 
d="M-98 13q0 18 9.5 30t44.5 40l38 31h-1l19 17q-18 45 -17 102q1 66 29.5 129.5t72.5 112.5q-9 10 -22.5 30.5t-19.5 28.5v-1q-14 18 -14 38q0 19 14.5 35t34.5 16q16 0 33 -15.5t52 -68.5q84 52 173 52q92 0 152 -52q90 74 100 78q15 6 21 6q21 0 34.5 -16t13.5 -35
q0 -12 -6 -23t-10.5 -15t-14.5 -13l-60 -51q-6 -4 -10 -7.5t-4.5 -4l-1.5 -1.5t-4 -2q20 -46 19 -102q-1 -66 -29.5 -129.5t-73.5 -111.5l8 -11q35 -51 41.5 -62t6.5 -24q0 -21 -14 -36.5t-35 -15.5q-13 0 -19.5 3t-22.5 22t-43 60q-87 -52 -172 -52q-91 0 -152 53l-29 -24
q-53 -44 -66 -53t-26 -9q-22 0 -35.5 16t-13.5 35zM93 233q-1 -61 36.5 -98t95.5 -37q61 0 120 36t96 95.5t38 122.5q1 61 -36 98t-96 37q-63 0 -122 -36.5t-95 -96t-37 -121.5z" />
    <glyph glyph-name="yen" unicode="&#xa5;" 
d="M49 205q1 9 4 18t15.5 19t33.5 11h123q2 4 2 8q-4 35 -5 47h-85q-25 0 -37.5 13t-12.5 33q0 9 3 18.5t16 19.5t35 10h70l-18 144q-43 2 -43 46q0 7 1.5 14t6 16t15.5 14.5t27 5.5h92q28 0 38 -15t10 -32t-9.5 -32t-33.5 -17l14 -144h2q16 31 49 84.5t40 65.5
q-21 10 -21 40q0 7 1.5 14t6.5 16t16 14.5t27 5.5h92q48 0 47 -47q-1 -49 -49 -49h-9q-6 0 -10 -6q-14 -25 -41.5 -67.5t-44.5 -70.5h47q25 -1 37.5 -14.5t12.5 -32.5q0 -10 -3 -19.5t-16 -18.5t-34 -9h-101q-4 -6 -11 -17.5t-12.5 -20.5t-10.5 -17h95q56 0 55 -48
q0 -6 -1.5 -12.5t-6 -15t-15.5 -14t-28 -5.5h-125l-15 -64q24 -2 32.5 -16t8.5 -29q-1 -19 -12.5 -34t-39.5 -15h-103q-28 0 -38.5 14.5t-9.5 31.5q0 21 12 35.5t40 14.5h11l17 62h-95q-15 0 -21 1q-14 1 -26 14.5t-12 31.5z" />
    <glyph glyph-name="brokenbar" unicode="&#xa6;" 
d="M156 -30q0 15 4 25l-1 -1q10 43 32 129l33 129q11 45 50 45q20 0 34 -14.5t14 -36.5q0 -10 -4 -24l-60 -239l-0.5 -2t-0.5 -3q-3 -13 -5.5 -19.5t-8 -18.5t-15.5 -17.5t-24 -5.5q-20 0 -34.5 15t-13.5 38zM259 -15q-1 -1 -1 -2zM263 396q0 11 5 27l-1 -1l63 256
q2 9 6.5 18t16.5 18.5t29 9.5q19 0 33 -14.5t14 -37.5q0 -13 -4 -23l1 1q-11 -43 -33.5 -129.5t-32.5 -129.5q-9 -46 -50 -46q-20 0 -34 14t-13 37z" />
    <glyph glyph-name="section" unicode="&#xa7;" 
d="M275 -30q0 17 -12 29.5t-37 25t-28 14.5h1q-39 20 -68 57.5t-29 90.5q1 48 27 93.5t67 73.5q-30 41 -30 92q1 74 61 137.5t136 63.5q53 0 89 -34.5t35 -88.5q0 -41 -16.5 -57.5t-38.5 -16.5t-34.5 16t-12.5 33l0.5 4t0.5 6q1 5 1 14q1 28 -28 28q-38 0 -71.5 -32.5
t-34.5 -66.5q0 -33 67 -66l12 -6q47 -24 71 -62.5t24 -83.5q-1 -48 -27 -93.5t-68 -74.5q30 -38 30 -92q-1 -73 -60.5 -136.5t-136.5 -63.5q-53 0 -88.5 34t-34.5 88q0 41 16.5 58t37.5 17q20 0 33 -16t13 -33v-12q-1 -6 -1 -14q0 -14 8.5 -20.5t19.5 -6.5q39 0 72 33t34 68
zM188 192q0 -24 24.5 -43t37.5 -19q25 0 57.5 31.5t33.5 67.5q0 24 -24.5 43t-37.5 19q-25 0 -57.5 -31.5t-33.5 -67.5z" />
    <glyph glyph-name="dieresis" unicode="&#xa8;" 
d="M391 570q0 29 21 50.5t48 21.5q24 0 41.5 -18t17.5 -44q0 -29 -22 -50.5t-49 -21.5q-24 0 -41 18t-16 44zM196 570q0 28 21 50t50 22q24 0 40.5 -17.5t16.5 -43.5q0 -29 -21 -51t-48 -22q-24 0 -42 17.5t-17 44.5z" />
    <glyph glyph-name="copyright" unicode="&#xa9;" 
d="M222 85q18 0 34.5 16.5t26.5 40.5q3 9 5 13t7.5 12.5t15 12.5t21.5 4q50 0 50 -44q-1 -16 -12.5 -40t-31.5 -49.5t-53 -43t-69 -17.5q-56 0 -89 46t-32 122q1 71 31.5 143.5t82 120.5t105.5 48q36 0 59 -15q20 15 37 15t30 -13t13 -33q0 -7 -21 -91l1 1q-2 -8 -5 -15
q-4 -13 -5.5 -18.5t-7 -15t-15 -13t-23.5 -3.5q-50 0 -49 47q0 10 1 14q0 1 0.5 4.5t0.5 5.5q0 35 -16 35q-24 0 -52.5 -32.5t-49 -84t-20.5 -100.5q0 -27 7 -50t23 -23zM-34 75q1 93 25.5 190t66.5 180t94.5 149t113 103.5t118.5 37.5q66 0 113 -44.5t67.5 -113
t19.5 -151.5q-1 -111 -38 -230t-94.5 -213t-134 -154.5t-151.5 -60.5q-64 0 -111 43t-68.5 111.5t-20.5 152.5zM64 78q0 -32 4.5 -65t15 -66.5t32 -54.5t50.5 -21q52 0 109.5 51t103 129.5t76 179t31.5 193.5q0 33 -4.5 66.5t-15 66.5t-32.5 54t-51 21q-52 0 -109.5 -51
t-103 -129.5t-75.5 -179.5t-31 -194z" />
    <glyph glyph-name="ordfeminine" unicode="&#xaa;" 
d="M-8 262q0 8 2 14.5t7 15t17 14t29 5.5h322q54 0 53 -49q0 -9 -3.5 -18.5t-16 -19t-33.5 -9.5h-327q-21 1 -33 11t-14.5 19t-2.5 17zM76 488q1 59 29 114.5t74.5 91t95.5 35.5q39 0 68 -23q18 11 34 11q19 0 32 -15t13 -35q0 -16 -24 -103h1q-28 -114 -28 -115
q0 -13 10 -13q9 0 16.5 19.5t14 44.5t11.5 32q13 18 41 18t38 -14.5t10 -31.5q0 -5 -4 -21t-14 -41t-24 -47t-38 -38.5t-52 -16.5q-54 0 -83 38q-51 -38 -99 -38q-55 0 -89 42t-33 106zM175 487q0 -24 7 -37.5t19 -13.5q33 0 64.5 46.5t32.5 100.5q0 26 -8 38.5t-19 12.5
q-32 0 -64 -47t-32 -100z" />
    <glyph glyph-name="guillemotleft" unicode="&#xab;" 
d="M72 236q0 22 23 41l184 171l1 2q24 20 42 20q20 0 31.5 -11t11.5 -30q12 -15 -190 -201q37 -68 48 -86q36 -62 42.5 -74.5t6.5 -22.5q-1 -15 -11.5 -30t-34.5 -15h-5q-16 0 -28 16.5t-65 107.5l-47 81q-9 17 -9 31zM185 236q0 20 22 41l185 171q22 22 43 22
q20 0 32 -12.5t12 -33.5q0 -15 -14.5 -31.5t-82.5 -79.5l-95 -86l60 -104q28 -48 33 -57.5t5 -20.5q-1 -15 -12 -30t-34 -15h-5q-16 0 -29 17.5t-65 106.5q-5 10 -20 37t-24 41q-11 20 -11 34z" />
    <glyph glyph-name="logicalnot" unicode="&#xac;" 
d="M107 340q0 7 2 14t7 16.5t17.5 15.5t30.5 6h268q17 0 29 -6t17 -15t6.5 -16t1.5 -15q0 -10 -45 -191l-15 -62l1 1q-11 -51 -52 -51q-20 0 -34 15t-14 33q0 17 23 104q5 19 12.5 50t11.5 50h-212q-56 0 -55 51z" />
    <glyph glyph-name="uni00AD" unicode="&#xad;" 
d="M184 230q0 19 11 33.5t38 14.5h74q20 0 31.5 -9t14.5 -18t3 -18q0 -19 -11.5 -34t-39.5 -15h-73q-28 0 -38 14.5t-10 31.5z" />
    <glyph glyph-name="registered" unicode="&#xae;" 
d="M244 78q0 17 9 48t9 47q0 9 -18 9h-22l-23 -88q37 -6 37 -45q-1 -19 -12.5 -34t-40.5 -15h-95q-48 0 -47 46q0 50 51 50h6l64 270q-32 6 -31 44q0 50 52 50h119q34 0 59 -11t38 -28.5t18.5 -35.5t5.5 -37q0 -39 -20 -73t-51 -58q9 -18 9 -44q0 -11 -3 -25q7 3 18 3
q28 0 38.5 -13.5t10.5 -31.5q0 -8 -5.5 -25t-16.5 -38.5t-32 -37t-47 -15.5q-30 0 -55.5 21t-24.5 67zM244 277h5q35 0 54.5 18.5t19.5 36.5q0 32 -48 32h-9zM-34 75q1 93 25.5 190t66.5 180t94.5 149t113 103.5t118.5 37.5q66 0 113 -44.5t67.5 -113t19.5 -151.5
q-1 -111 -38 -230t-94.5 -213t-134 -154.5t-151.5 -60.5q-64 0 -111 43t-68.5 111.5t-20.5 152.5zM64 78q0 -32 4.5 -65t15 -66.5t32 -54.5t50.5 -21q52 0 109.5 51t103 129.5t76 179t31.5 193.5q0 33 -4.5 66.5t-15 66.5t-32.5 54t-51 21q-52 0 -109.5 -51t-103 -129.5
t-75.5 -179.5t-31 -194z" />
    <glyph glyph-name="macron" unicode="&#xaf;" 
d="M198 602q0 7 1.5 13.5t6 16t15.5 15t28 5.5h233q51 0 50 -45q0 -12 -3 -21.5t-15 -19.5t-32 -10h-236q-28 0 -38 14.5t-10 31.5z" />
    <glyph glyph-name="degree" unicode="&#xb0;" 
d="M200 478q0 63 49.5 113.5t112.5 50.5q48 0 81.5 -34t32.5 -87q-1 -63 -50 -113.5t-112 -50.5q-49 0 -82 33.5t-32 87.5zM298 478q-1 -17 17 -17q24 0 43.5 18.5t19.5 40.5q0 18 -18 18q-23 0 -42.5 -19.5t-19.5 -40.5z" />
    <glyph glyph-name="plusminus" unicode="&#xb1;" 
d="M62 178q0 9 2 16.5t7.5 16.5t18 14.5t30.5 5.5h100l22 85h-77q-18 0 -30 5.5t-17 14.5t-7 16.5t-2 15.5q1 19 13.5 35.5t41.5 16.5h102q40 157 45 164q16 24 40 24q21 0 35 -15.5t14 -36.5q0 -4 -8 -38t-16 -66l-8 -32h76q18 0 30 -6t17 -16t6 -16.5t1 -13.5q0 -8 -2 -15
t-7 -16.5t-17.5 -15t-30.5 -5.5h-100l-22 -85h77q17 0 29 -6t17.5 -15.5t7 -16.5t1.5 -13q0 -7 -1.5 -14t-6.5 -17t-17.5 -16t-29.5 -6h-279q-32 0 -43.5 16.5t-11.5 34.5z" />
    <glyph glyph-name="twosuperior" unicode="&#xb2;" 
d="M119 342v1q0 19 13.5 48t48 64.5t81.5 56.5v-1q7 4 50 19q27 9 43.5 15t37.5 15.5t31.5 19t10.5 18.5q0 19 -23 30.5t-57 11.5q-37 0 -59 -6t-28 -12t-10 -16q-5 -11 -9 -16t-13.5 -10t-24.5 -5q-48 0 -48 46q1 16 9 33t27 36.5t60 32t97 12.5q48 0 84.5 -13.5t56 -35
t28 -43.5t8.5 -45q0 -20 -7.5 -39t-17 -32.5t-27.5 -27t-31 -21.5t-37 -18t-35 -14t-35 -12l-38 -14q-4 -2 -6 -2l-1 -1l21 -6q40 -11 62 -11q25 0 45.5 11.5t27.5 29.5q9 21 18.5 28.5t31.5 7.5q27 0 37.5 -14.5t10.5 -32.5q0 -40 -51 -86t-123 -46q-10 0 -20 1.5t-20.5 4
t-17 4.5t-18 6t-15.5 5q-37 14 -56 14q-13 0 -18 -10q-7 -9 -10 -12.5t-12 -8t-21 -4.5q-48 0 -51 44z" />
    <glyph glyph-name="threesuperior" unicode="&#xb3;" 
d="M139 433q1 51 21 71t45 20q34 0 49 -29q-6 10 -6 25q0 10 3 20t15.5 19.5t33.5 9.5h34q49 0 77 16t28 31q0 10 -15 17t-42 7q-35 0 -55 -4.5t-25 -9.5t-9 -13q-5 -10 -9 -15t-14 -9.5t-25 -4.5q-23 0 -35 12.5t-12 32.5q1 31 24 56q44 50 161 50q42 0 74 -11.5t49 -29.5
t25.5 -37t7.5 -39q0 -62 -68 -108q23 -32 22 -72q0 -33 -16.5 -59.5t-41 -42t-55.5 -26t-57 -14t-50 -3.5q-64 0 -99.5 41t-34.5 99zM297 475q-33 0 -43 20q6 -13 6 -28q-1 -28 -21 -47q3 -14 13 -23.5t25 -9.5q11 0 29 2.5t39 8t35.5 16t14.5 24.5q0 13 -13 25t-44 12h-41z
" />
    <glyph glyph-name="acute" unicode="&#xb4;" 
d="M286 561v1q0 12 6.5 21.5t12.5 13.5t16 10h2h-2l47 23q78 40 91 40q19 0 32 -14.5t14 -35.5q0 -34 -37 -52l-66 -32q-62 -33 -71 -33q-24 0 -35 20t-10 38z" />
    <glyph glyph-name="uni00B5" unicode="&#xb5;" 
d="M-22 -182q0 12 4 23l144 576q12 49 52 49q18 0 32.5 -13t14.5 -35q0 -12 -25 -107q-39 -144 -39 -176q-1 -46 38 -46q17 0 32.5 10.5t27 25.5t23.5 40.5t19.5 46t16.5 53t13 50.5t11 47q17 63 23 75q15 25 44 25q26 0 38.5 -22t4.5 -52q-9 -36 -32 -126.5t-35 -137.5v-1
q-3 -19 -3 -22q0 -11 2 -11q9 0 23 60q1 2 1 4q3 12 5.5 18.5t8 15.5t15.5 13t23 4q28 0 38.5 -15t10.5 -30q0 -4 -3 -19t-12.5 -40.5t-22.5 -48.5t-36.5 -40t-51.5 -17q-54 0 -82 41q-48 -41 -105 -41q-37 0 -71 17l-29 -122h1q-17 -69 -21.5 -82t-14.5 -23
q-16 -17 -37 -17q-19 0 -32.5 14t-13.5 36z" />
    <glyph glyph-name="paragraph" unicode="&#xb6;" 
d="M51 -169q1 51 60 51h7q8 34 23 92.5t27 106t23 92.5q-77 36 -75 158q1 49 17.5 102.5t45.5 100.5t74.5 77.5t97.5 30.5h160q17 0 29 -6t17 -15.5t7 -16.5t2 -14t-2 -14.5t-7.5 -17t-18 -15t-31.5 -5.5h-10l-164 -657q17 -2 27.5 -13t13 -20.5t2.5 -17.5q0 -6 -2 -13
t-7 -16.5t-17.5 -15t-29.5 -5.5h-215q-22 0 -35 10t-16 20t-3 21zM219 -118h14q27 113 81.5 328t81.5 328h-12z" />
    <glyph glyph-name="periodcentered" unicode="&#xb7;" 
d="M206 230q0 28 21 49.5t49 21.5q24 0 41 -17t17 -44q0 -28 -21 -50t-48 -22q-24 0 -42 17.5t-17 44.5z" />
    <glyph glyph-name="cedilla" unicode="&#xb8;" 
d="M41 -162q0 13 7 27t23 19q12 4 31 4h6q22 1 35.5 2.5t33.5 5t30 10.5t10 18q0 3 -18 9q-14 2 -22 4.5t-15 12t-7 25.5q0 22 19 88q13 27 46 27q49 0 49 -45q0 -1 -6 -30v-2q54 -30 53 -88q0 -38 -25.5 -72t-71.5 -47q-45 -13 -125 -13h-4q-29 0 -39 14.5t-10 30.5z" />
    <glyph glyph-name="onesuperior" unicode="&#xb9;" 
d="M205 606q0 21 13 35t36 14q17 2 28.5 4.5t35 15.5t45.5 36q18 21 40 21t32 -13t10 -32q0 -2 -2 -12q0 -1 -0.5 -4.5t-0.5 -4.5l-63 -254l-4 -13h38q19 -1 30 -10t13.5 -17.5t2.5 -18.5t-2.5 -19t-14.5 -19.5t-31 -11.5h-207q-52 0 -52 46q0 19 11.5 34.5t41.5 15.5h70
l42 174q-37 -13 -62 -13q-50 0 -50 46z" />
    <glyph glyph-name="ordmasculine" unicode="&#xba;" 
d="M-9 262q0 8 2 14.5t7 15t16.5 14t28.5 5.5h298q17 0 28.5 -5.5t15.5 -14.5t5.5 -15.5t1.5 -13.5t-2 -13.5t-6.5 -15t-16 -13.5t-27.5 -5h-302q-20 1 -32 11t-14.5 19t-2.5 17zM76 498q1 90 71 161t153 71q64 0 105.5 -44t40.5 -113q-1 -91 -70 -162t-153 -71
q-64 0 -106 44t-41 114zM175 496q0 -28 14 -44.5t37 -16.5q44 0 82 43.5t39 95.5q0 28 -13.5 44t-36.5 16q-45 0 -83 -43t-39 -95z" />
    <glyph glyph-name="guillemotright" unicode="&#xbb;" 
d="M62 46q0 21 26 44q34 32 63.5 59.5t44.5 41.5t27.5 26t19 17.5t11.5 10.5q-6 9 -20 32.5t-20 34.5h1q-44 73 -51.5 88t-7.5 25q0 15 11.5 30t35.5 15q12 0 21.5 -5t13 -10.5t9.5 -15.5q8 -14 23.5 -40.5t22.5 -40.5h-1q47 -80 55.5 -96t8.5 -27q0 -6 -1.5 -11.5
t-4.5 -10.5t-5 -7.5t-7 -7t-6 -5.5l-188 -175q-17 -18 -38 -18q-18 0 -31.5 13t-12.5 33zM175 46q0 14 6 23.5t20 20.5q102 95 119 112q45 42 46 43q-7 12 -20.5 35t-18.5 32h1q-44 73 -51.5 88t-7.5 25q0 15 11 30t35 15q13 0 22.5 -5.5t12.5 -9.5t10 -16q8 -14 23.5 -40.5
t22.5 -40.5h-1q47 -80 55.5 -96t8.5 -27q0 -3 -0.5 -6t-1.5 -6t-2 -5.5t-2.5 -5t-2.5 -4t-3.5 -4.5t-3.5 -3.5t-3.5 -3.5t-3.5 -4l-189 -175l-2 -1q-19 -17 -37 -17t-31 13t-12 33z" />
    <glyph glyph-name="onequarter" unicode="&#xbc;" 
d="M13 48q0 12 4.5 20.5t9.5 13.5t17.5 8.5t20 5t25.5 4.5q111 15 129 34q2 3 6.5 11.5t7.5 12t8 9t12 7.5t16 2h5q1 5 6 25h-186q-27 0 -39 15.5t-12 35.5q1 51 59 51h348q17 0 29.5 -5.5t17.5 -14.5t6.5 -16t1.5 -15t-2 -15t-7 -16t-16.5 -14.5t-29.5 -5.5h-71
q-2 -21 -11 -54q-7 -24 -21 -82q2 0 10 0.5t10 0.5h14q22 0 34.5 -16t12.5 -32q0 -12 -3 -20.5t-12 -13.5t-14 -8t-21.5 -4.5t-22 -1.5h-25.5h-6q-5 -21 -31 -121q0 -2 -1 -6t-1 -5q-3 -13 -5 -19t-8 -17.5t-16.5 -16.5t-25.5 -5q-20 0 -33 14t-13 36q0 24 6 50t16 57.5
t12 37.5q-23 3 -48 3.5t-41 3t-37 11.5q-16 9 -21 9q-2 0 -4.5 -0.5t-3.5 -0.5q-3 -1 -11 -1q-19 0 -32.5 16t-12.5 32zM207 618q1 19 15 35t35 16q62 3 106 44q7 7 11 10t11 6t17 3q13 0 25 -10t16 -24q3 -9 -1 -28q0 -1 -0.5 -4l-0.5 -3l-57 -229h29q1 0 2 0.5l1 0.5
q53 0 53 -47q0 -10 -3 -19.5t-15.5 -20t-32.5 -10.5h-205q-52 0 -51 46q0 10 2.5 19.5t14.5 19.5t32 11l73 1l36 148q-33 -10 -64 -10q-29 0 -39 14t-10 31zM235 69h13v2l23 -17q-8 -5 -30 -16z" />
    <glyph glyph-name="onehalf" unicode="&#xbd;" 
d="M-15 -187q0 21 18.5 51t55.5 53q25 16 108 46q31 12 46.5 17.5t37.5 16t31.5 20.5t9.5 21q1 17 -20.5 30t-52.5 13q-40 0 -71.5 -22.5t-42.5 -56.5q-4 -12 -7.5 -18.5t-13.5 -12.5t-26 -6q-50 0 -50 45q0 18 14 44.5t39 54.5t67.5 47.5t91.5 19.5q73 0 122 -38.5
t48 -100.5q0 -18 -4 -31q48 0 48 -45q-1 -11 -8.5 -33t-24 -50t-38.5 -52.5t-54.5 -41t-68.5 -16.5q-27 0 -84 14q-52 11 -63 11q-14 0 -20 -7q0 -1 -2.5 -3.5t-4 -3.5t-4 -3.5t-5 -3.5t-6 -2t-8 -1.5t-10.5 -0.5q-28 0 -38 15t-10 30zM43 252q0 19 12.5 34t32.5 17h356
q63 0 62 -51q0 -24 -15.5 -37.5t-37.5 -13.5h-358q-17 0 -28.5 5.5t-16 14.5t-6 16t-1.5 15zM312 -84q-37 -22 -101 -43q17 -3 31 -3q39 0 70 46zM368 -36q-27 -29 -56 -48q13 20 27 59zM151 -117l33 -6l27 -4q-6 -3 -25 -10t-33 -12zM340 -21q-1 -2 -1 -4q0 3 1 4zM207 618
q1 19 14.5 35t34.5 16q63 3 106 44q1 1 3 2q7 7 10.5 9.5t10 5t15.5 2.5q14 0 26 -10t16 -24q3 -9 -1 -28q0 -1 -0.5 -4l-0.5 -3l-57 -229h28q1 0 2 0.5t2 0.5q9 0 16.5 -1.5t16.5 -5.5t14 -14t5 -26q0 -10 -3 -19.5t-15 -20t-32 -10.5h-208q-50 0 -49 46q0 10 3 19.5
t15 19.5t32 11l72 1l37 148q-33 -10 -64 -10q-29 0 -39 14t-10 31z" />
    <glyph glyph-name="threequarters" unicode="&#xbe;" 
d="M13 48q0 24 19 37q11 7 59 15q111 15 129 34q1 3 7.5 14.5t10 15t12 8t19.5 4.5h6l1 9l4 16h-185q-27 0 -39 15.5t-12 35.5q1 51 58 51h349q17 0 29 -5.5t17 -14.5t7 -16t2 -15t-2 -15t-7 -16t-17 -14.5t-29 -5.5h-71q-1 -15 -12 -54q-2 -9 -8.5 -32.5t-12.5 -49.5
q3 0 11 0.5t9 0.5h15q21 0 33.5 -15t12.5 -33q0 -12 -3 -20.5t-12 -13.5t-14 -8t-21.5 -4.5t-22 -1.5h-25.5h-5q-2 -7 -5 -18.5t-10.5 -41t-16.5 -61.5q0 -2 -1 -6t-1 -5q-2 -11 -4.5 -18.5t-8.5 -18t-16.5 -16t-25.5 -5.5q-19 0 -32.5 14t-13.5 36q0 2 35 145l-67 5
q-34 1 -60 13q-13 9 -21 9q-1 0 -3 -0.5t-4 -0.5q-4 -1 -11 -1q-20 0 -33.5 16t-12.5 32zM147 467q0 51 20 71.5t46 20.5q24 0 37 -16q8 43 49 43h45q38 0 67 12.5t29 24.5q0 4 -5.5 7.5t-21 6.5t-37.5 3h-10q-30 0 -47 -4t-20.5 -7.5t-7.5 -11.5t-7.5 -12.5t-12.5 -8.5
t-24 -4q-49 0 -48 45q0 39 36 68v-1q40 31 128 31h9q83 0 126 -31q42 -35 41 -79q0 -56 -61 -98q20 -30 19 -67q0 -37 -22 -64t-56.5 -41t-69.5 -20t-69 -6q-64 0 -99 40t-34 98zM301 491q-21 0 -34 8q-2 -29 -22 -45q8 -31 39 -31q43 0 78.5 10.5t35.5 26.5q1 7 -3.5 13.5
t-20 12t-40.5 5.5h-33zM236 69h12v2l24 -17l-31 -16z" />
    <glyph glyph-name="questiondown" unicode="&#xbf;" 
d="M33 -101q0 41 19 77.5t44 59.5q26 21 67 47q-40 3 -39 44q0 36 40 73t93 37q33 0 53.5 -24t20.5 -62q-1 -60 -41 -100q-13 -12 -43.5 -31.5t-55 -35.5t-44.5 -39t-20 -47q0 -16 10.5 -26t27.5 -10q33 0 62 17t29 28v4q-2 8 -2 15q0 27 18.5 46.5t43.5 19.5q23 0 39.5 -16
t15.5 -41q0 -23 -16 -51t-42 -54.5t-66 -44t-83 -17.5q-57 0 -94.5 36.5t-36.5 94.5zM233 135q-7 -5 -11 -12q9 7 11 12zM234 349q0 28 21.5 50t47.5 22q24 0 42 -17.5t17 -44.5q0 -28 -21.5 -49.5t-48.5 -21.5q-24 0 -41 17t-17 44z" />
    <glyph glyph-name="Agrave" unicode="&#xc0;" 
d="M332 765q0 21 15 37t35 16q9 0 21.5 -5.5t66.5 -33.5v1l26 -12q31 -14 31 -45q-1 -15 -15.5 -35t-34.5 -20h-4t-4 0.5t-4 1.5t-5.5 2.5t-6 2.5t-8 4t-9.5 5l-12 6t-15 7l-43 22q-34 16 -34 46zM62 0h-11t-11.5 1t-11 3t-9.5 5t-6 8.5t-2.5 13t2.5 17.5v2q5 28 35 41
q11 3 37 3l239 512q11 22 23.5 33t22 12.5t30.5 1.5q18 0 26.5 -1t17.5 -6t11.5 -16.5t1.5 -32.5l-15 -503q24 0 32 -5h-2q26 -11 18 -46q-4 -15 -11.5 -24.5t-18 -13t-17.5 -4.5t-18 -1h-96q-11 0 -19 1.5t-18 6.5t-11 15t1 27q6 25 21 34.5t40 9.5q1 13 1 35t1 35h-126
q-3 -7 -14 -29.5t-19 -40.5q30 0 36.5 -8t-0.5 -43q-5 -15 -11.5 -24.5t-17 -13t-17 -4.5t-18.5 -1h-96zM262 258h84q2 33 6 95t7 117z" />
    <glyph glyph-name="Aacute" unicode="&#xc1;" 
d="M353 722q0 32 36 47l73 29q49 20 61 20q20 0 33 -15t13 -33q0 -13 -4 -22.5t-13 -16.5t-16.5 -10.5t-22.5 -9.5h-2l-63 -26q-38 -17 -53 -17q-23 0 -33 17t-9 37zM62 0h-11t-11.5 1t-11 3t-9.5 5t-6 8.5t-2.5 13t2.5 17.5v2q5 28 35 41q11 3 37 3l239 512q11 22 23.5 33
t22 12.5t30.5 1.5q18 0 26.5 -1t17.5 -6t11.5 -16.5t1.5 -32.5l-15 -503q24 0 32 -5h-2q26 -11 18 -46q-4 -15 -11.5 -24.5t-18 -13t-17.5 -4.5t-18 -1h-96q-11 0 -19 1.5t-18 6.5t-11 15t1 27q6 25 21 34.5t40 9.5q1 13 1 35t1 35h-126q-3 -7 -14 -29.5t-19 -40.5
q30 0 36.5 -8t-0.5 -43q-5 -15 -11.5 -24.5t-17 -13t-17 -4.5t-18.5 -1h-96zM262 258h84q2 33 6 95t7 117z" />
    <glyph glyph-name="Acircumflex" unicode="&#xc2;" 
d="M252 696q0 17 12.5 28.5t56.5 38.5l75 49q33 23 48 23q12 0 23 -8t34 -31l25 -24q44 -41 51.5 -51t7.5 -25q0 -19 -17.5 -36.5t-34.5 -17.5q-13 0 -24.5 9.5t-56.5 57.5l-17 17q-5 -4 -14.5 -9.5t-14.5 -8.5q-70 -50 -83.5 -58t-24.5 -8q-21 0 -33.5 18t-12.5 36zM62 0
h-11t-11.5 1t-11 3t-9.5 5t-6 8.5t-2.5 13t2.5 17.5v2q5 28 35 41q11 3 37 3l239 512q11 22 23.5 33t22 12.5t30.5 1.5q18 0 26.5 -1t17.5 -6t11.5 -16.5t1.5 -32.5l-15 -503q24 0 32 -5h-2q26 -11 18 -46q-4 -15 -11.5 -24.5t-18 -13t-17.5 -4.5t-18 -1h-96q-11 0 -19 1.5
t-18 6.5t-11 15t1 27q6 25 21 34.5t40 9.5q1 13 1 35t1 35h-126q-3 -7 -14 -29.5t-19 -40.5q30 0 36.5 -8t-0.5 -43q-5 -15 -11.5 -24.5t-17 -13t-17 -4.5t-18.5 -1h-96zM262 258h84q2 33 6 95t7 117z" />
    <glyph glyph-name="Atilde" unicode="&#xc3;" 
d="M370 732q-19 0 -53.5 -30.5t-52.5 -30.5q-16 0 -30 14.5t-13 32.5q0 13 5.5 21.5t18.5 21.5q73 69 130 69q18 0 35 -7t26.5 -14t23.5 -19q24 -21 36 -21q3 0 6.5 0.5t7 2t6.5 2.5t7 4t6.5 4.5t7 5t6.5 4.5t6.5 5t6.5 5h-1q0 1 4.5 4.5t5.5 4.5t4.5 3.5t4.5 3.5t4 3.5t5 3
t5 2t5 2t4.5 1t5.5 0.5q14 0 28.5 -15t13.5 -33q0 -10 -4 -19t-7 -12.5t-11 -11.5q-72 -68 -132 -68q-18 0 -36 7t-26.5 13.5t-24.5 19.5q-27 21 -34 21zM62 0h-11t-11.5 1t-11 3t-9.5 5t-6 8.5t-2.5 13t2.5 17.5v2q5 28 35 41q11 3 37 3l239 512q11 22 23.5 33t22 12.5
t30.5 1.5q18 0 26.5 -1t17.5 -6t11.5 -16.5t1.5 -32.5l-15 -503q24 0 32 -5h-2q26 -11 18 -46q-4 -15 -11.5 -24.5t-18 -13t-17.5 -4.5t-18 -1h-96q-11 0 -19 1.5t-18 6.5t-11 15t1 27q6 25 21 34.5t40 9.5q1 13 1 35t1 35h-126q-3 -7 -14 -29.5t-19 -40.5q30 0 36.5 -8
t-0.5 -43q-5 -15 -11.5 -24.5t-17 -13t-17 -4.5t-18.5 -1h-96zM262 258h84q2 33 6 95t7 117z" />
    <glyph glyph-name="Adieresis" unicode="&#xc4;" 
d="M468 760q0 27 21.5 48.5t47.5 21.5q25 0 41 -18t16 -42q0 -28 -21 -49.5t-46.5 -21.5t-42 18t-16.5 43zM279 760q0 27 20.5 48.5t48.5 21.5q24 0 40 -16.5t16 -42.5q0 -28 -20.5 -50t-46.5 -22q-24 0 -41 17t-17 44zM62 0h-11t-11.5 1t-11 3t-9.5 5t-6 8.5t-2.5 13
t2.5 17.5v2q5 28 35 41q11 3 37 3l239 512q11 22 23.5 33t22 12.5t30.5 1.5q18 0 26.5 -1t17.5 -6t11.5 -16.5t1.5 -32.5l-15 -503q24 0 32 -5h-2q26 -11 18 -46q-4 -15 -11.5 -24.5t-18 -13t-17.5 -4.5t-18 -1h-96q-11 0 -19 1.5t-18 6.5t-11 15t1 27q6 25 21 34.5t40 9.5
q1 13 1 35t1 35h-126q-3 -7 -14 -29.5t-19 -40.5q30 0 36.5 -8t-0.5 -43q-5 -15 -11.5 -24.5t-17 -13t-17 -4.5t-18.5 -1h-96zM262 258h84q2 33 6 95t7 117z" />
    <glyph glyph-name="Aring" unicode="&#xc5;" 
d="M294 677q1 63 50 112t106 49q45 0 72 -29t27 -74q-1 -59 -48.5 -110t-107.5 -51q-46 0 -72.5 30t-26.5 73zM382 693q0 -11 7.5 -18t18.5 -7q21 0 36.5 17t16.5 35q0 12 -7.5 19t-18.5 7q-20 0 -36.5 -16.5t-16.5 -36.5zM62 0h-11t-11.5 1t-11 3t-9.5 5t-6 8.5t-2.5 13
t2.5 17.5v2q5 28 35 41q11 3 37 3l239 512q11 22 23.5 33t22 12.5t30.5 1.5q18 0 26.5 -1t17.5 -6t11.5 -16.5t1.5 -32.5l-15 -503q24 0 32 -5h-2q26 -11 18 -46q-4 -15 -11.5 -24.5t-18 -13t-17.5 -4.5t-18 -1h-96q-11 0 -19 1.5t-18 6.5t-11 15t1 27q6 25 21 34.5t40 9.5
q1 13 1 35t1 35h-126q-3 -7 -14 -29.5t-19 -40.5q30 0 36.5 -8t-0.5 -43q-5 -15 -11.5 -24.5t-17 -13t-17 -4.5t-18.5 -1h-96zM262 258h84q2 33 6 95t7 117z" />
    <glyph glyph-name="AE" unicode="&#xc6;" 
d="M51 0q-51 0 -41 48l-2 3q4 17 17.5 31t39.5 14h1q35 78 100 226t100 227q-30 10 -19 48q4 16 17 30.5t39 14.5h279q52 0 36 -58l-21 -84h1q-5 -22 -19.5 -34.5t-32.5 -12.5q-6 0 -12 1.5t-14 7t-9.5 16t1.5 28.5h1l10 40h-77q-5 -20 -18 -75.5t-22 -91.5h92q28 0 37 -14
t3 -36h1q-10 -44 -59 -44h-99q-9 -40 -25.5 -103.5t-22.5 -85.5h84l16 60q6 24 20 36t30 12q48 0 33 -58h1l-22 -91v-3q-13 -52 -58 -52h-196q-25 0 -35 15t-5 34q11 42 49 47l21 86h-73q-13 -30 -38 -89q35 -8 26 -50q-12 -43 -57 -43h-78zM236 276h55l68 270h-3
q-19 -41 -57.5 -128.5t-62.5 -141.5z" />
    <glyph glyph-name="Ccedilla" unicode="&#xc7;" 
d="M93 -190q0 13 7 27t23 19q12 4 31 4h6q22 1 35.5 2.5t33.5 5t30 10.5t10 18q0 3 -18 9q-14 2 -22 4.5t-15 12t-7 25.5q0 22 19 88q13 27 46 27q49 0 49 -45q0 -1 -6 -30v-2q54 -30 53 -88q0 -38 -25.5 -72t-71.5 -47q-45 -13 -125 -13h-4q-29 0 -39 14.5t-10 30.5z
M409 558q-35 0 -74.5 -26.5t-73 -69.5t-56 -104t-23.5 -124q-1 -68 27 -109t72 -41q21 0 45 8t52 34.5t41 66.5q13 41 55 41h9.5t11 -1.5t10.5 -5t8 -9.5t3.5 -15.5t-3.5 -22.5q-19 -75 -92 -132.5t-159 -57.5q-81 0 -131 63t-48 166q0 50 14 104l-1 3q35 138 129.5 232
t193.5 94q62 0 109 -39l14 18q20 21 42 21q17 0 26 -5.5t10.5 -16.5t0.5 -19t-4 -20h1q-5 -23 -18 -69q-12 -47 -18 -69q-4 -14 -6 -20.5t-8.5 -16t-17 -13.5t-26.5 -4q-22 0 -32 7.5t-10 18.5v24q5 51 -16 80t-57 29z" />
    <glyph glyph-name="Egrave" unicode="&#xc8;" 
d="M334 765q0 21 15 37t35 16q9 0 21.5 -5.5t66.5 -33.5v1l26 -12q31 -14 31 -45q-1 -15 -15.5 -35t-34.5 -20h-4t-4 0.5t-4 1.5t-5.5 2.5t-6 2.5t-8 4t-9.5 5l-12 6t-15 7l-43 22q-34 16 -34 46zM15 50q0 4 3 7q4 13 11 21.5t17 11.5t16 3.5t16 0.5h15q17 70 55 219t59 234
h-8h-11t-10.5 1t-10.5 3t-8.5 5.5t-6.5 9t-2 14t3 18.5q4 16 11 25.5t17.5 13t16.5 4.5t17 1h354q35 0 43 -14t-2 -48l-18 -73q-3 -13 -5.5 -20t-9 -16t-17.5 -13t-27 -4q-15 0 -24 4t-13 8.5t-4 15.5t1 15.5t4 18.5q0 7 8 31h-200q-37 -152 -41 -168h90q9 36 19 46.5
t41 10.5q15 0 24.5 -4t13.5 -9t4 -15t-1.5 -16l-4.5 -18h1q-3 -15 -11.5 -46t-12.5 -47q-2 -11 -5 -19t-9 -16.5t-17 -13t-27 -4.5q-24 0 -33 7.5t-9 28.5q0 12 2 21h-90q-7 -30 -23 -91t-25 -100h219q11 40 14 56q3 13 5.5 20t9 16t17.5 13.5t27 4.5q15 0 24.5 -4t13.5 -9
t4 -15t-1 -16t-4 -18h1l-23 -88q-8 -32 -20.5 -43t-42.5 -11h-375h-10t-10.5 1t-10.5 3t-8.5 5.5t-6.5 9t-2 13.5t3 18z" />
    <glyph glyph-name="Eacute" unicode="&#xc9;" 
d="M355 722q0 32 36 47l73 29q49 20 61 20q20 0 33 -15t13 -33q0 -13 -4 -22.5t-13 -16.5t-16.5 -10.5t-22.5 -9.5h-2l-63 -26q-38 -17 -53 -17q-23 0 -33 17t-9 37zM15 50q0 4 3 7q4 13 11 21.5t17 11.5t16 3.5t16 0.5h15q17 70 55 219t59 234h-8h-11t-10.5 1t-10.5 3
t-8.5 5.5t-6.5 9t-2 14t3 18.5q4 16 11 25.5t17.5 13t16.5 4.5t17 1h354q35 0 43 -14t-2 -48l-18 -73q-3 -13 -5.5 -20t-9 -16t-17.5 -13t-27 -4q-15 0 -24 4t-13 8.5t-4 15.5t1 15.5t4 18.5q0 7 8 31h-200q-37 -152 -41 -168h90q9 36 19 46.5t41 10.5q15 0 24.5 -4t13.5 -9
t4 -15t-1.5 -16l-4.5 -18h1q-3 -15 -11.5 -46t-12.5 -47q-2 -11 -5 -19t-9 -16.5t-17 -13t-27 -4.5q-24 0 -33 7.5t-9 28.5q0 12 2 21h-90q-7 -30 -23 -91t-25 -100h219q11 40 14 56q3 13 5.5 20t9 16t17.5 13.5t27 4.5q15 0 24.5 -4t13.5 -9t4 -15t-1 -16t-4 -18h1l-23 -88
q-8 -32 -20.5 -43t-42.5 -11h-375h-10t-10.5 1t-10.5 3t-8.5 5.5t-6.5 9t-2 13.5t3 18z" />
    <glyph glyph-name="Ecircumflex" unicode="&#xca;" 
d="M254 696q0 17 12.5 28.5t56.5 38.5l75 49q33 23 48 23q12 0 23 -8t34 -31l25 -24q44 -41 51.5 -51t7.5 -25q0 -19 -17.5 -36.5t-34.5 -17.5q-13 0 -24.5 9.5t-56.5 57.5l-17 17q-5 -4 -14.5 -9.5t-14.5 -8.5q-70 -50 -83.5 -58t-24.5 -8q-21 0 -33.5 18t-12.5 36zM15 50
q0 4 3 7q4 13 11 21.5t17 11.5t16 3.5t16 0.5h15q17 70 55 219t59 234h-8h-11t-10.5 1t-10.5 3t-8.5 5.5t-6.5 9t-2 14t3 18.5q4 16 11 25.5t17.5 13t16.5 4.5t17 1h354q35 0 43 -14t-2 -48l-18 -73q-3 -13 -5.5 -20t-9 -16t-17.5 -13t-27 -4q-15 0 -24 4t-13 8.5t-4 15.5
t1 15.5t4 18.5q0 7 8 31h-200q-37 -152 -41 -168h90q9 36 19 46.5t41 10.5q15 0 24.5 -4t13.5 -9t4 -15t-1.5 -16l-4.5 -18h1q-3 -15 -11.5 -46t-12.5 -47q-2 -11 -5 -19t-9 -16.5t-17 -13t-27 -4.5q-24 0 -33 7.5t-9 28.5q0 12 2 21h-90q-7 -30 -23 -91t-25 -100h219
q11 40 14 56q3 13 5.5 20t9 16t17.5 13.5t27 4.5q15 0 24.5 -4t13.5 -9t4 -15t-1 -16t-4 -18h1l-23 -88q-8 -32 -20.5 -43t-42.5 -11h-375h-10t-10.5 1t-10.5 3t-8.5 5.5t-6.5 9t-2 13.5t3 18z" />
    <glyph glyph-name="Edieresis" unicode="&#xcb;" 
d="M470 760q0 27 21.5 48.5t47.5 21.5q25 0 41 -18t16 -42q0 -28 -21 -49.5t-46.5 -21.5t-42 18t-16.5 43zM281 760q0 27 20.5 48.5t48.5 21.5q24 0 40 -16.5t16 -42.5q0 -28 -20.5 -50t-46.5 -22q-24 0 -41 17t-17 44zM15 50q0 4 3 7q4 13 11 21.5t17 11.5t16 3.5t16 0.5
h15q17 70 55 219t59 234h-8h-11t-10.5 1t-10.5 3t-8.5 5.5t-6.5 9t-2 14t3 18.5q4 16 11 25.5t17.5 13t16.5 4.5t17 1h354q35 0 43 -14t-2 -48l-18 -73q-3 -13 -5.5 -20t-9 -16t-17.5 -13t-27 -4q-15 0 -24 4t-13 8.5t-4 15.5t1 15.5t4 18.5q0 7 8 31h-200
q-37 -152 -41 -168h90q9 36 19 46.5t41 10.5q15 0 24.5 -4t13.5 -9t4 -15t-1.5 -16l-4.5 -18h1q-3 -15 -11.5 -46t-12.5 -47q-2 -11 -5 -19t-9 -16.5t-17 -13t-27 -4.5q-24 0 -33 7.5t-9 28.5q0 12 2 21h-90q-7 -30 -23 -91t-25 -100h219q11 40 14 56q3 13 5.5 20t9 16
t17.5 13.5t27 4.5q15 0 24.5 -4t13.5 -9t4 -15t-1 -16t-4 -18h1l-23 -88q-8 -32 -20.5 -43t-42.5 -11h-375h-10t-10.5 1t-10.5 3t-8.5 5.5t-6.5 9t-2 13.5t3 18z" />
    <glyph glyph-name="Igrave" unicode="&#xcc;" 
d="M332 765q0 21 15 37t35 16q9 0 21.5 -5.5t66.5 -33.5v1l26 -12q31 -14 31 -45q-1 -15 -15.5 -35t-34.5 -20h-4t-4 0.5t-4 1.5t-5.5 2.5t-6 2.5t-8 4t-9.5 5l-12 6t-15 7l-43 22q-34 16 -34 46zM66 51q3 16 10.5 25.5t17.5 13t16.5 4t16.5 0.5h89q17 70 55 219t59 234h-81
h-10.5t-11 1t-10.5 3t-9 5.5t-6 9t-2 14t2 18.5q4 16 11.5 25.5t17.5 13t16.5 4.5t17.5 1h270q6 0 10 -0.5t10.5 -1.5t10.5 -2.5t8.5 -5.5t6.5 -9t2 -13.5t-3 -19.5q-4 -15 -11 -24.5t-17 -13t-16.5 -4.5t-16.5 -1h-89q-18 -70 -55.5 -219t-58.5 -234h81h10.5t10.5 -1
t11 -2.5t8.5 -5.5t6 -9.5t1.5 -13.5t-2 -19q-4 -15 -11 -24.5t-17.5 -13t-17 -4.5t-16.5 -1h-270h-10.5t-10.5 1t-10.5 3t-8.5 5.5t-6.5 9t-1.5 14t3 18.5z" />
    <glyph glyph-name="Iacute" unicode="&#xcd;" 
d="M353 722q0 32 36 47l73 29q49 20 61 20q20 0 33 -15t13 -33q0 -13 -4 -22.5t-13 -16.5t-16.5 -10.5t-22.5 -9.5h-2l-63 -26q-38 -17 -53 -17q-23 0 -33 17t-9 37zM66 51q3 16 10.5 25.5t17.5 13t16.5 4t16.5 0.5h89q17 70 55 219t59 234h-81h-10.5t-11 1t-10.5 3t-9 5.5
t-6 9t-2 14t2 18.5q4 16 11.5 25.5t17.5 13t16.5 4.5t17.5 1h270q6 0 10 -0.5t10.5 -1.5t10.5 -2.5t8.5 -5.5t6.5 -9t2 -13.5t-3 -19.5q-4 -15 -11 -24.5t-17 -13t-16.5 -4.5t-16.5 -1h-89q-18 -70 -55.5 -219t-58.5 -234h81h10.5t10.5 -1t11 -2.5t8.5 -5.5t6 -9.5
t1.5 -13.5t-2 -19q-4 -15 -11 -24.5t-17.5 -13t-17 -4.5t-16.5 -1h-270h-10.5t-10.5 1t-10.5 3t-8.5 5.5t-6.5 9t-1.5 14t3 18.5z" />
    <glyph glyph-name="Icircumflex" unicode="&#xce;" 
d="M252 696q0 17 12.5 28.5t56.5 38.5l75 49q33 23 48 23q12 0 23 -8t34 -31l25 -24q44 -41 51.5 -51t7.5 -25q0 -19 -17.5 -36.5t-34.5 -17.5q-13 0 -24.5 9.5t-56.5 57.5l-17 17q-5 -4 -14.5 -9.5t-14.5 -8.5q-70 -50 -83.5 -58t-24.5 -8q-21 0 -33.5 18t-12.5 36zM66 51
q3 16 10.5 25.5t17.5 13t16.5 4t16.5 0.5h89q17 70 55 219t59 234h-81h-10.5t-11 1t-10.5 3t-9 5.5t-6 9t-2 14t2 18.5q4 16 11.5 25.5t17.5 13t16.5 4.5t17.5 1h270q6 0 10 -0.5t10.5 -1.5t10.5 -2.5t8.5 -5.5t6.5 -9t2 -13.5t-3 -19.5q-4 -15 -11 -24.5t-17 -13
t-16.5 -4.5t-16.5 -1h-89q-18 -70 -55.5 -219t-58.5 -234h81h10.5t10.5 -1t11 -2.5t8.5 -5.5t6 -9.5t1.5 -13.5t-2 -19q-4 -15 -11 -24.5t-17.5 -13t-17 -4.5t-16.5 -1h-270h-10.5t-10.5 1t-10.5 3t-8.5 5.5t-6.5 9t-1.5 14t3 18.5z" />
    <glyph glyph-name="Idieresis" unicode="&#xcf;" 
d="M468 760q0 27 21.5 48.5t47.5 21.5q25 0 41 -18t16 -42q0 -28 -21 -49.5t-46.5 -21.5t-42 18t-16.5 43zM279 760q0 27 20.5 48.5t48.5 21.5q24 0 40 -16.5t16 -42.5q0 -28 -20.5 -50t-46.5 -22q-24 0 -41 17t-17 44zM66 51q3 16 10.5 25.5t17.5 13t16.5 4t16.5 0.5h89
q17 70 55 219t59 234h-81h-10.5t-11 1t-10.5 3t-9 5.5t-6 9t-2 14t2 18.5q4 16 11.5 25.5t17.5 13t16.5 4.5t17.5 1h270q6 0 10 -0.5t10.5 -1.5t10.5 -2.5t8.5 -5.5t6.5 -9t2 -13.5t-3 -19.5q-4 -15 -11 -24.5t-17 -13t-16.5 -4.5t-16.5 -1h-89q-18 -70 -55.5 -219
t-58.5 -234h81h10.5t10.5 -1t11 -2.5t8.5 -5.5t6 -9.5t1.5 -13.5t-2 -19q-4 -15 -11 -24.5t-17.5 -13t-17 -4.5t-16.5 -1h-270h-10.5t-10.5 1t-10.5 3t-8.5 5.5t-6.5 9t-1.5 14t3 18.5z" />
    <glyph glyph-name="Eth" unicode="&#xd0;" 
d="M10 46q0 50 52 50h7l44 173q-37 6 -36 44q0 50 50 50h11l46 183q-38 4 -38 47q0 20 13 34.5t37 14.5h172q15 0 27.5 -2.5t29.5 -10t32 -26t26 -45.5q20 -56 19 -119q-1 -103 -42 -205t-107 -168t-134 -66h-160q-21 0 -33 9.5t-14.5 18.5t-1.5 18zM401 424q0 21 -2.5 40
t-8.5 39t-20 31.5t-33 11.5h-53q-26 -104 -46 -183h54q24 0 36.5 -13t12.5 -33q0 -6 -1.5 -12.5t-6 -16t-16 -15t-28.5 -5.5h-74q-5 -22 -13.5 -55.5t-15.5 -61t-14 -55.5h42q28 0 53 16q51 42 92 132t42 180z" />
    <glyph glyph-name="Ntilde" unicode="&#xd1;" 
d="M370 732q-19 0 -53.5 -30.5t-52.5 -30.5q-16 0 -30 14.5t-13 32.5q0 13 5.5 21.5t18.5 21.5q73 69 130 69q18 0 35 -7t26.5 -14t23.5 -19q24 -21 36 -21q3 0 6.5 0.5t7 2t6.5 2.5t7 4t6.5 4.5t7 5t6.5 4.5t6.5 5t6.5 5h-1q0 1 4.5 4.5t5.5 4.5t4.5 3.5t4.5 3.5t4 3.5t5 3
t5 2t5 2t4.5 1t5.5 0.5q14 0 28.5 -15t13.5 -33q0 -10 -4 -19t-7 -12.5t-11 -11.5q-72 -68 -132 -68q-18 0 -36 7t-26.5 13.5t-24.5 19.5q-27 21 -34 21zM17 51q4 16 11 25.5t17 13t16.5 4t16.5 0.5h10q17 70 55 219t59 234h-3h-10.5t-10.5 1t-10.5 3t-8 5.5t-6 9t-1.5 14
t2 18.5q4 16 11 25.5t17.5 13t16.5 4.5t17 1h64q28 0 41 -10t17 -41q20 -197 41 -403q8 31 40.5 158.5t50.5 200.5h-3q-56 0 -45 50q8 24 26 34.5t36 10.5h100q6 0 10 -0.5t11 -1.5t10.5 -2.5t8 -5.5t6 -9.5t2 -13.5t-2.5 -19q-4 -15 -11 -24.5t-17.5 -13t-16.5 -4.5t-16 -1
h-11l-124 -493q-9 -35 -22.5 -44.5t-43.5 -9.5q-29 0 -42.5 9t-16.5 41l-41 406q-13 -54 -44 -174t-48 -188h3h10.5t10.5 -1t11 -2.5t8.5 -5.5t6 -9.5t1.5 -13.5t-2 -19q-5 -15 -12 -24.5t-17 -13t-16.5 -4.5t-16.5 -1h-100h-10.5t-10.5 1t-10.5 3t-8 5.5t-6.5 9t-2 14
t3 18.5z" />
    <glyph glyph-name="Ograve" unicode="&#xd2;" 
d="M332 765q0 21 15 37t35 16q9 0 21.5 -5.5t66.5 -33.5v1l26 -12q31 -14 31 -45q-1 -15 -15.5 -35t-34.5 -20h-4t-4 0.5t-4 1.5t-5.5 2.5t-6 2.5t-8 4t-9.5 5l-12 6t-15 7l-43 22q-34 16 -34 46zM69 102q1 56 42 221l-1 1q20 81 34 129.5t33.5 89t36 59t46 31.5t59.5 16
t81 3t80.5 -3.5t52.5 -15.5t32 -34.5t8 -59.5q0 -54 -41 -223q-19 -74 -33.5 -121t-33 -87t-37 -60.5t-46.5 -35t-60 -18.5t-79 -4q-52 0 -81 3.5t-52.5 15t-32 34t-8.5 59.5zM262 497q-19 -39 -54 -170l1 -1q-34 -123 -36 -188q-1 -30 16 -42t68 -12q55 0 80.5 14.5
t42.5 51.5q27 59 58 183h-1q34 139 34 178q0 29 -19 38t-67 9q-55 0 -80.5 -12t-42.5 -49zM193 346l15 -19v-1z" />
    <glyph glyph-name="Oacute" unicode="&#xd3;" 
d="M353 722q0 32 36 47l73 29q49 20 61 20q20 0 33 -15t13 -33q0 -13 -4 -22.5t-13 -16.5t-16.5 -10.5t-22.5 -9.5h-2l-63 -26q-38 -17 -53 -17q-23 0 -33 17t-9 37zM69 102q1 56 42 221l-1 1q20 81 34 129.5t33.5 89t36 59t46 31.5t59.5 16t81 3t80.5 -3.5t52.5 -15.5
t32 -34.5t8 -59.5q0 -54 -41 -223q-19 -74 -33.5 -121t-33 -87t-37 -60.5t-46.5 -35t-60 -18.5t-79 -4q-52 0 -81 3.5t-52.5 15t-32 34t-8.5 59.5zM262 497q-19 -39 -54 -170l1 -1q-34 -123 -36 -188q-1 -30 16 -42t68 -12q55 0 80.5 14.5t42.5 51.5q27 59 58 183h-1
q34 139 34 178q0 29 -19 38t-67 9q-55 0 -80.5 -12t-42.5 -49zM193 346l15 -19v-1z" />
    <glyph glyph-name="Ocircumflex" unicode="&#xd4;" 
d="M252 696q0 17 12.5 28.5t56.5 38.5l75 49q33 23 48 23q12 0 23 -8t34 -31l25 -24q44 -41 51.5 -51t7.5 -25q0 -19 -17.5 -36.5t-34.5 -17.5q-13 0 -24.5 9.5t-56.5 57.5l-17 17q-5 -4 -14.5 -9.5t-14.5 -8.5q-70 -50 -83.5 -58t-24.5 -8q-21 0 -33.5 18t-12.5 36zM69 102
q1 56 42 221l-1 1q20 81 34 129.5t33.5 89t36 59t46 31.5t59.5 16t81 3t80.5 -3.5t52.5 -15.5t32 -34.5t8 -59.5q0 -54 -41 -223q-19 -74 -33.5 -121t-33 -87t-37 -60.5t-46.5 -35t-60 -18.5t-79 -4q-52 0 -81 3.5t-52.5 15t-32 34t-8.5 59.5zM262 497q-19 -39 -54 -170
l1 -1q-34 -123 -36 -188q-1 -30 16 -42t68 -12q55 0 80.5 14.5t42.5 51.5q27 59 58 183h-1q34 139 34 178q0 29 -19 38t-67 9q-55 0 -80.5 -12t-42.5 -49zM193 346l15 -19v-1z" />
    <glyph glyph-name="Otilde" unicode="&#xd5;" 
d="M370 732q-19 0 -53.5 -30.5t-52.5 -30.5q-16 0 -30 14.5t-13 32.5q0 13 5.5 21.5t18.5 21.5q73 69 130 69q18 0 35 -7t26.5 -14t23.5 -19q24 -21 36 -21q3 0 6.5 0.5t7 2t6.5 2.5t7 4t6.5 4.5t7 5t6.5 4.5t6.5 5t6.5 5h-1q0 1 4.5 4.5t5.5 4.5t4.5 3.5t4.5 3.5t4 3.5t5 3
t5 2t5 2t4.5 1t5.5 0.5q14 0 28.5 -15t13.5 -33q0 -10 -4 -19t-7 -12.5t-11 -11.5q-72 -68 -132 -68q-18 0 -36 7t-26.5 13.5t-24.5 19.5q-27 21 -34 21zM69 102q1 56 42 221l-1 1q20 81 34 129.5t33.5 89t36 59t46 31.5t59.5 16t81 3t80.5 -3.5t52.5 -15.5t32 -34.5
t8 -59.5q0 -54 -41 -223q-19 -74 -33.5 -121t-33 -87t-37 -60.5t-46.5 -35t-60 -18.5t-79 -4q-52 0 -81 3.5t-52.5 15t-32 34t-8.5 59.5zM262 497q-19 -39 -54 -170l1 -1q-34 -123 -36 -188q-1 -30 16 -42t68 -12q55 0 80.5 14.5t42.5 51.5q27 59 58 183h-1q34 139 34 178
q0 29 -19 38t-67 9q-55 0 -80.5 -12t-42.5 -49zM193 346l15 -19v-1z" />
    <glyph glyph-name="Odieresis" unicode="&#xd6;" 
d="M468 760q0 27 21.5 48.5t47.5 21.5q25 0 41 -18t16 -42q0 -28 -21 -49.5t-46.5 -21.5t-42 18t-16.5 43zM279 760q0 27 20.5 48.5t48.5 21.5q24 0 40 -16.5t16 -42.5q0 -28 -20.5 -50t-46.5 -22q-24 0 -41 17t-17 44zM69 102q1 56 42 221l-1 1q20 81 34 129.5t33.5 89
t36 59t46 31.5t59.5 16t81 3t80.5 -3.5t52.5 -15.5t32 -34.5t8 -59.5q0 -54 -41 -223q-19 -74 -33.5 -121t-33 -87t-37 -60.5t-46.5 -35t-60 -18.5t-79 -4q-52 0 -81 3.5t-52.5 15t-32 34t-8.5 59.5zM262 497q-19 -39 -54 -170l1 -1q-34 -123 -36 -188q-1 -30 16 -42t68 -12
q55 0 80.5 14.5t42.5 51.5q27 59 58 183h-1q34 139 34 178q0 29 -19 38t-67 9q-55 0 -80.5 -12t-42.5 -49zM193 346l15 -19v-1z" />
    <glyph glyph-name="multiply" unicode="&#xd7;" 
d="M106 187q0 16 10.5 29.5t49.5 52.5q6 5 19 17.5t16 14.5q13 13 30 29q-4 7 -12 22.5t-12 21.5q-34 63 -34 80q1 22 16 36.5t34 14.5q22 0 33.5 -14t41.5 -72l8 -14q3 3 12 11.5t14 12.5q58 57 70 66.5t28 9.5q19 0 33.5 -14t13.5 -36q0 -18 -13 -33.5t-73 -73.5l-37 -36
l27 -53q30 -55 30 -71q0 -22 -14 -36t-34 -16q-22 0 -32.5 12t-34.5 57l-11 24l-6 8l-34 -32q-50 -49 -62.5 -59t-27.5 -10q-22 0 -35.5 15.5t-13.5 35.5z" />
    <glyph glyph-name="Oslash" unicode="&#xd8;" 
d="M68 89q1 40 12.5 96.5t44.5 191.5q17 64 30 105t29 74t31 50t39.5 28.5t50.5 14.5t66 3h28l4 12q10 21 14 29t11.5 18t14.5 12.5t18 2.5q18 0 31.5 -14t13.5 -33q0 -12 -15 -44l1 1q-2 -4 -5 -8q30 -25 30 -76q-1 -60 -36.5 -207t-60.5 -216q-34 -87 -73 -113t-133 -26
h-26q-20 -45 -31.5 -59.5t-32.5 -14.5q-18 0 -31.5 14t-12.5 32q0 16 16 50l2 1l-1 1q-30 22 -29 75zM97 13l-1 -1zM236 459q-18 -55 -43 -155.5t-31 -155.5l193 408h-1q-53 0 -76 -21t-42 -76zM161 127q-1 -18 5 -25l-27 -3l23 49q-1 -7 -1 -21zM401 382q14 58 21 108
l-192 -405q70 0 95 44.5t69 222.5q5 20 8 30h-1zM447 543l-25 -53q2 19 2 26q0 16 -6 26zM206 85h24l-10 -24z" />
    <glyph glyph-name="Ugrave" unicode="&#xd9;" 
d="M332 765q0 21 15 37t35 16q9 0 21.5 -5.5t66.5 -33.5v1l26 -12q31 -14 31 -45q-1 -15 -15.5 -35t-34.5 -20h-4t-4 0.5t-4 1.5t-5.5 2.5t-6 2.5t-8 4t-9.5 5l-12 6t-15 7l-43 22q-34 16 -34 46zM132 598q4 16 11 25.5t17.5 13t16.5 4.5t17 1h122q58 0 46 -51
q-9 -24 -27 -34t-35 -10h-15l-83 -327q-6 -28 -6 -50q0 -41 18.5 -63.5t44.5 -22.5q37 0 78 38.5t59 106.5h-1l80 318h-8h-11t-10.5 1t-10.5 3t-8.5 5.5t-6.5 9t-2 14t3 18.5q4 16 11 25.5t17.5 13t16.5 4.5t17 1h122q58 0 46 -51q-17 -44 -62 -44h-17l-83 -331
q-17 -62 -56.5 -114.5t-90 -82t-99.5 -29.5q-66 0 -107.5 47t-40.5 123q0 30 9 64l82 323h-8h-11t-10.5 1t-10.5 3t-8.5 5.5t-6.5 9t-2 14t3 18.5z" />
    <glyph glyph-name="Uacute" unicode="&#xda;" 
d="M353 722q0 32 36 47l73 29q49 20 61 20q20 0 33 -15t13 -33q0 -13 -4 -22.5t-13 -16.5t-16.5 -10.5t-22.5 -9.5h-2l-63 -26q-38 -17 -53 -17q-23 0 -33 17t-9 37zM132 598q4 16 11 25.5t17.5 13t16.5 4.5t17 1h122q58 0 46 -51q-9 -24 -27 -34t-35 -10h-15l-83 -327
q-6 -28 -6 -50q0 -41 18.5 -63.5t44.5 -22.5q37 0 78 38.5t59 106.5h-1l80 318h-8h-11t-10.5 1t-10.5 3t-8.5 5.5t-6.5 9t-2 14t3 18.5q4 16 11 25.5t17.5 13t16.5 4.5t17 1h122q58 0 46 -51q-17 -44 -62 -44h-17l-83 -331q-17 -62 -56.5 -114.5t-90 -82t-99.5 -29.5
q-66 0 -107.5 47t-40.5 123q0 30 9 64l82 323h-8h-11t-10.5 1t-10.5 3t-8.5 5.5t-6.5 9t-2 14t3 18.5z" />
    <glyph glyph-name="Ucircumflex" unicode="&#xdb;" 
d="M252 696q0 17 12.5 28.5t56.5 38.5l75 49q33 23 48 23q12 0 23 -8t34 -31l25 -24q44 -41 51.5 -51t7.5 -25q0 -19 -17.5 -36.5t-34.5 -17.5q-13 0 -24.5 9.5t-56.5 57.5l-17 17q-5 -4 -14.5 -9.5t-14.5 -8.5q-70 -50 -83.5 -58t-24.5 -8q-21 0 -33.5 18t-12.5 36z
M132 598q4 16 11 25.5t17.5 13t16.5 4.5t17 1h122q58 0 46 -51q-9 -24 -27 -34t-35 -10h-15l-83 -327q-6 -28 -6 -50q0 -41 18.5 -63.5t44.5 -22.5q37 0 78 38.5t59 106.5h-1l80 318h-8h-11t-10.5 1t-10.5 3t-8.5 5.5t-6.5 9t-2 14t3 18.5q4 16 11 25.5t17.5 13t16.5 4.5
t17 1h122q58 0 46 -51q-17 -44 -62 -44h-17l-83 -331q-17 -62 -56.5 -114.5t-90 -82t-99.5 -29.5q-66 0 -107.5 47t-40.5 123q0 30 9 64l82 323h-8h-11t-10.5 1t-10.5 3t-8.5 5.5t-6.5 9t-2 14t3 18.5z" />
    <glyph glyph-name="Udieresis" unicode="&#xdc;" 
d="M468 760q0 27 21.5 48.5t47.5 21.5q25 0 41 -18t16 -42q0 -28 -21 -49.5t-46.5 -21.5t-42 18t-16.5 43zM279 760q0 27 20.5 48.5t48.5 21.5q24 0 40 -16.5t16 -42.5q0 -28 -20.5 -50t-46.5 -22q-24 0 -41 17t-17 44zM132 598q4 16 11 25.5t17.5 13t16.5 4.5t17 1h122
q58 0 46 -51q-9 -24 -27 -34t-35 -10h-15l-83 -327q-6 -28 -6 -50q0 -41 18.5 -63.5t44.5 -22.5q37 0 78 38.5t59 106.5h-1l80 318h-8h-11t-10.5 1t-10.5 3t-8.5 5.5t-6.5 9t-2 14t3 18.5q4 16 11 25.5t17.5 13t16.5 4.5t17 1h122q58 0 46 -51q-17 -44 -62 -44h-17l-83 -331
q-17 -62 -56.5 -114.5t-90 -82t-99.5 -29.5q-66 0 -107.5 47t-40.5 123q0 30 9 64l82 323h-8h-11t-10.5 1t-10.5 3t-8.5 5.5t-6.5 9t-2 14t3 18.5z" />
    <glyph glyph-name="Yacute" unicode="&#xdd;" 
d="M353 722q0 32 36 47l73 29q49 20 61 20q20 0 33 -15t13 -33q0 -13 -4 -22.5t-13 -16.5t-16.5 -10.5t-22.5 -9.5h-2l-63 -26q-38 -17 -53 -17q-23 0 -33 17t-9 37zM146 598q4 16 11.5 25.5t17.5 13t16 4.5t17 1h98q57 0 45 -51q-12 -35 -47 -43q33 -137 32 -171
q15 21 54 77.5t64 93.5q-32 8 -22 50q4 16 11.5 25.5t17.5 13t16 4.5t17 1h98q6 0 10 -0.5t11 -1.5t10.5 -2.5t8 -5.5t6 -9.5t2 -13.5t-2.5 -19q-4 -15 -11 -24.5t-17 -13t-16.5 -4.5t-16.5 -1h-11q-13 -18 -210 -294l-40 -159h3h10.5t10.5 -1t11 -2.5t8.5 -5.5t6 -9.5
t1.5 -13.5t-2 -19q-5 -15 -12 -24.5t-17 -13t-16.5 -4.5t-16.5 -1h-113h-10.5t-10 1t-10.5 3t-8 5.5t-6 9t-2 14t3 18.5q3 16 10.5 25.5t17.5 13t16.5 4t16.5 0.5h10q7 29 21 82.5t21 82.5l-60 288h-6h-11t-10.5 1t-10.5 3t-8.5 5.5t-6 9t-1.5 14t2 18.5z" />
    <glyph glyph-name="Thorn" unicode="&#xde;" 
d="M18 46q0 50 53 50h18l113 450q-48 1 -48 46q1 50 52 50h120q51 0 50 -47q0 -20 -10.5 -32t-20.5 -14.5t-20 -2.5h-20l-3 -8h63q37 0 63.5 -14t39.5 -36t18.5 -44.5t5.5 -46.5q-1 -37 -15.5 -77.5t-41.5 -77t-70 -60t-94 -23.5h-66l-15 -63q50 0 50 -47q-1 -19 -13 -34
t-40 -15h-120q-16 0 -27 5t-15.5 13.5t-6 14.5t-0.5 13zM231 253h39q56 0 88.5 42t33.5 87q0 23 -12 42t-39 19h-63q-7 -31 -22.5 -91.5t-24.5 -98.5z" />
    <glyph glyph-name="germandbls" unicode="&#xdf;" 
d="M-15 -139q1 39 20.5 57t42.5 18q18 0 31 -10q24 90 79 358q3 13 7.5 37t7.5 38h-16q-48 0 -47 45q0 48 51 48h31q19 109 53.5 144.5t125.5 35.5q38 0 65.5 -9t41.5 -24t20 -30t5 -31q0 -22 -19 -84.5t-41 -91.5q-10 -14 -29 -30q-25 -24 -25 -37q-1 -13 20 -39
q13 -17 19 -26t12.5 -30t6.5 -44q-1 -32 -18 -69t-50 -64.5t-71 -27.5q-36 0 -62.5 21t-31.5 55q-7 -32 -10 -46.5t-9.5 -43.5t-10.5 -43t-11 -37t-13 -35t-14.5 -28.5t-17 -25t-19.5 -17.5t-23 -12t-26 -3q-33 0 -54 23t-21 58zM294 463l-68 -333q16 23 46 23
q21 0 35.5 -15t14.5 -37q0 -5 -1 -9q11 8 19.5 28.5t8.5 33.5q0 11 -20 38h1q-12 17 -19 27.5t-13.5 31t-6.5 42.5q1 33 15 56.5t49 58.5q26 24 50 118v7q0 7 -40 7q-38 0 -50 -14t-21 -63z" />
    <glyph glyph-name="agrave" unicode="&#xe0;" 
d="M74 161q1 70 32 139t82 113.5t103 44.5q39 0 75 -31q14 16 35 16q19 0 33.5 -14t14.5 -35q0 -5 -4 -21l-62 -249q0 -4 -4 -11q-2 -6 -2 -14q0 -11 3 -11q5 0 25 70q3 9 4.5 13t6.5 13t14 13t22 4h4q20 0 31 -9.5t13 -18t2 -18.5q0 -1 -1.5 -9.5t-6 -23.5t-10.5 -31.5
t-16 -33.5t-22.5 -31t-30 -22.5t-37.5 -8.5q-47 0 -79 41q-50 -41 -102 -41q-56 0 -90 46.5t-33 119.5zM170 158q0 -26 6.5 -48t23.5 -22q39 0 79 67t41 139q0 33 -9 51.5t-24 18.5q-25 0 -52 -31.5t-46 -80.5t-19 -94zM206 616q1 21 16 37.5t36 16.5q10 0 18.5 -5t53.5 -34
v1l41 -27q1 -1 5 -4.5t7 -7t7 -8.5t6 -11.5t2 -13.5q-1 -19 -18 -38t-37 -19q-8 0 -50 28l-58 39q-29 18 -29 46z" />
    <glyph glyph-name="aacute" unicode="&#xe1;" 
d="M263 561v1q0 12 6.5 21.5t12.5 13.5t16 10h2h-2l47 23q78 40 91 40q19 0 32 -14.5t14 -35.5q0 -34 -37 -52l-66 -32q-62 -33 -71 -33q-24 0 -35 20t-10 38zM74 161q1 70 32 139t82 113.5t103 44.5q39 0 75 -31q14 16 35 16q19 0 33.5 -14t14.5 -35q0 -5 -4 -21l-62 -249
q0 -4 -4 -11q-2 -6 -2 -14q0 -11 3 -11q5 0 25 70q3 9 4.5 13t6.5 13t14 13t22 4h4q20 0 31 -9.5t13 -18t2 -18.5q0 -1 -1.5 -9.5t-6 -23.5t-10.5 -31.5t-16 -33.5t-22.5 -31t-30 -22.5t-37.5 -8.5q-47 0 -79 41q-50 -41 -102 -41q-56 0 -90 46.5t-33 119.5zM170 158
q0 -26 6.5 -48t23.5 -22q39 0 79 67t41 139q0 33 -9 51.5t-24 18.5q-25 0 -52 -31.5t-46 -80.5t-19 -94z" />
    <glyph glyph-name="acircumflex" unicode="&#xe2;" 
d="M235 503q-23 -18 -41 -18q-21 0 -34 19t-13 37q1 20 12.5 30.5t77.5 49.5l75 44q14 9 29 9q9 0 15.5 -4t32.5 -25q12 -10 19 -16l1 1q2 -2 24 -21t33 -27q22 -18 21 -41q0 -18 -17.5 -37t-35.5 -19q-12 0 -20 5.5t-42 37.5l-40 37q-79 -52 -100 -65zM74 161q1 70 32 139
t82 113.5t103 44.5q39 0 75 -31q14 16 35 16q19 0 33.5 -14t14.5 -35q0 -5 -4 -21l-62 -249q0 -4 -4 -11q-2 -6 -2 -14q0 -11 3 -11q5 0 25 70q3 9 4.5 13t6.5 13t14 13t22 4h4q20 0 31 -9.5t13 -18t2 -18.5q0 -1 -1.5 -9.5t-6 -23.5t-10.5 -31.5t-16 -33.5t-22.5 -31
t-30 -22.5t-37.5 -8.5q-47 0 -79 41q-50 -41 -102 -41q-56 0 -90 46.5t-33 119.5zM170 158q0 -26 6.5 -48t23.5 -22q39 0 79 67t41 139q0 33 -9 51.5t-24 18.5q-25 0 -52 -31.5t-46 -80.5t-19 -94z" />
    <glyph glyph-name="atilde" unicode="&#xe3;" 
d="M277 541q-11 0 -47.5 -26.5t-49.5 -26.5q-17 0 -31 14.5t-14 35.5q1 21 24 40q23 17 36 26.5t42 23.5t50 14q18 0 33 -7.5t21.5 -14.5t16.5 -20q9 -12 10 -12q12 0 49 27t51.5 27t28.5 -14.5t14 -34.5q0 -22 -22 -40q-81 -65 -129 -65q-19 0 -33.5 7.5t-21 14t-16.5 18.5
q-6 13 -12 13zM74 161q1 70 32 139t82 113.5t103 44.5q39 0 75 -31q14 16 35 16q19 0 33.5 -14t14.5 -35q0 -5 -4 -21l-62 -249q0 -4 -4 -11q-2 -6 -2 -14q0 -11 3 -11q5 0 25 70q3 9 4.5 13t6.5 13t14 13t22 4h4q20 0 31 -9.5t13 -18t2 -18.5q0 -1 -1.5 -9.5t-6 -23.5
t-10.5 -31.5t-16 -33.5t-22.5 -31t-30 -22.5t-37.5 -8.5q-47 0 -79 41q-50 -41 -102 -41q-56 0 -90 46.5t-33 119.5zM170 158q0 -26 6.5 -48t23.5 -22q39 0 79 67t41 139q0 33 -9 51.5t-24 18.5q-25 0 -52 -31.5t-46 -80.5t-19 -94z" />
    <glyph glyph-name="adieresis" unicode="&#xe4;" 
d="M359 570q0 29 21 50.5t48 21.5q24 0 41.5 -18t17.5 -44q0 -29 -22 -50.5t-49 -21.5q-24 0 -41 18t-16 44zM164 570q0 28 21 50t50 22q24 0 40.5 -17.5t16.5 -43.5q0 -29 -21 -51t-48 -22q-24 0 -42 17.5t-17 44.5zM74 161q1 70 32 139t82 113.5t103 44.5q39 0 75 -31
q14 16 35 16q19 0 33.5 -14t14.5 -35q0 -5 -4 -21l-62 -249q0 -4 -4 -11q-2 -6 -2 -14q0 -11 3 -11q5 0 25 70q3 9 4.5 13t6.5 13t14 13t22 4h4q20 0 31 -9.5t13 -18t2 -18.5q0 -1 -1.5 -9.5t-6 -23.5t-10.5 -31.5t-16 -33.5t-22.5 -31t-30 -22.5t-37.5 -8.5q-47 0 -79 41
q-50 -41 -102 -41q-56 0 -90 46.5t-33 119.5zM170 158q0 -26 6.5 -48t23.5 -22q39 0 79 67t41 139q0 33 -9 51.5t-24 18.5q-25 0 -52 -31.5t-46 -80.5t-19 -94z" />
    <glyph glyph-name="aring" unicode="&#xe5;" 
d="M236 550q0 48 35.5 87.5t75.5 39.5q33 0 51.5 -22.5t17.5 -57.5q0 -48 -35.5 -87t-75.5 -39q-34 0 -52 22t-17 57zM330 595q-6 -16 -8 -43q6 17 8 43zM337 608q-3 -2 -7 -13v9q0 4 7 4zM321 544q0 -3 -8 -3q3 0 9 11zM74 161q1 70 32 139t82 113.5t103 44.5q39 0 75 -31
q14 16 35 16q19 0 33.5 -14t14.5 -35q0 -5 -4 -21l-62 -249q0 -4 -4 -11q-2 -6 -2 -14q0 -11 3 -11q5 0 25 70q3 9 4.5 13t6.5 13t14 13t22 4h4q20 0 31 -9.5t13 -18t2 -18.5q0 -1 -1.5 -9.5t-6 -23.5t-10.5 -31.5t-16 -33.5t-22.5 -31t-30 -22.5t-37.5 -8.5q-47 0 -79 41
q-50 -41 -102 -41q-56 0 -90 46.5t-33 119.5zM170 158q0 -26 6.5 -48t23.5 -22q39 0 79 67t41 139q0 33 -9 51.5t-24 18.5q-25 0 -52 -31.5t-46 -80.5t-19 -94z" />
    <glyph glyph-name="ae" unicode="&#xe6;" 
d="M23 154q1 70 28.5 140.5t74 117t94.5 46.5q34 0 58 -24q11 23 36 23q24 0 37 -25q38 26 74 26q44 0 70.5 -31.5t25.5 -80.5q0 -37 -15.5 -66.5t-38.5 -47t-53.5 -29t-57.5 -15.5t-55 -4q-1 -9 -1 -24q0 -26 7 -46t19 -25q1 -1 12 -1q41 0 83 34q21 18 37 18
q15 0 28 -12.5t13 -30.5q0 -29 -53.5 -65.5t-112.5 -36.5q-68 0 -98 66q-17 -19 -29 -31t-34.5 -23.5t-45.5 -11.5q-18 0 -35 7t-33 24t-26 50t-9 78zM119 149q-1 -61 11 -61q20 0 45 33.5t43 84.5t19 96q0 27 -5.5 44.5t-14.5 17.5q-19 0 -41.5 -32t-39.5 -83t-17 -100z
M422 364q-18 0 -44.5 -22.5t-47.5 -64.5q106 10 107 66q0 21 -15 21zM320 254l-15 22q16 0 25 1q-2 -4 -10 -23z" />
    <glyph glyph-name="ccedilla" unicode="&#xe7;" 
d="M57 -190q0 13 7 27t23 19q12 4 31 4h6q22 1 35.5 2.5t33.5 5t30 10.5t10 18q0 3 -18 9q-14 2 -22 4.5t-15 12t-7 25.5q0 22 19 88q13 27 46 27q49 0 49 -45q0 -1 -6 -30v-2q54 -30 53 -88q0 -38 -25.5 -72t-71.5 -47q-45 -13 -125 -13h-4q-29 0 -39 14.5t-10 30.5z
M55 175q1 69 37 134.5t95.5 107t122.5 41.5q55 0 91 -30t35 -78q0 -39 -20 -58t-44 -19q-22 0 -37.5 16t-15.5 39q0 17 9 32q-10 4 -20 4q-55 0 -105.5 -60t-51.5 -130q0 -14 3 -27.5t10.5 -27.5t23 -23t38.5 -9q99 0 141 38q20 15 33 15q17 0 32.5 -17.5t16.5 -35.5
q0 -22 -21 -40q-28 -24 -67.5 -36t-66 -14t-69.5 -2q-40 0 -71 12t-49 30.5t-30 43.5t-16 48t-4 46z" />
    <glyph glyph-name="egrave" unicode="&#xe8;" 
d="M56 177q1 72 38.5 137.5t96.5 104.5t119 39q55 0 93 -33.5t37 -85.5q0 -26 -13.5 -54t-32.5 -47q-65 -54 -233 -54h-10q0 -2 0.5 -4.5t0.5 -4.5q0 -34 16.5 -61t56.5 -27q45 0 77 7.5t41.5 13t21.5 16.5q23 16 37 16q16 0 31.5 -17.5t15.5 -35.5q0 -23 -31.5 -46
t-67.5 -34q-47 -12 -125 -12q-40 0 -70.5 12t-49 31t-30 44t-15.5 48.5t-4 46.5zM307 364q-32 0 -66.5 -25t-58.5 -63q160 3 161 62q0 12 -9.5 19t-26.5 7zM171 253l-15 23h26q-6 -11 -11 -23zM228 616q1 21 16 37.5t36 16.5q10 0 18.5 -5t53.5 -34v1l41 -27q1 -1 5 -4.5
t7 -7t7 -8.5t6 -11.5t2 -13.5q-1 -19 -18 -38t-37 -19q-8 0 -50 28l-58 39q-29 18 -29 46z" />
    <glyph glyph-name="eacute" unicode="&#xe9;" 
d="M285 561v1q0 12 6.5 21.5t12.5 13.5t16 10h2h-2l47 23q78 40 91 40q19 0 32 -14.5t14 -35.5q0 -34 -37 -52l-66 -32q-62 -33 -71 -33q-24 0 -35 20t-10 38zM56 177q1 72 38.5 137.5t96.5 104.5t119 39q55 0 93 -33.5t37 -85.5q0 -26 -13.5 -54t-32.5 -47
q-65 -54 -233 -54h-10q0 -2 0.5 -4.5t0.5 -4.5q0 -34 16.5 -61t56.5 -27q45 0 77 7.5t41.5 13t21.5 16.5q23 16 37 16q16 0 31.5 -17.5t15.5 -35.5q0 -23 -31.5 -46t-67.5 -34q-47 -12 -125 -12q-40 0 -70.5 12t-49 31t-30 44t-15.5 48.5t-4 46.5zM307 364q-32 0 -66.5 -25
t-58.5 -63q160 3 161 62q0 12 -9.5 19t-26.5 7zM171 253l-15 23h26q-6 -11 -11 -23z" />
    <glyph glyph-name="ecircumflex" unicode="&#xea;" 
d="M257 503q-23 -18 -41 -18q-21 0 -34 19t-13 37q1 20 12.5 30.5t77.5 49.5l75 44q14 9 29 9q9 0 15.5 -4t32.5 -25q12 -10 19 -16l1 1q2 -2 24 -21t33 -27q22 -18 21 -41q0 -18 -17.5 -37t-35.5 -19q-12 0 -20 5.5t-42 37.5l-40 37q-79 -52 -100 -65zM56 177
q1 72 38.5 137.5t96.5 104.5t119 39q55 0 93 -33.5t37 -85.5q0 -26 -13.5 -54t-32.5 -47q-65 -54 -233 -54h-10q0 -2 0.5 -4.5t0.5 -4.5q0 -34 16.5 -61t56.5 -27q45 0 77 7.5t41.5 13t21.5 16.5q23 16 37 16q16 0 31.5 -17.5t15.5 -35.5q0 -23 -31.5 -46t-67.5 -34
q-47 -12 -125 -12q-40 0 -70.5 12t-49 31t-30 44t-15.5 48.5t-4 46.5zM307 364q-32 0 -66.5 -25t-58.5 -63q160 3 161 62q0 12 -9.5 19t-26.5 7zM171 253l-15 23h26q-6 -11 -11 -23z" />
    <glyph glyph-name="edieresis" unicode="&#xeb;" 
d="M381 570q0 29 21 50.5t48 21.5q24 0 41.5 -18t17.5 -44q0 -29 -22 -50.5t-49 -21.5q-24 0 -41 18t-16 44zM186 570q0 28 21 50t50 22q24 0 40.5 -17.5t16.5 -43.5q0 -29 -21 -51t-48 -22q-24 0 -42 17.5t-17 44.5zM56 177q1 72 38.5 137.5t96.5 104.5t119 39
q55 0 93 -33.5t37 -85.5q0 -26 -13.5 -54t-32.5 -47q-65 -54 -233 -54h-10q0 -2 0.5 -4.5t0.5 -4.5q0 -34 16.5 -61t56.5 -27q45 0 77 7.5t41.5 13t21.5 16.5q23 16 37 16q16 0 31.5 -17.5t15.5 -35.5q0 -23 -31.5 -46t-67.5 -34q-47 -12 -125 -12q-40 0 -70.5 12t-49 31
t-30 44t-15.5 48.5t-4 46.5zM307 364q-32 0 -66.5 -25t-58.5 -63q160 3 161 62q0 12 -9.5 19t-26.5 7zM171 253l-15 23h26q-6 -11 -11 -23z" />
    <glyph glyph-name="igrave" unicode="&#xec;" 
d="M91 297v1q1 20 14 46.5t33.5 52t52 43.5t64.5 18q45 0 76 -29t30 -74v-5q0 -19 -52 -146q-40 -101 -40 -107q0 -9 11 -9q18 0 37 20.5t29 47.5q3 13 7 21t15 16t27 8q20 0 34 -11t14 -35q0 -15 -12 -40.5t-31.5 -53t-52.5 -47t-69 -19.5q-43 0 -74.5 28t-31.5 74
q0 4 1 10t3 14.5t4 15t6 18t6.5 18t8 20t8 20t8.5 21.5l8 20q38 94 38 102t-11 8q-20 0 -38 -20.5t-26 -47.5q-1 -1 -1.5 -2.5l-0.5 -1.5q-10 -29 -25 -36q-10 -4 -24 -4q-27 0 -37 14t-9 31zM238 616q1 21 16 37.5t36 16.5q10 0 18.5 -5t53.5 -34v1l41 -27q1 -1 5 -4.5
t7 -7t7 -8.5t6 -11.5t2 -13.5q-1 -19 -18 -38t-37 -19q-8 0 -50 28l-58 39q-29 18 -29 46z" />
    <glyph glyph-name="iacute" unicode="&#xed;" 
d="M91 297v1q1 20 14 46.5t33.5 52t52 43.5t64.5 18q45 0 76 -29t30 -74v-5q0 -19 -52 -146q-40 -101 -40 -107q0 -9 11 -9q18 0 37 20.5t29 47.5q3 13 7 21t15 16t27 8q20 0 34 -11t14 -35q0 -15 -12 -40.5t-31.5 -53t-52.5 -47t-69 -19.5q-43 0 -74.5 28t-31.5 74
q0 4 1 10t3 14.5t4 15t6 18t6.5 18t8 20t8 20t8.5 21.5l8 20q38 94 38 102t-11 8q-20 0 -38 -20.5t-26 -47.5q-1 -1 -1.5 -2.5l-0.5 -1.5q-10 -29 -25 -36q-10 -4 -24 -4q-27 0 -37 14t-9 31zM295 561v1q0 12 6.5 21.5t12.5 13.5t16 10h2h-2l47 23q78 40 91 40
q19 0 32 -14.5t14 -35.5q0 -34 -37 -52l-66 -32q-62 -33 -71 -33q-24 0 -35 20t-10 38z" />
    <glyph glyph-name="icircumflex" unicode="&#xee;" 
d="M267 503q-23 -18 -41 -18q-21 0 -34 19t-13 37q1 20 12.5 30.5t77.5 49.5l75 44q14 9 29 9q9 0 15.5 -4t32.5 -25q12 -10 19 -16l1 1q2 -2 24 -21t33 -27q22 -18 21 -41q0 -18 -17.5 -37t-35.5 -19q-12 0 -20 5.5t-42 37.5l-40 37q-79 -52 -100 -65zM91 297v1
q1 20 14 46.5t33.5 52t52 43.5t64.5 18q45 0 76 -29t30 -74v-5q0 -19 -52 -146q-40 -101 -40 -107q0 -9 11 -9q18 0 37 20.5t29 47.5q3 13 7 21t15 16t27 8q20 0 34 -11t14 -35q0 -15 -12 -40.5t-31.5 -53t-52.5 -47t-69 -19.5q-43 0 -74.5 28t-31.5 74q0 4 1 10t3 14.5
t4 15t6 18t6.5 18t8 20t8 20t8.5 21.5l8 20q38 94 38 102t-11 8q-20 0 -38 -20.5t-26 -47.5q-1 -1 -1.5 -2.5l-0.5 -1.5q-10 -29 -25 -36q-10 -4 -24 -4q-27 0 -37 14t-9 31z" />
    <glyph glyph-name="idieresis" unicode="&#xef;" 
d="M91 297v1q1 20 14 46.5t33.5 52t52 43.5t64.5 18q45 0 76 -29t30 -74v-5q0 -19 -52 -146q-40 -101 -40 -107q0 -9 11 -9q18 0 37 20.5t29 47.5q3 13 7 21t15 16t27 8q20 0 34 -11t14 -35q0 -15 -12 -40.5t-31.5 -53t-52.5 -47t-69 -19.5q-43 0 -74.5 28t-31.5 74
q0 4 1 10t3 14.5t4 15t6 18t6.5 18t8 20t8 20t8.5 21.5l8 20q38 94 38 102t-11 8q-20 0 -38 -20.5t-26 -47.5q-1 -1 -1.5 -2.5l-0.5 -1.5q-10 -29 -25 -36q-10 -4 -24 -4q-27 0 -37 14t-9 31zM391 570q0 29 21 50.5t48 21.5q24 0 41.5 -18t17.5 -44q0 -29 -22 -50.5
t-49 -21.5q-24 0 -41 18t-16 44zM196 570q0 28 21 50t50 22q24 0 40.5 -17.5t16.5 -43.5q0 -29 -21 -51t-48 -22q-24 0 -42 17.5t-17 44.5z" />
    <glyph glyph-name="eth" unicode="&#xf0;" 
d="M279 625q5 0 9 -1.5t8.5 -4t7.5 -4t7.5 -5t5.5 -4.5q3 0 20 10l17 10q8 4 14.5 1t8.5 -11l17 -55q2 -13 -7 -20q71 -87 70 -218q-1 -76 -25.5 -141t-62 -104.5t-79 -61t-78.5 -21.5q-61 0 -98 46.5t-36 120.5q1 71 36.5 140.5t92 113.5t113.5 44h3l-2 1q-3 5 -11.5 16.5
t-12.5 17.5l-34 -18q-7 -3 -13 -0.5t-8 9.5l-17 56q0 1 0.5 3.5t0.5 3.5l-12 6q-10 5 -10 14t9 15l22 17h-1q34 24 45 24zM322 460l-1 1zM177 175q0 -39 13.5 -63.5t37.5 -24.5q44 0 86 62.5t42 132.5q1 38 -13.5 61t-38.5 23q-45 0 -85.5 -59t-41.5 -132z" />
    <glyph glyph-name="ntilde" unicode="&#xf1;" 
d="M308 541q-11 0 -47.5 -26.5t-49.5 -26.5q-17 0 -31 14.5t-14 35.5q1 21 24 40q23 17 36 26.5t42 23.5t50 14q18 0 33 -7.5t21.5 -14.5t16.5 -20q9 -12 10 -12q12 0 49 27t51.5 27t28.5 -14.5t14 -34.5q0 -22 -22 -40q-81 -65 -129 -65q-19 0 -33.5 7.5t-21 14t-16.5 18.5
q-6 13 -12 13zM375 96q5 4 9.5 11.5t9 17.5t7 17t6 19t4.5 15q15 25 41 25q28 0 38.5 -14t10.5 -32q0 -10 -8.5 -34t-24 -53t-44 -51t-62.5 -22q-38 0 -61 26.5t-23 68.5q0 24 29 106q37 113 37 144q0 24 -14 24q-18 0 -35.5 -13t-32.5 -38.5t-26.5 -50.5t-23.5 -62.5
t-18.5 -60t-15.5 -56.5q-15 -57 -20 -65q-15 -23 -40 -23q-18 0 -33 14t-14 35q0 11 5 23l65 262q5 18 5 26q-7 -15 -15 -51q-1 -2 -1 -4q-4 -12 -6 -17.5t-7.5 -14.5t-14.5 -12.5t-22 -3.5q-48 0 -47 44q0 3 2.5 17.5t11 40t20.5 48t34 39.5t49 17q49 0 76 -43
q47 43 107 43q50 0 79 -31.5t28 -88.5q0 -43 -45 -184z" />
    <glyph glyph-name="ograve" unicode="&#xf2;" 
d="M56 170q1 64 23.5 119t58.5 91.5t81.5 57t92.5 20.5q71 0 118 -50t46 -126q0 -67 -22.5 -122.5t-59 -91t-81.5 -54.5t-93 -19q-71 0 -118 50t-46 125zM152 166q0 -29 20.5 -54t48.5 -25q25 0 51 11.5t51 34t41 62.5t16 91q1 34 -21 56t-49 22q-24 0 -50.5 -12.5
t-50.5 -36t-40 -63t-17 -86.5zM230 616q1 21 16 37.5t36 16.5q10 0 18.5 -5t53.5 -34v1l41 -27q1 -1 5 -4.5t7 -7t7 -8.5t6 -11.5t2 -13.5q-1 -19 -18 -38t-37 -19q-8 0 -50 28l-58 39q-29 18 -29 46z" />
    <glyph glyph-name="oacute" unicode="&#xf3;" 
d="M287 561v1q0 12 6.5 21.5t12.5 13.5t16 10h2h-2l47 23q78 40 91 40q19 0 32 -14.5t14 -35.5q0 -34 -37 -52l-66 -32q-62 -33 -71 -33q-24 0 -35 20t-10 38zM56 170q1 64 23.5 119t58.5 91.5t81.5 57t92.5 20.5q71 0 118 -50t46 -126q0 -67 -22.5 -122.5t-59 -91
t-81.5 -54.5t-93 -19q-71 0 -118 50t-46 125zM152 166q0 -29 20.5 -54t48.5 -25q25 0 51 11.5t51 34t41 62.5t16 91q1 34 -21 56t-49 22q-24 0 -50.5 -12.5t-50.5 -36t-40 -63t-17 -86.5z" />
    <glyph glyph-name="ocircumflex" unicode="&#xf4;" 
d="M259 503q-23 -18 -41 -18q-21 0 -34 19t-13 37q1 20 12.5 30.5t77.5 49.5l75 44q14 9 29 9q9 0 15.5 -4t32.5 -25q12 -10 19 -16l1 1q2 -2 24 -21t33 -27q22 -18 21 -41q0 -18 -17.5 -37t-35.5 -19q-12 0 -20 5.5t-42 37.5l-40 37q-79 -52 -100 -65zM56 170
q1 64 23.5 119t58.5 91.5t81.5 57t92.5 20.5q71 0 118 -50t46 -126q0 -67 -22.5 -122.5t-59 -91t-81.5 -54.5t-93 -19q-71 0 -118 50t-46 125zM152 166q0 -29 20.5 -54t48.5 -25q25 0 51 11.5t51 34t41 62.5t16 91q1 34 -21 56t-49 22q-24 0 -50.5 -12.5t-50.5 -36t-40 -63
t-17 -86.5z" />
    <glyph glyph-name="otilde" unicode="&#xf5;" 
d="M301 541q-11 0 -47.5 -26.5t-49.5 -26.5q-17 0 -31 14.5t-14 35.5q1 21 24 40q23 17 36 26.5t42 23.5t50 14q18 0 33 -7.5t21.5 -14.5t16.5 -20q9 -12 10 -12q12 0 49 27t51.5 27t28.5 -14.5t14 -34.5q0 -22 -22 -40q-81 -65 -129 -65q-19 0 -33.5 7.5t-21 14t-16.5 18.5
q-6 13 -12 13zM56 170q1 64 23.5 119t58.5 91.5t81.5 57t92.5 20.5q71 0 118 -50t46 -126q0 -67 -22.5 -122.5t-59 -91t-81.5 -54.5t-93 -19q-71 0 -118 50t-46 125zM152 166q0 -29 20.5 -54t48.5 -25q25 0 51 11.5t51 34t41 62.5t16 91q1 34 -21 56t-49 22
q-24 0 -50.5 -12.5t-50.5 -36t-40 -63t-17 -86.5z" />
    <glyph glyph-name="odieresis" unicode="&#xf6;" 
d="M383 570q0 29 21 50.5t48 21.5q24 0 41.5 -18t17.5 -44q0 -29 -22 -50.5t-49 -21.5q-24 0 -41 18t-16 44zM188 570q0 28 21 50t50 22q24 0 40.5 -17.5t16.5 -43.5q0 -29 -21 -51t-48 -22q-24 0 -42 17.5t-17 44.5zM56 170q1 64 23.5 119t58.5 91.5t81.5 57t92.5 20.5
q71 0 118 -50t46 -126q0 -67 -22.5 -122.5t-59 -91t-81.5 -54.5t-93 -19q-71 0 -118 50t-46 125zM152 166q0 -29 20.5 -54t48.5 -25q25 0 51 11.5t51 34t41 62.5t16 91q1 34 -21 56t-49 22q-24 0 -50.5 -12.5t-50.5 -36t-40 -63t-17 -86.5z" />
    <glyph glyph-name="divide" unicode="&#xf7;" 
d="M98 321q0 18 11.5 33.5t31.5 17.5h288q58 0 58 -51q0 -6 -2 -13t-7 -16.5t-17.5 -15.5t-30.5 -6h-278q-22 0 -35 10t-16 20.5t-3 20.5zM179 144q0 30 23 54.5t53 24.5t47.5 -21t17.5 -47q-1 -31 -24.5 -54.5t-51.5 -23.5q-29 0 -47.5 19.5t-17.5 47.5zM265 487
q0 31 22.5 54.5t53.5 23.5q26 0 45 -19t19 -48q0 -33 -24 -55.5t-52 -22.5q-29 0 -47 19.5t-17 47.5z" />
    <glyph glyph-name="oslash" unicode="&#xf8;" 
d="M8 -90q0 12 5 21t45 67l45 66q-23 48 -22 102q1 72 35 140.5t88 110.5t109 42q31 0 51 -9q23 34 77 114q20 24 39 24q17 0 31.5 -13t13.5 -33q0 -12 -7 -24.5t-51 -75.5v1l-36 -55q22 -40 21 -102q0 -71 -33.5 -139t-88 -111t-111.5 -43q-32 0 -50 9l-46 -66
q-34 -51 -44 -61.5t-26 -10.5t-30.5 12.5t-14.5 33.5zM165 168h-3q-1 -2 3 -14l143 212q-51 -2 -96.5 -64t-46.5 -134zM312 366h-4l16 22l12 -26q-1 0 -3.5 0.5t-3.5 0.5q-9 3 -17 3zM369 297l-144 -211q51 2 97 64t46 134l2 6zM210 63l-9 25q6 -2 20 -2h4z" />
    <glyph glyph-name="ugrave" unicode="&#xf9;" 
d="M33 296q0 11 8.5 35t24.5 53.5t45 51.5t63 22q39 0 63 -27.5t23 -69.5q0 -23 -26 -100q-34 -99 -34 -135q-1 -39 21 -39q11 0 21 5t18.5 16.5t15.5 22.5t14 30t11.5 30.5t10.5 34t8 30.5t7 29q4 12 8.5 31t5.5 24q7 26 9.5 36.5t8 27.5t9 22.5t10 13t14 10t17.5 2.5
q17 0 31 -14t15 -34q0 -4 -2 -14t-3 -13l-65 -257q-3 -19 -3 -23l-1 -9q7 0 21 59q1 2 1 4q3 13 5 18.5t7.5 14.5t14.5 13t21 4h4q20 0 31 -9.5t13 -18t2 -18.5q0 -1 -1.5 -9.5t-5.5 -23.5t-10 -31.5t-16 -33.5t-22 -31t-29 -22.5t-37 -8.5q-45 0 -72 33q-39 -33 -89 -33
q-20 0 -38.5 6t-37 20t-29.5 41t-10 65q0 54 43 175q16 46 17 58q-7 -6 -15 -17q-10 -17 -19 -44q-4 -13 -7 -19.5t-8.5 -14t-14 -10.5t-21.5 -3q-15 0 -25.5 5t-14.5 13.5t-5.5 14t-0.5 11.5zM238 616q1 21 16 37.5t36 16.5q10 0 18.5 -5t53.5 -34v1l41 -27q1 -1 5 -4.5
t7 -7t7 -8.5t6 -11.5t2 -13.5q-1 -19 -18 -38t-37 -19q-8 0 -50 28l-58 39q-29 18 -29 46z" />
    <glyph glyph-name="uacute" unicode="&#xfa;" 
d="M295 561v1q0 12 6.5 21.5t12.5 13.5t16 10h2h-2l47 23q78 40 91 40q19 0 32 -14.5t14 -35.5q0 -34 -37 -52l-66 -32q-62 -33 -71 -33q-24 0 -35 20t-10 38zM33 296q0 11 8.5 35t24.5 53.5t45 51.5t63 22q39 0 63 -27.5t23 -69.5q0 -23 -26 -100q-34 -99 -34 -135
q-1 -39 21 -39q11 0 21 5t18.5 16.5t15.5 22.5t14 30t11.5 30.5t10.5 34t8 30.5t7 29q4 12 8.5 31t5.5 24q7 26 9.5 36.5t8 27.5t9 22.5t10 13t14 10t17.5 2.5q17 0 31 -14t15 -34q0 -4 -2 -14t-3 -13l-65 -257q-3 -19 -3 -23l-1 -9q7 0 21 59q1 2 1 4q3 13 5 18.5t7.5 14.5
t14.5 13t21 4h4q20 0 31 -9.5t13 -18t2 -18.5q0 -1 -1.5 -9.5t-5.5 -23.5t-10 -31.5t-16 -33.5t-22 -31t-29 -22.5t-37 -8.5q-45 0 -72 33q-39 -33 -89 -33q-20 0 -38.5 6t-37 20t-29.5 41t-10 65q0 54 43 175q16 46 17 58q-7 -6 -15 -17q-10 -17 -19 -44q-4 -13 -7 -19.5
t-8.5 -14t-14 -10.5t-21.5 -3q-15 0 -25.5 5t-14.5 13.5t-5.5 14t-0.5 11.5z" />
    <glyph glyph-name="ucircumflex" unicode="&#xfb;" 
d="M267 503q-23 -18 -41 -18q-21 0 -34 19t-13 37q1 20 12.5 30.5t77.5 49.5l75 44q14 9 29 9q9 0 15.5 -4t32.5 -25q12 -10 19 -16l1 1q2 -2 24 -21t33 -27q22 -18 21 -41q0 -18 -17.5 -37t-35.5 -19q-12 0 -20 5.5t-42 37.5l-40 37q-79 -52 -100 -65zM33 296q0 11 8.5 35
t24.5 53.5t45 51.5t63 22q39 0 63 -27.5t23 -69.5q0 -23 -26 -100q-34 -99 -34 -135q-1 -39 21 -39q11 0 21 5t18.5 16.5t15.5 22.5t14 30t11.5 30.5t10.5 34t8 30.5t7 29q4 12 8.5 31t5.5 24q7 26 9.5 36.5t8 27.5t9 22.5t10 13t14 10t17.5 2.5q17 0 31 -14t15 -34
q0 -4 -2 -14t-3 -13l-65 -257q-3 -19 -3 -23l-1 -9q7 0 21 59q1 2 1 4q3 13 5 18.5t7.5 14.5t14.5 13t21 4h4q20 0 31 -9.5t13 -18t2 -18.5q0 -1 -1.5 -9.5t-5.5 -23.5t-10 -31.5t-16 -33.5t-22 -31t-29 -22.5t-37 -8.5q-45 0 -72 33q-39 -33 -89 -33q-20 0 -38.5 6t-37 20
t-29.5 41t-10 65q0 54 43 175q16 46 17 58q-7 -6 -15 -17q-10 -17 -19 -44q-4 -13 -7 -19.5t-8.5 -14t-14 -10.5t-21.5 -3q-15 0 -25.5 5t-14.5 13.5t-5.5 14t-0.5 11.5z" />
    <glyph glyph-name="udieresis" unicode="&#xfc;" 
d="M391 570q0 29 21 50.5t48 21.5q24 0 41.5 -18t17.5 -44q0 -29 -22 -50.5t-49 -21.5q-24 0 -41 18t-16 44zM196 570q0 28 21 50t50 22q24 0 40.5 -17.5t16.5 -43.5q0 -29 -21 -51t-48 -22q-24 0 -42 17.5t-17 44.5zM33 296q0 11 8.5 35t24.5 53.5t45 51.5t63 22
q39 0 63 -27.5t23 -69.5q0 -23 -26 -100q-34 -99 -34 -135q-1 -39 21 -39q11 0 21 5t18.5 16.5t15.5 22.5t14 30t11.5 30.5t10.5 34t8 30.5t7 29q4 12 8.5 31t5.5 24q7 26 9.5 36.5t8 27.5t9 22.5t10 13t14 10t17.5 2.5q17 0 31 -14t15 -34q0 -4 -2 -14t-3 -13l-65 -257
q-3 -19 -3 -23l-1 -9q7 0 21 59q1 2 1 4q3 13 5 18.5t7.5 14.5t14.5 13t21 4h4q20 0 31 -9.5t13 -18t2 -18.5q0 -1 -1.5 -9.5t-5.5 -23.5t-10 -31.5t-16 -33.5t-22 -31t-29 -22.5t-37 -8.5q-45 0 -72 33q-39 -33 -89 -33q-20 0 -38.5 6t-37 20t-29.5 41t-10 65q0 54 43 175
q16 46 17 58q-7 -6 -15 -17q-10 -17 -19 -44q-4 -13 -7 -19.5t-8.5 -14t-14 -10.5t-21.5 -3q-15 0 -25.5 5t-14.5 13.5t-5.5 14t-0.5 11.5z" />
    <glyph glyph-name="yacute" unicode="&#xfd;" 
d="M321 561v1q0 12 6.5 21.5t12.5 13.5t16 10h2h-2l47 23q78 40 91 40q19 0 32 -14.5t14 -35.5q0 -34 -37 -52l-66 -32q-62 -33 -71 -33q-24 0 -35 20t-10 38zM32 296q0 12 10 37t27 54t47.5 50t64.5 21q41 0 67 -29t25 -71q0 -25 -26 -96q-34 -88 -34 -132q-1 -22 8 -32.5
t23 -10.5t26.5 7t23.5 21t20 29t17.5 38.5t14.5 41.5t13 45t10.5 42t9.5 40q12 58 21 74q17 27 44 27q18 0 32 -14t14 -35l-5 -26l-89 -353q-15 -61 -40.5 -107.5t-50.5 -71.5t-54 -40.5t-48.5 -20t-37.5 -4.5q-48 0 -79.5 30t-30.5 79q0 39 19.5 58.5t45.5 19.5
q22 0 37 -14.5t15 -39.5q0 -18 -12 -39q2 -2 11 -2q32 0 66.5 35.5t53.5 95.5q-19 -8 -49 -8q-21 0 -41.5 6t-41 20.5t-32.5 43t-11 67.5q0 54 44 174q17 47 17 54v3q-24 0 -46 -64q-5 -13 -7.5 -19t-8.5 -14t-14.5 -11t-21.5 -3q-28 0 -38 13.5t-9 30.5z" />
    <glyph glyph-name="thorn" unicode="&#xfe;" 
d="M-60 -171q0 18 11 32.5t37 15.5h50l164 657h-24q-21 0 -33 8q-17 15 -17 37q0 9 2.5 18.5t15 20t32.5 10.5h80q6 0 12.5 -1.5t17 -5t17 -13.5t6.5 -25q0 -9 -21 -92l-13 -47q30 14 60 14q58 0 93.5 -47.5t34.5 -120.5q0 -71 -33 -140t-87 -112t-111 -43q-37 0 -63 19
l-34 -137h20q20 0 30 -5q23 -14 23 -39q0 -11 -3 -20.5t-15.5 -19t-33.5 -9.5h-170q-27 0 -37.5 13.5t-10.5 31.5zM207 145q-1 -58 27 -58q48 0 91 66t43 138q1 30 -8.5 51.5t-29.5 21.5q-28 0 -58 -29t-38 -63h1l-17 -63q-11 -47 -11 -64z" />
    <glyph glyph-name="ydieresis" unicode="&#xff;" 
d="M417 570q0 29 21 50.5t48 21.5q24 0 41.5 -18t17.5 -44q0 -29 -22 -50.5t-49 -21.5q-24 0 -41 18t-16 44zM222 570q0 28 21 50t50 22q24 0 40.5 -17.5t16.5 -43.5q0 -29 -21 -51t-48 -22q-24 0 -42 17.5t-17 44.5zM32 296q0 12 10 37t27 54t47.5 50t64.5 21q41 0 67 -29
t25 -71q0 -25 -26 -96q-34 -88 -34 -132q-1 -22 8 -32.5t23 -10.5t26.5 7t23.5 21t20 29t17.5 38.5t14.5 41.5t13 45t10.5 42t9.5 40q12 58 21 74q17 27 44 27q18 0 32 -14t14 -35l-5 -26l-89 -353q-15 -61 -40.5 -107.5t-50.5 -71.5t-54 -40.5t-48.5 -20t-37.5 -4.5
q-48 0 -79.5 30t-30.5 79q0 39 19.5 58.5t45.5 19.5q22 0 37 -14.5t15 -39.5q0 -18 -12 -39q2 -2 11 -2q32 0 66.5 35.5t53.5 95.5q-19 -8 -49 -8q-21 0 -41.5 6t-41 20.5t-32.5 43t-11 67.5q0 54 44 174q17 47 17 54v3q-24 0 -46 -64q-5 -13 -7.5 -19t-8.5 -14t-14.5 -11
t-21.5 -3q-28 0 -38 13.5t-9 30.5z" />
    <glyph glyph-name="Amacron" unicode="&#x100;" 
d="M177 762q0 7 1.5 14t6.5 16t16 15t27 6h424q44 -3 43 -44q0 -10 -2.5 -19.5t-14 -20.5t-30.5 -11h-423q-48 0 -48 44zM62 0h-11t-11.5 1t-11 3t-9.5 5t-6 8.5t-2.5 13t2.5 17.5v2q5 28 35 41q11 3 37 3l239 512q11 22 23.5 33t22 12.5t30.5 1.5q18 0 26.5 -1t17.5 -6
t11.5 -16.5t1.5 -32.5l-15 -503q24 0 32 -5h-2q26 -11 18 -46q-4 -15 -11.5 -24.5t-18 -13t-17.5 -4.5t-18 -1h-96q-11 0 -19 1.5t-18 6.5t-11 15t1 27q6 25 21 34.5t40 9.5q1 13 1 35t1 35h-126q-3 -7 -14 -29.5t-19 -40.5q30 0 36.5 -8t-0.5 -43q-5 -15 -11.5 -24.5
t-17 -13t-17 -4.5t-18.5 -1h-96zM262 258h84q2 33 6 95t7 117z" />
    <glyph glyph-name="amacron" unicode="&#x101;" 
d="M156 562q0 7 1.5 14t6 16.5t15.5 15t27 5.5h233q51 0 51 -46q-1 -50 -51 -50h-236q-27 0 -37.5 14.5t-9.5 30.5zM74 161q1 70 32 139t82 113.5t103 44.5q39 0 75 -31q14 16 35 16q19 0 33.5 -14t14.5 -35q0 -5 -4 -21l-62 -249q0 -4 -4 -11q-2 -6 -2 -14q0 -11 3 -11
q5 0 25 70q3 9 4.5 13t6.5 13t14 13t22 4h4q20 0 31 -9.5t13 -18t2 -18.5q0 -1 -1.5 -9.5t-6 -23.5t-10.5 -31.5t-16 -33.5t-22.5 -31t-30 -22.5t-37.5 -8.5q-47 0 -79 41q-50 -41 -102 -41q-56 0 -90 46.5t-33 119.5zM170 158q0 -26 6.5 -48t23.5 -22q39 0 79 67t41 139
q0 33 -9 51.5t-24 18.5q-25 0 -52 -31.5t-46 -80.5t-19 -94z" />
    <glyph glyph-name="Abreve" unicode="&#x102;" 
d="M259 763q1 67 47 67q23 0 34 -14t10 -30q0 -2 -0.5 -5.5t-0.5 -4.5q-1 -4 -1 -11q0 -15 20 -25t50 -10q37 0 70.5 17t43.5 48l1.5 3l2 4t2.5 4.5t3 5t3.5 4.5t4.5 4.5t5 3.5t6.5 3t7.5 2t9 1q19 0 31.5 -12t11.5 -33q0 -17 -13 -41t-36.5 -49.5t-65 -43t-89.5 -17.5
q-71 0 -114.5 35.5t-42.5 93.5zM62 0h-11t-11.5 1t-11 3t-9.5 5t-6 8.5t-2.5 13t2.5 17.5v2q5 28 35 41q11 3 37 3l239 512q11 22 23.5 33t22 12.5t30.5 1.5q18 0 26.5 -1t17.5 -6t11.5 -16.5t1.5 -32.5l-15 -503q24 0 32 -5h-2q26 -11 18 -46q-4 -15 -11.5 -24.5t-18 -13
t-17.5 -4.5t-18 -1h-96q-11 0 -19 1.5t-18 6.5t-11 15t1 27q6 25 21 34.5t40 9.5q1 13 1 35t1 35h-126q-3 -7 -14 -29.5t-19 -40.5q30 0 36.5 -8t-0.5 -43q-5 -15 -11.5 -24.5t-17 -13t-17 -4.5t-18.5 -1h-96zM262 258h84q2 33 6 95t7 117z" />
    <glyph glyph-name="abreve" unicode="&#x103;" 
d="M152 608q1 25 12.5 43.5t36.5 18.5q19 0 31.5 -13t11.5 -32q0 -1 -0.5 -4t-0.5 -4v-6q0 -17 76 -17q33 0 55 4t33.5 12t16 12.5t10.5 14.5q6 13 9 17t12 9.5t22 5.5q19 0 32 -12.5t12 -32.5q0 -10 -4.5 -23.5t-18.5 -32.5t-35.5 -34.5t-59.5 -26.5t-86 -11t-82.5 10.5
t-51.5 28.5t-24 36t-7 37zM74 161q1 70 32 139t82 113.5t103 44.5q39 0 75 -31q14 16 35 16q19 0 33.5 -14t14.5 -35q0 -5 -4 -21l-62 -249q0 -4 -4 -11q-2 -6 -2 -14q0 -11 3 -11q5 0 25 70q3 9 4.5 13t6.5 13t14 13t22 4h4q20 0 31 -9.5t13 -18t2 -18.5q0 -1 -1.5 -9.5
t-6 -23.5t-10.5 -31.5t-16 -33.5t-22.5 -31t-30 -22.5t-37.5 -8.5q-47 0 -79 41q-50 -41 -102 -41q-56 0 -90 46.5t-33 119.5zM170 158q0 -26 6.5 -48t23.5 -22q39 0 79 67t41 139q0 33 -9 51.5t-24 18.5q-25 0 -52 -31.5t-46 -80.5t-19 -94z" />
    <glyph glyph-name="Aogonek" unicode="&#x104;" 
d="M393 71q1 1 6 5t7 5t6.5 4t9 3.5t9.5 0.5q17 0 30 -12.5t13 -31.5q-1 -22 -21.5 -39t-58.5 -36q-25 -13 -36.5 -19.5t-27 -19t-22.5 -23.5v-6q0 2 3 4t6 2q28 0 67 38l5.5 5.5l5 5t5 4.5t5 4t4 3t4.5 3t5 2t5.5 1.5t5.5 0.5q15 0 30 -14t15 -33q0 -11 -14.5 -31
t-36.5 -39.5t-53.5 -34t-61.5 -14.5q-43 0 -72.5 25.5t-28.5 66.5q0 28 12.5 51t36.5 41t43 29t50 25q8 5 23.5 14t22.5 13zM62 0h-11t-11.5 1t-11 3t-9.5 5t-6 8.5t-2.5 13t2.5 17.5v2q5 28 35 41q11 3 37 3l239 512q11 22 23.5 33t22 12.5t30.5 1.5q18 0 26.5 -1t17.5 -6
t11.5 -16.5t1.5 -32.5l-15 -503q24 0 32 -5h-2q26 -11 18 -46q-4 -15 -11.5 -24.5t-18 -13t-17.5 -4.5t-18 -1h-96q-11 0 -19 1.5t-18 6.5t-11 15t1 27q6 25 21 34.5t40 9.5q1 13 1 35t1 35h-126q-3 -7 -14 -29.5t-19 -40.5q30 0 36.5 -8t-0.5 -43q-5 -15 -11.5 -24.5
t-17 -13t-17 -4.5t-18.5 -1h-96zM262 258h84q2 33 6 95t7 117z" />
    <glyph glyph-name="aogonek" unicode="&#x105;" 
d="M401 71q1 1 6 5t7 5t6.5 4t9 3.5t9.5 0.5q17 0 30 -12.5t13 -31.5q-1 -22 -21.5 -39t-58.5 -36q-25 -13 -36.5 -19.5t-27 -19t-22.5 -23.5v-6q0 2 3 4t6 2q28 0 67 38l5.5 5.5l5 5t5 4.5t5 4t4 3t4.5 3t5 2t5.5 1.5t5.5 0.5q15 0 30 -14t15 -33q0 -11 -14.5 -31
t-36.5 -39.5t-53.5 -34t-61.5 -14.5q-43 0 -72.5 25.5t-28.5 66.5q0 28 12.5 51t36.5 41t43 29t50 25q8 5 23.5 14t22.5 13zM74 161q1 70 32 139t82 113.5t103 44.5q39 0 75 -31q14 16 35 16q19 0 33.5 -14t14.5 -35q0 -5 -4 -21l-62 -249q0 -4 -4 -11q-2 -6 -2 -14
q0 -11 3 -11q5 0 25 70q3 9 4.5 13t6.5 13t14 13t22 4h4q20 0 31 -9.5t13 -18t2 -18.5q0 -1 -1.5 -9.5t-6 -23.5t-10.5 -31.5t-16 -33.5t-22.5 -31t-30 -22.5t-37.5 -8.5q-47 0 -79 41q-50 -41 -102 -41q-56 0 -90 46.5t-33 119.5zM170 158q0 -26 6.5 -48t23.5 -22
q39 0 79 67t41 139q0 33 -9 51.5t-24 18.5q-25 0 -52 -31.5t-46 -80.5t-19 -94z" />
    <glyph glyph-name="Cacute" unicode="&#x106;" 
d="M371 722q0 32 36 47l73 29q49 20 61 20q20 0 33 -15t13 -33q0 -13 -4 -22.5t-13 -16.5t-16.5 -10.5t-22.5 -9.5h-2l-63 -26q-38 -17 -53 -17q-23 0 -33 17t-9 37zM409 558q-35 0 -74.5 -26.5t-73 -69.5t-56 -104t-23.5 -124q-1 -68 27 -109t72 -41q21 0 45 8t52 34.5
t41 66.5q13 41 55 41h9.5t11 -1.5t10.5 -5t8 -9.5t3.5 -15.5t-3.5 -22.5q-19 -75 -92 -132.5t-159 -57.5q-81 0 -131 63t-48 166q0 50 14 104l-1 3q35 138 129.5 232t193.5 94q62 0 109 -39l14 18q20 21 42 21q17 0 26 -5.5t10.5 -16.5t0.5 -19t-4 -20h1q-5 -23 -18 -69
q-12 -47 -18 -69q-4 -14 -6 -20.5t-8.5 -16t-17 -13.5t-26.5 -4q-22 0 -32 7.5t-10 18.5v24q5 51 -16 80t-57 29z" />
    <glyph glyph-name="cacute" unicode="&#x107;" 
d="M285 561v1q0 12 6.5 21.5t12.5 13.5t16 10h2h-2l47 23q78 40 91 40q19 0 32 -14.5t14 -35.5q0 -34 -37 -52l-66 -32q-62 -33 -71 -33q-24 0 -35 20t-10 38zM55 175q1 69 37 134.5t95.5 107t122.5 41.5q55 0 91 -30t35 -78q0 -39 -20 -58t-44 -19q-22 0 -37.5 16t-15.5 39
q0 17 9 32q-10 4 -20 4q-55 0 -105.5 -60t-51.5 -130q0 -14 3 -27.5t10.5 -27.5t23 -23t38.5 -9q99 0 141 38q20 15 33 15q17 0 32.5 -17.5t16.5 -35.5q0 -22 -21 -40q-28 -24 -67.5 -36t-66 -14t-69.5 -2q-40 0 -71 12t-49 30.5t-30 43.5t-16 48t-4 46z" />
    <glyph glyph-name="Ccircumflex" unicode="&#x108;" 
d="M270 696q0 17 12.5 28.5t56.5 38.5l75 49q33 23 48 23q12 0 23 -8t34 -31l25 -24q44 -41 51.5 -51t7.5 -25q0 -19 -17.5 -36.5t-34.5 -17.5q-13 0 -24.5 9.5t-56.5 57.5l-17 17q-5 -4 -14.5 -9.5t-14.5 -8.5q-70 -50 -83.5 -58t-24.5 -8q-21 0 -33.5 18t-12.5 36z
M409 558q-35 0 -74.5 -26.5t-73 -69.5t-56 -104t-23.5 -124q-1 -68 27 -109t72 -41q21 0 45 8t52 34.5t41 66.5q13 41 55 41h9.5t11 -1.5t10.5 -5t8 -9.5t3.5 -15.5t-3.5 -22.5q-19 -75 -92 -132.5t-159 -57.5q-81 0 -131 63t-48 166q0 50 14 104l-1 3q35 138 129.5 232
t193.5 94q62 0 109 -39l14 18q20 21 42 21q17 0 26 -5.5t10.5 -16.5t0.5 -19t-4 -20h1q-5 -23 -18 -69q-12 -47 -18 -69q-4 -14 -6 -20.5t-8.5 -16t-17 -13.5t-26.5 -4q-22 0 -32 7.5t-10 18.5v24q5 51 -16 80t-57 29z" />
    <glyph glyph-name="ccircumflex" unicode="&#x109;" 
d="M257 503q-23 -18 -41 -18q-21 0 -34 19t-13 37q1 20 12.5 30.5t77.5 49.5l75 44q14 9 29 9q9 0 15.5 -4t32.5 -25q12 -10 19 -16l1 1q2 -2 24 -21t33 -27q22 -18 21 -41q0 -18 -17.5 -37t-35.5 -19q-12 0 -20 5.5t-42 37.5l-40 37q-79 -52 -100 -65zM55 175
q1 69 37 134.5t95.5 107t122.5 41.5q55 0 91 -30t35 -78q0 -39 -20 -58t-44 -19q-22 0 -37.5 16t-15.5 39q0 17 9 32q-10 4 -20 4q-55 0 -105.5 -60t-51.5 -130q0 -14 3 -27.5t10.5 -27.5t23 -23t38.5 -9q99 0 141 38q20 15 33 15q17 0 32.5 -17.5t16.5 -35.5q0 -22 -21 -40
q-28 -24 -67.5 -36t-66 -14t-69.5 -2q-40 0 -71 12t-49 30.5t-30 43.5t-16 48t-4 46z" />
    <glyph glyph-name="Cdotaccent" unicode="&#x10a;" 
d="M381 714q0 28 21.5 49t45.5 21t41 -17t17 -44q-1 -27 -21 -48t-47 -21q-24 0 -41 17t-16 43zM409 558q-35 0 -74.5 -26.5t-73 -69.5t-56 -104t-23.5 -124q-1 -68 27 -109t72 -41q21 0 45 8t52 34.5t41 66.5q13 41 55 41h9.5t11 -1.5t10.5 -5t8 -9.5t3.5 -15.5t-3.5 -22.5
q-19 -75 -92 -132.5t-159 -57.5q-81 0 -131 63t-48 166q0 50 14 104l-1 3q35 138 129.5 232t193.5 94q62 0 109 -39l14 18q20 21 42 21q17 0 26 -5.5t10.5 -16.5t0.5 -19t-4 -20h1q-5 -23 -18 -69q-12 -47 -18 -69q-4 -14 -6 -20.5t-8.5 -16t-17 -13.5t-26.5 -4
q-22 0 -32 7.5t-10 18.5v24q5 51 -16 80t-57 29z" />
    <glyph glyph-name="cdotaccent" unicode="&#x10b;" 
d="M283 570q0 29 21.5 50.5t48.5 21.5q24 0 41 -18t17 -44q0 -29 -22 -50.5t-48 -21.5q-24 0 -41.5 18t-16.5 44zM55 175q1 69 37 134.5t95.5 107t122.5 41.5q55 0 91 -30t35 -78q0 -39 -20 -58t-44 -19q-22 0 -37.5 16t-15.5 39q0 17 9 32q-10 4 -20 4q-55 0 -105.5 -60
t-51.5 -130q0 -14 3 -27.5t10.5 -27.5t23 -23t38.5 -9q99 0 141 38q20 15 33 15q17 0 32.5 -17.5t16.5 -35.5q0 -22 -21 -40q-28 -24 -67.5 -36t-66 -14t-69.5 -2q-40 0 -71 12t-49 30.5t-30 43.5t-16 48t-4 46z" />
    <glyph glyph-name="Ccaron" unicode="&#x10c;" 
d="M300 771q0 18 13.5 31.5t33.5 13.5q6 0 13 -4t25.5 -23.5t46.5 -56.5q11 9 33 24t29 21q5 4 13 10q27 21 34 25t17 4q17 0 29.5 -13.5t12.5 -31.5q0 -21 -23 -41q-67 -55 -98.5 -79t-40 -28.5t-16.5 -4.5q-15 0 -24 8.5t-31 38.5q-17 25 -42 57q-25 31 -25 49zM409 558
q-35 0 -74.5 -26.5t-73 -69.5t-56 -104t-23.5 -124q-1 -68 27 -109t72 -41q21 0 45 8t52 34.5t41 66.5q13 41 55 41h9.5t11 -1.5t10.5 -5t8 -9.5t3.5 -15.5t-3.5 -22.5q-19 -75 -92 -132.5t-159 -57.5q-81 0 -131 63t-48 166q0 50 14 104l-1 3q35 138 129.5 232t193.5 94
q62 0 109 -39l14 18q20 21 42 21q17 0 26 -5.5t10.5 -16.5t0.5 -19t-4 -20h1q-5 -23 -18 -69q-12 -47 -18 -69q-4 -14 -6 -20.5t-8.5 -16t-17 -13.5t-26.5 -4q-22 0 -32 7.5t-10 18.5v24q5 51 -16 80t-57 29z" />
    <glyph glyph-name="ccaron" unicode="&#x10d;" 
d="M200 623q1 17 13.5 32t30.5 15q13 0 26 -10t44 -44l23 -22q29 18 51 35q3 2 8 5q53 36 67 36q17 0 30.5 -14t12.5 -32q0 -25 -26 -44l-72 -52q-9 -6 -19.5 -14t-16 -11.5t-11.5 -8t-9 -6t-6.5 -3.5t-6 -2.5t-5.5 -1t-6 -0.5q-15 0 -36 19l-37 42q-36 40 -45.5 53.5
t-9.5 27.5zM55 175q1 69 37 134.5t95.5 107t122.5 41.5q55 0 91 -30t35 -78q0 -39 -20 -58t-44 -19q-22 0 -37.5 16t-15.5 39q0 17 9 32q-10 4 -20 4q-55 0 -105.5 -60t-51.5 -130q0 -14 3 -27.5t10.5 -27.5t23 -23t38.5 -9q99 0 141 38q20 15 33 15q17 0 32.5 -17.5
t16.5 -35.5q0 -22 -21 -40q-28 -24 -67.5 -36t-66 -14t-69.5 -2q-40 0 -71 12t-49 30.5t-30 43.5t-16 48t-4 46z" />
    <glyph glyph-name="Dcaron" unicode="&#x10e;" 
d="M237 771q0 18 13.5 31.5t33.5 13.5q6 0 13 -4t25.5 -23.5t46.5 -56.5q11 9 33 24t29 21q5 4 13 10q27 21 34 25t17 4q17 0 29.5 -13.5t12.5 -31.5q0 -21 -23 -41q-67 -55 -98.5 -79t-40 -28.5t-16.5 -4.5q-15 0 -24 8.5t-31 38.5q-17 25 -42 57q-25 31 -25 49zM53 0
h-10.5t-10.5 1t-10.5 3t-8.5 5.5t-6.5 8.5t-1.5 13t3 18l-1 1q3 16 10 26t17.5 13.5t16.5 4t17 0.5h8q19 76 56.5 226.5t56.5 226.5q-57 0 -46 50q17 45 63 45h195q78 0 119.5 -62t40.5 -158q-1 -48 -15 -110q-33 -129 -117 -220.5t-181 -91.5h-195zM175 94h70
q66 0 123.5 69t80.5 157q11 46 12 85q1 62 -22.5 102t-71.5 40h-78q-18 -70 -55.5 -219t-58.5 -234z" />
    <glyph glyph-name="dcaron" unicode="&#x10f;" 
d="M231 807q1 17 13.5 32t30.5 15q13 0 26 -10t44 -44l23 -22q29 18 51 35q3 2 8 5q53 36 67 36q17 0 30.5 -14t12.5 -32q0 -25 -26 -44l-72 -52q-9 -6 -19.5 -14t-16 -11.5t-11.5 -8t-9 -6t-6.5 -3.5t-6 -2.5t-5.5 -1t-6 -0.5q-15 0 -36 19l-37 42q-36 40 -45.5 53.5
t-9.5 27.5zM55 161q1 69 37 139t91.5 114t107.5 44q37 0 68 -24q20 78 25 100h-25q-28 0 -38 14t-10 31q0 11 3 20.5t15.5 19t32.5 9.5h85q48 0 48 -44q0 -9 -4 -22l-112 -444q-2 -11 -2 -19l1 -11q5 0 13 21.5t15.5 46t10.5 29.5q17 16 36 16q27 0 38 -14.5t11 -31.5
q0 -3 -3 -17.5t-12.5 -39.5t-22.5 -47.5t-36 -39t-51 -16.5q-24 0 -45 12t-34 30q-50 -42 -101 -42q-61 0 -102 41.5t-40 124.5zM152 158q-1 -32 12.5 -51t35.5 -19q38 0 78 66t41 140q0 33 -8.5 51.5t-23.5 18.5q-25 0 -57 -31.5t-55 -80.5t-23 -94z" />
    <glyph glyph-name="Dcroat" unicode="&#x110;" 
d="M10 46q0 50 52 50h7l44 173q-37 6 -36 44q0 50 50 50h11l46 183q-38 4 -38 47q0 20 13 34.5t37 14.5h172q15 0 27.5 -2.5t29.5 -10t32 -26t26 -45.5q20 -56 19 -119q-1 -103 -42 -205t-107 -168t-134 -66h-160q-21 0 -33 9.5t-14.5 18.5t-1.5 18zM401 424q0 21 -2.5 40
t-8.5 39t-20 31.5t-33 11.5h-53q-26 -104 -46 -183h54q24 0 36.5 -13t12.5 -33q0 -6 -1.5 -12.5t-6 -16t-16 -15t-28.5 -5.5h-74q-5 -22 -13.5 -55.5t-15.5 -61t-14 -55.5h42q28 0 53 16q51 42 92 132t42 180z" />
    <glyph glyph-name="dcroat" unicode="&#x111;" 
d="M75 161q1 69 31.5 137t79.5 112.5t101 46.5q-17 11 -17 37q0 10 3 19.5t15 19t32 9.5h10q-17 15 -17 37q0 7 1.5 14t6 15.5t15.5 14t26 5.5h86q28 0 38 -14.5t10 -29.5q0 -13 -9 -42q49 0 49 -44q-1 -49 -50 -49h-23l-1 -4q-4 -18 -5 -26l-72 -292l-5 -10q-2 -9 -2 -17
l1 -12q9 0 23 54q4 17 7 25t9 17.5t15 13t23 3.5q27 0 37 -14.5t10 -30.5q0 -7 -6.5 -30t-20 -54t-39.5 -54t-59 -23q-24 0 -45 12t-34 30q-50 -42 -101 -42q-56 0 -90 46.5t-33 119.5zM365 449h-32q14 -5 28 -16zM171 158q0 -26 6.5 -48t23.5 -22q39 0 78.5 67t40.5 139
q0 33 -8.5 51.5t-23.5 18.5q-25 0 -52 -31.5t-46 -80.5t-19 -94z" />
    <glyph glyph-name="Emacron" unicode="&#x112;" 
d="M179 762q0 7 1.5 14t6.5 16t16 15t27 6h424q44 -3 43 -44q0 -10 -2.5 -19.5t-14 -20.5t-30.5 -11h-423q-48 0 -48 44zM15 50q0 4 3 7q4 13 11 21.5t17 11.5t16 3.5t16 0.5h15q17 70 55 219t59 234h-8h-11t-10.5 1t-10.5 3t-8.5 5.5t-6.5 9t-2 14t3 18.5q4 16 11 25.5
t17.5 13t16.5 4.5t17 1h354q35 0 43 -14t-2 -48l-18 -73q-3 -13 -5.5 -20t-9 -16t-17.5 -13t-27 -4q-15 0 -24 4t-13 8.5t-4 15.5t1 15.5t4 18.5q0 7 8 31h-200q-37 -152 -41 -168h90q9 36 19 46.5t41 10.5q15 0 24.5 -4t13.5 -9t4 -15t-1.5 -16l-4.5 -18h1
q-3 -15 -11.5 -46t-12.5 -47q-2 -11 -5 -19t-9 -16.5t-17 -13t-27 -4.5q-24 0 -33 7.5t-9 28.5q0 12 2 21h-90q-7 -30 -23 -91t-25 -100h219q11 40 14 56q3 13 5.5 20t9 16t17.5 13.5t27 4.5q15 0 24.5 -4t13.5 -9t4 -15t-1 -16t-4 -18h1l-23 -88q-8 -32 -20.5 -43
t-42.5 -11h-375h-10t-10.5 1t-10.5 3t-8.5 5.5t-6.5 9t-2 13.5t3 18z" />
    <glyph glyph-name="emacron" unicode="&#x113;" 
d="M178 562q0 7 1.5 14t6 16.5t15.5 15t27 5.5h233q51 0 51 -46q-1 -50 -51 -50h-236q-27 0 -37.5 14.5t-9.5 30.5zM56 177q1 72 38.5 137.5t96.5 104.5t119 39q55 0 93 -33.5t37 -85.5q0 -26 -13.5 -54t-32.5 -47q-65 -54 -233 -54h-10q0 -2 0.5 -4.5t0.5 -4.5
q0 -34 16.5 -61t56.5 -27q45 0 77 7.5t41.5 13t21.5 16.5q23 16 37 16q16 0 31.5 -17.5t15.5 -35.5q0 -23 -31.5 -46t-67.5 -34q-47 -12 -125 -12q-40 0 -70.5 12t-49 31t-30 44t-15.5 48.5t-4 46.5zM307 364q-32 0 -66.5 -25t-58.5 -63q160 3 161 62q0 12 -9.5 19t-26.5 7z
M171 253l-15 23h26q-6 -11 -11 -23z" />
    <glyph glyph-name="Ebreve" unicode="&#x114;" 
d="M261 763q1 67 47 67q23 0 34 -14t10 -30q0 -2 -0.5 -5.5t-0.5 -4.5q-1 -4 -1 -11q0 -15 20 -25t50 -10q37 0 70.5 17t43.5 48l1.5 3l2 4t2.5 4.5t3 5t3.5 4.5t4.5 4.5t5 3.5t6.5 3t7.5 2t9 1q19 0 31.5 -12t11.5 -33q0 -17 -13 -41t-36.5 -49.5t-65 -43t-89.5 -17.5
q-71 0 -114.5 35.5t-42.5 93.5zM15 50q0 4 3 7q4 13 11 21.5t17 11.5t16 3.5t16 0.5h15q17 70 55 219t59 234h-8h-11t-10.5 1t-10.5 3t-8.5 5.5t-6.5 9t-2 14t3 18.5q4 16 11 25.5t17.5 13t16.5 4.5t17 1h354q35 0 43 -14t-2 -48l-18 -73q-3 -13 -5.5 -20t-9 -16t-17.5 -13
t-27 -4q-15 0 -24 4t-13 8.5t-4 15.5t1 15.5t4 18.5q0 7 8 31h-200q-37 -152 -41 -168h90q9 36 19 46.5t41 10.5q15 0 24.5 -4t13.5 -9t4 -15t-1.5 -16l-4.5 -18h1q-3 -15 -11.5 -46t-12.5 -47q-2 -11 -5 -19t-9 -16.5t-17 -13t-27 -4.5q-24 0 -33 7.5t-9 28.5q0 12 2 21
h-90q-7 -30 -23 -91t-25 -100h219q11 40 14 56q3 13 5.5 20t9 16t17.5 13.5t27 4.5q15 0 24.5 -4t13.5 -9t4 -15t-1 -16t-4 -18h1l-23 -88q-8 -32 -20.5 -43t-42.5 -11h-375h-10t-10.5 1t-10.5 3t-8.5 5.5t-6.5 9t-2 13.5t3 18z" />
    <glyph glyph-name="ebreve" unicode="&#x115;" 
d="M174 608q1 25 12.5 43.5t36.5 18.5q19 0 31.5 -13t11.5 -32q0 -1 -0.5 -4t-0.5 -4v-6q0 -17 76 -17q33 0 55 4t33.5 12t16 12.5t10.5 14.5q6 13 9 17t12 9.5t22 5.5q19 0 32 -12.5t12 -32.5q0 -10 -4.5 -23.5t-18.5 -32.5t-35.5 -34.5t-59.5 -26.5t-86 -11t-82.5 10.5
t-51.5 28.5t-24 36t-7 37zM56 177q1 72 38.5 137.5t96.5 104.5t119 39q55 0 93 -33.5t37 -85.5q0 -26 -13.5 -54t-32.5 -47q-65 -54 -233 -54h-10q0 -2 0.5 -4.5t0.5 -4.5q0 -34 16.5 -61t56.5 -27q45 0 77 7.5t41.5 13t21.5 16.5q23 16 37 16q16 0 31.5 -17.5t15.5 -35.5
q0 -23 -31.5 -46t-67.5 -34q-47 -12 -125 -12q-40 0 -70.5 12t-49 31t-30 44t-15.5 48.5t-4 46.5zM307 364q-32 0 -66.5 -25t-58.5 -63q160 3 161 62q0 12 -9.5 19t-26.5 7zM171 253l-15 23h26q-6 -11 -11 -23z" />
    <glyph glyph-name="Edotaccent" unicode="&#x116;" 
d="M365 714q0 28 21.5 49t45.5 21t41 -17t17 -44q-1 -27 -21 -48t-47 -21q-24 0 -41 17t-16 43zM15 50q0 4 3 7q4 13 11 21.5t17 11.5t16 3.5t16 0.5h15q17 70 55 219t59 234h-8h-11t-10.5 1t-10.5 3t-8.5 5.5t-6.5 9t-2 14t3 18.5q4 16 11 25.5t17.5 13t16.5 4.5t17 1h354
q35 0 43 -14t-2 -48l-18 -73q-3 -13 -5.5 -20t-9 -16t-17.5 -13t-27 -4q-15 0 -24 4t-13 8.5t-4 15.5t1 15.5t4 18.5q0 7 8 31h-200q-37 -152 -41 -168h90q9 36 19 46.5t41 10.5q15 0 24.5 -4t13.5 -9t4 -15t-1.5 -16l-4.5 -18h1q-3 -15 -11.5 -46t-12.5 -47q-2 -11 -5 -19
t-9 -16.5t-17 -13t-27 -4.5q-24 0 -33 7.5t-9 28.5q0 12 2 21h-90q-7 -30 -23 -91t-25 -100h219q11 40 14 56q3 13 5.5 20t9 16t17.5 13.5t27 4.5q15 0 24.5 -4t13.5 -9t4 -15t-1 -16t-4 -18h1l-23 -88q-8 -32 -20.5 -43t-42.5 -11h-375h-10t-10.5 1t-10.5 3t-8.5 5.5
t-6.5 9t-2 13.5t3 18z" />
    <glyph glyph-name="edotaccent" unicode="&#x117;" 
d="M283 570q0 29 21.5 50.5t48.5 21.5q24 0 41 -18t17 -44q0 -29 -22 -50.5t-48 -21.5q-24 0 -41.5 18t-16.5 44zM56 177q1 72 38.5 137.5t96.5 104.5t119 39q55 0 93 -33.5t37 -85.5q0 -26 -13.5 -54t-32.5 -47q-65 -54 -233 -54h-10q0 -2 0.5 -4.5t0.5 -4.5
q0 -34 16.5 -61t56.5 -27q45 0 77 7.5t41.5 13t21.5 16.5q23 16 37 16q16 0 31.5 -17.5t15.5 -35.5q0 -23 -31.5 -46t-67.5 -34q-47 -12 -125 -12q-40 0 -70.5 12t-49 31t-30 44t-15.5 48.5t-4 46.5zM307 364q-32 0 -66.5 -25t-58.5 -63q160 3 161 62q0 12 -9.5 19t-26.5 7z
M171 253l-15 23h26q-6 -11 -11 -23z" />
    <glyph glyph-name="Eogonek" unicode="&#x118;" 
d="M256 71q1 1 6 5t7 5t6.5 4t9 3.5t9.5 0.5q17 0 30 -12.5t13 -31.5q-1 -22 -21.5 -39t-58.5 -36q-25 -13 -36.5 -19.5t-27 -19t-22.5 -23.5v-6q0 2 3 4t6 2q28 0 67 38l5.5 5.5l5 5t5 4.5t5 4t4 3t4.5 3t5 2t5.5 1.5t5.5 0.5q15 0 30 -14t15 -33q0 -11 -14.5 -31
t-36.5 -39.5t-53.5 -34t-61.5 -14.5q-43 0 -72.5 25.5t-28.5 66.5q0 28 12.5 51t36.5 41t43 29t50 25q8 5 23.5 14t22.5 13zM15 50q0 4 3 7q4 13 11 21.5t17 11.5t16 3.5t16 0.5h15q17 70 55 219t59 234h-8h-11t-10.5 1t-10.5 3t-8.5 5.5t-6.5 9t-2 14t3 18.5q4 16 11 25.5
t17.5 13t16.5 4.5t17 1h354q35 0 43 -14t-2 -48l-18 -73q-3 -13 -5.5 -20t-9 -16t-17.5 -13t-27 -4q-15 0 -24 4t-13 8.5t-4 15.5t1 15.5t4 18.5q0 7 8 31h-200q-37 -152 -41 -168h90q9 36 19 46.5t41 10.5q15 0 24.5 -4t13.5 -9t4 -15t-1.5 -16l-4.5 -18h1
q-3 -15 -11.5 -46t-12.5 -47q-2 -11 -5 -19t-9 -16.5t-17 -13t-27 -4.5q-24 0 -33 7.5t-9 28.5q0 12 2 21h-90q-7 -30 -23 -91t-25 -100h219q11 40 14 56q3 13 5.5 20t9 16t17.5 13.5t27 4.5q15 0 24.5 -4t13.5 -9t4 -15t-1 -16t-4 -18h1l-23 -88q-8 -32 -20.5 -43
t-42.5 -11h-375h-10t-10.5 1t-10.5 3t-8.5 5.5t-6.5 9t-2 13.5t3 18z" />
    <glyph glyph-name="eogonek" unicode="&#x119;" 
d="M238 71q1 1 6 5t7 5t6.5 4t9 3.5t9.5 0.5q17 0 30 -12.5t13 -31.5q-1 -22 -21.5 -39t-58.5 -36q-25 -13 -36.5 -19.5t-27 -19t-22.5 -23.5v-6q0 2 3 4t6 2q28 0 67 38l5.5 5.5l5 5t5 4.5t5 4t4 3t4.5 3t5 2t5.5 1.5t5.5 0.5q15 0 30 -14t15 -33q0 -11 -14.5 -31
t-36.5 -39.5t-53.5 -34t-61.5 -14.5q-43 0 -72.5 25.5t-28.5 66.5q0 28 12.5 51t36.5 41t43 29t50 25q8 5 23.5 14t22.5 13zM56 177q1 72 38.5 137.5t96.5 104.5t119 39q55 0 93 -33.5t37 -85.5q0 -26 -13.5 -54t-32.5 -47q-65 -54 -233 -54h-10q0 -2 0.5 -4.5t0.5 -4.5
q0 -34 16.5 -61t56.5 -27q45 0 77 7.5t41.5 13t21.5 16.5q23 16 37 16q16 0 31.5 -17.5t15.5 -35.5q0 -23 -31.5 -46t-67.5 -34q-47 -12 -125 -12q-40 0 -70.5 12t-49 31t-30 44t-15.5 48.5t-4 46.5zM307 364q-32 0 -66.5 -25t-58.5 -63q160 3 161 62q0 12 -9.5 19t-26.5 7z
M171 253l-15 23h26q-6 -11 -11 -23z" />
    <glyph glyph-name="Ecaron" unicode="&#x11a;" 
d="M284 771q0 18 13.5 31.5t33.5 13.5q6 0 13 -4t25.5 -23.5t46.5 -56.5q11 9 33 24t29 21q5 4 13 10q27 21 34 25t17 4q17 0 29.5 -13.5t12.5 -31.5q0 -21 -23 -41q-67 -55 -98.5 -79t-40 -28.5t-16.5 -4.5q-15 0 -24 8.5t-31 38.5q-17 25 -42 57q-25 31 -25 49zM15 50
q0 4 3 7q4 13 11 21.5t17 11.5t16 3.5t16 0.5h15q17 70 55 219t59 234h-8h-11t-10.5 1t-10.5 3t-8.5 5.5t-6.5 9t-2 14t3 18.5q4 16 11 25.5t17.5 13t16.5 4.5t17 1h354q35 0 43 -14t-2 -48l-18 -73q-3 -13 -5.5 -20t-9 -16t-17.5 -13t-27 -4q-15 0 -24 4t-13 8.5t-4 15.5
t1 15.5t4 18.5q0 7 8 31h-200q-37 -152 -41 -168h90q9 36 19 46.5t41 10.5q15 0 24.5 -4t13.5 -9t4 -15t-1.5 -16l-4.5 -18h1q-3 -15 -11.5 -46t-12.5 -47q-2 -11 -5 -19t-9 -16.5t-17 -13t-27 -4.5q-24 0 -33 7.5t-9 28.5q0 12 2 21h-90q-7 -30 -23 -91t-25 -100h219
q11 40 14 56q3 13 5.5 20t9 16t17.5 13.5t27 4.5q15 0 24.5 -4t13.5 -9t4 -15t-1 -16t-4 -18h1l-23 -88q-8 -32 -20.5 -43t-42.5 -11h-375h-10t-10.5 1t-10.5 3t-8.5 5.5t-6.5 9t-2 13.5t3 18z" />
    <glyph glyph-name="ecaron" unicode="&#x11b;" 
d="M200 623q1 17 13.5 32t30.5 15q13 0 26 -10t44 -44l23 -22q29 18 51 35q3 2 8 5q53 36 67 36q17 0 30.5 -14t12.5 -32q0 -25 -26 -44l-72 -52q-9 -6 -19.5 -14t-16 -11.5t-11.5 -8t-9 -6t-6.5 -3.5t-6 -2.5t-5.5 -1t-6 -0.5q-15 0 -36 19l-37 42q-36 40 -45.5 53.5
t-9.5 27.5zM56 177q1 72 38.5 137.5t96.5 104.5t119 39q55 0 93 -33.5t37 -85.5q0 -26 -13.5 -54t-32.5 -47q-65 -54 -233 -54h-10q0 -2 0.5 -4.5t0.5 -4.5q0 -34 16.5 -61t56.5 -27q45 0 77 7.5t41.5 13t21.5 16.5q23 16 37 16q16 0 31.5 -17.5t15.5 -35.5q0 -23 -31.5 -46
t-67.5 -34q-47 -12 -125 -12q-40 0 -70.5 12t-49 31t-30 44t-15.5 48.5t-4 46.5zM307 364q-32 0 -66.5 -25t-58.5 -63q160 3 161 62q0 12 -9.5 19t-26.5 7zM171 253l-15 23h26q-6 -11 -11 -23z" />
    <glyph glyph-name="Gcircumflex" unicode="&#x11c;" 
d="M250 696q0 17 12.5 28.5t56.5 38.5l75 49q33 23 48 23q12 0 23 -8t34 -31l25 -24q44 -41 51.5 -51t7.5 -25q0 -19 -17.5 -36.5t-34.5 -17.5q-13 0 -24.5 9.5t-56.5 57.5l-17 17q-5 -4 -14.5 -9.5t-14.5 -8.5q-70 -50 -83.5 -58t-24.5 -8q-21 0 -33.5 18t-12.5 36zM95 326
q0 4 2 4q36 137 125 229.5t180 92.5q57 0 95 -36q14 20 25.5 28t28.5 8t26 -5.5t10.5 -16.5t0.5 -19t-4 -20h1q-6 -28 -21 -83q-10 -37 -15 -55q-4 -14 -6 -20.5t-8.5 -16t-17 -13.5t-26.5 -4q-27 0 -35.5 12.5t-5.5 34.5q5 60 -14.5 86t-45.5 26q-54 0 -113.5 -69
t-84.5 -173q-12 -42 -12 -90q-1 -64 22 -103t60 -39q32 0 65 31t58 93h-16h-10t-10.5 1t-10.5 3t-8.5 5.5t-6 9t-1.5 14t3 18.5q4 16 11 25.5t17 13t16 4t17 0.5h113q58 0 45 -50q-11 -42 -56 -44l-38 -154q-3 -12 -5.5 -19.5t-8.5 -16.5t-17 -13.5t-27 -4.5q-39 0 -44 22
q-49 -32 -105 -32q-75 0 -120 61.5t-43 162.5q0 53 15 112z" />
    <glyph glyph-name="gcircumflex" unicode="&#x11d;" 
d="M266 503q-23 -18 -41 -18q-21 0 -34 19t-13 37q1 20 12.5 30.5t77.5 49.5l75 44q14 9 29 9q9 0 15.5 -4t32.5 -25q12 -10 19 -16l1 1q2 -2 24 -21t33 -27q22 -18 21 -41q0 -18 -17.5 -37t-35.5 -19q-12 0 -20 5.5t-42 37.5l-40 37q-79 -52 -100 -65zM15 -143
q1 27 18 47.5t44 20.5q23 0 37.5 -13.5t15.5 -38.5q8 -1 26 -1q78 0 112 63q6 8 23 84q-34 -19 -71 -19q-62 0 -100 48.5t-37 122.5q1 69 33.5 135.5t86 109t109.5 42.5q49 0 87 -34q15 19 38 19q19 0 32.5 -13t13.5 -35q0 -1 -1 -5t-1 -7q0 -4 -1 -9l-103 -415v3
q-3 -4 -3 -8q-6 -30 -15 -52q-24 -51 -77.5 -87.5t-122.5 -36.5l-4 2q-17 0 -29.5 0.5t-31 2.5t-30.5 7t-24.5 13.5t-18.5 22t-6 31.5zM179 169q0 -34 11.5 -55t31.5 -21q45 0 88 62t43 133q1 35 -10.5 55.5t-32.5 20.5q-44 0 -87 -61.5t-44 -133.5z" />
    <glyph glyph-name="Gbreve" unicode="&#x11e;" 
d="M257 763q1 67 47 67q23 0 34 -14t10 -30q0 -2 -0.5 -5.5t-0.5 -4.5q-1 -4 -1 -11q0 -15 20 -25t50 -10q37 0 70.5 17t43.5 48l1.5 3l2 4t2.5 4.5t3 5t3.5 4.5t4.5 4.5t5 3.5t6.5 3t7.5 2t9 1q19 0 31.5 -12t11.5 -33q0 -17 -13 -41t-36.5 -49.5t-65 -43t-89.5 -17.5
q-71 0 -114.5 35.5t-42.5 93.5zM95 326q0 4 2 4q36 137 125 229.5t180 92.5q57 0 95 -36q14 20 25.5 28t28.5 8t26 -5.5t10.5 -16.5t0.5 -19t-4 -20h1q-6 -28 -21 -83q-10 -37 -15 -55q-4 -14 -6 -20.5t-8.5 -16t-17 -13.5t-26.5 -4q-27 0 -35.5 12.5t-5.5 34.5
q5 60 -14.5 86t-45.5 26q-54 0 -113.5 -69t-84.5 -173q-12 -42 -12 -90q-1 -64 22 -103t60 -39q32 0 65 31t58 93h-16h-10t-10.5 1t-10.5 3t-8.5 5.5t-6 9t-1.5 14t3 18.5q4 16 11 25.5t17 13t16 4t17 0.5h113q58 0 45 -50q-11 -42 -56 -44l-38 -154q-3 -12 -5.5 -19.5
t-8.5 -16.5t-17 -13.5t-27 -4.5q-39 0 -44 22q-49 -32 -105 -32q-75 0 -120 61.5t-43 162.5q0 53 15 112z" />
    <glyph glyph-name="gbreve" unicode="&#x11f;" 
d="M183 608q1 25 12.5 43.5t36.5 18.5q19 0 31.5 -13t11.5 -32q0 -1 -0.5 -4t-0.5 -4v-6q0 -17 76 -17q33 0 55 4t33.5 12t16 12.5t10.5 14.5q6 13 9 17t12 9.5t22 5.5q19 0 32 -12.5t12 -32.5q0 -10 -4.5 -23.5t-18.5 -32.5t-35.5 -34.5t-59.5 -26.5t-86 -11t-82.5 10.5
t-51.5 28.5t-24 36t-7 37zM15 -143q1 27 18 47.5t44 20.5q23 0 37.5 -13.5t15.5 -38.5q8 -1 26 -1q78 0 112 63q6 8 23 84q-34 -19 -71 -19q-62 0 -100 48.5t-37 122.5q1 69 33.5 135.5t86 109t109.5 42.5q49 0 87 -34q15 19 38 19q19 0 32.5 -13t13.5 -35q0 -1 -1 -5t-1 -7
q0 -4 -1 -9l-103 -415v3q-3 -4 -3 -8q-6 -30 -15 -52q-24 -51 -77.5 -87.5t-122.5 -36.5l-4 2q-17 0 -29.5 0.5t-31 2.5t-30.5 7t-24.5 13.5t-18.5 22t-6 31.5zM179 169q0 -34 11.5 -55t31.5 -21q45 0 88 62t43 133q1 35 -10.5 55.5t-32.5 20.5q-44 0 -87 -61.5t-44 -133.5z
" />
    <glyph glyph-name="Gdotaccent" unicode="&#x120;" 
d="M361 714q0 28 21.5 49t45.5 21t41 -17t17 -44q-1 -27 -21 -48t-47 -21q-24 0 -41 17t-16 43zM95 326q0 4 2 4q36 137 125 229.5t180 92.5q57 0 95 -36q14 20 25.5 28t28.5 8t26 -5.5t10.5 -16.5t0.5 -19t-4 -20h1q-6 -28 -21 -83q-10 -37 -15 -55q-4 -14 -6 -20.5
t-8.5 -16t-17 -13.5t-26.5 -4q-27 0 -35.5 12.5t-5.5 34.5q5 60 -14.5 86t-45.5 26q-54 0 -113.5 -69t-84.5 -173q-12 -42 -12 -90q-1 -64 22 -103t60 -39q32 0 65 31t58 93h-16h-10t-10.5 1t-10.5 3t-8.5 5.5t-6 9t-1.5 14t3 18.5q4 16 11 25.5t17 13t16 4t17 0.5h113
q58 0 45 -50q-11 -42 -56 -44l-38 -154q-3 -12 -5.5 -19.5t-8.5 -16.5t-17 -13.5t-27 -4.5q-39 0 -44 22q-49 -32 -105 -32q-75 0 -120 61.5t-43 162.5q0 53 15 112z" />
    <glyph glyph-name="gdotaccent" unicode="&#x121;" 
d="M292 570q0 29 21.5 50.5t48.5 21.5q24 0 41 -18t17 -44q0 -29 -22 -50.5t-48 -21.5q-24 0 -41.5 18t-16.5 44zM15 -143q1 27 18 47.5t44 20.5q23 0 37.5 -13.5t15.5 -38.5q8 -1 26 -1q78 0 112 63q6 8 23 84q-34 -19 -71 -19q-62 0 -100 48.5t-37 122.5q1 69 33.5 135.5
t86 109t109.5 42.5q49 0 87 -34q15 19 38 19q19 0 32.5 -13t13.5 -35q0 -1 -1 -5t-1 -7q0 -4 -1 -9l-103 -415v3q-3 -4 -3 -8q-6 -30 -15 -52q-24 -51 -77.5 -87.5t-122.5 -36.5l-4 2q-17 0 -29.5 0.5t-31 2.5t-30.5 7t-24.5 13.5t-18.5 22t-6 31.5zM179 169q0 -34 11.5 -55
t31.5 -21q45 0 88 62t43 133q1 35 -10.5 55.5t-32.5 20.5q-44 0 -87 -61.5t-44 -133.5z" />
    <glyph glyph-name="Hcircumflex" unicode="&#x124;" 
d="M252 696q0 17 12.5 28.5t56.5 38.5l75 49q33 23 48 23q12 0 23 -8t34 -31l25 -24q44 -41 51.5 -51t7.5 -25q0 -19 -17.5 -36.5t-34.5 -17.5q-13 0 -24.5 9.5t-56.5 57.5l-17 17q-5 -4 -14.5 -9.5t-14.5 -8.5q-70 -50 -83.5 -58t-24.5 -8q-21 0 -33.5 18t-12.5 36zM12 50
q3 16 10 25.5t17 13.5t16.5 4.5t16.5 0.5h11q17 70 55 219t59 234h-3q-57 0 -46 50q17 45 62 45h113q6 0 9.5 -0.5l10.5 -1.5t10.5 -2.5t8 -5.5t6 -9.5t2 -13.5t-2.5 -19q-4 -15 -11 -24.5t-17 -13t-16.5 -4.5t-16.5 -1h-12q-23 -91 -41 -167h169q22 91 41 167h-3h-11
t-10.5 1t-10.5 3t-8.5 5.5t-6 9t-1.5 14t2 18.5q4 16 11.5 25.5t17.5 13t16 4.5t17 1h113q6 0 10 -0.5t10.5 -1.5t10.5 -2.5t8.5 -5.5t6 -9.5t1.5 -13.5t-3 -19q-4 -15 -11 -24.5t-17 -13t-16 -4.5t-16 -1h-11q-18 -70 -55.5 -219t-58.5 -234h3h10.5t10.5 -1t11 -2.5
t8.5 -5.5t6 -9.5t1.5 -13.5t-2 -19q-5 -15 -12 -24.5t-17 -13t-16.5 -4.5t-16.5 -1h-113h-10.5t-10.5 1t-10.5 3t-8 5.5t-6 9t-1.5 14t3 18.5q3 16 10 25.5t17 13t16.5 4t16.5 0.5h13q7 27 21.5 89.5t24.5 102.5h-168q-6 -25 -48 -192h4h10.5t10.5 -1t10.5 -2.5t8 -5.5
t6 -9.5t1.5 -13.5t-2 -19q-4 -15 -11 -24.5t-17 -13t-16.5 -4.5t-16.5 -1h-113h-10.5t-10.5 1t-10.5 3t-8 5.5t-6.5 9t-1.5 13.5t3.5 18z" />
    <glyph glyph-name="hcircumflex" unicode="&#x125;" 
d="M287 687q-23 -18 -41 -18q-21 0 -34 19t-13 37q1 20 12.5 30.5t77.5 49.5l75 44q14 9 29 9q9 0 15.5 -4t32.5 -25q12 -10 19 -16l1 1q2 -2 24 -21t33 -27q22 -18 21 -41q0 -18 -17.5 -37t-35.5 -19q-12 0 -20 5.5t-42 37.5l-40 37q-79 -52 -100 -65zM38 44q0 12 5 27v1
l108 429l-1 -1q1 11 7 34h-23q-21 0 -33 8q-17 15 -17 37q0 9 2.5 18.5t15 20t32.5 10.5h81h6.5t12 -2.5t15.5 -7t12.5 -13.5t5.5 -22v-6t-0.5 -5t-2.5 -9.5t-4 -14.5t-6 -25.5t-9 -37.5l-12 -47q38 20 80 20q54 0 85 -32t30 -89q-1 -49 -46 -183q-20 -59 -20 -62.5t-2 -3.5
q5 0 16 12q17 23 26 52q5 14 7 20t8 14t14 11.5t20 3.5h3q20 0 31 -9.5t13.5 -18t2.5 -18.5q0 -12 -10 -37t-27 -53.5t-46.5 -49t-62.5 -20.5q-40 0 -64.5 28t-24.5 69q0 23 29 105q37 102 37 140q0 28 -22 28q-21 0 -41 -13.5t-36.5 -39t-29.5 -52.5t-25 -63.5t-19 -61
t-15 -56.5q-13 -49 -16 -54q-17 -30 -45 -30q-19 0 -32.5 14t-12.5 35z" />
    <glyph glyph-name="Itilde" unicode="&#x128;" 
d="M370 732q-19 0 -53.5 -30.5t-52.5 -30.5q-16 0 -30 14.5t-13 32.5q0 13 5.5 21.5t18.5 21.5q73 69 130 69q18 0 35 -7t26.5 -14t23.5 -19q24 -21 36 -21q3 0 6.5 0.5t7 2t6.5 2.5t7 4t6.5 4.5t7 5t6.5 4.5t6.5 5t6.5 5h-1q0 1 4.5 4.5t5.5 4.5t4.5 3.5t4.5 3.5t4 3.5t5 3
t5 2t5 2t4.5 1t5.5 0.5q14 0 28.5 -15t13.5 -33q0 -10 -4 -19t-7 -12.5t-11 -11.5q-72 -68 -132 -68q-18 0 -36 7t-26.5 13.5t-24.5 19.5q-27 21 -34 21zM66 51q3 16 10.5 25.5t17.5 13t16.5 4t16.5 0.5h89q17 70 55 219t59 234h-81h-10.5t-11 1t-10.5 3t-9 5.5t-6 9t-2 14
t2 18.5q4 16 11.5 25.5t17.5 13t16.5 4.5t17.5 1h270q6 0 10 -0.5t10.5 -1.5t10.5 -2.5t8.5 -5.5t6.5 -9t2 -13.5t-3 -19.5q-4 -15 -11 -24.5t-17 -13t-16.5 -4.5t-16.5 -1h-89q-18 -70 -55.5 -219t-58.5 -234h81h10.5t10.5 -1t11 -2.5t8.5 -5.5t6 -9.5t1.5 -13.5t-2 -19
q-4 -15 -11 -24.5t-17.5 -13t-17 -4.5t-16.5 -1h-270h-10.5t-10.5 1t-10.5 3t-8.5 5.5t-6.5 9t-1.5 14t3 18.5z" />
    <glyph glyph-name="itilde" unicode="&#x129;" 
d="M309 541q-11 0 -47.5 -26.5t-49.5 -26.5q-17 0 -31 14.5t-14 35.5q1 21 24 40q23 17 36 26.5t42 23.5t50 14q18 0 33 -7.5t21.5 -14.5t16.5 -20q9 -12 10 -12q12 0 49 27t51.5 27t28.5 -14.5t14 -34.5q0 -22 -22 -40q-81 -65 -129 -65q-19 0 -33.5 7.5t-21 14t-16.5 18.5
q-6 13 -12 13zM91 297v1q1 20 14 46.5t33.5 52t52 43.5t64.5 18q45 0 76 -29t30 -74v-5q0 -19 -52 -146q-40 -101 -40 -107q0 -9 11 -9q18 0 37 20.5t29 47.5q3 13 7 21t15 16t27 8q20 0 34 -11t14 -35q0 -15 -12 -40.5t-31.5 -53t-52.5 -47t-69 -19.5q-43 0 -74.5 28
t-31.5 74q0 4 1 10t3 14.5t4 15t6 18t6.5 18t8 20t8 20t8.5 21.5l8 20q38 94 38 102t-11 8q-20 0 -38 -20.5t-26 -47.5q-1 -1 -1.5 -2.5l-0.5 -1.5q-10 -29 -25 -36q-10 -4 -24 -4q-27 0 -37 14t-9 31z" />
    <glyph glyph-name="Imacron" unicode="&#x12a;" 
d="M177 762q0 7 1.5 14t6.5 16t16 15t27 6h424q44 -3 43 -44q0 -10 -2.5 -19.5t-14 -20.5t-30.5 -11h-423q-48 0 -48 44zM66 51q3 16 10.5 25.5t17.5 13t16.5 4t16.5 0.5h89q17 70 55 219t59 234h-81h-10.5t-11 1t-10.5 3t-9 5.5t-6 9t-2 14t2 18.5q4 16 11.5 25.5t17.5 13
t16.5 4.5t17.5 1h270q6 0 10 -0.5t10.5 -1.5t10.5 -2.5t8.5 -5.5t6.5 -9t2 -13.5t-3 -19.5q-4 -15 -11 -24.5t-17 -13t-16.5 -4.5t-16.5 -1h-89q-18 -70 -55.5 -219t-58.5 -234h81h10.5t10.5 -1t11 -2.5t8.5 -5.5t6 -9.5t1.5 -13.5t-2 -19q-4 -15 -11 -24.5t-17.5 -13
t-17 -4.5t-16.5 -1h-270h-10.5t-10.5 1t-10.5 3t-8.5 5.5t-6.5 9t-1.5 14t3 18.5z" />
    <glyph glyph-name="imacron" unicode="&#x12b;" 
d="M188 562q0 7 1.5 14t6 16.5t15.5 15t27 5.5h233q51 0 51 -46q-1 -50 -51 -50h-236q-27 0 -37.5 14.5t-9.5 30.5zM91 297v1q1 20 14 46.5t33.5 52t52 43.5t64.5 18q45 0 76 -29t30 -74v-5q0 -19 -52 -146q-40 -101 -40 -107q0 -9 11 -9q18 0 37 20.5t29 47.5q3 13 7 21
t15 16t27 8q20 0 34 -11t14 -35q0 -15 -12 -40.5t-31.5 -53t-52.5 -47t-69 -19.5q-43 0 -74.5 28t-31.5 74q0 4 1 10t3 14.5t4 15t6 18t6.5 18t8 20t8 20t8.5 21.5l8 20q38 94 38 102t-11 8q-20 0 -38 -20.5t-26 -47.5q-1 -1 -1.5 -2.5l-0.5 -1.5q-10 -29 -25 -36
q-10 -4 -24 -4q-27 0 -37 14t-9 31z" />
    <glyph glyph-name="Ibreve" unicode="&#x12c;" 
d="M259 763q1 67 47 67q23 0 34 -14t10 -30q0 -2 -0.5 -5.5t-0.5 -4.5q-1 -4 -1 -11q0 -15 20 -25t50 -10q37 0 70.5 17t43.5 48l1.5 3l2 4t2.5 4.5t3 5t3.5 4.5t4.5 4.5t5 3.5t6.5 3t7.5 2t9 1q19 0 31.5 -12t11.5 -33q0 -17 -13 -41t-36.5 -49.5t-65 -43t-89.5 -17.5
q-71 0 -114.5 35.5t-42.5 93.5zM66 51q3 16 10.5 25.5t17.5 13t16.5 4t16.5 0.5h89q17 70 55 219t59 234h-81h-10.5t-11 1t-10.5 3t-9 5.5t-6 9t-2 14t2 18.5q4 16 11.5 25.5t17.5 13t16.5 4.5t17.5 1h270q6 0 10 -0.5t10.5 -1.5t10.5 -2.5t8.5 -5.5t6.5 -9t2 -13.5
t-3 -19.5q-4 -15 -11 -24.5t-17 -13t-16.5 -4.5t-16.5 -1h-89q-18 -70 -55.5 -219t-58.5 -234h81h10.5t10.5 -1t11 -2.5t8.5 -5.5t6 -9.5t1.5 -13.5t-2 -19q-4 -15 -11 -24.5t-17.5 -13t-17 -4.5t-16.5 -1h-270h-10.5t-10.5 1t-10.5 3t-8.5 5.5t-6.5 9t-1.5 14t3 18.5z" />
    <glyph glyph-name="ibreve" unicode="&#x12d;" 
d="M184 608q1 25 12.5 43.5t36.5 18.5q19 0 31.5 -13t11.5 -32q0 -1 -0.5 -4t-0.5 -4v-6q0 -17 76 -17q33 0 55 4t33.5 12t16 12.5t10.5 14.5q6 13 9 17t12 9.5t22 5.5q19 0 32 -12.5t12 -32.5q0 -10 -4.5 -23.5t-18.5 -32.5t-35.5 -34.5t-59.5 -26.5t-86 -11t-82.5 10.5
t-51.5 28.5t-24 36t-7 37zM91 297v1q1 20 14 46.5t33.5 52t52 43.5t64.5 18q45 0 76 -29t30 -74v-5q0 -19 -52 -146q-40 -101 -40 -107q0 -9 11 -9q18 0 37 20.5t29 47.5q3 13 7 21t15 16t27 8q20 0 34 -11t14 -35q0 -15 -12 -40.5t-31.5 -53t-52.5 -47t-69 -19.5
q-43 0 -74.5 28t-31.5 74q0 4 1 10t3 14.5t4 15t6 18t6.5 18t8 20t8 20t8.5 21.5l8 20q38 94 38 102t-11 8q-20 0 -38 -20.5t-26 -47.5q-1 -1 -1.5 -2.5l-0.5 -1.5q-10 -29 -25 -36q-10 -4 -24 -4q-27 0 -37 14t-9 31z" />
    <glyph glyph-name="Idotaccent" unicode="&#x130;" 
d="M363 714q0 28 21.5 49t45.5 21t41 -17t17 -44q-1 -27 -21 -48t-47 -21q-24 0 -41 17t-16 43zM66 51q3 16 10.5 25.5t17.5 13t16.5 4t16.5 0.5h89q17 70 55 219t59 234h-81h-10.5t-11 1t-10.5 3t-9 5.5t-6 9t-2 14t2 18.5q4 16 11.5 25.5t17.5 13t16.5 4.5t17.5 1h270
q6 0 10 -0.5t10.5 -1.5t10.5 -2.5t8.5 -5.5t6.5 -9t2 -13.5t-3 -19.5q-4 -15 -11 -24.5t-17 -13t-16.5 -4.5t-16.5 -1h-89q-18 -70 -55.5 -219t-58.5 -234h81h10.5t10.5 -1t11 -2.5t8.5 -5.5t6 -9.5t1.5 -13.5t-2 -19q-4 -15 -11 -24.5t-17.5 -13t-17 -4.5t-16.5 -1h-270
h-10.5t-10.5 1t-10.5 3t-8.5 5.5t-6.5 9t-1.5 14t3 18.5z" />
    <glyph glyph-name="dotlessi" unicode="&#x131;" 
d="M91 297v1q1 20 14 46.5t33.5 52t52 43.5t64.5 18q45 0 76 -29t30 -74v-5q0 -19 -52 -146q-40 -101 -40 -107q0 -9 11 -9q18 0 37 20.5t29 47.5q3 13 7 21t15 16t27 8q20 0 34 -11t14 -35q0 -15 -12 -40.5t-31.5 -53t-52.5 -47t-69 -19.5q-43 0 -74.5 28t-31.5 74
q0 4 1 10t3 14.5t4 15t6 18t6.5 18t8 20t8 20t8.5 21.5l8 20q38 94 38 102t-11 8q-20 0 -38 -20.5t-26 -47.5q-1 -1 -1.5 -2.5l-0.5 -1.5q-10 -29 -25 -36q-10 -4 -24 -4q-27 0 -37 14t-9 31z" />
    <glyph glyph-name="IJ" unicode="&#x132;" 
d="M3 46q0 20 11 35t40 15h6l113 451q-34 6 -34 45q1 50 51 50h95q27 0 37 -15t10 -32q0 -19 -11.5 -34t-39.5 -15h-6q-114 -449 -115 -452q36 -6 36 -45q-1 -18 -12 -33.5t-40 -15.5h-94q-28 0 -38 14t-9 32zM173 97q1 46 21.5 64.5t44.5 18.5t39.5 -16t14.5 -41
q0 -19 -11 -36q11 7 22 27t17 42l98 390q-46 1 -46 46q0 10 3 19.5t15 20t33 10.5h93q25 0 36 -14.5t11 -32.5q0 -47 -44 -49q-19 -79 -55 -221.5t-45 -179.5q-19 -72 -61.5 -113.5t-87.5 -41.5q-44 0 -71 30.5t-27 76.5z" />
    <glyph glyph-name="ij" unicode="&#x133;" 
d="M33 296q0 11 8.5 35t24 53.5t44 51.5t61.5 22q38 0 61.5 -27t22.5 -69v-7q0 -19 -40.5 -133t-43.5 -128q16 17 28 56q3 14 5.5 21t8.5 15t15.5 11.5t23.5 3.5q45 0 45 -45q0 -12 -9 -37t-25 -53.5t-44 -49.5t-61 -21q-38 0 -60.5 26.5t-22.5 68.5v8q0 19 40 132t43 127
q-22 -27 -26 -56q-4 -14 -6.5 -20.5t-8.5 -14.5t-15.5 -11t-24.5 -3q-19 1 -30 10.5t-13 17.5t-1 16zM139 -144q1 30 19.5 49.5t43.5 19.5q18 0 32 -10t19 -27q1 1 2 1q16 20 26.5 43t22.5 68l85 338h-1q3 13 3 19v7q-30 -2 -60 -78q-7 -18 -17 -26t-29 -8q-49 0 -48 44
q0 10 11 35t30 54t51 51t66 22q42 0 67.5 -29.5t24.5 -75.5q0 -19 -4 -36q0 -1 -0.5 -3.5t-0.5 -3.5l-85 -334q-13 -51 -32.5 -89t-38.5 -57.5t-41 -32t-36 -15t-28 -2.5q-34 0 -58 21t-24 55zM194 564q0 27 19 45.5t41 18.5q23 0 38.5 -16t15.5 -40q0 -25 -19.5 -44.5
t-41.5 -19.5q-20 0 -37 16t-16 40zM430 564q0 24 18 44t42 20q21 0 37.5 -16t16.5 -40q0 -25 -19 -44.5t-42 -19.5q-22 0 -38 16.5t-15 39.5z" />
    <glyph glyph-name="Jcircumflex" unicode="&#x134;" 
d="M362 696q0 17 12.5 28.5t56.5 38.5l75 49q33 23 48 23q12 0 23 -8t34 -31l25 -24q44 -41 51.5 -51t7.5 -25q0 -19 -17.5 -36.5t-34.5 -17.5q-13 0 -24.5 9.5t-56.5 57.5l-17 17q-5 -4 -14.5 -9.5t-14.5 -8.5q-70 -50 -83.5 -58t-24.5 -8q-21 0 -33.5 18t-12.5 36zM75 120
q7 29 27 44.5t43 15.5q26 0 39 -19.5t6 -46.5q0 -1 -7 -18q17 -12 53 -12q10 0 20.5 2t28 8.5t32 23.5t20.5 43h1l98 386h-58h-11t-10.5 1t-10.5 3t-8.5 5.5t-6.5 9t-2 14t3 18.5q4 16 11 25.5t17.5 13t16.5 4.5t17 1h172q57 0 45 -51q-8 -24 -26 -34t-36 -10h-15
q-17 -67 -51 -200.5t-50 -200.5q-18 -71 -80 -113.5t-134 -42.5q-79 0 -118.5 36.5t-25.5 93.5z" />
    <glyph glyph-name="jcircumflex" unicode="&#x135;" 
d="M370 503q-23 -18 -41 -18q-21 0 -34 19t-13 37q1 20 12.5 30.5t77.5 49.5l75 44q14 9 29 9q9 0 15.5 -4t32.5 -25q12 -10 19 -16l1 1q2 -2 24 -21t33 -27q22 -18 21 -41q0 -18 -17.5 -37t-35.5 -19q-12 0 -20 5.5t-42 37.5l-40 37q-79 -52 -100 -65zM36 -143
q1 29 18.5 48.5t43.5 19.5q23 0 38.5 -15.5t15.5 -37.5q11 0 22 4.5t26.5 16.5t30 40t24.5 68q16 66 46.5 187.5t34.5 138.5q5 17 5 23q0 14 -18 14q-23 0 -47.5 -21.5t-39.5 -51.5v-2q-12 -37 -46 -37h-4q-40 0 -46 36q-2 16 12.5 44t38.5 56.5t61 49t74 20.5
q48 0 80 -30.5t31 -78.5q0 -19 -3 -36l-85 -333q-13 -54 -36.5 -94.5t-51.5 -62.5t-56 -32.5t-57 -10.5q-113 0 -112 77z" />
    <glyph glyph-name="Lacute" unicode="&#x139;" 
d="M351 722q0 32 36 47l73 29q49 20 61 20q20 0 33 -15t13 -33q0 -13 -4 -22.5t-13 -16.5t-16.5 -10.5t-22.5 -9.5h-2l-63 -26q-38 -17 -53 -17q-23 0 -33 17t-9 37zM64 0h-10.5t-10.5 1t-10 3t-8.5 5.5t-6 8.5t-2.5 13t3 18v1q3 16 10 25.5t17 13.5t16 4.5t17 0.5h22
q17 70 55 219t59 234h-14q-57 0 -46 50q17 45 62 45h153q6 0 9.5 -0.5t11 -1.5t10.5 -2.5t9 -5.5t6.5 -9.5t2.5 -13.5t-3 -19q-11 -43 -62 -43h-40q-18 -70 -55.5 -219t-58.5 -234h195q2 10 7 28.5t7 27.5q3 14 5.5 21t8.5 16t17.5 13t27.5 4t25.5 -4t13.5 -9t4 -14.5
t-1.5 -16t-4.5 -18.5h1l-22 -88q-9 -33 -21.5 -43.5t-42.5 -10.5h-356z" />
    <glyph glyph-name="lacute" unicode="&#x13a;" 
d="M304 745v1q0 12 6.5 21.5t12.5 13.5t16 10h2h-2l47 23q78 40 91 40q19 0 32 -14.5t14 -35.5q0 -34 -37 -52l-66 -32q-62 -33 -71 -33q-24 0 -35 20t-10 38zM254 105q0 -8 11 -13t22 -5q29 0 52 78l1 5q6 14 14.5 21t15.5 8.5t19 1.5q24 0 34.5 -15t10.5 -31
q0 -10 -9 -34.5t-26 -53.5t-47 -50.5t-66 -21.5q-55 0 -92.5 30.5t-37.5 78.5q0 20 9 44l3 14l53 212l40 160h-69q-49 0 -48 45q0 21 12 35t39 14h127q48 0 48 -45q0 -8 -2 -18l-112 -447l-1 -5q-1 -4 -1 -8z" />
    <glyph glyph-name="Lcaron" unicode="&#x13d;" 
d="M280 771q0 18 13.5 31.5t33.5 13.5q6 0 13 -4t25.5 -23.5t46.5 -56.5q11 9 33 24t29 21q5 4 13 10q27 21 34 25t17 4q17 0 29.5 -13.5t12.5 -31.5q0 -21 -23 -41q-67 -55 -98.5 -79t-40 -28.5t-16.5 -4.5q-15 0 -24 8.5t-31 38.5q-17 25 -42 57q-25 31 -25 49zM64 0
h-10.5t-10.5 1t-10 3t-8.5 5.5t-6 8.5t-2.5 13t3 18v1q3 16 10 25.5t17 13.5t16 4.5t17 0.5h22q17 70 55 219t59 234h-14q-57 0 -46 50q17 45 62 45h153q6 0 9.5 -0.5t11 -1.5t10.5 -2.5t9 -5.5t6.5 -9.5t2.5 -13.5t-3 -19q-11 -43 -62 -43h-40q-18 -70 -55.5 -219
t-58.5 -234h195q2 10 7 28.5t7 27.5q3 14 5.5 21t8.5 16t17.5 13t27.5 4t25.5 -4t13.5 -9t4 -14.5t-1.5 -16t-4.5 -18.5h1l-22 -88q-9 -33 -21.5 -43.5t-42.5 -10.5h-356z" />
    <glyph glyph-name="lcaron" unicode="&#x13e;" 
d="M219 807q1 17 13.5 32t30.5 15q13 0 26 -10t44 -44l23 -22q29 18 51 35q3 2 8 5q53 36 67 36q17 0 30.5 -14t12.5 -32q0 -25 -26 -44l-72 -52q-9 -6 -19.5 -14t-16 -11.5t-11.5 -8t-9 -6t-6.5 -3.5t-6 -2.5t-5.5 -1t-6 -0.5q-15 0 -36 19l-37 42q-36 40 -45.5 53.5
t-9.5 27.5zM254 105q0 -8 11 -13t22 -5q29 0 52 78l1 5q6 14 14.5 21t15.5 8.5t19 1.5q24 0 34.5 -15t10.5 -31q0 -10 -9 -34.5t-26 -53.5t-47 -50.5t-66 -21.5q-55 0 -92.5 30.5t-37.5 78.5q0 20 9 44l3 14l53 212l40 160h-69q-49 0 -48 45q0 21 12 35t39 14h127
q48 0 48 -45q0 -8 -2 -18l-112 -447l-1 -5q-1 -4 -1 -8z" />
    <glyph glyph-name="Lslash" unicode="&#x141;" 
d="M18 46q0 50 53 50h18l36 142q-19 1 -30.5 16t-11.5 34q1 17 10 26.5t43 31.5l19 13l48 187q-50 0 -50 46q1 50 54 50h134q28 0 38.5 -14t10.5 -33q0 -49 -52 -49h-34l-28 -105q1 0 2.5 1l1.5 1q47 31 62 31q18 0 30 -15.5t12 -33.5t-14.5 -30.5t-74.5 -52.5
q-9 -6 -26 -17t-26 -17l-54 -212h141q9 35 14.5 53.5t10 31.5t12 17t13 5.5t19.5 1.5q28 0 38 -14.5t10 -29.5q0 -9 -13 -56h1l-13 -56q-4 -15 -5.5 -20t-7 -14t-15 -12t-25.5 -3h-305q-26 0 -36.5 15t-9.5 31z" />
    <glyph glyph-name="lslash" unicode="&#x142;" 
d="M91 269q0 18 10 28t54 38q1 1 19.5 12.5t27.5 17.5q16 13 19 14l38 155h-67q-50 0 -49 45q0 21 12 35t39 14h128q26 0 36.5 -14t10.5 -31q0 -16 -29 -126l22 14q30 21 38.5 25.5t18.5 4.5q18 0 30 -15t11 -32q0 -6 -0.5 -10t-2 -8t-2.5 -6t-4.5 -5.5t-4.5 -4t-5.5 -4
l-4.5 -3.5l-64 -42q-43 -30 -54 -38t-12 -13l-0.5 -2t-0.5 -3l-31 -123q-21 -84 -21 -86q0 -10 11.5 -14.5t22.5 -4.5q4 0 8 1.5t7.5 5l6.5 6.5t6.5 9t5.5 10t5 11t4 10l3.5 10.5t3.5 9.5q4 15 8 20q14 21 41 21q19 0 33 -11.5t14 -33.5q0 -12 -9 -36.5t-26 -53.5t-47 -50
t-65 -21q-51 0 -90.5 28.5t-39.5 81.5q0 10 19 88l14 56q-43 -29 -55 -29q-14 0 -28.5 14.5t-14.5 34.5z" />
    <glyph glyph-name="Nacute" unicode="&#x143;" 
d="M353 722q0 32 36 47l73 29q49 20 61 20q20 0 33 -15t13 -33q0 -13 -4 -22.5t-13 -16.5t-16.5 -10.5t-22.5 -9.5h-2l-63 -26q-38 -17 -53 -17q-23 0 -33 17t-9 37zM17 51q4 16 11 25.5t17 13t16.5 4t16.5 0.5h10q17 70 55 219t59 234h-3h-10.5t-10.5 1t-10.5 3t-8 5.5
t-6 9t-1.5 14t2 18.5q4 16 11 25.5t17.5 13t16.5 4.5t17 1h64q28 0 41 -10t17 -41q20 -197 41 -403q8 31 40.5 158.5t50.5 200.5h-3q-56 0 -45 50q8 24 26 34.5t36 10.5h100q6 0 10 -0.5t11 -1.5t10.5 -2.5t8 -5.5t6 -9.5t2 -13.5t-2.5 -19q-4 -15 -11 -24.5t-17.5 -13
t-16.5 -4.5t-16 -1h-11l-124 -493q-9 -35 -22.5 -44.5t-43.5 -9.5q-29 0 -42.5 9t-16.5 41l-41 406q-13 -54 -44 -174t-48 -188h3h10.5t10.5 -1t11 -2.5t8.5 -5.5t6 -9.5t1.5 -13.5t-2 -19q-5 -15 -12 -24.5t-17 -13t-16.5 -4.5t-16.5 -1h-100h-10.5t-10.5 1t-10.5 3t-8 5.5
t-6.5 9t-2 14t3 18.5z" />
    <glyph glyph-name="nacute" unicode="&#x144;" 
d="M294 561v1q0 12 6.5 21.5t12.5 13.5t16 10h2h-2l47 23q78 40 91 40q19 0 32 -14.5t14 -35.5q0 -34 -37 -52l-66 -32q-62 -33 -71 -33q-24 0 -35 20t-10 38zM375 96q5 4 9.5 11.5t9 17.5t7 17t6 19t4.5 15q15 25 41 25q28 0 38.5 -14t10.5 -32q0 -10 -8.5 -34t-24 -53
t-44 -51t-62.5 -22q-38 0 -61 26.5t-23 68.5q0 24 29 106q37 113 37 144q0 24 -14 24q-18 0 -35.5 -13t-32.5 -38.5t-26.5 -50.5t-23.5 -62.5t-18.5 -60t-15.5 -56.5q-15 -57 -20 -65q-15 -23 -40 -23q-18 0 -33 14t-14 35q0 11 5 23l65 262q5 18 5 26q-7 -15 -15 -51
q-1 -2 -1 -4q-4 -12 -6 -17.5t-7.5 -14.5t-14.5 -12.5t-22 -3.5q-48 0 -47 44q0 3 2.5 17.5t11 40t20.5 48t34 39.5t49 17q49 0 76 -43q47 43 107 43q50 0 79 -31.5t28 -88.5q0 -43 -45 -184z" />
    <glyph glyph-name="Ncaron" unicode="&#x147;" 
d="M282 771q0 18 13.5 31.5t33.5 13.5q6 0 13 -4t25.5 -23.5t46.5 -56.5q11 9 33 24t29 21q5 4 13 10q27 21 34 25t17 4q17 0 29.5 -13.5t12.5 -31.5q0 -21 -23 -41q-67 -55 -98.5 -79t-40 -28.5t-16.5 -4.5q-15 0 -24 8.5t-31 38.5q-17 25 -42 57q-25 31 -25 49zM17 51
q4 16 11 25.5t17 13t16.5 4t16.5 0.5h10q17 70 55 219t59 234h-3h-10.5t-10.5 1t-10.5 3t-8 5.5t-6 9t-1.5 14t2 18.5q4 16 11 25.5t17.5 13t16.5 4.5t17 1h64q28 0 41 -10t17 -41q20 -197 41 -403q8 31 40.5 158.5t50.5 200.5h-3q-56 0 -45 50q8 24 26 34.5t36 10.5h100
q6 0 10 -0.5t11 -1.5t10.5 -2.5t8 -5.5t6 -9.5t2 -13.5t-2.5 -19q-4 -15 -11 -24.5t-17.5 -13t-16.5 -4.5t-16 -1h-11l-124 -493q-9 -35 -22.5 -44.5t-43.5 -9.5q-29 0 -42.5 9t-16.5 41l-41 406q-13 -54 -44 -174t-48 -188h3h10.5t10.5 -1t11 -2.5t8.5 -5.5t6 -9.5
t1.5 -13.5t-2 -19q-5 -15 -12 -24.5t-17 -13t-16.5 -4.5t-16.5 -1h-100h-10.5t-10.5 1t-10.5 3t-8 5.5t-6.5 9t-2 14t3 18.5z" />
    <glyph glyph-name="ncaron" unicode="&#x148;" 
d="M209 623q1 17 13.5 32t30.5 15q13 0 26 -10t44 -44l23 -22q29 18 51 35q3 2 8 5q53 36 67 36q17 0 30.5 -14t12.5 -32q0 -25 -26 -44l-72 -52q-9 -6 -19.5 -14t-16 -11.5t-11.5 -8t-9 -6t-6.5 -3.5t-6 -2.5t-5.5 -1t-6 -0.5q-15 0 -36 19l-37 42q-36 40 -45.5 53.5
t-9.5 27.5zM375 96q5 4 9.5 11.5t9 17.5t7 17t6 19t4.5 15q15 25 41 25q28 0 38.5 -14t10.5 -32q0 -10 -8.5 -34t-24 -53t-44 -51t-62.5 -22q-38 0 -61 26.5t-23 68.5q0 24 29 106q37 113 37 144q0 24 -14 24q-18 0 -35.5 -13t-32.5 -38.5t-26.5 -50.5t-23.5 -62.5
t-18.5 -60t-15.5 -56.5q-15 -57 -20 -65q-15 -23 -40 -23q-18 0 -33 14t-14 35q0 11 5 23l65 262q5 18 5 26q-7 -15 -15 -51q-1 -2 -1 -4q-4 -12 -6 -17.5t-7.5 -14.5t-14.5 -12.5t-22 -3.5q-48 0 -47 44q0 3 2.5 17.5t11 40t20.5 48t34 39.5t49 17q49 0 76 -43
q47 43 107 43q50 0 79 -31.5t28 -88.5q0 -43 -45 -184z" />
    <glyph glyph-name="Eng" unicode="&#x14a;" 
d="M9 46q0 21 12 35.5t40 14.5h6l114 451q-35 7 -35 45q0 7 1.5 14t6 16t15.5 14.5t27 5.5h47q27 0 38 -14q51 31 99 31q64 0 102.5 -47.5t37.5 -126.5q-1 -26 -9 -65t-37 -152l-30 -122q-10 -39 -26.5 -68.5t-33 -45.5t-35.5 -26.5t-32 -13t-24 -2.5q-61 0 -91 50
q-6 -40 -51 -40h-94q-28 0 -38.5 14.5t-9.5 31.5zM169 94q11 -1 20 -9v13q1 43 21 62.5t44 19.5q26 0 40.5 -19t13.5 -38q0 -24 -12 -38q10 2 23.5 16.5t22.5 41.5l3 16q12 50 35.5 142t29.5 116v-3q0 1 1 3t1 3q8 30 8.5 62t-10.5 53t-34 21q-13 0 -27.5 -6t-35 -21.5
t-39.5 -51t-31 -86.5h1q-51 -198 -75 -297z" />
    <glyph glyph-name="eng" unicode="&#x14b;" 
d="M143 346q-5 -12 -10 -32t-8.5 -31.5t-15 -21t-31.5 -9.5t-31.5 9t-14 17.5t-1.5 17.5q0 3 2.5 17.5t11 40t21 48t34.5 39.5t49 17q47 0 76 -43q50 43 106 43q49 0 79 -31.5t29 -88.5q-1 -46 -44 -176q-21 -63 -23 -73q-1 -2 -2 -8q-10 -39 -16 -60t-17.5 -58t-20.5 -58
t-24 -48.5t-29.5 -42t-34 -24.5t-41.5 -10q-36 0 -64.5 20.5t-28.5 59.5q1 29 18.5 49t44.5 20q17 0 31.5 -10t19.5 -26q24 40 63 187q5 19 12.5 45.5t9.5 35.5q49 143 50 177q0 26 -14 26q-15 0 -29.5 -7.5t-27 -25.5t-22.5 -33.5t-21 -44.5t-17 -46t-15 -50t-12 -43.5
t-10 -39.5h1q-5 -18 -7 -26t-7.5 -20.5t-10.5 -18t-14 -10t-20 -4.5q-18 0 -32 13.5t-15 33.5q0 13 4 23q1 2 1 5q6 24 28.5 117t35.5 144z" />
    <glyph glyph-name="Omacron" unicode="&#x14c;" 
d="M177 762q0 7 1.5 14t6.5 16t16 15t27 6h424q44 -3 43 -44q0 -10 -2.5 -19.5t-14 -20.5t-30.5 -11h-423q-48 0 -48 44zM69 102q1 56 42 221l-1 1q20 81 34 129.5t33.5 89t36 59t46 31.5t59.5 16t81 3t80.5 -3.5t52.5 -15.5t32 -34.5t8 -59.5q0 -54 -41 -223
q-19 -74 -33.5 -121t-33 -87t-37 -60.5t-46.5 -35t-60 -18.5t-79 -4q-52 0 -81 3.5t-52.5 15t-32 34t-8.5 59.5zM262 497q-19 -39 -54 -170l1 -1q-34 -123 -36 -188q-1 -30 16 -42t68 -12q55 0 80.5 14.5t42.5 51.5q27 59 58 183h-1q34 139 34 178q0 29 -19 38t-67 9
q-55 0 -80.5 -12t-42.5 -49zM193 346l15 -19v-1z" />
    <glyph glyph-name="omacron" unicode="&#x14d;" 
d="M180 562q0 7 1.5 14t6 16.5t15.5 15t27 5.5h233q51 0 51 -46q-1 -50 -51 -50h-236q-27 0 -37.5 14.5t-9.5 30.5zM56 170q1 64 23.5 119t58.5 91.5t81.5 57t92.5 20.5q71 0 118 -50t46 -126q0 -67 -22.5 -122.5t-59 -91t-81.5 -54.5t-93 -19q-71 0 -118 50t-46 125z
M152 166q0 -29 20.5 -54t48.5 -25q25 0 51 11.5t51 34t41 62.5t16 91q1 34 -21 56t-49 22q-24 0 -50.5 -12.5t-50.5 -36t-40 -63t-17 -86.5z" />
    <glyph glyph-name="Obreve" unicode="&#x14e;" 
d="M259 763q1 67 47 67q23 0 34 -14t10 -30q0 -2 -0.5 -5.5t-0.5 -4.5q-1 -4 -1 -11q0 -15 20 -25t50 -10q37 0 70.5 17t43.5 48l1.5 3l2 4t2.5 4.5t3 5t3.5 4.5t4.5 4.5t5 3.5t6.5 3t7.5 2t9 1q19 0 31.5 -12t11.5 -33q0 -17 -13 -41t-36.5 -49.5t-65 -43t-89.5 -17.5
q-71 0 -114.5 35.5t-42.5 93.5zM69 102q1 56 42 221l-1 1q20 81 34 129.5t33.5 89t36 59t46 31.5t59.5 16t81 3t80.5 -3.5t52.5 -15.5t32 -34.5t8 -59.5q0 -54 -41 -223q-19 -74 -33.5 -121t-33 -87t-37 -60.5t-46.5 -35t-60 -18.5t-79 -4q-52 0 -81 3.5t-52.5 15t-32 34
t-8.5 59.5zM262 497q-19 -39 -54 -170l1 -1q-34 -123 -36 -188q-1 -30 16 -42t68 -12q55 0 80.5 14.5t42.5 51.5q27 59 58 183h-1q34 139 34 178q0 29 -19 38t-67 9q-55 0 -80.5 -12t-42.5 -49zM193 346l15 -19v-1z" />
    <glyph glyph-name="obreve" unicode="&#x14f;" 
d="M176 608q1 25 12.5 43.5t36.5 18.5q19 0 31.5 -13t11.5 -32q0 -1 -0.5 -4t-0.5 -4v-6q0 -17 76 -17q33 0 55 4t33.5 12t16 12.5t10.5 14.5q6 13 9 17t12 9.5t22 5.5q19 0 32 -12.5t12 -32.5q0 -10 -4.5 -23.5t-18.5 -32.5t-35.5 -34.5t-59.5 -26.5t-86 -11t-82.5 10.5
t-51.5 28.5t-24 36t-7 37zM56 170q1 64 23.5 119t58.5 91.5t81.5 57t92.5 20.5q71 0 118 -50t46 -126q0 -67 -22.5 -122.5t-59 -91t-81.5 -54.5t-93 -19q-71 0 -118 50t-46 125zM152 166q0 -29 20.5 -54t48.5 -25q25 0 51 11.5t51 34t41 62.5t16 91q1 34 -21 56t-49 22
q-24 0 -50.5 -12.5t-50.5 -36t-40 -63t-17 -86.5z" />
    <glyph glyph-name="Ohungarumlaut" unicode="&#x150;" 
d="M305 722q0 32 36 47l73 29q50 20 61 20q20 0 33 -15t13 -33q0 -17 -8 -29t-18 -17t-30 -13h-2l-63 -26q-38 -17 -53 -17q-23 0 -33 17t-9 37zM486 722q0 31 37 47l73 29q49 20 61 20q20 0 32.5 -15t12.5 -33q0 -13 -3.5 -22.5t-12.5 -16t-16.5 -10.5t-22.5 -10h-2
l-63 -26q-39 -17 -53 -17q-23 0 -33.5 17.5t-9.5 36.5zM69 102q1 56 42 221l-1 1q20 81 34 129.5t33.5 89t36 59t46 31.5t59.5 16t81 3t80.5 -3.5t52.5 -15.5t32 -34.5t8 -59.5q0 -54 -41 -223q-19 -74 -33.5 -121t-33 -87t-37 -60.5t-46.5 -35t-60 -18.5t-79 -4
q-52 0 -81 3.5t-52.5 15t-32 34t-8.5 59.5zM262 497q-19 -39 -54 -170l1 -1q-34 -123 -36 -188q-1 -30 16 -42t68 -12q55 0 80.5 14.5t42.5 51.5q27 59 58 183h-1q34 139 34 178q0 29 -19 38t-67 9q-55 0 -80.5 -12t-42.5 -49zM193 346l15 -19v-1z" />
    <glyph glyph-name="ohungarumlaut" unicode="&#x151;" 
d="M379 561v1q1 12 7.5 21.5t12 13.5t15.5 10h3h-3l48 23q78 40 91 40q18 0 31.5 -14.5t14.5 -35.5q0 -33 -37 -52l-66 -32q-63 -33 -71 -33q-24 0 -35.5 20t-10.5 38zM194 561v1q1 12 7.5 21.5t12 13.5t15.5 10h3h-3l47 23q54 27 68.5 33.5t22.5 6.5q19 0 32.5 -14.5
t14.5 -35.5q0 -33 -37 -52l-67 -32q-62 -33 -71 -33q-24 0 -35 20t-10 38zM56 170q1 64 23.5 119t58.5 91.5t81.5 57t92.5 20.5q71 0 118 -50t46 -126q0 -67 -22.5 -122.5t-59 -91t-81.5 -54.5t-93 -19q-71 0 -118 50t-46 125zM152 166q0 -29 20.5 -54t48.5 -25
q25 0 51 11.5t51 34t41 62.5t16 91q1 34 -21 56t-49 22q-24 0 -50.5 -12.5t-50.5 -36t-40 -63t-17 -86.5z" />
    <glyph glyph-name="OE" unicode="&#x152;" 
d="M321 652q22 0 43.5 -5t46.5 -5h105q27 0 37 -15.5t10 -31.5q0 -7 -13 -57.5t-17 -60.5q-9 -24 -38 -24q-16 0 -28.5 14t-12.5 30q0 6 8 42h-1q0 5 2 7h-41q-27 -102 -42 -166h58q24 0 36.5 -13t12.5 -33q0 -11 -3 -20.5t-15.5 -19t-33.5 -9.5l-80 -1q-6 -28 -22 -88.5
t-25 -99.5h49v3q17 68 26 86.5t34 18.5q17 0 30 -12.5t13 -31.5q0 -9 -11 -49l-18 -70q-13 -41 -51 -41h-135q-51 -10 -82 -10q-39 0 -64.5 7.5t-36.5 22.5t-14 28.5t-3 32.5q1 59 43.5 230.5t75.5 247.5q9 19 16.5 31.5t25 28.5t46.5 24.5t69 8.5zM137 120q0 -35 44 -35
q22 0 35 25.5t29 91.5q65 261 68 273q11 46 11.5 63.5t-16.5 17.5q-22 0 -38 -6.5t-26 -22t-14.5 -26t-10.5 -31.5q-19 -57 -50 -180.5t-32 -169.5z" />
    <glyph glyph-name="oe" unicode="&#x153;" 
d="M21 148q1 67 28 138.5t74 122t98 50.5q31 0 52 -18t33 -46q58 63 118 63q44 0 71 -31t26 -79q0 -38 -15.5 -67.5t-38.5 -47.5t-53 -29.5t-58 -15.5t-55 -4q-1 -9 -1 -24q0 -28 9 -50.5t29 -22.5q18 0 35.5 6.5t25.5 12t21 16.5q23 18 38 18q16 -1 28.5 -13.5t12.5 -29.5
q0 -29 -55.5 -65.5t-107.5 -36.5q-70 0 -101 65q-52 -67 -109 -67q-48 0 -77 42t-28 113zM117 144q-1 -58 12 -58q20 0 45 32.5t43 84t19 100.5q0 27 -4.5 44.5t-13.5 17.5q-20 0 -44 -35t-40.5 -87.5t-16.5 -98.5zM422 364q-18 0 -45 -23t-48 -64q107 10 108 66
q0 21 -15 21zM319 254l-15 22q16 0 25 1q-2 -4 -10 -23z" />
    <glyph glyph-name="Racute" unicode="&#x154;" 
d="M309 722q0 32 36 47l73 29q49 20 61 20q20 0 33 -15t13 -33q0 -13 -4 -22.5t-13 -16.5t-16.5 -10.5t-22.5 -9.5h-2l-63 -26q-38 -17 -53 -17q-23 0 -33 17t-9 37zM351 232q0 22 -22 32t-42 10h-62l-45 -180h4h10.5t10 -1t10.5 -2.5t8.5 -5.5t6 -9.5t1.5 -13.5t-2 -19
q-4 -15 -11 -24.5t-17.5 -13t-17 -4.5t-16.5 -1h-112h-10.5t-10.5 1t-10.5 3t-8.5 5.5t-6.5 9t-1.5 13.5t3 18q4 16 11 25.5t17 13.5t16 4.5t17 0.5h10q17 70 55 219t59 234h-3q-57 0 -45 50q8 24 26 34.5t36 10.5h167q76 0 119.5 -42.5t42.5 -104.5q0 -21 -7 -41h1
q-8 -36 -34 -74.5t-70 -65.5q17 -24 22 -54q2 -17 -0.5 -32t-15.5 -67h1q-15 -57 -15 -71v-6q3 0 8 12.5t6 19.5q13 43 56 43q6 0 9.5 -0.5t11 -2t10.5 -4.5t8 -9t3.5 -15.5t-3.5 -22.5q-10 -39 -44 -77t-80 -38q-63 0 -77 57q-6 15 -6 36q0 31 19 99q10 37 10 50zM248 368
h48q55 0 93 29t48 65q7 32 -15 58.5t-71 26.5h-56z" />
    <glyph glyph-name="racute" unicode="&#x155;" 
d="M255 561v1q0 12 6.5 21.5t12.5 13.5t16 10h2h-2l47 23q78 40 91 40q19 0 32 -14.5t14 -35.5q0 -34 -37 -52l-66 -32q-62 -33 -71 -33q-24 0 -35 20t-10 38zM156 -5q-24 0 -37.5 19t-5.5 46q1 1 1 2l68 273q0 2 0.5 7t0.5 9q0 12 -9 12q-5 0 -6 -1q-9 -15 -24 -60l1 1
q-4 -14 -6.5 -21t-8 -15.5t-14.5 -11.5t-24 -3q-47 0 -46 44q0 4 3.5 19.5t13.5 40.5t24 47t37.5 38.5t50.5 16.5q28 0 51.5 -12.5t36.5 -33.5q51 46 117 46t107 -32.5t40 -84.5q0 -39 -20 -57.5t-43 -18.5t-38 16.5t-15 38.5q0 19 10 34q-16 10 -43 10q-16 0 -31.5 -7.5
t-28.5 -24t-24 -32t-21.5 -42.5l-17.5 -45t-15.5 -48.5t-12 -43.5t-10.5 -40q-11 -42 -17 -58q-16 -28 -44 -28z" />
    <glyph glyph-name="Rcaron" unicode="&#x158;" 
d="M238 771q0 18 13.5 31.5t33.5 13.5q6 0 13 -4t25.5 -23.5t46.5 -56.5q11 9 33 24t29 21q5 4 13 10q27 21 34 25t17 4q17 0 29.5 -13.5t12.5 -31.5q0 -21 -23 -41q-67 -55 -98.5 -79t-40 -28.5t-16.5 -4.5q-15 0 -24 8.5t-31 38.5q-17 25 -42 57q-25 31 -25 49zM351 232
q0 22 -22 32t-42 10h-62l-45 -180h4h10.5t10 -1t10.5 -2.5t8.5 -5.5t6 -9.5t1.5 -13.5t-2 -19q-4 -15 -11 -24.5t-17.5 -13t-17 -4.5t-16.5 -1h-112h-10.5t-10.5 1t-10.5 3t-8.5 5.5t-6.5 9t-1.5 13.5t3 18q4 16 11 25.5t17 13.5t16 4.5t17 0.5h10q17 70 55 219t59 234h-3
q-57 0 -45 50q8 24 26 34.5t36 10.5h167q76 0 119.5 -42.5t42.5 -104.5q0 -21 -7 -41h1q-8 -36 -34 -74.5t-70 -65.5q17 -24 22 -54q2 -17 -0.5 -32t-15.5 -67h1q-15 -57 -15 -71v-6q3 0 8 12.5t6 19.5q13 43 56 43q6 0 9.5 -0.5t11 -2t10.5 -4.5t8 -9t3.5 -15.5t-3.5 -22.5
q-10 -39 -44 -77t-80 -38q-63 0 -77 57q-6 15 -6 36q0 31 19 99q10 37 10 50zM248 368h48q55 0 93 29t48 65q7 32 -15 58.5t-71 26.5h-56z" />
    <glyph glyph-name="rcaron" unicode="&#x159;" 
d="M170 623q1 17 13.5 32t30.5 15q13 0 26 -10t44 -44l23 -22q29 18 51 35q3 2 8 5q53 36 67 36q17 0 30.5 -14t12.5 -32q0 -25 -26 -44l-72 -52q-9 -6 -19.5 -14t-16 -11.5t-11.5 -8t-9 -6t-6.5 -3.5t-6 -2.5t-5.5 -1t-6 -0.5q-15 0 -36 19l-37 42q-36 40 -45.5 53.5
t-9.5 27.5zM156 -5q-24 0 -37.5 19t-5.5 46q1 1 1 2l68 273q0 2 0.5 7t0.5 9q0 12 -9 12q-5 0 -6 -1q-9 -15 -24 -60l1 1q-4 -14 -6.5 -21t-8 -15.5t-14.5 -11.5t-24 -3q-47 0 -46 44q0 4 3.5 19.5t13.5 40.5t24 47t37.5 38.5t50.5 16.5q28 0 51.5 -12.5t36.5 -33.5
q51 46 117 46t107 -32.5t40 -84.5q0 -39 -20 -57.5t-43 -18.5t-38 16.5t-15 38.5q0 19 10 34q-16 10 -43 10q-16 0 -31.5 -7.5t-28.5 -24t-24 -32t-21.5 -42.5l-17.5 -45t-15.5 -48.5t-12 -43.5t-10.5 -40q-11 -42 -17 -58q-16 -28 -44 -28z" />
    <glyph glyph-name="Sacute" unicode="&#x15a;" 
d="M328 722q0 32 36 47l73 29q49 20 61 20q20 0 33 -15t13 -33q0 -13 -4 -22.5t-13 -16.5t-16.5 -10.5t-22.5 -9.5h-2l-63 -26q-38 -17 -53 -17q-23 0 -33 17t-9 37zM40 50l32 132q3 13 5.5 20t8.5 16.5t17 13.5t28 4q30 0 38 -14t2.5 -32.5t-4.5 -42t17 -37.5
q32 -26 94 -26q48 0 83.5 29.5t44.5 67.5q3 12 3 25q1 52 -68 67l-95 24q-5 1 -5 2q-50 17 -76 53.5t-26 83.5q0 19 7 41h-1q18 71 84 123t149 52q65 0 116 -37q11 20 22 28.5t30 8.5q17 0 26 -5.5t10.5 -16.5t0.5 -19t-4 -20l-33 -131q-3 -14 -5.5 -20.5t-9 -16t-17.5 -14
t-26 -4.5q-24 0 -34 10.5t-7 36.5q2 14 2 22t-3 26t-11 28.5t-26 20t-45 9.5q-44 0 -79.5 -25.5t-43.5 -60.5q-7 -26 5.5 -46t35.5 -27l-1 1l72 -18q59 -15 83 -27t47 -44q25 -41 25 -88q-1 -23 -7 -45h1q-19 -75 -86 -131.5t-152 -56.5q-91 0 -140 36q-21 -36 -51 -36
q-14 0 -23 4t-12.5 9.5t-3.5 15.5t1.5 15.5t4.5 15.5z" />
    <glyph glyph-name="sacute" unicode="&#x15b;" 
d="M288 561v1q0 12 6.5 21.5t12.5 13.5t16 10h2h-2l47 23q78 40 91 40q19 0 32 -14.5t14 -35.5q0 -34 -37 -52l-66 -32q-62 -33 -71 -33q-24 0 -35 20t-10 38zM46 105q1 39 21 57.5t43 18.5q22 0 37.5 -15.5t14.5 -39.5q0 -20 -6 -28q26 -11 65 -11q67 0 97 23t30 46
q0 24 -93 40l16 -6q-10 2 -56 16q-35 10 -62 37t-26 69q0 23 10 47t31 47t58.5 37.5t86.5 14.5q27 0 51 -5t46.5 -16t35.5 -32t12 -49q0 -32 -17.5 -51t-43.5 -19q-21 0 -36 15t-15 38q0 13 3 20q-13 5 -40 5q-47 0 -70 -16.5t-23 -34.5q0 -10 18.5 -16t55.5 -11l13 -4
q39 -8 67 -23.5t41.5 -34t19.5 -35t6 -31.5q0 -27 -12 -54t-36 -52t-67.5 -41t-100.5 -16q-54 0 -91 10.5t-54 28t-23.5 34.5t-6.5 37z" />
    <glyph glyph-name="Scircumflex" unicode="&#x15c;" 
d="M227 696q0 17 12.5 28.5t56.5 38.5l75 49q33 23 48 23q12 0 23 -8t34 -31l25 -24q44 -41 51.5 -51t7.5 -25q0 -19 -17.5 -36.5t-34.5 -17.5q-13 0 -24.5 9.5t-56.5 57.5l-17 17q-5 -4 -14.5 -9.5t-14.5 -8.5q-70 -50 -83.5 -58t-24.5 -8q-21 0 -33.5 18t-12.5 36zM40 50
l32 132q3 13 5.5 20t8.5 16.5t17 13.5t28 4q30 0 38 -14t2.5 -32.5t-4.5 -42t17 -37.5q32 -26 94 -26q48 0 83.5 29.5t44.5 67.5q3 12 3 25q1 52 -68 67l-95 24q-5 1 -5 2q-50 17 -76 53.5t-26 83.5q0 19 7 41h-1q18 71 84 123t149 52q65 0 116 -37q11 20 22 28.5t30 8.5
q17 0 26 -5.5t10.5 -16.5t0.5 -19t-4 -20l-33 -131q-3 -14 -5.5 -20.5t-9 -16t-17.5 -14t-26 -4.5q-24 0 -34 10.5t-7 36.5q2 14 2 22t-3 26t-11 28.5t-26 20t-45 9.5q-44 0 -79.5 -25.5t-43.5 -60.5q-7 -26 5.5 -46t35.5 -27l-1 1l72 -18q59 -15 83 -27t47 -44
q25 -41 25 -88q-1 -23 -7 -45h1q-19 -75 -86 -131.5t-152 -56.5q-91 0 -140 36q-21 -36 -51 -36q-14 0 -23 4t-12.5 9.5t-3.5 15.5t1.5 15.5t4.5 15.5z" />
    <glyph glyph-name="scircumflex" unicode="&#x15d;" 
d="M260 503q-23 -18 -41 -18q-21 0 -34 19t-13 37q1 20 12.5 30.5t77.5 49.5l75 44q14 9 29 9q9 0 15.5 -4t32.5 -25q12 -10 19 -16l1 1q2 -2 24 -21t33 -27q22 -18 21 -41q0 -18 -17.5 -37t-35.5 -19q-12 0 -20 5.5t-42 37.5l-40 37q-79 -52 -100 -65zM46 105q1 39 21 57.5
t43 18.5q22 0 37.5 -15.5t14.5 -39.5q0 -20 -6 -28q26 -11 65 -11q67 0 97 23t30 46q0 24 -93 40l16 -6q-10 2 -56 16q-35 10 -62 37t-26 69q0 23 10 47t31 47t58.5 37.5t86.5 14.5q27 0 51 -5t46.5 -16t35.5 -32t12 -49q0 -32 -17.5 -51t-43.5 -19q-21 0 -36 15t-15 38
q0 13 3 20q-13 5 -40 5q-47 0 -70 -16.5t-23 -34.5q0 -10 18.5 -16t55.5 -11l13 -4q39 -8 67 -23.5t41.5 -34t19.5 -35t6 -31.5q0 -27 -12 -54t-36 -52t-67.5 -41t-100.5 -16q-54 0 -91 10.5t-54 28t-23.5 34.5t-6.5 37z" />
    <glyph glyph-name="Scedilla" unicode="&#x15e;" 
d="M95 -190q0 13 7 27t23 19q12 4 31 4h6q22 1 35.5 2.5t33.5 5t30 10.5t10 18q0 3 -18 9q-14 2 -22 4.5t-15 12t-7 25.5q0 22 19 88q13 27 46 27q49 0 49 -45q0 -1 -6 -30v-2q54 -30 53 -88q0 -38 -25.5 -72t-71.5 -47q-45 -13 -125 -13h-4q-29 0 -39 14.5t-10 30.5zM40 50
l32 132q3 13 5.5 20t8.5 16.5t17 13.5t28 4q30 0 38 -14t2.5 -32.5t-4.5 -42t17 -37.5q32 -26 94 -26q48 0 83.5 29.5t44.5 67.5q3 12 3 25q1 52 -68 67l-95 24q-5 1 -5 2q-50 17 -76 53.5t-26 83.5q0 19 7 41h-1q18 71 84 123t149 52q65 0 116 -37q11 20 22 28.5t30 8.5
q17 0 26 -5.5t10.5 -16.5t0.5 -19t-4 -20l-33 -131q-3 -14 -5.5 -20.5t-9 -16t-17.5 -14t-26 -4.5q-24 0 -34 10.5t-7 36.5q2 14 2 22t-3 26t-11 28.5t-26 20t-45 9.5q-44 0 -79.5 -25.5t-43.5 -60.5q-7 -26 5.5 -46t35.5 -27l-1 1l72 -18q59 -15 83 -27t47 -44
q25 -41 25 -88q-1 -23 -7 -45h1q-19 -75 -86 -131.5t-152 -56.5q-91 0 -140 36q-21 -36 -51 -36q-14 0 -23 4t-12.5 9.5t-3.5 15.5t1.5 15.5t4.5 15.5z" />
    <glyph glyph-name="scedilla" unicode="&#x15f;" 
d="M52 -190q0 13 7 27t23 19q12 4 31 4h6q22 1 35.5 2.5t33.5 5t30 10.5t10 18q0 3 -18 9q-14 2 -22 4.5t-15 12t-7 25.5q0 22 19 88q13 27 46 27q49 0 49 -45q0 -1 -6 -30v-2q54 -30 53 -88q0 -38 -25.5 -72t-71.5 -47q-45 -13 -125 -13h-4q-29 0 -39 14.5t-10 30.5z
M46 105q1 39 21 57.5t43 18.5q22 0 37.5 -15.5t14.5 -39.5q0 -20 -6 -28q26 -11 65 -11q67 0 97 23t30 46q0 24 -93 40l16 -6q-10 2 -56 16q-35 10 -62 37t-26 69q0 23 10 47t31 47t58.5 37.5t86.5 14.5q27 0 51 -5t46.5 -16t35.5 -32t12 -49q0 -32 -17.5 -51t-43.5 -19
q-21 0 -36 15t-15 38q0 13 3 20q-13 5 -40 5q-47 0 -70 -16.5t-23 -34.5q0 -10 18.5 -16t55.5 -11l13 -4q39 -8 67 -23.5t41.5 -34t19.5 -35t6 -31.5q0 -27 -12 -54t-36 -52t-67.5 -41t-100.5 -16q-54 0 -91 10.5t-54 28t-23.5 34.5t-6.5 37z" />
    <glyph glyph-name="Scaron" unicode="&#x160;" 
d="M257 771q0 18 13.5 31.5t33.5 13.5q6 0 13 -4t25.5 -23.5t46.5 -56.5q11 9 33 24t29 21q5 4 13 10q27 21 34 25t17 4q17 0 29.5 -13.5t12.5 -31.5q0 -21 -23 -41q-67 -55 -98.5 -79t-40 -28.5t-16.5 -4.5q-15 0 -24 8.5t-31 38.5q-17 25 -42 57q-25 31 -25 49zM40 50
l32 132q3 13 5.5 20t8.5 16.5t17 13.5t28 4q30 0 38 -14t2.5 -32.5t-4.5 -42t17 -37.5q32 -26 94 -26q48 0 83.5 29.5t44.5 67.5q3 12 3 25q1 52 -68 67l-95 24q-5 1 -5 2q-50 17 -76 53.5t-26 83.5q0 19 7 41h-1q18 71 84 123t149 52q65 0 116 -37q11 20 22 28.5t30 8.5
q17 0 26 -5.5t10.5 -16.5t0.5 -19t-4 -20l-33 -131q-3 -14 -5.5 -20.5t-9 -16t-17.5 -14t-26 -4.5q-24 0 -34 10.5t-7 36.5q2 14 2 22t-3 26t-11 28.5t-26 20t-45 9.5q-44 0 -79.5 -25.5t-43.5 -60.5q-7 -26 5.5 -46t35.5 -27l-1 1l72 -18q59 -15 83 -27t47 -44
q25 -41 25 -88q-1 -23 -7 -45h1q-19 -75 -86 -131.5t-152 -56.5q-91 0 -140 36q-21 -36 -51 -36q-14 0 -23 4t-12.5 9.5t-3.5 15.5t1.5 15.5t4.5 15.5z" />
    <glyph glyph-name="scaron" unicode="&#x161;" 
d="M203 623q1 17 13.5 32t30.5 15q13 0 26 -10t44 -44l23 -22q29 18 51 35q3 2 8 5q53 36 67 36q17 0 30.5 -14t12.5 -32q0 -25 -26 -44l-72 -52q-9 -6 -19.5 -14t-16 -11.5t-11.5 -8t-9 -6t-6.5 -3.5t-6 -2.5t-5.5 -1t-6 -0.5q-15 0 -36 19l-37 42q-36 40 -45.5 53.5
t-9.5 27.5zM46 105q1 39 21 57.5t43 18.5q22 0 37.5 -15.5t14.5 -39.5q0 -20 -6 -28q26 -11 65 -11q67 0 97 23t30 46q0 24 -93 40l16 -6q-10 2 -56 16q-35 10 -62 37t-26 69q0 23 10 47t31 47t58.5 37.5t86.5 14.5q27 0 51 -5t46.5 -16t35.5 -32t12 -49q0 -32 -17.5 -51
t-43.5 -19q-21 0 -36 15t-15 38q0 13 3 20q-13 5 -40 5q-47 0 -70 -16.5t-23 -34.5q0 -10 18.5 -16t55.5 -11l13 -4q39 -8 67 -23.5t41.5 -34t19.5 -35t6 -31.5q0 -27 -12 -54t-36 -52t-67.5 -41t-100.5 -16q-54 0 -91 10.5t-54 28t-23.5 34.5t-6.5 37z" />
    <glyph glyph-name="Tcommaaccent" unicode="&#x162;" 
d="M73 -190q0 13 7 27t23 19q12 4 31 4h6q22 1 35.5 2.5t33.5 5t30 10.5t10 18q0 3 -18 9q-14 2 -22 4.5t-15 12t-7 25.5q0 22 19 88q13 27 46 27q49 0 49 -45q0 -1 -6 -30v-2q54 -30 53 -88q0 -38 -25.5 -72t-71.5 -47q-45 -13 -125 -13h-4q-29 0 -39 14.5t-10 30.5z
M131 516l17 71q7 33 20 44t45 11h371q35 0 43 -14t-2 -48l-18 -73q-4 -14 -6.5 -20t-8.5 -15.5t-17 -13.5t-27 -4q-15 0 -24 4t-13 8.5t-4 15.5t1 15.5t4 18.5h-1q1 5 9 31h-91q-18 -70 -55.5 -219t-58.5 -234h28h10.5t10.5 -1t11 -2.5t8.5 -5.5t6 -9.5t1.5 -13.5t-2 -19
q-4 -15 -11 -24.5t-17.5 -13t-17 -4.5t-16.5 -1h-164h-10.5t-10 1t-10.5 3t-8 5.5t-6 9t-2 14t3 18.5q3 16 10.5 25.5t17.5 13t16.5 4t16.5 0.5h36q17 70 55 219t59 234h-92l-12 -40q-3 -13 -5.5 -20t-8.5 -16t-17 -13t-27 -4q-15 0 -24.5 4t-13 8.5t-3.5 15t1 16t4 18.5h-1
z" />
    <glyph glyph-name="tcommaaccent" unicode="&#x163;" 
d="M59 -190q0 13 7 27t23 19q12 4 31 4h6q22 1 35.5 2.5t33.5 5t30 10.5t10 18q0 3 -18 9q-14 2 -22 4.5t-15 12t-7 25.5q0 22 19 88q13 27 46 27q49 0 49 -45q0 -1 -6 -30v-2q54 -30 53 -88q0 -38 -25.5 -72t-71.5 -47q-45 -13 -125 -13h-4q-29 0 -39 14.5t-10 30.5z
M105 403q0 49 49 49h78l15 60q18 76 29.5 98t41.5 22q17 0 31 -13.5t14 -34.5q0 -14 -18 -77h1l-14 -55h57q28 0 38 -14.5t10 -30.5q0 -10 -3 -19.5t-15.5 -19t-32.5 -9.5h-78l-26 -104q-15 -57 -25.5 -101t-10.5 -51t4.5 -11.5t12.5 -4.5q26 0 50 22.5t39 55.5
q6 14 10 19.5t13 11t23 5.5q28 0 38.5 -13.5t10.5 -31.5q0 -12 -14 -37.5t-37 -54t-59.5 -49t-75.5 -20.5q-49 0 -80.5 30t-31.5 78v1q0 12 19 87l19 76h-1q4 18 11.5 46t11.5 46h-57q-20 0 -31.5 9.5t-13.5 17.5t-2 17z" />
    <glyph glyph-name="Tcaron" unicode="&#x164;" 
d="M282 771q0 18 13.5 31.5t33.5 13.5q6 0 13 -4t25.5 -23.5t46.5 -56.5q11 9 33 24t29 21q5 4 13 10q27 21 34 25t17 4q17 0 29.5 -13.5t12.5 -31.5q0 -21 -23 -41q-67 -55 -98.5 -79t-40 -28.5t-16.5 -4.5q-15 0 -24 8.5t-31 38.5q-17 25 -42 57q-25 31 -25 49zM131 516
l17 71q7 33 20 44t45 11h371q35 0 43 -14t-2 -48l-18 -73q-4 -14 -6.5 -20t-8.5 -15.5t-17 -13.5t-27 -4q-15 0 -24 4t-13 8.5t-4 15.5t1 15.5t4 18.5h-1q1 5 9 31h-91q-18 -70 -55.5 -219t-58.5 -234h28h10.5t10.5 -1t11 -2.5t8.5 -5.5t6 -9.5t1.5 -13.5t-2 -19
q-4 -15 -11 -24.5t-17.5 -13t-17 -4.5t-16.5 -1h-164h-10.5t-10 1t-10.5 3t-8 5.5t-6 9t-2 14t3 18.5q3 16 10.5 25.5t17.5 13t16.5 4t16.5 0.5h36q17 70 55 219t59 234h-92l-12 -40q-3 -13 -5.5 -20t-8.5 -16t-17 -13t-27 -4q-15 0 -24.5 4t-13 8.5t-3.5 15t1 16t4 18.5h-1
z" />
    <glyph glyph-name="tcaron" unicode="&#x165;" 
d="M213 812q1 17 13.5 32t30.5 15q13 0 26 -10t44 -44l23 -22q29 18 51 35q3 2 8 5q53 36 67 36q17 0 30.5 -14t12.5 -32q0 -25 -26 -44l-72 -52q-9 -6 -19.5 -14t-16 -11.5t-11.5 -8t-9 -6t-6.5 -3.5t-6 -2.5t-5.5 -1t-6 -0.5q-15 0 -36 19l-37 42q-36 40 -45.5 53.5
t-9.5 27.5zM105 403q0 49 49 49h78l15 60q18 76 29.5 98t41.5 22q17 0 31 -13.5t14 -34.5q0 -14 -18 -77h1l-14 -55h57q28 0 38 -14.5t10 -30.5q0 -10 -3 -19.5t-15.5 -19t-32.5 -9.5h-78l-26 -104q-15 -57 -25.5 -101t-10.5 -51t4.5 -11.5t12.5 -4.5q26 0 50 22.5t39 55.5
q6 14 10 19.5t13 11t23 5.5q28 0 38.5 -13.5t10.5 -31.5q0 -12 -14 -37.5t-37 -54t-59.5 -49t-75.5 -20.5q-49 0 -80.5 30t-31.5 78v1q0 12 19 87l19 76h-1q4 18 11.5 46t11.5 46h-57q-20 0 -31.5 9.5t-13.5 17.5t-2 17z" />
    <glyph glyph-name="Utilde" unicode="&#x168;" 
d="M370 732q-19 0 -53.5 -30.5t-52.5 -30.5q-16 0 -30 14.5t-13 32.5q0 13 5.5 21.5t18.5 21.5q73 69 130 69q18 0 35 -7t26.5 -14t23.5 -19q24 -21 36 -21q3 0 6.5 0.5t7 2t6.5 2.5t7 4t6.5 4.5t7 5t6.5 4.5t6.5 5t6.5 5h-1q0 1 4.5 4.5t5.5 4.5t4.5 3.5t4.5 3.5t4 3.5t5 3
t5 2t5 2t4.5 1t5.5 0.5q14 0 28.5 -15t13.5 -33q0 -10 -4 -19t-7 -12.5t-11 -11.5q-72 -68 -132 -68q-18 0 -36 7t-26.5 13.5t-24.5 19.5q-27 21 -34 21zM132 598q4 16 11 25.5t17.5 13t16.5 4.5t17 1h122q58 0 46 -51q-9 -24 -27 -34t-35 -10h-15l-83 -327q-6 -28 -6 -50
q0 -41 18.5 -63.5t44.5 -22.5q37 0 78 38.5t59 106.5h-1l80 318h-8h-11t-10.5 1t-10.5 3t-8.5 5.5t-6.5 9t-2 14t3 18.5q4 16 11 25.5t17.5 13t16.5 4.5t17 1h122q58 0 46 -51q-17 -44 -62 -44h-17l-83 -331q-17 -62 -56.5 -114.5t-90 -82t-99.5 -29.5q-66 0 -107.5 47
t-40.5 123q0 30 9 64l82 323h-8h-11t-10.5 1t-10.5 3t-8.5 5.5t-6.5 9t-2 14t3 18.5z" />
    <glyph glyph-name="utilde" unicode="&#x169;" 
d="M309 541q-11 0 -47.5 -26.5t-49.5 -26.5q-17 0 -31 14.5t-14 35.5q1 21 24 40q23 17 36 26.5t42 23.5t50 14q18 0 33 -7.5t21.5 -14.5t16.5 -20q9 -12 10 -12q12 0 49 27t51.5 27t28.5 -14.5t14 -34.5q0 -22 -22 -40q-81 -65 -129 -65q-19 0 -33.5 7.5t-21 14t-16.5 18.5
q-6 13 -12 13zM33 296q0 11 8.5 35t24.5 53.5t45 51.5t63 22q39 0 63 -27.5t23 -69.5q0 -23 -26 -100q-34 -99 -34 -135q-1 -39 21 -39q11 0 21 5t18.5 16.5t15.5 22.5t14 30t11.5 30.5t10.5 34t8 30.5t7 29q4 12 8.5 31t5.5 24q7 26 9.5 36.5t8 27.5t9 22.5t10 13t14 10
t17.5 2.5q17 0 31 -14t15 -34q0 -4 -2 -14t-3 -13l-65 -257q-3 -19 -3 -23l-1 -9q7 0 21 59q1 2 1 4q3 13 5 18.5t7.5 14.5t14.5 13t21 4h4q20 0 31 -9.5t13 -18t2 -18.5q0 -1 -1.5 -9.5t-5.5 -23.5t-10 -31.5t-16 -33.5t-22 -31t-29 -22.5t-37 -8.5q-45 0 -72 33
q-39 -33 -89 -33q-20 0 -38.5 6t-37 20t-29.5 41t-10 65q0 54 43 175q16 46 17 58q-7 -6 -15 -17q-10 -17 -19 -44q-4 -13 -7 -19.5t-8.5 -14t-14 -10.5t-21.5 -3q-15 0 -25.5 5t-14.5 13.5t-5.5 14t-0.5 11.5z" />
    <glyph glyph-name="Umacron" unicode="&#x16a;" 
d="M177 762q0 7 1.5 14t6.5 16t16 15t27 6h424q44 -3 43 -44q0 -10 -2.5 -19.5t-14 -20.5t-30.5 -11h-423q-48 0 -48 44zM132 598q4 16 11 25.5t17.5 13t16.5 4.5t17 1h122q58 0 46 -51q-9 -24 -27 -34t-35 -10h-15l-83 -327q-6 -28 -6 -50q0 -41 18.5 -63.5t44.5 -22.5
q37 0 78 38.5t59 106.5h-1l80 318h-8h-11t-10.5 1t-10.5 3t-8.5 5.5t-6.5 9t-2 14t3 18.5q4 16 11 25.5t17.5 13t16.5 4.5t17 1h122q58 0 46 -51q-17 -44 -62 -44h-17l-83 -331q-17 -62 -56.5 -114.5t-90 -82t-99.5 -29.5q-66 0 -107.5 47t-40.5 123q0 30 9 64l82 323h-8
h-11t-10.5 1t-10.5 3t-8.5 5.5t-6.5 9t-2 14t3 18.5z" />
    <glyph glyph-name="umacron" unicode="&#x16b;" 
d="M188 562q0 7 1.5 14t6 16.5t15.5 15t27 5.5h233q51 0 51 -46q-1 -50 -51 -50h-236q-27 0 -37.5 14.5t-9.5 30.5zM33 296q0 11 8.5 35t24.5 53.5t45 51.5t63 22q39 0 63 -27.5t23 -69.5q0 -23 -26 -100q-34 -99 -34 -135q-1 -39 21 -39q11 0 21 5t18.5 16.5t15.5 22.5
t14 30t11.5 30.5t10.5 34t8 30.5t7 29q4 12 8.5 31t5.5 24q7 26 9.5 36.5t8 27.5t9 22.5t10 13t14 10t17.5 2.5q17 0 31 -14t15 -34q0 -4 -2 -14t-3 -13l-65 -257q-3 -19 -3 -23l-1 -9q7 0 21 59q1 2 1 4q3 13 5 18.5t7.5 14.5t14.5 13t21 4h4q20 0 31 -9.5t13 -18t2 -18.5
q0 -1 -1.5 -9.5t-5.5 -23.5t-10 -31.5t-16 -33.5t-22 -31t-29 -22.5t-37 -8.5q-45 0 -72 33q-39 -33 -89 -33q-20 0 -38.5 6t-37 20t-29.5 41t-10 65q0 54 43 175q16 46 17 58q-7 -6 -15 -17q-10 -17 -19 -44q-4 -13 -7 -19.5t-8.5 -14t-14 -10.5t-21.5 -3q-15 0 -25.5 5
t-14.5 13.5t-5.5 14t-0.5 11.5z" />
    <glyph glyph-name="Ubreve" unicode="&#x16c;" 
d="M259 763q1 67 47 67q23 0 34 -14t10 -30q0 -2 -0.5 -5.5t-0.5 -4.5q-1 -4 -1 -11q0 -15 20 -25t50 -10q37 0 70.5 17t43.5 48l1.5 3l2 4t2.5 4.5t3 5t3.5 4.5t4.5 4.5t5 3.5t6.5 3t7.5 2t9 1q19 0 31.5 -12t11.5 -33q0 -17 -13 -41t-36.5 -49.5t-65 -43t-89.5 -17.5
q-71 0 -114.5 35.5t-42.5 93.5zM132 598q4 16 11 25.5t17.5 13t16.5 4.5t17 1h122q58 0 46 -51q-9 -24 -27 -34t-35 -10h-15l-83 -327q-6 -28 -6 -50q0 -41 18.5 -63.5t44.5 -22.5q37 0 78 38.5t59 106.5h-1l80 318h-8h-11t-10.5 1t-10.5 3t-8.5 5.5t-6.5 9t-2 14t3 18.5
q4 16 11 25.5t17.5 13t16.5 4.5t17 1h122q58 0 46 -51q-17 -44 -62 -44h-17l-83 -331q-17 -62 -56.5 -114.5t-90 -82t-99.5 -29.5q-66 0 -107.5 47t-40.5 123q0 30 9 64l82 323h-8h-11t-10.5 1t-10.5 3t-8.5 5.5t-6.5 9t-2 14t3 18.5z" />
    <glyph glyph-name="ubreve" unicode="&#x16d;" 
d="M184 608q1 25 12.5 43.5t36.5 18.5q19 0 31.5 -13t11.5 -32q0 -1 -0.5 -4t-0.5 -4v-6q0 -17 76 -17q33 0 55 4t33.5 12t16 12.5t10.5 14.5q6 13 9 17t12 9.5t22 5.5q19 0 32 -12.5t12 -32.5q0 -10 -4.5 -23.5t-18.5 -32.5t-35.5 -34.5t-59.5 -26.5t-86 -11t-82.5 10.5
t-51.5 28.5t-24 36t-7 37zM33 296q0 11 8.5 35t24.5 53.5t45 51.5t63 22q39 0 63 -27.5t23 -69.5q0 -23 -26 -100q-34 -99 -34 -135q-1 -39 21 -39q11 0 21 5t18.5 16.5t15.5 22.5t14 30t11.5 30.5t10.5 34t8 30.5t7 29q4 12 8.5 31t5.5 24q7 26 9.5 36.5t8 27.5t9 22.5
t10 13t14 10t17.5 2.5q17 0 31 -14t15 -34q0 -4 -2 -14t-3 -13l-65 -257q-3 -19 -3 -23l-1 -9q7 0 21 59q1 2 1 4q3 13 5 18.5t7.5 14.5t14.5 13t21 4h4q20 0 31 -9.5t13 -18t2 -18.5q0 -1 -1.5 -9.5t-5.5 -23.5t-10 -31.5t-16 -33.5t-22 -31t-29 -22.5t-37 -8.5
q-45 0 -72 33q-39 -33 -89 -33q-20 0 -38.5 6t-37 20t-29.5 41t-10 65q0 54 43 175q16 46 17 58q-7 -6 -15 -17q-10 -17 -19 -44q-4 -13 -7 -19.5t-8.5 -14t-14 -10.5t-21.5 -3q-15 0 -25.5 5t-14.5 13.5t-5.5 14t-0.5 11.5z" />
    <glyph glyph-name="Uring" unicode="&#x16e;" 
d="M294 677q1 63 50 112t106 49q45 0 72 -29t27 -74q-1 -59 -48.5 -110t-107.5 -51q-46 0 -72.5 30t-26.5 73zM382 693q0 -11 7.5 -18t18.5 -7q21 0 36.5 17t16.5 35q0 12 -7.5 19t-18.5 7q-20 0 -36.5 -16.5t-16.5 -36.5zM132 598q4 16 11 25.5t17.5 13t16.5 4.5t17 1h122
q58 0 46 -51q-9 -24 -27 -34t-35 -10h-15l-83 -327q-6 -28 -6 -50q0 -41 18.5 -63.5t44.5 -22.5q37 0 78 38.5t59 106.5h-1l80 318h-8h-11t-10.5 1t-10.5 3t-8.5 5.5t-6.5 9t-2 14t3 18.5q4 16 11 25.5t17.5 13t16.5 4.5t17 1h122q58 0 46 -51q-17 -44 -62 -44h-17l-83 -331
q-17 -62 -56.5 -114.5t-90 -82t-99.5 -29.5q-66 0 -107.5 47t-40.5 123q0 30 9 64l82 323h-8h-11t-10.5 1t-10.5 3t-8.5 5.5t-6.5 9t-2 14t3 18.5z" />
    <glyph glyph-name="uring" unicode="&#x16f;" 
d="M268 550q0 48 35.5 87.5t75.5 39.5q33 0 51.5 -22.5t17.5 -57.5q0 -48 -35.5 -87t-75.5 -39q-34 0 -52 22t-17 57zM362 595q-6 -16 -8 -43q6 17 8 43zM369 608q-3 -2 -7 -13v9q0 4 7 4zM353 544q0 -3 -8 -3q3 0 9 11zM33 296q0 11 8.5 35t24.5 53.5t45 51.5t63 22
q39 0 63 -27.5t23 -69.5q0 -23 -26 -100q-34 -99 -34 -135q-1 -39 21 -39q11 0 21 5t18.5 16.5t15.5 22.5t14 30t11.5 30.5t10.5 34t8 30.5t7 29q4 12 8.5 31t5.5 24q7 26 9.5 36.5t8 27.5t9 22.5t10 13t14 10t17.5 2.5q17 0 31 -14t15 -34q0 -4 -2 -14t-3 -13l-65 -257
q-3 -19 -3 -23l-1 -9q7 0 21 59q1 2 1 4q3 13 5 18.5t7.5 14.5t14.5 13t21 4h4q20 0 31 -9.5t13 -18t2 -18.5q0 -1 -1.5 -9.5t-5.5 -23.5t-10 -31.5t-16 -33.5t-22 -31t-29 -22.5t-37 -8.5q-45 0 -72 33q-39 -33 -89 -33q-20 0 -38.5 6t-37 20t-29.5 41t-10 65q0 54 43 175
q16 46 17 58q-7 -6 -15 -17q-10 -17 -19 -44q-4 -13 -7 -19.5t-8.5 -14t-14 -10.5t-21.5 -3q-15 0 -25.5 5t-14.5 13.5t-5.5 14t-0.5 11.5z" />
    <glyph glyph-name="Uhungarumlaut" unicode="&#x170;" 
d="M305 722q0 32 36 47l73 29q50 20 61 20q20 0 33 -15t13 -33q0 -17 -8 -29t-18 -17t-30 -13h-2l-63 -26q-38 -17 -53 -17q-23 0 -33 17t-9 37zM486 722q0 31 37 47l73 29q49 20 61 20q20 0 32.5 -15t12.5 -33q0 -13 -3.5 -22.5t-12.5 -16t-16.5 -10.5t-22.5 -10h-2
l-63 -26q-39 -17 -53 -17q-23 0 -33.5 17.5t-9.5 36.5zM132 598q4 16 11 25.5t17.5 13t16.5 4.5t17 1h122q58 0 46 -51q-9 -24 -27 -34t-35 -10h-15l-83 -327q-6 -28 -6 -50q0 -41 18.5 -63.5t44.5 -22.5q37 0 78 38.5t59 106.5h-1l80 318h-8h-11t-10.5 1t-10.5 3t-8.5 5.5
t-6.5 9t-2 14t3 18.5q4 16 11 25.5t17.5 13t16.5 4.5t17 1h122q58 0 46 -51q-17 -44 -62 -44h-17l-83 -331q-17 -62 -56.5 -114.5t-90 -82t-99.5 -29.5q-66 0 -107.5 47t-40.5 123q0 30 9 64l82 323h-8h-11t-10.5 1t-10.5 3t-8.5 5.5t-6.5 9t-2 14t3 18.5z" />
    <glyph glyph-name="uhungarumlaut" unicode="&#x171;" 
d="M387 561v1q1 12 7.5 21.5t12 13.5t15.5 10h3h-3l48 23q78 40 91 40q18 0 31.5 -14.5t14.5 -35.5q0 -33 -37 -52l-66 -32q-63 -33 -71 -33q-24 0 -35.5 20t-10.5 38zM202 561v1q1 12 7.5 21.5t12 13.5t15.5 10h3h-3l47 23q54 27 68.5 33.5t22.5 6.5q19 0 32.5 -14.5
t14.5 -35.5q0 -33 -37 -52l-67 -32q-62 -33 -71 -33q-24 0 -35 20t-10 38zM33 296q0 11 8.5 35t24.5 53.5t45 51.5t63 22q39 0 63 -27.5t23 -69.5q0 -23 -26 -100q-34 -99 -34 -135q-1 -39 21 -39q11 0 21 5t18.5 16.5t15.5 22.5t14 30t11.5 30.5t10.5 34t8 30.5t7 29
q4 12 8.5 31t5.5 24q7 26 9.5 36.5t8 27.5t9 22.5t10 13t14 10t17.5 2.5q17 0 31 -14t15 -34q0 -4 -2 -14t-3 -13l-65 -257q-3 -19 -3 -23l-1 -9q7 0 21 59q1 2 1 4q3 13 5 18.5t7.5 14.5t14.5 13t21 4h4q20 0 31 -9.5t13 -18t2 -18.5q0 -1 -1.5 -9.5t-5.5 -23.5t-10 -31.5
t-16 -33.5t-22 -31t-29 -22.5t-37 -8.5q-45 0 -72 33q-39 -33 -89 -33q-20 0 -38.5 6t-37 20t-29.5 41t-10 65q0 54 43 175q16 46 17 58q-7 -6 -15 -17q-10 -17 -19 -44q-4 -13 -7 -19.5t-8.5 -14t-14 -10.5t-21.5 -3q-15 0 -25.5 5t-14.5 13.5t-5.5 14t-0.5 11.5z" />
    <glyph glyph-name="Wcircumflex" unicode="&#x174;" 
d="M252 696q0 17 12.5 28.5t56.5 38.5l75 49q33 23 48 23q12 0 23 -8t34 -31l25 -24q44 -41 51.5 -51t7.5 -25q0 -19 -17.5 -36.5t-34.5 -17.5q-13 0 -24.5 9.5t-56.5 57.5l-17 17q-5 -4 -14.5 -9.5t-14.5 -8.5q-70 -50 -83.5 -58t-24.5 -8q-21 0 -33.5 18t-12.5 36z
M138 597q2 7 4 9q5 12 12 20t17 11t16 4t16 1h75q6 0 9.5 -0.5l10.5 -1.5t10.5 -2.5t8 -5.5t6 -9.5t2 -13.5t-2.5 -19q-4 -15 -11 -24.5t-17 -13t-16.5 -4.5t-16.5 -1h-9l-42 -336q63 145 73 159q21 29 58 29q44 0 48 -38q0 -16 -1 -35q-1 -15 -1 -38.5t-1 -40t-3 -36.5
q2 6 6 17.5t5 13.5l116 305h-1q-57 0 -46 50q17 45 62 45h75q6 0 9.5 -0.5l10.5 -1.5t10 -2.5t9 -5.5t6.5 -9.5t2 -13.5t-2.5 -19q-11 -43 -47 -43l-196 -509q-17 -46 -62 -46q-47 0 -49 41q2 152 7 182q-17 -37 -39.5 -84.5t-37.5 -78t-17 -33.5q-19 -27 -55 -27
q-50 0 -45 54l59 502q-37 5 -25 49z" />
    <glyph glyph-name="wcircumflex" unicode="&#x175;" 
d="M279 503q-23 -18 -41 -18q-21 0 -34 19t-13 37q1 20 12.5 30.5t77.5 49.5l75 44q14 9 29 9q9 0 15.5 -4t32.5 -25q12 -10 19 -16l1 1q2 -2 24 -21t33 -27q22 -18 21 -41q0 -18 -17.5 -37t-35.5 -19q-12 0 -20 5.5t-42 37.5l-40 37q-79 -52 -100 -65zM439 346q0 15 -6 31
t-6 28q0 21 21 36.5t39 15.5q52 0 51 -82q0 -41 -24 -142t-48 -148q-44 -90 -118 -90q-57 0 -91 42q-36 -42 -86 -42q-21 0 -41 6t-40 20t-32 42.5t-11 67.5q0 25 6.5 54.5t11.5 43t17 44.5q20 52 20 72q0 14 -5 14l-4 1q-16 4 -24.5 16.5t-8.5 28.5q0 20 12.5 33.5
t33.5 13.5q32 0 62 -25t29 -75q0 -38 -28 -109.5t-28 -107.5q-1 -48 32 -48q28 0 51.5 74.5t51.5 238.5q2 8 6.5 17t17 22t26.5 13q18 0 32 -14.5t14 -29.5q0 -17 -21 -109q-32 -139 -32 -167q-1 -45 31 -45q18 0 34.5 42.5t36.5 118.5l3 11q15 49 15 87z" />
    <glyph glyph-name="Ycircumflex" unicode="&#x176;" 
d="M252 696q0 17 12.5 28.5t56.5 38.5l75 49q33 23 48 23q12 0 23 -8t34 -31l25 -24q44 -41 51.5 -51t7.5 -25q0 -19 -17.5 -36.5t-34.5 -17.5q-13 0 -24.5 9.5t-56.5 57.5l-17 17q-5 -4 -14.5 -9.5t-14.5 -8.5q-70 -50 -83.5 -58t-24.5 -8q-21 0 -33.5 18t-12.5 36z
M146 598q4 16 11.5 25.5t17.5 13t16 4.5t17 1h98q57 0 45 -51q-12 -35 -47 -43q33 -137 32 -171q15 21 54 77.5t64 93.5q-32 8 -22 50q4 16 11.5 25.5t17.5 13t16 4.5t17 1h98q6 0 10 -0.5t11 -1.5t10.5 -2.5t8 -5.5t6 -9.5t2 -13.5t-2.5 -19q-4 -15 -11 -24.5t-17 -13
t-16.5 -4.5t-16.5 -1h-11q-13 -18 -210 -294l-40 -159h3h10.5t10.5 -1t11 -2.5t8.5 -5.5t6 -9.5t1.5 -13.5t-2 -19q-5 -15 -12 -24.5t-17 -13t-16.5 -4.5t-16.5 -1h-113h-10.5t-10 1t-10.5 3t-8 5.5t-6 9t-2 14t3 18.5q3 16 10.5 25.5t17.5 13t16.5 4t16.5 0.5h10
q7 29 21 82.5t21 82.5l-60 288h-6h-11t-10.5 1t-10.5 3t-8.5 5.5t-6 9t-1.5 14t2 18.5z" />
    <glyph glyph-name="ycircumflex" unicode="&#x177;" 
d="M293 503q-23 -18 -41 -18q-21 0 -34 19t-13 37q1 20 12.5 30.5t77.5 49.5l75 44q14 9 29 9q9 0 15.5 -4t32.5 -25q12 -10 19 -16l1 1q2 -2 24 -21t33 -27q22 -18 21 -41q0 -18 -17.5 -37t-35.5 -19q-12 0 -20 5.5t-42 37.5l-40 37q-79 -52 -100 -65zM32 296q0 12 10 37
t27 54t47.5 50t64.5 21q41 0 67 -29t25 -71q0 -25 -26 -96q-34 -88 -34 -132q-1 -22 8 -32.5t23 -10.5t26.5 7t23.5 21t20 29t17.5 38.5t14.5 41.5t13 45t10.5 42t9.5 40q12 58 21 74q17 27 44 27q18 0 32 -14t14 -35l-5 -26l-89 -353q-15 -61 -40.5 -107.5t-50.5 -71.5
t-54 -40.5t-48.5 -20t-37.5 -4.5q-48 0 -79.5 30t-30.5 79q0 39 19.5 58.5t45.5 19.5q22 0 37 -14.5t15 -39.5q0 -18 -12 -39q2 -2 11 -2q32 0 66.5 35.5t53.5 95.5q-19 -8 -49 -8q-21 0 -41.5 6t-41 20.5t-32.5 43t-11 67.5q0 54 44 174q17 47 17 54v3q-24 0 -46 -64
q-5 -13 -7.5 -19t-8.5 -14t-14.5 -11t-21.5 -3q-28 0 -38 13.5t-9 30.5z" />
    <glyph glyph-name="Ydieresis" unicode="&#x178;" 
d="M468 760q0 27 21.5 48.5t47.5 21.5q25 0 41 -18t16 -42q0 -28 -21 -49.5t-46.5 -21.5t-42 18t-16.5 43zM279 760q0 27 20.5 48.5t48.5 21.5q24 0 40 -16.5t16 -42.5q0 -28 -20.5 -50t-46.5 -22q-24 0 -41 17t-17 44zM146 598q4 16 11.5 25.5t17.5 13t16 4.5t17 1h98
q57 0 45 -51q-12 -35 -47 -43q33 -137 32 -171q15 21 54 77.5t64 93.5q-32 8 -22 50q4 16 11.5 25.5t17.5 13t16 4.5t17 1h98q6 0 10 -0.5t11 -1.5t10.5 -2.5t8 -5.5t6 -9.5t2 -13.5t-2.5 -19q-4 -15 -11 -24.5t-17 -13t-16.5 -4.5t-16.5 -1h-11q-13 -18 -210 -294l-40 -159
h3h10.5t10.5 -1t11 -2.5t8.5 -5.5t6 -9.5t1.5 -13.5t-2 -19q-5 -15 -12 -24.5t-17 -13t-16.5 -4.5t-16.5 -1h-113h-10.5t-10 1t-10.5 3t-8 5.5t-6 9t-2 14t3 18.5q3 16 10.5 25.5t17.5 13t16.5 4t16.5 0.5h10q7 29 21 82.5t21 82.5l-60 288h-6h-11t-10.5 1t-10.5 3t-8.5 5.5
t-6 9t-1.5 14t2 18.5z" />
    <glyph glyph-name="Zacute" unicode="&#x179;" 
d="M355 722q0 32 36 47l73 29q49 20 61 20q20 0 33 -15t13 -33q0 -13 -4 -22.5t-13 -16.5t-16.5 -10.5t-22.5 -9.5h-2l-63 -26q-38 -17 -53 -17q-23 0 -33 17t-9 37zM82 0q-9 0 -14 0.5t-13 1.5t-12 4.5t-7.5 9.5t-3 15.5t4.5 23.5l-1 1q7 21 22 37q64 71 200.5 224
t206.5 230h-195l-11 -40q-4 -14 -6.5 -20t-8.5 -15.5t-17 -13.5t-27 -4q-15 0 -24 4t-13 8.5t-4 15.5t1 15.5t4 18.5l18 72h-1q8 32 21 43t45 11h316q9 0 14 -0.5t13 -2t11.5 -5t7 -10t3 -16.5t-4.5 -24q-9 -22 -20 -36l-406 -454h210l16 59q2 13 5 20.5t8.5 16t16.5 13
t27 4.5q15 0 24.5 -4t13.5 -9t4 -15t-1 -16t-4 -18h1q-3 -14 -11.5 -45t-11.5 -46q-9 -33 -21.5 -43.5t-42.5 -10.5h-333z" />
    <glyph glyph-name="zacute" unicode="&#x17a;" 
d="M323 561v1q0 12 6.5 21.5t12.5 13.5t16 10h2h-2l47 23q78 40 91 40q19 0 32 -14.5t14 -35.5q0 -34 -37 -52l-66 -32q-62 -33 -71 -33q-24 0 -35 20t-10 38zM227 127q7 -3 22.5 -11t29 -13.5t24.5 -5.5q17 0 38 16q28 25 42 62q5 14 7.5 19t8 12.5t13.5 9.5t20 2h4
q24 0 34 -14t10 -30q0 -17 -13.5 -46t-36 -59t-58.5 -52t-75 -22q-33 0 -80 30q-25 18 -38 18q-22 0 -39 -21q-8 -10 -12.5 -14t-14.5 -8.5t-23 -4.5q-25 0 -36 13.5t-11 30.5q1 12 13 33v-1q22 35 58.5 75.5t55.5 58.5t71 66q12 11 33 29.5t36 33.5l-15 8q-20 13 -36 13
q-14 0 -28.5 -12.5t-21.5 -31.5q-12 -39 -46 -39h-4q-46 0 -45 43q0 23 18 55.5t54 60t76 27.5q6 0 11.5 -0.5t10 -1.5t9.5 -3t8.5 -3t8.5 -3.5t7.5 -4t8 -5t7 -4.5t7 -4.5t6.5 -4.5q22 -14 28 -14l9 11q6 11 11 17.5t16.5 13t25.5 6.5q23 0 34.5 -14t11.5 -31
q0 -20 -40 -73t-115 -121l-79 -70z" />
    <glyph glyph-name="Zdotaccent" unicode="&#x17b;" 
d="M365 714q0 28 21.5 49t45.5 21t41 -17t17 -44q-1 -27 -21 -48t-47 -21q-24 0 -41 17t-16 43zM82 0q-9 0 -14 0.5t-13 1.5t-12 4.5t-7.5 9.5t-3 15.5t4.5 23.5l-1 1q7 21 22 37q64 71 200.5 224t206.5 230h-195l-11 -40q-4 -14 -6.5 -20t-8.5 -15.5t-17 -13.5t-27 -4
q-15 0 -24 4t-13 8.5t-4 15.5t1 15.5t4 18.5l18 72h-1q8 32 21 43t45 11h316q9 0 14 -0.5t13 -2t11.5 -5t7 -10t3 -16.5t-4.5 -24q-9 -22 -20 -36l-406 -454h210l16 59q2 13 5 20.5t8.5 16t16.5 13t27 4.5q15 0 24.5 -4t13.5 -9t4 -15t-1 -16t-4 -18h1q-3 -14 -11.5 -45
t-11.5 -46q-9 -33 -21.5 -43.5t-42.5 -10.5h-333z" />
    <glyph glyph-name="zdotaccent" unicode="&#x17c;" 
d="M321 570q0 29 21.5 50.5t48.5 21.5q24 0 41 -18t17 -44q0 -29 -22 -50.5t-48 -21.5q-24 0 -41.5 18t-16.5 44zM227 127q7 -3 22.5 -11t29 -13.5t24.5 -5.5q17 0 38 16q28 25 42 62q5 14 7.5 19t8 12.5t13.5 9.5t20 2h4q24 0 34 -14t10 -30q0 -17 -13.5 -46t-36 -59
t-58.5 -52t-75 -22q-33 0 -80 30q-25 18 -38 18q-22 0 -39 -21q-8 -10 -12.5 -14t-14.5 -8.5t-23 -4.5q-25 0 -36 13.5t-11 30.5q1 12 13 33v-1q22 35 58.5 75.5t55.5 58.5t71 66q12 11 33 29.5t36 33.5l-15 8q-20 13 -36 13q-14 0 -28.5 -12.5t-21.5 -31.5q-12 -39 -46 -39
h-4q-46 0 -45 43q0 23 18 55.5t54 60t76 27.5q6 0 11.5 -0.5t10 -1.5t9.5 -3t8.5 -3t8.5 -3.5t7.5 -4t8 -5t7 -4.5t7 -4.5t6.5 -4.5q22 -14 28 -14l9 11q6 11 11 17.5t16.5 13t25.5 6.5q23 0 34.5 -14t11.5 -31q0 -20 -40 -73t-115 -121l-79 -70z" />
    <glyph glyph-name="Zcaron" unicode="&#x17d;" 
d="M284 771q0 18 13.5 31.5t33.5 13.5q6 0 13 -4t25.5 -23.5t46.5 -56.5q11 9 33 24t29 21q5 4 13 10q27 21 34 25t17 4q17 0 29.5 -13.5t12.5 -31.5q0 -21 -23 -41q-67 -55 -98.5 -79t-40 -28.5t-16.5 -4.5q-15 0 -24 8.5t-31 38.5q-17 25 -42 57q-25 31 -25 49zM82 0
q-9 0 -14 0.5t-13 1.5t-12 4.5t-7.5 9.5t-3 15.5t4.5 23.5l-1 1q7 21 22 37q64 71 200.5 224t206.5 230h-195l-11 -40q-4 -14 -6.5 -20t-8.5 -15.5t-17 -13.5t-27 -4q-15 0 -24 4t-13 8.5t-4 15.5t1 15.5t4 18.5l18 72h-1q8 32 21 43t45 11h316q9 0 14 -0.5t13 -2t11.5 -5
t7 -10t3 -16.5t-4.5 -24q-9 -22 -20 -36l-406 -454h210l16 59q2 13 5 20.5t8.5 16t16.5 13t27 4.5q15 0 24.5 -4t13.5 -9t4 -15t-1 -16t-4 -18h1q-3 -14 -11.5 -45t-11.5 -46q-9 -33 -21.5 -43.5t-42.5 -10.5h-333z" />
    <glyph glyph-name="zcaron" unicode="&#x17e;" 
d="M238 623q1 17 13.5 32t30.5 15q13 0 26 -10t44 -44l23 -22q29 18 51 35q3 2 8 5q53 36 67 36q17 0 30.5 -14t12.5 -32q0 -25 -26 -44l-72 -52q-9 -6 -19.5 -14t-16 -11.5t-11.5 -8t-9 -6t-6.5 -3.5t-6 -2.5t-5.5 -1t-6 -0.5q-15 0 -36 19l-37 42q-36 40 -45.5 53.5
t-9.5 27.5zM227 127q7 -3 22.5 -11t29 -13.5t24.5 -5.5q17 0 38 16q28 25 42 62q5 14 7.5 19t8 12.5t13.5 9.5t20 2h4q24 0 34 -14t10 -30q0 -17 -13.5 -46t-36 -59t-58.5 -52t-75 -22q-33 0 -80 30q-25 18 -38 18q-22 0 -39 -21q-8 -10 -12.5 -14t-14.5 -8.5t-23 -4.5
q-25 0 -36 13.5t-11 30.5q1 12 13 33v-1q22 35 58.5 75.5t55.5 58.5t71 66q12 11 33 29.5t36 33.5l-15 8q-20 13 -36 13q-14 0 -28.5 -12.5t-21.5 -31.5q-12 -39 -46 -39h-4q-46 0 -45 43q0 23 18 55.5t54 60t76 27.5q6 0 11.5 -0.5t10 -1.5t9.5 -3t8.5 -3t8.5 -3.5t7.5 -4
t8 -5t7 -4.5t7 -4.5t6.5 -4.5q22 -14 28 -14l9 11q6 11 11 17.5t16.5 13t25.5 6.5q23 0 34.5 -14t11.5 -31q0 -20 -40 -73t-115 -121l-79 -70z" />
    <glyph glyph-name="longs" unicode="&#x17f;" 
d="M-5 -134q2 31 19.5 50.5t43.5 19.5q22 0 37.5 -15.5t15.5 -39.5q0 -3 1 -4.5t-2 -4.5h2q10 0 19 10t17 30.5t14.5 41t13 52.5t11 54t9.5 54q9 49 25 139t19 106h-42q-23 0 -34 12.5t-11 31.5q0 49 48 49h55q6 40 10.5 62t14.5 48.5t24 39t37.5 21.5t57.5 9q66 0 94 -25
t28 -61q-1 -32 -19 -51t-43 -19q-24 0 -39 15t-15 39q0 4 -1 4.5t1 4.5q-1 0 -4.5 0.5t-4.5 0.5q-18 -1 -25 -14.5t-14 -59.5l-7 -34q-55 -302 -75 -413q-17 -83 -28.5 -116.5t-28.5 -57.5q-44 -67 -110 -67q-50 0 -81.5 24t-32.5 64z" />
    <glyph glyph-name="uni0186" unicode="&#x186;" 
d="M28 32q0 6 21.5 92t25.5 93q7 17 16 21.5t27 4.5h4q8 0 14.5 -1.5t14 -6t12 -14.5t3.5 -26q0 -2 -0.5 -8t-0.5 -9q-1 -5 -1 -13v-17q0 -7 1.5 -16.5t5 -21t12.5 -19t22 -7.5q43 0 89.5 54t76.5 135t31 156q1 60 -15 93.5t-43.5 33.5t-54.5 -22t-41 -50q-6 -9 -14 -32.5
t-18.5 -35t-31.5 -11.5h-4q-23 0 -35.5 14.5t-12.5 29.5q1 13 9.5 36.5t27 52t43.5 54t61.5 42.5t76.5 17q69 0 110.5 -60.5t40.5 -157.5q-1 -108 -45.5 -212t-113 -168.5t-137.5 -64.5q-49 0 -86 32q-13 -19 -21.5 -25.5t-24.5 -6.5q-19 0 -32 13.5t-13 30.5z" />
    <glyph glyph-name="uni018F" unicode="&#x18f;" 
d="M19 201v1q2 34 10.5 80t19.5 58q10 10 18.5 12t25.5 2h350q5 31 5 51q1 76 -31 113.5t-77 37.5q-54 0 -110 -52q-29 -35 -38 -59q-8 -15 -12 -20.5t-13.5 -10t-24.5 -4.5q-47 0 -47 47q2 9 4 22l15 64q19 76 28 92.5t36 16.5q31 0 41 -36q62 36 124 36q92 0 148.5 -69.5
t55.5 -177.5q-1 -99 -49.5 -195.5t-127.5 -158t-162 -61.5q-26 0 -50.5 5t-50.5 20t-45 37.5t-31 61t-12 87.5zM118 198q0 -60 25.5 -87t66.5 -27q58 0 115 52.5t88 121.5h-289q-5 -33 -6 -60zM126 266l-2 -8h-13l16 17l-0.5 -4t-0.5 -5z" />
    <glyph glyph-name="uni0190" unicode="&#x190;" 
d="M37 155q1 55 35 105t93 82q-35 40 -35 99q1 85 78.5 148t181.5 63q91 0 150.5 -40.5t58.5 -111.5q-1 -47 -21 -66.5t-45 -19.5q-24 0 -39.5 15.5t-14.5 40.5q0 27 18 46q-22 40 -108 40q-64 0 -112 -35.5t-49 -81.5q0 -23 16 -41t58 -18h50q49 0 48 -46q0 -10 -3.5 -19
t-15.5 -18.5t-32 -10.5h-42q-43 0 -78 -14.5t-54 -35.5t-29 -42t-10 -39q-1 -30 23 -50t68 -20q61 0 121 28.5t80 77.5q6 14 8 19t8 12.5t14.5 10t21.5 2.5q27 0 37.5 -15t10.5 -33q-2 -25 -16 -52t-41 -53t-62.5 -46.5t-84 -33t-100.5 -12.5q-82 0 -135 45.5t-52 119.5z
" />
    <glyph glyph-name="florin" unicode="&#x192;" 
d="M-5 -134q1 33 20.5 51.5t42.5 18.5q21 0 37.5 -15.5t16.5 -40.5l-1 -8h1q4 0 13 5q24 24 42 99t62 321l10 62h-42q-23 1 -33.5 14t-10.5 31q0 7 1.5 13t5.5 15t15 14.5t26 5.5h55q5 28 7.5 44.5t8.5 38.5t12 34t16.5 26t24 21t32.5 11.5t43 4.5q22 0 42 -4t39 -13t30 -27
t10 -43q0 -29 -17 -49t-44 -20q-25 0 -39.5 15t-14.5 39q0 4 -1 4.5t1 4.5q-1 0 -4.5 0.5t-4.5 0.5q-18 0 -25.5 -17t-15.5 -63q0 -6 -1 -8h57q25 0 36.5 -12.5t11.5 -32.5q0 -9 -3 -18.5t-15 -19.5t-33 -10h-71q-49 -292 -71.5 -386t-47.5 -128q-46 -65 -108 -65
q-19 0 -37.5 3.5t-37 12.5t-30 27t-11.5 43z" />
    <glyph glyph-name="Ohorn" unicode="&#x1a0;" 
d="M69 90q1 86 70 332l1 2q14 51 24.5 82t25 59.5t29 43t36.5 25.5t48.5 14.5t64.5 3.5q78 0 104 -14q-7 13 -7 31q0 27 20.5 49.5t49.5 22.5q27 0 41.5 -19t14.5 -48q0 -33 -21 -70t-52 -56q-1 -56 -45 -234q-18 -74 -31.5 -119.5t-30 -85.5t-32.5 -60.5t-40 -35t-51.5 -19
t-67.5 -4.5h-8q-82 0 -113 20.5t-30 79.5zM174 123q0 -19 12.5 -29t44.5 -10q27 0 45 7t30.5 25t19.5 35.5t17 51.5q20 60 46 168t26 150q1 35 -57 35q-31 0 -51.5 -9.5t-27.5 -20t-14 -27.5q-20 -48 -55 -186t-36 -190z" />
    <glyph glyph-name="ohorn" unicode="&#x1a1;" 
d="M75 169q1 70 35 137.5t90 109.5t114 42q31 0 69 -20q2 1 11 3q9 0 10 3q-11 13 -10 35q0 26 20 48t49 22q24 0 39.5 -18t15.5 -46q-1 -30 -19 -66.5t-53 -56.5q14 -38 13 -80q0 -71 -35.5 -138.5t-91 -108t-111.5 -40.5q-65 0 -106 49.5t-40 124.5zM172 166
q0 -32 12 -55.5t38 -23.5q49 0 94.5 61t46.5 138q1 35 -13.5 56.5t-38.5 21.5q-47 0 -92.5 -61t-46.5 -137z" />
    <glyph glyph-name="Uhorn" unicode="&#x1af;" 
d="M89 160q0 34 14 80l2 15l74 291q-45 2 -45 46q1 50 53 50h111q28 0 38 -15t10 -32q0 -49 -53 -49h-13q-3 -9 -9.5 -32.5t-11.5 -49.5l-60 -234q-11 -35 -11 -74q-1 -31 9 -51t27 -20q23 0 52 26q48 47 71 136q1 2 1 4l74 295q-44 2 -44 46q0 7 1.5 14t6.5 16t16 14.5
t27 5.5h60q6 0 14 -3q-6 15 -6 30q0 29 21 50.5t49 21.5q25 0 41 -18.5t16 -47.5q0 -35 -24.5 -72.5t-78.5 -57.5l-9 -38h1q-4 -15 -28 -112.5t-38.5 -152.5t-19.5 -68q-30 -77 -88 -130.5t-117 -53.5q-60 0 -97 47.5t-36 122.5z" />
    <glyph glyph-name="uhorn" unicode="&#x1b0;" 
d="M33 295q0 12 9 37t25 54t45 50.5t62 21.5q39 0 63 -28.5t23 -69.5q0 -24 -26 -99q-33 -100 -34 -135q0 -39 22 -39q15 0 29 11t25.5 33t20.5 43.5t18 55t14.5 54.5t12.5 54q15 66 24 85q16 29 44 29q6 0 16 -5q-1 1 0 1v-1l1 1q-5 15 -5 31q0 27 20 48.5t48 21.5
q24 0 39.5 -18t15.5 -46q-1 -35 -24.5 -71.5t-73.5 -55.5l-25 -94l-14 -56t-11.5 -47.5t-10 -43.5t-3.5 -20v-3q0 2 1 3v-1q7 12 19 49q4 17 6 23.5t7.5 16t14 13t21.5 3.5h4q46 0 46 -45q0 -7 -6.5 -30t-19 -54t-38 -54t-57.5 -23q-45 0 -72 33q-39 -33 -89 -33
q-20 0 -38.5 6t-37 19.5t-29.5 41t-10 65.5q0 10 1 22t2.5 21t5 23t5 21t6.5 22.5t6.5 20t7 21.5t6.5 19q17 43 20 64q-20 -12 -38 -74q-1 -2 -2.5 -5.5t-3 -6t-2.5 -3.5l3 3q-14 -24 -42 -24q-19 0 -33.5 12t-13.5 32z" />
    <glyph glyph-name="uni01B7" unicode="&#x1b7;" 
d="M18 121q1 49 21 69t46 20q25 0 39.5 -16.5t14.5 -40.5q0 -23 -18 -45q17 -23 91 -23t127 44t54 91q0 31 -28.5 52t-78.5 21q-23 0 -29 -2l-0.5 -0.5t-1.5 -0.5q-6 -4 -27 -4q-45 0 -44 38q0 34 32 54l-3 -2q37 30 69.5 57t72 60.5t69.5 57.5h-201q-1 -2 -2 -6l-18 -75
q-3 -12 -7 -20.5t-15.5 -17t-29.5 -8.5q-49 0 -48 45q0 9 11 52h-1q2 10 9 36.5t11 40.5q7 25 17.5 34.5t33.5 9.5h357q46 0 45 -39q0 -31 -28 -56l-192 -161q58 -16 92 -58t34 -104q-1 -43 -23 -85.5t-59 -75.5t-90 -53t-110 -20q-193 0 -192 131z" />
    <glyph glyph-name="uni01C4" unicode="&#x1c4;" 
d="M402 790q2 17 12.5 30.5t22.5 13.5q3 0 6 -0.5t5 -2t3.5 -2.5t3 -4t2.5 -4.5t3 -6.5t2.5 -7.5t2.5 -9t3 -11.5l2 -10v1l4 -18l36 43q16 22 21 27t15 5t18 -12.5t7 -34t-16 -39.5q-4 -5 -12.5 -16t-12.5 -16q-10 -13 -25 -33q-27 -38 -33.5 -44.5t-15.5 -6.5t-15 6
t-7.5 10.5t-3.5 13.5l-16 65q-13 46 -12 63zM254 517q-1 -81 -22.5 -174.5t-52 -168t-67 -124.5t-66.5 -50h-80q-11 0 -13 22t4 45.5t16 26.5l114 473l2 -3q-5 22 2.5 50t18.5 28h86q60 0 58 -125zM41 96h11q9 0 20 13q32 44 64 135.5t44 180.5q3 22 4 61q1 60 -12 60h-19z
M223 0q-12 0 -19.5 9.5t-6 29.5t14.5 46l234 461h-51q-12 -45 -19.5 -64.5t-13.5 -24t-18 -4.5q-28 0 -29.5 25.5t16.5 86.5l9 35h-1q5 19 12.5 29t13 11.5t13.5 1.5h135q22 0 26 -23.5t-14 -64.5l-235 -458h59l5 17q15 63 23 79t25 16q31 0 31 -29t-19 -92l1 1
q-2 -7 -5.5 -22.5t-4.5 -22.5q-7 -26 -16 -34.5t-24 -8.5h-142z" />
    <glyph glyph-name="uni01C5" unicode="&#x1c5;" 
d="M374 580v1q-10 31 3 52.5t27 21.5q12 0 18.5 -10.5t19.5 -48.5l1 -1q0 1 1 -1q0 -1 1 -3q9 9 16 20q4 4 9.5 10.5t8 9.5t7 8t7.5 7t6 4.5t6 3.5t6 1q10 0 17.5 -12.5t6 -33t-15.5 -39.5q-37 -44 -46 -56q-25 -31 -31.5 -37t-15.5 -6q-13 0 -18.5 10t-19.5 53
q-11 37 -14 46zM261 505q-1 -79 -21.5 -170.5t-50.5 -164.5t-66 -121.5t-65 -48.5h-78q-11 0 -13 22t3.5 44.5t15.5 25.5l114 457q-6 20 1.5 49.5t17.5 29.5h85q58 0 57 -123zM53 93h10q9 0 22 14q30 43 61 132t43 178q3 44 4 62q0 55 -12 55h-18q-19 -77 -55 -220t-55 -221
zM324 125q2 -2 8.5 -10t11.5 -13t8 -5q5 0 13 14q16 24 30 62q6 18 8.5 25t10.5 13.5t20 6.5q16 0 22 -14.5t4 -31.5q-3 -24 -19.5 -64t-44.5 -76.5t-55 -36.5q-12 0 -21.5 6.5t-12.5 11l-11 16.5q-2 3 -4 6.5t-3.5 5.5l-1.5 2q-6 0 -15 -19q-1 -2 -4.5 -7t-5 -7t-4.5 -5.5
t-5.5 -5.5t-6.5 -3t-9 -1q-18 0 -25.5 20.5t7.5 54.5l-1 -1q32 75 116 198q4 6 20.5 30t25.5 40l-14 18q-9 0 -23 -41q0 -1 -0.5 -2.5l-0.5 -1.5q-7 -38 -36 -38q-15 7 -9.5 48t31 89.5t48.5 48.5q12 0 22 -7t14 -13t11 -19q0 -1 0.5 -1.5l0.5 -0.5l2 2q5 12 8 18.5t11 13.5
t17 7q16 0 23.5 -15t5.5 -33q-3 -19 -30 -71t-71 -117z" />
    <glyph glyph-name="uni01C6" unicode="&#x1c6;" 
d="M445 591q5 5 21 24t27.5 29.5t18.5 10.5q9 0 17 -12.5t6.5 -33t-16.5 -39.5q-8 -9 -17.5 -21t-16 -20t-11.5 -15q-26 -31 -32.5 -37t-15.5 -6q-12 0 -18 10t-20 53q-2 12 -13 46v1q-10 31 2.5 52.5t26.5 21.5q13 0 19.5 -10.5t18.5 -48.5l1 -1q0 1 1 -1q0 -1 1 -3z
M-9 110q1 75 26.5 157.5t62 136.5t66.5 54q17 0 28 -12l23 88h-3q-10 0 -12.5 23.5t4.5 47t17 23.5h42q33 0 29 -50l-95 -385q7 8 16 8q16 0 23 -15t7 -33q-4 -16 -10 -35t-17.5 -50.5t-27.5 -52t-33 -20.5q-27 0 -38 30q-26 -30 -52 -30q-27 0 -41.5 31.5t-14.5 83.5z
M137 364q-12 0 -31.5 -40.5t-34.5 -100t-16 -105.5v-30q18 0 44 66t36 142q3 24 3 38q0 30 -1 30zM424 417q1 2 4 9t4.5 10t5 8t6.5 7.5t8 4.5t10 2q17 0 24 -15t4 -33q-3 -20 -29.5 -71.5t-70.5 -116.5l-67 -97q3 -2 7.5 -8t7.5 -8q10 -12 14 -12q3 0 13 14q16 24 30 62
q6 18 8.5 25t10.5 13.5t20 6.5q16 0 21.5 -14.5t3.5 -31.5q-3 -24 -19 -64.5t-44 -76.5t-55 -36q-12 0 -21.5 6t-13 11.5t-11.5 16.5l-8 14q-5 0 -16 -19q0 -1 -3 -5.5t-3.5 -5.5t-3 -4.5t-4 -4.5t-4 -3.5t-5 -3.5t-5.5 -1.5t-6 -0.5q-18 0 -25.5 20t6.5 54q19 45 46.5 90.5
t62.5 96.5t53 81q-2 1 -5 5.5t-6 8.5t-4 4q-4 0 -10.5 -12t-11.5 -29q0 -1 -0.5 -2.5l-0.5 -1.5q-3 -11 -5 -16.5t-10 -13.5t-21 -8q-15 7 -9.5 48t30.5 89.5t48 48.5q10 0 17 -3t13.5 -11t8.5 -11t9 -14q0 -1 0.5 -1.5z" />
    <glyph glyph-name="uni01C7" unicode="&#x1c7;" 
d="M-19 0q-14 0 -21.5 12t-7.5 30q1 20 11.5 37t27.5 17h3l112 452q-19 8 -19 39q0 21 11 38t29 17h67q15 0 22.5 -12t7.5 -29q0 -21 -10.5 -38t-28.5 -17h-10q-19 -76 -56.5 -222t-57.5 -228h54q13 54 21 76t14 27.5t19 5.5q28 0 28.5 -27t-15.5 -82l1 1q-1 -8 -5.5 -22
t-5.5 -21q0 -2 -0.5 -5t-0.5 -4q-5 -22 -12.5 -33t-25.5 -12h-152zM276 180q12 0 22 -13.5t10 -34.5q-1 -21 -12 -46q1 -1 4 -1q11 0 25 20t25 61l94 380h-3q-8 0 -13.5 1.5t-11 5.5t-8 14.5t-0.5 26.5q3 20 11 31.5t14 14t12 2.5h76q11 0 13.5 -24t-4.5 -48t-18 -24
q-12 -45 -32.5 -127t-37.5 -149t-31 -127q-20 -78 -54 -115.5t-65 -37.5q-35 0 -50.5 26t-15.5 67q0 37 15 67t35 30z" />
    <glyph glyph-name="uni01C8" unicode="&#x1c8;" 
d="M-4 0q-13 0 -20.5 12t-7.5 29q1 20 11.5 36t27.5 16h2l111 449q-8 16 -1 51t21 35h64q30 0 30 -40q0 -20 -10.5 -37t-28.5 -17h-10q-19 -77 -55 -220t-55 -221h52q13 53 21 75.5t14 27.5t19 5q28 0 28.5 -26.5t-15.5 -81.5l1 1l-5 -20t-5 -25q-1 -2 -2 -5
q-4 -16 -6.5 -23t-10.5 -13.5t-20 -7.5h-150zM243 -75q13 0 21.5 -10.5t9.5 -33.5q27 31 50 120l88 352l-1 -1l2 12q-8 -1 -21.5 -20.5t-25.5 -53.5q-8 -38 -34 -38q-32 0 -29 45q2 19 18.5 55.5t45 71t55.5 34.5q28 0 44 -30t10 -77l-103 -418q-19 -60 -53.5 -106.5
t-70.5 -46.5q-28 0 -41 18t-13 47t16 54.5t32 25.5zM486 508q-15 0 -22.5 12.5t-6.5 31.5q0 27 13 51.5t31 24.5q15 0 23 -13t8 -32q0 -26 -14 -50.5t-32 -24.5z" />
    <glyph glyph-name="uni01C9" unicode="&#x1c9;" 
d="M44 110l105 424h-24q-11 0 -13 23.5t5 47t18 23.5h63q36 0 29 -50l-118 -476q-1 -6 0 -8q0 -1 0.5 -1.5t0.5 -1.5q3 -4 5 -4q5 0 15 31t14 49q11 34 34 34q16 0 22.5 -15.5t5.5 -32.5q-2 -11 -9.5 -34.5t-20 -52.5t-31.5 -50t-39 -21q-31 0 -49 32t-13 83zM244 -75
q13 0 22 -10.5t10 -33.5q25 29 50 120l87 352l-1 -1l2 12q-8 -1 -21 -20.5t-25 -53.5l-1 -4.5t-1.5 -6t-2.5 -5.5t-3.5 -6.5t-4.5 -6t-6 -5t-7 -3t-9 -1.5q-18 0 -24.5 13.5t-3.5 31.5q2 19 18 55.5t45 71t56.5 34.5t43.5 -30t9 -77l-103 -418q-18 -59 -52.5 -106t-70.5 -47
q-28 0 -41 18t-13 47t15.5 54.5t31.5 25.5zM488 508q-30 0 -29 44q0 27 12.5 51.5t30.5 24.5q16 0 23.5 -13t7.5 -32q0 -26 -13.5 -50.5t-31.5 -24.5z" />
    </font>
</defs>
</svg>
