<?xml version="1.0" standalone="no"?>
<!DOCTYPE svg PUBLIC "-//W3C//DTD SVG 1.1//EN" "http://www.w3.org/Graphics/SVG/1.1/DTD/svg11.dtd" >
<svg xmlns="http://www.w3.org/2000/svg" xmlns:xlink="http://www.w3.org/1999/xlink" version="1.1">
<metadata>
Created by FontForge 20201107 at Wed Jun  3 04:57:48 2015
 By www-data
Converted by Andrey V. Panov from TeX fonts
</metadata>
<defs>
<font id="DescretMono-Italic" horiz-adv-x="500" >
  <font-face 
    font-family="Descret Mono"
    font-weight="400"
    font-style="italic"
    font-stretch="normal"
    units-per-em="1000"
    panose-1="2 0 5 9 0 0 0 0 0 0"
    ascent="860"
    descent="-140"
    x-height="457"
    cap-height="642"
    bbox="-201 -412 796 1149"
    underline-thickness="50"
    underline-position="-150"
    slope="-14.04"
    unicode-range="U+0020-10147"
  />
<missing-glyph 
d="M-32 10l10 793h505l-10 -793h-505zM29 118l166 289l-159 289zM64 74h315l-155 280zM72 740l153 -280l162 280h-315zM255 407l159 -289l7 578z" />
    <glyph glyph-name=".notdef" 
d="M-32 10l10 793h505l-10 -793h-505zM29 118l166 289l-159 289zM64 74h315l-155 280zM72 740l153 -280l162 280h-315zM255 407l159 -289l7 578z" />
    <glyph glyph-name=".null" horiz-adv-x="0" 
 />
    <glyph glyph-name="nonmarkingreturn" 
 />
    <glyph glyph-name="space" unicode=" " 
 />
    <glyph glyph-name="exclam" unicode="!" 
d="M231 243q0 4 2 12t2 11l68 319q8 38 30 53t43 15q22 0 38.5 -15.5t16.5 -40.5q0 -5 -5 -26l-92 -321q-4 -12 -5.5 -17t-6 -11t-11 -8t-17.5 -2h-28q-35 0 -35 31zM173 58q0 28 21.5 50.5t51.5 22.5q22 0 38 -15.5t16 -40.5q0 -32 -23 -53.5t-49 -21.5q-24 0 -40 17
t-15 41z" />
    <glyph glyph-name="quotedbl" unicode="&#x22;" 
d="M370 374q1 4 40 211l1 6t1.5 9.5t2.5 10.5t4.5 12t6.5 11t9 9.5t12.5 6t16.5 2.5q17 0 28.5 -11.5t11.5 -30.5q0 -10 -68 -230q-1 -1 -2.5 -5.5l-2.5 -7.5t-3.5 -7.5t-6 -7.5t-8.5 -5.5t-12 -2.5q-14 0 -22.5 9.5t-8.5 20.5zM195 374q1 8 39 211l1 6t1.5 9.5t2.5 10.5
t4.5 12t6.5 11t9 9.5t12.5 6t16.5 2.5q17 0 28.5 -12t11.5 -30v-1q0 -8 -43 -146q-16 -51 -25 -83q-1 -1 -2.5 -5.5l-2.5 -7.5t-3.5 -7.5t-6 -7.5t-8.5 -5.5t-12 -2.5q-13 0 -21.5 8.5t-8.5 21.5z" />
    <glyph glyph-name="numbersign" unicode="#" 
d="M80 207q1 33 40 33h46l57 161h-46q-40 0 -40 34q0 11 8.5 21t29.5 10h71q1 6 4.5 15t15 42t26.5 78q1 1 2 3q4 13 6.5 18.5t10 11.5t17.5 6q12 0 21 -8.5t9 -22.5q0 -7 -46 -143h80q1 6 4.5 15t15 42t26.5 78q1 1 2 3q4 13 6.5 18.5t10 11.5t17.5 6q12 0 20.5 -8.5
t8.5 -22.5q0 -7 -46 -143h24q22 0 29.5 -10.5t7.5 -21.5q0 -33 -38 -33h-47l-56 -161h46q39 0 38.5 -32.5t-36.5 -32.5h-71q-11 -30 -26 -76q-24 -69 -32 -84t-25 -15q-12 0 -21 9.5t-9 23.5q1 9 47 142h-80q-12 -34 -28 -83q-22 -64 -29.5 -78t-24.5 -14q-12 0 -21.5 9.5
t-9.5 23.5q0 7 48 142h-24q-38 0 -39 32zM232 240h80l56 161h-80z" />
    <glyph glyph-name="dollar" unicode="$" 
d="M87 131q0 55 17 75.5t39 20.5q17 0 28.5 -12t11.5 -30q0 -27 -26 -45v-8q-1 -57 47 -70l61 244q-53 13 -78 51.5t-25 83.5q1 67 52.5 129t135.5 76q11 52 18.5 67.5t27.5 15.5q14 0 21.5 -9t7.5 -21q0 -5 -12 -55q28 -6 48.5 -19.5t30.5 -27.5t15.5 -32t6.5 -28.5
t1 -20.5q-1 -89 -55 -89q-18 0 -29 12.5t-10 29.5q0 27 25 45q0 24 -8.5 38.5t-17.5 19t-23 9.5l-55 -220q46 -12 73 -50t27 -92q-1 -79 -58.5 -145t-132.5 -77q-12 -54 -19.5 -69t-26.5 -15q-16 0 -23 9.5t-7 19.5q0 1 12 56q-46 9 -73.5 43.5t-26.5 89.5zM228 448
q0 -55 55 -70l49 197q-45 -15 -74 -51.5t-30 -75.5zM269 67q45 18 75.5 59t31.5 86q0 56 -52 77z" />
    <glyph glyph-name="percent" unicode="%" 
d="M54 -51q1 12 12 30l409 725q14 25 36 25q14 0 23.5 -11t9.5 -26q0 -8 -9 -27l-411 -726q-15 -26 -35 -26q-14 0 -24.5 10.5t-10.5 25.5zM167 534q1 37 14.5 81t39.5 79t56 35q21 0 37.5 -19.5t16.5 -66.5q-1 -39 -15 -83t-40 -77.5t-55 -33.5t-41.5 25t-12.5 60zM225 540
q0 -9 2 -23q21 20 33 55t13 66q0 9 -2 24q-23 -25 -34 -60t-12 -62zM269 -3q0 41 14.5 86t40 77t53.5 32q29 0 42 -25t12 -60q0 -41 -14.5 -85.5t-40.5 -76.5t-54 -32t-40.5 25t-12.5 59zM326 3q0 -11 3 -22q22 23 33.5 58t11.5 63q0 15 -2 22q-22 -23 -34 -58.5t-12 -62.5z
" />
    <glyph glyph-name="ampersand" unicode="&#x26;" 
d="M48 175q1 46 23 103t51 95q-3 19 -3 43q1 54 24.5 109t63.5 91.5t83 36.5q38 0 63.5 -25t25.5 -64q-1 -33 -17 -48.5t-35 -15.5q-17 0 -29 12.5t-12 30.5q1 20 18 38v1q-10 6 -18 6q-26 0 -57 -47t-39 -104q27 15 51 15q25 0 39.5 -17t14.5 -47q-1 -37 -23.5 -70.5
t-56.5 -33.5q-28 0 -56 22q-40 -78 -41 -131q-1 -54 34.5 -87.5t94.5 -33.5q66 0 120.5 42.5t80.5 136.5q-12 -2 -18 -2q-34 0 -61 25t-26 66q0 20 6.5 38t19.5 33t22 24t27 23t22 18q32 27 50 62.5t23 60t15.5 42t30.5 17.5q12 0 22 -9.5t10 -24.5q0 -7 -5 -29t-23.5 -64
t-44.5 -76q22 -35 21 -84q0 -35 -12.5 -95t-32.5 -104q-23 -49 -56 -84t-69 -51.5t-65.5 -23.5t-58.5 -7q-92 0 -145 55t-52 132zM198 362l8 -8l6 -5l7 15l6 18l-13 -7zM413 323q0 -11 9 -24q9 4 17 4t24 -9q6 36 6 54q0 17 -6 37q-15 -11 -23.5 -18.5t-17.5 -19.5t-9 -24z
" />
    <glyph glyph-name="quotesingle" unicode="'" 
d="M283 374q1 8 39 211l1 6t1.5 9.5t2.5 10.5t4.5 12t6.5 11t9 9.5t12.5 6t16.5 2.5q17 0 28.5 -12t11.5 -30v-1q0 -8 -43 -146q-16 -51 -25 -83q-1 -1 -2.5 -5.5l-2.5 -7.5t-3.5 -7.5t-6 -7.5t-8.5 -5.5t-12 -2.5q-13 0 -21.5 8.5t-8.5 21.5z" />
    <glyph glyph-name="parenleft" unicode="(" 
d="M202 186q2 148 78 297.5t206 235.5q13 10 26 10t21 -8.5t8 -20.5q0 -19 -23 -34q-78 -56 -135 -142.5t-84 -174.5t-28 -169q-1 -60 12 -106t28.5 -66.5t28 -38t12.5 -26.5q0 -13 -8.5 -21.5t-21.5 -8.5q-21 0 -54 44q-67 91 -66 229z" />
    <glyph glyph-name="parenright" unicode=")" 
d="M59 -58q1 18 27 36q77 56 133.5 142.5t83 174t27.5 168.5q0 59 -12.5 104t-28 66t-28.5 39t-13 28q0 12 8.5 20.5t22.5 8.5q20 0 51 -41q70 -91 68 -234q-1 -143 -73.5 -287.5t-192.5 -231.5q-3 -2 -9.5 -7t-10.5 -7.5t-10.5 -5t-12.5 -2.5q-13 0 -21.5 9t-8.5 20z" />
    <glyph glyph-name="asterisk" unicode="*" 
d="M111 219q0 5 1.5 10t3 8.5t5 7l6 6t6.5 5.5t6 4t6 3.5l4 2.5q89 50 97 54q-11 9 -30 24q-41 33 -49.5 42t-8.5 19q0 17 13.5 30.5t28.5 13.5q9 0 15.5 -4.5t35.5 -31.5q20 -18 34 -31q3 17 7.5 37.5t7 32.5t6 26.5t6 22t6 16.5t7 13.5t8.5 8.5t10.5 5.5t13.5 1.5
q13 0 19 -8t6 -15t-9 -42t-18 -67l-9 -32q15 10 31.5 20t25.5 16t19 12l15 9t10.5 6t9 3.5t6.5 0.5q12 0 19 -7.5t7 -19.5q-1 -18 -14 -29t-70 -43q-31 -18 -50 -29q11 -9 29 -23q42 -34 50.5 -42.5t8.5 -19.5q0 -16 -13.5 -29.5t-29.5 -13.5q-10 0 -21 9t-64 57
q-4 -23 -26 -118q-11 -45 -45 -45q-12 0 -19 7t-7 19q1 6 5 21t13.5 49t17.5 67q-13 -8 -35 -22q-49 -31 -61 -37.5t-22 -6.5t-18 7t-7 19z" />
    <glyph glyph-name="plus" unicode="+" 
d="M112 320q0 13 8.5 23.5t29.5 10.5h126l43 170q8 32 33 32q12 0 20.5 -9t8.5 -23q0 -5 -18 -80t-23 -90h106q14 0 20 -2q23 -8 23 -31q0 -6 -2.5 -12.5t-11.5 -13t-24 -6.5h-128l-42 -171q-8 -33 -32 -33q-13 0 -22 9t-9 24q0 4 18.5 77.5t23.5 93.5h-109q-40 0 -39 31z
" />
    <glyph glyph-name="comma" unicode="," 
d="M119 -112q0 13 11 21.5t26.5 14.5t37.5 25.5t39 50.5q-19 0 -32 6t-18.5 15.5t-7.5 17.5t-2 17q0 29 21 52t52 23q29 0 47 -22t18 -57q-1 -49 -39.5 -107.5t-106.5 -85.5q-12 -4 -17 -4q-11 0 -20 10t-9 23z" />
    <glyph glyph-name="hyphen" unicode="-" 
d="M129 224q0 7 2 13.5t10.5 13.5t23.5 7h223q36 0 36 -30q0 -6 -2 -12.5t-11 -14t-24 -7.5h-224q-19 0 -26.5 10t-7.5 20z" />
    <glyph glyph-name="period" unicode="." 
d="M173 58q0 28 21.5 50.5t51.5 22.5q22 0 38 -15.5t16 -40.5q0 -32 -23 -53.5t-49 -21.5q-24 0 -40 17t-15 41z" />
    <glyph glyph-name="slash" unicode="/" 
d="M35 -55q0 10 14 32l453 727q1 0 2.5 3t2.5 4.5t3.5 4.5t5 5t5.5 4t6.5 3t7.5 1q12 0 21 -10t9 -23q0 -12 -11 -28l-455 -727l-3.5 -6t-5.5 -8t-6 -6.5t-8.5 -6t-10.5 -1.5q-12 0 -21 9.5t-9 22.5z" />
    <glyph glyph-name="zero" unicode="0" 
d="M99 188q1 83 28.5 169t68 150t91 105t96.5 41q56 0 87 -56.5t30 -143.5q-1 -106 -43.5 -214.5t-109 -179.5t-130.5 -71q-57 0 -88 57.5t-30 142.5zM170 190q0 -19 2 -38t7.5 -43.5t19 -39.5t34.5 -15q44 0 91.5 69t77.5 162.5t30 168.5q1 60 -15.5 97t-49.5 37
q-44 0 -90 -62t-76 -155.5t-31 -180.5z" />
    <glyph glyph-name="one" unicode="1" 
d="M95 30q0 7 2 14t10.5 14t23.5 7h82l105 422q-46 -30 -81 -30q-18 0 -25 9.5t-7 21.5q0 26 21 33q2 0 13 1.5t22 5.5t27 14t35.5 32t38.5 55q14 21 31 21q12 0 21 -8t8 -21q0 -1 -3 -17l-121 -485q-8 -36 -13 -54h68q33 -1 32 -30q0 -8 -2 -14.5t-10.5 -13.5t-23.5 -7
h-219q-20 0 -27.5 9.5t-7.5 20.5z" />
    <glyph glyph-name="two" unicode="2" 
d="M43 19q0 13 10.5 39.5t30 61.5t56.5 73.5t83 64.5q10 6 40 22t48 26t44.5 30t41.5 39t26.5 47.5t12.5 59.5q0 48 -24 77t-63 29q-45 0 -89.5 -38.5t-61.5 -92.5q0 -2 -2 -8.5t-3 -8.5t-4 -6.5t-6.5 -6.5t-9 -3.5t-13.5 -1.5q-18 0 -26 9t-8 21q1 20 17 52.5t43 65.5
t70.5 57.5t91.5 25.5h2q70 0 113 -49t42 -124q-1 -49 -17.5 -89.5t-50 -73.5t-68.5 -56.5t-89 -51.5q-41 -23 -67 -44t-55 -57q35 -5 87 -26.5t78 -21.5q29 0 56.5 29.5t42.5 79.5q0 1 1 2q2 9 4 14t10 10.5t20 6.5h1q20 0 27.5 -9.5t7.5 -21.5q0 -9 -6.5 -29t-21 -46.5
t-33.5 -50.5t-48.5 -40.5t-62.5 -16.5q-30 0 -64.5 14t-63.5 28t-45 14q-5 0 -8 -1q-11 -2 -17.5 -11t-9 -18.5t-11 -17t-23.5 -8.5q-36 0 -36 31z" />
    <glyph glyph-name="three" unicode="3" 
d="M69 120q1 39 16 58t36 19q17 0 29.5 -11.5t12.5 -30.5q0 -23 -24 -43q1 -9 4 -17.5t9.5 -18.5t19.5 -16t32 -6q23 0 50 9t53.5 27t43.5 50t18 72q0 38 -17 63.5t-58 25.5h-31q-37 0 -37 32q0 14 8.5 23t23.5 9h34q37 0 67.5 15.5t48.5 39t27.5 48t9.5 44.5
q0 33 -18.5 54.5t-53.5 21.5q-38 0 -74.5 -22.5t-51.5 -58.5q-1 -2 -3.5 -9.5t-3.5 -9l-4 -6t-6.5 -6t-9 -3t-12.5 -1.5q-33 0 -33 31q1 47 60 98.5t140 51.5q61 0 101 -39.5t39 -102.5q-1 -54 -34 -105t-84 -79q41 -46 41 -117q-1 -53 -24 -96.5t-58 -70t-75.5 -41
t-78.5 -14.5q-60 0 -96.5 37t-36.5 95z" />
    <glyph glyph-name="four" unicode="4" 
d="M20 34q0 6 3 12t8 11.5t8.5 8.5t9.5 7l6 4q67 55 122 129t88 144.5t54 127t33.5 103t12.5 47.5q11 25 35 25q13 0 23.5 -9.5t9.5 -25.5q0 -4 -7 -33.5t-26 -85t-45.5 -117t-72.5 -135.5t-101 -135l-27 -28q16 -1 33.5 -4.5t27.5 -7.5t28.5 -11.5t26.5 -10.5
q0 3 18.5 77.5t21.5 81.5q11 21 33 21q13 0 23.5 -9.5t9.5 -25.5q0 -6 -5.5 -28.5t-16 -63t-17.5 -70.5h1q19 0 38.5 8t25.5 8q12 0 21 -10t9 -22q0 -23 -32.5 -36t-61.5 -13h-17l-44 -176q-11 -25 -34 -25q-14 0 -24 9.5t-9 25.5q0 10 44 185q-8 3 -29.5 11.5t-29.5 11.5
t-24 6t-33 3q-29 0 -46 -3t-20.5 -6.5t-8.5 -6.5t-13 -3q-12 0 -21 11.5t-9 22.5z" />
    <glyph glyph-name="five" unicode="5" 
d="M77 121q1 43 17.5 60t36.5 17q18 0 29 -12t11 -30q0 -26 -24 -43l1 -1q9 -58 64 -58q61 0 116 61t56 140q0 34 -14.5 61t-48.5 27q-25 0 -48.5 -8.5t-36 -18.5t-25 -22t-14.5 -13q-8 -6 -22 -6q-15 0 -23 9t-7 23q0 4 2 13l71 287q5 18 12 26.5t26 8.5h229q19 0 26.5 -10
t7.5 -21q-1 -35 -36 -35h-201l-46 -189q44 21 89 21q61 0 95 -45t33 -112q-1 -53 -23 -102.5t-56.5 -84t-77.5 -55.5t-86 -21q-57 0 -95 37t-38 96z" />
    <glyph glyph-name="six" unicode="6" 
d="M95 170q1 55 23 150q34 143 124 238t183 95q45 0 70.5 -24t25.5 -64q-1 -37 -16.5 -53t-35.5 -16q-17 0 -29 11.5t-12 30.5q1 22 20 41v1q-11 8 -26 8q-48 0 -111.5 -56t-104.5 -159q59 42 120 42q38 0 66.5 -17t42.5 -43.5t20 -50.5t6 -46q0 -32 -11.5 -72.5
t-29.5 -69.5q-11 -20 -28.5 -40.5t-42 -41t-57 -33.5t-66.5 -13q-23 0 -44 8t-42 26.5t-33.5 56.5t-11.5 91zM164 163q0 -18 2 -34.5t8.5 -34.5t20.5 -29t34 -11q59 0 110 65t52 139q0 19 -5 38.5t-22.5 37t-43.5 17.5q-50 0 -94.5 -39.5t-53.5 -93.5l-8 -44v-11z" />
    <glyph glyph-name="seven" unicode="7" 
d="M102 452q0 8 36 83q24 51 41 89q9 18 15.5 23.5t25.5 5.5q27 0 32 -26q57 26 93 26q25 0 41 -11.5t21.5 -25t13 -25t17.5 -11.5q13 0 27.5 6.5t26.5 16t21.5 19t16.5 17.5t8 9q7 5 21 5h1q34 0 33 -30q0 -7 -2.5 -12.5t-8.5 -13.5t-6 -9q-189 -275 -264 -559l-0.5 -2.5
t-1 -4t-1.5 -5t-2.5 -6t-3 -5.5t-3.5 -5.5t-5 -5t-6 -4t-7.5 -2.5t-8.5 -1q-14 0 -23.5 10t-9.5 25q0 11 13.5 61t55 154.5t98.5 207.5l41 70q-5 -2 -17 -2q-21 0 -36 10.5t-21.5 23t-14.5 23t-17 10.5q-20 0 -46 -10t-61 -41.5t-60 -77.5q0 -1 -2.5 -5.5t-3 -6t-3.5 -5.5
t-5 -5.5t-5.5 -3.5t-8 -3t-9.5 -1q-21 0 -28.5 9.5t-7.5 20.5z" />
    <glyph glyph-name="eight" unicode="8" 
d="M76 136q0 66 42.5 122.5t123.5 87.5q-37 14 -57 43.5t-20 64.5q1 71 68 135t150 64q59 0 97 -36.5t37 -94.5q0 -55 -37.5 -102.5t-108.5 -73.5q46 -18 65 -53t19 -71q-1 -53 -33.5 -106.5t-88 -90.5t-116.5 -37q-63 0 -102.5 41.5t-38.5 106.5zM148 149
q-1 -42 22.5 -68.5t64.5 -26.5q54 0 101.5 50t48.5 113q0 42 -23.5 69.5t-63.5 27.5q-54 0 -101.5 -50.5t-48.5 -114.5zM236 459q0 -36 22 -58t57 -22q50 0 89.5 40t40.5 89q0 36 -22 58t-57 22q-50 0 -89.5 -40.5t-40.5 -88.5z" />
    <glyph glyph-name="nine" unicode="9" 
d="M80 79q0 35 16.5 51t35.5 16q16 0 28 -11.5t12 -30.5q0 -23 -18 -40q13 -10 35 -10q54 0 113 62t93 153q-62 -43 -120 -43q-36 0 -63.5 15.5t-42.5 39.5t-22.5 50t-6.5 51q0 70 35 133t90.5 100.5t114.5 37.5q22 0 42 -7.5t40.5 -26t32.5 -56t12 -89.5q-1 -87 -38 -203
q-39 -120 -119 -201.5t-163 -81.5q-48 0 -78 23.5t-29 67.5zM210 383q-1 -18 4.5 -37t22.5 -37t43 -18q52 0 95.5 40.5t53.5 92.5q9 44 9 54q0 46 -14 78t-48 32q-44 0 -87 -39q-78 -69 -79 -166z" />
    <glyph glyph-name="colon" unicode=":" 
d="M253 377q1 31 23.5 53t48.5 22q23 0 39.5 -16t16.5 -41q-1 -32 -24 -53.5t-49 -21.5q-25 0 -40 16.5t-15 40.5zM173 58q0 28 21.5 50.5t51.5 22.5q22 0 38 -15.5t16 -40.5q0 -32 -23 -53.5t-49 -21.5q-24 0 -40 17t-15 41z" />
    <glyph glyph-name="semicolon" unicode=";" 
d="M253 378q0 31 23 52.5t49 21.5q23 0 39 -16t16 -41q-1 -32 -23.5 -53.5t-48.5 -21.5q-25 0 -40.5 17t-14.5 41zM119 -112q0 13 11 21.5t26.5 14.5t37.5 25.5t39 50.5q-19 0 -32 6t-18.5 15.5t-7.5 17.5t-2 17q0 29 21 52t52 23q29 0 47 -22t18 -57q-1 -49 -39.5 -107.5
t-106.5 -85.5q-12 -4 -17 -4q-11 0 -20 10t-9 23z" />
    <glyph glyph-name="less" unicode="&#x3c;" 
d="M127 320q0 5 1.5 10t3.5 8t5.5 6t5.5 4.5t5.5 4l3.5 2.5l326 215q12 9 22 9q12 0 21.5 -9t9.5 -23q-1 -3 -1 -5.5t-0.5 -4t-2 -4t-2 -3.5t-2.5 -3t-2.5 -3t-3 -3t-3 -2t-3.5 -2t-3 -3l-300 -198l188 -186l3.5 -3.5l6 -6t5.5 -7t4.5 -9t1.5 -10.5q0 -12 -10 -21.5
t-21 -9.5h-5t-4 1l-3 1.5t-3.5 2t-3.5 2t-3.5 3l-3.5 3.5l-4 4l-4 4l-207 205q-18 20 -18 31z" />
    <glyph glyph-name="equal" unicode="=" 
d="M91 242q0 12 8 20.5t18 10.5q6 1 18 1h296q16 0 25 -7t10.5 -13t1.5 -11q0 -8 -2.5 -14.5t-12 -13t-25.5 -6.5h-302q-20 1 -27.5 11.5t-7.5 21.5zM131 400q0 33 41 33h295q41 0 41 -33q0 -6 -2 -12.5t-11.5 -13t-24.5 -6.5h-305q-20 0 -27 10.5t-7 21.5z" />
    <glyph glyph-name="greater" unicode="&#x3e;" 
d="M71 94q0 9 4 15.5t7 9.5t11 8l278 184q14 10 22 15l-188 185q-9 9 -12.5 13t-6.5 10t-2 13q0 12 8.5 22t21.5 10q9 0 15.5 -4.5t19.5 -16.5l206 -204q18 -18 18 -33q0 -4 -1 -8t-3 -7t-4 -5.5t-5 -5t-4.5 -3.5t-4 -3t-3.5 -2l-325 -216q-12 -8 -22 -8q-13 0 -21.5 9
t-8.5 22z" />
    <glyph glyph-name="question" unicode="?" 
d="M173 494q0 20 15 47t39.5 52.5t64 42.5t83.5 17q55 0 88.5 -34.5t32.5 -87.5q-1 -77 -66 -133q-13 -11 -62.5 -43.5t-71.5 -48.5q-16 -23 -16 -41q0 -1 0.5 -3.5t0.5 -4.5q22 4 34 14.5t15 21t11.5 19t24.5 8.5q35 0 34 -29q0 -32 -37 -65.5t-86 -33.5q-27 0 -44 21
t-17 54q0 22 9.5 47t26.5 43q3 3 7 6t13 9.5t19.5 13.5l34.5 23t49 34q32 22 44.5 47t12.5 43q1 25 -15.5 40t-43.5 15q-39 0 -76 -24.5t-37 -38.5q0 -3 1.5 -9.5t1.5 -12.5q0 -20 -14.5 -35t-35.5 -15q-16 0 -28 11t-12 30zM183 47q0 24 17 41t38 17q19 0 32.5 -13.5
t13.5 -33.5q-1 -23 -18.5 -40.5t-38.5 -17.5q-19 0 -32 13.5t-12 33.5z" />
    <glyph glyph-name="at" unicode="@" 
d="M102 217q1 102 46 202t116.5 164t145.5 64q18 0 34.5 -6t33.5 -20.5t26.5 -46t9.5 -75.5q-1 -87 -41 -220q-24 -70 -68.5 -118.5t-90.5 -48.5q-41 0 -66 37.5t-24 99.5t26 127t67.5 109t86.5 44q30 0 53 -21q-1 15 -2.5 23.5t-6 22.5t-15 21t-26.5 7q-53 0 -111 -52
t-97 -137.5t-40 -172.5q-1 -71 28 -116t77 -45q26 0 48 11.5t37.5 26t18.5 15.5q9 4 19 4q21 0 29.5 -9.5t8.5 -21.5q0 -24 -53 -57t-109 -33q-73 0 -118 62t-43 160zM282 253q0 -36 9.5 -56t26.5 -20q23 0 50.5 31t47.5 81.5t21 98.5q1 75 -36 75q-23 0 -50.5 -31
t-47.5 -81t-21 -98z" />
    <glyph glyph-name="A" unicode="A" 
d="M23 32q5 20 24 30q7 2 44 2l259 550q13 28 25.5 34t38.5 6t35 -6.5t8 -34.5l-16 -549q37 0 42 -3q15 -8 10 -29q-4 -15 -14 -22.5t-17.5 -8.5t-19.5 -1h-102q-7 0 -11 0.5t-11 2t-8.5 4.5l-4.5 9t1 16q4 15 13.5 22.5t19 8.5t31.5 1l4 109h-162l-50 -109h14.5t12 -0.5
t10.5 -2t6.5 -3.5t4.5 -5.5t1.5 -9t-1.5 -11.5q-4 -15 -13.5 -22.5t-16.5 -8.5t-20 -1h-102q-7 0 -11 0.5t-11 2t-9 4.5t-5 9t1 16zM243 237h132l17 330z" />
    <glyph glyph-name="B" unicode="B" 
d="M19 32q4 14 13.5 22t16.5 9t19 1h27l128 514h-27h-10t-10.5 1.5t-8.5 5t-5 9.5t2 16q7 32 47 32h226q53 0 87 -25.5t44.5 -61.5t0.5 -76q-12 -48 -51.5 -86.5t-92.5 -56.5q56 -15 79.5 -60t9.5 -101q-17 -67 -77.5 -121t-139.5 -54h-246q-6 0 -9.5 0.5t-10 2t-8.5 4.5
t-5 9t1 16zM164 64h127q60 0 101.5 35t52.5 78q7 18 4.5 39.5t-9.5 40.5t-28 31.5t-51 12.5h-138zM239 365h103q66 0 106.5 36t50.5 77q6 13 3.5 30t-9 32.5t-26.5 26.5t-50 11h-125z" />
    <glyph glyph-name="C" unicode="C" 
d="M108 321q36 141 131 236.5t193 95.5q74 0 118 -50q8 11 13 18t7 10t3 4q0 1 2.5 3t3 3t3 3t3.5 3t3.5 2.5t5 2t5.5 1t6 0.5q20 0 23 -15t-3 -28l-37 -146q-3 -10 -5 -15.5t-6.5 -13t-13 -11t-21.5 -3.5q-14 0 -20.5 5t-6 12.5t0.5 17.5q5 62 -22 97.5t-74 35.5
q-69 0 -141.5 -77t-101.5 -191q-28 -115 6 -192t104 -77q18 0 38.5 6t44.5 19.5t45.5 40t32.5 63.5q10 30 42 30q5 0 7.5 -0.5t8.5 -2t7.5 -5t4 -10t-1.5 -17.5q-18 -73 -91 -130.5t-158 -57.5q-65 0 -110 44t-58 118t9 171z" />
    <glyph glyph-name="D" unicode="D" 
d="M15 32q4 14 13.5 22t16.5 9t19 1h22l128 514h-22h-9.5t-10.5 1.5t-9 5t-5 9.5t1 15q4 15 14 22.5t17 9t18 1.5h206q49 0 84 -27.5t51 -72.5t18 -104t-15 -122q-33 -130 -117.5 -223t-180.5 -93h-206q-6 0 -9.5 0.5t-10.5 2t-9 4.5t-5 9t1 16zM155 64h96q53 0 102 38
t81.5 94t48.5 120q12 47 12.5 92.5t-10 83.5t-38 62t-68.5 24h-96z" />
    <glyph glyph-name="E" unicode="E" 
d="M22 32q4 14 13.5 22t16.5 9t19 1h30l128 514h-30h-9.5t-10.5 1.5t-9 5t-5 9.5t2 16q7 32 48 32h373q25 0 31 -9.5t-1 -34.5l-20 -76q-2 -11 -4 -16.5t-7 -13t-13.5 -10.5t-20.5 -3t-19 3.5t-7.5 11t0 13t2.5 15.5l14 56h-245l-53 -214h131q9 37 17.5 48.5t32.5 11.5
q12 0 18.5 -3.5t7.5 -11t0.5 -13t-3.5 -15.5l-24 -97q-3 -11 -5 -16.5t-6.5 -13t-13 -11t-20.5 -3.5q-24 0 -27 14t7 46h-131l-59 -236h267l18 72q3 11 5 16.5t6.5 13t13 11t21.5 3.5q12 0 18.5 -3.5t7.5 -11t0.5 -13t-3.5 -16.5l-23 -93q-7 -26 -17 -34.5t-34 -8.5h-395
q-6 0 -9.5 0.5t-10.5 2t-9 4.5t-5 9t1 16z" />
    <glyph glyph-name="F" unicode="F" 
d="M24 32q4 14 13.5 22t16.5 9t19 1h33l128 514h-33h-9.5t-10.5 1.5t-9 5t-5 9.5t1 15q4 15 14 22.5t17 9t18 1.5h381q25 0 31 -9.5t-1 -34.5l-20 -76q-2 -11 -4 -16.5t-7 -13t-13.5 -10.5t-20.5 -3t-19 3.5t-7.5 11t0 13t2.5 15.5l14 56h-250l-56 -225h136q9 36 17.5 48
t32.5 12q12 0 18.5 -3.5t7.5 -11t0.5 -13t-3.5 -15.5l-24 -98q-3 -10 -5 -15.5t-6.5 -13t-13 -11t-20.5 -3.5q-24 0 -27 13.5t7 46.5h-136l-56 -225h52h10.5t10 -2t8 -5t4.5 -9.5t-1 -15.5q-4 -15 -13.5 -22.5t-16.5 -8.5t-18 -1h-154q-6 0 -9.5 0.5t-10.5 2t-9 4.5t-5 9
t1 16z" />
    <glyph glyph-name="G" unicode="G" 
d="M106 321q35 141 125 236.5t181 95.5q65 0 106 -47q19 29 28.5 38t23.5 9q20 0 23 -15t-3 -28l-37 -146q-3 -10 -5 -15.5t-6.5 -13t-13 -11t-21.5 -3.5q-18 0 -23 7.5t-3 23.5q4 40 -2.5 68.5t-20.5 42.5t-28.5 20t-29.5 6q-61 0 -128.5 -76.5t-96.5 -192.5
q-28 -113 0 -190.5t90 -77.5q43 0 84.5 42t71.5 125h-42q-7 0 -10.5 0.5t-10 2t-8 5t-4.5 9.5t1 16q4 14 13.5 22t16.5 9t18 1h119q6 0 9.5 -0.5t10.5 -2t9 -5t5 -9.5t-1 -15q-4 -15 -13.5 -22.5t-17.5 -9t-24 -1.5l-44 -176q-3 -10 -5 -15.5t-6.5 -13t-13 -11t-20.5 -3.5
q-23 0 -27 13.5t3 30.5q-24 -22 -59 -39t-74 -17q-59 0 -99.5 43.5t-51.5 117.5t11 172z" />
    <glyph glyph-name="H" unicode="H" 
d="M18 32q4 14 13.5 22t16 9t18.5 1h25l128 514h-25h-9.5t-10 1.5t-8.5 5t-5 9.5t1 15q4 15 13.5 22.5t16.5 9t18 1.5h119q7 0 10.5 -0.5t10.5 -2t8.5 -5t4 -9.5t-1.5 -16q-3 -14 -13 -22t-16.5 -8.5t-18.5 -0.5h-25l-53 -213h212l53 213h-25h-9.5t-10.5 1.5t-8.5 5
t-4.5 9.5t2 16q3 15 12.5 22.5t16.5 8.5t18 1h119q7 0 10.5 -0.5t10.5 -2t8.5 -5t4 -9.5t-1.5 -16q-3 -14 -13 -22t-16.5 -8.5t-18.5 -0.5h-25l-128 -514h25h10.5t10 -2t8 -5t4.5 -9.5t-1 -15.5q-4 -15 -13.5 -22.5t-16.5 -8.5t-18 -1h-119q-7 0 -10.5 0.5t-10 2t-8 4.5
t-4.5 9.5t1 16.5q4 14 13.5 21.5t16.5 8.5t18 1h25l59 237h-212l-59 -237h25h10.5t10 -2t8 -5t4.5 -9.5t-1 -15.5q-4 -15 -13.5 -22.5t-16.5 -8.5t-18 -1h-119q-6 0 -9.5 0.5t-10.5 2t-8.5 4.5l-4.5 9t1 16z" />
    <glyph glyph-name="I" unicode="I" 
d="M75 33q8 31 49 31h108l128 514h-108h-9.5t-10.5 1.5t-9 5t-5 9.5t2 16q7 32 48 32h285q7 0 10.5 -0.5t10.5 -2t8.5 -5t4.5 -9.5t-1 -16q-8 -31 -49 -31h-108l-128 -514h108h9.5t10.5 -2t9 -5t5 -9.5t-1 -15.5q-8 -32 -49 -32h-285q-6 0 -9.5 0.5t-10.5 2t-9 4.5t-5 9.5
t1 16.5z" />
    <glyph glyph-name="J" unicode="J" 
d="M85 104q6 24 22.5 36.5t35 12.5t28 -13.5t4.5 -32.5q-4 -17 -15 -27q22 -28 78 -28q12 0 25.5 3t35 11t39 29t25.5 52l107 431h-82h-9.5t-10.5 1.5t-9 5t-5 9.5t2 16q7 32 48 32h181q7 0 10.5 -0.5t10.5 -2t8.5 -5t5 -9.5t-0.5 -15q-4 -15 -14 -22.5t-17 -8.5t-19 -1h-30
l-109 -437q-17 -69 -77.5 -111t-130.5 -42q-74 0 -112 33t-25 83z" />
    <glyph glyph-name="K" unicode="K" 
d="M22 33q8 31 49 31h22l128 514h-22h-10t-10.5 1.5t-8.5 5t-5 9.5t2 16q7 32 48 32h100q7 0 10.5 -0.5t10.5 -2t9 -5t5 -9.5t-2 -16q-8 -31 -49 -31h-22l-69 -280l280 280h-9.5t-10.5 1.5t-8.5 5t-5 9.5t0.5 15q4 15 14 23t17 9t18 1h88q7 0 10 -0.5t10 -2t9 -5t5.5 -9.5
t-0.5 -15q-3 -12 -8 -19t-15 -9.5t-18 -3t-25 -0.5l-202 -202l85 -299q0 -1 1.5 -6t2.5 -7h12t11 -0.5t9 -2t7 -3.5t5 -5.5t2 -9t-2 -11.5q-8 -32 -49 -32h-75q-7 0 -10.5 0.5t-10.5 2t-8.5 4.5t-4.5 9.5t1 16.5q8 31 48 31l-74 263l-124 -123l-35 -140h22h10.5t10.5 -2
t8.5 -5t4.5 -9.5t-1 -15.5q-8 -32 -49 -32h-100q-7 0 -10.5 0.5t-10.5 2t-8.5 4.5t-4.5 9.5t1 16.5z" />
    <glyph glyph-name="L" unicode="L" 
d="M28 32q4 14 13.5 22t16 9t18.5 1h37l128 514h-37h-9.5t-10 1.5t-8.5 5t-5 9.5t1 15q4 15 13.5 22.5t16.5 9t18 1.5h162q7 0 10.5 -0.5t10.5 -2t8.5 -5t4.5 -9.5t-1 -16q-8 -31 -49 -31h-56l-128 -514h241l18 72q3 11 5 16.5t7 13t13 11t21 3.5q23 0 26.5 -14t-3.5 -30
l-23 -93q-7 -26 -17 -34.5t-34 -8.5h-376q-6 0 -9.5 0.5t-10.5 2t-8.5 4.5l-4.5 9t1 16z" />
    <glyph glyph-name="M" unicode="M" 
d="M13 32q4 15 13.5 22.5t18.5 8.5t29 1l128 514h-13t-10.5 0.5t-9.5 1.5t-7 3.5t-5 6t-1 8.5t2 12q3 15 12.5 22.5t16.5 8.5t18 1h56q39 0 43 -26q20 -293 18 -327h1q16 36 52 98l120 213q10 17 15 23.5t17.5 12.5t31.5 6h56q7 0 10.5 -0.5t10 -2t8.5 -5t5 -9.5t-1 -15
q-4 -15 -13.5 -22.5t-18.5 -8.5t-30 -1l-128 -514h13t11 -0.5t10 -2t6.5 -3.5t4.5 -5.5t1.5 -9t-1.5 -11.5q-4 -15 -13.5 -22.5t-16.5 -8.5t-18 -1h-82q-6 0 -9.5 0.5t-10.5 2t-8.5 4.5l-4.5 9t1 16q4 15 13.5 22.5t18.5 8.5t29 1l125 501h-1q-11 -25 -55.5 -105.5
t-84 -149.5t-42.5 -73q-18 -23 -40 -23q-19 0 -26 16q-3 7 -9 71q0 3 -2 40.5t-4.5 79t-4.5 84.5t-2 60h-1l-125 -501h13t11 -0.5t10 -2t6.5 -3.5t4.5 -5.5t1.5 -9t-1.5 -11.5q-4 -15 -13.5 -22.5t-16.5 -8.5t-18 -1h-82q-6 0 -9.5 0.5t-10.5 2t-8.5 4.5l-4.5 9t1 16z" />
    <glyph glyph-name="N" unicode="N" 
d="M24 33q4 14 13.5 21.5t16.5 8.5t18 1h25l128 514h-25h-9.5t-10.5 1.5t-8.5 5t-4.5 9.5t2 16q3 15 12.5 22.5t16.5 8.5t18 1h68q23 0 33 -7t12 -31l53 -525h1l124 499h-25h-9.5t-10 1.5t-8.5 5t-5 9.5t1 15q4 15 13.5 22.5t16.5 9t18 1.5h106q7 0 10.5 -0.5t10.5 -2
t8.5 -5t4 -9.5t-1.5 -16q-3 -14 -13 -22t-16.5 -8.5t-18.5 -0.5h-25l-133 -535q-7 -28 -17.5 -35.5t-35.5 -7.5q-16 0 -23.5 1.5t-14 10t-8.5 26.5l-52 525h-1l-125 -499h25h10.5t10 -2t8 -5t4.5 -9.5t-1 -15.5q-4 -15 -13.5 -22.5t-16.5 -8.5t-18 -1h-106q-7 0 -10.5 0.5
t-10 2t-8 4.5t-4.5 9.5t1 16.5z" />
    <glyph glyph-name="O" unicode="O" 
d="M124 320q21 82 35 131t33 90t35.5 60t46 32.5t59.5 16.5t80 3q38 0 62 -1.5t46 -8t33 -15.5t18.5 -28t7.5 -41t-5 -59t-14.5 -78t-24.5 -102q-20 -81 -34.5 -130t-33.5 -90t-35.5 -60t-46 -32.5t-59.5 -16.5t-80 -3q-38 0 -62 1.5t-45.5 8t-33 15.5t-18.5 28t-7 40.5
t5 59t14 78t24 101.5zM195 330q-37 -149 -38 -203q-1 -41 20.5 -58t85.5 -17q65 0 96 18t50 63q26 57 60 197q36 142 36 192q0 41 -24 54t-84 13q-63 0 -93.5 -14.5t-50.5 -60.5q-23 -48 -58 -184z" />
    <glyph glyph-name="P" unicode="P" 
d="M22 32q4 14 13.5 22t16.5 9t19 1h30l128 514h-30h-9.5t-10.5 1.5t-9 5t-5 9.5t2 16q7 32 48 32h224q84 0 122.5 -58t19 -134.5t-86.5 -134.5t-151 -58h-125l-48 -193h30h9.5t10.5 -2t9 -5t5 -9.5t-1 -15.5q-8 -32 -49 -32h-129q-6 0 -9.5 0.5t-10.5 2t-9 4.5t-5 9t1 16z
M234 321h106q67 0 113 40t58 88q8 30 1 58.5t-34.5 49.5t-73.5 21h-106z" />
    <glyph glyph-name="Q" unicode="Q" 
d="M124 320q21 82 35 131t33 90t35.5 60t46 32.5t59.5 16.5t80 3q38 0 62 -1.5t46 -8t33 -15.5t18.5 -28t7.5 -41t-5 -59t-14.5 -78t-24.5 -102q-30 -118 -50 -175q-23 -64 -46.5 -95.5t-59.5 -45.5q14 -53 17 -63q15 -65 14 -67q-2 -9 -8.5 -14t-12 -5.5t-15.5 -0.5h-9
q-11 0 -15.5 0.5t-9.5 3.5t-7 9q-1 1 -8 29t-14 57.5t-9 36.5q-11 -2 -56 -2q-38 0 -62 1.5t-45.5 8t-33 15.5t-18.5 28t-7 40.5t5 59t14 78t24 101.5zM193 320q-32 -128 -36 -181q-4 -47 15.5 -67t82.5 -20h32l-23 94q-2 7 0 14q2 9 9 13.5t12.5 5.5t15.5 1h11
q15 0 18.5 -2.5t7.5 -14.5l25 -92q17 11 27 23.5t31 68t46 158.5q32 128 37 182q4 51 -18 68.5t-89 17.5q-66 0 -95.5 -17t-50.5 -62q-23 -50 -58 -190z" />
    <glyph glyph-name="R" unicode="R" 
d="M18 32q4 14 13.5 22t16 9t18.5 1h25l128 514h-25h-9.5t-10 1.5t-8.5 5t-5 9.5t1 15q4 15 13.5 22.5t16.5 9t18 1.5h177q86 0 127 -53t23 -124q-9 -39 -39.5 -79t-81.5 -67q28 -29 33 -64q2 -17 -0.5 -32t-15.5 -67q-7 -27 -9.5 -40.5t-4.5 -31t2 -25t14 -7.5q11 0 19 17
t12 31q9 31 42 31h7.5t8.5 -2t7.5 -5.5t4 -9.5t-1.5 -16q-5 -23 -19 -46.5t-40 -43.5t-55 -20q-53 0 -67 49q-4 12 -5 24t2 30.5t6.5 32.5l11.5 46q6 27 8.5 39t1 26t-9.5 24q-25 30 -74 30h-78l-56 -225h25h10.5t10 -2t8 -5t4.5 -9.5t-1 -15.5q-4 -15 -13.5 -22.5
t-16.5 -8.5t-18 -1h-119q-6 0 -9.5 0.5t-10.5 2t-8.5 4.5l-4.5 9t1 16zM232 353h72q64 0 109 34.5t55 77.5q11 43 -16.5 78t-91.5 35h-72z" />
    <glyph glyph-name="S" unicode="S" 
d="M48 32l35 138q2 11 4 16.5t7 13t13.5 10.5t20.5 3q22 0 26 -11.5t-1 -25.5q-12 -61 24 -91q38 -33 109 -33q56 0 98 36t53 81q24 94 -81 119q-46 11 -108 28q-56 18 -78.5 64t-9.5 101q18 69 83.5 120.5t145.5 51.5q85 0 128 -49q14 28 23.5 38.5t25.5 10.5q20 0 23 -15
t-3 -28l-35 -139q-3 -10 -5 -15.5t-6.5 -13t-13 -11t-21.5 -3.5q-16 0 -22.5 6.5t-4.5 23.5q0 10 2 26t-3.5 34t-15 34t-32.5 26.5t-57 10.5q-51 0 -93 -31t-53 -73q-9 -35 8 -62t48 -37l76 -18q60 -16 83.5 -27.5t45.5 -41.5q34 -54 17 -125q-19 -74 -85 -130t-150 -56
q-104 0 -153 49q-14 -28 -23.5 -38.5t-25.5 -10.5q-20 0 -22.5 15.5t3.5 28.5z" />
    <glyph glyph-name="T" unicode="T" 
d="M144 522l20 76q6 26 16.5 35t34.5 9h391q25 0 31 -9.5t-1 -34.5l-20 -76q-2 -11 -4 -16.5t-7 -13t-13.5 -10.5t-20.5 -3t-19 3.5t-7.5 11t0 13t2.5 15.5l14 56h-132l-128 -514h52h10.5t10 -2t8 -5t4.5 -9.5t-1 -15.5q-4 -15 -13.5 -22.5t-16.5 -8.5t-18 -1h-173
q-7 0 -10.5 0.5t-10 2t-8 4.5t-4.5 9.5t1 16.5q4 14 13.5 21.5t16.5 8.5t18 1h52l128 514h-133l-14 -56q-2 -11 -4 -16.5t-7 -13t-13.5 -10.5t-20.5 -3t-19 3.5t-7.5 11t0 13t2.5 15.5z" />
    <glyph glyph-name="U" unicode="U" 
d="M145 610q7 32 48 32h129q7 0 10.5 -0.5t10.5 -2t8.5 -5t5 -9.5t-0.5 -15q-4 -15 -14 -22.5t-17 -8.5t-19 -1h-30l-89 -359q-20 -78 5.5 -122.5t70.5 -44.5q44 0 92 44.5t68 122.5l89 359h-30h-9.5t-10.5 1.5t-9 5t-5 9.5t2 16q7 32 48 32h129q7 0 10.5 -0.5t10.5 -2
t8.5 -5t5 -9.5t-0.5 -15q-4 -15 -14 -22.5t-17 -8.5t-19 -1h-30l-90 -364q-24 -95 -96 -160.5t-148 -65.5t-115 65.5t-15 160.5l90 364h-30h-9.5t-10.5 1.5t-9 5t-5 9.5t2 16z" />
    <glyph glyph-name="V" unicode="V" 
d="M159 610q7 32 48 32h102q7 0 10.5 -0.5t10.5 -2t8.5 -5t5 -9.5t-0.5 -15q-4 -15 -14 -22.5t-19.5 -8.5t-31.5 -1l-5 -409q-1 -55 -5 -93h1q16 40 84 180l157 322h-13.5t-12 0.5t-10.5 1.5t-7 3.5t-5 6t-1 8.5t2 12q7 32 48 32h102q7 0 10.5 -0.5t10.5 -2t8.5 -5t5 -9.5
t-0.5 -15q-3 -12 -8 -19t-15 -9.5t-18 -3t-25 -0.5l-268 -548q-13 -26 -26.5 -32t-38.5 -6q-14 0 -20 0.5t-13 4t-9.5 12t-2.5 23.5l4 546h-14.5t-12 0.5t-10.5 1.5t-7 3.5t-5 6t-1 8.5t2 12z" />
    <glyph glyph-name="W" unicode="W" 
d="M151 609q4 15 14 23t17 9t18 1h79q7 0 10.5 -0.5t10.5 -2t8.5 -5t4 -9.5t-1.5 -16q-3 -14 -13 -22t-16.5 -8.5t-18.5 -0.5h-25l-52 -416q-8 -65 -12 -82h1q10 29 40 98t56.5 124.5t29.5 59.5q15 23 45 23q32 0 35 -24l-1 -37t-3 -81t-5 -92t-7 -71h1q8 27 53 148l131 350
h-25h-9.5t-10 1.5t-8.5 5t-5 9.5t1 15q4 15 13.5 22.5t16.5 9t18 1.5h79q7 0 10.5 -0.5t10.5 -2t8.5 -5t4.5 -9.5t-1 -16q-8 -31 -46 -31l-209 -550q-14 -36 -50 -36q-33 0 -34 26q0 1 2 62.5t5 134t7 93.5h-1q-10 -28 -70 -158t-65 -137q-15 -21 -44 -21q-7 0 -11 0.5
t-10.5 3.5t-9 11t-1.5 21l65 550h-1h-7t-9 1.5t-8.5 5t-5.5 9.5t1 15z" />
    <glyph glyph-name="X" unicode="X" 
d="M23 32q4 14 13.5 22t16 9t18.5 1h22l202 277l-61 237h-23h-9.5t-10.5 1.5t-9 5t-5 9.5t2 16q7 32 48 32h104q7 0 10.5 -0.5t10 -2t8.5 -5t5 -9.5t-1 -15q-4 -15 -13.5 -22.5t-17 -8.5t-21.5 -1l39 -154l109 154h-11t-10.5 1t-8.5 3t-6.5 5.5t-3 9t2.5 13.5
q3 15 12.5 22.5t16.5 8.5t18 1h104q7 0 10.5 -0.5t10.5 -2t8.5 -5t4.5 -9.5t-1 -16q-8 -31 -49 -31h-22l-171 -236l71 -278h23h9.5t10.5 -2t9 -5t5 -9.5t-1 -15.5q-8 -32 -49 -32h-104q-6 0 -9.5 0.5t-10.5 2t-8.5 4.5l-4.5 9t1 16q4 15 13 22.5t17 8.5t23 1l-48 204
l-143 -204h11.5t10.5 -1t9 -3t6.5 -5.5t3 -9t-1.5 -13.5q-8 -32 -49 -32h-104q-6 0 -9.5 0.5t-10.5 2t-8.5 4.5l-4.5 9t1 16z" />
    <glyph glyph-name="Y" unicode="Y" 
d="M160 610q3 15 12.5 22.5t16.5 8.5t18 1h104q7 0 10.5 -0.5t10 -2t8.5 -5t5 -9.5t-1 -15q-4 -15 -13.5 -22.5t-17.5 -8.5t-24 -1q43 -210 43 -248l167 248h-11.5t-10.5 1t-8.5 3t-6 5.5t-3 9t2.5 13.5q3 15 12.5 22.5t16.5 8.5t18 1h104q7 0 10.5 -0.5t10.5 -2t8.5 -5
t4 -9.5t-1.5 -16q-3 -14 -13 -22t-16.5 -8.5t-18.5 -0.5h-21l-227 -322l-48 -192h25h10.5t10 -2t8 -5t4.5 -9.5t-1 -15.5q-4 -15 -13.5 -22.5t-16.5 -8.5t-18 -1h-119q-7 0 -10.5 0.5t-10 2t-8 4.5t-4.5 9.5t1 16.5q4 14 13.5 21.5t16.5 8.5t18 1h25l48 192l-68 322h-21
h-9.5t-10.5 1.5t-8.5 5t-4.5 9.5t2 16z" />
    <glyph glyph-name="Z" unicode="Z" 
d="M45 36q4 16 18 32l456 510h-258l-14 -56q-2 -11 -4 -16.5t-7 -13t-13.5 -10.5t-20.5 -3t-19 3.5t-7.5 11t0 13t2.5 15.5l20 76q6 26 16.5 35t34.5 9h334q8 0 12 -0.5t10.5 -2t8 -5.5t4 -11t-1.5 -17q-5 -17 -19 -33l-456 -509h275l19 76q3 10 5 15.5t6.5 13t13 11
t21.5 3.5q12 0 18.5 -3.5t7.5 -11t0 -13t-3 -15.5l-24 -97q-7 -26 -17 -34.5t-34 -8.5h-352q-8 0 -11.5 0.5t-10.5 2t-8 5t-4 10.5t2 18z" />
    <glyph glyph-name="bracketleft" unicode="[" 
d="M166 -57.5q0 5.5 6 25.5l180 723q5 21 13 29.5t27 8.5h153q36 0 35 -31q0 -34 -37 -34h-125l-172 -687h113q18 0 26 -9.5t7 -21.5q0 -33 -38 -33h-152q-15 0 -24 6.5t-10.5 12t-1.5 11z" />
    <glyph glyph-name="backslash" unicode="\" 
d="M222 695q0 15 10 24.5t22 9.5q5 0 9 -1.5t7 -4t5.5 -5t4 -6.5t3 -7t2 -7t1 -6t0.5 -5.5v-4.5l90 -720q1 -10 1 -17q0 -14 -9.5 -23t-21.5 -9q-5 0 -9.5 1t-7.5 3.5t-5 5t-4 6.5t-3 6.5t-1.5 7t-1 6.5t-0.5 5.5v3.5l-90 721q-2 11 -2 16z" />
    <glyph glyph-name="bracketright" unicode="]" 
d="M20 -57q1 34 38 34h125l171 688h-107q-1 0 -2.5 -0.5t-2.5 -0.5q-18 0 -26.5 9t-8.5 21q1 35 39 35h152q21 0 28 -9.5t7 -20.5q0 -5 -5 -26l-181 -723q-5 -24 -13 -30.5t-25 -6.5h-155q-14 0 -22 6t-10 12t-2 12z" />
    <glyph glyph-name="asciicircum" unicode="^" 
d="M180 485q0 20 24 32q109 57 129.5 66.5t27.5 9.5q8 0 21.5 -8.5t68.5 -47.5q18 -13 29 -20q22 -14 22 -32q0 -13 -12 -27.5t-26 -14.5h-1h-1q-6 0 -13 4.5t-42 31.5q-30 24 -52 41q-14 -9 -126 -71q-12 -6 -18 -6q-17 0 -24 14.5t-7 27.5z" />
    <glyph glyph-name="underscore" unicode="_" 
d="M30 -63q0 7 2.5 14t13.5 15t29 8h260q43 0 42 -37q0 -7 -2.5 -14t-12.5 -15t-27 -8h-263q-24 0 -33 12.5t-9 24.5z" />
    <glyph glyph-name="grave" unicode="`" 
d="M251 633q0 15 11 26.5t26 11.5q8 0 17 -5t50 -32q26 -18 44 -30q20 -14 20 -31q0 -14 -12.5 -28t-25.5 -14h-3q-5 0 -44 26q-34 23 -61 41q-23 16 -22 35z" />
    <glyph glyph-name="a" unicode="a" 
d="M85 155q1 72 32 142.5t82 115.5t103 45q10 0 18.5 -1.5t15.5 -4t14 -6.5t11.5 -7t9 -7.5t7 -6.5t5.5 -5.5l3 -3.5q11 26 35 26q14 0 24 -9.5t10 -25.5q0 -6 -3 -19l-68 -268q-6 -25 -6 -32q0 -11 4.5 -18t8 -8.5t7.5 -1.5q3 0 6.5 2t7 6.5t6 9.5t5.5 12.5l5 12.5
t4.5 13.5t3.5 12.5l3 12t3 9q2 9 4 13.5t10 11t20 6.5h4q20 0 26.5 -10t6.5 -21q0 -3 -3 -17.5t-12 -38.5t-21 -46t-33.5 -37.5t-47.5 -15.5q-29 0 -50 15.5t-30 38.5q-56 -54 -115 -54q-53 0 -85 45t-31 115zM155 152q0 -21 3 -40t15 -35.5t31 -16.5q30 0 64 35.5
t57.5 92.5t24.5 111q0 44 -14 69t-37 25q-31 0 -64.5 -37t-56.5 -93.5t-23 -110.5z" />
    <glyph glyph-name="b" unicode="b" 
d="M323.5 393q-35.5 0 -72.5 -34.5t-61.5 -89t-25.5 -109.5q-1 -101 64 -101q29 0 60 13.5t60.5 39.5t48.5 73t19 106q1 44 -28 73t-64.5 29zM96 166q0 33 13 86l81 324h-62q-34 0 -34 31q0 7 2.5 14t11.5 14t24 7h102q36 0 35 -31q0 -4 -3 -17l-43 -175q50 39 103 39
q69 0 115 -49t45 -122q0 -69 -23 -125.5t-59.5 -92t-82 -55t-94.5 -19.5q-37 0 -63.5 14t-41 38.5t-20.5 54t-6 64.5z" />
    <glyph glyph-name="c" unicode="c" 
d="M66 171q1 70 38 137t97 108.5t123 41.5q52 0 86 -27.5t33 -71.5q0 -33 -16.5 -48.5t-34.5 -15.5q-17 0 -29 12t-12 29q0 21 16 39v1q-18 17 -44 17q-66 0 -126 -70t-61 -153q0 -18 3.5 -35t13 -35.5t30.5 -29.5t51 -11q54 0 91.5 8.5t51 19t24.5 19t19 8.5q14 0 25 -12.5
t12 -24.5q0 -15 -16 -30q-28 -24 -68.5 -36t-68.5 -14t-71 -2q-39 0 -69.5 11.5t-48.5 30t-29.5 43t-15.5 46.5t-4 45z" />
    <glyph glyph-name="d" unicode="d" 
d="M65 155q1 71 37.5 142.5t92 116t107.5 44.5q51 0 84 -42l40 160h-49q-36 0 -36 31q1 35 39 35h91q35 0 34 -30q0 -9 -3 -20l-120 -479q-4 -16 -4 -25q0 -14 5.5 -21t13.5 -7q14 0 24 23.5t18 52t13 34.5q10 11 25 11q20 0 28 -9.5t8 -21.5q0 -3 -3 -17.5t-11.5 -38.5
t-21 -45.5t-34 -37.5t-47.5 -16q-29 0 -50 15.5t-30 38.5q-60 -54 -115 -54q-59 0 -98 40t-38 120zM135 152q-1 -42 18.5 -67t50.5 -25q29 0 63 34.5t58 91.5t25 113q0 44 -14 69t-37 25q-31 0 -69.5 -36.5t-66.5 -94t-28 -110.5z" />
    <glyph glyph-name="e" unicode="e" 
d="M67 173q1 74 39 140.5t97.5 105.5t120.5 39q53 0 88.5 -30.5t34.5 -78.5q-1 -57 -43 -96q-27 -24 -71.5 -37t-79 -15.5t-90.5 -2.5h-24q-2 -2 -2 -27q0 -19 4 -37t13.5 -35.5t29 -28.5t46.5 -11h2q56 0 93.5 8.5t50.5 19t24.5 19t21.5 8.5q12 0 23.5 -12.5t11.5 -24.5
q0 -19 -30 -39.5t-64 -30.5q-46 -12 -130 -12q-39 0 -69 12t-48 30.5t-29.5 43t-15.5 47t-4 45.5zM158 262q24 0 38.5 0.5t40 2t42.5 5t37 9.5t32 15t20.5 22.5t8.5 31.5q0 20 -15 32.5t-40 12.5q-47 0 -93.5 -37.5t-70.5 -93.5z" />
    <glyph glyph-name="f" unicode="f" 
d="M1 -163q0 28 16 43t35 15q16 0 28 -11.5t12 -30.5q0 -9 -6 -23q20 -4 24 -4q11 0 24 10q31 28 50.5 105.5t68.5 357.5q10 57 16 88h-65q-17 1 -25 10t-8 21q0 6 2 12.5t10.5 14t22.5 7.5h74q1 3 2 10q5 28 7 41t7 35t9.5 32.5t12 26t16.5 22.5t21.5 14.5t28.5 10.5t36 3
q29 0 53.5 -6t43 -24t18.5 -47q0 -24 -14 -40.5t-36 -16.5q-18 0 -29.5 11.5t-10.5 29.5q0 11 5 25q-20 4 -32 4q-31 0 -40.5 -19t-20.5 -82q-4 -19 -6 -30h83q18 0 26.5 -8.5t8.5 -21.5q0 -7 -2 -13.5t-11 -14t-24 -7.5h-92q-55 -321 -78.5 -423.5t-49.5 -138.5
q-45 -63 -103 -63q-25 0 -47.5 5.5t-41.5 23.5t-19 46z" />
    <glyph glyph-name="g" unicode="g" 
d="M23 -172q0 22 14 38.5t36 16.5q17 0 28.5 -11.5t11.5 -31.5q0 -8 -1 -12q30 -2 46 -2q94 0 136 77q9 15 36 135q-54 -38 -103 -38q-59 0 -95.5 47t-35.5 120q1 70 33.5 137.5t86.5 110.5t110 43q57 0 98 -48q3 13 13 22.5t24 9.5t23.5 -9t9.5 -25l-3 -18l-112 -448
q-11 -43 -17 -58q-24 -51 -77.5 -87t-122.5 -36q-1 0 -2.5 0.5t-2.5 0.5q-20 0 -34 0.5t-35 4t-33.5 10t-22 19.5t-9.5 32zM166 165q-1 -45 16.5 -72.5t46.5 -27.5q35 0 72 33t62 86.5t25 108.5q1 46 -16.5 73t-46.5 27q-35 0 -71.5 -32.5t-61.5 -86.5t-26 -109z" />
    <glyph glyph-name="h" unicode="h" 
d="M46 29q0 7 6 31l115 459q4 14 14 57h-43q-22 0 -29 6q-13 9 -13 25q0 7 2 13.5t11.5 14t24.5 7.5h87q1 0 4 -0.5t9.5 -2t12 -4t9.5 -9t4 -15.5q0 -6 -47 -195q50 42 113 42q51 0 80 -30t28 -83q0 -36 -18 -95.5t-35.5 -108.5t-17.5 -60q0 -21 13 -21q16 0 32 19
q13 16 21.5 36t11.5 33.5t11 23t23 9.5h4q14 0 22 -6.5t10 -12t2 -12.5q0 -12 -9.5 -36t-26 -51.5t-45 -47.5t-60.5 -20q-36 0 -57.5 25t-21.5 62q0 21 35.5 122.5t35.5 140.5q1 49 -40 49t-76 -34.5t-57 -87.5t-37.5 -104t-26.5 -96.5t-15 -53.5q-11 -23 -33 -23
q-14 0 -23.5 10t-9.5 24z" />
    <glyph glyph-name="i" unicode="i" 
d="M317 584q0 23 17 40.5t39 17.5q18 0 31.5 -13.5t13.5 -34.5q0 -23 -17.5 -40t-39.5 -17q-19 0 -31.5 13.5t-12.5 33.5zM104 302q1 20 13.5 45.5t32.5 50.5t50.5 42.5t63.5 17.5q41 0 69.5 -26t27.5 -67v-6q0 -17 -49.5 -139.5t-49.5 -133.5q0 -12 8 -19t21 -7
q25 0 50 25.5t37 60.5l1.5 5t2 6t2 5.5t3 6l4.5 4.5t6 4t8 2.5t10 1.5q14 0 24.5 -7.5t10.5 -23.5q0 -15 -11.5 -39.5t-31 -51t-51.5 -45.5t-67 -19q-39 0 -68 25t-29 66q0 26 49 146t49 134q1 12 -7.5 19.5t-20.5 7.5q-28 0 -51.5 -26t-34.5 -60q-1 -2 -3 -8.5t-3 -8.5
t-4 -6.5t-6.5 -6.5t-9 -3.5t-13.5 -1.5q-34 0 -33 30z" />
    <glyph glyph-name="j" unicode="j" 
d="M420 584q0 23 17 40.5t39 17.5q18 0 31.5 -13.5t13.5 -34.5q0 -23 -17.5 -40t-39.5 -17q-19 0 -31.5 13.5t-12.5 33.5zM46 -172q0 23 14.5 39t35.5 16q18 0 29.5 -12t11.5 -30q0 -6 -2 -14q3 0 8.5 -0.5t8.5 -0.5q13 0 27 4.5t33.5 18.5t38 47.5t31.5 82.5l90 360
q3 10 3 20q0 15 -9.5 24.5t-25.5 9.5q-31 0 -62 -27.5t-48 -65.5l-2 -4.5t-3 -6t-3.5 -5.5t-6 -6.5t-8.5 -4t-12 -1.5h-4q-29 0 -32 24q-2 16 12 42.5t37.5 53.5t60 46.5t73.5 19.5q45 0 74.5 -28t28.5 -72q0 -13 -4 -34l-90 -359q-14 -54 -37.5 -95t-51 -64t-56 -33.5
t-56.5 -10.5q-60 0 -82 19.5t-22 46.5z" />
    <glyph glyph-name="k" unicode="k" 
d="M54 29q0 3 0.5 6t1.5 6.5t2 5.5l119 478l13 51h-63q-16 0 -24.5 9.5t-8.5 22.5q1 34 41 34h99q20 0 27.5 -10t7.5 -21q0 -1 -6 -29l-76 -305q25 16 58 49.5t58 60.5t61 49t71 22q33 0 50 -23t16 -60q0 -21 -3.5 -39t-16.5 -34t-34 -16q-16 0 -28 11t-12 31t13.5 34
t13.5 31q-18 -2 -32.5 -8t-32 -20.5t-30 -27t-39 -40t-46.5 -47.5q43 -11 72.5 -38.5t29.5 -72.5q0 -11 -3 -24.5t-3 -20.5q0 -14 8.5 -24t21.5 -10q17 0 31 19q16 21 23.5 49t15 40.5t29.5 12.5h1q18 0 25.5 -9.5t7.5 -21.5q0 -9 -8 -32t-22.5 -52t-42.5 -50t-61 -21
q-42 0 -70.5 27.5t-28.5 70.5q0 11 2.5 24.5t2.5 20.5q0 49 -118 59q-43 -175 -47 -181q-11 -21 -32 -21q-15 0 -24.5 10.5t-9.5 23.5z" />
    <glyph glyph-name="l" unicode="l" 
d="M160 607q1 35 39 35h137q35 0 34 -31q0 -4 -2 -15l-121 -485q-2 -12 -2 -15q0 -8 7 -20q24 -17 46 -17q12 0 22.5 7t18 17.5t14 23.5t10 23.5t6.5 20t3 10.5q9 20 33 20h3q17 0 24 -10t7 -21q0 -10 -9 -33.5t-25 -52t-45 -49t-63 -20.5q-52 0 -87.5 27.5t-35.5 71.5
q0 9 2 18.5t5.5 23t4.5 16.5l106 424h-96q-36 0 -36 31z" />
    <glyph glyph-name="m" unicode="m" 
d="M8 23q0 14 16.5 73.5t30 103.5t17.5 55q9 36 22 89q18 76 25 92t24 16q12 0 18.5 -7.5t8 -13.5t1.5 -9q41 36 87 36q20 0 34 -6t23 -17t13 -20t9 -21q49 64 112 64q33 0 58.5 -23.5t24.5 -78.5q0 -48 -34 -149t-34 -122q0 -11 5.5 -16.5t12.5 -6.5t13 -7.5t5.5 -19.5
t-9.5 -24t-23 -11q-26 0 -50.5 19.5t-23.5 60.5q0 36 34 135t34 137q1 41 -26 41q-29 0 -55.5 -36.5t-44.5 -91t-31.5 -107.5t-22.5 -96.5t-12 -48.5q-9 -18 -36 -18h-2q-17 0 -26 9t-9 20q1 19 41 158t40 170q1 41 -26 41q-29 0 -56.5 -37t-46.5 -91.5t-33 -107.5
t-24 -96.5t-12 -47.5q-9 -18 -35 -18h-1q-15 0 -25 8t-11 20z" />
    <glyph glyph-name="n" unicode="n" 
d="M41 301q0 3 2.5 17t10 38.5t19 46.5t32.5 38.5t46 16.5q27 0 47.5 -16t29.5 -42q55 58 120 58q46 0 73 -29t26 -81q0 -45 -35.5 -154t-35.5 -117q0 -9 3 -17q21 0 35.5 22t23.5 52t10 32q9 15 27 15h2q20 0 28 -9.5t8 -21.5q0 -10 -8.5 -33t-23.5 -51.5t-42 -49.5
t-59 -21q-34 0 -54 23.5t-20 61.5q0 20 35.5 125t35.5 145q1 43 -31 43q-37 0 -69 -36.5t-53 -90.5t-36.5 -107.5t-26 -97t-15.5 -49.5q-11 -17 -30 -17q-13 0 -23.5 9.5t-10.5 24.5q0 6 6 25l69 279q6 21 6 33q1 25 -12 25q-17 0 -37 -76q-1 -2 -3 -11t-3.5 -12.5t-5.5 -9
t-10 -8t-15 -2.5h-2q-35 0 -34 29z" />
    <glyph glyph-name="o" unicode="o" 
d="M66 166q1 65 23.5 121t59.5 92.5t83 57.5t94 21q69 0 115 -49t45 -122q0 -69 -23 -125.5t-59.5 -92t-82 -55t-94.5 -19.5q-69 0 -115.5 48.5t-45.5 122.5zM136 161q-1 -38 26.5 -70t65.5 -32q29 0 60 13.5t60.5 39.5t48.5 73t19 106q1 44 -28 73t-64 29q-29 0 -60 -15
t-60 -43t-48 -73.5t-20 -100.5z" />
    <glyph glyph-name="p" unicode="p" 
d="M-34 -203q0 35 37 35h41l13 52l114 459q3 10 3 20q1 16 -5.5 22.5t-13.5 6.5q-22 0 -41 -76q-1 -2 -3 -9.5t-2.5 -10.5t-4 -9t-7 -8.5t-9.5 -4.5t-14 -2q-34 0 -33 30q0 9 6 31.5t18 51.5t36.5 51t54.5 22q54 0 81 -56q59 56 114 56t96 -46.5t41 -114.5
q-1 -75 -23 -134.5t-56.5 -95t-75.5 -54t-83 -18.5q-66 0 -84 42l-51 -205h44q18 0 26 -4q15 -10 15 -26q0 -8 -2.5 -14.5t-11.5 -13.5t-24 -7h-160q-37 0 -36 30zM203 152v-23.5t2.5 -23.5t7.5 -23.5t15 -15t25 -6.5q25 0 51.5 13t52.5 39.5t43 75.5t18 111
q0 41 -22.5 67.5t-47.5 26.5q-31 0 -65 -37t-57 -93.5t-23 -110.5z" />
    <glyph glyph-name="q" unicode="q" 
d="M75 162q1 68 24 125.5t60 93.5t81 56.5t87 20.5q62 0 102 -56q1 2 2 6q7 17 11 25.5t12 16t17 7.5q12 0 20 -9t8 -21l-3 -15l-145 -580h53q22 0 29 -4q15 -10 15 -26q0 -7 -2.5 -14t-11 -14t-23.5 -7h-209q-35 0 -34 30q0 7 1.5 13.5t10 14t23.5 7.5h77l50 202
q-56 -39 -104 -39q-62 0 -107 48t-44 119zM145 160q-1 -43 25.5 -72t57.5 -29q33 0 70 32.5t63.5 88t27.5 114.5q0 43 -17 71t-47 28q-28 0 -58 -15t-57.5 -42.5t-45.5 -74t-19 -101.5z" />
    <glyph glyph-name="r" unicode="r" 
d="M55 301q0 7 6.5 28.5t19 52t38.5 53.5t58 23t56 -17t34 -44q58 61 131 61q64 0 103.5 -29.5t38.5 -77.5q0 -34 -16 -49.5t-35 -15.5q-18 0 -29 12t-11 30q0 22 17 40q-26 25 -69 25q-40 0 -73.5 -35t-55.5 -88t-37.5 -104.5t-26.5 -96.5t-15 -53q-11 -21 -32 -21
q-25 0 -32 25q-2 8 3 29l72 290q3 13 3 21q0 13 -7.5 22.5t-18.5 9.5q-10 0 -18 -6q-15 -21 -23 -45t-10.5 -37.5t-11 -22.5t-27.5 -9q-33 0 -32 29z" />
    <glyph glyph-name="s" unicode="s" 
d="M56 96q1 32 17 48t35 16q16 0 28.5 -12t11.5 -30q0 -16 -15 -37q33 -22 95 -22q43 0 75.5 10t48 25.5t23 29.5t7.5 27q0 18 -19 31t-40.5 18.5t-53 11t-42.5 8.5q-34 10 -59 34.5t-24 63.5q0 23 10 46t30.5 44.5t57.5 35.5t85 14q26 0 49 -4.5t45 -14t34.5 -28.5t12 -45
t-14.5 -41.5t-34 -15.5q-17 0 -28 11t-11 29q0 12 11 29q-28 15 -67 15q-60 0 -89 -23.5t-29 -49.5q0 -11 6.5 -19t22.5 -13.5t28 -8.5t37 -8q9 -1 14 -2q40 -7 68 -21.5t40.5 -32t17 -32.5t4.5 -31q0 -25 -12 -51t-36 -50.5t-67.5 -40t-100.5 -15.5q-53 0 -89.5 9.5t-53 26
t-23 32t-6.5 33.5z" />
    <glyph glyph-name="t" unicode="t" 
d="M119 417q0 35 36 35h98q8 31 20 79q18 77 27 96.5t31 19.5q12 0 22 -10t10 -25q0 -7 -6 -31.5t-16 -64.5l-16 -64h83q21 0 28 -9.5t7 -20.5q0 -7 -2.5 -14t-11.5 -14t-23 -7h-97q-5 -20 -23.5 -92t-33.5 -133t-15 -69q0 -15 9.5 -24.5t26.5 -9.5q31 0 62 27.5t48 65.5
q7 16 13.5 22.5t20.5 6.5h1q20 0 28 -9t8 -21t-14 -37t-36.5 -52t-58.5 -47t-75 -20q-45 0 -74 27.5t-29 70.5v3q0 14 39 170q18 73 31 121h-84q-14 0 -22.5 6.5t-10 12t-1.5 11.5z" />
    <glyph glyph-name="u" unicode="u" 
d="M41 301q0 11 8.5 34.5t24 52t43 49.5t59.5 21q35 0 56 -24.5t20 -61.5q0 -24 -32 -116.5t-33 -136.5q0 -60 41 -60q16 0 30.5 9t25.5 21.5t22 34.5t18 38.5t15 43.5t11.5 41t8.5 38q6 23 15 61q16 67 25 86.5t31 19.5q13 0 22.5 -10t10.5 -24q0 -9 -4 -25l-70 -276
q-5 -19 -5 -31t5 -19t11 -7q18 0 39 76q0 2 2.5 11.5t4 12.5t5.5 9.5t10 9t15 2.5h4q20 0 26.5 -10t6.5 -21q0 -3 -3 -17.5t-11.5 -38.5t-20 -45.5t-33 -37.5t-46.5 -16q-50 0 -74 45q-45 -45 -99 -45q-18 0 -36 5.5t-35 19t-27.5 39t-10.5 61.5q1 40 17.5 96t32.5 100.5
t16 57.5q1 18 -11 18q-17 0 -36 -29q-12 -19 -19.5 -45t-15 -36t-27.5 -10q-14 0 -22 6.5t-9.5 12t-1.5 10.5z" />
    <glyph glyph-name="v" unicode="v" 
d="M41 301q0 13 10 37.5t27.5 52t47.5 47.5t63 20q38 0 63 -25.5t24 -66.5q0 -19 -32 -106.5t-32 -129.5q-1 -39 19 -55t50 -16q14 0 24 5t25 18q16 20 25.5 35.5t25 57t30.5 103.5q16 63 16 94q1 16 -2.5 29t-3.5 18q0 14 11.5 26t25.5 12q41 0 40 -82q0 -22 -7 -62.5
t-24 -96.5t-40.5 -104.5t-63 -82.5t-85.5 -34q-23 0 -45 6t-44 20.5t-35 43t-12 66.5q0 38 16 91t32 94.5t16 52.5q1 24 -19 24q-14 0 -27 -11q-20 -14 -31 -35t-14.5 -36.5t-12.5 -27t-25 -11.5h-2q-35 0 -34 29z" />
    <glyph glyph-name="w" unicode="w" 
d="M55 124q1 41 16 87t29.5 84t14.5 60q0 6 -0.5 11t-2 8.5t-2.5 5.5t-4.5 3.5t-4 2t-5 1.5l-4.5 1q-22 5 -22 31q0 13 8.5 23t23.5 10q29 0 55.5 -22.5t25.5 -68.5q0 -38 -30 -114.5t-30 -118.5q-1 -69 52 -69q38 0 67.5 86t61.5 275q1 8 10.5 20t24.5 12q13 0 23 -10
t10 -19q0 -13 -28.5 -140t-29.5 -158q0 -66 52 -66q27 0 48.5 49.5t43.5 137.5q20 76 20 110q0 21 -6 39t-6 25q0 15 16.5 26t30.5 11q39 0 39 -71q-1 -43 -26 -148t-50 -156q-43 -87 -112 -87t-98 57q-39 -57 -93 -57q-20 0 -39 6t-37.5 19t-30 40t-11.5 64z" />
    <glyph glyph-name="x" unicode="x" 
d="M41 301q0 17 13 42.5t34.5 51.5t56 44.5t71.5 18.5q59 0 93 -44h1q46 44 102 44q45 0 73.5 -29.5t27.5 -73.5q0 -37 -16 -53t-36 -16q-17 0 -28.5 11.5t-11.5 30.5q0 25 20 42q-10 23 -30 23q-21 0 -41 -16.5t-29 -39.5q-3 -5 -27.5 -104.5t-25.5 -114.5q0 -27 13.5 -43
t36.5 -16q30 0 59.5 25.5t43.5 62.5l1.5 5t2.5 7.5t4 7t6 7t8.5 5t11.5 2.5h3q35 0 35 -31q0 -13 -8 -32.5t-24 -41t-37 -39.5t-49.5 -30t-58.5 -12q-59 0 -93 44q-45 -44 -103 -44q-43 0 -71.5 28.5t-28.5 73.5q1 36 16.5 52.5t35.5 16.5q18 0 29.5 -13t10.5 -30
q0 -24 -20 -40q8 -23 31 -23q20 0 40 16t28 38q3 8 28 107t25 113q0 24 -13 41.5t-36 17.5q-30 0 -59.5 -25t-42.5 -62q-5 -12 -6.5 -15.5t-6 -9.5t-11 -7.5t-16.5 -1.5q-33 0 -32 29z" />
    <glyph glyph-name="y" unicode="y" 
d="M41 301q0 12 9.5 36t26 52t45.5 48.5t62 20.5q37 0 60.5 -26t22.5 -63q0 -23 -32.5 -112t-33.5 -134q0 -64 52 -64q35 0 64.5 34t48 85.5t32 102.5t23.5 96t15 55q12 20 32 20q13 0 23 -10t10 -25q0 -10 -4 -24l-96 -380q-16 -63 -41.5 -110.5t-51 -73.5t-54.5 -42
t-49 -20.5t-37 -4.5q-45 0 -74 27.5t-29 72.5q1 33 16.5 50.5t36.5 17.5q17 0 28.5 -11.5t11.5 -30.5q-1 -23 -20 -41q11 -21 36 -21q45 0 91.5 53.5t65.5 140.5q-41 -25 -80 -25q-20 0 -39.5 6t-38.5 19.5t-30.5 40.5t-11.5 64q1 39 17.5 94t32.5 98t16 54q1 21 -16 21
t-34 -19q-14 -17 -23.5 -37.5t-12 -33t-11 -21.5t-23.5 -9h-3q-34 0 -33 29z" />
    <glyph glyph-name="z" unicode="z" 
d="M53 24q0 11 11 25q31 52 81 103.5t115.5 109.5t93.5 87q-13 4 -40.5 19t-44.5 15q-21 0 -41 -17t-29 -43l-2 -5.5t-3.5 -8.5t-5 -7.5t-9.5 -6.5t-14 -2h-4q-33 0 -32 29q0 23 17.5 53.5t52 56.5t73.5 26q26 0 49.5 -13t41 -26t29.5 -13q9 0 16 8t11.5 18t14.5 18t24 8h1
q17 0 25 -9.5t8 -21.5q0 -19 -41.5 -72t-119.5 -123l-86 -77l-47 -45q24 -3 61.5 -22.5t56.5 -19.5q24 0 52 23q21 18 34 39.5t16 35.5t11.5 24t24.5 10h5q17 0 24 -9.5t7 -20.5q0 -17 -13 -45t-35.5 -57.5t-58 -51t-73.5 -21.5q-27 0 -50 12.5t-42 25.5t-36 13
q-20 0 -33.5 -8t-19.5 -17.5t-17 -17.5t-25 -8h-1q-18 0 -25.5 9t-7.5 20z" />
    <glyph glyph-name="braceleft" unicode="{" 
d="M122 318q0 12 6.5 21.5t16.5 12.5l8.5 0.5t18.5 1.5t23.5 3.5t27.5 7t26.5 11t23 17.5t15.5 24q3 8 26.5 105t31.5 113q12 26 35.5 45t46 28t49.5 14t39 6t22 1q19 0 26.5 -10t7.5 -21q0 -19 -17 -30q-3 -2 -33 -4.5t-61.5 -14t-47.5 -35.5q-6 -9 -36 -132
q-10 -38 -16 -62q-17 -70 -83 -103q36 -33 36 -73q0 -15 -26 -116t-26 -108q0 -20 23 -30t52 -12.5t30 -2.5q18 -7 17 -29q0 -6 -2 -12.5t-10.5 -13.5t-23.5 -7q-28 0 -53.5 5t-49.5 16.5t-38.5 33t-14.5 50.5q0 17 25.5 117t25.5 108q0 18 -22 30q-14 8 -34 11.5t-33 4
t-22.5 7.5t-9.5 22z" />
    <glyph glyph-name="bar" unicode="|" 
d="M172 -51q0 7 5 22l179 719q9 39 38 39q14 0 23.5 -11.5t9.5 -25.5q0 -4 -1.5 -9.5t-1.5 -7.5l-180 -721q-8 -41 -37 -41q-14 0 -24.5 10t-10.5 26z" />
    <glyph glyph-name="braceright" unicode="}" 
d="M28 -57q1 24 20 32q2 0 22.5 2t41.5 5.5t44 16t33 31.5q4 7 50 192q6 24 16 42.5t25 31t21.5 17t20.5 11.5q-36 30 -35 75q0 18 25 116.5t25 105.5q1 18 -20 29q-17 9 -45 11t-42.5 8t-14.5 26q0 8 2.5 14.5t12 13t24.5 6.5q25 0 49.5 -5t49.5 -16t40.5 -33t14.5 -51
q0 -18 -25.5 -118t-25.5 -107q0 -16 15 -27t32.5 -14t35.5 -5t19 -2q19 -8 19 -29q0 -25 -22 -32q-1 -1 -31.5 -3.5t-60.5 -14.5q-21 -9 -33.5 -22.5t-16 -22.5t-8.5 -25q-46 -186 -50 -194q-14 -32 -43 -53.5t-62.5 -29t-52.5 -10t-33 -2.5h-2q-35 0 -35 30z" />
    <glyph glyph-name="asciitilde" unicode="~" 
d="M198 548q0 13 15 31q57 63 103 63q23 0 43 -14t34.5 -28t25.5 -14q17 0 44 27t39 27t21 -9.5t9 -21.5q0 -20 -41 -56.5t-77 -36.5q-22 0 -42.5 13.5t-35.5 27.5t-25 14q-17 0 -43.5 -27t-39.5 -27q-11 0 -21 9t-9 22z" />
    <glyph glyph-name="uni00A0" unicode="&#xa0;" 
 />
    <glyph glyph-name="exclamdown" unicode="&#xa1;" 
d="M111 -189q0 5 5 26l93 326q2 9 4.5 14.5t11 12t20.5 6.5h31q35 0 35 -30q0 -10 -4 -24l-68 -320q-8 -35 -29.5 -51t-43.5 -16q-23 0 -39.5 16t-15.5 40zM242 334q0 31 23 52.5t50 21.5q22 0 38 -16t16 -41q0 -32 -23.5 -53t-49.5 -21q-24 0 -39 16.5t-15 40.5z" />
    <glyph glyph-name="cent" unicode="&#xa2;" 
d="M80 175q1 102 76 187.5t171 96.5q17 75 26 93.5t28 18.5q15 0 22.5 -9t6.5 -18q0 -7 -3 -20t-8 -32.5t-8 -31.5q23 -1 40 -3.5t35 -9.5t27.5 -21t9.5 -34q-1 -23 -14.5 -39.5t-35.5 -16.5q-18 0 -29 12t-10 32q0 10 1 14l-40 2l-83 -333q28 7 47 21.5t26.5 27t18 22.5
t25.5 10q21 0 28 -9.5t7 -20t-11 -27.5t-30.5 -36.5t-53.5 -35.5t-74 -19l-6.5 -26t-5 -22.5t-4 -18.5t-4.5 -15.5t-4.5 -11.5t-5 -8.5t-6 -5.5t-7.5 -4t-9 -1q-13 0 -22 8.5t-9 21.5q0 4 20 85q-60 13 -96.5 60.5t-35.5 116.5zM150 176q0 -38 18.5 -69.5t60.5 -43.5l81 327
q-74 -25 -116.5 -89t-43.5 -125z" />
    <glyph glyph-name="sterling" unicode="&#xa3;" 
d="M45 44q0 31 24 57.5t58 26.5q14 0 27 -3l12 30l33 134h-15q-20 0 -27 9t-7 20q0 35 38 35h28q28 120 41 161q20 59 60.5 97.5t83.5 38.5q29 0 51.5 -22t22.5 -76q-1 -20 -5.5 -48t-9.5 -40q-15 -29 -45 -29q-19 0 -30 12t-10 30q0 28 27 46q6 31 6 39q0 22 -11 22
q-14 0 -36.5 -24.5t-37.5 -68.5q-8 -27 -36 -138h29q38 0 38 -31q-1 -33 -39 -33h-44l-1 -1q-32 -148 -55 -194l5 -3t9.5 -6t12 -7.5t14 -7.5t14 -5t13.5 -2q12 0 20.5 14t14 36.5t7.5 26.5q10 18 33 19q14 0 24 -8.5t10 -22.5q-1 -6 -4.5 -19.5t-12 -33.5t-20.5 -37.5
t-32 -30t-43 -12.5q-19 0 -41 8t-32.5 14t-32.5 21q-39 -43 -85 -43q-20 0 -32.5 14.5t-11.5 34.5z" />
    <glyph glyph-name="currency" unicode="&#xa4;" 
d="M-95 -4q0 5 1 9t4 9t6 8.5t11.5 10.5t16 13t23 19t29.5 24l30 27q-24 49 -23 112q1 71 32.5 137.5t81.5 114.5v1q-3 3 -11 15t-21 30t-21 30q-12 15 -12 29t10.5 25t24.5 11q9 0 15.5 -4t23 -25t45.5 -67q29 17 46 26.5t59 22.5t83 13q43 0 81.5 -14.5t53 -25.5t24.5 -22
h1q100 85 112 91q10 5 16 5q15 0 24.5 -11t9.5 -25q0 -10 -6 -19t-8.5 -11.5t-12.5 -9.5q-92 -77 -94 -79q25 -51 24 -112q-1 -71 -33 -137.5t-82 -114.5q7 -10 18 -26q35 -48 41 -58.5t6 -20.5q0 -15 -9.5 -26t-24.5 -11q-14 0 -29 16t-56 80q-29 -18 -48 -27.5t-59 -21.5
t-80 -12q-43 0 -81.5 14t-53 25.5t-24.5 22.5q-17 -14 -43 -36q-53 -44 -64.5 -52.5t-21.5 -8.5q-15 0 -25 11.5t-10 24.5zM73 228q-1 -72 43 -116.5t113 -44.5q68 0 134.5 41t108 108t42.5 138q1 72 -42.5 116t-113.5 44t-136.5 -41.5t-107 -108t-41.5 -136.5z" />
    <glyph glyph-name="yen" unicode="&#xa5;" 
d="M60 198q0 7 2.5 13t11.5 13t25 7h144l5 26l-7 67h-105q-18 0 -27 9.5t-9 22.5q0 7 2.5 13t12 12.5t25.5 6.5h93l-23 188h-9q-35 0 -35 31q0 7 2 13.5t10.5 14t23.5 7.5h97q20 0 27 -10t7 -21q0 -13 -8 -24t-28 -11h-12l19 -188h27l15 29l96 159q-16 1 -24 10t-8 21
q0 7 2 13.5t11 14t24 7.5h97q34 0 33 -31q0 -35 -35 -35h-10q-10 0 -13.5 -2t-9.5 -12l-108 -174h80q18 0 27 -9t9 -22q0 -7 -2.5 -13.5t-12 -13t-24.5 -6.5h-117l-35 -56l-6 -12l-4 -12l-3 -13h122q43 0 42 -33q0 -5 -1.5 -11.5t-11 -13.5t-24.5 -7h-144l-25 -101h13
q14 0 22 -6.5t9.5 -12t1.5 -11.5q0 -14 -8 -24.5t-29 -10.5h-108q-20 0 -27.5 9.5t-7.5 20.5q1 35 39 35h25l25 101h-121q-13 0 -19 1q-10 2 -18 10.5t-8 20.5z" />
    <glyph glyph-name="brokenbar" unicode="&#xa6;" 
d="M172 -50q1 9 5 22l68 272q8 34 35 34q14 0 24.5 -10t10.5 -26q0 -9 -4 -22l-63 -254q-1 -1 -3 -10t-4 -14.5t-6.5 -13t-11.5 -11.5t-16 -4q-14 0 -24.5 10.5t-10.5 26.5zM286 400q0 8 4 23l67 271q2 7 5 13.5t11.5 14t20.5 7.5q14 0 23.5 -10.5t9.5 -26.5q0 -11 -3 -20
l-68 -273q-9 -35 -37 -35q-14 0 -23.5 10t-9.5 26z" />
    <glyph glyph-name="section" unicode="&#xa7;" 
d="M53 -127q1 33 13 46.5t27 13.5t24 -11t9 -22q0 -2 -1 -11.5t-2 -15.5q0 -26 14.5 -36.5t33.5 -10.5q46 0 87 40.5t41 83.5q1 11 -2.5 21t-10.5 18t-13.5 14.5t-17.5 12.5t-16 9t-16.5 8t-12.5 6q-38 19 -65.5 55t-27.5 86q1 50 32 98.5t77 73.5q-41 44 -41 102
q1 71 58.5 132t131.5 61q49 0 82 -31t32 -80q0 -34 -12.5 -47t-27.5 -13t-24 10.5t-9 21.5q0 2 1 11t1 15q1 26 -13 37t-34 11q-46 0 -87 -40.5t-42 -82.5q0 -15 6.5 -28t20 -24t21.5 -16.5t25.5 -13.5l17.5 -8q46 -24 69.5 -60.5t23.5 -79.5q-1 -50 -32 -98.5t-77 -73.5
q41 -48 40 -102q0 -71 -57.5 -132t-132.5 -61q-49 0 -81.5 30.5t-32.5 80.5zM174 185q0 -32 32.5 -57.5t48.5 -25.5q31 0 72 38.5t42 83.5q0 32 -32.5 57.5t-48.5 25.5q-31 0 -72 -38.5t-42 -83.5z" />
    <glyph glyph-name="dieresis" unicode="&#xa8;" 
d="M419 584q0 23 17 40.5t39 17.5q18 0 31.5 -13.5t13.5 -34.5q0 -23 -17.5 -40t-39.5 -17q-19 0 -31.5 13.5t-12.5 33.5zM214 584q0 22 17 39.5t39 17.5q19 0 32 -12.5t13 -33.5q0 -23 -17.5 -41t-38.5 -18q-19 0 -32.5 13.5t-12.5 34.5z" />
    <glyph glyph-name="copyright" unicode="&#xa9;" 
d="M109 148q1 72 31 144.5t80 120t102 48.5q38 0 65 -23h1q17 23 36 23q12 0 20.5 -8.5t8.5 -22.5q0 -9 -25 -108q-3 -10 -4 -14t-5 -11.5t-11 -10t-18 -2.5q-36 0 -35 32q0 4 1 12.5t1 12.5q1 55 -32 55q-30 0 -64 -37t-58.5 -96t-24.5 -115q0 -20 3.5 -40t15.5 -37t30 -17
q23 0 45.5 21t34.5 52q0 1 1.5 5t2.5 6.5t3.5 7t6 7t8.5 4.5t12 2h2q35 0 35 -30q-1 -14 -12 -37t-30 -46.5t-50 -40.5t-66 -17q-51 0 -81.5 44t-29.5 116zM-27 61q1 96 26 196t67.5 185t95.5 153t114.5 106.5t120.5 38.5q64 0 109.5 -44.5t65.5 -112.5t19 -150
q-1 -115 -38.5 -237t-95.5 -219t-135.5 -159.5t-153.5 -62.5q-63 0 -108.5 43t-66.5 111.5t-20 151.5zM43 64q-1 -37 4.5 -74t18.5 -75.5t39.5 -62.5t62.5 -24q57 0 120.5 55.5t114 140.5t84.5 195t35 210q1 39 -5 77t-19 76t-39.5 62t-62.5 24q-58 0 -121.5 -55.5
t-113.5 -141t-83.5 -195.5t-34.5 -212z" />
    <glyph glyph-name="ordfeminine" unicode="&#xaa;" 
d="M1 259q0 7 2.5 13.5t12 13t25.5 6.5h340q40 0 40 -33q0 -6 -2.5 -12.5t-12 -13t-24.5 -6.5h-344q-22 0 -29.5 11t-7.5 21zM90 498q1 57 28 112t72 89.5t92 34.5h1q42 0 73 -32q16 19 34 19q13 0 22 -10.5t9 -24.5q0 -8 -26.5 -113.5t-27.5 -115.5q0 -16 8.5 -24.5
t19.5 -8.5q16 0 27.5 23.5t19.5 52.5t11 33q9 12 28 12q21 0 28 -9.5t7 -21.5q0 -6 -6.5 -28t-19 -52t-38.5 -52.5t-58 -22.5q-27 0 -49.5 12.5t-34.5 34.5q-18 -14 -30 -22t-34 -16.5t-44 -8.5q-50 0 -81.5 39.5t-30.5 99.5zM160 497q0 -34 12 -53.5t33 -19.5q40 0 79 55
t40 118q1 37 -12.5 55t-32.5 18q-39 0 -78.5 -55.5t-40.5 -117.5z" />
    <glyph glyph-name="guillemotleft" unicode="&#xab;" 
d="M85 231q0 14 18 30l194 181l4 4t4.5 4t4 3t4.5 3l5 2.5t6 2t6 0.5q15 0 23 -8.5t8 -22.5q1 0 -4 -7t-56.5 -58.5t-146.5 -138.5q25 -44 59 -103q36 -62 41.5 -74t5.5 -20q0 -10 -7 -19.5t-23 -9.5h-5q-11 0 -22 16.5t-63 106.5q-28 50 -47 82q-9 18 -9 26zM204 232
q0 12 18 29l195 181q1 1 5.5 5t6 5.5t5.5 4t8 3.5t8 1q15 0 23 -8.5t8 -22.5v-1q0 -9 -12 -22t-85 -80q-64 -59 -110 -101q32 -57 70 -123q28 -48 32.5 -57t4.5 -17q0 -9 -7.5 -19t-23.5 -10h-5q-11 0 -22 16.5t-63 106.5q-28 50 -47 82q-9 16 -9 27z" />
    <glyph glyph-name="logicalnot" unicode="&#xac;" 
d="M121 341q0 7 2.5 14t12.5 15t28 8h283q17 0 27 -7.5t12 -14.5t2 -15q0 -10 -63 -260l-0.5 -3.5t-1 -5t-1.5 -5t-2 -5.5t-3 -5.5t-3.5 -5.5t-4.5 -4.5t-6 -4t-7 -2.5t-9 -1q-14 0 -23.5 10.5t-9.5 21.5q0 13 7 43t22 87.5t26 102.5h-245q-43 0 -43 37z" />
    <glyph glyph-name="uni00AD" unicode="&#xad;" 
d="M203 225q0 13 8 23t27 10h78q20 0 27.5 -9.5t7.5 -20.5q-1 -34 -37 -34h-77q-19 0 -26.5 9.5t-7.5 21.5z" />
    <glyph glyph-name="registered" unicode="&#xae;" 
d="M51 30q1 35 38 35h21l79 319h-3q-39 0 -39 31q0 34 38 34h126q59 0 85.5 -30.5t26 -69.5t-24.5 -74.5t-57 -56.5q15 -27 15 -53q0 -16 -10.5 -56t-9.5 -57q9 11 14 30.5t12 30.5t25 11h1q21 0 28.5 -9t7.5 -21q0 -7 -5 -22.5t-15 -35t-28.5 -34t-41.5 -14.5q-26 0 -47 18
t-20 58q0 21 9.5 56t9.5 45q0 27 -36 27h-37l-32 -127h6q37 0 36 -30q0 -14 -8.5 -24.5t-29.5 -10.5h-100q-34 0 -34 30zM229 257h26q45 0 70 25.5t25 50.5q1 51 -67 51h-21l-1 -1zM-27 61q1 96 26 196t67.5 185t95.5 153t114.5 106.5t120.5 38.5q64 0 109.5 -44.5
t65.5 -112.5t19 -150q-1 -115 -38.5 -237t-95.5 -219t-135.5 -159.5t-153.5 -62.5q-63 0 -108.5 43t-66.5 111.5t-20 151.5zM43 64q-1 -37 4.5 -74t18.5 -75.5t39.5 -62.5t62.5 -24q57 0 120.5 55.5t114 140.5t84.5 195t35 210q1 39 -5 77t-19 76t-39.5 62t-62.5 24
q-58 0 -121.5 -55.5t-113.5 -141t-83.5 -195.5t-34.5 -212z" />
    <glyph glyph-name="macron" unicode="&#xaf;" 
d="M215 617q0 8 2 14.5t11 14t24 7.5h246q37 0 36 -30q0 -36 -36 -36h-249q-14 0 -22 6t-10 12t-2 12z" />
    <glyph glyph-name="degree" unicode="&#xb0;" 
d="M218 486q0 60 47 108t107 48q44 0 74.5 -31t29.5 -79q0 -59 -47 -107t-107 -48q-45 0 -75 30.5t-29 78.5zM288 486q0 -20 10.5 -28t24.5 -8q30 0 56.5 26t26.5 55q1 20 -10 28.5t-25 8.5q-31 0 -57 -26t-26 -56z" />
    <glyph glyph-name="plusminus" unicode="&#xb1;" 
d="M74 170q0 8 2.5 15.5t13.5 15t28 7.5h118l32 126h-102q-42 0 -42 37q1 13 10 24.5t31 11.5h121q44 175 48 182q11 17 28 17q15 0 25 -11t10 -26q0 -6 -10 -46.5t-19 -77.5l-10 -38h102q18 0 28 -8t11.5 -15t1.5 -14t-2 -14t-13 -14.5t-29 -7.5h-118l-32 -126h102
q18 0 28 -8t12 -15t2 -14t-2 -13.5t-12 -15t-27 -8.5h-294q-25 0 -33.5 12t-8.5 24z" />
    <glyph glyph-name="twosuperior" unicode="&#xb2;" 
d="M133 344q0 18 13 45.5t47 61.5t81 55q13 6 52 19t66 23.5t50.5 28.5t23.5 37q1 27 -28.5 44.5t-71.5 17.5h-1q-43 0 -69 -7t-34.5 -17t-13 -20t-12 -17t-23.5 -7q-34 0 -33 29q0 15 8 30.5t26.5 33t57.5 28.5t94 11q46 0 81 -12t53.5 -32t27.5 -40.5t8 -41.5
q0 -27 -13.5 -50.5t-32.5 -39t-46.5 -29.5t-49.5 -22t-49.5 -17t-38.5 -14q-28 -12 -48 -27q25 -4 67 -16.5t67 -12.5q31 0 58 15.5t36 39.5q7 16 13.5 21t22.5 5q35 0 34 -30q0 -38 -48.5 -80t-118.5 -42q-34 0 -84 18.5t-71 18.5q-14 0 -22.5 -6t-11 -13t-10 -12.5
t-20.5 -5.5q-35 0 -37 29z" />
    <glyph glyph-name="threesuperior" unicode="&#xb3;" 
d="M154 439q1 44 17 61.5t36 17.5q17 0 29 -12t12 -30q-1 -24 -24 -43q5 -59 58 -59q15 0 36 3.5t46 10.5t42.5 22t17.5 34q1 21 -16.5 39t-60.5 18h-43q-20 0 -27.5 9.5t-7.5 20.5q0 7 2.5 14t11.5 13.5t24 6.5h36q59 0 93.5 23t35.5 45q0 18 -21 30.5t-58 12.5
q-41 0 -65 -6t-31.5 -15t-11.5 -17.5t-11.5 -15t-24.5 -6.5q-16 0 -24 8.5t-8 21.5q0 24 20 47q41 47 157 47q76 0 112.5 -33t36.5 -72q-1 -32 -23 -61.5t-59 -47.5q34 -39 33 -82q0 -38 -23.5 -66.5t-59.5 -42.5t-69 -20t-62 -6q-61 0 -93.5 38t-32.5 92z" />
    <glyph glyph-name="acute" unicode="&#xb4;" 
d="M307 574q0 9 6 16.5t9 9t12 6.5q20 10 51 25q78 40 88 40q13 0 22.5 -10t10.5 -25q-1 -25 -30 -39t-69 -35q-61 -31 -69 -31q-16 0 -23.5 15t-7.5 28z" />
    <glyph glyph-name="uni00B5" unicode="&#xb5;" 
d="M-14 -210q1 10 4 21l152 607q10 39 38 39q13 0 23 -9.5t10 -24.5q0 -11 -33.5 -139t-34.5 -159q0 -66 58 -66q36 0 66.5 33t49.5 84t32.5 101.5t23.5 96t15 55.5q12 23 33 23q13 0 22.5 -8.5t10.5 -20.5t-2 -26l-71 -279q-4 -21 -4 -30q0 -14 6 -21t13 -7q21 0 41 76
q0 2 2.5 11.5t4 12.5t5.5 9.5t10 9t15 2.5h3q14 0 22 -6.5t10 -12.5t2 -12q0 -3 -3 -17.5t-11.5 -38.5t-20.5 -45.5t-33.5 -37.5t-47.5 -16q-22 0 -45.5 11.5t-35.5 41.5q-54 -53 -116 -53q-47 0 -85 28q-17 -69 -38 -153q-17 -70 -21 -82.5t-9 -19.5h-1q-12 -13 -27 -13
q-13 0 -23 10t-10 25z" />
    <glyph glyph-name="paragraph" unicode="&#xb6;" 
d="M62 -196q0 36 45 36h22l84 335q-38 14 -61 54t-22 103q1 48 17.5 101.5t45 100.5t73 77.5t95.5 30.5h169q17 0 27 -8t12 -15t2 -14q0 -8 -2 -15t-13 -14.5t-29 -7.5h-23l-183 -728h7q25 0 34 -12.5t9 -24.5q0 -7 -2.5 -14t-12.5 -14.5t-27 -7.5h-227q-23 0 -31.5 12
t-8.5 25zM201 -160h49l182 728h-48z" />
    <glyph glyph-name="periodcentered" unicode="&#xb7;" 
d="M227 225q0 22 17 39.5t39 17.5q19 0 32 -12.5t13 -33.5q0 -23 -17.5 -41t-38.5 -18q-19 0 -32.5 13.5t-12.5 34.5z" />
    <glyph glyph-name="cedilla" unicode="&#xb8;" 
d="M55 -189q0 25 20 33q3 1 31.5 2t57 4t53 16t24.5 36q0 14 -10 20.5t-22.5 7t-23 6.5t-10.5 20q1 12 8.5 45t10.5 40q9 19 33 19q35 0 34 -31q0 -3 -1.5 -10.5t-4 -17.5t-3.5 -15q23 -9 41.5 -29.5t18.5 -53.5q-1 -35 -24.5 -65.5t-67 -43t-127.5 -12.5h-4
q-19 0 -26.5 9.5t-7.5 19.5z" />
    <glyph glyph-name="onesuperior" unicode="&#xb9;" 
d="M169 351q0 7 2.5 14t11.5 13.5t24 6.5h88l56 231q-53 -25 -91 -25q-36 0 -36 31q1 24 21 32q2 1 18.5 2.5t32.5 5.5t41.5 19t50.5 40q13 16 28 16q29 0 28 -30q0 -3 -1.5 -10t-1.5 -8l-66 -268l-9 -36h61q19 0 25.5 -9.5t6.5 -20.5q0 -7 -2 -13.5t-10.5 -13.5t-21.5 -8
h-219q-37 0 -37 31z" />
    <glyph glyph-name="ordmasculine" unicode="&#xba;" 
d="M1 259q0 33 39 33h315q23 0 30.5 -10.5t7.5 -22.5q0 -32 -38 -32h-318q-21 0 -28.5 11t-7.5 21zM91 507q1 89 69.5 158.5t149.5 69.5q60 0 99 -41.5t38 -106.5q-1 -89 -68.5 -158.5t-149.5 -69.5q-60 0 -99.5 41t-38.5 107zM161 505q0 -37 19.5 -59.5t51.5 -22.5
q52 0 98 51.5t47 113.5q0 37 -19 59.5t-51 22.5q-53 0 -99 -52t-47 -113z" />
    <glyph glyph-name="guillemotright" unicode="&#xbb;" 
d="M74 30q1 15 22 34q166 155 186 172q-20 34 -49 85q-43 74 -51 88.5t-8 22.5q0 9 8 19t23 10q10 0 17 -5t9 -8.5t7 -11.5q20 -34 49 -85q47 -81 55.5 -97t8.5 -24q0 -4 -1.5 -8t-4 -7.5t-4 -5.5t-5 -5.5t-4.5 -3.5l-194 -181l-2 -2q-19 -17 -32 -17q-12 0 -21 8.5t-9 21.5
zM193 30q0 10 5 16.5t18 17.5q181 169 185 172q-20 34 -49 85q-43 74 -51 88.5t-8 22.5q0 9 8 19t23 10q10 0 17 -5t9 -8.5t7 -11.5q20 -34 49 -85q47 -81 55.5 -97t8.5 -24q0 -13 -18 -30l-195 -181l-2 -2q-19 -17 -32 -17q-12 0 -21 8.5t-9 21.5z" />
    <glyph glyph-name="onequarter" unicode="&#xbc;" 
d="M22 34q1 16 13 24q6 4 50.5 10t90.5 17t61 29q2 3 9 15t13 16.5t17 4.5q8 0 19 -3l7 33l6 22l5 10h-220q-21 0 -29.5 11t-8.5 25q0 37 44 37h368q42 0 42 -37q0 -8 -2.5 -14.5t-12 -14t-25.5 -7.5h-95q2 -9 2 -17q0 -9 -3.5 -23.5t-14 -54.5t-21.5 -84q19 0 37 1t20 1
q16 0 24.5 -11t8.5 -23q0 -8 -3 -13.5t-10 -9t-12.5 -6t-18.5 -3.5t-19.5 -1t-22.5 -1h-20q-7 -29 -36 -144q0 -1 -2.5 -11.5t-4.5 -15.5t-6.5 -13t-12 -12t-17.5 -4q-14 0 -23.5 10t-8.5 26q0 5 41 169q-39 4 -68.5 5.5t-37.5 2t-16.5 2.5t-24.5 10q-25 10 -30 10
q-3 0 -9.5 -1t-10.5 -1q-13 0 -22.5 11t-9.5 23zM180 387q0 8 2 14.5t10.5 13.5t23.5 7h87l1 1l50 203q-46 -21 -91 -21q-35 0 -34 30q0 11 6 20.5t16 12.5q2 1 18 2t32 4t40 15t46 32q16 16 29 16q10 0 18 -6t11 -16q1 -8 -4 -29l-65 -264h50q1 0 2.5 0.5t3.5 0.5
q38 0 38 -30q0 -8 -2 -15t-11 -14t-23 -7h-217q-38 0 -37 30zM239 38l27 -2v1l6 18h-1l-12 -8z" />
    <glyph glyph-name="onehalf" unicode="&#xbd;" 
d="M-7 -215q1 18 18 45t53 49q24 16 72 34t85.5 30.5t67 33.5t29.5 45q1 25 -26.5 44t-67.5 19q-47 0 -84.5 -27t-51.5 -67q-4 -10 -6 -14t-9.5 -9t-18.5 -5q-36 0 -36 31q0 17 13.5 42t38 51t66 44.5t89.5 18.5q70 0 117 -36t46 -93q0 -31 -16 -59q11 9 28 9q34 0 33 -30
q0 -11 -7.5 -32t-23 -47.5t-37 -50t-52.5 -40t-66 -16.5q-28 0 -81 13.5t-76 13.5q-22 0 -32 -13.5t-28 -13.5h-2q-20 0 -27.5 10t-7.5 20zM55 248q0 14 9 24.5t23 12.5h374q49 0 49 -37q0 -16 -11 -26t-27 -10h-378q-17 0 -26.5 7.5t-11 14.5t-1.5 14zM148 -159
q13 -2 35.5 -6t37 -6t28.5 -2q12 0 23 3t20 8.5t17.5 13.5t15 16t12.5 18t10 18t8 17.5t6 15t4 12.5l2 7q-28 -34 -65 -54.5t-89 -37.5t-65 -23zM180 387q0 8 2 14.5t10.5 13.5t23.5 7h87l1 1l50 203q-46 -21 -91 -21q-35 0 -34 30q0 11 6 20.5t16 12.5q2 1 18 2t32 4t40 15
t46 32q16 16 29 16q10 0 18 -6t11 -16q1 -8 -4 -29l-65 -264h50q1 0 2.5 0.5t3.5 0.5q38 0 38 -30q0 -8 -2 -15t-11 -14t-23 -7h-219q-36 0 -35 30z" />
    <glyph glyph-name="threequarters" unicode="&#xbe;" 
d="M22 34q1 16 13 24q6 4 50.5 10t90.5 17t61 29q2 3 9 15t13 16.5t17 4.5q8 0 19 -3l7 33l6 22l5 10h-220q-21 0 -29.5 11t-8.5 25q0 37 44 37h368q42 0 42 -37q0 -8 -2.5 -14.5t-12 -14t-25.5 -7.5h-95q2 -9 2 -17q0 -9 -3.5 -23.5t-14 -54.5t-21.5 -84q19 0 37 1t20 1
q16 0 24.5 -10.5t8.5 -23.5q0 -8 -3 -13.5t-10 -9t-12.5 -6t-18.5 -3.5t-19.5 -1t-22.5 -1h-20q-7 -29 -36 -144q0 -1 -2.5 -11.5t-4.5 -15.5t-6.5 -13t-12 -12t-17.5 -4q-14 0 -23.5 10t-8.5 26q0 6 17.5 77t23.5 92q-39 4 -68.5 5.5t-37.5 2t-16.5 2.5t-24.5 10
q-25 10 -30 10q-3 0 -9.5 -1t-10.5 -1q-13 0 -22.5 11t-9.5 23zM164 476q0 44 16 61t37 17q17 0 28.5 -11.5t11.5 -30.5q0 -25 -23 -43q5 -58 55 -58h3q52 0 94.5 16t43.5 40q0 20 -18.5 36t-66.5 16h-35q-37 0 -36 29q0 13 8 24t26 11h47q48 0 83 19t36 37q0 9 -7.5 16.5
t-27.5 14t-50 6.5h-11q-36 0 -56.5 -5t-27 -13t-9.5 -15.5t-10 -12.5t-22 -5q-35 0 -34 30q0 31 31 56q37 29 125 29h9q82 0 123 -30q38 -28 38 -68q-1 -30 -20.5 -55.5t-55.5 -42.5q32 -35 32 -77q-1 -33 -22.5 -58t-55.5 -38t-67.5 -19t-67.5 -6q-59 0 -92 37.5t-32 92.5z
M239 38l27 -2v1l6 18h-1l-12 -8z" />
    <glyph glyph-name="questiondown" unicode="&#xbf;" 
d="M46 -124q0 74 61 130q11 11 72.5 52t65.5 45q15 14 16 41v7q-22 -3 -34 -14t-15 -22t-11.5 -19.5t-24.5 -8.5q-35 0 -35 30q1 31 38 64.5t86 33.5q27 0 44 -20.5t17 -52.5q-1 -56 -38 -93q-16 -14 -49 -35.5t-59.5 -38.5t-47.5 -44t-21 -56q-1 -25 15 -40.5t43 -15.5
q39 0 75.5 25t37.5 39q0 3 -1.5 10t-1.5 11q0 21 14.5 36.5t33.5 15.5q18 0 30 -12t12 -30q0 -22 -15.5 -49t-41 -51.5t-64 -41.5t-80.5 -17q-54 0 -88.5 33.5t-33.5 87.5zM258 351q0 23 17.5 40t38.5 17q19 0 32.5 -13t12.5 -34q0 -23 -17.5 -40.5t-38.5 -17.5
q-19 0 -32 13.5t-13 34.5z" />
    <glyph glyph-name="Agrave" unicode="&#xc0;" 
d="M356 808q0 16 11 27.5t25 11.5q8 0 21.5 -6t94.5 -47q24 -11 24 -32q0 -11 -11 -26.5t-25 -15.5q-8 0 -67 30q-28 14 -47 24q-27 13 -26 34zM23 32q5 20 24 30q7 2 44 2l259 550q13 28 25.5 34t38.5 6t35 -6.5t8 -34.5l-16 -549q37 0 42 -3q15 -8 10 -29
q-4 -15 -14 -22.5t-17.5 -8.5t-19.5 -1h-102q-7 0 -11 0.5t-11 2t-8.5 4.5l-4.5 9t1 16q4 15 13.5 22.5t19 8.5t31.5 1l4 109h-162l-50 -109h14.5t12 -0.5t10.5 -2t6.5 -3.5t4.5 -5.5t1.5 -9t-1.5 -11.5q-4 -15 -13.5 -22.5t-16.5 -8.5t-20 -1h-102q-7 0 -11 0.5t-11 2
t-9 4.5t-5 9t1 16zM243 237h132l17 330z" />
    <glyph glyph-name="Aacute" unicode="&#xc1;" 
d="M377 761q0 14 7.5 21t21.5 13q34 13 78 31q53 21 60 21q14 0 23.5 -10.5t9.5 -23.5q0 -10 -3.5 -17.5t-13 -13.5t-14 -8t-20.5 -9l-36 -14t-28 -11t-19.5 -8t-14.5 -6t-9.5 -3.5t-7 -2t-4.5 -0.5q-16 0 -23 13t-7 28zM23 32q5 20 24 30q7 2 44 2l259 550q13 28 25.5 34
t38.5 6t35 -6.5t8 -34.5l-16 -549q37 0 42 -3q15 -8 10 -29q-4 -15 -14 -22.5t-17.5 -8.5t-19.5 -1h-102q-7 0 -11 0.5t-11 2t-8.5 4.5l-4.5 9t1 16q4 15 13.5 22.5t19 8.5t31.5 1l4 109h-162l-50 -109h14.5t12 -0.5t10.5 -2t6.5 -3.5t4.5 -5.5t1.5 -9t-1.5 -11.5
q-4 -15 -13.5 -22.5t-16.5 -8.5t-20 -1h-102q-7 0 -11 0.5t-11 2t-9 4.5t-5 9t1 16zM243 237h132l17 330z" />
    <glyph glyph-name="Acircumflex" unicode="&#xc2;" 
d="M271 733q0 12 9 20t57 39q46 29 80 51q24 16 30.5 19t12.5 3q4 0 7 -0.5t7 -3t7 -5.5t9.5 -9t12 -11t16 -15.5t20.5 -19.5q43 -41 50.5 -49.5t7.5 -18.5q0 -14 -13.5 -27.5t-26.5 -13.5q-9 0 -20.5 10.5t-54.5 56.5q-18 18 -29 30q-15 -11 -41 -29q-73 -51 -87 -59.5
t-22 -8.5q-14 0 -23 14t-9 27zM23 32q5 20 24 30q7 2 44 2l259 550q13 28 25.5 34t38.5 6t35 -6.5t8 -34.5l-16 -549q37 0 42 -3q15 -8 10 -29q-4 -15 -14 -22.5t-17.5 -8.5t-19.5 -1h-102q-7 0 -11 0.5t-11 2t-8.5 4.5l-4.5 9t1 16q4 15 13.5 22.5t19 8.5t31.5 1l4 109
h-162l-50 -109h14.5t12 -0.5t10.5 -2t6.5 -3.5t4.5 -5.5t1.5 -9t-1.5 -11.5q-4 -15 -13.5 -22.5t-16.5 -8.5t-20 -1h-102q-7 0 -11 0.5t-11 2t-9 4.5t-5 9t1 16zM243 237h132l17 330z" />
    <glyph glyph-name="Atilde" unicode="&#xc3;" 
d="M236 757q0 7 3 12.5t6.5 9t11.5 12.5q74 69 128 69q22 0 42.5 -10.5t33 -23t28 -22.5t27.5 -10q20 0 43.5 16t42.5 32.5t29 16.5q11 0 20.5 -10t9.5 -23q0 -4 -1.5 -8t-4 -8t-4 -6t-6 -6l-4.5 -4q-72 -70 -129 -70q-23 0 -43.5 10.5t-33 22.5t-27.5 22.5t-28 10.5
q-19 0 -42.5 -16.5t-42.5 -33t-28 -16.5q-12 0 -21.5 10t-9.5 23zM23 32q5 20 24 30q7 2 44 2l259 550q13 28 25.5 34t38.5 6t35 -6.5t8 -34.5l-16 -549q37 0 42 -3q15 -8 10 -29q-4 -15 -14 -22.5t-17.5 -8.5t-19.5 -1h-102q-7 0 -11 0.5t-11 2t-8.5 4.5l-4.5 9t1 16
q4 15 13.5 22.5t19 8.5t31.5 1l4 109h-162l-50 -109h14.5t12 -0.5t10.5 -2t6.5 -3.5t4.5 -5.5t1.5 -9t-1.5 -11.5q-4 -15 -13.5 -22.5t-16.5 -8.5t-20 -1h-102q-7 0 -11 0.5t-11 2t-9 4.5t-5 9t1 16zM243 237h132l17 330z" />
    <glyph glyph-name="Adieresis" unicode="&#xc4;" 
d="M504 802q0 23 17.5 40.5t38.5 17.5q20 0 33 -14.5t13 -32.5q-1 -23 -18.5 -40.5t-38.5 -17.5q-19 0 -32.5 13.5t-12.5 33.5zM300 802q0 23 16.5 40.5t39.5 17.5q19 0 32 -13t13 -33q-1 -24 -18 -41.5t-38 -17.5q-19 0 -32.5 13.5t-12.5 33.5zM23 32q5 20 24 30q7 2 44 2
l259 550q13 28 25.5 34t38.5 6t35 -6.5t8 -34.5l-16 -549q37 0 42 -3q15 -8 10 -29q-4 -15 -14 -22.5t-17.5 -8.5t-19.5 -1h-102q-7 0 -11 0.5t-11 2t-8.5 4.5l-4.5 9t1 16q4 15 13.5 22.5t19 8.5t31.5 1l4 109h-162l-50 -109h14.5t12 -0.5t10.5 -2t6.5 -3.5t4.5 -5.5
t1.5 -9t-1.5 -11.5q-4 -15 -13.5 -22.5t-16.5 -8.5t-20 -1h-102q-7 0 -11 0.5t-11 2t-9 4.5t-5 9t1 16zM243 237h132l17 330z" />
    <glyph glyph-name="Aring" unicode="&#xc5;" 
d="M316 713q1 61 48.5 108t102.5 47q41 0 66 -26t24 -67q0 -57 -47 -106t-105 -49q-41 0 -65 27t-24 66zM377 730q-1 -20 12 -32.5t33 -12.5q30 0 52 23.5t22 50.5q0 20 -12.5 32.5t-31.5 12.5q-28 0 -51.5 -23t-23.5 -51zM23 32q5 20 24 30q7 2 44 2l259 550q13 28 25.5 34
t38.5 6t35 -6.5t8 -34.5l-16 -549q37 0 42 -3q15 -8 10 -29q-4 -15 -14 -22.5t-17.5 -8.5t-19.5 -1h-102q-7 0 -11 0.5t-11 2t-8.5 4.5l-4.5 9t1 16q4 15 13.5 22.5t19 8.5t31.5 1l4 109h-162l-50 -109h14.5t12 -0.5t10.5 -2t6.5 -3.5t4.5 -5.5t1.5 -9t-1.5 -11.5
q-4 -15 -13.5 -22.5t-16.5 -8.5t-20 -1h-102q-7 0 -11 0.5t-11 2t-9 4.5t-5 9t1 16zM243 237h132l17 330z" />
    <glyph glyph-name="AE" unicode="&#xc6;" 
d="M18 32.5q8 32.5 44 32.5h13l226 511h-3q-6 0 -10.5 1t-11.5 4t-7.5 9.5t0.5 18.5q8 33 43 33h294q33 0 24 -39q-4 -15 -11.5 -44.5t-10.5 -44.5q-4 -17 -14.5 -26.5t-23.5 -9.5q-27 0 -20 34l16 64h-114l-53 -212h120q35 0 27 -31q-8 -33 -44 -33h-119l-59 -235h123
l20 78q4 18 14.5 27.5t22.5 9.5q28 0 18 -39l-24 -97v-3t-1 -3q-9 -38 -44 -38h-206q-18 0 -25 9t-3 21q8 35 45 35h3l32 127h-110l-56 -127h9q36 0 28 -32.5t-43 -32.5h-82q-35 0 -27 32.5zM217 256h98l80 320h-36z" />
    <glyph glyph-name="Ccedilla" unicode="&#xc7;" 
d="M107 -217q0 25 20 33q3 1 31.5 2t57 4t53 16t24.5 36q0 14 -10 20.5t-22.5 7t-23 6.5t-10.5 20q1 12 8.5 45t10.5 40q9 19 33 19q35 0 34 -31q0 -3 -1.5 -10.5t-4 -17.5t-3.5 -15q23 -9 41.5 -29.5t18.5 -53.5q-1 -35 -24.5 -65.5t-67 -43t-127.5 -12.5h-4
q-19 0 -26.5 9.5t-7.5 19.5zM108 321q36 141 131 236.5t193 95.5q74 0 118 -50q8 11 13 18t7 10t3 4q0 1 2.5 3t3 3t3 3t3.5 3t3.5 2.5t5 2t5.5 1t6 0.5q20 0 23 -15t-3 -28l-37 -146q-3 -10 -5 -15.5t-6.5 -13t-13 -11t-21.5 -3.5q-14 0 -20.5 5t-6 12.5t0.5 17.5
q5 62 -22 97.5t-74 35.5q-69 0 -141.5 -77t-101.5 -191q-28 -115 6 -192t104 -77q18 0 38.5 6t44.5 19.5t45.5 40t32.5 63.5q10 30 42 30q5 0 7.5 -0.5t8.5 -2t7.5 -5t4 -10t-1.5 -17.5q-18 -73 -91 -130.5t-158 -57.5q-65 0 -110 44t-58 118t9 171z" />
    <glyph glyph-name="Egrave" unicode="&#xc8;" 
d="M358 808q0 16 11 27.5t25 11.5q8 0 21.5 -6t94.5 -47q24 -11 24 -32q0 -11 -11 -26.5t-25 -15.5q-8 0 -67 30q-28 14 -47 24q-27 13 -26 34zM22 32q4 14 13.5 22t16.5 9t19 1h30l128 514h-30h-9.5t-10.5 1.5t-9 5t-5 9.5t2 16q7 32 48 32h373q25 0 31 -9.5t-1 -34.5
l-20 -76q-2 -11 -4 -16.5t-7 -13t-13.5 -10.5t-20.5 -3t-19 3.5t-7.5 11t0 13t2.5 15.5l14 56h-245l-53 -214h131q9 37 17.5 48.5t32.5 11.5q12 0 18.5 -3.5t7.5 -11t0.5 -13t-3.5 -15.5l-24 -97q-3 -11 -5 -16.5t-6.5 -13t-13 -11t-20.5 -3.5q-24 0 -27 14t7 46h-131
l-59 -236h267l18 72q3 11 5 16.5t6.5 13t13 11t21.5 3.5q12 0 18.5 -3.5t7.5 -11t0.5 -13t-3.5 -16.5l-23 -93q-7 -26 -17 -34.5t-34 -8.5h-395q-6 0 -9.5 0.5t-10.5 2t-9 4.5t-5 9t1 16z" />
    <glyph glyph-name="Eacute" unicode="&#xc9;" 
d="M379 761q0 14 7.5 21t21.5 13q34 13 78 31q53 21 60 21q14 0 23.5 -10.5t9.5 -23.5q0 -10 -3.5 -17.5t-13 -13.5t-14 -8t-20.5 -9l-36 -14t-28 -11t-19.5 -8t-14.5 -6t-9.5 -3.5t-7 -2t-4.5 -0.5q-16 0 -23 13t-7 28zM22 32q4 14 13.5 22t16.5 9t19 1h30l128 514h-30
h-9.5t-10.5 1.5t-9 5t-5 9.5t2 16q7 32 48 32h373q25 0 31 -9.5t-1 -34.5l-20 -76q-2 -11 -4 -16.5t-7 -13t-13.5 -10.5t-20.5 -3t-19 3.5t-7.5 11t0 13t2.5 15.5l14 56h-245l-53 -214h131q9 37 17.5 48.5t32.5 11.5q12 0 18.5 -3.5t7.5 -11t0.5 -13t-3.5 -15.5l-24 -97
q-3 -11 -5 -16.5t-6.5 -13t-13 -11t-20.5 -3.5q-24 0 -27 14t7 46h-131l-59 -236h267l18 72q3 11 5 16.5t6.5 13t13 11t21.5 3.5q12 0 18.5 -3.5t7.5 -11t0.5 -13t-3.5 -16.5l-23 -93q-7 -26 -17 -34.5t-34 -8.5h-395q-6 0 -9.5 0.5t-10.5 2t-9 4.5t-5 9t1 16z" />
    <glyph glyph-name="Ecircumflex" unicode="&#xca;" 
d="M273 733q0 12 9 20t57 39q46 29 80 51q24 16 30.5 19t12.5 3q4 0 7 -0.5t7 -3t7 -5.5t9.5 -9t12 -11t16 -15.5t20.5 -19.5q43 -41 50.5 -49.5t7.5 -18.5q0 -14 -13.5 -27.5t-26.5 -13.5q-9 0 -20.5 10.5t-54.5 56.5q-18 18 -29 30q-15 -11 -41 -29q-73 -51 -87 -59.5
t-22 -8.5q-14 0 -23 14t-9 27zM22 32q4 14 13.5 22t16.5 9t19 1h30l128 514h-30h-9.5t-10.5 1.5t-9 5t-5 9.5t2 16q7 32 48 32h373q25 0 31 -9.5t-1 -34.5l-20 -76q-2 -11 -4 -16.5t-7 -13t-13.5 -10.5t-20.5 -3t-19 3.5t-7.5 11t0 13t2.5 15.5l14 56h-245l-53 -214h131
q9 37 17.5 48.5t32.5 11.5q12 0 18.5 -3.5t7.5 -11t0.5 -13t-3.5 -15.5l-24 -97q-3 -11 -5 -16.5t-6.5 -13t-13 -11t-20.5 -3.5q-24 0 -27 14t7 46h-131l-59 -236h267l18 72q3 11 5 16.5t6.5 13t13 11t21.5 3.5q12 0 18.5 -3.5t7.5 -11t0.5 -13t-3.5 -16.5l-23 -93
q-7 -26 -17 -34.5t-34 -8.5h-395q-6 0 -9.5 0.5t-10.5 2t-9 4.5t-5 9t1 16z" />
    <glyph glyph-name="Edieresis" unicode="&#xcb;" 
d="M506 802q0 23 17.5 40.5t38.5 17.5q20 0 33 -14.5t13 -32.5q-1 -23 -18.5 -40.5t-38.5 -17.5q-19 0 -32.5 13.5t-12.5 33.5zM302 802q0 23 16.5 40.5t39.5 17.5q19 0 32 -13t13 -33q-1 -24 -18 -41.5t-38 -17.5q-19 0 -32.5 13.5t-12.5 33.5zM22 32q4 14 13.5 22t16.5 9
t19 1h30l128 514h-30h-9.5t-10.5 1.5t-9 5t-5 9.5t2 16q7 32 48 32h373q25 0 31 -9.5t-1 -34.5l-20 -76q-2 -11 -4 -16.5t-7 -13t-13.5 -10.5t-20.5 -3t-19 3.5t-7.5 11t0 13t2.5 15.5l14 56h-245l-53 -214h131q9 37 17.5 48.5t32.5 11.5q12 0 18.5 -3.5t7.5 -11t0.5 -13
t-3.5 -15.5l-24 -97q-3 -11 -5 -16.5t-6.5 -13t-13 -11t-20.5 -3.5q-24 0 -27 14t7 46h-131l-59 -236h267l18 72q3 11 5 16.5t6.5 13t13 11t21.5 3.5q12 0 18.5 -3.5t7.5 -11t0.5 -13t-3.5 -16.5l-23 -93q-7 -26 -17 -34.5t-34 -8.5h-395q-6 0 -9.5 0.5t-10.5 2t-9 4.5t-5 9
t1 16z" />
    <glyph glyph-name="Igrave" unicode="&#xcc;" 
d="M356 808q0 16 11 27.5t25 11.5q8 0 21.5 -6t94.5 -47q24 -11 24 -32q0 -11 -11 -26.5t-25 -15.5q-8 0 -67 30q-28 14 -47 24q-27 13 -26 34zM75 33q8 31 49 31h108l128 514h-108h-9.5t-10.5 1.5t-9 5t-5 9.5t2 16q7 32 48 32h285q7 0 10.5 -0.5t10.5 -2t8.5 -5t4.5 -9.5
t-1 -16q-8 -31 -49 -31h-108l-128 -514h108h9.5t10.5 -2t9 -5t5 -9.5t-1 -15.5q-8 -32 -49 -32h-285q-6 0 -9.5 0.5t-10.5 2t-9 4.5t-5 9.5t1 16.5z" />
    <glyph glyph-name="Iacute" unicode="&#xcd;" 
d="M377 761q0 14 7.5 21t21.5 13q34 13 78 31q53 21 60 21q14 0 23.5 -10.5t9.5 -23.5q0 -10 -3.5 -17.5t-13 -13.5t-14 -8t-20.5 -9l-36 -14t-28 -11t-19.5 -8t-14.5 -6t-9.5 -3.5t-7 -2t-4.5 -0.5q-16 0 -23 13t-7 28zM75 33q8 31 49 31h108l128 514h-108h-9.5t-10.5 1.5
t-9 5t-5 9.5t2 16q7 32 48 32h285q7 0 10.5 -0.5t10.5 -2t8.5 -5t4.5 -9.5t-1 -16q-8 -31 -49 -31h-108l-128 -514h108h9.5t10.5 -2t9 -5t5 -9.5t-1 -15.5q-8 -32 -49 -32h-285q-6 0 -9.5 0.5t-10.5 2t-9 4.5t-5 9.5t1 16.5z" />
    <glyph glyph-name="Icircumflex" unicode="&#xce;" 
d="M271 733q0 12 9 20t57 39q46 29 80 51q24 16 30.5 19t12.5 3q4 0 7 -0.5t7 -3t7 -5.5t9.5 -9t12 -11t16 -15.5t20.5 -19.5q43 -41 50.5 -49.5t7.5 -18.5q0 -14 -13.5 -27.5t-26.5 -13.5q-9 0 -20.5 10.5t-54.5 56.5q-18 18 -29 30q-15 -11 -41 -29q-73 -51 -87 -59.5
t-22 -8.5q-14 0 -23 14t-9 27zM75 33q8 31 49 31h108l128 514h-108h-9.5t-10.5 1.5t-9 5t-5 9.5t2 16q7 32 48 32h285q7 0 10.5 -0.5t10.5 -2t8.5 -5t4.5 -9.5t-1 -16q-8 -31 -49 -31h-108l-128 -514h108h9.5t10.5 -2t9 -5t5 -9.5t-1 -15.5q-8 -32 -49 -32h-285
q-6 0 -9.5 0.5t-10.5 2t-9 4.5t-5 9.5t1 16.5z" />
    <glyph glyph-name="Idieresis" unicode="&#xcf;" 
d="M504 802q0 23 17.5 40.5t38.5 17.5q20 0 33 -14.5t13 -32.5q-1 -23 -18.5 -40.5t-38.5 -17.5q-19 0 -32.5 13.5t-12.5 33.5zM300 802q0 23 16.5 40.5t39.5 17.5q19 0 32 -13t13 -33q-1 -24 -18 -41.5t-38 -17.5q-19 0 -32.5 13.5t-12.5 33.5zM75 33q8 31 49 31h108
l128 514h-108h-9.5t-10.5 1.5t-9 5t-5 9.5t2 16q7 32 48 32h285q7 0 10.5 -0.5t10.5 -2t8.5 -5t4.5 -9.5t-1 -16q-8 -31 -49 -31h-108l-128 -514h108h9.5t10.5 -2t9 -5t5 -9.5t-1 -15.5q-8 -32 -49 -32h-285q-6 0 -9.5 0.5t-10.5 2t-9 4.5t-5 9.5t1 16.5z" />
    <glyph glyph-name="Eth" unicode="&#xd0;" 
d="M19 30q1 35 39 35h22l54 217h-9q-20 0 -27 10t-7 21q0 35 36 35h24l57 228h-7q-37 0 -37 32q0 14 9 24t26 10h182q14 0 25 -2.5t26.5 -9t29 -23.5t24.5 -43q20 -52 19 -119q-1 -104 -41.5 -208t-106.5 -170.5t-133 -66.5h-169q-21 0 -28.5 10t-7.5 20zM152 65h67
q36 0 66 21q58 42 102.5 140.5t45.5 202.5q0 23 -3 45t-10 44.5t-21.5 38t-34.5 18.5q-5 1 -16 1h-68l-57 -228h78q17 0 26 -9t9 -22q0 -6 -2 -13t-11 -14.5t-25 -7.5h-92z" />
    <glyph glyph-name="Ntilde" unicode="&#xd1;" 
d="M236 757q0 7 3 12.5t6.5 9t11.5 12.5q74 69 128 69q22 0 42.5 -10.5t33 -23t28 -22.5t27.5 -10q20 0 43.5 16t42.5 32.5t29 16.5q11 0 20.5 -10t9.5 -23q0 -4 -1.5 -8t-4 -8t-4 -6t-6 -6l-4.5 -4q-72 -70 -129 -70q-23 0 -43.5 10.5t-33 22.5t-27.5 22.5t-28 10.5
q-19 0 -42.5 -16.5t-42.5 -33t-28 -16.5q-12 0 -21.5 10t-9.5 23zM24 33q4 14 13.5 21.5t16.5 8.5t18 1h25l128 514h-25h-9.5t-10.5 1.5t-8.5 5t-4.5 9.5t2 16q3 15 12.5 22.5t16.5 8.5t18 1h68q23 0 33 -7t12 -31l53 -525h1l124 499h-25h-9.5t-10 1.5t-8.5 5t-5 9.5t1 15
q4 15 13.5 22.5t16.5 9t18 1.5h106q7 0 10.5 -0.5t10.5 -2t8.5 -5t4 -9.5t-1.5 -16q-3 -14 -13 -22t-16.5 -8.5t-18.5 -0.5h-25l-133 -535q-7 -28 -17.5 -35.5t-35.5 -7.5q-16 0 -23.5 1.5t-14 10t-8.5 26.5l-52 525h-1l-125 -499h25h10.5t10 -2t8 -5t4.5 -9.5t-1 -15.5
q-4 -15 -13.5 -22.5t-16.5 -8.5t-18 -1h-106q-7 0 -10.5 0.5t-10 2t-8 4.5t-4.5 9.5t1 16.5z" />
    <glyph glyph-name="Ograve" unicode="&#xd2;" 
d="M356 808q0 16 11 27.5t25 11.5q8 0 21.5 -6t94.5 -47q24 -11 24 -32q0 -11 -11 -26.5t-25 -15.5q-8 0 -67 30q-28 14 -47 24q-27 13 -26 34zM124 320q21 82 35 131t33 90t35.5 60t46 32.5t59.5 16.5t80 3q38 0 62 -1.5t46 -8t33 -15.5t18.5 -28t7.5 -41t-5 -59t-14.5 -78
t-24.5 -102q-20 -81 -34.5 -130t-33.5 -90t-35.5 -60t-46 -32.5t-59.5 -16.5t-80 -3q-38 0 -62 1.5t-45.5 8t-33 15.5t-18.5 28t-7 40.5t5 59t14 78t24 101.5zM195 330q-37 -149 -38 -203q-1 -41 20.5 -58t85.5 -17q65 0 96 18t50 63q26 57 60 197q36 142 36 192
q0 41 -24 54t-84 13q-63 0 -93.5 -14.5t-50.5 -60.5q-23 -48 -58 -184z" />
    <glyph glyph-name="Oacute" unicode="&#xd3;" 
d="M377 761q0 14 7.5 21t21.5 13q34 13 78 31q53 21 60 21q14 0 23.5 -10.5t9.5 -23.5q0 -10 -3.5 -17.5t-13 -13.5t-14 -8t-20.5 -9l-36 -14t-28 -11t-19.5 -8t-14.5 -6t-9.5 -3.5t-7 -2t-4.5 -0.5q-16 0 -23 13t-7 28zM124 320q21 82 35 131t33 90t35.5 60t46 32.5
t59.5 16.5t80 3q38 0 62 -1.5t46 -8t33 -15.5t18.5 -28t7.5 -41t-5 -59t-14.5 -78t-24.5 -102q-20 -81 -34.5 -130t-33.5 -90t-35.5 -60t-46 -32.5t-59.5 -16.5t-80 -3q-38 0 -62 1.5t-45.5 8t-33 15.5t-18.5 28t-7 40.5t5 59t14 78t24 101.5zM195 330q-37 -149 -38 -203
q-1 -41 20.5 -58t85.5 -17q65 0 96 18t50 63q26 57 60 197q36 142 36 192q0 41 -24 54t-84 13q-63 0 -93.5 -14.5t-50.5 -60.5q-23 -48 -58 -184z" />
    <glyph glyph-name="Ocircumflex" unicode="&#xd4;" 
d="M271 733q0 12 9 20t57 39q46 29 80 51q24 16 30.5 19t12.5 3q4 0 7 -0.5t7 -3t7 -5.5t9.5 -9t12 -11t16 -15.5t20.5 -19.5q43 -41 50.5 -49.5t7.5 -18.5q0 -14 -13.5 -27.5t-26.5 -13.5q-9 0 -20.5 10.5t-54.5 56.5q-18 18 -29 30q-15 -11 -41 -29q-73 -51 -87 -59.5
t-22 -8.5q-14 0 -23 14t-9 27zM124 320q21 82 35 131t33 90t35.5 60t46 32.5t59.5 16.5t80 3q38 0 62 -1.5t46 -8t33 -15.5t18.5 -28t7.5 -41t-5 -59t-14.5 -78t-24.5 -102q-20 -81 -34.5 -130t-33.5 -90t-35.5 -60t-46 -32.5t-59.5 -16.5t-80 -3q-38 0 -62 1.5t-45.5 8
t-33 15.5t-18.5 28t-7 40.5t5 59t14 78t24 101.5zM195 330q-37 -149 -38 -203q-1 -41 20.5 -58t85.5 -17q65 0 96 18t50 63q26 57 60 197q36 142 36 192q0 41 -24 54t-84 13q-63 0 -93.5 -14.5t-50.5 -60.5q-23 -48 -58 -184z" />
    <glyph glyph-name="Otilde" unicode="&#xd5;" 
d="M236 757q0 7 3 12.5t6.5 9t11.5 12.5q74 69 128 69q22 0 42.5 -10.5t33 -23t28 -22.5t27.5 -10q20 0 43.5 16t42.5 32.5t29 16.5q11 0 20.5 -10t9.5 -23q0 -4 -1.5 -8t-4 -8t-4 -6t-6 -6l-4.5 -4q-72 -70 -129 -70q-23 0 -43.5 10.5t-33 22.5t-27.5 22.5t-28 10.5
q-19 0 -42.5 -16.5t-42.5 -33t-28 -16.5q-12 0 -21.5 10t-9.5 23zM124 320q21 82 35 131t33 90t35.5 60t46 32.5t59.5 16.5t80 3q38 0 62 -1.5t46 -8t33 -15.5t18.5 -28t7.5 -41t-5 -59t-14.5 -78t-24.5 -102q-20 -81 -34.5 -130t-33.5 -90t-35.5 -60t-46 -32.5t-59.5 -16.5
t-80 -3q-38 0 -62 1.5t-45.5 8t-33 15.5t-18.5 28t-7 40.5t5 59t14 78t24 101.5zM195 330q-37 -149 -38 -203q-1 -41 20.5 -58t85.5 -17q65 0 96 18t50 63q26 57 60 197q36 142 36 192q0 41 -24 54t-84 13q-63 0 -93.5 -14.5t-50.5 -60.5q-23 -48 -58 -184z" />
    <glyph glyph-name="Odieresis" unicode="&#xd6;" 
d="M504 802q0 23 17.5 40.5t38.5 17.5q20 0 33 -14.5t13 -32.5q-1 -23 -18.5 -40.5t-38.5 -17.5q-19 0 -32.5 13.5t-12.5 33.5zM300 802q0 23 16.5 40.5t39.5 17.5q19 0 32 -13t13 -33q-1 -24 -18 -41.5t-38 -17.5q-19 0 -32.5 13.5t-12.5 33.5zM124 320q21 82 35 131t33 90
t35.5 60t46 32.5t59.5 16.5t80 3q38 0 62 -1.5t46 -8t33 -15.5t18.5 -28t7.5 -41t-5 -59t-14.5 -78t-24.5 -102q-20 -81 -34.5 -130t-33.5 -90t-35.5 -60t-46 -32.5t-59.5 -16.5t-80 -3q-38 0 -62 1.5t-45.5 8t-33 15.5t-18.5 28t-7 40.5t5 59t14 78t24 101.5zM195 330
q-37 -149 -38 -203q-1 -41 20.5 -58t85.5 -17q65 0 96 18t50 63q26 57 60 197q36 142 36 192q0 41 -24 54t-84 13q-63 0 -93.5 -14.5t-50.5 -60.5q-23 -48 -58 -184z" />
    <glyph glyph-name="multiply" unicode="&#xd7;" 
d="M121 180q0 12 9 23t48 49q23 22 37 36q41 39 42 40q-13 23 -31 58q-23 43 -29 55t-6 20q1 16 11.5 26.5t24.5 10.5q16 0 25.5 -13t38.5 -69q11 -22 19 -36l44 44q57 55 68 64.5t23 9.5q14 0 24 -10t10 -26q-1 -13 -14.5 -28.5t-72.5 -72.5q-30 -29 -48 -47
q8 -17 17 -33.5t14.5 -26.5t11 -20.5t8.5 -16.5l6 -12t4 -9t2.5 -6t1.5 -5v-4q0 -16 -10 -26t-24 -11q-16 0 -25 11t-30 52q-8 16 -13 25q-3 5 -8 15t-8 15q-21 -20 -53 -51q-51 -50 -61.5 -58.5t-21.5 -8.5q-15 0 -24.5 11t-9.5 25z" />
    <glyph glyph-name="Oslash" unicode="&#xd8;" 
d="M81 77q0 42 13 103.5t46 195.5q17 65 30 106t29 74.5t31 50.5t39 28.5t49 14.5t65 3q27 0 40 -1q3 8 8 18.5t7.5 15.5t6 12.5t5.5 11t4.5 7.5t5 6t5.5 4t6 2.5t7 0.5q13 0 22 -9t9 -22q0 -3 -1 -7t-3.5 -9.5t-5 -10.5l-7.5 -15t-8 -19q18 -10 27 -26t9 -47
q-1 -62 -38.5 -215t-63.5 -225q-31 -85 -69.5 -111t-130.5 -26q-27 0 -40 2q-1 -4 -4 -9q-19 -44 -27.5 -56.5t-23.5 -12.5q-12 0 -21.5 9t-9.5 21q0 9 25 61q-21 12 -28.5 28.5t-7.5 45.5zM144 117q0 -25 9 -38l239 509h-27q-33 0 -55.5 -6.5t-38 -22.5t-25 -35t-20.5 -52
q-23 -67 -52 -187.5t-30 -167.5zM209 54h26q82 0 111 50.5t80 252.5q3 16 6 24q24 106 24 145q1 22 -7 37z" />
    <glyph glyph-name="Ugrave" unicode="&#xd9;" 
d="M356 808q0 16 11 27.5t25 11.5q8 0 21.5 -6t94.5 -47q24 -11 24 -32q0 -11 -11 -26.5t-25 -15.5q-8 0 -67 30q-28 14 -47 24q-27 13 -26 34zM145 610q7 32 48 32h129q7 0 10.5 -0.5t10.5 -2t8.5 -5t5 -9.5t-0.5 -15q-4 -15 -14 -22.5t-17 -8.5t-19 -1h-30l-89 -359
q-20 -78 5.5 -122.5t70.5 -44.5q44 0 92 44.5t68 122.5l89 359h-30h-9.5t-10.5 1.5t-9 5t-5 9.5t2 16q7 32 48 32h129q7 0 10.5 -0.5t10.5 -2t8.5 -5t5 -9.5t-0.5 -15q-4 -15 -14 -22.5t-17 -8.5t-19 -1h-30l-90 -364q-24 -95 -96 -160.5t-148 -65.5t-115 65.5t-15 160.5
l90 364h-30h-9.5t-10.5 1.5t-9 5t-5 9.5t2 16z" />
    <glyph glyph-name="Uacute" unicode="&#xda;" 
d="M377 761q0 14 7.5 21t21.5 13q34 13 78 31q53 21 60 21q14 0 23.5 -10.5t9.5 -23.5q0 -10 -3.5 -17.5t-13 -13.5t-14 -8t-20.5 -9l-36 -14t-28 -11t-19.5 -8t-14.5 -6t-9.5 -3.5t-7 -2t-4.5 -0.5q-16 0 -23 13t-7 28zM145 610q7 32 48 32h129q7 0 10.5 -0.5t10.5 -2
t8.5 -5t5 -9.5t-0.5 -15q-4 -15 -14 -22.5t-17 -8.5t-19 -1h-30l-89 -359q-20 -78 5.5 -122.5t70.5 -44.5q44 0 92 44.5t68 122.5l89 359h-30h-9.5t-10.5 1.5t-9 5t-5 9.5t2 16q7 32 48 32h129q7 0 10.5 -0.5t10.5 -2t8.5 -5t5 -9.5t-0.5 -15q-4 -15 -14 -22.5t-17 -8.5
t-19 -1h-30l-90 -364q-24 -95 -96 -160.5t-148 -65.5t-115 65.5t-15 160.5l90 364h-30h-9.5t-10.5 1.5t-9 5t-5 9.5t2 16z" />
    <glyph glyph-name="Ucircumflex" unicode="&#xdb;" 
d="M271 733q0 12 9 20t57 39q46 29 80 51q24 16 30.5 19t12.5 3q4 0 7 -0.5t7 -3t7 -5.5t9.5 -9t12 -11t16 -15.5t20.5 -19.5q43 -41 50.5 -49.5t7.5 -18.5q0 -14 -13.5 -27.5t-26.5 -13.5q-9 0 -20.5 10.5t-54.5 56.5q-18 18 -29 30q-15 -11 -41 -29q-73 -51 -87 -59.5
t-22 -8.5q-14 0 -23 14t-9 27zM145 610q7 32 48 32h129q7 0 10.5 -0.5t10.5 -2t8.5 -5t5 -9.5t-0.5 -15q-4 -15 -14 -22.5t-17 -8.5t-19 -1h-30l-89 -359q-20 -78 5.5 -122.5t70.5 -44.5q44 0 92 44.5t68 122.5l89 359h-30h-9.5t-10.5 1.5t-9 5t-5 9.5t2 16q7 32 48 32h129
q7 0 10.5 -0.5t10.5 -2t8.5 -5t5 -9.5t-0.5 -15q-4 -15 -14 -22.5t-17 -8.5t-19 -1h-30l-90 -364q-24 -95 -96 -160.5t-148 -65.5t-115 65.5t-15 160.5l90 364h-30h-9.5t-10.5 1.5t-9 5t-5 9.5t2 16z" />
    <glyph glyph-name="Udieresis" unicode="&#xdc;" 
d="M504 802q0 23 17.5 40.5t38.5 17.5q20 0 33 -14.5t13 -32.5q-1 -23 -18.5 -40.5t-38.5 -17.5q-19 0 -32.5 13.5t-12.5 33.5zM300 802q0 23 16.5 40.5t39.5 17.5q19 0 32 -13t13 -33q-1 -24 -18 -41.5t-38 -17.5q-19 0 -32.5 13.5t-12.5 33.5zM145 610q7 32 48 32h129
q7 0 10.5 -0.5t10.5 -2t8.5 -5t5 -9.5t-0.5 -15q-4 -15 -14 -22.5t-17 -8.5t-19 -1h-30l-89 -359q-20 -78 5.5 -122.5t70.5 -44.5q44 0 92 44.5t68 122.5l89 359h-30h-9.5t-10.5 1.5t-9 5t-5 9.5t2 16q7 32 48 32h129q7 0 10.5 -0.5t10.5 -2t8.5 -5t5 -9.5t-0.5 -15
q-4 -15 -14 -22.5t-17 -8.5t-19 -1h-30l-90 -364q-24 -95 -96 -160.5t-148 -65.5t-115 65.5t-15 160.5l90 364h-30h-9.5t-10.5 1.5t-9 5t-5 9.5t2 16z" />
    <glyph glyph-name="Yacute" unicode="&#xdd;" 
d="M377 761q0 14 7.5 21t21.5 13q34 13 78 31q53 21 60 21q14 0 23.5 -10.5t9.5 -23.5q0 -10 -3.5 -17.5t-13 -13.5t-14 -8t-20.5 -9l-36 -14t-28 -11t-19.5 -8t-14.5 -6t-9.5 -3.5t-7 -2t-4.5 -0.5q-16 0 -23 13t-7 28zM160 610q3 15 12.5 22.5t16.5 8.5t18 1h104
q7 0 10.5 -0.5t10 -2t8.5 -5t5 -9.5t-1 -15q-4 -15 -13.5 -22.5t-17.5 -8.5t-24 -1q43 -210 43 -248l167 248h-11.5t-10.5 1t-8.5 3t-6 5.5t-3 9t2.5 13.5q3 15 12.5 22.5t16.5 8.5t18 1h104q7 0 10.5 -0.5t10.5 -2t8.5 -5t4 -9.5t-1.5 -16q-3 -14 -13 -22t-16.5 -8.5
t-18.5 -0.5h-21l-227 -322l-48 -192h25h10.5t10 -2t8 -5t4.5 -9.5t-1 -15.5q-4 -15 -13.5 -22.5t-16.5 -8.5t-18 -1h-119q-7 0 -10.5 0.5t-10 2t-8 4.5t-4.5 9.5t1 16.5q4 14 13.5 21.5t16.5 8.5t18 1h25l48 192l-68 322h-21h-9.5t-10.5 1.5t-8.5 5t-4.5 9.5t2 16z" />
    <glyph glyph-name="Thorn" unicode="&#xde;" 
d="M28 30q1 35 40 35h33l127 511h-20q-36 0 -36 31q1 35 38 35h127q36 0 35 -31q0 -35 -36 -35h-36l-11 -44h89q34 0 58 -12.5t36 -33.5t17.5 -42t5.5 -43q-1 -36 -15.5 -75.5t-40.5 -75.5t-68 -59.5t-92 -23.5h-82l-25 -102h21q36 0 35 -30q0 -14 -8.5 -24.5t-29.5 -10.5
h-127q-15 0 -23 6.5t-10 12t-2 11.5zM214 231h64q45 0 79.5 26.5t49.5 60.5t16 67q0 32 -16 57t-53 25h-81z" />
    <glyph glyph-name="germandbls" unicode="&#xdf;" 
d="M-9 -167q0 32 16 47t35 15q29 0 39 -30q22 71 44 168t46 217t28 137h-39q-35 0 -35 31q0 34 38 34h49q11 61 22 96t31 59t48.5 32t76.5 8q68 0 97 -26t29 -59q-1 -22 -19.5 -85.5t-40.5 -92.5q-10 -12 -27.5 -28t-26.5 -28.5t-9 -27.5q-1 -15 9 -31.5t22 -30t21.5 -36.5
t9.5 -51q-1 -51 -39.5 -103.5t-93.5 -52.5q-36 0 -61 22t-24 58q0 28 14.5 41.5t31.5 13.5q15 0 26 -11t11 -28q0 -9 -9 -28q9 -3 14 -3q22 0 40 32t19 57q0 14 -10 30.5t-21.5 30.5t-21.5 37.5t-9 50.5q0 32 14 55t49 58q12 12 18 20t17 36.5t24 78.5q1 4 1 12q0 25 -57 25
h-3q-52 0 -67.5 -17.5t-27.5 -80.5l-82 -403l-3 -15q-8 -41 -12.5 -61t-12.5 -55.5t-14 -53.5t-15.5 -44t-18.5 -39t-21 -27t-26 -19.5t-30 -5.5q-28 0 -46 20t-18 51z" />
    <glyph glyph-name="agrave" unicode="&#xe0;" 
d="M85 155q1 72 32 142.5t82 115.5t103 45q10 0 18.5 -1.5t15.5 -4t14 -6.5t11.5 -7t9 -7.5t7 -6.5t5.5 -5.5l3 -3.5q11 26 35 26q14 0 24 -9.5t10 -25.5q0 -6 -3 -19l-68 -268q-6 -25 -6 -32q0 -11 4.5 -18t8 -8.5t7.5 -1.5q3 0 6.5 2t7 6.5t6 9.5t5.5 12.5l5 12.5
t4.5 13.5t3.5 12.5l3 12t3 9q2 9 4 13.5t10 11t20 6.5h4q20 0 26.5 -10t6.5 -21q0 -3 -3 -17.5t-12 -38.5t-21 -46t-33.5 -37.5t-47.5 -15.5q-29 0 -50 15.5t-30 38.5q-56 -54 -115 -54q-53 0 -85 45t-31 115zM155 152q0 -21 3 -40t15 -35.5t31 -16.5q30 0 64 35.5
t57.5 92.5t24.5 111q0 44 -14 69t-37 25q-31 0 -64.5 -37t-56.5 -93.5t-23 -110.5zM227 633q0 15 11 26.5t26 11.5q8 0 17 -5t50 -32q26 -18 44 -30q20 -14 20 -31q0 -14 -12.5 -28t-25.5 -14h-3q-5 0 -44 26q-34 23 -61 41q-23 16 -22 35z" />
    <glyph glyph-name="aacute" unicode="&#xe1;" 
d="M284 574q0 9 6 16.5t9 9t12 6.5q20 10 51 25q78 40 88 40q13 0 22.5 -10t10.5 -25q-1 -25 -30 -39t-69 -35q-61 -31 -69 -31q-16 0 -23.5 15t-7.5 28zM85 155q1 72 32 142.5t82 115.5t103 45q10 0 18.5 -1.5t15.5 -4t14 -6.5t11.5 -7t9 -7.5t7 -6.5t5.5 -5.5l3 -3.5
q11 26 35 26q14 0 24 -9.5t10 -25.5q0 -6 -3 -19l-68 -268q-6 -25 -6 -32q0 -11 4.5 -18t8 -8.5t7.5 -1.5q3 0 6.5 2t7 6.5t6 9.5t5.5 12.5l5 12.5t4.5 13.5t3.5 12.5l3 12t3 9q2 9 4 13.5t10 11t20 6.5h4q20 0 26.5 -10t6.5 -21q0 -3 -3 -17.5t-12 -38.5t-21 -46
t-33.5 -37.5t-47.5 -15.5q-29 0 -50 15.5t-30 38.5q-56 -54 -115 -54q-53 0 -85 45t-31 115zM155 152q0 -21 3 -40t15 -35.5t31 -16.5q30 0 64 35.5t57.5 92.5t24.5 111q0 44 -14 69t-37 25q-31 0 -64.5 -37t-56.5 -93.5t-23 -110.5z" />
    <glyph glyph-name="acircumflex" unicode="&#xe2;" 
d="M164.5 553.5q0.5 13.5 11.5 22t75 46.5q46 27 78 46q14 8 22 8h1q7 0 15 -5.5t46 -37.5q34 -29 58 -49q19 -17 19 -31q-1 -13 -13.5 -27t-26.5 -14q-8 0 -15 5.5t-39 35.5q-30 27 -52 48l-116 -75q-23 -14 -32 -14q-14 0 -23 14t-8.5 27.5zM85 155q1 72 32 142.5
t82 115.5t103 45q10 0 18.5 -1.5t15.5 -4t14 -6.5t11.5 -7t9 -7.5t7 -6.5t5.5 -5.5l3 -3.5q11 26 35 26q14 0 24 -9.5t10 -25.5q0 -6 -3 -19l-68 -268q-6 -25 -6 -32q0 -11 4.5 -18t8 -8.5t7.5 -1.5q3 0 6.5 2t7 6.5t6 9.5t5.5 12.5l5 12.5t4.5 13.5t3.5 12.5l3 12t3 9
q2 9 4 13.5t10 11t20 6.5h4q20 0 26.5 -10t6.5 -21q0 -3 -3 -17.5t-12 -38.5t-21 -46t-33.5 -37.5t-47.5 -15.5q-29 0 -50 15.5t-30 38.5q-56 -54 -115 -54q-53 0 -85 45t-31 115zM155 152q0 -21 3 -40t15 -35.5t31 -16.5q30 0 64 35.5t57.5 92.5t24.5 111q0 44 -14 69
t-37 25q-31 0 -64.5 -37t-56.5 -93.5t-23 -110.5z" />
    <glyph glyph-name="atilde" unicode="&#xe3;" 
d="M152 549q0 15 17 29q24 18 36.5 27t40.5 23t48 14q18 0 32.5 -9t22 -19.5t16 -19.5t15.5 -9q17 0 56.5 28.5t49.5 28.5t19 -10t9 -24q0 -15 -16 -28q-80 -64 -126 -64q-20 0 -34 8.5t-20.5 19t-15 19t-17.5 8.5q-17 0 -56 -27.5t-47 -27.5q-12 0 -21.5 9.5t-8.5 23.5z
M85 155q1 72 32 142.5t82 115.5t103 45q10 0 18.5 -1.5t15.5 -4t14 -6.5t11.5 -7t9 -7.5t7 -6.5t5.5 -5.5l3 -3.5q11 26 35 26q14 0 24 -9.5t10 -25.5q0 -6 -3 -19l-68 -268q-6 -25 -6 -32q0 -11 4.5 -18t8 -8.5t7.5 -1.5q3 0 6.5 2t7 6.5t6 9.5t5.5 12.5l5 12.5t4.5 13.5
t3.5 12.5l3 12t3 9q2 9 4 13.5t10 11t20 6.5h4q20 0 26.5 -10t6.5 -21q0 -3 -3 -17.5t-12 -38.5t-21 -46t-33.5 -37.5t-47.5 -15.5q-29 0 -50 15.5t-30 38.5q-56 -54 -115 -54q-53 0 -85 45t-31 115zM155 152q0 -21 3 -40t15 -35.5t31 -16.5q30 0 64 35.5t57.5 92.5
t24.5 111q0 44 -14 69t-37 25q-31 0 -64.5 -37t-56.5 -93.5t-23 -110.5z" />
    <glyph glyph-name="adieresis" unicode="&#xe4;" 
d="M387 584q0 23 17 40.5t39 17.5q18 0 31.5 -13.5t13.5 -34.5q0 -23 -17.5 -40t-39.5 -17q-19 0 -31.5 13.5t-12.5 33.5zM182 584q0 22 17 39.5t39 17.5q19 0 32 -12.5t13 -33.5q0 -23 -17.5 -41t-38.5 -18q-19 0 -32.5 13.5t-12.5 34.5zM85 155q1 72 32 142.5t82 115.5
t103 45q10 0 18.5 -1.5t15.5 -4t14 -6.5t11.5 -7t9 -7.5t7 -6.5t5.5 -5.5l3 -3.5q11 26 35 26q14 0 24 -9.5t10 -25.5q0 -6 -3 -19l-68 -268q-6 -25 -6 -32q0 -11 4.5 -18t8 -8.5t7.5 -1.5q3 0 6.5 2t7 6.5t6 9.5t5.5 12.5l5 12.5t4.5 13.5t3.5 12.5l3 12t3 9q2 9 4 13.5
t10 11t20 6.5h4q20 0 26.5 -10t6.5 -21q0 -3 -3 -17.5t-12 -38.5t-21 -46t-33.5 -37.5t-47.5 -15.5q-29 0 -50 15.5t-30 38.5q-56 -54 -115 -54q-53 0 -85 45t-31 115zM155 152q0 -21 3 -40t15 -35.5t31 -16.5q30 0 64 35.5t57.5 92.5t24.5 111q0 44 -14 69t-37 25
q-31 0 -64.5 -37t-56.5 -93.5t-23 -110.5z" />
    <glyph glyph-name="aring" unicode="&#xe5;" 
d="M257 563q0 44 32.5 80t68.5 36q26 0 41.5 -18.5t14.5 -47.5q0 -44 -32 -79.5t-69 -35.5q-27 0 -42 18t-14 47zM314 556q-1 -20 8 -20q11 0 23 28t12 56q1 22 -8 22q-10 0 -22.5 -29t-12.5 -57zM85 155q1 72 32 142.5t82 115.5t103 45q10 0 18.5 -1.5t15.5 -4t14 -6.5
t11.5 -7t9 -7.5t7 -6.5t5.5 -5.5l3 -3.5q11 26 35 26q14 0 24 -9.5t10 -25.5q0 -6 -3 -19l-68 -268q-6 -25 -6 -32q0 -11 4.5 -18t8 -8.5t7.5 -1.5q3 0 6.5 2t7 6.5t6 9.5t5.5 12.5l5 12.5t4.5 13.5t3.5 12.5l3 12t3 9q2 9 4 13.5t10 11t20 6.5h4q20 0 26.5 -10t6.5 -21
q0 -3 -3 -17.5t-12 -38.5t-21 -46t-33.5 -37.5t-47.5 -15.5q-29 0 -50 15.5t-30 38.5q-56 -54 -115 -54q-53 0 -85 45t-31 115zM155 152q0 -21 3 -40t15 -35.5t31 -16.5q30 0 64 35.5t57.5 92.5t24.5 111q0 44 -14 69t-37 25q-31 0 -64.5 -37t-56.5 -93.5t-23 -110.5z" />
    <glyph glyph-name="ae" unicode="&#xe6;" 
d="M31 149q1 70 28.5 142t73 119.5t93.5 47.5q43 0 69 -41q0 1 2.5 8.5t3 9.5t3.5 7.5t5.5 8t7.5 4.5t10 2q11 0 19.5 -9t8.5 -22q0 -4 -1 -8q49 40 93 40q40 0 64 -28.5t23 -73.5q0 -36 -15.5 -65t-38.5 -45.5t-53 -28t-57.5 -15.5t-55.5 -4h-14q-4 -29 -4 -44
q-1 -34 9.5 -59.5t29.5 -32.5q4 -2 19 -2q27 0 50 8.5t35 19t24 19.5t19 9q11 0 19.5 -8.5t8.5 -21.5q0 -25 -52.5 -58t-109.5 -33q-40 0 -65.5 25.5t-35.5 63.5l-7 -9.5t-8.5 -11.5t-9 -11t-11 -12.5t-11.5 -11t-13 -11t-13.5 -9t-15.5 -7.5t-15.5 -4t-17.5 -2
q-16 0 -31.5 7t-30.5 23t-24 48t-8 76zM100 143q-1 -35 6.5 -59t22.5 -24q25 0 56 38.5t53 98t23 112.5q0 37 -10 60.5t-27 23.5q-24 0 -53 -37t-50 -97t-21 -116zM318 262q26 1 49.5 4.5t50 12.5t43 28t16.5 46q0 15 -7 27.5t-25 12.5q-28 0 -65.5 -34.5t-61.5 -96.5z" />
    <glyph glyph-name="ccedilla" unicode="&#xe7;" 
d="M71 -217q0 25 20 33q3 1 31.5 2t57 4t53 16t24.5 36q0 14 -10 20.5t-22.5 7t-23 6.5t-10.5 20q1 12 8.5 45t10.5 40q9 19 33 19q35 0 34 -31q0 -3 -1.5 -10.5t-4 -17.5t-3.5 -15q23 -9 41.5 -29.5t18.5 -53.5q-1 -35 -24.5 -65.5t-67 -43t-127.5 -12.5h-4
q-19 0 -26.5 9.5t-7.5 19.5zM66 171q1 70 38 137t97 108.5t123 41.5q52 0 86 -27.5t33 -71.5q0 -33 -16.5 -48.5t-34.5 -15.5q-17 0 -29 12t-12 29q0 21 16 39v1q-18 17 -44 17q-66 0 -126 -70t-61 -153q0 -18 3.5 -35t13 -35.5t30.5 -29.5t51 -11q54 0 91.5 8.5t51 19
t24.5 19t19 8.5q14 0 25 -12.5t12 -24.5q0 -15 -16 -30q-28 -24 -68.5 -36t-68.5 -14t-71 -2q-39 0 -69.5 11.5t-48.5 30t-29.5 43t-15.5 46.5t-4 45z" />
    <glyph glyph-name="egrave" unicode="&#xe8;" 
d="M67 173q1 74 39 140.5t97.5 105.5t120.5 39q53 0 88.5 -30.5t34.5 -78.5q-1 -57 -43 -96q-27 -24 -71.5 -37t-79 -15.5t-90.5 -2.5h-24q-2 -2 -2 -27q0 -19 4 -37t13.5 -35.5t29 -28.5t46.5 -11h2q56 0 93.5 8.5t50.5 19t24.5 19t21.5 8.5q12 0 23.5 -12.5t11.5 -24.5
q0 -19 -30 -39.5t-64 -30.5q-46 -12 -130 -12q-39 0 -69 12t-48 30.5t-29.5 43t-15.5 47t-4 45.5zM158 262q24 0 38.5 0.5t40 2t42.5 5t37 9.5t32 15t20.5 22.5t8.5 31.5q0 20 -15 32.5t-40 12.5q-47 0 -93.5 -37.5t-70.5 -93.5zM249 633q0 15 11 26.5t26 11.5q8 0 17 -5
t50 -32q26 -18 44 -30q20 -14 20 -31q0 -14 -12.5 -28t-25.5 -14h-3q-5 0 -44 26q-34 23 -61 41q-23 16 -22 35z" />
    <glyph glyph-name="eacute" unicode="&#xe9;" 
d="M306 574q0 9 6 16.5t9 9t12 6.5q20 10 51 25q78 40 88 40q13 0 22.5 -10t10.5 -25q-1 -25 -30 -39t-69 -35q-61 -31 -69 -31q-16 0 -23.5 15t-7.5 28zM67 173q1 74 39 140.5t97.5 105.5t120.5 39q53 0 88.5 -30.5t34.5 -78.5q-1 -57 -43 -96q-27 -24 -71.5 -37t-79 -15.5
t-90.5 -2.5h-24q-2 -2 -2 -27q0 -19 4 -37t13.5 -35.5t29 -28.5t46.5 -11h2q56 0 93.5 8.5t50.5 19t24.5 19t21.5 8.5q12 0 23.5 -12.5t11.5 -24.5q0 -19 -30 -39.5t-64 -30.5q-46 -12 -130 -12q-39 0 -69 12t-48 30.5t-29.5 43t-15.5 47t-4 45.5zM158 262q24 0 38.5 0.5
t40 2t42.5 5t37 9.5t32 15t20.5 22.5t8.5 31.5q0 20 -15 32.5t-40 12.5q-47 0 -93.5 -37.5t-70.5 -93.5z" />
    <glyph glyph-name="ecircumflex" unicode="&#xea;" 
d="M186.5 553.5q0.5 13.5 11.5 22t75 46.5q46 27 78 46q14 8 22 8h1q7 0 15 -5.5t46 -37.5q34 -29 58 -49q19 -17 19 -31q-1 -13 -13.5 -27t-26.5 -14q-8 0 -15 5.5t-39 35.5q-30 27 -52 48l-116 -75q-23 -14 -32 -14q-14 0 -23 14t-8.5 27.5zM67 173q1 74 39 140.5
t97.5 105.5t120.5 39q53 0 88.5 -30.5t34.5 -78.5q-1 -57 -43 -96q-27 -24 -71.5 -37t-79 -15.5t-90.5 -2.5h-24q-2 -2 -2 -27q0 -19 4 -37t13.5 -35.5t29 -28.5t46.5 -11h2q56 0 93.5 8.5t50.5 19t24.5 19t21.5 8.5q12 0 23.5 -12.5t11.5 -24.5q0 -19 -30 -39.5t-64 -30.5
q-46 -12 -130 -12q-39 0 -69 12t-48 30.5t-29.5 43t-15.5 47t-4 45.5zM158 262q24 0 38.5 0.5t40 2t42.5 5t37 9.5t32 15t20.5 22.5t8.5 31.5q0 20 -15 32.5t-40 12.5q-47 0 -93.5 -37.5t-70.5 -93.5z" />
    <glyph glyph-name="edieresis" unicode="&#xeb;" 
d="M409 584q0 23 17 40.5t39 17.5q18 0 31.5 -13.5t13.5 -34.5q0 -23 -17.5 -40t-39.5 -17q-19 0 -31.5 13.5t-12.5 33.5zM204 584q0 22 17 39.5t39 17.5q19 0 32 -12.5t13 -33.5q0 -23 -17.5 -41t-38.5 -18q-19 0 -32.5 13.5t-12.5 34.5zM67 173q1 74 39 140.5t97.5 105.5
t120.5 39q53 0 88.5 -30.5t34.5 -78.5q-1 -57 -43 -96q-27 -24 -71.5 -37t-79 -15.5t-90.5 -2.5h-24q-2 -2 -2 -27q0 -19 4 -37t13.5 -35.5t29 -28.5t46.5 -11h2q56 0 93.5 8.5t50.5 19t24.5 19t21.5 8.5q12 0 23.5 -12.5t11.5 -24.5q0 -19 -30 -39.5t-64 -30.5
q-46 -12 -130 -12q-39 0 -69 12t-48 30.5t-29.5 43t-15.5 47t-4 45.5zM158 262q24 0 38.5 0.5t40 2t42.5 5t37 9.5t32 15t20.5 22.5t8.5 31.5q0 20 -15 32.5t-40 12.5q-47 0 -93.5 -37.5t-70.5 -93.5z" />
    <glyph glyph-name="igrave" unicode="&#xec;" 
d="M104 302q1 20 13.5 45.5t32.5 50.5t50.5 42.5t63.5 17.5q41 0 69.5 -26t27.5 -67v-6q0 -17 -49.5 -139.5t-49.5 -133.5q0 -12 8 -19t21 -7q25 0 50 25.5t37 60.5l1.5 5t2 6t2 5.5t3 6l4.5 4.5t6 4t8 2.5t10 1.5q14 0 24.5 -7.5t10.5 -23.5q0 -15 -11.5 -39.5t-31 -51
t-51.5 -45.5t-67 -19q-39 0 -68 25t-29 66q0 26 49 146t49 134q1 12 -7.5 19.5t-20.5 7.5q-28 0 -51.5 -26t-34.5 -60q-1 -2 -3 -8.5t-3 -8.5t-4 -6.5t-6.5 -6.5t-9 -3.5t-13.5 -1.5q-34 0 -33 30zM259 633q0 15 11 26.5t26 11.5q8 0 17 -5t50 -32q26 -18 44 -30
q20 -14 20 -31q0 -14 -12.5 -28t-25.5 -14h-3q-5 0 -44 26q-34 23 -61 41q-23 16 -22 35z" />
    <glyph glyph-name="iacute" unicode="&#xed;" 
d="M104 302q1 20 13.5 45.5t32.5 50.5t50.5 42.5t63.5 17.5q41 0 69.5 -26t27.5 -67v-6q0 -17 -49.5 -139.5t-49.5 -133.5q0 -12 8 -19t21 -7q25 0 50 25.5t37 60.5l1.5 5t2 6t2 5.5t3 6l4.5 4.5t6 4t8 2.5t10 1.5q14 0 24.5 -7.5t10.5 -23.5q0 -15 -11.5 -39.5t-31 -51
t-51.5 -45.5t-67 -19q-39 0 -68 25t-29 66q0 26 49 146t49 134q1 12 -7.5 19.5t-20.5 7.5q-28 0 -51.5 -26t-34.5 -60q-1 -2 -3 -8.5t-3 -8.5t-4 -6.5t-6.5 -6.5t-9 -3.5t-13.5 -1.5q-34 0 -33 30zM316 574q0 9 6 16.5t9 9t12 6.5q20 10 51 25q78 40 88 40q13 0 22.5 -10
t10.5 -25q-1 -25 -30 -39t-69 -35q-61 -31 -69 -31q-16 0 -23.5 15t-7.5 28z" />
    <glyph glyph-name="icircumflex" unicode="&#xee;" 
d="M196.5 553.5q0.5 13.5 11.5 22t75 46.5q46 27 78 46q14 8 22 8h1q7 0 15 -5.5t46 -37.5q34 -29 58 -49q19 -17 19 -31q-1 -13 -13.5 -27t-26.5 -14q-8 0 -15 5.5t-39 35.5q-30 27 -52 48l-116 -75q-23 -14 -32 -14q-14 0 -23 14t-8.5 27.5zM104 302q1 20 13.5 45.5
t32.5 50.5t50.5 42.5t63.5 17.5q41 0 69.5 -26t27.5 -67v-6q0 -17 -49.5 -139.5t-49.5 -133.5q0 -12 8 -19t21 -7q25 0 50 25.5t37 60.5l1.5 5t2 6t2 5.5t3 6l4.5 4.5t6 4t8 2.5t10 1.5q14 0 24.5 -7.5t10.5 -23.5q0 -15 -11.5 -39.5t-31 -51t-51.5 -45.5t-67 -19
q-39 0 -68 25t-29 66q0 26 49 146t49 134q1 12 -7.5 19.5t-20.5 7.5q-28 0 -51.5 -26t-34.5 -60q-1 -2 -3 -8.5t-3 -8.5t-4 -6.5t-6.5 -6.5t-9 -3.5t-13.5 -1.5q-34 0 -33 30z" />
    <glyph glyph-name="idieresis" unicode="&#xef;" 
d="M104 302q1 20 13.5 45.5t32.5 50.5t50.5 42.5t63.5 17.5q41 0 69.5 -26t27.5 -67v-6q0 -17 -49.5 -139.5t-49.5 -133.5q0 -12 8 -19t21 -7q25 0 50 25.5t37 60.5l1.5 5t2 6t2 5.5t3 6l4.5 4.5t6 4t8 2.5t10 1.5q14 0 24.5 -7.5t10.5 -23.5q0 -15 -11.5 -39.5t-31 -51
t-51.5 -45.5t-67 -19q-39 0 -68 25t-29 66q0 26 49 146t49 134q1 12 -7.5 19.5t-20.5 7.5q-28 0 -51.5 -26t-34.5 -60q-1 -2 -3 -8.5t-3 -8.5t-4 -6.5t-6.5 -6.5t-9 -3.5t-13.5 -1.5q-34 0 -33 30zM419 584q0 23 17 40.5t39 17.5q18 0 31.5 -13.5t13.5 -34.5
q0 -23 -17.5 -40t-39.5 -17q-19 0 -31.5 13.5t-12.5 33.5zM214 584q0 22 17 39.5t39 17.5q19 0 32 -12.5t13 -33.5q0 -23 -17.5 -41t-38.5 -18q-19 0 -32.5 13.5t-12.5 34.5z" />
    <glyph glyph-name="eth" unicode="&#xf0;" 
d="M90 156q1 73 37 144.5t92.5 116t114.5 44.5q12 0 32 -4q-17 38 -53 80l-47 -25l-17 60l12 7l-16 9l-18 9q9 7 20.5 15.5t16.5 12t11 7.5t9 5t7 1q6 0 21.5 -10t18.5 -10q4 0 49 24l18 -60l-18 -10q14 -17 22.5 -28.5t26.5 -43.5t27.5 -75.5t8.5 -93.5q-1 -79 -26 -145
t-62.5 -106.5t-79 -62.5t-79.5 -22q-58 0 -93.5 45t-34.5 116zM163 171q-1 -50 19 -81t53 -31q34 0 70 33t60.5 87t24.5 108q1 48 -19 78.5t-53 30.5q-56 0 -105 -69.5t-50 -155.5z" />
    <glyph glyph-name="ntilde" unicode="&#xf1;" 
d="M183 549q0 15 17 29q24 18 36.5 27t40.5 23t48 14q18 0 32.5 -9t22 -19.5t16 -19.5t15.5 -9q17 0 56.5 28.5t49.5 28.5t19 -10t9 -24q0 -15 -16 -28q-80 -64 -126 -64q-20 0 -34 8.5t-20.5 19t-15 19t-17.5 8.5q-17 0 -56 -27.5t-47 -27.5q-12 0 -21.5 9.5t-8.5 23.5z
M41 301q0 3 2.5 17t10 38.5t19 46.5t32.5 38.5t46 16.5q27 0 47.5 -16t29.5 -42q55 58 120 58q46 0 73 -29t26 -81q0 -45 -35.5 -154t-35.5 -117q0 -9 3 -17q21 0 35.5 22t23.5 52t10 32q9 15 27 15h2q20 0 28 -9.5t8 -21.5q0 -10 -8.5 -33t-23.5 -51.5t-42 -49.5t-59 -21
q-34 0 -54 23.5t-20 61.5q0 20 35.5 125t35.5 145q1 43 -31 43q-37 0 -69 -36.5t-53 -90.5t-36.5 -107.5t-26 -97t-15.5 -49.5q-11 -17 -30 -17q-13 0 -23.5 9.5t-10.5 24.5q0 6 6 25l69 279q6 21 6 33q1 25 -12 25q-17 0 -37 -76q-1 -2 -3 -11t-3.5 -12.5t-5.5 -9t-10 -8
t-15 -2.5h-2q-35 0 -34 29z" />
    <glyph glyph-name="ograve" unicode="&#xf2;" 
d="M66 166q1 65 23.5 121t59.5 92.5t83 57.5t94 21q69 0 115 -49t45 -122q0 -69 -23 -125.5t-59.5 -92t-82 -55t-94.5 -19.5q-69 0 -115.5 48.5t-45.5 122.5zM136 161q-1 -38 26.5 -70t65.5 -32q29 0 60 13.5t60.5 39.5t48.5 73t19 106q1 44 -28 73t-64 29q-29 0 -60 -15
t-60 -43t-48 -73.5t-20 -100.5zM251 633q0 15 11 26.5t26 11.5q8 0 17 -5t50 -32q26 -18 44 -30q20 -14 20 -31q0 -14 -12.5 -28t-25.5 -14h-3q-5 0 -44 26q-34 23 -61 41q-23 16 -22 35z" />
    <glyph glyph-name="oacute" unicode="&#xf3;" 
d="M308 574q0 9 6 16.5t9 9t12 6.5q20 10 51 25q78 40 88 40q13 0 22.5 -10t10.5 -25q-1 -25 -30 -39t-69 -35q-61 -31 -69 -31q-16 0 -23.5 15t-7.5 28zM66 166q1 65 23.5 121t59.5 92.5t83 57.5t94 21q69 0 115 -49t45 -122q0 -69 -23 -125.5t-59.5 -92t-82 -55
t-94.5 -19.5q-69 0 -115.5 48.5t-45.5 122.5zM136 161q-1 -38 26.5 -70t65.5 -32q29 0 60 13.5t60.5 39.5t48.5 73t19 106q1 44 -28 73t-64 29q-29 0 -60 -15t-60 -43t-48 -73.5t-20 -100.5z" />
    <glyph glyph-name="ocircumflex" unicode="&#xf4;" 
d="M188.5 553.5q0.5 13.5 11.5 22t75 46.5q46 27 78 46q14 8 22 8h1q7 0 15 -5.5t46 -37.5q34 -29 58 -49q19 -17 19 -31q-1 -13 -13.5 -27t-26.5 -14q-8 0 -15 5.5t-39 35.5q-30 27 -52 48l-116 -75q-23 -14 -32 -14q-14 0 -23 14t-8.5 27.5zM66 166q1 65 23.5 121
t59.5 92.5t83 57.5t94 21q69 0 115 -49t45 -122q0 -69 -23 -125.5t-59.5 -92t-82 -55t-94.5 -19.5q-69 0 -115.5 48.5t-45.5 122.5zM136 161q-1 -38 26.5 -70t65.5 -32q29 0 60 13.5t60.5 39.5t48.5 73t19 106q1 44 -28 73t-64 29q-29 0 -60 -15t-60 -43t-48 -73.5
t-20 -100.5z" />
    <glyph glyph-name="otilde" unicode="&#xf5;" 
d="M176 549q0 15 17 29q24 18 36.5 27t40.5 23t48 14q18 0 32.5 -9t22 -19.5t16 -19.5t15.5 -9q17 0 56.5 28.5t49.5 28.5t19 -10t9 -24q0 -15 -16 -28q-80 -64 -126 -64q-20 0 -34 8.5t-20.5 19t-15 19t-17.5 8.5q-17 0 -56 -27.5t-47 -27.5q-12 0 -21.5 9.5t-8.5 23.5z
M66 166q1 65 23.5 121t59.5 92.5t83 57.5t94 21q69 0 115 -49t45 -122q0 -69 -23 -125.5t-59.5 -92t-82 -55t-94.5 -19.5q-69 0 -115.5 48.5t-45.5 122.5zM136 161q-1 -38 26.5 -70t65.5 -32q29 0 60 13.5t60.5 39.5t48.5 73t19 106q1 44 -28 73t-64 29q-29 0 -60 -15
t-60 -43t-48 -73.5t-20 -100.5z" />
    <glyph glyph-name="odieresis" unicode="&#xf6;" 
d="M411 584q0 23 17 40.5t39 17.5q18 0 31.5 -13.5t13.5 -34.5q0 -23 -17.5 -40t-39.5 -17q-19 0 -31.5 13.5t-12.5 33.5zM206 584q0 22 17 39.5t39 17.5q19 0 32 -12.5t13 -33.5q0 -23 -17.5 -41t-38.5 -18q-19 0 -32.5 13.5t-12.5 34.5zM66 166q1 65 23.5 121t59.5 92.5
t83 57.5t94 21q69 0 115 -49t45 -122q0 -69 -23 -125.5t-59.5 -92t-82 -55t-94.5 -19.5q-69 0 -115.5 48.5t-45.5 122.5zM136 161q-1 -38 26.5 -70t65.5 -32q29 0 60 13.5t60.5 39.5t48.5 73t19 106q1 44 -28 73t-64 29q-29 0 -60 -15t-60 -43t-48 -73.5t-20 -100.5z" />
    <glyph glyph-name="divide" unicode="&#xf7;" 
d="M112 321q0 13 8 24t22 12h302q45 0 45 -36q0 -7 -2.5 -14t-12.5 -14.5t-28 -7.5h-294q-23 0 -31.5 11.5t-8.5 24.5zM198 134q0 25 18.5 45t43.5 20q25 1 38.5 -16t13.5 -37q-1 -26 -20 -45.5t-43 -19.5q-23 0 -37.5 15.5t-13.5 37.5zM288 497q0 25 18.5 44.5t44.5 19.5
q21 0 36 -15t15 -39q0 -27 -20 -45.5t-43 -18.5t-37 15.5t-14 38.5z" />
    <glyph glyph-name="oslash" unicode="&#xf8;" 
d="M15 -116v1q0 8 6 18.5t44 66.5q33 47 56 81q-29 41 -28 110q1 73 35 143t88.5 113t110.5 43q29 0 61 -15q10 16 91 135q13 18 28 18q12 0 22 -8.5t10 -22.5q0 -8 -8 -21t-52 -77q-28 -41 -46 -68q28 -40 27 -110q0 -72 -34 -141.5t-88.5 -113.5t-111.5 -44q-27 0 -61 15
q-24 -35 -56 -84q-36 -52 -43.5 -61t-19 -9t-22 9t-9.5 22zM150 164q0 -31 9 -57l193 284q-20 5 -25 5q-41 0 -82 -33.5t-67.5 -88t-27.5 -110.5zM202 61q16 -4 26 -4q40 0 81 33.5t67.5 88t26.5 109.5q1 25 -9 56z" />
    <glyph glyph-name="ugrave" unicode="&#xf9;" 
d="M41 301q0 11 8.5 34.5t24 52t43 49.5t59.5 21q35 0 56 -24.5t20 -61.5q0 -24 -32 -116.5t-33 -136.5q0 -60 41 -60q16 0 30.5 9t25.5 21.5t22 34.5t18 38.5t15 43.5t11.5 41t8.5 38q6 23 15 61q16 67 25 86.5t31 19.5q13 0 22.5 -10t10.5 -24q0 -9 -4 -25l-70 -276
q-5 -19 -5 -31t5 -19t11 -7q18 0 39 76q0 2 2.5 11.5t4 12.5t5.5 9.5t10 9t15 2.5h4q20 0 26.5 -10t6.5 -21q0 -3 -3 -17.5t-11.5 -38.5t-20 -45.5t-33 -37.5t-46.5 -16q-50 0 -74 45q-45 -45 -99 -45q-18 0 -36 5.5t-35 19t-27.5 39t-10.5 61.5q1 40 17.5 96t32.5 100.5
t16 57.5q1 18 -11 18q-17 0 -36 -29q-12 -19 -19.5 -45t-15 -36t-27.5 -10q-14 0 -22 6.5t-9.5 12t-1.5 10.5zM259 633q0 15 11 26.5t26 11.5q8 0 17 -5t50 -32q26 -18 44 -30q20 -14 20 -31q0 -14 -12.5 -28t-25.5 -14h-3q-5 0 -44 26q-34 23 -61 41q-23 16 -22 35z" />
    <glyph glyph-name="uacute" unicode="&#xfa;" 
d="M316 574q0 9 6 16.5t9 9t12 6.5q20 10 51 25q78 40 88 40q13 0 22.5 -10t10.5 -25q-1 -25 -30 -39t-69 -35q-61 -31 -69 -31q-16 0 -23.5 15t-7.5 28zM41 301q0 11 8.5 34.5t24 52t43 49.5t59.5 21q35 0 56 -24.5t20 -61.5q0 -24 -32 -116.5t-33 -136.5q0 -60 41 -60
q16 0 30.5 9t25.5 21.5t22 34.5t18 38.5t15 43.5t11.5 41t8.5 38q6 23 15 61q16 67 25 86.5t31 19.5q13 0 22.5 -10t10.5 -24q0 -9 -4 -25l-70 -276q-5 -19 -5 -31t5 -19t11 -7q18 0 39 76q0 2 2.5 11.5t4 12.5t5.5 9.5t10 9t15 2.5h4q20 0 26.5 -10t6.5 -21q0 -3 -3 -17.5
t-11.5 -38.5t-20 -45.5t-33 -37.5t-46.5 -16q-50 0 -74 45q-45 -45 -99 -45q-18 0 -36 5.5t-35 19t-27.5 39t-10.5 61.5q1 40 17.5 96t32.5 100.5t16 57.5q1 18 -11 18q-17 0 -36 -29q-12 -19 -19.5 -45t-15 -36t-27.5 -10q-14 0 -22 6.5t-9.5 12t-1.5 10.5z" />
    <glyph glyph-name="ucircumflex" unicode="&#xfb;" 
d="M196.5 553.5q0.5 13.5 11.5 22t75 46.5q46 27 78 46q14 8 22 8h1q7 0 15 -5.5t46 -37.5q34 -29 58 -49q19 -17 19 -31q-1 -13 -13.5 -27t-26.5 -14q-8 0 -15 5.5t-39 35.5q-30 27 -52 48l-116 -75q-23 -14 -32 -14q-14 0 -23 14t-8.5 27.5zM41 301q0 11 8.5 34.5t24 52
t43 49.5t59.5 21q35 0 56 -24.5t20 -61.5q0 -24 -32 -116.5t-33 -136.5q0 -60 41 -60q16 0 30.5 9t25.5 21.5t22 34.5t18 38.5t15 43.5t11.5 41t8.5 38q6 23 15 61q16 67 25 86.5t31 19.5q13 0 22.5 -10t10.5 -24q0 -9 -4 -25l-70 -276q-5 -19 -5 -31t5 -19t11 -7
q18 0 39 76q0 2 2.5 11.5t4 12.5t5.5 9.5t10 9t15 2.5h4q20 0 26.5 -10t6.5 -21q0 -3 -3 -17.5t-11.5 -38.5t-20 -45.5t-33 -37.5t-46.5 -16q-50 0 -74 45q-45 -45 -99 -45q-18 0 -36 5.5t-35 19t-27.5 39t-10.5 61.5q1 40 17.5 96t32.5 100.5t16 57.5q1 18 -11 18
q-17 0 -36 -29q-12 -19 -19.5 -45t-15 -36t-27.5 -10q-14 0 -22 6.5t-9.5 12t-1.5 10.5z" />
    <glyph glyph-name="udieresis" unicode="&#xfc;" 
d="M419 584q0 23 17 40.5t39 17.5q18 0 31.5 -13.5t13.5 -34.5q0 -23 -17.5 -40t-39.5 -17q-19 0 -31.5 13.5t-12.5 33.5zM214 584q0 22 17 39.5t39 17.5q19 0 32 -12.5t13 -33.5q0 -23 -17.5 -41t-38.5 -18q-19 0 -32.5 13.5t-12.5 34.5zM41 301q0 11 8.5 34.5t24 52
t43 49.5t59.5 21q35 0 56 -24.5t20 -61.5q0 -24 -32 -116.5t-33 -136.5q0 -60 41 -60q16 0 30.5 9t25.5 21.5t22 34.5t18 38.5t15 43.5t11.5 41t8.5 38q6 23 15 61q16 67 25 86.5t31 19.5q13 0 22.5 -10t10.5 -24q0 -9 -4 -25l-70 -276q-5 -19 -5 -31t5 -19t11 -7
q18 0 39 76q0 2 2.5 11.5t4 12.5t5.5 9.5t10 9t15 2.5h4q20 0 26.5 -10t6.5 -21q0 -3 -3 -17.5t-11.5 -38.5t-20 -45.5t-33 -37.5t-46.5 -16q-50 0 -74 45q-45 -45 -99 -45q-18 0 -36 5.5t-35 19t-27.5 39t-10.5 61.5q1 40 17.5 96t32.5 100.5t16 57.5q1 18 -11 18
q-17 0 -36 -29q-12 -19 -19.5 -45t-15 -36t-27.5 -10q-14 0 -22 6.5t-9.5 12t-1.5 10.5z" />
    <glyph glyph-name="yacute" unicode="&#xfd;" 
d="M342 574q0 9 6 16.5t9 9t12 6.5q20 10 51 25q78 40 88 40q13 0 22.5 -10t10.5 -25q-1 -25 -30 -39t-69 -35q-61 -31 -69 -31q-16 0 -23.5 15t-7.5 28zM41 301q0 12 9.5 36t26 52t45.5 48.5t62 20.5q37 0 60.5 -26t22.5 -63q0 -23 -32.5 -112t-33.5 -134q0 -64 52 -64
q35 0 64.5 34t48 85.5t32 102.5t23.5 96t15 55q12 20 32 20q13 0 23 -10t10 -25q0 -10 -4 -24l-96 -380q-16 -63 -41.5 -110.5t-51 -73.5t-54.5 -42t-49 -20.5t-37 -4.5q-45 0 -74 27.5t-29 72.5q1 33 16.5 50.5t36.5 17.5q17 0 28.5 -11.5t11.5 -30.5q-1 -23 -20 -41
q11 -21 36 -21q45 0 91.5 53.5t65.5 140.5q-41 -25 -80 -25q-20 0 -39.5 6t-38.5 19.5t-30.5 40.5t-11.5 64q1 39 17.5 94t32.5 98t16 54q1 21 -16 21t-34 -19q-14 -17 -23.5 -37.5t-12 -33t-11 -21.5t-23.5 -9h-3q-34 0 -33 29z" />
    <glyph glyph-name="thorn" unicode="&#xfe;" 
d="M-56 -203q0 14 8 24t27 11h66l186 744h-43q-22 0 -29 6q-13 9 -13 25q0 7 2 13.5t11.5 14t24.5 7.5h87q6 0 13 -1.5t16.5 -9t9.5 -20.5q0 -6 -45 -185q48 32 90 32q55 0 88.5 -46t33.5 -117q-1 -73 -34.5 -142.5t-87.5 -113.5t-111 -44q-48 0 -78 35l-49 -198h43
q18 0 26 -4q15 -9 15 -26q-1 -35 -38 -35h-184q-36 0 -35 30zM198 139q-1 -80 46 -80q38 0 76 36t62 91.5t25 109.5q0 41 -14 69t-44 28q-36 0 -73 -35.5t-48 -77.5q-6 -24 -12 -48.5t-8.5 -34.5t-5 -20.5t-3 -15.5t-1 -9.5t-0.5 -12.5z" />
    <glyph glyph-name="ydieresis" unicode="&#xff;" 
d="M445 584q0 23 17 40.5t39 17.5q18 0 31.5 -13.5t13.5 -34.5q0 -23 -17.5 -40t-39.5 -17q-19 0 -31.5 13.5t-12.5 33.5zM240 584q0 22 17 39.5t39 17.5q19 0 32 -12.5t13 -33.5q0 -23 -17.5 -41t-38.5 -18q-19 0 -32.5 13.5t-12.5 34.5zM41 301q0 12 9.5 36t26 52
t45.5 48.5t62 20.5q37 0 60.5 -26t22.5 -63q0 -23 -32.5 -112t-33.5 -134q0 -64 52 -64q35 0 64.5 34t48 85.5t32 102.5t23.5 96t15 55q12 20 32 20q13 0 23 -10t10 -25q0 -10 -4 -24l-96 -380q-16 -63 -41.5 -110.5t-51 -73.5t-54.5 -42t-49 -20.5t-37 -4.5q-45 0 -74 27.5
t-29 72.5q1 33 16.5 50.5t36.5 17.5q17 0 28.5 -11.5t11.5 -30.5q-1 -23 -20 -41q11 -21 36 -21q45 0 91.5 53.5t65.5 140.5q-41 -25 -80 -25q-20 0 -39.5 6t-38.5 19.5t-30.5 40.5t-11.5 64q1 39 17.5 94t32.5 98t16 54q1 21 -16 21t-34 -19q-14 -17 -23.5 -37.5t-12 -33
t-11 -21.5t-23.5 -9h-3q-34 0 -33 29z" />
    <glyph glyph-name="Amacron" unicode="&#x100;" 
d="M189 804q0 7 2 14t11 15t24 8h457q18 -1 24.5 -10t6.5 -20q0 -7 -1.5 -14t-10 -14.5t-22.5 -7.5h-457q-34 0 -34 29zM23 32q5 20 24 30q7 2 44 2l259 550q13 28 25.5 34t38.5 6t35 -6.5t8 -34.5l-16 -549q37 0 42 -3q15 -8 10 -29q-4 -15 -14 -22.5t-17.5 -8.5t-19.5 -1
h-102q-7 0 -11 0.5t-11 2t-8.5 4.5l-4.5 9t1 16q4 15 13.5 22.5t19 8.5t31.5 1l4 109h-162l-50 -109h14.5t12 -0.5t10.5 -2t6.5 -3.5t4.5 -5.5t1.5 -9t-1.5 -11.5q-4 -15 -13.5 -22.5t-16.5 -8.5t-20 -1h-102q-7 0 -11 0.5t-11 2t-9 4.5t-5 9t1 16zM243 237h132l17 330z" />
    <glyph glyph-name="amacron" unicode="&#x101;" 
d="M173 575q0 8 2 14.5t11 14t24 7.5h246q37 0 36 -30q0 -36 -36 -36h-249q-14 0 -22 6t-10 12t-2 12zM85 155q1 72 32 142.5t82 115.5t103 45q10 0 18.5 -1.5t15.5 -4t14 -6.5t11.5 -7t9 -7.5t7 -6.5t5.5 -5.5l3 -3.5q11 26 35 26q14 0 24 -9.5t10 -25.5q0 -6 -3 -19
l-68 -268q-6 -25 -6 -32q0 -11 4.5 -18t8 -8.5t7.5 -1.5q3 0 6.5 2t7 6.5t6 9.5t5.5 12.5l5 12.5t4.5 13.5t3.5 12.5l3 12t3 9q2 9 4 13.5t10 11t20 6.5h4q20 0 26.5 -10t6.5 -21q0 -3 -3 -17.5t-12 -38.5t-21 -46t-33.5 -37.5t-47.5 -15.5q-29 0 -50 15.5t-30 38.5
q-56 -54 -115 -54q-53 0 -85 45t-31 115zM155 152q0 -21 3 -40t15 -35.5t31 -16.5q30 0 64 35.5t57.5 92.5t24.5 111q0 44 -14 69t-37 25q-31 0 -64.5 -37t-56.5 -93.5t-23 -110.5z" />
    <glyph glyph-name="Abreve" unicode="&#x102;" 
d="M278 806q0 54 33 54q16 0 23.5 -9.5t7.5 -19.5q0 -4 -1 -11.5t-1 -11.5q-1 -24 25.5 -40t65.5 -16q44 0 85 21t55 59l1 3t2.5 6t4 6.5t5.5 6t8 4.5t11 2q13 0 22 -8.5t9 -21.5q0 -17 -13.5 -40t-37 -47.5t-64.5 -41t-90 -16.5q-68 0 -110 33.5t-41 87.5zM23 32
q5 20 24 30q7 2 44 2l259 550q13 28 25.5 34t38.5 6t35 -6.5t8 -34.5l-16 -549q37 0 42 -3q15 -8 10 -29q-4 -15 -14 -22.5t-17.5 -8.5t-19.5 -1h-102q-7 0 -11 0.5t-11 2t-8.5 4.5l-4.5 9t1 16q4 15 13.5 22.5t19 8.5t31.5 1l4 109h-162l-50 -109h14.5t12 -0.5t10.5 -2
t6.5 -3.5t4.5 -5.5t1.5 -9t-1.5 -11.5q-4 -15 -13.5 -22.5t-16.5 -8.5t-20 -1h-102q-7 0 -11 0.5t-11 2t-9 4.5t-5 9t1 16zM243 237h132l17 330z" />
    <glyph glyph-name="abreve" unicode="&#x103;" 
d="M169 624q1 47 34 47q13 0 21.5 -8t8.5 -21q0 -3 -1 -8t-1 -7q0 -20 30 -28t67 -8q47 0 76 8t40 20t17 23.5t13 19.5t21 8q12 0 21 -8t9 -22q0 -8 -4.5 -20.5t-18.5 -30t-34.5 -32t-57.5 -24.5t-84 -10q-46 0 -79 9.5t-48.5 26t-22.5 32.5t-7 33zM85 155q1 72 32 142.5
t82 115.5t103 45q10 0 18.5 -1.5t15.5 -4t14 -6.5t11.5 -7t9 -7.5t7 -6.5t5.5 -5.5l3 -3.5q11 26 35 26q14 0 24 -9.5t10 -25.5q0 -6 -3 -19l-68 -268q-6 -25 -6 -32q0 -11 4.5 -18t8 -8.5t7.5 -1.5q3 0 6.5 2t7 6.5t6 9.5t5.5 12.5l5 12.5t4.5 13.5t3.5 12.5l3 12t3 9
q2 9 4 13.5t10 11t20 6.5h4q20 0 26.5 -10t6.5 -21q0 -3 -3 -17.5t-12 -38.5t-21 -46t-33.5 -37.5t-47.5 -15.5q-29 0 -50 15.5t-30 38.5q-56 -54 -115 -54q-53 0 -85 45t-31 115zM155 152q0 -21 3 -40t15 -35.5t31 -16.5q30 0 64 35.5t57.5 92.5t24.5 111q0 44 -14 69
t-37 25q-31 0 -64.5 -37t-56.5 -93.5t-23 -110.5z" />
    <glyph glyph-name="Aogonek" unicode="&#x104;" 
d="M222 -122q0 33 24 61.5t51.5 44t65.5 34t51 27.5q20 14 28 14q11 0 19.5 -8.5t7.5 -21.5q0 -15 -22 -32t-49.5 -30t-57.5 -33t-42 -40q-3 -5 -3 -13q-1 -5 6.5 -9.5t19.5 -4.5q20 0 39.5 11t32 24.5t25.5 24.5t21 11q11 0 21 -9.5t10 -23t-22 -38.5t-60.5 -47t-75.5 -22
q-39 0 -65 22.5t-25 57.5zM23 32q5 20 24 30q7 2 44 2l259 550q13 28 25.5 34t38.5 6t35 -6.5t8 -34.5l-16 -549q37 0 42 -3q15 -8 10 -29q-4 -15 -14 -22.5t-17.5 -8.5t-19.5 -1h-102q-7 0 -11 0.5t-11 2t-8.5 4.5l-4.5 9t1 16q4 15 13.5 22.5t19 8.5t31.5 1l4 109h-162
l-50 -109h14.5t12 -0.5t10.5 -2t6.5 -3.5t4.5 -5.5t1.5 -9t-1.5 -11.5q-4 -15 -13.5 -22.5t-16.5 -8.5t-20 -1h-102q-7 0 -11 0.5t-11 2t-9 4.5t-5 9t1 16zM243 237h132l17 330z" />
    <glyph glyph-name="aogonek" unicode="&#x105;" 
d="M230 -122q0 33 24 61.5t51.5 44t65.5 34t51 27.5q20 14 28 14q11 0 19.5 -8.5t7.5 -21.5q0 -15 -22 -32t-49.5 -30t-57.5 -33t-42 -40q-3 -5 -3 -13q-1 -5 6.5 -9.5t19.5 -4.5q20 0 39.5 11t32 24.5t25.5 24.5t21 11q11 0 21 -9.5t10 -23t-22 -38.5t-60.5 -47t-75.5 -22
q-39 0 -65 22.5t-25 57.5zM85 155q1 72 32 142.5t82 115.5t103 45q10 0 18.5 -1.5t15.5 -4t14 -6.5t11.5 -7t9 -7.5t7 -6.5t5.5 -5.5l3 -3.5q11 26 35 26q14 0 24 -9.5t10 -25.5q0 -6 -3 -19l-68 -268q-6 -25 -6 -32q0 -11 4.5 -18t8 -8.5t7.5 -1.5q3 0 6.5 2t7 6.5t6 9.5
t5.5 12.5l5 12.5t4.5 13.5t3.5 12.5l3 12t3 9q2 9 4 13.5t10 11t20 6.5h4q20 0 26.5 -10t6.5 -21q0 -3 -3 -17.5t-12 -38.5t-21 -46t-33.5 -37.5t-47.5 -15.5q-29 0 -50 15.5t-30 38.5q-56 -54 -115 -54q-53 0 -85 45t-31 115zM155 152q0 -21 3 -40t15 -35.5t31 -16.5
q30 0 64 35.5t57.5 92.5t24.5 111q0 44 -14 69t-37 25q-31 0 -64.5 -37t-56.5 -93.5t-23 -110.5z" />
    <glyph glyph-name="Cacute" unicode="&#x106;" 
d="M395 761q0 14 7.5 21t21.5 13q34 13 78 31q53 21 60 21q14 0 23.5 -10.5t9.5 -23.5q0 -10 -3.5 -17.5t-13 -13.5t-14 -8t-20.5 -9l-36 -14t-28 -11t-19.5 -8t-14.5 -6t-9.5 -3.5t-7 -2t-4.5 -0.5q-16 0 -23 13t-7 28zM108 321q36 141 131 236.5t193 95.5q74 0 118 -50
q8 11 13 18t7 10t3 4q0 1 2.5 3t3 3t3 3t3.5 3t3.5 2.5t5 2t5.5 1t6 0.5q20 0 23 -15t-3 -28l-37 -146q-3 -10 -5 -15.5t-6.5 -13t-13 -11t-21.5 -3.5q-14 0 -20.5 5t-6 12.5t0.5 17.5q5 62 -22 97.5t-74 35.5q-69 0 -141.5 -77t-101.5 -191q-28 -115 6 -192t104 -77
q18 0 38.5 6t44.5 19.5t45.5 40t32.5 63.5q10 30 42 30q5 0 7.5 -0.5t8.5 -2t7.5 -5t4 -10t-1.5 -17.5q-18 -73 -91 -130.5t-158 -57.5q-65 0 -110 44t-58 118t9 171z" />
    <glyph glyph-name="cacute" unicode="&#x107;" 
d="M306 574q0 9 6 16.5t9 9t12 6.5q20 10 51 25q78 40 88 40q13 0 22.5 -10t10.5 -25q-1 -25 -30 -39t-69 -35q-61 -31 -69 -31q-16 0 -23.5 15t-7.5 28zM66 171q1 70 38 137t97 108.5t123 41.5q52 0 86 -27.5t33 -71.5q0 -33 -16.5 -48.5t-34.5 -15.5q-17 0 -29 12t-12 29
q0 21 16 39v1q-18 17 -44 17q-66 0 -126 -70t-61 -153q0 -18 3.5 -35t13 -35.5t30.5 -29.5t51 -11q54 0 91.5 8.5t51 19t24.5 19t19 8.5q14 0 25 -12.5t12 -24.5q0 -15 -16 -30q-28 -24 -68.5 -36t-68.5 -14t-71 -2q-39 0 -69.5 11.5t-48.5 30t-29.5 43t-15.5 46.5t-4 45z
" />
    <glyph glyph-name="Ccircumflex" unicode="&#x108;" 
d="M289 733q0 12 9 20t57 39q46 29 80 51q24 16 30.5 19t12.5 3q4 0 7 -0.5t7 -3t7 -5.5t9.5 -9t12 -11t16 -15.5t20.5 -19.5q43 -41 50.5 -49.5t7.5 -18.5q0 -14 -13.5 -27.5t-26.5 -13.5q-9 0 -20.5 10.5t-54.5 56.5q-18 18 -29 30q-15 -11 -41 -29q-73 -51 -87 -59.5
t-22 -8.5q-14 0 -23 14t-9 27zM108 321q36 141 131 236.5t193 95.5q74 0 118 -50q8 11 13 18t7 10t3 4q0 1 2.5 3t3 3t3 3t3.5 3t3.5 2.5t5 2t5.5 1t6 0.5q20 0 23 -15t-3 -28l-37 -146q-3 -10 -5 -15.5t-6.5 -13t-13 -11t-21.5 -3.5q-14 0 -20.5 5t-6 12.5t0.5 17.5
q5 62 -22 97.5t-74 35.5q-69 0 -141.5 -77t-101.5 -191q-28 -115 6 -192t104 -77q18 0 38.5 6t44.5 19.5t45.5 40t32.5 63.5q10 30 42 30q5 0 7.5 -0.5t8.5 -2t7.5 -5t4 -10t-1.5 -17.5q-18 -73 -91 -130.5t-158 -57.5q-65 0 -110 44t-58 118t9 171z" />
    <glyph glyph-name="ccircumflex" unicode="&#x109;" 
d="M186.5 553.5q0.5 13.5 11.5 22t75 46.5q46 27 78 46q14 8 22 8h1q7 0 15 -5.5t46 -37.5q34 -29 58 -49q19 -17 19 -31q-1 -13 -13.5 -27t-26.5 -14q-8 0 -15 5.5t-39 35.5q-30 27 -52 48l-116 -75q-23 -14 -32 -14q-14 0 -23 14t-8.5 27.5zM66 171q1 70 38 137t97 108.5
t123 41.5q52 0 86 -27.5t33 -71.5q0 -33 -16.5 -48.5t-34.5 -15.5q-17 0 -29 12t-12 29q0 21 16 39v1q-18 17 -44 17q-66 0 -126 -70t-61 -153q0 -18 3.5 -35t13 -35.5t30.5 -29.5t51 -11q54 0 91.5 8.5t51 19t24.5 19t19 8.5q14 0 25 -12.5t12 -24.5q0 -15 -16 -30
q-28 -24 -68.5 -36t-68.5 -14t-71 -2q-39 0 -69.5 11.5t-48.5 30t-29.5 43t-15.5 46.5t-4 45z" />
    <glyph glyph-name="Cdotaccent" unicode="&#x10a;" 
d="M408 753q0 23 17.5 40.5t38.5 17.5q18 0 31.5 -13.5t13.5 -34.5q0 -22 -17 -39.5t-40 -17.5q-19 0 -31.5 13.5t-12.5 33.5zM108 321q36 141 131 236.5t193 95.5q74 0 118 -50q8 11 13 18t7 10t3 4q0 1 2.5 3t3 3t3 3t3.5 3t3.5 2.5t5 2t5.5 1t6 0.5q20 0 23 -15t-3 -28
l-37 -146q-3 -10 -5 -15.5t-6.5 -13t-13 -11t-21.5 -3.5q-14 0 -20.5 5t-6 12.5t0.5 17.5q5 62 -22 97.5t-74 35.5q-69 0 -141.5 -77t-101.5 -191q-28 -115 6 -192t104 -77q18 0 38.5 6t44.5 19.5t45.5 40t32.5 63.5q10 30 42 30q5 0 7.5 -0.5t8.5 -2t7.5 -5t4 -10
t-1.5 -17.5q-18 -73 -91 -130.5t-158 -57.5q-65 0 -110 44t-58 118t9 171z" />
    <glyph glyph-name="cdotaccent" unicode="&#x10b;" 
d="M307 584q0 23 17 40.5t39 17.5q18 0 31.5 -13.5t13.5 -34.5q0 -23 -17.5 -40t-39.5 -17q-19 0 -31.5 13.5t-12.5 33.5zM66 171q1 70 38 137t97 108.5t123 41.5q52 0 86 -27.5t33 -71.5q0 -33 -16.5 -48.5t-34.5 -15.5q-17 0 -29 12t-12 29q0 21 16 39v1q-18 17 -44 17
q-66 0 -126 -70t-61 -153q0 -18 3.5 -35t13 -35.5t30.5 -29.5t51 -11q54 0 91.5 8.5t51 19t24.5 19t19 8.5q14 0 25 -12.5t12 -24.5q0 -15 -16 -30q-28 -24 -68.5 -36t-68.5 -14t-71 -2q-39 0 -69.5 11.5t-48.5 30t-29.5 43t-15.5 46.5t-4 45z" />
    <glyph glyph-name="Ccaron" unicode="&#x10c;" 
d="M321 814q0 12 9 21t21 9h3q5 0 11 -4.5t26 -27t52 -65.5q36 27 81 61q34 26 42 31t16 5q11 0 20 -9t9 -21q-1 -16 -20 -31q-69 -56 -101.5 -81t-40 -29.5t-13.5 -4.5q-7 0 -11.5 2.5t-12 11t-14 18t-22.5 31t-33 42.5q-22 30 -22 41zM108 321q36 141 131 236.5t193 95.5
q74 0 118 -50q8 11 13 18t7 10t3 4q0 1 2.5 3t3 3t3 3t3.5 3t3.5 2.5t5 2t5.5 1t6 0.5q20 0 23 -15t-3 -28l-37 -146q-3 -10 -5 -15.5t-6.5 -13t-13 -11t-21.5 -3.5q-14 0 -20.5 5t-6 12.5t0.5 17.5q5 62 -22 97.5t-74 35.5q-69 0 -141.5 -77t-101.5 -191q-28 -115 6 -192
t104 -77q18 0 38.5 6t44.5 19.5t45.5 40t32.5 63.5q10 30 42 30q5 0 7.5 -0.5t8.5 -2t7.5 -5t4 -10t-1.5 -17.5q-18 -73 -91 -130.5t-158 -57.5q-65 0 -110 44t-58 118t9 171z" />
    <glyph glyph-name="ccaron" unicode="&#x10d;" 
d="M219 639q0 12 8.5 22t20.5 10q9 0 19.5 -8.5t43.5 -42.5l33 -33q24 15 57.5 38.5t51.5 34.5t26 11q11 0 20 -9t9 -22q-1 -16 -21 -31q-32 -23 -75 -54q-47 -34 -57 -40.5t-18 -6.5q-12 0 -26 15q-15 18 -39 44q-38 42 -45.5 52.5t-7.5 19.5zM66 171q1 70 38 137t97 108.5
t123 41.5q52 0 86 -27.5t33 -71.5q0 -33 -16.5 -48.5t-34.5 -15.5q-17 0 -29 12t-12 29q0 21 16 39v1q-18 17 -44 17q-66 0 -126 -70t-61 -153q0 -18 3.5 -35t13 -35.5t30.5 -29.5t51 -11q54 0 91.5 8.5t51 19t24.5 19t19 8.5q14 0 25 -12.5t12 -24.5q0 -15 -16 -30
q-28 -24 -68.5 -36t-68.5 -14t-71 -2q-39 0 -69.5 11.5t-48.5 30t-29.5 43t-15.5 46.5t-4 45z" />
    <glyph glyph-name="Dcaron" unicode="&#x10e;" 
d="M258 814q0 12 9 21t21 9h3q5 0 11 -4.5t26 -27t52 -65.5q36 27 81 61q34 26 42 31t16 5q11 0 20 -9t9 -21q-1 -16 -20 -31q-69 -56 -101.5 -81t-40 -29.5t-13.5 -4.5q-7 0 -11.5 2.5t-12 11t-14 18t-22.5 31t-33 42.5q-22 30 -22 41zM15 32q4 14 13.5 22t16.5 9t19 1h22
l128 514h-22h-9.5t-10.5 1.5t-9 5t-5 9.5t1 15q4 15 14 22.5t17 9t18 1.5h206q49 0 84 -27.5t51 -72.5t18 -104t-15 -122q-33 -130 -117.5 -223t-180.5 -93h-206q-6 0 -9.5 0.5t-10.5 2t-9 4.5t-5 9t1 16zM155 64h96q53 0 102 38t81.5 94t48.5 120q12 47 12.5 92.5t-10 83.5
t-38 62t-68.5 24h-96z" />
    <glyph glyph-name="dcaron" unicode="&#x10f;" 
d="M250 823q0 12 8.5 22t20.5 10q9 0 19.5 -8.5t43.5 -42.5l33 -33q24 15 57.5 38.5t51.5 34.5t26 11q11 0 20 -9t9 -22q-1 -16 -21 -31q-32 -23 -75 -54q-47 -34 -57 -40.5t-18 -6.5q-12 0 -26 15q-15 18 -39 44q-38 42 -45.5 52.5t-7.5 19.5zM65 155q1 71 37.5 142.5
t92 116t107.5 44.5q51 0 84 -42l40 160h-49q-36 0 -36 31q1 35 39 35h91q35 0 34 -30q0 -9 -3 -20l-120 -479q-4 -16 -4 -25q0 -14 5.5 -21t13.5 -7q14 0 24 23.5t18 52t13 34.5q10 11 25 11q20 0 28 -9.5t8 -21.5q0 -3 -3 -17.5t-11.5 -38.5t-21 -45.5t-34 -37.5t-47.5 -16
q-29 0 -50 15.5t-30 38.5q-60 -54 -115 -54q-59 0 -98 40t-38 120zM135 152q-1 -42 18.5 -67t50.5 -25q29 0 63 34.5t58 91.5t25 113q0 44 -14 69t-37 25q-31 0 -69.5 -36.5t-66.5 -94t-28 -110.5z" />
    <glyph glyph-name="Dcroat" unicode="&#x110;" 
d="M19 30q1 35 39 35h22l54 217h-9q-20 0 -27 10t-7 21q0 35 36 35h24l57 228h-7q-37 0 -37 32q0 14 9 24t26 10h182q14 0 25 -2.5t26.5 -9t29 -23.5t24.5 -43q20 -52 19 -119q-1 -104 -41.5 -208t-106.5 -170.5t-133 -66.5h-169q-21 0 -28.5 10t-7.5 20zM152 65h67
q36 0 66 21q58 42 102.5 140.5t45.5 202.5q0 23 -3 45t-10 44.5t-21.5 38t-34.5 18.5q-5 1 -16 1h-68l-57 -228h78q17 0 26 -9t9 -22q0 -6 -2 -13t-11 -14.5t-25 -7.5h-92z" />
    <glyph glyph-name="dcroat" unicode="&#x111;" 
d="M85 155q1 72 32.5 142.5t82 115.5t102.5 45q51 0 84 -42l18 69h-74q-34 1 -34 29q1 35 37 35h87l6 27h-43q-22 0 -29 6q-12 9 -12 25q1 35 37 35h93q14 0 22 -6.5t9.5 -12t1.5 -11.5q0 -11 -13 -63h22q36 0 35 -30q0 -34 -36 -34h-38q-2 -7 -5.5 -21.5t-5.5 -21.5
l-79 -318q-7 -29 -7 -35q0 -13 5.5 -21t13.5 -8q14 0 24 23.5t17.5 52t12.5 34.5q9 11 26 11h3q19 0 26 -9.5t7 -20.5q0 -7 -6.5 -29.5t-18.5 -52.5t-36.5 -52t-55.5 -22q-29 0 -50 15.5t-30 38.5q-60 -54 -115 -54q-53 0 -85 45t-31 115zM155 152q0 -21 3 -40t15 -35.5
t31 -16.5q30 0 64 35.5t57.5 92.5t24.5 111q0 44 -14 69t-37 25q-31 0 -64.5 -37t-56.5 -93.5t-23 -110.5z" />
    <glyph glyph-name="Emacron" unicode="&#x112;" 
d="M191 804q0 7 2 14t11 15t24 8h457q18 -1 24.5 -10t6.5 -20q0 -7 -1.5 -14t-10 -14.5t-22.5 -7.5h-457q-34 0 -34 29zM22 32q4 14 13.5 22t16.5 9t19 1h30l128 514h-30h-9.5t-10.5 1.5t-9 5t-5 9.5t2 16q7 32 48 32h373q25 0 31 -9.5t-1 -34.5l-20 -76q-2 -11 -4 -16.5
t-7 -13t-13.5 -10.5t-20.5 -3t-19 3.5t-7.5 11t0 13t2.5 15.5l14 56h-245l-53 -214h131q9 37 17.5 48.5t32.5 11.5q12 0 18.5 -3.5t7.5 -11t0.5 -13t-3.5 -15.5l-24 -97q-3 -11 -5 -16.5t-6.5 -13t-13 -11t-20.5 -3.5q-24 0 -27 14t7 46h-131l-59 -236h267l18 72
q3 11 5 16.5t6.5 13t13 11t21.5 3.5q12 0 18.5 -3.5t7.5 -11t0.5 -13t-3.5 -16.5l-23 -93q-7 -26 -17 -34.5t-34 -8.5h-395q-6 0 -9.5 0.5t-10.5 2t-9 4.5t-5 9t1 16z" />
    <glyph glyph-name="emacron" unicode="&#x113;" 
d="M195 575q0 8 2 14.5t11 14t24 7.5h246q37 0 36 -30q0 -36 -36 -36h-249q-14 0 -22 6t-10 12t-2 12zM67 173q1 74 39 140.5t97.5 105.5t120.5 39q53 0 88.5 -30.5t34.5 -78.5q-1 -57 -43 -96q-27 -24 -71.5 -37t-79 -15.5t-90.5 -2.5h-24q-2 -2 -2 -27q0 -19 4 -37
t13.5 -35.5t29 -28.5t46.5 -11h2q56 0 93.5 8.5t50.5 19t24.5 19t21.5 8.5q12 0 23.5 -12.5t11.5 -24.5q0 -19 -30 -39.5t-64 -30.5q-46 -12 -130 -12q-39 0 -69 12t-48 30.5t-29.5 43t-15.5 47t-4 45.5zM158 262q24 0 38.5 0.5t40 2t42.5 5t37 9.5t32 15t20.5 22.5
t8.5 31.5q0 20 -15 32.5t-40 12.5q-47 0 -93.5 -37.5t-70.5 -93.5z" />
    <glyph glyph-name="Ebreve" unicode="&#x114;" 
d="M280 806q0 54 33 54q16 0 23.5 -9.5t7.5 -19.5q0 -4 -1 -11.5t-1 -11.5q-1 -24 25.5 -40t65.5 -16q44 0 85 21t55 59l1 3t2.5 6t4 6.5t5.5 6t8 4.5t11 2q13 0 22 -8.5t9 -21.5q0 -17 -13.5 -40t-37 -47.5t-64.5 -41t-90 -16.5q-68 0 -110 33.5t-41 87.5zM22 32
q4 14 13.5 22t16.5 9t19 1h30l128 514h-30h-9.5t-10.5 1.5t-9 5t-5 9.5t2 16q7 32 48 32h373q25 0 31 -9.5t-1 -34.5l-20 -76q-2 -11 -4 -16.5t-7 -13t-13.5 -10.5t-20.5 -3t-19 3.5t-7.5 11t0 13t2.5 15.5l14 56h-245l-53 -214h131q9 37 17.5 48.5t32.5 11.5
q12 0 18.5 -3.5t7.5 -11t0.5 -13t-3.5 -15.5l-24 -97q-3 -11 -5 -16.5t-6.5 -13t-13 -11t-20.5 -3.5q-24 0 -27 14t7 46h-131l-59 -236h267l18 72q3 11 5 16.5t6.5 13t13 11t21.5 3.5q12 0 18.5 -3.5t7.5 -11t0.5 -13t-3.5 -16.5l-23 -93q-7 -26 -17 -34.5t-34 -8.5h-395
q-6 0 -9.5 0.5t-10.5 2t-9 4.5t-5 9t1 16z" />
    <glyph glyph-name="ebreve" unicode="&#x115;" 
d="M191 624q1 47 34 47q13 0 21.5 -8t8.5 -21q0 -3 -1 -8t-1 -7q0 -20 30 -28t67 -8q47 0 76 8t40 20t17 23.5t13 19.5t21 8q12 0 21 -8t9 -22q0 -8 -4.5 -20.5t-18.5 -30t-34.5 -32t-57.5 -24.5t-84 -10q-46 0 -79 9.5t-48.5 26t-22.5 32.5t-7 33zM67 173q1 74 39 140.5
t97.5 105.5t120.5 39q53 0 88.5 -30.5t34.5 -78.5q-1 -57 -43 -96q-27 -24 -71.5 -37t-79 -15.5t-90.5 -2.5h-24q-2 -2 -2 -27q0 -19 4 -37t13.5 -35.5t29 -28.5t46.5 -11h2q56 0 93.5 8.5t50.5 19t24.5 19t21.5 8.5q12 0 23.5 -12.5t11.5 -24.5q0 -19 -30 -39.5t-64 -30.5
q-46 -12 -130 -12q-39 0 -69 12t-48 30.5t-29.5 43t-15.5 47t-4 45.5zM158 262q24 0 38.5 0.5t40 2t42.5 5t37 9.5t32 15t20.5 22.5t8.5 31.5q0 20 -15 32.5t-40 12.5q-47 0 -93.5 -37.5t-70.5 -93.5z" />
    <glyph glyph-name="Edotaccent" unicode="&#x116;" 
d="M392 753q0 23 17.5 40.5t38.5 17.5q18 0 31.5 -13.5t13.5 -34.5q0 -22 -17 -39.5t-40 -17.5q-19 0 -31.5 13.5t-12.5 33.5zM22 32q4 14 13.5 22t16.5 9t19 1h30l128 514h-30h-9.5t-10.5 1.5t-9 5t-5 9.5t2 16q7 32 48 32h373q25 0 31 -9.5t-1 -34.5l-20 -76
q-2 -11 -4 -16.5t-7 -13t-13.5 -10.5t-20.5 -3t-19 3.5t-7.5 11t0 13t2.5 15.5l14 56h-245l-53 -214h131q9 37 17.5 48.5t32.5 11.5q12 0 18.5 -3.5t7.5 -11t0.5 -13t-3.5 -15.5l-24 -97q-3 -11 -5 -16.5t-6.5 -13t-13 -11t-20.5 -3.5q-24 0 -27 14t7 46h-131l-59 -236h267
l18 72q3 11 5 16.5t6.5 13t13 11t21.5 3.5q12 0 18.5 -3.5t7.5 -11t0.5 -13t-3.5 -16.5l-23 -93q-7 -26 -17 -34.5t-34 -8.5h-395q-6 0 -9.5 0.5t-10.5 2t-9 4.5t-5 9t1 16z" />
    <glyph glyph-name="edotaccent" unicode="&#x117;" 
d="M307 584q0 23 17 40.5t39 17.5q18 0 31.5 -13.5t13.5 -34.5q0 -23 -17.5 -40t-39.5 -17q-19 0 -31.5 13.5t-12.5 33.5zM67 173q1 74 39 140.5t97.5 105.5t120.5 39q53 0 88.5 -30.5t34.5 -78.5q-1 -57 -43 -96q-27 -24 -71.5 -37t-79 -15.5t-90.5 -2.5h-24q-2 -2 -2 -27
q0 -19 4 -37t13.5 -35.5t29 -28.5t46.5 -11h2q56 0 93.5 8.5t50.5 19t24.5 19t21.5 8.5q12 0 23.5 -12.5t11.5 -24.5q0 -19 -30 -39.5t-64 -30.5q-46 -12 -130 -12q-39 0 -69 12t-48 30.5t-29.5 43t-15.5 47t-4 45.5zM158 262q24 0 38.5 0.5t40 2t42.5 5t37 9.5t32 15
t20.5 22.5t8.5 31.5q0 20 -15 32.5t-40 12.5q-47 0 -93.5 -37.5t-70.5 -93.5z" />
    <glyph glyph-name="Eogonek" unicode="&#x118;" 
d="M85 -122q0 33 24 61.5t51.5 44t65.5 34t51 27.5q20 14 28 14q11 0 19.5 -8.5t7.5 -21.5q0 -15 -22 -32t-49.5 -30t-57.5 -33t-42 -40q-3 -5 -3 -13q-1 -5 6.5 -9.5t19.5 -4.5q20 0 39.5 11t32 24.5t25.5 24.5t21 11q11 0 21 -9.5t10 -23t-22 -38.5t-60.5 -47t-75.5 -22
q-39 0 -65 22.5t-25 57.5zM22 32q4 14 13.5 22t16.5 9t19 1h30l128 514h-30h-9.5t-10.5 1.5t-9 5t-5 9.5t2 16q7 32 48 32h373q25 0 31 -9.5t-1 -34.5l-20 -76q-2 -11 -4 -16.5t-7 -13t-13.5 -10.5t-20.5 -3t-19 3.5t-7.5 11t0 13t2.5 15.5l14 56h-245l-53 -214h131
q9 37 17.5 48.5t32.5 11.5q12 0 18.5 -3.5t7.5 -11t0.5 -13t-3.5 -15.5l-24 -97q-3 -11 -5 -16.5t-6.5 -13t-13 -11t-20.5 -3.5q-24 0 -27 14t7 46h-131l-59 -236h267l18 72q3 11 5 16.5t6.5 13t13 11t21.5 3.5q12 0 18.5 -3.5t7.5 -11t0.5 -13t-3.5 -16.5l-23 -93
q-7 -26 -17 -34.5t-34 -8.5h-395q-6 0 -9.5 0.5t-10.5 2t-9 4.5t-5 9t1 16z" />
    <glyph glyph-name="eogonek" unicode="&#x119;" 
d="M67 -122q0 33 24 61.5t51.5 44t65.5 34t51 27.5q20 14 28 14q11 0 19.5 -8.5t7.5 -21.5q0 -15 -22 -32t-49.5 -30t-57.5 -33t-42 -40q-3 -5 -3 -13q-1 -5 6.5 -9.5t19.5 -4.5q20 0 39.5 11t32 24.5t25.5 24.5t21 11q11 0 21 -9.5t10 -23t-22 -38.5t-60.5 -47t-75.5 -22
q-39 0 -65 22.5t-25 57.5zM67 173q1 74 39 140.5t97.5 105.5t120.5 39q53 0 88.5 -30.5t34.5 -78.5q-1 -57 -43 -96q-27 -24 -71.5 -37t-79 -15.5t-90.5 -2.5h-24q-2 -2 -2 -27q0 -19 4 -37t13.5 -35.5t29 -28.5t46.5 -11h2q56 0 93.5 8.5t50.5 19t24.5 19t21.5 8.5
q12 0 23.5 -12.5t11.5 -24.5q0 -19 -30 -39.5t-64 -30.5q-46 -12 -130 -12q-39 0 -69 12t-48 30.5t-29.5 43t-15.5 47t-4 45.5zM158 262q24 0 38.5 0.5t40 2t42.5 5t37 9.5t32 15t20.5 22.5t8.5 31.5q0 20 -15 32.5t-40 12.5q-47 0 -93.5 -37.5t-70.5 -93.5z" />
    <glyph glyph-name="Ecaron" unicode="&#x11a;" 
d="M305 814q0 12 9 21t21 9h3q5 0 11 -4.5t26 -27t52 -65.5q36 27 81 61q34 26 42 31t16 5q11 0 20 -9t9 -21q-1 -16 -20 -31q-69 -56 -101.5 -81t-40 -29.5t-13.5 -4.5q-7 0 -11.5 2.5t-12 11t-14 18t-22.5 31t-33 42.5q-22 30 -22 41zM22 32q4 14 13.5 22t16.5 9t19 1h30
l128 514h-30h-9.5t-10.5 1.5t-9 5t-5 9.5t2 16q7 32 48 32h373q25 0 31 -9.5t-1 -34.5l-20 -76q-2 -11 -4 -16.5t-7 -13t-13.5 -10.5t-20.5 -3t-19 3.5t-7.5 11t0 13t2.5 15.5l14 56h-245l-53 -214h131q9 37 17.5 48.5t32.5 11.5q12 0 18.5 -3.5t7.5 -11t0.5 -13t-3.5 -15.5
l-24 -97q-3 -11 -5 -16.5t-6.5 -13t-13 -11t-20.5 -3.5q-24 0 -27 14t7 46h-131l-59 -236h267l18 72q3 11 5 16.5t6.5 13t13 11t21.5 3.5q12 0 18.5 -3.5t7.5 -11t0.5 -13t-3.5 -16.5l-23 -93q-7 -26 -17 -34.5t-34 -8.5h-395q-6 0 -9.5 0.5t-10.5 2t-9 4.5t-5 9t1 16z" />
    <glyph glyph-name="ecaron" unicode="&#x11b;" 
d="M219 639q0 12 8.5 22t20.5 10q9 0 19.5 -8.5t43.5 -42.5l33 -33q24 15 57.5 38.5t51.5 34.5t26 11q11 0 20 -9t9 -22q-1 -16 -21 -31q-32 -23 -75 -54q-47 -34 -57 -40.5t-18 -6.5q-12 0 -26 15q-15 18 -39 44q-38 42 -45.5 52.5t-7.5 19.5zM67 173q1 74 39 140.5
t97.5 105.5t120.5 39q53 0 88.5 -30.5t34.5 -78.5q-1 -57 -43 -96q-27 -24 -71.5 -37t-79 -15.5t-90.5 -2.5h-24q-2 -2 -2 -27q0 -19 4 -37t13.5 -35.5t29 -28.5t46.5 -11h2q56 0 93.5 8.5t50.5 19t24.5 19t21.5 8.5q12 0 23.5 -12.5t11.5 -24.5q0 -19 -30 -39.5t-64 -30.5
q-46 -12 -130 -12q-39 0 -69 12t-48 30.5t-29.5 43t-15.5 47t-4 45.5zM158 262q24 0 38.5 0.5t40 2t42.5 5t37 9.5t32 15t20.5 22.5t8.5 31.5q0 20 -15 32.5t-40 12.5q-47 0 -93.5 -37.5t-70.5 -93.5z" />
    <glyph glyph-name="Gcircumflex" unicode="&#x11c;" 
d="M269 733q0 12 9 20t57 39q46 29 80 51q24 16 30.5 19t12.5 3q4 0 7 -0.5t7 -3t7 -5.5t9.5 -9t12 -11t16 -15.5t20.5 -19.5q43 -41 50.5 -49.5t7.5 -18.5q0 -14 -13.5 -27.5t-26.5 -13.5q-9 0 -20.5 10.5t-54.5 56.5q-18 18 -29 30q-15 -11 -41 -29q-73 -51 -87 -59.5
t-22 -8.5q-14 0 -23 14t-9 27zM106 321q35 141 125 236.5t181 95.5q65 0 106 -47q19 29 28.5 38t23.5 9q20 0 23 -15t-3 -28l-37 -146q-3 -10 -5 -15.5t-6.5 -13t-13 -11t-21.5 -3.5q-18 0 -23 7.5t-3 23.5q4 40 -2.5 68.5t-20.5 42.5t-28.5 20t-29.5 6q-61 0 -128.5 -76.5
t-96.5 -192.5q-28 -113 0 -190.5t90 -77.5q43 0 84.5 42t71.5 125h-42q-7 0 -10.5 0.5t-10 2t-8 5t-4.5 9.5t1 16q4 14 13.5 22t16.5 9t18 1h119q6 0 9.5 -0.5t10.5 -2t9 -5t5 -9.5t-1 -15q-4 -15 -13.5 -22.5t-17.5 -9t-24 -1.5l-44 -176q-3 -10 -5 -15.5t-6.5 -13t-13 -11
t-20.5 -3.5q-23 0 -27 13.5t3 30.5q-24 -22 -59 -39t-74 -17q-59 0 -99.5 43.5t-51.5 117.5t11 172z" />
    <glyph glyph-name="gcircumflex" unicode="&#x11d;" 
d="M195.5 553.5q0.5 13.5 11.5 22t75 46.5q46 27 78 46q14 8 22 8h1q7 0 15 -5.5t46 -37.5q34 -29 58 -49q19 -17 19 -31q-1 -13 -13.5 -27t-26.5 -14q-8 0 -15 5.5t-39 35.5q-30 27 -52 48l-116 -75q-23 -14 -32 -14q-14 0 -23 14t-8.5 27.5zM23 -172q0 22 14 38.5t36 16.5
q17 0 28.5 -11.5t11.5 -31.5q0 -8 -1 -12q30 -2 46 -2q94 0 136 77q9 15 36 135q-54 -38 -103 -38q-59 0 -95.5 47t-35.5 120q1 70 33.5 137.5t86.5 110.5t110 43q57 0 98 -48q3 13 13 22.5t24 9.5t23.5 -9t9.5 -25l-3 -18l-112 -448q-11 -43 -17 -58q-24 -51 -77.5 -87
t-122.5 -36q-1 0 -2.5 0.5t-2.5 0.5q-20 0 -34 0.5t-35 4t-33.5 10t-22 19.5t-9.5 32zM166 165q-1 -45 16.5 -72.5t46.5 -27.5q35 0 72 33t62 86.5t25 108.5q1 46 -16.5 73t-46.5 27q-35 0 -71.5 -32.5t-61.5 -86.5t-26 -109z" />
    <glyph glyph-name="Gbreve" unicode="&#x11e;" 
d="M276 806q0 54 33 54q16 0 23.5 -9.5t7.5 -19.5q0 -4 -1 -11.5t-1 -11.5q-1 -24 25.5 -40t65.5 -16q44 0 85 21t55 59l1 3t2.5 6t4 6.5t5.5 6t8 4.5t11 2q13 0 22 -8.5t9 -21.5q0 -17 -13.5 -40t-37 -47.5t-64.5 -41t-90 -16.5q-68 0 -110 33.5t-41 87.5zM106 321
q35 141 125 236.5t181 95.5q65 0 106 -47q19 29 28.5 38t23.5 9q20 0 23 -15t-3 -28l-37 -146q-3 -10 -5 -15.5t-6.5 -13t-13 -11t-21.5 -3.5q-18 0 -23 7.5t-3 23.5q4 40 -2.5 68.5t-20.5 42.5t-28.5 20t-29.5 6q-61 0 -128.5 -76.5t-96.5 -192.5q-28 -113 0 -190.5
t90 -77.5q43 0 84.5 42t71.5 125h-42q-7 0 -10.5 0.5t-10 2t-8 5t-4.5 9.5t1 16q4 14 13.5 22t16.5 9t18 1h119q6 0 9.5 -0.5t10.5 -2t9 -5t5 -9.5t-1 -15q-4 -15 -13.5 -22.5t-17.5 -9t-24 -1.5l-44 -176q-3 -10 -5 -15.5t-6.5 -13t-13 -11t-20.5 -3.5q-23 0 -27 13.5
t3 30.5q-24 -22 -59 -39t-74 -17q-59 0 -99.5 43.5t-51.5 117.5t11 172z" />
    <glyph glyph-name="gbreve" unicode="&#x11f;" 
d="M200 624q1 47 34 47q13 0 21.5 -8t8.5 -21q0 -3 -1 -8t-1 -7q0 -20 30 -28t67 -8q47 0 76 8t40 20t17 23.5t13 19.5t21 8q12 0 21 -8t9 -22q0 -8 -4.5 -20.5t-18.5 -30t-34.5 -32t-57.5 -24.5t-84 -10q-46 0 -79 9.5t-48.5 26t-22.5 32.5t-7 33zM23 -172q0 22 14 38.5
t36 16.5q17 0 28.5 -11.5t11.5 -31.5q0 -8 -1 -12q30 -2 46 -2q94 0 136 77q9 15 36 135q-54 -38 -103 -38q-59 0 -95.5 47t-35.5 120q1 70 33.5 137.5t86.5 110.5t110 43q57 0 98 -48q3 13 13 22.5t24 9.5t23.5 -9t9.5 -25l-3 -18l-112 -448q-11 -43 -17 -58
q-24 -51 -77.5 -87t-122.5 -36q-1 0 -2.5 0.5t-2.5 0.5q-20 0 -34 0.5t-35 4t-33.5 10t-22 19.5t-9.5 32zM166 165q-1 -45 16.5 -72.5t46.5 -27.5q35 0 72 33t62 86.5t25 108.5q1 46 -16.5 73t-46.5 27q-35 0 -71.5 -32.5t-61.5 -86.5t-26 -109z" />
    <glyph glyph-name="Gdotaccent" unicode="&#x120;" 
d="M388 753q0 23 17.5 40.5t38.5 17.5q18 0 31.5 -13.5t13.5 -34.5q0 -22 -17 -39.5t-40 -17.5q-19 0 -31.5 13.5t-12.5 33.5zM106 321q35 141 125 236.5t181 95.5q65 0 106 -47q19 29 28.5 38t23.5 9q20 0 23 -15t-3 -28l-37 -146q-3 -10 -5 -15.5t-6.5 -13t-13 -11
t-21.5 -3.5q-18 0 -23 7.5t-3 23.5q4 40 -2.5 68.5t-20.5 42.5t-28.5 20t-29.5 6q-61 0 -128.5 -76.5t-96.5 -192.5q-28 -113 0 -190.5t90 -77.5q43 0 84.5 42t71.5 125h-42q-7 0 -10.5 0.5t-10 2t-8 5t-4.5 9.5t1 16q4 14 13.5 22t16.5 9t18 1h119q6 0 9.5 -0.5t10.5 -2
t9 -5t5 -9.5t-1 -15q-4 -15 -13.5 -22.5t-17.5 -9t-24 -1.5l-44 -176q-3 -10 -5 -15.5t-6.5 -13t-13 -11t-20.5 -3.5q-23 0 -27 13.5t3 30.5q-24 -22 -59 -39t-74 -17q-59 0 -99.5 43.5t-51.5 117.5t11 172z" />
    <glyph glyph-name="gdotaccent" unicode="&#x121;" 
d="M316 584q0 23 17 40.5t39 17.5q18 0 31.5 -13.5t13.5 -34.5q0 -23 -17.5 -40t-39.5 -17q-19 0 -31.5 13.5t-12.5 33.5zM23 -172q0 22 14 38.5t36 16.5q17 0 28.5 -11.5t11.5 -31.5q0 -8 -1 -12q30 -2 46 -2q94 0 136 77q9 15 36 135q-54 -38 -103 -38q-59 0 -95.5 47
t-35.5 120q1 70 33.5 137.5t86.5 110.5t110 43q57 0 98 -48q3 13 13 22.5t24 9.5t23.5 -9t9.5 -25l-3 -18l-112 -448q-11 -43 -17 -58q-24 -51 -77.5 -87t-122.5 -36q-1 0 -2.5 0.5t-2.5 0.5q-20 0 -34 0.5t-35 4t-33.5 10t-22 19.5t-9.5 32zM166 165q-1 -45 16.5 -72.5
t46.5 -27.5q35 0 72 33t62 86.5t25 108.5q1 46 -16.5 73t-46.5 27q-35 0 -71.5 -32.5t-61.5 -86.5t-26 -109z" />
    <glyph glyph-name="Hcircumflex" unicode="&#x124;" 
d="M271 733q0 12 9 20t57 39q46 29 80 51q24 16 30.5 19t12.5 3q4 0 7 -0.5t7 -3t7 -5.5t9.5 -9t12 -11t16 -15.5t20.5 -19.5q43 -41 50.5 -49.5t7.5 -18.5q0 -14 -13.5 -27.5t-26.5 -13.5q-9 0 -20.5 10.5t-54.5 56.5q-18 18 -29 30q-15 -11 -41 -29q-73 -51 -87 -59.5
t-22 -8.5q-14 0 -23 14t-9 27zM18 32q4 14 13.5 22t16 9t18.5 1h25l128 514h-25h-9.5t-10 1.5t-8.5 5t-5 9.5t1 15q4 15 13.5 22.5t16.5 9t18 1.5h119q7 0 10.5 -0.5t10.5 -2t8.5 -5t4 -9.5t-1.5 -16q-3 -14 -13 -22t-16.5 -8.5t-18.5 -0.5h-25l-53 -213h212l53 213h-25
h-9.5t-10.5 1.5t-8.5 5t-4.5 9.5t2 16q3 15 12.5 22.5t16.5 8.5t18 1h119q7 0 10.5 -0.5t10.5 -2t8.5 -5t4 -9.5t-1.5 -16q-3 -14 -13 -22t-16.5 -8.5t-18.5 -0.5h-25l-128 -514h25h10.5t10 -2t8 -5t4.5 -9.5t-1 -15.5q-4 -15 -13.5 -22.5t-16.5 -8.5t-18 -1h-119
q-7 0 -10.5 0.5t-10 2t-8 4.5t-4.5 9.5t1 16.5q4 14 13.5 21.5t16.5 8.5t18 1h25l59 237h-212l-59 -237h25h10.5t10 -2t8 -5t4.5 -9.5t-1 -15.5q-4 -15 -13.5 -22.5t-16.5 -8.5t-18 -1h-119q-6 0 -9.5 0.5t-10.5 2t-8.5 4.5l-4.5 9t1 16z" />
    <glyph glyph-name="hcircumflex" unicode="&#x125;" 
d="M216.5 737.5q0.5 13.5 11.5 22t75 46.5q46 27 78 46q14 8 22 8h1q7 0 15 -5.5t46 -37.5q34 -29 58 -49q19 -17 19 -31q-1 -13 -13.5 -27t-26.5 -14q-8 0 -15 5.5t-39 35.5q-30 27 -52 48l-116 -75q-23 -14 -32 -14q-14 0 -23 14t-8.5 27.5zM46 29q0 7 6 31l115 459
q4 14 14 57h-43q-22 0 -29 6q-13 9 -13 25q0 7 2 13.5t11.5 14t24.5 7.5h87q1 0 4 -0.5t9.5 -2t12 -4t9.5 -9t4 -15.5q0 -6 -47 -195q50 42 113 42q51 0 80 -30t28 -83q0 -36 -18 -95.5t-35.5 -108.5t-17.5 -60q0 -21 13 -21q16 0 32 19q13 16 21.5 36t11.5 33.5t11 23
t23 9.5h4q14 0 22 -6.5t10 -12t2 -12.5q0 -12 -9.5 -36t-26 -51.5t-45 -47.5t-60.5 -20q-36 0 -57.5 25t-21.5 62q0 21 35.5 122.5t35.5 140.5q1 49 -40 49t-76 -34.5t-57 -87.5t-37.5 -104t-26.5 -96.5t-15 -53.5q-11 -23 -33 -23q-14 0 -23.5 10t-9.5 24z" />
    <glyph glyph-name="Itilde" unicode="&#x128;" 
d="M236 757q0 7 3 12.5t6.5 9t11.5 12.5q74 69 128 69q22 0 42.5 -10.5t33 -23t28 -22.5t27.5 -10q20 0 43.5 16t42.5 32.5t29 16.5q11 0 20.5 -10t9.5 -23q0 -4 -1.5 -8t-4 -8t-4 -6t-6 -6l-4.5 -4q-72 -70 -129 -70q-23 0 -43.5 10.5t-33 22.5t-27.5 22.5t-28 10.5
q-19 0 -42.5 -16.5t-42.5 -33t-28 -16.5q-12 0 -21.5 10t-9.5 23zM75 33q8 31 49 31h108l128 514h-108h-9.5t-10.5 1.5t-9 5t-5 9.5t2 16q7 32 48 32h285q7 0 10.5 -0.5t10.5 -2t8.5 -5t4.5 -9.5t-1 -16q-8 -31 -49 -31h-108l-128 -514h108h9.5t10.5 -2t9 -5t5 -9.5
t-1 -15.5q-8 -32 -49 -32h-285q-6 0 -9.5 0.5t-10.5 2t-9 4.5t-5 9.5t1 16.5z" />
    <glyph glyph-name="itilde" unicode="&#x129;" 
d="M184 549q0 15 17 29q24 18 36.5 27t40.5 23t48 14q18 0 32.5 -9t22 -19.5t16 -19.5t15.5 -9q17 0 56.5 28.5t49.5 28.5t19 -10t9 -24q0 -15 -16 -28q-80 -64 -126 -64q-20 0 -34 8.5t-20.5 19t-15 19t-17.5 8.5q-17 0 -56 -27.5t-47 -27.5q-12 0 -21.5 9.5t-8.5 23.5z
M104 302q1 20 13.5 45.5t32.5 50.5t50.5 42.5t63.5 17.5q41 0 69.5 -26t27.5 -67v-6q0 -17 -49.5 -139.5t-49.5 -133.5q0 -12 8 -19t21 -7q25 0 50 25.5t37 60.5l1.5 5t2 6t2 5.5t3 6l4.5 4.5t6 4t8 2.5t10 1.5q14 0 24.5 -7.5t10.5 -23.5q0 -15 -11.5 -39.5t-31 -51
t-51.5 -45.5t-67 -19q-39 0 -68 25t-29 66q0 26 49 146t49 134q1 12 -7.5 19.5t-20.5 7.5q-28 0 -51.5 -26t-34.5 -60q-1 -2 -3 -8.5t-3 -8.5t-4 -6.5t-6.5 -6.5t-9 -3.5t-13.5 -1.5q-34 0 -33 30z" />
    <glyph glyph-name="Imacron" unicode="&#x12a;" 
d="M189 804q0 7 2 14t11 15t24 8h457q18 -1 24.5 -10t6.5 -20q0 -7 -1.5 -14t-10 -14.5t-22.5 -7.5h-457q-34 0 -34 29zM75 33q8 31 49 31h108l128 514h-108h-9.5t-10.5 1.5t-9 5t-5 9.5t2 16q7 32 48 32h285q7 0 10.5 -0.5t10.5 -2t8.5 -5t4.5 -9.5t-1 -16q-8 -31 -49 -31
h-108l-128 -514h108h9.5t10.5 -2t9 -5t5 -9.5t-1 -15.5q-8 -32 -49 -32h-285q-6 0 -9.5 0.5t-10.5 2t-9 4.5t-5 9.5t1 16.5z" />
    <glyph glyph-name="imacron" unicode="&#x12b;" 
d="M104 302q1 20 13.5 45.5t32.5 50.5t50.5 42.5t63.5 17.5q41 0 69.5 -26t27.5 -67v-6q0 -17 -49.5 -139.5t-49.5 -133.5q0 -12 8 -19t21 -7q25 0 50 25.5t37 60.5l1.5 5t2 6t2 5.5t3 6l4.5 4.5t6 4t8 2.5t10 1.5q14 0 24.5 -7.5t10.5 -23.5q0 -15 -11.5 -39.5t-31 -51
t-51.5 -45.5t-67 -19q-39 0 -68 25t-29 66q0 26 49 146t49 134q1 12 -7.5 19.5t-20.5 7.5q-28 0 -51.5 -26t-34.5 -60q-1 -2 -3 -8.5t-3 -8.5t-4 -6.5t-6.5 -6.5t-9 -3.5t-13.5 -1.5q-34 0 -33 30zM205 575q0 8 2 14.5t11 14t24 7.5h246q37 0 36 -30q0 -36 -36 -36h-249
q-14 0 -22 6t-10 12t-2 12z" />
    <glyph glyph-name="Ibreve" unicode="&#x12c;" 
d="M278 806q0 54 33 54q16 0 23.5 -9.5t7.5 -19.5q0 -4 -1 -11.5t-1 -11.5q-1 -24 25.5 -40t65.5 -16q44 0 85 21t55 59l1 3t2.5 6t4 6.5t5.5 6t8 4.5t11 2q13 0 22 -8.5t9 -21.5q0 -17 -13.5 -40t-37 -47.5t-64.5 -41t-90 -16.5q-68 0 -110 33.5t-41 87.5zM75 33
q8 31 49 31h108l128 514h-108h-9.5t-10.5 1.5t-9 5t-5 9.5t2 16q7 32 48 32h285q7 0 10.5 -0.5t10.5 -2t8.5 -5t4.5 -9.5t-1 -16q-8 -31 -49 -31h-108l-128 -514h108h9.5t10.5 -2t9 -5t5 -9.5t-1 -15.5q-8 -32 -49 -32h-285q-6 0 -9.5 0.5t-10.5 2t-9 4.5t-5 9.5t1 16.5z
" />
    <glyph glyph-name="ibreve" unicode="&#x12d;" 
d="M201 624q1 47 34 47q13 0 21.5 -8t8.5 -21q0 -3 -1 -8t-1 -7q0 -20 30 -28t67 -8q47 0 76 8t40 20t17 23.5t13 19.5t21 8q12 0 21 -8t9 -22q0 -8 -4.5 -20.5t-18.5 -30t-34.5 -32t-57.5 -24.5t-84 -10q-46 0 -79 9.5t-48.5 26t-22.5 32.5t-7 33zM104 302q1 20 13.5 45.5
t32.5 50.5t50.5 42.5t63.5 17.5q41 0 69.5 -26t27.5 -67v-6q0 -17 -49.5 -139.5t-49.5 -133.5q0 -12 8 -19t21 -7q25 0 50 25.5t37 60.5l1.5 5t2 6t2 5.5t3 6l4.5 4.5t6 4t8 2.5t10 1.5q14 0 24.5 -7.5t10.5 -23.5q0 -15 -11.5 -39.5t-31 -51t-51.5 -45.5t-67 -19
q-39 0 -68 25t-29 66q0 26 49 146t49 134q1 12 -7.5 19.5t-20.5 7.5q-28 0 -51.5 -26t-34.5 -60q-1 -2 -3 -8.5t-3 -8.5t-4 -6.5t-6.5 -6.5t-9 -3.5t-13.5 -1.5q-34 0 -33 30z" />
    <glyph glyph-name="Idotaccent" unicode="&#x130;" 
d="M390 753q0 23 17.5 40.5t38.5 17.5q18 0 31.5 -13.5t13.5 -34.5q0 -22 -17 -39.5t-40 -17.5q-19 0 -31.5 13.5t-12.5 33.5zM75 33q8 31 49 31h108l128 514h-108h-9.5t-10.5 1.5t-9 5t-5 9.5t2 16q7 32 48 32h285q7 0 10.5 -0.5t10.5 -2t8.5 -5t4.5 -9.5t-1 -16
q-8 -31 -49 -31h-108l-128 -514h108h9.5t10.5 -2t9 -5t5 -9.5t-1 -15.5q-8 -32 -49 -32h-285q-6 0 -9.5 0.5t-10.5 2t-9 4.5t-5 9.5t1 16.5z" />
    <glyph glyph-name="dotlessi" unicode="&#x131;" 
d="M104 302q1 20 13.5 45.5t32.5 50.5t50.5 42.5t63.5 17.5q41 0 69.5 -26t27.5 -67v-6q0 -17 -49.5 -139.5t-49.5 -133.5q0 -12 8 -19t21 -7q25 0 50 25.5t37 60.5l1.5 5t2 6t2 5.5t3 6l4.5 4.5t6 4t8 2.5t10 1.5q14 0 24.5 -7.5t10.5 -23.5q0 -15 -11.5 -39.5t-31 -51
t-51.5 -45.5t-67 -19q-39 0 -68 25t-29 66q0 26 49 146t49 134q1 12 -7.5 19.5t-20.5 7.5q-28 0 -51.5 -26t-34.5 -60q-1 -2 -3 -8.5t-3 -8.5t-4 -6.5t-6.5 -6.5t-9 -3.5t-13.5 -1.5q-34 0 -33 30z" />
    <glyph glyph-name="IJ" unicode="&#x132;" 
d="M11 30q1 35 38 35h20l127 511h-4q-37 0 -37 31q1 35 37 35h100q13 0 21.5 -6.5t10 -12t1.5 -12.5q0 -35 -37 -35h-20l-128 -511h5q37 0 36 -30q0 -8 -2 -15t-11 -13.5t-24 -6.5h-99q-34 0 -34 30zM192 84q0 39 16.5 54t35.5 15q17 0 29 -11.5t11 -30.5q0 -22 -21 -42
q6 -14 17 -15q19 0 38.5 27t28.5 62l108 433h-17q-36 0 -36 31q0 7 2 13.5t11 14t24 7.5h98q18 0 25.5 -9.5t7.5 -21.5q0 -35 -38 -35h-5q-2 -6 -5 -20t-5 -20l-99 -396q-18 -72 -57.5 -112t-82.5 -40q-39 0 -62.5 28t-23.5 68z" />
    <glyph glyph-name="ij" unicode="&#x133;" 
d="M41 301q0 11 8 34.5t22.5 52t42 49.5t58.5 21q34 0 54.5 -24t19.5 -61v-8q0 -17 -45.5 -145.5t-45.5 -142.5q0 -8 3 -17q20 0 35 21q14 21 21.5 48.5t15 39.5t29.5 12h1q32 0 32 -30q0 -12 -9 -36t-24 -52t-42 -48t-58 -20q-33 0 -53 23.5t-20 61.5v7q0 17 45.5 145
t45.5 144q1 7 -2 17q-20 0 -36 -22q-14 -22 -21.5 -49t-15 -38.5t-30.5 -11.5q-13 0 -21 7t-9 12t-1 10zM156 -173q0 24 15 40t35 16q17 0 29 -11.5t12 -31.5q0 -7 -1 -11l11 6l17 14q15 18 22 29t17 36.5t20 63.5l91 364q3 14 3 26q1 25 -15 25q-14 -1 -27.5 -11t-23.5 -25
t-17 -29t-12 -27t-6 -13q-8 -16 -30 -16q-36 0 -35 29q0 10 10.5 34t29 52.5t49.5 49.5t64 21q38 0 61 -26.5t22 -68.5q0 -13 -6 -43l-90 -360q-13 -51 -32.5 -89.5t-38.5 -58.5t-40.5 -32t-35.5 -15t-27 -3q-31 0 -51 17.5t-20 47.5zM214 591q0 21 15.5 36t33.5 15
q17 0 28.5 -12t11.5 -30q0 -21 -15 -36.5t-33 -15.5q-16 0 -28.5 12.5t-12.5 30.5zM469 591q0 20 14.5 35.5t34.5 15.5q15 0 27.5 -12t12.5 -30q0 -21 -15 -36.5t-33 -15.5q-17 0 -29 12.5t-12 30.5z" />
    <glyph glyph-name="Jcircumflex" unicode="&#x134;" 
d="M381 733q0 12 9 20t57 39q46 29 80 51q24 16 30.5 19t12.5 3q4 0 7 -0.5t7 -3t7 -5.5t9.5 -9t12 -11t16 -15.5t20.5 -19.5q43 -41 50.5 -49.5t7.5 -18.5q0 -14 -13.5 -27.5t-26.5 -13.5q-9 0 -20.5 10.5t-54.5 56.5q-18 18 -29 30q-15 -11 -41 -29q-73 -51 -87 -59.5
t-22 -8.5q-14 0 -23 14t-9 27zM85 104q6 24 22.5 36.5t35 12.5t28 -13.5t4.5 -32.5q-4 -17 -15 -27q22 -28 78 -28q12 0 25.5 3t35 11t39 29t25.5 52l107 431h-82h-9.5t-10.5 1.5t-9 5t-5 9.5t2 16q7 32 48 32h181q7 0 10.5 -0.5t10.5 -2t8.5 -5t5 -9.5t-0.5 -15
q-4 -15 -14 -22.5t-17 -8.5t-19 -1h-30l-109 -437q-17 -69 -77.5 -111t-130.5 -42q-74 0 -112 33t-25 83z" />
    <glyph glyph-name="jcircumflex" unicode="&#x135;" 
d="M299.5 553.5q0.5 13.5 11.5 22t75 46.5q46 27 78 46q14 8 22 8h1q7 0 15 -5.5t46 -37.5q34 -29 58 -49q19 -17 19 -31q-1 -13 -13.5 -27t-26.5 -14q-8 0 -15 5.5t-39 35.5q-30 27 -52 48l-116 -75q-23 -14 -32 -14q-14 0 -23 14t-8.5 27.5zM46 -172q0 23 14.5 39t35.5 16
q18 0 29.5 -12t11.5 -30q0 -6 -2 -14q3 0 8.5 -0.5t8.5 -0.5q13 0 27 4.5t33.5 18.5t38 47.5t31.5 82.5l90 360q3 10 3 20q0 15 -9.5 24.5t-25.5 9.5q-31 0 -62 -27.5t-48 -65.5l-2 -4.5t-3 -6t-3.5 -5.5t-6 -6.5t-8.5 -4t-12 -1.5h-4q-29 0 -32 24q-2 16 12 42.5t37.5 53.5
t60 46.5t73.5 19.5q45 0 74.5 -28t28.5 -72q0 -13 -4 -34l-90 -359q-14 -54 -37.5 -95t-51 -64t-56 -33.5t-56.5 -10.5q-60 0 -82 19.5t-22 46.5z" />
    <glyph glyph-name="Lacute" unicode="&#x139;" 
d="M375 761q0 14 7.5 21t21.5 13q34 13 78 31q53 21 60 21q14 0 23.5 -10.5t9.5 -23.5q0 -10 -3.5 -17.5t-13 -13.5t-14 -8t-20.5 -9l-36 -14t-28 -11t-19.5 -8t-14.5 -6t-9.5 -3.5t-7 -2t-4.5 -0.5q-16 0 -23 13t-7 28zM28 32q4 14 13.5 22t16 9t18.5 1h37l128 514h-37
h-9.5t-10 1.5t-8.5 5t-5 9.5t1 15q4 15 13.5 22.5t16.5 9t18 1.5h162q7 0 10.5 -0.5t10.5 -2t8.5 -5t4.5 -9.5t-1 -16q-8 -31 -49 -31h-56l-128 -514h241l18 72q3 11 5 16.5t7 13t13 11t21 3.5q23 0 26.5 -14t-3.5 -30l-23 -93q-7 -26 -17 -34.5t-34 -8.5h-376
q-6 0 -9.5 0.5t-10.5 2t-8.5 4.5l-4.5 9t1 16z" />
    <glyph glyph-name="lacute" unicode="&#x13a;" 
d="M325 758q0 9 6 16.5t9 9t12 6.5q20 10 51 25q78 40 88 40q13 0 22.5 -10t10.5 -25q-1 -25 -30 -39t-69 -35q-61 -31 -69 -31q-16 0 -23.5 15t-7.5 28zM160 607q1 35 39 35h137q35 0 34 -31q0 -4 -2 -15l-121 -485q-2 -12 -2 -15q0 -8 7 -20q24 -17 46 -17q12 0 22.5 7
t18 17.5t14 23.5t10 23.5t6.5 20t3 10.5q9 20 33 20h3q17 0 24 -10t7 -21q0 -10 -9 -33.5t-25 -52t-45 -49t-63 -20.5q-52 0 -87.5 27.5t-35.5 71.5q0 9 2 18.5t5.5 23t4.5 16.5l106 424h-96q-36 0 -36 31z" />
    <glyph glyph-name="Lcaron" unicode="&#x13d;" 
d="M301 814q0 12 9 21t21 9h3q5 0 11 -4.5t26 -27t52 -65.5q36 27 81 61q34 26 42 31t16 5q11 0 20 -9t9 -21q-1 -16 -20 -31q-69 -56 -101.5 -81t-40 -29.5t-13.5 -4.5q-7 0 -11.5 2.5t-12 11t-14 18t-22.5 31t-33 42.5q-22 30 -22 41zM28 32q4 14 13.5 22t16 9t18.5 1h37
l128 514h-37h-9.5t-10 1.5t-8.5 5t-5 9.5t1 15q4 15 13.5 22.5t16.5 9t18 1.5h162q7 0 10.5 -0.5t10.5 -2t8.5 -5t4.5 -9.5t-1 -16q-8 -31 -49 -31h-56l-128 -514h241l18 72q3 11 5 16.5t7 13t13 11t21 3.5q23 0 26.5 -14t-3.5 -30l-23 -93q-7 -26 -17 -34.5t-34 -8.5h-376
q-6 0 -9.5 0.5t-10.5 2t-8.5 4.5l-4.5 9t1 16z" />
    <glyph glyph-name="lcaron" unicode="&#x13e;" 
d="M238 823q0 12 8.5 22t20.5 10q9 0 19.5 -8.5t43.5 -42.5l33 -33q24 15 57.5 38.5t51.5 34.5t26 11q11 0 20 -9t9 -22q-1 -16 -21 -31q-32 -23 -75 -54q-47 -34 -57 -40.5t-18 -6.5q-12 0 -26 15q-15 18 -39 44q-38 42 -45.5 52.5t-7.5 19.5zM160 607q1 35 39 35h137
q35 0 34 -31q0 -4 -2 -15l-121 -485q-2 -12 -2 -15q0 -8 7 -20q24 -17 46 -17q12 0 22.5 7t18 17.5t14 23.5t10 23.5t6.5 20t3 10.5q9 20 33 20h3q17 0 24 -10t7 -21q0 -10 -9 -33.5t-25 -52t-45 -49t-63 -20.5q-52 0 -87.5 27.5t-35.5 71.5q0 9 2 18.5t5.5 23t4.5 16.5
l106 424h-96q-36 0 -36 31z" />
    <glyph glyph-name="Lslash" unicode="&#x141;" 
d="M28 30q1 35 40 35h33l48 194q-11 -7 -22 -7q-13 0 -21 10.5t-8 23.5q0 3 0.5 5.5t2.5 5.5t3.5 5.5t5.5 5.5t7 5.5t9.5 7t12 8t15 9.5t17.5 12l57 226h-20q-36 0 -36 31q1 35 40 35h141q36 0 35 -31q0 -35 -38 -35h-50l-42 -169q11 8 23 16t19 12.5t14 9.5t11 7.5t8.5 5
t6.5 3.5t4.5 2t4.5 1h5q12 0 20 -10t8 -22q0 -13 -11.5 -23t-73.5 -51q-38 -25 -62 -41l-63 -252h184q8 37 13.5 56.5t9.5 33.5t10 18.5t10.5 6t14.5 1.5q14 0 22.5 -6.5t10 -12t1.5 -11.5t-27 -112q-2 -10 -2.5 -13t-3.5 -10t-6.5 -9t-10 -4.5t-15.5 -2.5h-322
q-18 0 -25.5 10t-7.5 20z" />
    <glyph glyph-name="lslash" unicode="&#x142;" 
d="M104 272q0 13 9.5 21t51.5 35q24 16 40 27q32 22 38 25l48 196h-94q-37 0 -37 31q1 35 39 35h138q18 0 25.5 -9.5t7.5 -21.5q0 -8 -42 -174q15 9 29 18.5t22.5 15.5t17.5 12l13.5 9l9 6t7 4l5 2t4 1h4.5q12 0 20.5 -10.5t8.5 -23.5q0 -7 -4.5 -14t-7 -9t-11.5 -8
q-26 -17 -64 -43q-58 -38 -68 -46t-12 -19q-1 -3 -1 -5q-56 -224 -56 -230q0 -20 18 -29t35 -9q23 0 39.5 23t27 53.5t10.5 31.5q9 14 30 14q14 0 24 -8t10 -22q0 -11 -9 -35t-25 -52t-45 -48.5t-63 -20.5q-48 0 -85.5 26t-37.5 75v5t0.5 5t1.5 6.5t1.5 8t2.5 12.5t4.5 16.5
t6 23.5t7.5 30t9.5 38.5t11.5 47.5q-7 -5 -21 -14q-55 -37 -65 -37t-19.5 10t-9.5 24z" />
    <glyph glyph-name="Nacute" unicode="&#x143;" 
d="M377 761q0 14 7.5 21t21.5 13q34 13 78 31q53 21 60 21q14 0 23.5 -10.5t9.5 -23.5q0 -10 -3.5 -17.5t-13 -13.5t-14 -8t-20.5 -9l-36 -14t-28 -11t-19.5 -8t-14.5 -6t-9.5 -3.5t-7 -2t-4.5 -0.5q-16 0 -23 13t-7 28zM24 33q4 14 13.5 21.5t16.5 8.5t18 1h25l128 514h-25
h-9.5t-10.5 1.5t-8.5 5t-4.5 9.5t2 16q3 15 12.5 22.5t16.5 8.5t18 1h68q23 0 33 -7t12 -31l53 -525h1l124 499h-25h-9.5t-10 1.5t-8.5 5t-5 9.5t1 15q4 15 13.5 22.5t16.5 9t18 1.5h106q7 0 10.5 -0.5t10.5 -2t8.5 -5t4 -9.5t-1.5 -16q-3 -14 -13 -22t-16.5 -8.5
t-18.5 -0.5h-25l-133 -535q-7 -28 -17.5 -35.5t-35.5 -7.5q-16 0 -23.5 1.5t-14 10t-8.5 26.5l-52 525h-1l-125 -499h25h10.5t10 -2t8 -5t4.5 -9.5t-1 -15.5q-4 -15 -13.5 -22.5t-16.5 -8.5t-18 -1h-106q-7 0 -10.5 0.5t-10 2t-8 4.5t-4.5 9.5t1 16.5z" />
    <glyph glyph-name="nacute" unicode="&#x144;" 
d="M315 574q0 9 6 16.5t9 9t12 6.5q20 10 51 25q78 40 88 40q13 0 22.5 -10t10.5 -25q-1 -25 -30 -39t-69 -35q-61 -31 -69 -31q-16 0 -23.5 15t-7.5 28zM41 301q0 3 2.5 17t10 38.5t19 46.5t32.5 38.5t46 16.5q27 0 47.5 -16t29.5 -42q55 58 120 58q46 0 73 -29t26 -81
q0 -45 -35.5 -154t-35.5 -117q0 -9 3 -17q21 0 35.5 22t23.5 52t10 32q9 15 27 15h2q20 0 28 -9.5t8 -21.5q0 -10 -8.5 -33t-23.5 -51.5t-42 -49.5t-59 -21q-34 0 -54 23.5t-20 61.5q0 20 35.5 125t35.5 145q1 43 -31 43q-37 0 -69 -36.5t-53 -90.5t-36.5 -107.5t-26 -97
t-15.5 -49.5q-11 -17 -30 -17q-13 0 -23.5 9.5t-10.5 24.5q0 6 6 25l69 279q6 21 6 33q1 25 -12 25q-17 0 -37 -76q-1 -2 -3 -11t-3.5 -12.5t-5.5 -9t-10 -8t-15 -2.5h-2q-35 0 -34 29z" />
    <glyph glyph-name="Ncaron" unicode="&#x147;" 
d="M303 814q0 12 9 21t21 9h3q5 0 11 -4.5t26 -27t52 -65.5q36 27 81 61q34 26 42 31t16 5q11 0 20 -9t9 -21q-1 -16 -20 -31q-69 -56 -101.5 -81t-40 -29.5t-13.5 -4.5q-7 0 -11.5 2.5t-12 11t-14 18t-22.5 31t-33 42.5q-22 30 -22 41zM24 33q4 14 13.5 21.5t16.5 8.5t18 1
h25l128 514h-25h-9.5t-10.5 1.5t-8.5 5t-4.5 9.5t2 16q3 15 12.5 22.5t16.5 8.5t18 1h68q23 0 33 -7t12 -31l53 -525h1l124 499h-25h-9.5t-10 1.5t-8.5 5t-5 9.5t1 15q4 15 13.5 22.5t16.5 9t18 1.5h106q7 0 10.5 -0.5t10.5 -2t8.5 -5t4 -9.5t-1.5 -16q-3 -14 -13 -22
t-16.5 -8.5t-18.5 -0.5h-25l-133 -535q-7 -28 -17.5 -35.5t-35.5 -7.5q-16 0 -23.5 1.5t-14 10t-8.5 26.5l-52 525h-1l-125 -499h25h10.5t10 -2t8 -5t4.5 -9.5t-1 -15.5q-4 -15 -13.5 -22.5t-16.5 -8.5t-18 -1h-106q-7 0 -10.5 0.5t-10 2t-8 4.5t-4.5 9.5t1 16.5z" />
    <glyph glyph-name="ncaron" unicode="&#x148;" 
d="M228 639q0 12 8.5 22t20.5 10q9 0 19.5 -8.5t43.5 -42.5l33 -33q24 15 57.5 38.5t51.5 34.5t26 11q11 0 20 -9t9 -22q-1 -16 -21 -31q-32 -23 -75 -54q-47 -34 -57 -40.5t-18 -6.5q-12 0 -26 15q-15 18 -39 44q-38 42 -45.5 52.5t-7.5 19.5zM41 301q0 3 2.5 17t10 38.5
t19 46.5t32.5 38.5t46 16.5q27 0 47.5 -16t29.5 -42q55 58 120 58q46 0 73 -29t26 -81q0 -45 -35.5 -154t-35.5 -117q0 -9 3 -17q21 0 35.5 22t23.5 52t10 32q9 15 27 15h2q20 0 28 -9.5t8 -21.5q0 -10 -8.5 -33t-23.5 -51.5t-42 -49.5t-59 -21q-34 0 -54 23.5t-20 61.5
q0 20 35.5 125t35.5 145q1 43 -31 43q-37 0 -69 -36.5t-53 -90.5t-36.5 -107.5t-26 -97t-15.5 -49.5q-11 -17 -30 -17q-13 0 -23.5 9.5t-10.5 24.5q0 6 6 25l69 279q6 21 6 33q1 25 -12 25q-17 0 -37 -76q-1 -2 -3 -11t-3.5 -12.5t-5.5 -9t-10 -8t-15 -2.5h-2q-35 0 -34 29z
" />
    <glyph glyph-name="Eng" unicode="&#x14a;" 
d="M18 30q1 35 39 35h20l128 511h-6q-36 0 -36 31q0 7 2 13.5t10.5 14t23.5 7.5h50q26 0 34 -22q55 40 110 40q60 0 96 -45t35 -120q0 -8 -0.5 -14.5t-1 -13.5t-2.5 -16.5t-3.5 -18.5t-5.5 -25.5t-7.5 -31t-10.5 -41.5t-13 -51t-16 -64.5t-19 -77.5q-12 -47 -32 -80
t-42.5 -47t-39 -20t-29.5 -6q-42 0 -67.5 28t-25.5 69q0 37 16 52.5t36 15.5q19 0 30 -13.5t10 -27.5q0 -24 -20 -42q8 -16 22 -16q13 0 34 19.5t33 56.5q1 5 3.5 16.5t4.5 16.5l64 255q12 48 12 73q0 41 -15.5 68.5t-49.5 27.5q-11 0 -24 -3.5t-32.5 -15.5t-36.5 -31.5
t-34.5 -55t-28.5 -82.5l-84 -334h5q37 0 36 -30q0 -14 -8.5 -24.5t-29.5 -10.5h-99q-20 0 -27.5 9.5t-7.5 20.5z" />
    <glyph glyph-name="eng" unicode="&#x14b;" 
d="M41 301q0 3 2.5 17t10 38.5t19 46.5t32.5 38.5t46 16.5q27 0 47.5 -16t29.5 -42q54 58 119 58q45 0 73 -29t27 -81q0 -32 -13.5 -81.5t-33 -106t-24.5 -77.5q-1 -3 -2 -9q-11 -41 -17 -62.5t-17.5 -60t-21 -60.5t-24 -50t-28.5 -43t-33 -25.5t-40 -10.5q-33 0 -58.5 18
t-25.5 52q0 23 14.5 39.5t36.5 16.5q17 0 28.5 -12t11.5 -30q0 -8 -4 -20q26 8 50 66.5t46.5 146.5t27.5 101q56 167 57 206q1 47 -31 47q-36 0 -67.5 -36t-53 -89.5t-37 -106t-26.5 -96t-14 -49.5q-10 -21 -31 -21q-13 0 -23.5 9.5t-11.5 23.5q0 5 6 26l66 267q9 39 9 45
q0 10 -3.5 18t-8.5 8q-10 0 -21 -26q-8 -18 -13.5 -39.5t-8 -31t-10.5 -16.5t-24 -7q-14 0 -22 6t-9.5 11.5t-1.5 11.5z" />
    <glyph glyph-name="Omacron" unicode="&#x14c;" 
d="M189 804q0 7 2 14t11 15t24 8h457q18 -1 24.5 -10t6.5 -20q0 -7 -1.5 -14t-10 -14.5t-22.5 -7.5h-457q-34 0 -34 29zM124 320q21 82 35 131t33 90t35.5 60t46 32.5t59.5 16.5t80 3q38 0 62 -1.5t46 -8t33 -15.5t18.5 -28t7.5 -41t-5 -59t-14.5 -78t-24.5 -102
q-20 -81 -34.5 -130t-33.5 -90t-35.5 -60t-46 -32.5t-59.5 -16.5t-80 -3q-38 0 -62 1.5t-45.5 8t-33 15.5t-18.5 28t-7 40.5t5 59t14 78t24 101.5zM195 330q-37 -149 -38 -203q-1 -41 20.5 -58t85.5 -17q65 0 96 18t50 63q26 57 60 197q36 142 36 192q0 41 -24 54t-84 13
q-63 0 -93.5 -14.5t-50.5 -60.5q-23 -48 -58 -184z" />
    <glyph glyph-name="omacron" unicode="&#x14d;" 
d="M197 575q0 8 2 14.5t11 14t24 7.5h246q37 0 36 -30q0 -36 -36 -36h-249q-14 0 -22 6t-10 12t-2 12zM66 166q1 65 23.5 121t59.5 92.5t83 57.5t94 21q69 0 115 -49t45 -122q0 -69 -23 -125.5t-59.5 -92t-82 -55t-94.5 -19.5q-69 0 -115.5 48.5t-45.5 122.5zM136 161
q-1 -38 26.5 -70t65.5 -32q29 0 60 13.5t60.5 39.5t48.5 73t19 106q1 44 -28 73t-64 29q-29 0 -60 -15t-60 -43t-48 -73.5t-20 -100.5z" />
    <glyph glyph-name="Obreve" unicode="&#x14e;" 
d="M278 806q0 54 33 54q16 0 23.5 -9.5t7.5 -19.5q0 -4 -1 -11.5t-1 -11.5q-1 -24 25.5 -40t65.5 -16q44 0 85 21t55 59l1 3t2.5 6t4 6.5t5.5 6t8 4.5t11 2q13 0 22 -8.5t9 -21.5q0 -17 -13.5 -40t-37 -47.5t-64.5 -41t-90 -16.5q-68 0 -110 33.5t-41 87.5zM124 320
q21 82 35 131t33 90t35.5 60t46 32.5t59.5 16.5t80 3q38 0 62 -1.5t46 -8t33 -15.5t18.5 -28t7.5 -41t-5 -59t-14.5 -78t-24.5 -102q-20 -81 -34.5 -130t-33.5 -90t-35.5 -60t-46 -32.5t-59.5 -16.5t-80 -3q-38 0 -62 1.5t-45.5 8t-33 15.5t-18.5 28t-7 40.5t5 59t14 78
t24 101.5zM195 330q-37 -149 -38 -203q-1 -41 20.5 -58t85.5 -17q65 0 96 18t50 63q26 57 60 197q36 142 36 192q0 41 -24 54t-84 13q-63 0 -93.5 -14.5t-50.5 -60.5q-23 -48 -58 -184z" />
    <glyph glyph-name="obreve" unicode="&#x14f;" 
d="M193 624q1 47 34 47q13 0 21.5 -8t8.5 -21q0 -3 -1 -8t-1 -7q0 -20 30 -28t67 -8q47 0 76 8t40 20t17 23.5t13 19.5t21 8q12 0 21 -8t9 -22q0 -8 -4.5 -20.5t-18.5 -30t-34.5 -32t-57.5 -24.5t-84 -10q-46 0 -79 9.5t-48.5 26t-22.5 32.5t-7 33zM66 166q1 65 23.5 121
t59.5 92.5t83 57.5t94 21q69 0 115 -49t45 -122q0 -69 -23 -125.5t-59.5 -92t-82 -55t-94.5 -19.5q-69 0 -115.5 48.5t-45.5 122.5zM136 161q-1 -38 26.5 -70t65.5 -32q29 0 60 13.5t60.5 39.5t48.5 73t19 106q1 44 -28 73t-64 29q-29 0 -60 -15t-60 -43t-48 -73.5
t-20 -100.5z" />
    <glyph glyph-name="Ohungarumlaut" unicode="&#x150;" 
d="M518 761q0 14 7.5 21t21.5 13q34 13 78 31q53 21 60 21q14 0 23.5 -10.5t9.5 -23.5q0 -10 -3.5 -17.5t-13 -13.5t-14 -8t-20.5 -9l-36 -14t-28 -11t-19.5 -8t-14.5 -6t-9.5 -3.5t-7 -2t-4.5 -0.5q-16 0 -23 13t-7 28zM322 761q0 14 7.5 21t21.5 13q34 13 78 31
q53 21 60 21q14 0 23.5 -10.5t9.5 -23.5q0 -10 -3.5 -17.5t-13 -13.5t-14 -8t-20.5 -9l-36 -14t-28 -11t-19.5 -8t-14.5 -6t-9.5 -3.5t-7 -2t-4.5 -0.5q-16 0 -23 13t-7 28zM124 320q21 82 35 131t33 90t35.5 60t46 32.5t59.5 16.5t80 3q38 0 62 -1.5t46 -8t33 -15.5
t18.5 -28t7.5 -41t-5 -59t-14.5 -78t-24.5 -102q-20 -81 -34.5 -130t-33.5 -90t-35.5 -60t-46 -32.5t-59.5 -16.5t-80 -3q-38 0 -62 1.5t-45.5 8t-33 15.5t-18.5 28t-7 40.5t5 59t14 78t24 101.5zM195 330q-37 -149 -38 -203q-1 -41 20.5 -58t85.5 -17q65 0 96 18t50 63
q26 57 60 197q36 142 36 192q0 41 -24 54t-84 13q-63 0 -93.5 -14.5t-50.5 -60.5q-23 -48 -58 -184z" />
    <glyph glyph-name="ohungarumlaut" unicode="&#x151;" 
d="M210 574q0 9 6 16.5t9 9t12 6.5q20 10 51 25q78 40 88 40q13 0 22.5 -10t10.5 -25q-1 -25 -30 -39t-69 -35q-61 -31 -69 -31q-16 0 -23.5 15t-7.5 28zM406 574q0 9 6 16.5t9 9t12 6.5q20 10 51 25q78 40 88 40q13 0 22.5 -10t10.5 -25q-1 -25 -30 -39t-69 -35
q-61 -31 -69 -31q-16 0 -23.5 15t-7.5 28zM66 166q1 65 23.5 121t59.5 92.5t83 57.5t94 21q69 0 115 -49t45 -122q0 -69 -23 -125.5t-59.5 -92t-82 -55t-94.5 -19.5q-69 0 -115.5 48.5t-45.5 122.5zM136 161q-1 -38 26.5 -70t65.5 -32q29 0 60 13.5t60.5 39.5t48.5 73
t19 106q1 44 -28 73t-64 29q-29 0 -60 -15t-60 -43t-48 -73.5t-20 -100.5z" />
    <glyph glyph-name="OE" unicode="&#x152;" 
d="M56 67q1 63 45.5 244t77.5 254q8 19 15.5 30t24 27t44.5 23.5t67 7.5q17 0 41 -5.5t54 -5.5h111q13 0 21 -7t9.5 -12.5t1.5 -11.5q0 -8 -13.5 -60.5t-15.5 -56.5q-8 -16 -24 -16q-11 0 -19.5 9t-8.5 19q0 6 16 70h-81l-53 -211h84q18 0 26.5 -8.5t8.5 -21.5
q0 -35 -37 -35h-97l-1 -1l-59 -234h87q1 6 4 18q14 62 21.5 79.5t25.5 17.5q11 0 19.5 -8.5t8.5 -21.5q0 -4 -30 -121q-3 -13 -10 -20t-12 -8t-15 -1h-121q-15 0 -23 1q-66 -13 -86 -13q-36 0 -59 7t-32.5 20t-12.5 24.5t-3 27.5zM119 108q0 -31 19 -42.5t44 -11.5
q33 0 49 28t36 109l72 288q11 48 12 72q0 37 -35 37q-22 0 -39.5 -7t-28 -15t-19.5 -25t-13 -27t-10 -30q-21 -64 -53.5 -195t-33.5 -181z" />
    <glyph glyph-name="oe" unicode="&#x153;" 
d="M29 141.5q1 68.5 27.5 142t73.5 125t97 51.5q35 0 56 -26t28 -62q68 86 135 86q40 0 64.5 -28.5t23.5 -72.5q0 -36 -15.5 -65t-38.5 -46t-53 -28t-57.5 -15.5t-55.5 -4.5h-15q-3 -22 -3 -44q-1 -37 12.5 -66t45.5 -29q26 0 48.5 9t35 19.5t25 19.5t19.5 9q12 -1 20 -9.5
t8 -20.5q0 -26 -54 -58.5t-104 -32.5q-79 0 -105 88q-61 -91 -122 -91q-44 0 -70.5 40.5t-25.5 109zM98 138q-1 -33 6.5 -57t23.5 -24q24 0 55 37.5t53.5 98t23.5 117.5q0 36 -9 60.5t-26 24.5q-26 0 -55.5 -41t-50.5 -102.5t-21 -113.5zM317 262q26 1 49.5 4.5t50.5 12.5
t43.5 28t16.5 46q0 15 -7 27.5t-25 12.5q-28 0 -66 -34.5t-62 -96.5z" />
    <glyph glyph-name="Racute" unicode="&#x154;" 
d="M333 761q0 14 7.5 21t21.5 13q34 13 78 31q53 21 60 21q14 0 23.5 -10.5t9.5 -23.5q0 -10 -3.5 -17.5t-13 -13.5t-14 -8t-20.5 -9l-36 -14t-28 -11t-19.5 -8t-14.5 -6t-9.5 -3.5t-7 -2t-4.5 -0.5q-16 0 -23 13t-7 28zM18 32q4 14 13.5 22t16 9t18.5 1h25l128 514h-25
h-9.5t-10 1.5t-8.5 5t-5 9.5t1 15q4 15 13.5 22.5t16.5 9t18 1.5h177q86 0 127 -53t23 -124q-9 -39 -39.5 -79t-81.5 -67q28 -29 33 -64q2 -17 -0.5 -32t-15.5 -67q-7 -27 -9.5 -40.5t-4.5 -31t2 -25t14 -7.5q11 0 19 17t12 31q9 31 42 31h7.5t8.5 -2t7.5 -5.5t4 -9.5
t-1.5 -16q-5 -23 -19 -46.5t-40 -43.5t-55 -20q-53 0 -67 49q-4 12 -5 24t2 30.5t6.5 32.5l11.5 46q6 27 8.5 39t1 26t-9.5 24q-25 30 -74 30h-78l-56 -225h25h10.5t10 -2t8 -5t4.5 -9.5t-1 -15.5q-4 -15 -13.5 -22.5t-16.5 -8.5t-18 -1h-119q-6 0 -9.5 0.5t-10.5 2
t-8.5 4.5l-4.5 9t1 16zM232 353h72q64 0 109 34.5t55 77.5q11 43 -16.5 78t-91.5 35h-72z" />
    <glyph glyph-name="racute" unicode="&#x155;" 
d="M276 574q0 9 6 16.5t9 9t12 6.5q20 10 51 25q78 40 88 40q13 0 22.5 -10t10.5 -25q-1 -25 -30 -39t-69 -35q-61 -31 -69 -31q-16 0 -23.5 15t-7.5 28zM55 301q0 7 6.5 28.5t19 52t38.5 53.5t58 23t56 -17t34 -44q58 61 131 61q64 0 103.5 -29.5t38.5 -77.5
q0 -34 -16 -49.5t-35 -15.5q-18 0 -29 12t-11 30q0 22 17 40q-26 25 -69 25q-40 0 -73.5 -35t-55.5 -88t-37.5 -104.5t-26.5 -96.5t-15 -53q-11 -21 -32 -21q-25 0 -32 25q-2 8 3 29l72 290q3 13 3 21q0 13 -7.5 22.5t-18.5 9.5q-10 0 -18 -6q-15 -21 -23 -45t-10.5 -37.5
t-11 -22.5t-27.5 -9q-33 0 -32 29z" />
    <glyph glyph-name="Rcaron" unicode="&#x158;" 
d="M259 814q0 12 9 21t21 9h3q5 0 11 -4.5t26 -27t52 -65.5q36 27 81 61q34 26 42 31t16 5q11 0 20 -9t9 -21q-1 -16 -20 -31q-69 -56 -101.5 -81t-40 -29.5t-13.5 -4.5q-7 0 -11.5 2.5t-12 11t-14 18t-22.5 31t-33 42.5q-22 30 -22 41zM18 32q4 14 13.5 22t16 9t18.5 1h25
l128 514h-25h-9.5t-10 1.5t-8.5 5t-5 9.5t1 15q4 15 13.5 22.5t16.5 9t18 1.5h177q86 0 127 -53t23 -124q-9 -39 -39.5 -79t-81.5 -67q28 -29 33 -64q2 -17 -0.5 -32t-15.5 -67q-7 -27 -9.5 -40.5t-4.5 -31t2 -25t14 -7.5q11 0 19 17t12 31q9 31 42 31h7.5t8.5 -2t7.5 -5.5
t4 -9.5t-1.5 -16q-5 -23 -19 -46.5t-40 -43.5t-55 -20q-53 0 -67 49q-4 12 -5 24t2 30.5t6.5 32.5l11.5 46q6 27 8.5 39t1 26t-9.5 24q-25 30 -74 30h-78l-56 -225h25h10.5t10 -2t8 -5t4.5 -9.5t-1 -15.5q-4 -15 -13.5 -22.5t-16.5 -8.5t-18 -1h-119q-6 0 -9.5 0.5t-10.5 2
t-8.5 4.5l-4.5 9t1 16zM232 353h72q64 0 109 34.5t55 77.5q11 43 -16.5 78t-91.5 35h-72z" />
    <glyph glyph-name="rcaron" unicode="&#x159;" 
d="M189 639q0 12 8.5 22t20.5 10q9 0 19.5 -8.5t43.5 -42.5l33 -33q24 15 57.5 38.5t51.5 34.5t26 11q11 0 20 -9t9 -22q-1 -16 -21 -31q-32 -23 -75 -54q-47 -34 -57 -40.5t-18 -6.5q-12 0 -26 15q-15 18 -39 44q-38 42 -45.5 52.5t-7.5 19.5zM55 301q0 7 6.5 28.5t19 52
t38.5 53.5t58 23t56 -17t34 -44q58 61 131 61q64 0 103.5 -29.5t38.5 -77.5q0 -34 -16 -49.5t-35 -15.5q-18 0 -29 12t-11 30q0 22 17 40q-26 25 -69 25q-40 0 -73.5 -35t-55.5 -88t-37.5 -104.5t-26.5 -96.5t-15 -53q-11 -21 -32 -21q-25 0 -32 25q-2 8 3 29l72 290
q3 13 3 21q0 13 -7.5 22.5t-18.5 9.5q-10 0 -18 -6q-15 -21 -23 -45t-10.5 -37.5t-11 -22.5t-27.5 -9q-33 0 -32 29z" />
    <glyph glyph-name="Sacute" unicode="&#x15a;" 
d="M352 761q0 14 7.5 21t21.5 13q34 13 78 31q53 21 60 21q14 0 23.5 -10.5t9.5 -23.5q0 -10 -3.5 -17.5t-13 -13.5t-14 -8t-20.5 -9l-36 -14t-28 -11t-19.5 -8t-14.5 -6t-9.5 -3.5t-7 -2t-4.5 -0.5q-16 0 -23 13t-7 28zM48 32l35 138q2 11 4 16.5t7 13t13.5 10.5t20.5 3
q22 0 26 -11.5t-1 -25.5q-12 -61 24 -91q38 -33 109 -33q56 0 98 36t53 81q24 94 -81 119q-46 11 -108 28q-56 18 -78.5 64t-9.5 101q18 69 83.5 120.5t145.5 51.5q85 0 128 -49q14 28 23.5 38.5t25.5 10.5q20 0 23 -15t-3 -28l-35 -139q-3 -10 -5 -15.5t-6.5 -13t-13 -11
t-21.5 -3.5q-16 0 -22.5 6.5t-4.5 23.5q0 10 2 26t-3.5 34t-15 34t-32.5 26.5t-57 10.5q-51 0 -93 -31t-53 -73q-9 -35 8 -62t48 -37l76 -18q60 -16 83.5 -27.5t45.5 -41.5q34 -54 17 -125q-19 -74 -85 -130t-150 -56q-104 0 -153 49q-14 -28 -23.5 -38.5t-25.5 -10.5
q-20 0 -22.5 15.5t3.5 28.5z" />
    <glyph glyph-name="sacute" unicode="&#x15b;" 
d="M309 574q0 9 6 16.5t9 9t12 6.5q20 10 51 25q78 40 88 40q13 0 22.5 -10t10.5 -25q-1 -25 -30 -39t-69 -35q-61 -31 -69 -31q-16 0 -23.5 15t-7.5 28zM56 96q1 32 17 48t35 16q16 0 28.5 -12t11.5 -30q0 -16 -15 -37q33 -22 95 -22q43 0 75.5 10t48 25.5t23 29.5t7.5 27
q0 18 -19 31t-40.5 18.5t-53 11t-42.5 8.5q-34 10 -59 34.5t-24 63.5q0 23 10 46t30.5 44.5t57.5 35.5t85 14q26 0 49 -4.5t45 -14t34.5 -28.5t12 -45t-14.5 -41.5t-34 -15.5q-17 0 -28 11t-11 29q0 12 11 29q-28 15 -67 15q-60 0 -89 -23.5t-29 -49.5q0 -11 6.5 -19
t22.5 -13.5t28 -8.5t37 -8q9 -1 14 -2q40 -7 68 -21.5t40.5 -32t17 -32.5t4.5 -31q0 -25 -12 -51t-36 -50.5t-67.5 -40t-100.5 -15.5q-53 0 -89.5 9.5t-53 26t-23 32t-6.5 33.5z" />
    <glyph glyph-name="Scircumflex" unicode="&#x15c;" 
d="M246 733q0 12 9 20t57 39q46 29 80 51q24 16 30.5 19t12.5 3q4 0 7 -0.5t7 -3t7 -5.5t9.5 -9t12 -11t16 -15.5t20.5 -19.5q43 -41 50.5 -49.5t7.5 -18.5q0 -14 -13.5 -27.5t-26.5 -13.5q-9 0 -20.5 10.5t-54.5 56.5q-18 18 -29 30q-15 -11 -41 -29q-73 -51 -87 -59.5
t-22 -8.5q-14 0 -23 14t-9 27zM48 32l35 138q2 11 4 16.5t7 13t13.5 10.5t20.5 3q22 0 26 -11.5t-1 -25.5q-12 -61 24 -91q38 -33 109 -33q56 0 98 36t53 81q24 94 -81 119q-46 11 -108 28q-56 18 -78.5 64t-9.5 101q18 69 83.5 120.5t145.5 51.5q85 0 128 -49
q14 28 23.5 38.5t25.5 10.5q20 0 23 -15t-3 -28l-35 -139q-3 -10 -5 -15.5t-6.5 -13t-13 -11t-21.5 -3.5q-16 0 -22.5 6.5t-4.5 23.5q0 10 2 26t-3.5 34t-15 34t-32.5 26.5t-57 10.5q-51 0 -93 -31t-53 -73q-9 -35 8 -62t48 -37l76 -18q60 -16 83.5 -27.5t45.5 -41.5
q34 -54 17 -125q-19 -74 -85 -130t-150 -56q-104 0 -153 49q-14 -28 -23.5 -38.5t-25.5 -10.5q-20 0 -22.5 15.5t3.5 28.5z" />
    <glyph glyph-name="scircumflex" unicode="&#x15d;" 
d="M189.5 553.5q0.5 13.5 11.5 22t75 46.5q46 27 78 46q14 8 22 8h1q7 0 15 -5.5t46 -37.5q34 -29 58 -49q19 -17 19 -31q-1 -13 -13.5 -27t-26.5 -14q-8 0 -15 5.5t-39 35.5q-30 27 -52 48l-116 -75q-23 -14 -32 -14q-14 0 -23 14t-8.5 27.5zM56 96q1 32 17 48t35 16
q16 0 28.5 -12t11.5 -30q0 -16 -15 -37q33 -22 95 -22q43 0 75.5 10t48 25.5t23 29.5t7.5 27q0 18 -19 31t-40.5 18.5t-53 11t-42.5 8.5q-34 10 -59 34.5t-24 63.5q0 23 10 46t30.5 44.5t57.5 35.5t85 14q26 0 49 -4.5t45 -14t34.5 -28.5t12 -45t-14.5 -41.5t-34 -15.5
q-17 0 -28 11t-11 29q0 12 11 29q-28 15 -67 15q-60 0 -89 -23.5t-29 -49.5q0 -11 6.5 -19t22.5 -13.5t28 -8.5t37 -8q9 -1 14 -2q40 -7 68 -21.5t40.5 -32t17 -32.5t4.5 -31q0 -25 -12 -51t-36 -50.5t-67.5 -40t-100.5 -15.5q-53 0 -89.5 9.5t-53 26t-23 32t-6.5 33.5z" />
    <glyph glyph-name="Scedilla" unicode="&#x15e;" 
d="M109 -217q0 25 20 33q3 1 31.5 2t57 4t53 16t24.5 36q0 14 -10 20.5t-22.5 7t-23 6.5t-10.5 20q1 12 8.5 45t10.5 40q9 19 33 19q35 0 34 -31q0 -3 -1.5 -10.5t-4 -17.5t-3.5 -15q23 -9 41.5 -29.5t18.5 -53.5q-1 -35 -24.5 -65.5t-67 -43t-127.5 -12.5h-4
q-19 0 -26.5 9.5t-7.5 19.5zM48 32l35 138q2 11 4 16.5t7 13t13.5 10.5t20.5 3q22 0 26 -11.5t-1 -25.5q-12 -61 24 -91q38 -33 109 -33q56 0 98 36t53 81q24 94 -81 119q-46 11 -108 28q-56 18 -78.5 64t-9.5 101q18 69 83.5 120.5t145.5 51.5q85 0 128 -49
q14 28 23.5 38.5t25.5 10.5q20 0 23 -15t-3 -28l-35 -139q-3 -10 -5 -15.5t-6.5 -13t-13 -11t-21.5 -3.5q-16 0 -22.5 6.5t-4.5 23.5q0 10 2 26t-3.5 34t-15 34t-32.5 26.5t-57 10.5q-51 0 -93 -31t-53 -73q-9 -35 8 -62t48 -37l76 -18q60 -16 83.5 -27.5t45.5 -41.5
q34 -54 17 -125q-19 -74 -85 -130t-150 -56q-104 0 -153 49q-14 -28 -23.5 -38.5t-25.5 -10.5q-20 0 -22.5 15.5t3.5 28.5z" />
    <glyph glyph-name="scedilla" unicode="&#x15f;" 
d="M66 -217q0 25 20 33q3 1 31.5 2t57 4t53 16t24.5 36q0 14 -10 20.5t-22.5 7t-23 6.5t-10.5 20q1 12 8.5 45t10.5 40q9 19 33 19q35 0 34 -31q0 -3 -1.5 -10.5t-4 -17.5t-3.5 -15q23 -9 41.5 -29.5t18.5 -53.5q-1 -35 -24.5 -65.5t-67 -43t-127.5 -12.5h-4
q-19 0 -26.5 9.5t-7.5 19.5zM56 96q1 32 17 48t35 16q16 0 28.5 -12t11.5 -30q0 -16 -15 -37q33 -22 95 -22q43 0 75.5 10t48 25.5t23 29.5t7.5 27q0 18 -19 31t-40.5 18.5t-53 11t-42.5 8.5q-34 10 -59 34.5t-24 63.5q0 23 10 46t30.5 44.5t57.5 35.5t85 14q26 0 49 -4.5
t45 -14t34.5 -28.5t12 -45t-14.5 -41.5t-34 -15.5q-17 0 -28 11t-11 29q0 12 11 29q-28 15 -67 15q-60 0 -89 -23.5t-29 -49.5q0 -11 6.5 -19t22.5 -13.5t28 -8.5t37 -8q9 -1 14 -2q40 -7 68 -21.5t40.5 -32t17 -32.5t4.5 -31q0 -25 -12 -51t-36 -50.5t-67.5 -40
t-100.5 -15.5q-53 0 -89.5 9.5t-53 26t-23 32t-6.5 33.5z" />
    <glyph glyph-name="Scaron" unicode="&#x160;" 
d="M278 814q0 12 9 21t21 9h3q5 0 11 -4.5t26 -27t52 -65.5q36 27 81 61q34 26 42 31t16 5q11 0 20 -9t9 -21q-1 -16 -20 -31q-69 -56 -101.5 -81t-40 -29.5t-13.5 -4.5q-7 0 -11.5 2.5t-12 11t-14 18t-22.5 31t-33 42.5q-22 30 -22 41zM48 32l35 138q2 11 4 16.5t7 13
t13.5 10.5t20.5 3q22 0 26 -11.5t-1 -25.5q-12 -61 24 -91q38 -33 109 -33q56 0 98 36t53 81q24 94 -81 119q-46 11 -108 28q-56 18 -78.5 64t-9.5 101q18 69 83.5 120.5t145.5 51.5q85 0 128 -49q14 28 23.5 38.5t25.5 10.5q20 0 23 -15t-3 -28l-35 -139q-3 -10 -5 -15.5
t-6.5 -13t-13 -11t-21.5 -3.5q-16 0 -22.5 6.5t-4.5 23.5q0 10 2 26t-3.5 34t-15 34t-32.5 26.5t-57 10.5q-51 0 -93 -31t-53 -73q-9 -35 8 -62t48 -37l76 -18q60 -16 83.5 -27.5t45.5 -41.5q34 -54 17 -125q-19 -74 -85 -130t-150 -56q-104 0 -153 49q-14 -28 -23.5 -38.5
t-25.5 -10.5q-20 0 -22.5 15.5t3.5 28.5z" />
    <glyph glyph-name="scaron" unicode="&#x161;" 
d="M222 639q0 12 8.5 22t20.5 10q9 0 19.5 -8.5t43.5 -42.5l33 -33q24 15 57.5 38.5t51.5 34.5t26 11q11 0 20 -9t9 -22q-1 -16 -21 -31q-32 -23 -75 -54q-47 -34 -57 -40.5t-18 -6.5q-12 0 -26 15q-15 18 -39 44q-38 42 -45.5 52.5t-7.5 19.5zM56 96q1 32 17 48t35 16
q16 0 28.5 -12t11.5 -30q0 -16 -15 -37q33 -22 95 -22q43 0 75.5 10t48 25.5t23 29.5t7.5 27q0 18 -19 31t-40.5 18.5t-53 11t-42.5 8.5q-34 10 -59 34.5t-24 63.5q0 23 10 46t30.5 44.5t57.5 35.5t85 14q26 0 49 -4.5t45 -14t34.5 -28.5t12 -45t-14.5 -41.5t-34 -15.5
q-17 0 -28 11t-11 29q0 12 11 29q-28 15 -67 15q-60 0 -89 -23.5t-29 -49.5q0 -11 6.5 -19t22.5 -13.5t28 -8.5t37 -8q9 -1 14 -2q40 -7 68 -21.5t40.5 -32t17 -32.5t4.5 -31q0 -25 -12 -51t-36 -50.5t-67.5 -40t-100.5 -15.5q-53 0 -89.5 9.5t-53 26t-23 32t-6.5 33.5z" />
    <glyph glyph-name="Tcommaaccent" unicode="&#x162;" 
d="M87 -217q0 25 20 33q3 1 31.5 2t57 4t53 16t24.5 36q0 14 -10 20.5t-22.5 7t-23 6.5t-10.5 20q1 12 8.5 45t10.5 40q9 19 33 19q35 0 34 -31q0 -3 -1.5 -10.5t-4 -17.5t-3.5 -15q23 -9 41.5 -29.5t18.5 -53.5q-1 -35 -24.5 -65.5t-67 -43t-127.5 -12.5h-4
q-19 0 -26.5 9.5t-7.5 19.5zM144 522l20 76q6 26 16.5 35t34.5 9h391q25 0 31 -9.5t-1 -34.5l-20 -76q-2 -11 -4 -16.5t-7 -13t-13.5 -10.5t-20.5 -3t-19 3.5t-7.5 11t0 13t2.5 15.5l14 56h-132l-128 -514h52h10.5t10 -2t8 -5t4.5 -9.5t-1 -15.5q-4 -15 -13.5 -22.5
t-16.5 -8.5t-18 -1h-173q-7 0 -10.5 0.5t-10 2t-8 4.5t-4.5 9.5t1 16.5q4 14 13.5 21.5t16.5 8.5t18 1h52l128 514h-133l-14 -56q-2 -11 -4 -16.5t-7 -13t-13.5 -10.5t-20.5 -3t-19 3.5t-7.5 11t0 13t2.5 15.5z" />
    <glyph glyph-name="tcommaaccent" unicode="&#x163;" 
d="M73 -217q0 25 20 33q3 1 31.5 2t57 4t53 16t24.5 36q0 14 -10 20.5t-22.5 7t-23 6.5t-10.5 20q1 12 8.5 45t10.5 40q9 19 33 19q35 0 34 -31q0 -3 -1.5 -10.5t-4 -17.5t-3.5 -15q23 -9 41.5 -29.5t18.5 -53.5q-1 -35 -24.5 -65.5t-67 -43t-127.5 -12.5h-4
q-19 0 -26.5 9.5t-7.5 19.5zM119 417q0 35 36 35h98q8 31 20 79q18 77 27 96.5t31 19.5q12 0 22 -10t10 -25q0 -7 -6 -31.5t-16 -64.5l-16 -64h83q21 0 28 -9.5t7 -20.5q0 -7 -2.5 -14t-11.5 -14t-23 -7h-97q-5 -20 -23.5 -92t-33.5 -133t-15 -69q0 -15 9.5 -24.5t26.5 -9.5
q31 0 62 27.5t48 65.5q7 16 13.5 22.5t20.5 6.5h1q20 0 28 -9t8 -21t-14 -37t-36.5 -52t-58.5 -47t-75 -20q-45 0 -74 27.5t-29 70.5v3q0 14 39 170q18 73 31 121h-84q-14 0 -22.5 6.5t-10 12t-1.5 11.5z" />
    <glyph glyph-name="Tcaron" unicode="&#x164;" 
d="M303 814q0 12 9 21t21 9h3q5 0 11 -4.5t26 -27t52 -65.5q36 27 81 61q34 26 42 31t16 5q11 0 20 -9t9 -21q-1 -16 -20 -31q-69 -56 -101.5 -81t-40 -29.5t-13.5 -4.5q-7 0 -11.5 2.5t-12 11t-14 18t-22.5 31t-33 42.5q-22 30 -22 41zM144 522l20 76q6 26 16.5 35t34.5 9
h391q25 0 31 -9.5t-1 -34.5l-20 -76q-2 -11 -4 -16.5t-7 -13t-13.5 -10.5t-20.5 -3t-19 3.5t-7.5 11t0 13t2.5 15.5l14 56h-132l-128 -514h52h10.5t10 -2t8 -5t4.5 -9.5t-1 -15.5q-4 -15 -13.5 -22.5t-16.5 -8.5t-18 -1h-173q-7 0 -10.5 0.5t-10 2t-8 4.5t-4.5 9.5t1 16.5
q4 14 13.5 21.5t16.5 8.5t18 1h52l128 514h-133l-14 -56q-2 -11 -4 -16.5t-7 -13t-13.5 -10.5t-20.5 -3t-19 3.5t-7.5 11t0 13t2.5 15.5z" />
    <glyph glyph-name="tcaron" unicode="&#x165;" 
d="M232 828q0 12 8.5 22t20.5 10q9 0 19.5 -8.5t43.5 -42.5l33 -33q24 15 57.5 38.5t51.5 34.5t26 11q11 0 20 -9t9 -22q-1 -16 -21 -31q-32 -23 -75 -54q-47 -34 -57 -40.5t-18 -6.5q-12 0 -26 15q-15 18 -39 44q-38 42 -45.5 52.5t-7.5 19.5zM119 417q0 35 36 35h98
q8 31 20 79q18 77 27 96.5t31 19.5q12 0 22 -10t10 -25q0 -7 -6 -31.5t-16 -64.5l-16 -64h83q21 0 28 -9.5t7 -20.5q0 -7 -2.5 -14t-11.5 -14t-23 -7h-97q-5 -20 -23.5 -92t-33.5 -133t-15 -69q0 -15 9.5 -24.5t26.5 -9.5q31 0 62 27.5t48 65.5q7 16 13.5 22.5t20.5 6.5h1
q20 0 28 -9t8 -21t-14 -37t-36.5 -52t-58.5 -47t-75 -20q-45 0 -74 27.5t-29 70.5v3q0 14 39 170q18 73 31 121h-84q-14 0 -22.5 6.5t-10 12t-1.5 11.5z" />
    <glyph glyph-name="Utilde" unicode="&#x168;" 
d="M236 757q0 7 3 12.5t6.5 9t11.5 12.5q74 69 128 69q22 0 42.5 -10.5t33 -23t28 -22.5t27.5 -10q20 0 43.5 16t42.5 32.5t29 16.5q11 0 20.5 -10t9.5 -23q0 -4 -1.5 -8t-4 -8t-4 -6t-6 -6l-4.5 -4q-72 -70 -129 -70q-23 0 -43.5 10.5t-33 22.5t-27.5 22.5t-28 10.5
q-19 0 -42.5 -16.5t-42.5 -33t-28 -16.5q-12 0 -21.5 10t-9.5 23zM145 610q7 32 48 32h129q7 0 10.5 -0.5t10.5 -2t8.5 -5t5 -9.5t-0.5 -15q-4 -15 -14 -22.5t-17 -8.5t-19 -1h-30l-89 -359q-20 -78 5.5 -122.5t70.5 -44.5q44 0 92 44.5t68 122.5l89 359h-30h-9.5t-10.5 1.5
t-9 5t-5 9.5t2 16q7 32 48 32h129q7 0 10.5 -0.5t10.5 -2t8.5 -5t5 -9.5t-0.5 -15q-4 -15 -14 -22.5t-17 -8.5t-19 -1h-30l-90 -364q-24 -95 -96 -160.5t-148 -65.5t-115 65.5t-15 160.5l90 364h-30h-9.5t-10.5 1.5t-9 5t-5 9.5t2 16z" />
    <glyph glyph-name="utilde" unicode="&#x169;" 
d="M184 549q0 15 17 29q24 18 36.5 27t40.5 23t48 14q18 0 32.5 -9t22 -19.5t16 -19.5t15.5 -9q17 0 56.5 28.5t49.5 28.5t19 -10t9 -24q0 -15 -16 -28q-80 -64 -126 -64q-20 0 -34 8.5t-20.5 19t-15 19t-17.5 8.5q-17 0 -56 -27.5t-47 -27.5q-12 0 -21.5 9.5t-8.5 23.5z
M41 301q0 11 8.5 34.5t24 52t43 49.5t59.5 21q35 0 56 -24.5t20 -61.5q0 -24 -32 -116.5t-33 -136.5q0 -60 41 -60q16 0 30.5 9t25.5 21.5t22 34.5t18 38.5t15 43.5t11.5 41t8.5 38q6 23 15 61q16 67 25 86.5t31 19.5q13 0 22.5 -10t10.5 -24q0 -9 -4 -25l-70 -276
q-5 -19 -5 -31t5 -19t11 -7q18 0 39 76q0 2 2.5 11.5t4 12.5t5.5 9.5t10 9t15 2.5h4q20 0 26.5 -10t6.5 -21q0 -3 -3 -17.5t-11.5 -38.5t-20 -45.5t-33 -37.5t-46.5 -16q-50 0 -74 45q-45 -45 -99 -45q-18 0 -36 5.5t-35 19t-27.5 39t-10.5 61.5q1 40 17.5 96t32.5 100.5
t16 57.5q1 18 -11 18q-17 0 -36 -29q-12 -19 -19.5 -45t-15 -36t-27.5 -10q-14 0 -22 6.5t-9.5 12t-1.5 10.5z" />
    <glyph glyph-name="Umacron" unicode="&#x16a;" 
d="M189 804q0 7 2 14t11 15t24 8h457q18 -1 24.5 -10t6.5 -20q0 -7 -1.5 -14t-10 -14.5t-22.5 -7.5h-457q-34 0 -34 29zM145 610q7 32 48 32h129q7 0 10.5 -0.5t10.5 -2t8.5 -5t5 -9.5t-0.5 -15q-4 -15 -14 -22.5t-17 -8.5t-19 -1h-30l-89 -359q-20 -78 5.5 -122.5
t70.5 -44.5q44 0 92 44.5t68 122.5l89 359h-30h-9.5t-10.5 1.5t-9 5t-5 9.5t2 16q7 32 48 32h129q7 0 10.5 -0.5t10.5 -2t8.5 -5t5 -9.5t-0.5 -15q-4 -15 -14 -22.5t-17 -8.5t-19 -1h-30l-90 -364q-24 -95 -96 -160.5t-148 -65.5t-115 65.5t-15 160.5l90 364h-30h-9.5
t-10.5 1.5t-9 5t-5 9.5t2 16z" />
    <glyph glyph-name="umacron" unicode="&#x16b;" 
d="M205 575q0 8 2 14.5t11 14t24 7.5h246q37 0 36 -30q0 -36 -36 -36h-249q-14 0 -22 6t-10 12t-2 12zM41 301q0 11 8.5 34.5t24 52t43 49.5t59.5 21q35 0 56 -24.5t20 -61.5q0 -24 -32 -116.5t-33 -136.5q0 -60 41 -60q16 0 30.5 9t25.5 21.5t22 34.5t18 38.5t15 43.5
t11.5 41t8.5 38q6 23 15 61q16 67 25 86.5t31 19.5q13 0 22.5 -10t10.5 -24q0 -9 -4 -25l-70 -276q-5 -19 -5 -31t5 -19t11 -7q18 0 39 76q0 2 2.5 11.5t4 12.5t5.5 9.5t10 9t15 2.5h4q20 0 26.5 -10t6.5 -21q0 -3 -3 -17.5t-11.5 -38.5t-20 -45.5t-33 -37.5t-46.5 -16
q-50 0 -74 45q-45 -45 -99 -45q-18 0 -36 5.5t-35 19t-27.5 39t-10.5 61.5q1 40 17.5 96t32.5 100.5t16 57.5q1 18 -11 18q-17 0 -36 -29q-12 -19 -19.5 -45t-15 -36t-27.5 -10q-14 0 -22 6.5t-9.5 12t-1.5 10.5z" />
    <glyph glyph-name="Ubreve" unicode="&#x16c;" 
d="M278 806q0 54 33 54q16 0 23.5 -9.5t7.5 -19.5q0 -4 -1 -11.5t-1 -11.5q-1 -24 25.5 -40t65.5 -16q44 0 85 21t55 59l1 3t2.5 6t4 6.5t5.5 6t8 4.5t11 2q13 0 22 -8.5t9 -21.5q0 -17 -13.5 -40t-37 -47.5t-64.5 -41t-90 -16.5q-68 0 -110 33.5t-41 87.5zM145 610
q7 32 48 32h129q7 0 10.5 -0.5t10.5 -2t8.5 -5t5 -9.5t-0.5 -15q-4 -15 -14 -22.5t-17 -8.5t-19 -1h-30l-89 -359q-20 -78 5.5 -122.5t70.5 -44.5q44 0 92 44.5t68 122.5l89 359h-30h-9.5t-10.5 1.5t-9 5t-5 9.5t2 16q7 32 48 32h129q7 0 10.5 -0.5t10.5 -2t8.5 -5t5 -9.5
t-0.5 -15q-4 -15 -14 -22.5t-17 -8.5t-19 -1h-30l-90 -364q-24 -95 -96 -160.5t-148 -65.5t-115 65.5t-15 160.5l90 364h-30h-9.5t-10.5 1.5t-9 5t-5 9.5t2 16z" />
    <glyph glyph-name="ubreve" unicode="&#x16d;" 
d="M201 624q1 47 34 47q13 0 21.5 -8t8.5 -21q0 -3 -1 -8t-1 -7q0 -20 30 -28t67 -8q47 0 76 8t40 20t17 23.5t13 19.5t21 8q12 0 21 -8t9 -22q0 -8 -4.5 -20.5t-18.5 -30t-34.5 -32t-57.5 -24.5t-84 -10q-46 0 -79 9.5t-48.5 26t-22.5 32.5t-7 33zM41 301q0 11 8.5 34.5
t24 52t43 49.5t59.5 21q35 0 56 -24.5t20 -61.5q0 -24 -32 -116.5t-33 -136.5q0 -60 41 -60q16 0 30.5 9t25.5 21.5t22 34.5t18 38.5t15 43.5t11.5 41t8.5 38q6 23 15 61q16 67 25 86.5t31 19.5q13 0 22.5 -10t10.5 -24q0 -9 -4 -25l-70 -276q-5 -19 -5 -31t5 -19t11 -7
q18 0 39 76q0 2 2.5 11.5t4 12.5t5.5 9.5t10 9t15 2.5h4q20 0 26.5 -10t6.5 -21q0 -3 -3 -17.5t-11.5 -38.5t-20 -45.5t-33 -37.5t-46.5 -16q-50 0 -74 45q-45 -45 -99 -45q-18 0 -36 5.5t-35 19t-27.5 39t-10.5 61.5q1 40 17.5 96t32.5 100.5t16 57.5q1 18 -11 18
q-17 0 -36 -29q-12 -19 -19.5 -45t-15 -36t-27.5 -10q-14 0 -22 6.5t-9.5 12t-1.5 10.5z" />
    <glyph glyph-name="Uring" unicode="&#x16e;" 
d="M316 713q1 61 48.5 108t102.5 47q41 0 66 -26t24 -67q0 -57 -47 -106t-105 -49q-41 0 -65 27t-24 66zM377 730q-1 -20 12 -32.5t33 -12.5q30 0 52 23.5t22 50.5q0 20 -12.5 32.5t-31.5 12.5q-28 0 -51.5 -23t-23.5 -51zM145 610q7 32 48 32h129q7 0 10.5 -0.5t10.5 -2
t8.5 -5t5 -9.5t-0.5 -15q-4 -15 -14 -22.5t-17 -8.5t-19 -1h-30l-89 -359q-20 -78 5.5 -122.5t70.5 -44.5q44 0 92 44.5t68 122.5l89 359h-30h-9.5t-10.5 1.5t-9 5t-5 9.5t2 16q7 32 48 32h129q7 0 10.5 -0.5t10.5 -2t8.5 -5t5 -9.5t-0.5 -15q-4 -15 -14 -22.5t-17 -8.5
t-19 -1h-30l-90 -364q-24 -95 -96 -160.5t-148 -65.5t-115 65.5t-15 160.5l90 364h-30h-9.5t-10.5 1.5t-9 5t-5 9.5t2 16z" />
    <glyph glyph-name="uring" unicode="&#x16f;" 
d="M289 563q0 44 32.5 80t68.5 36q26 0 41.5 -18.5t14.5 -47.5q0 -44 -32 -79.5t-69 -35.5q-27 0 -42 18t-14 47zM346 556q-1 -20 8 -20q11 0 23 28t12 56q1 22 -8 22q-10 0 -22.5 -29t-12.5 -57zM41 301q0 11 8.5 34.5t24 52t43 49.5t59.5 21q35 0 56 -24.5t20 -61.5
q0 -24 -32 -116.5t-33 -136.5q0 -60 41 -60q16 0 30.5 9t25.5 21.5t22 34.5t18 38.5t15 43.5t11.5 41t8.5 38q6 23 15 61q16 67 25 86.5t31 19.5q13 0 22.5 -10t10.5 -24q0 -9 -4 -25l-70 -276q-5 -19 -5 -31t5 -19t11 -7q18 0 39 76q0 2 2.5 11.5t4 12.5t5.5 9.5t10 9
t15 2.5h4q20 0 26.5 -10t6.5 -21q0 -3 -3 -17.5t-11.5 -38.5t-20 -45.5t-33 -37.5t-46.5 -16q-50 0 -74 45q-45 -45 -99 -45q-18 0 -36 5.5t-35 19t-27.5 39t-10.5 61.5q1 40 17.5 96t32.5 100.5t16 57.5q1 18 -11 18q-17 0 -36 -29q-12 -19 -19.5 -45t-15 -36t-27.5 -10
q-14 0 -22 6.5t-9.5 12t-1.5 10.5z" />
    <glyph glyph-name="Uhungarumlaut" unicode="&#x170;" 
d="M518 761q0 14 7.5 21t21.5 13q34 13 78 31q53 21 60 21q14 0 23.5 -10.5t9.5 -23.5q0 -10 -3.5 -17.5t-13 -13.5t-14 -8t-20.5 -9l-36 -14t-28 -11t-19.5 -8t-14.5 -6t-9.5 -3.5t-7 -2t-4.5 -0.5q-16 0 -23 13t-7 28zM322 761q0 14 7.5 21t21.5 13q34 13 78 31
q53 21 60 21q14 0 23.5 -10.5t9.5 -23.5q0 -10 -3.5 -17.5t-13 -13.5t-14 -8t-20.5 -9l-36 -14t-28 -11t-19.5 -8t-14.5 -6t-9.5 -3.5t-7 -2t-4.5 -0.5q-16 0 -23 13t-7 28zM145 610q7 32 48 32h129q7 0 10.5 -0.5t10.5 -2t8.5 -5t5 -9.5t-0.5 -15q-4 -15 -14 -22.5
t-17 -8.5t-19 -1h-30l-89 -359q-20 -78 5.5 -122.5t70.5 -44.5q44 0 92 44.5t68 122.5l89 359h-30h-9.5t-10.5 1.5t-9 5t-5 9.5t2 16q7 32 48 32h129q7 0 10.5 -0.5t10.5 -2t8.5 -5t5 -9.5t-0.5 -15q-4 -15 -14 -22.5t-17 -8.5t-19 -1h-30l-90 -364q-24 -95 -96 -160.5
t-148 -65.5t-115 65.5t-15 160.5l90 364h-30h-9.5t-10.5 1.5t-9 5t-5 9.5t2 16z" />
    <glyph glyph-name="uhungarumlaut" unicode="&#x171;" 
d="M218 574q0 9 6 16.5t9 9t12 6.5q20 10 51 25q78 40 88 40q13 0 22.5 -10t10.5 -25q-1 -25 -30 -39t-69 -35q-61 -31 -69 -31q-16 0 -23.5 15t-7.5 28zM414 574q0 9 6 16.5t9 9t12 6.5q20 10 51 25q78 40 88 40q13 0 22.5 -10t10.5 -25q-1 -25 -30 -39t-69 -35
q-61 -31 -69 -31q-16 0 -23.5 15t-7.5 28zM41 301q0 11 8.5 34.5t24 52t43 49.5t59.5 21q35 0 56 -24.5t20 -61.5q0 -24 -32 -116.5t-33 -136.5q0 -60 41 -60q16 0 30.5 9t25.5 21.5t22 34.5t18 38.5t15 43.5t11.5 41t8.5 38q6 23 15 61q16 67 25 86.5t31 19.5
q13 0 22.5 -10t10.5 -24q0 -9 -4 -25l-70 -276q-5 -19 -5 -31t5 -19t11 -7q18 0 39 76q0 2 2.5 11.5t4 12.5t5.5 9.5t10 9t15 2.5h4q20 0 26.5 -10t6.5 -21q0 -3 -3 -17.5t-11.5 -38.5t-20 -45.5t-33 -37.5t-46.5 -16q-50 0 -74 45q-45 -45 -99 -45q-18 0 -36 5.5t-35 19
t-27.5 39t-10.5 61.5q1 40 17.5 96t32.5 100.5t16 57.5q1 18 -11 18q-17 0 -36 -29q-12 -19 -19.5 -45t-15 -36t-27.5 -10q-14 0 -22 6.5t-9.5 12t-1.5 10.5z" />
    <glyph glyph-name="Wcircumflex" unicode="&#x174;" 
d="M271 733q0 12 9 20t57 39q46 29 80 51q24 16 30.5 19t12.5 3q4 0 7 -0.5t7 -3t7 -5.5t9.5 -9t12 -11t16 -15.5t20.5 -19.5q43 -41 50.5 -49.5t7.5 -18.5q0 -14 -13.5 -27.5t-26.5 -13.5q-9 0 -20.5 10.5t-54.5 56.5q-18 18 -29 30q-15 -11 -41 -29q-73 -51 -87 -59.5
t-22 -8.5q-14 0 -23 14t-9 27zM151 609q4 15 14 23t17 9t18 1h79q7 0 10.5 -0.5t10.5 -2t8.5 -5t4 -9.5t-1.5 -16q-3 -14 -13 -22t-16.5 -8.5t-18.5 -0.5h-25l-52 -416q-8 -65 -12 -82h1q10 29 40 98t56.5 124.5t29.5 59.5q15 23 45 23q32 0 35 -24l-1 -37t-3 -81t-5 -92
t-7 -71h1q8 27 53 148l131 350h-25h-9.5t-10 1.5t-8.5 5t-5 9.5t1 15q4 15 13.5 22.5t16.5 9t18 1.5h79q7 0 10.5 -0.5t10.5 -2t8.5 -5t4.5 -9.5t-1 -16q-8 -31 -46 -31l-209 -550q-14 -36 -50 -36q-33 0 -34 26q0 1 2 62.5t5 134t7 93.5h-1q-10 -28 -70 -158t-65 -137
q-15 -21 -44 -21q-7 0 -11 0.5t-10.5 3.5t-9 11t-1.5 21l65 550h-1h-7t-9 1.5t-8.5 5t-5.5 9.5t1 15z" />
    <glyph glyph-name="wcircumflex" unicode="&#x175;" 
d="M208.5 553.5q0.5 13.5 11.5 22t75 46.5q46 27 78 46q14 8 22 8h1q7 0 15 -5.5t46 -37.5q34 -29 58 -49q19 -17 19 -31q-1 -13 -13.5 -27t-26.5 -14q-8 0 -15 5.5t-39 35.5q-30 27 -52 48l-116 -75q-23 -14 -32 -14q-14 0 -23 14t-8.5 27.5zM55 124q1 41 16 87t29.5 84
t14.5 60q0 6 -0.5 11t-2 8.5t-2.5 5.5t-4.5 3.5t-4 2t-5 1.5l-4.5 1q-22 5 -22 31q0 13 8.5 23t23.5 10q29 0 55.5 -22.5t25.5 -68.5q0 -38 -30 -114.5t-30 -118.5q-1 -69 52 -69q38 0 67.5 86t61.5 275q1 8 10.5 20t24.5 12q13 0 23 -10t10 -19q0 -13 -28.5 -140
t-29.5 -158q0 -66 52 -66q27 0 48.5 49.5t43.5 137.5q20 76 20 110q0 21 -6 39t-6 25q0 15 16.5 26t30.5 11q39 0 39 -71q-1 -43 -26 -148t-50 -156q-43 -87 -112 -87t-98 57q-39 -57 -93 -57q-20 0 -39 6t-37.5 19t-30 40t-11.5 64z" />
    <glyph glyph-name="Ycircumflex" unicode="&#x176;" 
d="M271 733q0 12 9 20t57 39q46 29 80 51q24 16 30.5 19t12.5 3q4 0 7 -0.5t7 -3t7 -5.5t9.5 -9t12 -11t16 -15.5t20.5 -19.5q43 -41 50.5 -49.5t7.5 -18.5q0 -14 -13.5 -27.5t-26.5 -13.5q-9 0 -20.5 10.5t-54.5 56.5q-18 18 -29 30q-15 -11 -41 -29q-73 -51 -87 -59.5
t-22 -8.5q-14 0 -23 14t-9 27zM160 610q3 15 12.5 22.5t16.5 8.5t18 1h104q7 0 10.5 -0.5t10 -2t8.5 -5t5 -9.5t-1 -15q-4 -15 -13.5 -22.5t-17.5 -8.5t-24 -1q43 -210 43 -248l167 248h-11.5t-10.5 1t-8.5 3t-6 5.5t-3 9t2.5 13.5q3 15 12.5 22.5t16.5 8.5t18 1h104
q7 0 10.5 -0.5t10.5 -2t8.5 -5t4 -9.5t-1.5 -16q-3 -14 -13 -22t-16.5 -8.5t-18.5 -0.5h-21l-227 -322l-48 -192h25h10.5t10 -2t8 -5t4.5 -9.5t-1 -15.5q-4 -15 -13.5 -22.5t-16.5 -8.5t-18 -1h-119q-7 0 -10.5 0.5t-10 2t-8 4.5t-4.5 9.5t1 16.5q4 14 13.5 21.5t16.5 8.5
t18 1h25l48 192l-68 322h-21h-9.5t-10.5 1.5t-8.5 5t-4.5 9.5t2 16z" />
    <glyph glyph-name="ycircumflex" unicode="&#x177;" 
d="M222.5 553.5q0.5 13.5 11.5 22t75 46.5q46 27 78 46q14 8 22 8h1q7 0 15 -5.5t46 -37.5q34 -29 58 -49q19 -17 19 -31q-1 -13 -13.5 -27t-26.5 -14q-8 0 -15 5.5t-39 35.5q-30 27 -52 48l-116 -75q-23 -14 -32 -14q-14 0 -23 14t-8.5 27.5zM41 301q0 12 9.5 36t26 52
t45.5 48.5t62 20.5q37 0 60.5 -26t22.5 -63q0 -23 -32.5 -112t-33.5 -134q0 -64 52 -64q35 0 64.5 34t48 85.5t32 102.5t23.5 96t15 55q12 20 32 20q13 0 23 -10t10 -25q0 -10 -4 -24l-96 -380q-16 -63 -41.5 -110.5t-51 -73.5t-54.5 -42t-49 -20.5t-37 -4.5q-45 0 -74 27.5
t-29 72.5q1 33 16.5 50.5t36.5 17.5q17 0 28.5 -11.5t11.5 -30.5q-1 -23 -20 -41q11 -21 36 -21q45 0 91.5 53.5t65.5 140.5q-41 -25 -80 -25q-20 0 -39.5 6t-38.5 19.5t-30.5 40.5t-11.5 64q1 39 17.5 94t32.5 98t16 54q1 21 -16 21t-34 -19q-14 -17 -23.5 -37.5t-12 -33
t-11 -21.5t-23.5 -9h-3q-34 0 -33 29z" />
    <glyph glyph-name="Ydieresis" unicode="&#x178;" 
d="M504 802q0 23 17.5 40.5t38.5 17.5q20 0 33 -14.5t13 -32.5q-1 -23 -18.5 -40.5t-38.5 -17.5q-19 0 -32.5 13.5t-12.5 33.5zM300 802q0 23 16.5 40.5t39.5 17.5q19 0 32 -13t13 -33q-1 -24 -18 -41.5t-38 -17.5q-19 0 -32.5 13.5t-12.5 33.5zM160 610q3 15 12.5 22.5
t16.5 8.5t18 1h104q7 0 10.5 -0.5t10 -2t8.5 -5t5 -9.5t-1 -15q-4 -15 -13.5 -22.5t-17.5 -8.5t-24 -1q43 -210 43 -248l167 248h-11.5t-10.5 1t-8.5 3t-6 5.5t-3 9t2.5 13.5q3 15 12.5 22.5t16.5 8.5t18 1h104q7 0 10.5 -0.5t10.5 -2t8.5 -5t4 -9.5t-1.5 -16
q-3 -14 -13 -22t-16.5 -8.5t-18.5 -0.5h-21l-227 -322l-48 -192h25h10.5t10 -2t8 -5t4.5 -9.5t-1 -15.5q-4 -15 -13.5 -22.5t-16.5 -8.5t-18 -1h-119q-7 0 -10.5 0.5t-10 2t-8 4.5t-4.5 9.5t1 16.5q4 14 13.5 21.5t16.5 8.5t18 1h25l48 192l-68 322h-21h-9.5t-10.5 1.5
t-8.5 5t-4.5 9.5t2 16z" />
    <glyph glyph-name="Zacute" unicode="&#x179;" 
d="M379 761q0 14 7.5 21t21.5 13q34 13 78 31q53 21 60 21q14 0 23.5 -10.5t9.5 -23.5q0 -10 -3.5 -17.5t-13 -13.5t-14 -8t-20.5 -9l-36 -14t-28 -11t-19.5 -8t-14.5 -6t-9.5 -3.5t-7 -2t-4.5 -0.5q-16 0 -23 13t-7 28zM45 36q4 16 18 32l456 510h-258l-14 -56
q-2 -11 -4 -16.5t-7 -13t-13.5 -10.5t-20.5 -3t-19 3.5t-7.5 11t0 13t2.5 15.5l20 76q6 26 16.5 35t34.5 9h334q8 0 12 -0.5t10.5 -2t8 -5.5t4 -11t-1.5 -17q-5 -17 -19 -33l-456 -509h275l19 76q3 10 5 15.5t6.5 13t13 11t21.5 3.5q12 0 18.5 -3.5t7.5 -11t0 -13t-3 -15.5
l-24 -97q-7 -26 -17 -34.5t-34 -8.5h-352q-8 0 -11.5 0.5t-10.5 2t-8 5t-4 10.5t2 18z" />
    <glyph glyph-name="zacute" unicode="&#x17a;" 
d="M344 574q0 9 6 16.5t9 9t12 6.5q20 10 51 25q78 40 88 40q13 0 22.5 -10t10.5 -25q-1 -25 -30 -39t-69 -35q-61 -31 -69 -31q-16 0 -23.5 15t-7.5 28zM53 24q0 11 11 25q31 52 81 103.5t115.5 109.5t93.5 87q-13 4 -40.5 19t-44.5 15q-21 0 -41 -17t-29 -43l-2 -5.5
t-3.5 -8.5t-5 -7.5t-9.5 -6.5t-14 -2h-4q-33 0 -32 29q0 23 17.5 53.5t52 56.5t73.5 26q26 0 49.5 -13t41 -26t29.5 -13q9 0 16 8t11.5 18t14.5 18t24 8h1q17 0 25 -9.5t8 -21.5q0 -19 -41.5 -72t-119.5 -123l-86 -77l-47 -45q24 -3 61.5 -22.5t56.5 -19.5q24 0 52 23
q21 18 34 39.5t16 35.5t11.5 24t24.5 10h5q17 0 24 -9.5t7 -20.5q0 -17 -13 -45t-35.5 -57.5t-58 -51t-73.5 -21.5q-27 0 -50 12.5t-42 25.5t-36 13q-20 0 -33.5 -8t-19.5 -17.5t-17 -17.5t-25 -8h-1q-18 0 -25.5 9t-7.5 20z" />
    <glyph glyph-name="Zdotaccent" unicode="&#x17b;" 
d="M392 753q0 23 17.5 40.5t38.5 17.5q18 0 31.5 -13.5t13.5 -34.5q0 -22 -17 -39.5t-40 -17.5q-19 0 -31.5 13.5t-12.5 33.5zM45 36q4 16 18 32l456 510h-258l-14 -56q-2 -11 -4 -16.5t-7 -13t-13.5 -10.5t-20.5 -3t-19 3.5t-7.5 11t0 13t2.5 15.5l20 76q6 26 16.5 35
t34.5 9h334q8 0 12 -0.5t10.5 -2t8 -5.5t4 -11t-1.5 -17q-5 -17 -19 -33l-456 -509h275l19 76q3 10 5 15.5t6.5 13t13 11t21.5 3.5q12 0 18.5 -3.5t7.5 -11t0 -13t-3 -15.5l-24 -97q-7 -26 -17 -34.5t-34 -8.5h-352q-8 0 -11.5 0.5t-10.5 2t-8 5t-4 10.5t2 18z" />
    <glyph glyph-name="zdotaccent" unicode="&#x17c;" 
d="M345 584q0 23 17 40.5t39 17.5q18 0 31.5 -13.5t13.5 -34.5q0 -23 -17.5 -40t-39.5 -17q-19 0 -31.5 13.5t-12.5 33.5zM53 24q0 11 11 25q31 52 81 103.5t115.5 109.5t93.5 87q-13 4 -40.5 19t-44.5 15q-21 0 -41 -17t-29 -43l-2 -5.5t-3.5 -8.5t-5 -7.5t-9.5 -6.5
t-14 -2h-4q-33 0 -32 29q0 23 17.5 53.5t52 56.5t73.5 26q26 0 49.5 -13t41 -26t29.5 -13q9 0 16 8t11.5 18t14.5 18t24 8h1q17 0 25 -9.5t8 -21.5q0 -19 -41.5 -72t-119.5 -123l-86 -77l-47 -45q24 -3 61.5 -22.5t56.5 -19.5q24 0 52 23q21 18 34 39.5t16 35.5t11.5 24
t24.5 10h5q17 0 24 -9.5t7 -20.5q0 -17 -13 -45t-35.5 -57.5t-58 -51t-73.5 -21.5q-27 0 -50 12.5t-42 25.5t-36 13q-20 0 -33.5 -8t-19.5 -17.5t-17 -17.5t-25 -8h-1q-18 0 -25.5 9t-7.5 20z" />
    <glyph glyph-name="Zcaron" unicode="&#x17d;" 
d="M305 814q0 12 9 21t21 9h3q5 0 11 -4.5t26 -27t52 -65.5q36 27 81 61q34 26 42 31t16 5q11 0 20 -9t9 -21q-1 -16 -20 -31q-69 -56 -101.5 -81t-40 -29.5t-13.5 -4.5q-7 0 -11.5 2.5t-12 11t-14 18t-22.5 31t-33 42.5q-22 30 -22 41zM45 36q4 16 18 32l456 510h-258
l-14 -56q-2 -11 -4 -16.5t-7 -13t-13.5 -10.5t-20.5 -3t-19 3.5t-7.5 11t0 13t2.5 15.5l20 76q6 26 16.5 35t34.5 9h334q8 0 12 -0.5t10.5 -2t8 -5.5t4 -11t-1.5 -17q-5 -17 -19 -33l-456 -509h275l19 76q3 10 5 15.5t6.5 13t13 11t21.5 3.5q12 0 18.5 -3.5t7.5 -11t0 -13
t-3 -15.5l-24 -97q-7 -26 -17 -34.5t-34 -8.5h-352q-8 0 -11.5 0.5t-10.5 2t-8 5t-4 10.5t2 18z" />
    <glyph glyph-name="zcaron" unicode="&#x17e;" 
d="M257 639q0 12 8.5 22t20.5 10q9 0 19.5 -8.5t43.5 -42.5l33 -33q24 15 57.5 38.5t51.5 34.5t26 11q11 0 20 -9t9 -22q-1 -16 -21 -31q-32 -23 -75 -54q-47 -34 -57 -40.5t-18 -6.5q-12 0 -26 15q-15 18 -39 44q-38 42 -45.5 52.5t-7.5 19.5zM53 24q0 11 11 25
q31 52 81 103.5t115.5 109.5t93.5 87q-13 4 -40.5 19t-44.5 15q-21 0 -41 -17t-29 -43l-2 -5.5t-3.5 -8.5t-5 -7.5t-9.5 -6.5t-14 -2h-4q-33 0 -32 29q0 23 17.5 53.5t52 56.5t73.5 26q26 0 49.5 -13t41 -26t29.5 -13q9 0 16 8t11.5 18t14.5 18t24 8h1q17 0 25 -9.5t8 -21.5
q0 -19 -41.5 -72t-119.5 -123l-86 -77l-47 -45q24 -3 61.5 -22.5t56.5 -19.5q24 0 52 23q21 18 34 39.5t16 35.5t11.5 24t24.5 10h5q17 0 24 -9.5t7 -20.5q0 -17 -13 -45t-35.5 -57.5t-58 -51t-73.5 -21.5q-27 0 -50 12.5t-42 25.5t-36 13q-20 0 -33.5 -8t-19.5 -17.5
t-17 -17.5t-25 -8h-1q-18 0 -25.5 9t-7.5 20z" />
    <glyph glyph-name="longs" unicode="&#x17f;" 
d="M1 -163q1 26 15.5 42t35.5 16q17 0 28 -11.5t11 -29.5q0 -14 -5 -24q13 -4 24 -4t21 6.5t18.5 20t15.5 28t13.5 38t11.5 42t10.5 47t8.5 46t8 47t8 41.5l44 245h-65q-17 0 -25 8.5t-8 21.5q0 35 35 35h74q1 2 2 8q4 28 6.5 41.5t7 35.5t9 33t12 26t16.5 22t21.5 15
t28.5 11t37 3q62 0 88.5 -22.5t26.5 -53.5q-1 -26 -15.5 -42t-34.5 -16q-18 0 -29.5 11.5t-10.5 29.5q0 11 5 25q-20 4 -32 4q-8 0 -14 -1.5t-10.5 -3t-8.5 -5.5t-6.5 -7t-5.5 -10.5t-4.5 -13.5t-4 -17.5t-4 -20t-4 -24.5t-5.5 -28l-81 -447q-17 -86 -29 -121t-29 -59
q-45 -64 -105 -64q-46 0 -76 20.5t-30 55.5z" />
    <glyph glyph-name="uni0186" unicode="&#x186;" 
d="M39 16q0 6 21.5 92.5t24.5 94.5q6 11 12.5 14t19.5 3h4q31 0 30 -32q0 -5 -1 -15.5t-1 -16.5v-17q0 -11 2 -23t7.5 -27.5t18.5 -26t32 -10.5q49 0 102 60t87.5 150t35.5 174q1 71 -20.5 111t-58.5 40q-34 0 -66.5 -26t-49.5 -59q-8 -15 -14.5 -32t-9.5 -24t-9.5 -12.5
t-18.5 -5.5h-5q-16 0 -24.5 9.5t-8.5 19.5q1 12 9.5 35t26.5 50.5t42 52t60 41t75 16.5q65 0 104 -59t38 -154q-1 -110 -45 -215.5t-112.5 -171t-137.5 -65.5q-53 0 -94 43q-2 -3 -6 -8.5t-5.5 -8t-4.5 -6.5t-4.5 -5.5t-3.5 -4.5t-3.5 -4t-4 -2.5t-4.5 -2l-4 -1t-5 -0.5
q-13 0 -22 9t-9 20z" />
    <glyph glyph-name="uni018F" unicode="&#x18f;" 
d="M29 194q2 34 9.5 79t17.5 56q9 9 34 9h383q9 46 9 72q1 89 -38 133.5t-93 44.5q-28 0 -55.5 -11.5t-41 -21.5t-31.5 -27q-18 -22 -30.5 -43t-16.5 -30.5t-11.5 -15.5t-22.5 -6q-33 0 -32 31q0 4 2 17q7 28 17 71q18 71 25 86t25 15q7 0 13 -3t9 -6t6 -12t3.5 -11.5
t2.5 -13.5q70 46 141 46q89 0 144 -68.5t54 -173.5q-1 -101 -49.5 -199t-128 -161t-162.5 -63q-25 0 -49 5.5t-49.5 20t-43.5 37t-29.5 59.5t-11.5 84zM99 191q-1 -73 31.5 -106t83.5 -33q72 0 140.5 69t98.5 152h-344q-9 -57 -10 -82z" />
    <glyph glyph-name="uni0190" unicode="&#x190;" 
d="M47 146q0 58 40.5 110t108.5 82q-51 43 -51 109q1 83 78 144.5t179 61.5q89 0 147 -38t57 -105q0 -40 -16.5 -56.5t-36.5 -16.5q-17 0 -29 11.5t-11 30.5q0 22 22 42q-6 21 -23 36t-39.5 21t-38.5 8t-33 2q-73 0 -129.5 -43.5t-57.5 -99.5q0 -14 3.5 -26t13 -25t29.5 -21
t49 -8h52q35 0 35 -30q0 -7 -2.5 -13.5t-11 -13t-22.5 -7.5h-44q-50 0 -90.5 -16.5t-63 -42t-34 -50.5t-11.5 -46q-1 -39 29 -65.5t85 -26.5q70 0 138 32t90 91q5 12 6.5 15.5t5.5 10t10.5 8t16.5 1.5q19 0 26 -9.5t7 -21.5q-2 -24 -16 -50.5t-41 -51.5t-62 -45.5t-83.5 -33
t-100.5 -12.5q-79 0 -130.5 44t-50.5 114z" />
    <glyph glyph-name="florin" unicode="&#x192;" 
d="M1 -163q0 28 16 43t35 15q16 0 28 -11.5t12 -30.5q0 -9 -6 -23q20 -4 24 -4q11 0 24 10q31 28 50.5 105.5t68.5 357.5q10 57 16 88h-65q-17 1 -25 10t-8 21q0 6 2 12.5t10.5 14t22.5 7.5h74q1 3 2 10q5 28 7 41t7 35t9.5 32.5t12 26t16.5 22.5t21.5 14.5t28.5 10.5t36 3
q29 0 53.5 -6t43 -24t18.5 -47q0 -24 -14 -40.5t-36 -16.5q-18 0 -29.5 11.5t-10.5 29.5q0 11 5 25q-20 4 -32 4q-31 0 -40.5 -19t-20.5 -82q-4 -19 -6 -30h83q18 0 26.5 -8.5t8.5 -21.5q0 -7 -2 -13.5t-11 -14t-24 -7.5h-92q-55 -321 -78.5 -423.5t-49.5 -138.5
q-45 -63 -103 -63q-25 0 -47.5 5.5t-41.5 23.5t-19 46z" />
    <glyph glyph-name="Ohorn" unicode="&#x1a0;" 
d="M81 78q0 16 3.5 41t8.5 51.5t11.5 57t13 57.5t13.5 53.5t12 45t8.5 32l3.5 13.5q14 50 24.5 80.5t24.5 58t28 42t36 25.5t48 14.5t63 3.5q38 0 63 -3t32.5 -6.5t12.5 -6.5t9 -3q10 0 22 15q-20 17 -20 39t17 40.5t40 18.5q21 0 32 -15t10 -38q0 -33 -21.5 -70t-55.5 -52
q0 -39 -9.5 -91.5t-36.5 -162.5q-20 -78 -33 -124.5t-30 -87.5t-32 -60.5t-39 -34.5t-50.5 -19t-66.5 -4h-9q-76 0 -105 18.5t-28 71.5zM157 112q0 -28 16.5 -44t60.5 -16q26 0 45.5 7t32.5 16.5t24 29.5t17.5 37.5t15.5 48.5q21 65 48.5 180.5t27.5 160.5q1 27 -16.5 41.5
t-60.5 14.5q-30 0 -50.5 -6t-33 -18.5t-18 -22t-12.5 -25.5q-21 -51 -58.5 -199.5t-38.5 -204.5z" />
    <glyph glyph-name="ohorn" unicode="&#x1a1;" 
d="M86 165q1 71 35.5 139.5t90 111t114.5 42.5q40 0 75 -23q7 3 15.5 4.5t16 5.5t16.5 15q-19 17 -19 39t16.5 39.5t40.5 17.5q19 0 30.5 -14t11.5 -37q0 -33 -21 -70t-61 -54q20 -44 19 -94q0 -73 -35.5 -141t-91.5 -109.5t-113 -41.5q-63 0 -102 48t-38 122zM156 161
q-1 -41 17 -71.5t55 -30.5q57 0 112 71t56 161q1 46 -19 74t-53 28q-57 0 -112 -72t-56 -160z" />
    <glyph glyph-name="Uhorn" unicode="&#x1af;" 
d="M101 150q0 29 16 97l82 329h-15q-21 0 -28.5 10t-7.5 21q1 35 39 35h117q20 0 27 -10t7 -21q0 -35 -39 -35h-28q-3 -13 -87 -347q-13 -48 -13 -82q-1 -41 14 -67t41 -26q31 0 66 32q25 23 42.5 54.5t24 50t13.5 48.5q1 5 2 8l82 329h-15q-35 0 -35 31q0 7 2 13.5t10.5 14
t23.5 7.5h64q5 0 10 -2t7 -2q4 0 24 13q-16 17 -16 37q0 23 17 41t40 18q19 0 31.5 -14.5t11.5 -37.5q0 -34 -25 -70.5t-79 -53.5l-24 -95.5t-48.5 -193t-29.5 -110.5q-28 -79 -85 -131.5t-116 -52.5q-56 0 -90 45.5t-33 116.5z" />
    <glyph glyph-name="uhorn" unicode="&#x1b0;" 
d="M41 300q0 12 8.5 36t24 52t43 49t59.5 21q34 0 55.5 -25t20.5 -62q0 -23 -32 -115.5t-33 -137.5q0 -59 41 -59q31 0 57.5 33t43.5 84t29.5 102t23 96t16.5 56q12 22 32 22q5 0 10.5 -2t7.5 -2q8 0 27 14q-15 16 -15 37q0 22 16.5 39.5t39.5 17.5q19 0 31 -14t12 -37
q0 -36 -25 -71t-78 -52q-4 -18 -22.5 -89.5t-33.5 -133.5t-15 -73q0 -25 14 -25q10 0 19 16q11 20 18 49.5t14 42t26 12.5h4q33 0 33 -30q0 -8 -6 -30t-18 -52t-36 -52t-54 -22q-50 0 -74 45q-45 -45 -99 -45q-19 0 -36.5 5.5t-34.5 18.5t-27.5 39t-10.5 62q1 41 17.5 96
t32.5 99.5t16 60.5q1 14 -10 16q-14 -1 -27.5 -16.5t-20.5 -33.5t-13 -36t-7 -18q-9 -17 -31 -17q-13 0 -23.5 8t-9.5 21z" />
    <glyph glyph-name="uni01B7" unicode="&#x1b7;" 
d="M27 109q1 42 17 59.5t36 17.5q19 0 30 -12.5t11 -29.5q-1 -23 -23 -42q12 -48 117 -48q85 0 146 52.5t62 108.5q0 40 -34.5 67.5t-94.5 27.5q-27 0 -37 -4.5t-24 -4.5q-30 0 -30 23t24 41l261 217h-275q-1 -4 -3 -11t-8 -31t-14 -57q-2 -10 -4.5 -16.5t-10.5 -13
t-21 -6.5h-1q-35 0 -34 31q0 5 31 132q5 18 12.5 25t24.5 7h377q32 0 31 -24q0 -26 -23 -44l-231 -193q67 -10 111 -53.5t44 -109.5q-1 -88 -84 -159t-197 -71q-58 0 -97 12t-57 31.5t-25 38t-7 39.5z" />
    <glyph glyph-name="uni01C4" unicode="&#x1c4;" 
d="M434 814q1 12 7 21t12 9q5 0 7.5 -6t8.5 -25q3 -11 4 -17l14 -49q28 34 56 71q15 19 18 22.5t7 3.5q6 0 9.5 -8.5t1 -23.5t-13.5 -29q-9 -13 -26 -34q-44 -61 -52.5 -71t-12.5 -10q-7 0 -12 18q-4 15 -8 30.5t-6.5 25.5t-4.5 19.5t-3.5 15l-3 11t-2 8.5t-1 5.5t-0.5 4.5
v3.5t1 4.5zM-43 0q-12 0 -14.5 16.5t5 32.5t19.5 16h11l126 511h-3q-14 0 -16 16.5t5.5 33t17.5 16.5h91q20 0 31 -22t12.5 -56.5t0 -63t-5.5 -55.5q-13 -104 -46.5 -208t-74.5 -170.5t-75 -66.5h-84zM14 65h33q17 0 35 21q34 42 69 141t48 202q17 147 -25 147h-34zM228 0
q-6 0 -9 7t-0.5 22.5t12.5 34.5l261 512h-97q-11 -47 -17.5 -67.5t-10.5 -25.5t-10 -5q-19 0 -14 31q2 10 24 102q4 14 8.5 21.5t7.5 8.5t8 1h143q7 0 10 -8t-0.5 -23.5t-12.5 -35.5l-260 -510h104q3 13 8 34q13 56 18.5 70.5t15.5 14.5q20 0 13 -40l-28 -112
q-4 -20 -9.5 -26t-14.5 -6h-150z" />
    <glyph glyph-name="uni01C5" unicode="&#x1c5;" 
d="M409 614q-5 18 -2 30.5t8 19.5t10 7t9 -8.5t16 -43.5q7 -20 12 -32q13 14 33 37.5t31 35t15 11.5q6 0 9 -9t0 -24t-14 -29q-21 -26 -48 -59q-25 -31 -30 -36.5t-9 -5.5q-5 0 -8.5 8.5t-15.5 48.5q-9 29 -16 49zM-32 0q-12 0 -14.5 16.5t5 32.5t19.5 16h11l127 511h-4
q-14 0 -16 16.5t5.5 33t17.5 16.5h91q20 0 31 -22t12.5 -56.5t0 -63t-5.5 -55.5q-13 -104 -46 -208t-74 -170.5t-75 -66.5h-85zM25 65h33q18 0 36 21q34 42 68.5 140.5t47.5 202.5q17 147 -24 147h-34zM241 49q22 52 53.5 104t71 109.5t57.5 86.5q-7 5 -14 14.5t-12.5 14.5
t-11.5 5q-11 0 -22.5 -16.5t-19.5 -43.5l-1 -3.5t-1.5 -5.5t-2 -5.5t-3 -6t-3.5 -5t-4.5 -3.5t-5.5 -1h-2q-22 0 -7 55q18 64 53 96q16 14 29 14t23.5 -13t17.5 -26t13 -13t16.5 26t22.5 26q9 0 12.5 -9.5t1.5 -21.5q-2 -18 -29.5 -71t-75.5 -124l-83 -121q12 -3 29 -23
t27 -20q11 0 28 23q13 18 22 39.5t12.5 35.5t9 24t13.5 10h2q15 0 12 -30q-3 -24 -18 -63.5t-41.5 -75.5t-51.5 -36q-11 0 -19.5 8t-13.5 17.5t-11.5 17.5t-13.5 8q-10 0 -17.5 -8t-12 -17.5t-11 -17.5t-13.5 -8q-6 0 -10.5 6.5t-3.5 19.5t9 28z" />
    <glyph glyph-name="uni01C6" unicode="&#x1c6;" 
d="M409 614q-5 18 -2 30.5t8 19.5t10 7t9 -8.5t16 -43.5q7 -20 12 -32q13 14 33 37.5t31 35t15 11.5q6 0 9 -9t0 -24t-14 -29q-21 -26 -48 -59q-25 -31 -30 -36.5t-9 -5.5q-5 0 -8.5 8.5t-15.5 48.5q-9 29 -16 49zM1 155q9 72 33.5 142.5t55.5 115.5t57 45q25 0 37 -42
l40 160h-25q-12 0 -14.5 16.5t5 33t19.5 16.5h45q18 0 14 -30l-129 -524q-3 -28 7 -28q7 0 13.5 19t11 41.5t12.5 41.5t17 19q18 0 15 -31q0 -3 -6 -26t-15.5 -52.5t-25 -53t-31.5 -23.5q-14 0 -22.5 15.5t-10.5 38.5q-36 -54 -64 -54q-27 0 -37.5 45t-1.5 115zM36 152
q-12 -92 13 -92q23 0 57 76.5t46 162.5q5 44 1.5 69t-15.5 25q-24 0 -57.5 -79t-44.5 -162zM240 49q22 52 53.5 104t71 109.5t57.5 86.5q-7 5 -14 14.5t-12.5 14.5t-11.5 5q-11 0 -22.5 -16.5t-19.5 -43.5l-1 -3.5t-1.5 -5.5t-2 -5.5t-3 -6t-3.5 -5t-4.5 -3.5t-5.5 -1h-2
q-22 0 -7 55q18 64 53 96q16 14 29 14t23.5 -13t17.5 -26t13 -13t16.5 26t22.5 26q9 0 12.5 -9.5t1.5 -21.5q-2 -18 -29.5 -71t-75.5 -124l-83 -121q12 -3 29 -23t27 -20q11 0 28 23q13 18 22 39.5t12.5 35.5t9 24t13.5 10h2q15 0 12 -30q-3 -24 -18 -63.5t-41.5 -75.5
t-51.5 -36q-11 0 -19.5 8t-13.5 17.5t-11.5 17.5t-13.5 8q-10 0 -17.5 -8t-12 -17.5t-11 -17.5t-13.5 -8q-6 0 -10.5 6.5t-3.5 19.5t9 28z" />
    <glyph glyph-name="uni01C7" unicode="&#x1c7;" 
d="M-27 0q-11 0 -13.5 16.5t4.5 32.5t20 16h17l126 511h-10q-12 0 -15 16.5t4.5 33t20.5 16.5h71q12 0 14.5 -16.5t-4.5 -33t-20 -16.5h-25l-127 -511h92q11 46 16.5 67t10.5 33.5t7.5 14t8.5 1.5q19 0 11 -41q-3 -14 -13 -53q-7 -30 -12 -47q0 -2 -1 -6.5t-1.5 -6.5
t-1.5 -5.5t-1.5 -5l-1.5 -4.5t-2 -4t-2.5 -3t-3.5 -2.5t-4 -1.5t-4 -1h-161zM284 153q7 0 12.5 -10t3.5 -29t-14 -40q8 -20 24 -20t36 24t33 75l104 423h-25q-21 0 -18 31q5 35 23 35h80q12 0 14.5 -16.5t-5 -33t-19.5 -16.5h-14l-108 -438q-20 -76 -51 -113t-59 -37
q-22 0 -35.5 17t-15.5 41.5t1 48.5t12.5 41t20.5 17z" />
    <glyph glyph-name="uni01C8" unicode="&#x1c8;" 
d="M-14 0q-11 0 -13.5 16.5t4.5 32.5t20 16h17l126 511h-10q-12 0 -14.5 16.5t5 33t20.5 16.5h70q12 0 14.5 -16.5t-4.5 -33t-20 -16.5h-25l-127 -511h92q10 44 16 66.5t11 34t8 13.5t9 2q19 0 11 -41q-3 -14 -13 -53q-7 -30 -12 -47q-3 -15 -5 -21t-6.5 -12.5t-12.5 -6.5
h-161zM252 -117q6 0 10 -5t5.5 -17.5t-3.5 -33.5l1.5 -0.5t2.5 -0.5q5 0 11 2.5t16 12t19 25t20.5 45t21.5 68.5l94 380q3 16 -1 25t-12 9q-14 0 -33 -24.5t-34 -68.5q-8 -28 -22 -28q-17 0 -14 28q2 19 17.5 54.5t42 69.5t51.5 34q23 0 35 -28t6 -72l-110 -443
q-19 -60 -51 -106.5t-66 -46.5q-19 0 -29.5 12.5t-11 30.5t3.5 35.5t12.5 30t17.5 12.5zM515 548q-14 0 -15.5 23.5t8 47t23.5 23.5q13 0 15 -23.5t-8 -47t-23 -23.5z" />
    <glyph glyph-name="uni01C9" unicode="&#x1c9;" 
d="M53 94l119 482h-48q-12 0 -14.5 16.5t5 33t19.5 16.5h69q17 0 13 -31l-127 -515q0 -3 2 -20q10 -17 21 -17q4 0 9 4t9 10.5t8 15.5t7 17.5t6 18.5t5 16.5t3.5 12.5t1.5 7q6 20 19 20q8 0 11 -10t2 -21q-2 -11 -9 -34t-18.5 -51.5t-28.5 -49t-34 -20.5q-26 0 -41 28t-9 71
zM252 -117q6 0 10 -5t5.5 -17.5t-3.5 -33.5l1.5 -0.5t2.5 -0.5q5 0 11 2.5t16 12t19 25t20.5 45t21.5 68.5l94 380q3 16 -1 25t-12 9q-14 0 -33 -24.5t-34 -68.5q-8 -28 -22 -28q-17 0 -14 28q2 19 17.5 54.5t42 69.5t51.5 34q23 0 35 -28t6 -72l-110 -443
q-19 -60 -51 -106.5t-66 -46.5q-19 0 -29.5 12.5t-11 30.5t3.5 35.5t12.5 30t17.5 12.5zM515 548q-14 0 -15.5 23.5t8 47t23.5 23.5q13 0 15 -23.5t-8 -47t-23 -23.5z" />
    <glyph glyph-name="uni01CA" unicode="&#x1ca;" 
d="M-28 0q-11 1 -13.5 17t4.5 32t19 16h13l126 511h-6q-11 0 -13.5 16.5t4.5 33t19 16.5h15q8 0 12 -2q3 2 10 2q13 0 14.5 -15t-4.5 -61q-4 -33 -6 -55q-31 -292 -49 -431l123 496h-6q-11 0 -13.5 16.5t4.5 33t19 16.5h48q11 0 13.5 -16.5t-4.5 -33t-19 -16.5h-13
l-135 -543q-8 -32 -19 -32h-3q-3 -1 -9 -1h-2q-13 0 -14 20t6 67q3 27 5 43q36 345 47 425l-121 -490h6q11 0 13.5 -16t-4.5 -32.5t-19 -16.5h-48zM284 153q7 0 12.5 -10t3.5 -29t-14 -40q8 -20 24 -20t36 24t33 75l104 423h-25q-21 0 -18 31q5 35 23 35h80q12 0 14.5 -16.5
t-5 -33t-19.5 -16.5h-14l-108 -438q-20 -76 -51 -113t-59 -37q-22 0 -35.5 17t-15.5 41.5t1 48.5t12.5 41t20.5 17z" />
    <glyph glyph-name="uni01CB" unicode="&#x1cb;" 
d="M-15 0q-11 1 -13.5 17t4.5 32t19 16h13l126 511h-6q-11 0 -13.5 16.5t5 33t19.5 16.5h15q7 0 11 -2q3 2 10 2q13 0 14.5 -15t-4.5 -61q-4 -33 -6 -55q-31 -292 -49 -431l123 496h-6q-11 0 -13.5 16.5t5 33t19.5 16.5h47q11 0 13.5 -16.5t-4.5 -33t-19 -16.5h-12
l-136 -543q-8 -32 -19 -32h-3q-3 -1 -9 -1h-2q-13 0 -14 20t6 67q3 27 5 43q36 345 47 425l-121 -490h6q11 0 13.5 -16t-4.5 -32.5t-19 -16.5h-48zM252 -117q6 0 10 -5t5.5 -17.5t-3.5 -33.5l1.5 -0.5t2.5 -0.5q5 0 11 2.5t16 12t19 25t20.5 45t21.5 68.5l94 380q3 16 -1 25
t-12 9q-14 0 -33 -24.5t-34 -68.5q-8 -28 -22 -28q-17 0 -14 28q2 19 17.5 54.5t42 69.5t51.5 34q23 0 35 -28t6 -72l-110 -443q-19 -60 -51 -106.5t-66 -46.5q-19 0 -29.5 12.5t-11 30.5t3.5 35.5t12.5 30t17.5 12.5zM515 548q-14 0 -15.5 23.5t8 47t23.5 23.5
q13 0 15 -23.5t-8 -47t-23 -23.5z" />
    <glyph glyph-name="uni01CC" unicode="&#x1cc;" 
d="M-1 29l84 337q4 25 -4 25t-28 -76q-1 -3 -3 -11t-3.5 -12.5t-3.5 -9.5t-5.5 -7.5t-8.5 -2.5q-17 0 -14 29q0 6 8.5 41t27 75.5t38.5 40.5q14 0 22.5 -16t9.5 -42q34 58 67 58q23 0 33 -29t3 -81q-6 -50 -39 -159.5t-31 -128.5q10 0 20.5 21.5t19 52.5t8.5 32q6 15 15 15
q18 0 15 -31q-1 -9 -8 -32.5t-18 -52t-27 -49.5t-32 -21q-17 0 -24.5 24t-2.5 61q1 11 7.5 35.5t15 52.5t17.5 60t16.5 60.5t11.5 52.5t2 38t-11 14q-23 0 -49 -56.5t-44 -123t-34.5 -131t-19.5 -70.5q-8 -17 -17 -17q-7 0 -11 9.5t-3 24.5zM252 -117q6 0 10 -5t5.5 -17.5
t-3.5 -33.5l1.5 -0.5t2.5 -0.5q5 0 11 2.5t16 12t19 25t20.5 45t21.5 68.5l94 380q3 16 -1 25t-12 9q-14 0 -33 -24.5t-34 -68.5q-8 -28 -22 -28q-17 0 -14 28q2 19 17.5 54.5t42 69.5t51.5 34q23 0 35 -28t6 -72l-110 -443q-19 -60 -51 -106.5t-66 -46.5q-19 0 -29.5 12.5
t-11 30.5t3.5 35.5t12.5 30t17.5 12.5zM515 548q-14 0 -15.5 23.5t8 47t23.5 23.5q13 0 15 -23.5t-8 -47t-23 -23.5z" />
    <glyph glyph-name="uni01CD" unicode="&#x1cd;" 
d="M303 814q0 12 9 21t21 9h3q5 0 11 -4.5t26 -27t52 -65.5q36 27 81 61q34 26 42 31t16 5q11 0 20 -9t9 -21q-1 -16 -20 -31q-69 -56 -101.5 -81t-40 -29.5t-13.5 -4.5q-7 0 -11.5 2.5t-12 11t-14 18t-22.5 31t-33 42.5q-22 30 -22 41zM23 32q5 20 24 30q7 2 44 2l259 550
q13 28 25.5 34t38.5 6t35 -6.5t8 -34.5l-16 -549q37 0 42 -3q15 -8 10 -29q-4 -15 -14 -22.5t-17.5 -8.5t-19.5 -1h-102q-7 0 -11 0.5t-11 2t-8.5 4.5l-4.5 9t1 16q4 15 13.5 22.5t19 8.5t31.5 1l4 109h-162l-50 -109h14.5t12 -0.5t10.5 -2t6.5 -3.5t4.5 -5.5t1.5 -9
t-1.5 -11.5q-4 -15 -13.5 -22.5t-16.5 -8.5t-20 -1h-102q-7 0 -11 0.5t-11 2t-9 4.5t-5 9t1 16zM243 237h132l17 330z" />
    <glyph glyph-name="uni01CE" unicode="&#x1ce;" 
d="M197 639q0 12 8.5 22t20.5 10q9 0 19.5 -8.5t43.5 -42.5l33 -33q24 15 57.5 38.5t51.5 34.5t26 11q11 0 20 -9t9 -22q-1 -16 -21 -31q-32 -23 -75 -54q-47 -34 -57 -40.5t-18 -6.5q-12 0 -26 15q-15 18 -39 44q-38 42 -45.5 52.5t-7.5 19.5zM85 155q1 72 32 142.5
t82 115.5t103 45q10 0 18.5 -1.5t15.5 -4t14 -6.5t11.5 -7t9 -7.5t7 -6.5t5.5 -5.5l3 -3.5q11 26 35 26q14 0 24 -9.5t10 -25.5q0 -6 -3 -19l-68 -268q-6 -25 -6 -32q0 -11 4.5 -18t8 -8.5t7.5 -1.5q3 0 6.5 2t7 6.5t6 9.5t5.5 12.5l5 12.5t4.5 13.5t3.5 12.5l3 12t3 9
q2 9 4 13.5t10 11t20 6.5h4q20 0 26.5 -10t6.5 -21q0 -3 -3 -17.5t-12 -38.5t-21 -46t-33.5 -37.5t-47.5 -15.5q-29 0 -50 15.5t-30 38.5q-56 -54 -115 -54q-53 0 -85 45t-31 115zM155 152q0 -21 3 -40t15 -35.5t31 -16.5q30 0 64 35.5t57.5 92.5t24.5 111q0 44 -14 69
t-37 25q-31 0 -64.5 -37t-56.5 -93.5t-23 -110.5z" />
    <glyph glyph-name="uni01CF" unicode="&#x1cf;" 
d="M303 814q0 12 9 21t21 9h3q5 0 11 -4.5t26 -27t52 -65.5q36 27 81 61q34 26 42 31t16 5q11 0 20 -9t9 -21q-1 -16 -20 -31q-69 -56 -101.5 -81t-40 -29.5t-13.5 -4.5q-7 0 -11.5 2.5t-12 11t-14 18t-22.5 31t-33 42.5q-22 30 -22 41zM75 33q8 31 49 31h108l128 514h-108
h-9.5t-10.5 1.5t-9 5t-5 9.5t2 16q7 32 48 32h285q7 0 10.5 -0.5t10.5 -2t8.5 -5t4.5 -9.5t-1 -16q-8 -31 -49 -31h-108l-128 -514h108h9.5t10.5 -2t9 -5t5 -9.5t-1 -15.5q-8 -32 -49 -32h-285q-6 0 -9.5 0.5t-10.5 2t-9 4.5t-5 9.5t1 16.5z" />
    <glyph glyph-name="uni01D0" unicode="&#x1d0;" 
d="M229 639q0 12 8.5 22t20.5 10q9 0 19.5 -8.5t43.5 -42.5l33 -33q24 15 57.5 38.5t51.5 34.5t26 11q11 0 20 -9t9 -22q-1 -16 -21 -31q-32 -23 -75 -54q-47 -34 -57 -40.5t-18 -6.5q-12 0 -26 15q-15 18 -39 44q-38 42 -45.5 52.5t-7.5 19.5zM104 302q1 20 13.5 45.5
t32.5 50.5t50.5 42.5t63.5 17.5q41 0 69.5 -26t27.5 -67v-6q0 -17 -49.5 -139.5t-49.5 -133.5q0 -12 8 -19t21 -7q25 0 50 25.5t37 60.5l1.5 5t2 6t2 5.5t3 6l4.5 4.5t6 4t8 2.5t10 1.5q14 0 24.5 -7.5t10.5 -23.5q0 -15 -11.5 -39.5t-31 -51t-51.5 -45.5t-67 -19
q-39 0 -68 25t-29 66q0 26 49 146t49 134q1 12 -7.5 19.5t-20.5 7.5q-28 0 -51.5 -26t-34.5 -60q-1 -2 -3 -8.5t-3 -8.5t-4 -6.5t-6.5 -6.5t-9 -3.5t-13.5 -1.5q-34 0 -33 30z" />
    <glyph glyph-name="uni01D1" unicode="&#x1d1;" 
d="M303 814q0 12 9 21t21 9h3q5 0 11 -4.5t26 -27t52 -65.5q36 27 81 61q34 26 42 31t16 5q11 0 20 -9t9 -21q-1 -16 -20 -31q-69 -56 -101.5 -81t-40 -29.5t-13.5 -4.5q-7 0 -11.5 2.5t-12 11t-14 18t-22.5 31t-33 42.5q-22 30 -22 41zM124 320q21 82 35 131t33 90t35.5 60
t46 32.5t59.5 16.5t80 3q38 0 62 -1.5t46 -8t33 -15.5t18.5 -28t7.5 -41t-5 -59t-14.5 -78t-24.5 -102q-20 -81 -34.5 -130t-33.5 -90t-35.5 -60t-46 -32.5t-59.5 -16.5t-80 -3q-38 0 -62 1.5t-45.5 8t-33 15.5t-18.5 28t-7 40.5t5 59t14 78t24 101.5zM195 330
q-37 -149 -38 -203q-1 -41 20.5 -58t85.5 -17q65 0 96 18t50 63q26 57 60 197q36 142 36 192q0 41 -24 54t-84 13q-63 0 -93.5 -14.5t-50.5 -60.5q-23 -48 -58 -184z" />
    <glyph glyph-name="uni01D2" unicode="&#x1d2;" 
d="M221 639q0 12 8.5 22t20.5 10q9 0 19.5 -8.5t43.5 -42.5l33 -33q24 15 57.5 38.5t51.5 34.5t26 11q11 0 20 -9t9 -22q-1 -16 -21 -31q-32 -23 -75 -54q-47 -34 -57 -40.5t-18 -6.5q-12 0 -26 15q-15 18 -39 44q-38 42 -45.5 52.5t-7.5 19.5zM66 166q1 65 23.5 121
t59.5 92.5t83 57.5t94 21q69 0 115 -49t45 -122q0 -69 -23 -125.5t-59.5 -92t-82 -55t-94.5 -19.5q-69 0 -115.5 48.5t-45.5 122.5zM136 161q-1 -38 26.5 -70t65.5 -32q29 0 60 13.5t60.5 39.5t48.5 73t19 106q1 44 -28 73t-64 29q-29 0 -60 -15t-60 -43t-48 -73.5
t-20 -100.5z" />
    <glyph glyph-name="uni01D3" unicode="&#x1d3;" 
d="M303 814q0 12 9 21t21 9h3q5 0 11 -4.5t26 -27t52 -65.5q36 27 81 61q34 26 42 31t16 5q11 0 20 -9t9 -21q-1 -16 -20 -31q-69 -56 -101.5 -81t-40 -29.5t-13.5 -4.5q-7 0 -11.5 2.5t-12 11t-14 18t-22.5 31t-33 42.5q-22 30 -22 41zM145 610q7 32 48 32h129
q7 0 10.5 -0.5t10.5 -2t8.5 -5t5 -9.5t-0.5 -15q-4 -15 -14 -22.5t-17 -8.5t-19 -1h-30l-89 -359q-20 -78 5.5 -122.5t70.5 -44.5q44 0 92 44.5t68 122.5l89 359h-30h-9.5t-10.5 1.5t-9 5t-5 9.5t2 16q7 32 48 32h129q7 0 10.5 -0.5t10.5 -2t8.5 -5t5 -9.5t-0.5 -15
q-4 -15 -14 -22.5t-17 -8.5t-19 -1h-30l-90 -364q-24 -95 -96 -160.5t-148 -65.5t-115 65.5t-15 160.5l90 364h-30h-9.5t-10.5 1.5t-9 5t-5 9.5t2 16z" />
    <glyph glyph-name="uni01D4" unicode="&#x1d4;" 
d="M229 639q0 12 8.5 22t20.5 10q9 0 19.5 -8.5t43.5 -42.5l33 -33q24 15 57.5 38.5t51.5 34.5t26 11q11 0 20 -9t9 -22q-1 -16 -21 -31q-32 -23 -75 -54q-47 -34 -57 -40.5t-18 -6.5q-12 0 -26 15q-15 18 -39 44q-38 42 -45.5 52.5t-7.5 19.5zM41 301q0 11 8.5 34.5t24 52
t43 49.5t59.5 21q35 0 56 -24.5t20 -61.5q0 -24 -32 -116.5t-33 -136.5q0 -60 41 -60q16 0 30.5 9t25.5 21.5t22 34.5t18 38.5t15 43.5t11.5 41t8.5 38q6 23 15 61q16 67 25 86.5t31 19.5q13 0 22.5 -10t10.5 -24q0 -9 -4 -25l-70 -276q-5 -19 -5 -31t5 -19t11 -7
q18 0 39 76q0 2 2.5 11.5t4 12.5t5.5 9.5t10 9t15 2.5h4q20 0 26.5 -10t6.5 -21q0 -3 -3 -17.5t-11.5 -38.5t-20 -45.5t-33 -37.5t-46.5 -16q-50 0 -74 45q-45 -45 -99 -45q-18 0 -36 5.5t-35 19t-27.5 39t-10.5 61.5q1 40 17.5 96t32.5 100.5t16 57.5q1 18 -11 18
q-17 0 -36 -29q-12 -19 -19.5 -45t-15 -36t-27.5 -10q-14 0 -22 6.5t-9.5 12t-1.5 10.5z" />
    </font>
</defs>
</svg>
