<?xml version="1.0" standalone="no"?>
<!DOCTYPE svg PUBLIC "-//W3C//DTD SVG 1.1//EN" "http://www.w3.org/Graphics/SVG/1.1/DTD/svg11.dtd" >
<svg xmlns="http://www.w3.org/2000/svg" xmlns:xlink="http://www.w3.org/1999/xlink" version="1.1">
<metadata>
Created by FontForge 20201107 at Wed Jun  3 04:57:58 2015
 By www-data
Converted by Andrey V. Panov from TeX fonts. Some glyphs are copied from Blue Sky fonts released by AMS.
</metadata>
<defs>
<font id="DescretMono-Bold" horiz-adv-x="500" >
  <font-face 
    font-family="Descret Mono"
    font-weight="500"
    font-stretch="normal"
    units-per-em="1000"
    panose-1="2 0 6 9 0 0 0 0 0 0"
    ascent="860"
    descent="-140"
    x-height="453"
    cap-height="642"
    bbox="-217 -406 706 1141"
    underline-thickness="50"
    underline-position="-200"
    unicode-range="U+0020-10147"
  />
<missing-glyph 
d="M-11 27v751q0 7 4.5 12t11.5 5h478q7 0 11.5 -5t4.5 -12v-751q0 -7 -4.5 -12.5t-11.5 -5.5h-478q-7 0 -11.5 5.5t-4.5 12.5zM78 192l118 211l-118 211v-422zM123 104h242q-77 132 -122 213q-7 -12 -120 -213zM123 701l120 -214q91 159 122 214h-242zM291 403l119 -211
v421z" />
    <glyph glyph-name=".notdef" 
d="M-11 27v751q0 7 4.5 12t11.5 5h478q7 0 11.5 -5t4.5 -12v-751q0 -7 -4.5 -12.5t-11.5 -5.5h-478q-7 0 -11.5 5.5t-4.5 12.5zM78 192l118 211l-118 211v-422zM123 104h242q-77 132 -122 213q-7 -12 -120 -213zM123 701l120 -214q91 159 122 214h-242zM291 403l119 -211
v421z" />
    <glyph glyph-name="uni0000" 
d="M-2 10v793h505v-793h-505zM58 118l162 289l-162 289v-578zM93 74h315l-158 280zM93 740l157 -280l158 280h-315zM280 407l163 -289v578z" />
    <glyph glyph-name="nonmarkingreturn" 
 />
    <glyph glyph-name="space" unicode=" " 
 />
    <glyph glyph-name="exclam" unicode="!" 
d="M178 571q0 40 19.5 60.5t45.5 20.5q28 0 46.5 -21t18.5 -61l-11 -298q-1 -18 -4.5 -29t-10.5 -15.5t-11.5 -5t-14.5 -0.5h-29q-13 0 -21 3.5t-11.5 9.5t-5 13.5t-0.5 15t0 13.5zM168 80q0 30 21.5 54.5t53.5 24.5q31 0 53 -23t22 -56q0 -31 -21.5 -55.5t-53.5 -24.5
q-30 0 -52.5 23t-22.5 57z" />
    <glyph glyph-name="quotedbl" unicode="&#x22;" 
d="M101 589q0 29 18 45.5t41 16.5t40.5 -16t17.5 -46q0 -8 -5.5 -97t-6.5 -112q-1 -11 -2 -17.5t-5 -16t-14 -14.5t-25 -5t-25 5t-14 14.5t-5 16t-2 16.5l-8 130q-5 67 -5 80zM268 593q0 23 17.5 40.5t41.5 17.5q20 0 39 -14.5t19 -47.5q0 -24 -6 -107t-7 -100
q0 -10 -0.5 -14t-3 -14t-7 -14.5t-13.5 -8.5t-22 -4q-46 0 -46 53l-8 137q-4 53 -4 76z" />
    <glyph glyph-name="numbersign" unicode="#" 
d="M408 594q0 -15 -2.5 -34t-6 -44t-5.5 -40h28q22 0 34.5 -9.5t15.5 -19t3 -20.5q0 -27 -25 -41q-11 -6 -31 -6h-37l-15 -119h56q17 0 28.5 -5t16 -14t6 -15.5t1.5 -12.5q0 -48 -52 -48h-70q-2 -16 -5 -47.5t-6 -54t-7 -36.5q-4 -9 -14.5 -18.5t-26.5 -9.5q-19 0 -32.5 14
t-13.5 34q0 14 5 40q8 56 10 78h-79q-3 -18 -5.5 -44t-3.5 -34q-7 -55 -9 -60q-4 -9 -14.5 -18.5t-27.5 -9.5q-18 0 -31.5 13.5t-13.5 34.5q0 19 4 40q11 74 11 78h-29q-53 0 -53 48q0 47 54 47h40q2 18 7 56t8 63h-58q-16 0 -27.5 5.5t-16 14t-6 15t-1.5 13.5q0 20 13.5 34
t38.5 14l70 1q12 112 18 130q10 33 42 33q20 0 32.5 -13.5t12.5 -32.5q0 -20 -7 -63.5t-8 -54.5q14 0 38.5 0.5t40.5 0.5q2 14 6 46.5t7 56.5t4 27q12 33 44 33q17 0 30.5 -13t13.5 -33zM197 261h78l15 119h-78q-2 -17 -7 -55.5t-8 -63.5z" />
    <glyph glyph-name="dollar" unicode="$" 
d="M34 184q0 35 18.5 50t39.5 15q24 0 41.5 -17.5t17.5 -43.5q0 -13 -10 -34l-2 -4q0 -4 3.5 -12t18 -21t37.5 -20v193q-42 10 -73.5 28.5t-48 37t-27 41t-13 38t-2.5 30.5q0 37 15.5 72t54 65.5t94.5 41.5v25q0 11 1 17.5t4.5 17t13.5 15.5t26 5q14 0 23.5 -5t13.5 -10.5
t6.5 -15.5t2.5 -13.5v-11.5v-24q78 -12 121 -55.5t43 -119.5q0 -33 -19.5 -48.5t-39.5 -15.5q-23 0 -40.5 17.5t-17.5 43.5q0 24 11 36q-18 33 -58 45v-171q81 -18 122.5 -72t41.5 -116q0 -65 -43.5 -119.5t-120.5 -69.5v-24v-14t-2.5 -14.5t-6.5 -15.5t-13.5 -9.5
t-23.5 -4.5q-13 0 -22.5 5t-13.5 10.5t-6.5 16t-2.5 14v11.5v24q-76 8 -120 59.5t-44 126.5zM128 470q0 -22 17.5 -42.5t52.5 -30.5v148q-33 -9 -51.5 -30t-18.5 -45zM289 269v-172q33 11 51.5 35.5t18.5 50.5t-18 49.5t-52 36.5zM289 76l-19 16q10 2 19 5v-21z" />
    <glyph glyph-name="percent" unicode="%" 
d="M12 575q0 63 28.5 106t70.5 43q41 0 69.5 -42.5t28.5 -107.5q0 -64 -28 -107t-70 -43q-41 0 -70 43t-29 108zM62 -30q0 13 6 27q27 71 118.5 314.5t140.5 370.5q0 1 1 3q3 8 5.5 13t8 12t14 10.5t20.5 3.5q21 0 35 -15.5t14 -36.5q0 -8 -6 -27l-260 -688q-4 -9 -6 -13
t-7.5 -12t-14 -11.5t-20.5 -3.5q-20 0 -34.5 15.5t-14.5 37.5zM98 575q0 -16 2 -29t5 -19.5t6 -6.5t6 6.5t5 19.5t2 29q0 15 -2 27.5t-5 19.5t-6 7q-5 0 -9 -16t-4 -38zM278 66q0 63 28 106.5t70 43.5t70.5 -43.5t28.5 -106.5q0 -62 -28.5 -105.5t-70.5 -43.5t-70 43.5
t-28 105.5zM363 66q0 -15 2 -28t5 -19t6 -6t6 6t5 19t2 28q0 16 -2 29t-5 19.5t-6 6.5t-6 -6.5t-5 -19.5t-2 -29z" />
    <glyph glyph-name="ampersand" unicode="&#x26;" 
d="M6 153q0 65 37 116l36 41v-1l22 25q-24 78 -24 157q0 78 34 119.5t80 41.5q29 0 50 -14t32 -37t16 -48t5 -53q0 -30 -6 -55q11 17 46 17h87q12 0 18.5 -1t16 -5t14.5 -14.5t5 -27t-5 -27t-15 -14.5t-16.5 -4.5t-17.5 -0.5h-18l-53 -144q-17 -47 -43 -99q31 -41 59 -41
q17 0 21 41q0 8 2.5 17t13 19t27.5 10h6t10.5 -3t12.5 -7.5t9.5 -14.5t4.5 -24q0 -49 -28 -90.5t-79 -41.5q-60 0 -110 59q-59 -59 -118 -59t-95.5 48t-36.5 115zM280 416v8q-21 -52 -78 -114q13 -36 49 -99q25 54 61 158q-32 6 -32 47zM103 156q0 -24 8.5 -48t27.5 -24
q31 0 63 40q-5 7 -36 64v-1q-25 41 -29 50q-21 -25 -27.5 -40t-6.5 -41zM162 491q0 -39 6 -76q41 53 41 85q0 5 -0.5 12t-2 18.5t-5.5 19.5t-10 8q-11 0 -20 -17.5t-9 -49.5z" />
    <glyph glyph-name="quotesingle" unicode="'" 
d="M185 589q0 29 17.5 45.5t40.5 16.5q25 0 41.5 -17t16.5 -45q0 -10 -5 -79q-1 -24 -3.5 -71.5t-3.5 -59.5q-1 -10 -2 -16.5t-5.5 -16t-14 -14.5t-24.5 -5t-24.5 5t-14 14.5t-5.5 16t-2 16.5l-8 130q-1 15 -2 36.5t-1.5 32t-0.5 11.5z" />
    <glyph glyph-name="parenleft" unicode="(" 
d="M144 321q0 75 22 143.5t53 114t66 80t60.5 50t35.5 15.5q25 0 35 -15t10 -30q0 -11 -3.5 -19t-7 -11t-17.5 -14q-57 -40 -93.5 -98.5t-49.5 -110.5t-13 -105q0 -88 37.5 -172.5t116.5 -140.5h-1q2 -1 7 -4.5t6.5 -4.5t5 -4t4 -4t3 -4t3 -5t1.5 -5t1 -6.5v-7.5
q0 -15 -10 -30t-35 -15q-22 0 -70.5 40.5t-86.5 95.5q-80 121 -80 267z" />
    <glyph glyph-name="parenright" unicode=")" 
d="M61 -37q0 11 4.5 19.5t8 11.5t17.5 13h-1q57 41 94 99t49.5 110t12.5 105q0 24 -2.5 48t-12 61.5t-26 71t-48 71.5t-73.5 67v-1q-23 14 -23 40q0 15 11 30t35 15q21 0 70.5 -40.5t86.5 -94.5q80 -121 80 -268q0 -75 -22 -143.5t-53 -113.5t-66 -79.5t-60.5 -50.5
t-35.5 -16q-24 0 -35 15.5t-11 29.5z" />
    <glyph glyph-name="asterisk" unicode="*" 
d="M44 230q0 31 32 47l76 44q-52 30 -77 44q-11 6 -16 10.5t-10 13.5t-5 23q0 18 13 34t34 16q12 0 30 -13v1l76 -46q-1 25 -1 90q0 58 47 58q48 0 48 -58q0 -76 -1 -89l94 57q20 0 33.5 -6.5t18.5 -17t6 -16t1 -10.5q0 -14 -6 -24t-10 -13t-16 -11l-76 -44q63 -33 87 -49v1
l1.5 -1.5l3.5 -3.5t4 -4.5t4 -6t4 -7.5t3 -9t1 -10q0 -19 -13.5 -34.5t-33.5 -15.5q-10 0 -16.5 2.5t-27.5 15.5l-44 29q-7 5 -18 11q1 -30 1 -90q0 -59 -48 -59q-47 0 -47 59q0 76 1 88l-94 -56q-20 0 -33.5 6t-18.5 16.5t-6 16t-1 11.5z" />
    <glyph glyph-name="plus" unicode="+" 
d="M242.5 81q-20.5 0 -32.5 16.5t-12 41.5v135h-145q-17 5 -28 18.5t-11 28.5q0 18 12 33t42 15h130v134q0 25 12 41.5t33 16.5q46 0 46 -58v-134h130q21 0 34 -9.5t16 -19t3 -19.5q0 -47 -51 -47h-132v-135q0 -25 -13 -41.5t-33.5 -16.5z" />
    <glyph glyph-name="comma" unicode="," 
d="M150 -89q0 34 38 43q36 16 50 46q-29 2 -49 24t-20 56q0 32 20.5 55.5t54.5 23.5q39 0 67 -33t28 -84q0 -42 -17.5 -78.5t-41.5 -57.5t-47 -33t-37 -12q-18 0 -32 16t-14 34z" />
    <glyph glyph-name="hyphen" unicode="-" 
d="M62 232q0 46 49 46h266q26 0 36.5 -14t10.5 -32q0 -48 -49 -48h-267q-46 2 -46 48z" />
    <glyph glyph-name="period" unicode="." 
d="M168 80q0 30 21.5 54.5t53.5 24.5q31 0 53 -23t22 -56q0 -31 -21.5 -55.5t-53.5 -24.5q-30 0 -52.5 23t-22.5 57z" />
    <glyph glyph-name="slash" unicode="/" 
d="M34 -36q0 13 10 34l321 693q15 33 42 33q19 0 32 -13t13 -34q0 -14 -9 -31l-320 -695q0 -1 -1 -3q-17 -31 -42 -31q-19 0 -32.5 13.5t-13.5 33.5z" />
    <glyph glyph-name="zero" unicode="0" 
d="M26 321q0 141 64.5 236t152 95t152.5 -94.5t65 -237.5q0 -140 -64.5 -235t-152.5 -95q-87 0 -152 94.5t-65 236.5zM124 331q0 -103 35 -175t84 -72q50 0 85 72t35 175q0 99 -36 163t-84 64t-83.5 -64.5t-35.5 -162.5z" />
    <glyph glyph-name="one" unicode="1" 
d="M79 483q0 29 14 38t36 10q10 2 22.5 8t32 27t34.5 52q5 11 8.5 17t13 11.5t22.5 5.5q16 0 25.5 -5t13 -15.5t4.5 -17.5t1 -20v-500h70q12 0 18.5 -0.5t16 -4.5t14.5 -14.5t5 -27t-5 -27t-15 -14.5t-16.5 -5t-17.5 -1h-237q-11 0 -17.5 1t-16.5 5t-15 14.5t-5 27t5 27
t14.5 14.5t16 4.5t18.5 0.5h70v369q-45 -26 -83 -26q-47 0 -47 46z" />
    <glyph glyph-name="two" unicode="2" 
d="M28 47q0 14 4.5 21.5t15.5 18.5l210 186q49 43 76 83.5t27 85.5q0 55 -39.5 85.5t-95.5 30.5q-33 0 -57.5 -14.5t-34.5 -41.5q11 -17 11 -36q0 -27 -17.5 -44t-40.5 -17q-21 0 -40 15.5t-19 48.5q0 73 57.5 128t145.5 55q96 0 161.5 -58t65.5 -152q0 -110 -108 -212
q-18 -19 -79.5 -71t-75.5 -65h166q1 25 11 36.5t38 11.5q17 0 27.5 -5t14.5 -15t5 -17.5t1 -20.5v-26q0 -35 -10.5 -46.5t-43.5 -11.5h-321q-11 0 -18 1t-17 5t-15 14.5t-5 26.5z" />
    <glyph glyph-name="three" unicode="3" 
d="M21 152q0 32 17 48t42 16q24 0 40.5 -18t16.5 -43q0 -19 -7 -32q29 -39 115 -39q54 0 88.5 32t34.5 74q0 41 -33.5 74t-92.5 33h-43q-12 0 -18.5 1t-16 5t-14.5 14.5t-5 27.5q0 32 14 38.5t69 11.5q27 2 44 6.5t35 19.5q15 14 24.5 34.5t9.5 39.5q0 26 -27.5 44.5
t-68.5 18.5q-60 0 -84 -18q4 -9 4 -22q0 -28 -18 -45t-40 -17q-23 0 -41 16t-18 47q0 60 52 96.5t144 36.5q86 0 140.5 -46.5t54.5 -109.5q0 -39 -17.5 -78t-49.5 -67q42 -28 68 -70.5t26 -90.5q0 -80 -62 -140t-159 -60q-96 0 -160 44.5t-64 117.5z" />
    <glyph glyph-name="four" unicode="4" 
d="M7 225q0 19 1.5 26t9.5 19v-1l216 356q13 19 21.5 23.5t31.5 4.5h27q34 0 44 -11t10 -47v-333h58q12 0 18.5 -0.5t16 -4.5t14.5 -14.5t5 -27t-5 -27t-15 -14.5t-16.5 -5t-17.5 -1h-58v-74h43q12 0 18.5 -0.5t16 -4.5t14.5 -14.5t5 -27t-5 -27t-15 -14.5t-16.5 -5
t-17.5 -1h-170q-11 0 -17.5 1t-16.5 5t-15 14.5t-5 27t5 27t14.5 14.5t16 4.5t18.5 0.5h42v74h-222q-32 0 -43 11t-11 46zM118 262h165v275z" />
    <glyph glyph-name="five" unicode="5" 
d="M28 159q0 34 19 49t40 15q23 0 40.5 -17t17.5 -45q0 -21 -9 -34q28 -43 94 -43q54 0 92.5 35t38.5 87q0 46 -28.5 83.5t-75.5 37.5q-32 0 -61 -12.5t-46 -32.5l-11 -11t-11 -6.5t-19 -3.5q-17 0 -27 5t-14 15.5t-5 17.5t-1 20v265q0 34 10.5 46t43.5 12h255q12 0 18.5 -1
t16 -5t14.5 -14.5t5 -27t-5 -27t-15 -14.5t-16.5 -5t-17.5 -1h-211v-145q45 19 98 19q87 0 143.5 -65t56.5 -150q0 -90 -66.5 -153t-161.5 -63q-85 0 -143.5 49.5t-58.5 119.5z" />
    <glyph glyph-name="six" unicode="6" 
d="M29 314q0 77 23 142t61.5 107t86.5 65.5t99 23.5q72 0 107 -35t35 -84q0 -29 -16.5 -46.5t-41.5 -17.5t-41.5 18t-16.5 43q0 15 3 24q-12 3 -30 4q-54 0 -100 -44t-63 -121q53 34 119 34q85 0 144 -63t59 -155q0 -95 -63 -157t-149 -62q-32 0 -61.5 9.5t-58 33
t-49.5 59.5t-34 93t-13 129zM138 198q12 -50 39 -82t68 -32q47 0 81 35t34 90q0 50 -31 86.5t-80 36.5q-47 0 -80 -27.5t-33 -67.5q0 -6 3 -28z" />
    <glyph glyph-name="seven" unicode="7" 
d="M21 558v42q0 13 1 20.5t5 17.5t14.5 14.5t27.5 4.5h4h5h5t6 -0.5t5 -2t5.5 -3t5 -4t4.5 -5.5h303q12 0 18.5 -1t16 -5t14.5 -14.5t5 -27.5q0 -16 -4 -22.5t-23 -24.5q-21 -21 -42.5 -48.5t-50.5 -76t-51 -101t-38.5 -126t-18.5 -149.5q-1 -27 -15.5 -41.5t-33.5 -14.5
q-49 0 -49 62q0 61 14 135.5t56 176t106 183.5h-198q-1 -24 -11 -35.5t-38 -11.5q-17 0 -27.5 4.5t-14.5 15t-5 17.5t-1 21z" />
    <glyph glyph-name="eight" unicode="8" 
d="M21 190q0 50 28 90.5t76 63.5q-44 23 -67.5 57.5t-23.5 75.5q0 69 60 122t149 53q90 0 150 -52.5t60 -122.5q0 -87 -92 -133q47 -24 76 -64t29 -90q0 -81 -64 -140.5t-159 -59.5q-93 0 -157.5 60t-64.5 140zM118 191q0 -45 36.5 -76t88.5 -31q53 0 89 31t36 76
q0 42 -34.5 74t-90.5 32q-55 0 -90 -32t-35 -74zM132 476q0 -35 33 -59.5t78 -24.5q46 0 79 24t33 60q0 33 -32 57.5t-80 24.5t-79.5 -24.5t-31.5 -57.5z" />
    <glyph glyph-name="nine" unicode="9" 
d="M29 433q0 95 64.5 157t152.5 62q31 0 59.5 -9t57 -32.5t49 -59.5t33 -93.5t12.5 -129.5q0 -76 -21.5 -140.5t-57 -107t-82 -66.5t-96.5 -24q-39 0 -68.5 9t-45 21.5t-25.5 30t-13 31t-3 26.5q0 30 17 47t42 17t41.5 -18t16.5 -43q0 -11 -3 -21q18 -6 41 -6q53 0 95 47
t57 119q-50 -36 -119 -36q-85 0 -144.5 63.5t-59.5 155.5zM127 433q0 -51 31 -87t80 -36q50 0 81.5 28.5t31.5 65.5l-0.5 7t-0.5 9q-2 8 -2 14q0 1 0.5 4t0.5 5q0 3 -3.5 15t-12 31t-17.5 32q-28 37 -70 37q-47 0 -83 -35t-36 -90z" />
    <glyph glyph-name="colon" unicode=":" 
d="M168 384q0 31 21.5 54.5t53.5 23.5q31 0 53 -22t22 -56q0 -30 -21.5 -55t-53.5 -25q-30 0 -52.5 23t-22.5 57zM168 80q0 30 21.5 54.5t53.5 24.5q31 0 53 -23t22 -56q0 -31 -21.5 -55.5t-53.5 -24.5q-30 0 -52.5 23t-22.5 57z" />
    <glyph glyph-name="semicolon" unicode=";" 
d="M168 383q0 30 21.5 54.5t53.5 24.5q31 0 53 -23t22 -56q0 -31 -21.5 -55.5t-53.5 -24.5q-30 0 -52.5 23t-22.5 57zM150 -89q0 34 38 43q36 16 50 46q-29 2 -49 24t-20 56q0 32 20.5 55.5t54.5 23.5q39 0 67 -33t28 -84q0 -42 -17.5 -78.5t-41.5 -57.5t-47 -33t-37 -12
q-18 0 -32 16t-14 34z" />
    <glyph glyph-name="less" unicode="&#x3c;" 
d="M32 321q0 12 6.5 22.5t10.5 13.5t14 11l318 204q16 10 28 10q17 0 31.5 -13.5t14.5 -32.5q0 -5 -1 -9.5t-1.5 -7.5t-3.5 -7t-4 -5.5t-5 -5t-5 -4.5t-5.5 -4.5t-5.5 -4.5l-259 -168l263 -170l-1 1q28 -17 28 -45q0 -19 -14.5 -32.5t-31.5 -13.5q-12 0 -30 10
q-25 17 -76 50t-83.5 54t-77 49.5t-80.5 51.5l1 -1q-31 16 -31 47z" />
    <glyph glyph-name="equal" unicode="=" 
d="M14 397q0 7 2 13.5t7 14.5t17 13t29 5h350q53 0 53 -47q0 -16 -11.5 -31.5t-37.5 -15.5h-358q-29 0 -40 15t-11 33zM15 246q0 7 1.5 13.5t6 15t15.5 13.5t27 5h356q16 0 27.5 -5.5t16 -14.5t6 -15.5t1.5 -11.5q0 -18 -12 -33t-42 -15h-353q-29 1 -39.5 16t-10.5 32z" />
    <glyph glyph-name="greater" unicode="&#x3e;" 
d="M32 106q0 12 5.5 22t9 13t15.5 12l260 168l-263 170l1 -1q-28 18 -28 46q0 17 14 31.5t32 14.5q10 0 30 -11l316 -203h-1q32 -16 32 -47q0 -12 -6.5 -22.5t-10.5 -13.5t-15 -11l-317 -205q-16 -9 -28 -9q-17 0 -31.5 13t-14.5 33z" />
    <glyph glyph-name="question" unicode="?" 
d="M38 509q0 26 10.5 49.5t32.5 44t61.5 33t91.5 12.5q54 0 95 -11t63 -26.5t35.5 -36t17.5 -36.5t4 -31q0 -70 -71 -111q-95 -56 -95 -140v-17q0 -34 -11 -45t-43 -11q-38 0 -46 12.5t-8 56.5q0 19 1 31.5t8.5 39.5t21.5 49t44 50t71 53q30 15 30 32q0 20 -29 33t-88 13
t-85 -22q5 -12 5 -24q0 -27 -17.5 -44.5t-39.5 -17.5q-23 0 -41 16.5t-18 47.5zM166 66.5q0 28.5 18 47.5t45 19t45.5 -19t18.5 -47.5t-18.5 -47.5t-45.5 -19t-45 19t-18 47.5z" />
    <glyph glyph-name="at" unicode="@" 
d="M21 321.5q0 138.5 78.5 232.5t183.5 94q183 0 183 -312q0 -135 -67 -194h15q52 0 52 -45q0 -30 -57.5 -66.5t-123.5 -36.5q-108 0 -186 94.5t-78 233zM284 88q43 0 80 30q-25 -13 -51 -13q-61 0 -107 61.5t-46 154.5q0 91 45 153.5t109 62.5q8 0 18 -3q-22 19 -49 19
q-70 0 -123.5 -66t-53.5 -167q0 -97 53 -164.5t125 -67.5zM245 320q0 -49 21 -84.5t48 -35.5q26 0 46.5 34.5t20.5 85.5t-21 86.5t-47 35.5t-47 -34.5t-21 -87.5z" />
    <glyph glyph-name="A" unicode="A" 
d="M5 47q0 30 23 43q11 4 36 4l112 509q4 18 9.5 28.5t15.5 15t17.5 5.5t24.5 1q18 0 26 -1t17.5 -5.5t15 -15.5t9.5 -29l111 -508q27 0 35 -4q25 -14 25 -43q0 -16 -5 -26.5t-15.5 -14.5t-17.5 -5t-19 -1h-96q-13 0 -19.5 1t-16.5 5t-15 14.5t-5 26.5q0 28 11.5 37.5
t37.5 9.5l-15 70h-127q-11 -47 -15 -70q26 0 37.5 -9.5t11.5 -37.5q0 -16 -5 -26.5t-15 -14.5t-17 -5t-19 -1h-96q-12 0 -19 1t-17.5 5t-15.5 14.5t-5 26.5zM202 258h83l-42 213z" />
    <glyph glyph-name="B" unicode="B" 
d="M1 47.5q0 16.5 5 27t15 14.5t16.5 4.5t18.5 0.5h9v453h-9q-12 0 -18.5 1t-16.5 5t-15 14.5t-5 27t5 27t15 14.5t16.5 5t17.5 1h214q81 0 130 -53t49 -119q0 -39 -20.5 -74t-54.5 -59q46 -22 70.5 -63t24.5 -91q0 -45 -20 -85.5t-62 -69t-98 -28.5h-233q-11 0 -17.5 1
t-16.5 5t-15 14.5t-5 27zM163 94h104q49 0 76 28t27 63q0 36 -23.5 68.5t-69.5 32.5h-114v-192zM163 380h81q54 0 80 28.5t26 60.5q0 28 -20 53t-65 25h-102v-167z" />
    <glyph glyph-name="C" unicode="C" 
d="M17 321q0 141 72.5 236t171.5 95q65 0 119 -39q4 9 4 12q2 3 2 5q15 22 39 22q16 0 26 -5t13.5 -15.5t4.5 -17.5t1 -20v-137q0 -14 -1 -21.5t-5 -17.5t-15 -14.5t-28 -4.5q-16 0 -25.5 3.5t-14.5 12t-6.5 13t-3.5 17.5q-9 53 -38.5 83t-67.5 30q-59 0 -104.5 -68
t-45.5 -169q0 -102 45.5 -169.5t105.5 -67.5q33 0 67 26t39 79q4 45 49 45q9 0 14.5 -1t15 -5t14.5 -15.5t5 -28.5q0 -77 -60 -135.5t-148 -58.5q-100 0 -172.5 95t-72.5 236z" />
    <glyph glyph-name="D" unicode="D" 
d="M-3 47q0 17 5 27.5t15 14.5t16.5 4.5t18.5 0.5h5v453h-5q-9 0 -14 0.5t-14 3t-14 7t-9 14t-4 22.5q0 17 5 27.5t15 14.5t16.5 5t18.5 1h195q65 0 117 -47t79 -120.5t27 -158.5t-27.5 -156.5t-79 -115.5t-116.5 -44h-195q-9 0 -14 0.5t-14 3t-14 7t-9 14t-4 22.5zM154 94
h75q45 0 79 33.5t49.5 83t15.5 105.5q0 57 -15 108t-49 87t-80 36h-75v-453z" />
    <glyph glyph-name="E" unicode="E" 
d="M4 47.5q0 16.5 5 27t15 14.5t16.5 4.5t18.5 0.5h12v453h-12q-11 0 -17.5 1t-17 5t-15.5 14.5t-5 27t5 27t15.5 14.5t17 5t17.5 1h353q34 0 44 -12t10 -46v-73q0 -14 -1 -21.5t-5 -17.5t-15 -14t-28 -4t-27.5 4.5t-14.5 14.5t-5 17.5t-1 20.5v36h-200v-168h92q0 33 9 45
t40 12q17 0 27.5 -4.5t14.5 -15t5 -17.5t1 -21v-92q0 -14 -1 -21.5t-5 -17.5t-14.5 -14.5t-27.5 -4.5q-31 0 -40 12t-9 45h-92v-191h220v52q0 14 1 21.5t5 17.5t15 14.5t29 4.5q17 0 27.5 -4.5t14.5 -15t5 -17.5t1 -21v-88q0 -35 -10.5 -46.5t-43.5 -11.5h-374
q-11 0 -17.5 1t-17 5t-15.5 14.5t-5 27z" />
    <glyph glyph-name="F" unicode="F" 
d="M6 47.5q0 16.5 5 27t15 14.5t16.5 4.5t18.5 0.5h15v453h-15q-11 0 -17.5 1t-17 5t-15.5 14.5t-5 27t5 27t15 14.5t16.5 5t18.5 1h360q34 0 44 -12t10 -46v-73q0 -14 -1 -21.5t-5 -17.5t-15 -14t-28 -4t-27.5 4.5t-14.5 14.5t-5 17.5t-1 20.5v36h-205v-179h97
q1 33 9.5 44.5t39.5 11.5q17 0 27.5 -4.5t14.5 -14.5t5 -17t1 -20v-94q0 -13 -1 -20.5t-5 -17t-14.5 -14.5t-27.5 -5q-31 0 -39.5 12t-9.5 45h-97v-180h33q12 0 18.5 -0.5t16 -4.5t14.5 -14.5t5 -27t-5 -27t-15 -14.5t-16.5 -5t-17.5 -1h-145q-11 0 -17.5 1t-17 5
t-15.5 14.5t-5 27z" />
    <glyph glyph-name="G" unicode="G" 
d="M15 321q0 141 67 236t161 95q58 0 104 -35q8 21 17.5 28t27.5 7q16 0 26 -5t13.5 -15.5t4.5 -17.5t1 -20v-137q0 -14 -1 -21.5t-5 -17.5t-15 -14.5t-28 -4.5q-25 0 -35.5 11t-13.5 32q-10 62 -37.5 89t-55.5 27q-52 0 -92.5 -67.5t-40.5 -170.5q0 -100 40 -168t92 -68
q32 0 56 31t33 93h-20q-12 0 -18.5 1t-16 5t-14.5 14t-5 27t5 27.5t15 14.5t16.5 4.5t17.5 0.5h112q11 0 17.5 -0.5t17 -4.5t15.5 -14.5t5 -27.5q0 -45 -44 -47v-150q0 -14 -1 -21.5t-5 -17.5t-15 -14.5t-28 -4.5q-37 0 -45 24q-53 -34 -100 -34q-93 0 -160.5 94.5
t-67.5 236.5z" />
    <glyph glyph-name="H" unicode="H" 
d="M0 47.5q0 16.5 5 27t14.5 14.5t16 4.5t18.5 0.5h8v453h-8q-11 0 -17.5 1t-16.5 5t-15 14.5t-5 27t5 27t14.5 14.5t16 5t18.5 1h113q11 0 17.5 -1t16.5 -5t15 -14.5t5 -27t-5 -27t-15 -14.5t-16.5 -5t-17.5 -1h-8v-167h169v167h-8q-12 0 -18.5 1t-16 5t-14.5 14.5t-5 27
t5 27t15 14.5t16.5 5t17.5 1h113q12 0 18.5 -1t16 -5t14.5 -14.5t5 -27t-5 -27t-15 -14.5t-16.5 -5t-17.5 -1h-8v-453h8q12 0 18.5 -0.5t16 -4.5t14.5 -14.5t5 -27t-5 -27t-15 -14.5t-16.5 -5t-17.5 -1h-113q-12 0 -18.5 1t-16 5t-14.5 14.5t-5 27t5 27t15 14.5t16.5 4.5
t17.5 0.5h8v192h-169v-192h8q11 0 17.5 -0.5t16.5 -4.5t15 -14.5t5 -27t-5 -27t-15 -14.5t-16.5 -5t-17.5 -1h-113q-11 0 -17.5 1t-16.5 5t-15 14.5t-5 27z" />
    <glyph glyph-name="I" unicode="I" 
d="M54 47.5q0 16.5 5 27t15.5 14.5t17 4.5t17.5 0.5h86v453h-86q-11 0 -17.5 1t-17 5t-15.5 14.5t-5 27t5 27t15.5 14.5t17 5t17.5 1h270q11 0 17.5 -1t17 -5t15.5 -14.5t5 -27t-5 -27t-15.5 -14.5t-17 -5t-17.5 -1h-86v-453h86q11 0 17.5 -0.5t17 -4.5t15.5 -14.5t5 -27
t-5 -27t-15.5 -14.5t-17 -5t-17.5 -1h-270q-11 0 -17.5 1t-17 5t-15.5 14.5t-5 27z" />
    <glyph glyph-name="J" unicode="J" 
d="M47 116q0 31 17 47.5t41 16.5q25 0 41.5 -18t16.5 -43q0 -13 -3 -21q24 -14 60 -14q9 0 19 2t25.5 8t25.5 22t10 40v391h-62q-11 0 -17.5 1t-17 5t-15.5 14.5t-5 27t5 27t15.5 14.5t17 5t17.5 1h172q10 0 17 -1t17 -5t15 -14.5t5 -27t-5 -27t-15 -14.5t-16.5 -5t-17.5 -1
h-13v-397q0 -73 -52 -116.5t-125 -43.5q-77 0 -125 35.5t-48 90.5z" />
    <glyph glyph-name="K" unicode="K" 
d="M4 47.5q0 16.5 5 27t15.5 14.5t17 4.5t17.5 0.5h4v453h-4q-12 0 -18.5 1t-16.5 5t-15 14.5t-5 27t5 27t15.5 14.5t17 5t17.5 1h94q12 0 18.5 -1t16.5 -5t15 -14.5t5 -27t-5 -27t-15.5 -14.5t-17 -5t-17.5 -1h-4v-198l152 202q-24 9 -24 43q0 17 5.5 27.5t15.5 14.5
t16.5 5t17.5 1h84q11 0 17.5 -1t16.5 -5t15.5 -14.5t5.5 -27.5q0 -29 -15 -38t-48 -9q-20 -26 -64 -84t-68 -91l147 -278q15 0 23.5 -1.5t17 -6t12.5 -14t4 -25.5t-5 -26.5t-15.5 -14.5t-17 -5t-17.5 -1h-71q-12 0 -18.5 1t-16.5 5t-15 14.5t-5 26.5q0 35 28 45
q-71 133 -109 204l-69 -92v-110h4q12 0 18.5 -0.5t16.5 -4.5t15 -14.5t5 -27t-5 -27t-15.5 -14.5t-17 -5t-17.5 -1h-94q-12 0 -18.5 1t-16.5 5t-15 14.5t-5 27z" />
    <glyph glyph-name="L" unicode="L" 
d="M9 47.5q0 16.5 5 27t15 14.5t16.5 4.5t17.5 0.5h19v453h-19q-11 0 -17.5 1t-16.5 5t-15 14.5t-5 27t5 27t15 14.5t16.5 5t17.5 1h154q11 0 17.5 -1t17 -5t15.5 -14.5t5 -27t-5.5 -27t-15.5 -14.5t-16.5 -5t-17.5 -1h-37v-453h196v52q0 15 1 22.5t5 17t14.5 14t28 4.5
t28.5 -4.5t15 -14.5t5 -17.5t1 -21.5v-88q0 -35 -10.5 -46.5t-43.5 -11.5h-357q-11 0 -17.5 1t-16.5 5t-15 14.5t-5 27z" />
    <glyph glyph-name="M" unicode="M" 
d="M-5 47q0 29 12 38t38 9v453q-26 1 -38 10t-12 37q0 17 5 27.5t15 14.5t16.5 5t17.5 1h53q49 0 63 -36v-3q2 -7 22 -65.5t36.5 -111t20.5 -71.5q2 7 11 33q10 33 31.5 101.5t31.5 100.5q6 18 8.5 23.5t10 14.5t18.5 11.5t30 2.5h53q10 0 17 -1t17 -5t15 -14.5t5 -27.5
q0 -28 -12 -37t-39 -10v-453q27 0 39 -9t12 -38q0 -16 -5 -26.5t-15 -14.5t-17 -5t-17 -1h-78q-11 0 -17.5 1t-16.5 5t-15 14.5t-5 26.5q0 29 12 38t38 9q0 72 -0.5 168t-0.5 173q-58 -191 -64 -201q-17 -31 -48 -31q-26 0 -41 22q-5 6 -14.5 32.5t-13.5 44.5l-7 22
q-35 112 -36 117v-347q26 0 38 -9t12 -38q0 -16 -5 -26.5t-15 -14.5t-16.5 -5t-17.5 -1h-78q-11 0 -17.5 1t-16.5 5t-15 14.5t-5 26.5z" />
    <glyph glyph-name="N" unicode="N" 
d="M6 47.5q0 16.5 5 27t15 14.5t16.5 4.5t17.5 0.5h7v453h-7q-12 0 -18.5 1t-16 5t-14.5 14.5t-5 27t5 27t15 14.5t16.5 5t17.5 1h64q26 0 40.5 -9.5t25.5 -38.5l144 -407v360h-7q-11 0 -17.5 1t-16.5 5t-15 14.5t-5 27t5 27t14.5 14.5t16 5t18.5 1h100q12 0 18.5 -1t16 -5
t14.5 -14.5t5 -27t-5 -27t-15 -14.5t-16.5 -5t-17.5 -1h-7v-489q0 -38 -11.5 -48t-44.5 -10q-19 0 -28.5 2t-20.5 12.5t-19 32.5l-144 408v-361h8q12 0 18.5 -0.5t16 -4.5t14.5 -14.5t5 -27t-5 -27t-15 -14.5t-16.5 -5t-17.5 -1h-100q-12 0 -18.5 1t-16 5t-14.5 14.5t-5 27z
" />
    <glyph glyph-name="O" unicode="O" 
d="M32 320q0 61 1 102t5.5 78.5t10 59t18 40.5t26 27.5t38 15t49 8t63.5 1.5t64 -1.5t49 -8t38 -15.5t26.5 -28t18 -40.5t10 -59t5.5 -78t1 -101.5t-1 -101.5t-5.5 -77.5t-10.5 -59t-18.5 -40.5t-26 -27.5t-37.5 -15.5t-49 -7.5t-64 -1t-63.5 1t-49 7.5t-38 15.5t-26 27.5
t-18 40.5t-10 59t-5.5 77.5t-1 101.5zM130 330q0 -133 11 -188q8 -30 30 -44t72 -14q54 0 75.5 13.5t28.5 48.5q10 54 10 184q0 134 -10 177q-9 32 -31 41.5t-73 9.5q-53 0 -74 -11.5t-29 -46.5q-10 -45 -10 -170z" />
    <glyph glyph-name="P" unicode="P" 
d="M4 47.5q0 16.5 5 27t15 14.5t16.5 4.5t17.5 0.5h13v453h-13q-10 0 -17 1t-17 5t-15 14.5t-5 27t5 27t15 14.5t17 5t17 1h213q85 0 140 -60t55 -139q0 -80 -54.5 -139.5t-140.5 -59.5h-103v-150h13q11 0 17.5 -0.5t17 -4.5t15.5 -14.5t5 -27t-5 -27t-15.5 -14.5t-17 -5
t-17.5 -1h-123q-10 0 -17 1t-17 5t-15 14.5t-5 27zM168 338h85q55 0 85 33t30 72t-30 71.5t-85 32.5h-85v-209z" />
    <glyph glyph-name="Q" unicode="Q" 
d="M32 320q0 61 1 102t5.5 78.5t10 59t18 40.5t26 27.5t38 15t49 8t63.5 1.5t64 -1.5t49 -8t38 -15.5t26.5 -28t18 -40.5t10 -59t5.5 -78t1 -101.5q0 -114 -6 -168q-7 -59 -21 -90.5t-41 -47.5q24 -45 27 -50l8 -15q20 -42 20 -52q0 -13 -3.5 -20.5t-11.5 -10.5t-14 -4
t-17 -1h-9q-12 0 -18.5 1t-14.5 6.5t-15 15.5l-8 18q-39 78 -43 88h-45q-39 0 -63.5 1t-49 7.5t-38 15.5t-26 27.5t-18 40.5t-10 59t-5.5 77.5t-1 101.5zM130 320q0 -118 8 -169q7 -35 27.5 -51t70.5 -16h3l-31 63q-5 12 -5 21q0 13 4 20.5t12 10.5t14 4t16 1h11
q20 0 26 -3.5t16 -20.5l35 -68q20 32 20 209q0 119 -8 169q-7 40 -29 54t-77 14q-54 0 -74.5 -13.5t-29.5 -47.5q-9 -50 -9 -177z" />
    <glyph glyph-name="R" unicode="R" 
d="M0 47.5q0 16.5 5 27t14.5 14.5t16 4.5t18.5 0.5h8v453h-8q-11 0 -17.5 1t-16.5 5t-15 14.5t-5 27t5 27t14.5 14.5t16 5t18.5 1h168q88 0 144 -55t56 -129q0 -91 -70 -141q22 -24 35 -52q7 -19 8 -34t1 -66v-31.5t1 -24.5t3.5 -19.5t6.5 -5.5q2 0 2 27q1 48 48 48
q9 0 14.5 -1t15 -5t14.5 -15.5t5 -28.5q0 -24 -9 -50t-32.5 -47.5t-56.5 -21.5q-61 0 -89 54v-1q-14 24 -17 50t-3 85q0 23 -0.5 32.5t-4 20.5t-11.5 19q-25 24 -66 24h-58v-180h8q12 0 18.5 -0.5t16 -4.5t14.5 -14.5t5 -27t-5 -27t-15 -14.5t-16.5 -5t-17.5 -1h-113
q-11 0 -17.5 1t-16.5 5t-15 14.5t-5 27zM159 368h52q53 0 83 27.5t30 62.5q0 34 -30 61.5t-83 27.5h-52v-179z" />
    <glyph glyph-name="S" unicode="S" 
d="M28 47v131q0 14 1 21.5t5 17.5t15 14.5t29 4.5q16 0 26 -4t14.5 -12.5t6 -15.5t1.5 -19q3 -50 37 -74q38 -27 102 -27q46 0 73 28.5t27 64.5q0 76 -93 96l-110 26q-62 19 -98 67.5t-36 105.5q0 73 54.5 126.5t138.5 53.5q71 0 124 -36q6 20 14.5 28t28.5 8q16 0 26 -5
t13.5 -15.5t4.5 -17.5t1 -20v-131q0 -14 -1 -21t-5 -17.5t-15 -15t-28 -4.5q-23 0 -34 9.5t-15 33.5v-1q-16 111 -115 111q-42 0 -70 -24.5t-28 -56.5q0 -28 18.5 -49.5t46.5 -28.5l-1 1l76 -18q64 -15 90 -27t56 -43q50 -53 50 -130t-54 -134.5t-140 -57.5q-88 0 -147 35
q-6 -19 -16 -27t-28 -8q-16 0 -26 5t-13.5 15.5t-4.5 17.5t-1 19z" />
    <glyph glyph-name="T" unicode="T" 
d="M4 511v73q0 35 10.5 46.5t44.5 11.5h370q34 0 44 -12t10 -46v-73q0 -14 -1 -21.5t-5 -17.5t-15 -14t-28 -4t-27.5 4.5t-14.5 14.5t-5 17.5t-1 20.5v36h-93v-453h33q12 0 18.5 -0.5t16 -4.5t14.5 -14.5t5 -27t-5 -27t-15 -14.5t-16.5 -5t-17.5 -1h-164q-12 0 -18.5 1
t-16 5t-14.5 14.5t-5 27t5 27t15 14.5t16.5 4.5t17.5 0.5h33v453h-94v-36q0 -14 -1 -21.5t-5 -17.5t-15 -14t-28 -4t-27.5 4.5t-14.5 14.5t-5 17.5t-1 20.5z" />
    <glyph glyph-name="U" unicode="U" 
d="M-17 594.5q0 16.5 5 27t15.5 14.5t17 5t17.5 1h122q11 0 17.5 -1t17 -5t15.5 -14.5t5 -27t-5 -27t-15.5 -14.5t-17 -5t-17.5 -1h-12v-322q0 -67 29.5 -104t65.5 -37t66 37t30 104v322h-12q-11 0 -17.5 1t-17 5t-15.5 14.5t-5 27t5 27t15.5 14.5t17 5t17.5 1h122
q11 0 17.5 -1t17 -5t15.5 -14.5t5 -27t-5 -27t-15 -14.5t-16.5 -5t-18.5 -1h-12v-328q0 -97 -57.5 -163t-136.5 -66t-136 66t-57 163v328h-12q-11 0 -17.5 1t-17 5t-15.5 14.5t-5 27z" />
    <glyph glyph-name="V" unicode="V" 
d="M-4 594q0 17 5 27.5t15.5 14.5t17 5t17.5 1h97q11 0 17.5 -1t17 -5t15.5 -14.5t5 -27.5q0 -27 -12 -36.5t-38 -10.5l88 -366h1q0 -1 0.5 -4t0.5 -4q1 6 9.5 39.5t12.5 51.5h-1q9 37 32 131.5t36 151.5q-25 1 -36.5 10.5t-11.5 36.5q0 17 5 27.5t15.5 14.5t17 5t17.5 1h97
q11 0 17.5 -1t17 -5t15.5 -14.5t5 -27.5q0 -31 -12.5 -39t-46.5 -8l-121 -505h1q-4 -18 -10.5 -29t-16.5 -15.5t-18 -5t-24 -0.5q-17 0 -24.5 0.5t-17 5.5t-15.5 15.5t-10 29.5l-122 504q-34 0 -46 8t-12 39z" />
    <glyph glyph-name="W" unicode="W" 
d="M-10 594q0 17 5 27.5t15 14.5t17 5t17 1h75q12 0 18.5 -1t16 -5t14.5 -14.5t5 -27t-5 -27t-15 -14.5t-16.5 -5t-17.5 -1h-5q6 -50 13 -106.5t15.5 -123.5t13.5 -106q25 133 34 157q15 31 53 31q42 0 55 -37q2 -7 4 -17q3 -14 10.5 -43t11.5 -49t7 -44l1 15q0 2 0.5 5.5
t0.5 5.5l40 312h-5q-11 0 -17.5 1t-16.5 5t-15 14.5t-5 27t5 27t14.5 14.5t16 5t18.5 1h74q11 0 17.5 -1t17 -5t15.5 -14.5t5 -27.5q0 -42 -38 -47l-66 -505q-2 -18 -8.5 -29t-16 -15t-15.5 -5t-15 -1q-42 0 -52 34q-7 19 -43 191q-38 -183 -43 -196q-14 -29 -51 -29
q-9 0 -15 1t-15.5 5t-16 15t-8.5 29l-68 506q-36 7 -36 46z" />
    <glyph glyph-name="X" unicode="X" 
d="M5 47.5q0 16.5 5 27t14.5 14.5t16 4.5t18.5 0.5h10q22 47 61.5 128t56.5 117l-105 208h-12q-11 0 -17.5 1t-17 5t-15.5 14.5t-5 27t5 27t15.5 14.5t17 5t17.5 1h99q11 0 17.5 -1t16.5 -5t15 -14.5t5 -27.5q0 -40 -32 -46q4 -7 20 -37.5t28 -53.5q18 38 42 91
q-17 3 -26 13t-9 33q0 17 5 27.5t15 14.5t16.5 5t17.5 1h99q11 0 17.5 -1t17 -5t15.5 -14.5t5 -27t-5 -27t-15.5 -14.5t-17 -5t-17.5 -1h-11l-99 -205l125 -248h12q11 0 17.5 -0.5t17 -4.5t15.5 -14.5t5 -27t-5 -27t-15.5 -14.5t-17 -5t-17.5 -1h-98q-11 0 -17.5 1t-16.5 5
t-15 14.5t-5 26.5q0 26 7.5 35.5t24.5 10.5q-9 20 -31 67t-35 73q-11 -25 -31.5 -69t-32.5 -71q18 -1 27 -11t9 -35q0 -16 -5 -26.5t-15.5 -14.5t-17 -5t-17.5 -1h-98q-11 0 -17.5 1t-16.5 5t-15 14.5t-5 27z" />
    <glyph glyph-name="Y" unicode="Y" 
d="M-3 594.5q0 16.5 5 27t15 14.5t16.5 5t17.5 1h99q11 0 17.5 -1t16.5 -5t15 -14.5t5 -27.5q0 -42 -35 -46q3 -5 24.5 -51.5t34 -75t16.5 -47.5q8 17 74 174q-17 2 -26 12t-9 34q0 17 5 27.5t15 14.5t16.5 5t17.5 1h99q11 0 17.5 -1t16.5 -5t15 -14.5t5 -27t-5 -27
t-15 -14.5t-16.5 -5t-17.5 -1h-11l-132 -291v-162h7q12 0 18.5 -0.5t16 -4.5t14.5 -14.5t5 -27t-5 -27t-15 -14.5t-16.5 -5t-17.5 -1h-112q-12 0 -18.5 1t-16 5t-14.5 14.5t-5 27t5 27t15 14.5t16.5 4.5t17.5 0.5h7v162l-133 291h-11q-12 0 -18.5 1t-16 5t-14.5 14.5t-5 27z
" />
    <glyph glyph-name="Z" unicode="Z" 
d="M25 50q0 21 12 40l295 457h-198v-36q0 -14 -1 -21.5t-5 -17.5t-15 -14t-29 -4q-17 0 -27.5 4.5t-14.5 14.5t-5 17.5t-1 20.5v73q0 35 10.5 46.5t44.5 11.5h316q13 0 20 -1t16.5 -5.5t14 -15.5t4.5 -29q0 -21 -12 -41l-295 -456h214v55q0 14 1 21.5t5 17.5t15 14.5t29 4.5
q17 0 27.5 -4.5t14.5 -14.5t5 -17.5t1 -21.5v-91q0 -35 -10.5 -46.5t-43.5 -11.5h-333q-13 0 -20 1t-16.5 5t-14 15t-4.5 29z" />
    <glyph glyph-name="bracketleft" unicode="[" 
d="M241 -83q-53 0 -49 53v703q0 17 5 28t14 16t16 6t16 1h177q51 0 51 -48q0 -19 -11 -33t-36 -14h-134v-617h134q25 0 36 -14t11 -34q0 -47 -49 -47h-181z" />
    <glyph glyph-name="backslash" unicode="\" 
d="M34 676q0 20 14.5 34t31.5 14q12 0 22 -7t13.5 -13t10.5 -19v-3l315 -681q11 -23 11 -37q0 -20 -14 -33.5t-31 -13.5q-13 0 -23.5 8.5t-14.5 15t-10 19.5l-315 684q-1 3 -4 9t-4.5 11.5t-1.5 11.5z" />
    <glyph glyph-name="bracketright" unicode="]" 
d="M15 -36q0 20 11.5 34t36.5 14h133v618q-22 0 -66.5 -0.5t-66.5 -0.5q-25 0 -36.5 14t-11.5 33q0 48 50 48h180q28 0 40 -14.5t10 -37.5v-704q0 -24 -11 -37.5t-40 -13.5h-177q-52 0 -52 47z" />
    <glyph glyph-name="asciicircum" unicode="^" 
d="M87 522q9 4 50.5 26.5t68.5 34.5t38 12q8 0 18 -4t55 -27l83 -42q9 -4 12.5 -6t10.5 -7.5t10 -13.5t3 -18q0 -18 -14 -37.5t-36 -19.5q-13 0 -67 30l-70 38l-6 2q-1 0 -47 -25l-66 -36q-18 -9 -31 -9q-20 0 -34 20t-14 37q0 31 37 46z" />
    <glyph glyph-name="underscore" unicode="_" 
d="M32 -43q0 7 2 14.5t7 16.5t17.5 15t29.5 6h312q31 0 43 -17t12 -36t-13 -34.5t-44 -15.5h-311q-31 1 -43 17t-12 34z" />
    <glyph glyph-name="grave" unicode="`" 
d="M80 617q0 23 15 38t35 15q11 0 79 -32q10 -3 33 -14.5t36 -17.5q1 -1 3 -2q10 -5 15.5 -8.5t11.5 -13.5t6 -22q0 -19 -13.5 -38t-34.5 -19q-9 0 -54 21q-11 5 -17 8l-78 35q-12 7 -17 10.5t-12.5 14.5t-7.5 25z" />
    <glyph glyph-name="a" unicode="a" 
d="M34 141q0 73 75.5 115t201.5 46q-7 67 -102 67q-21 0 -32 -1q-5 0 -5 4q-1 -32 -19 -46t-37 -14q-24 0 -41 16.5t-17 45.5q0 21 7.5 36.5t22 24.5t28.5 15t34.5 8t31 2.5t26.5 0.5q52 0 92 -15t62.5 -40t34 -53.5t11.5 -58.5l2 -200q6 -2 38 -2q10 0 16.5 -0.5t16 -4.5
t14.5 -14.5t5 -26.5t-4 -26t-14 -14t-18.5 -5t-25.5 -1q-26 0 -38.5 0.5t-32.5 7t-32 18.5q-58 -32 -132 -32q-76 0 -122.5 43.5t-46.5 103.5zM130 141q0 -22 22 -38.5t57 -16.5q47 0 76 15q13 6 19 14t7 14t1 18v65q-85 -5 -133.5 -24t-48.5 -47z" />
    <glyph glyph-name="b" unicode="b" 
d="M-7 581q0 16 5 26.5t14.5 14.5t16 5t18.5 1h67q33 0 43 -11.5t10 -45.5v-144q48 31 102 31q81 0 139 -68t58 -163q0 -98 -62 -165.5t-145 -67.5q-51 0 -94 32q-5 -26 -45 -26q-17 0 -27.5 4.5t-14.5 14.5t-5 17t-1 21v479h-26q-10 0 -16.5 0.5t-16.5 4.5t-15 14t-5 26z
M167 203q0 -38 24 -77.5t65 -39.5q45 0 79.5 40t34.5 101q0 57 -31 97.5t-75 40.5q-38 0 -67.5 -27.5t-29.5 -64.5v-70z" />
    <glyph glyph-name="c" unicode="c" 
d="M50 227q0 29 7.5 59.5t25 62.5t43 56.5t66 40t89.5 15.5q17 0 28 -0.5t32 -2.5t35 -8t29 -15t22.5 -24.5t7.5 -36.5q0 -28 -17 -45t-41 -17t-39.5 15.5t-16.5 48.5q-3 -7 -40 -7q-32 0 -57 -11t-39 -27t-23.5 -36.5t-12.5 -37t-3 -30.5q0 -59 38 -100t91 -41q59 0 78 49
l-1 -1q7 21 16.5 26.5t29.5 5.5q48 0 48 -43q0 -8 -4.5 -21.5t-17 -32.5t-31 -35.5t-51 -28t-72.5 -11.5q-93 0 -156.5 68.5t-63.5 164.5z" />
    <glyph glyph-name="d" unicode="d" 
d="M16 226q0 98 61 165t145 67q47 0 92 -28v106h-25q-10 0 -16.5 0.5t-16.5 4.5t-15 14t-5 26t5 26.5t14.5 14.5t16 5t17.5 1h68q33 0 43 -11.5t10 -45.5v-479h26q10 0 16.5 -0.5t16.5 -4.5t15 -14.5t5 -26.5t-5 -26.5t-15 -14t-16.5 -4.5t-17.5 -1h-68q-27 0 -38.5 7
t-13.5 23q-45 -36 -102 -36q-80 0 -138.5 67.5t-58.5 164.5zM112 226q0 -58 31 -99t74 -41q42 0 69.5 39.5t27.5 80.5v68q0 36 -25.5 63.5t-62.5 27.5q-45 0 -79.5 -39t-34.5 -100z" />
    <glyph glyph-name="e" unicode="e" 
d="M33 228q0 96 63 164.5t152 68.5q94 0 145 -63.5t51 -159.5q0 -18 -4 -29.5t-13 -16t-15.5 -5.5t-20.5 -1h-256q15 -46 52.5 -73t81.5 -27q22 0 45.5 11t35.5 38v-1q6 21 15.5 26.5t29.5 5.5q49 0 49 -43q0 -13 -10 -32.5t-30 -42.5t-57.5 -38.5t-84.5 -15.5
q-96 0 -162.5 68.5t-66.5 165.5zM136 277h208q-14 92 -96 92q-37 0 -67.5 -26t-44.5 -66z" />
    <glyph glyph-name="f" unicode="f" 
d="M20 46q0 16 5 26.5t15 14.5t17 4.5t17 0.5h78v268h-78q-10 0 -16.5 1t-16.5 4.5t-15 13.5t-5 26q0 17 5 27.5t15 14.5t16.5 5t17.5 1h77v34q0 68 47.5 107t113.5 39q10 0 18.5 -0.5t26 -4.5t29.5 -11t21.5 -22t9.5 -36q0 -27 -17.5 -43.5t-38.5 -16.5q-20 0 -33 13
t-19 29q-63 -3 -63 -59v-29h98q11 0 17.5 -1t16 -5t14.5 -14.5t5 -27.5q0 -16 -5 -26t-15 -13.5t-16.5 -4.5t-16.5 -1h-98v-268h78q11 0 17.5 -0.5t16.5 -4.5t15 -14.5t5 -26.5t-5 -26.5t-15 -14t-16.5 -4.5t-17.5 -1h-251q-10 0 -17 1t-17 4.5t-15 14t-5 26.5z" />
    <glyph glyph-name="g" unicode="g" 
d="M9 -63q0 77 63 125q-15 34 -15 65q0 41 14 65q-25 43 -25 94q0 70 48.5 121t119.5 51q53 0 89 -25q44 30 99 30q42 0 63 -21.5t21 -47.5q0 -28 -16.5 -42t-36.5 -14q-11 0 -25 8t-22 24q-2 -1 -21 -6q18 -39 18 -78q0 -72 -49.5 -123t-119.5 -51q-34 0 -73 17v-3
q2 -15 7 -24q9 -8 19 -8q7 -2 27 -2h65q90 0 141 -30q36 -20 54.5 -55.5t18.5 -69.5q0 -68 -67.5 -114t-164.5 -46t-164.5 45.5t-67.5 114.5zM95 -63q0 -27 42.5 -47.5t103.5 -20.5t103.5 20.5t42.5 47.5q0 12 -4 22t-12.5 17t-17 12t-23.5 8t-26 4.5t-29.5 2.5t-29 1h-29.5
q-50 0 -63.5 -1.5t-27.5 -10.5q-30 -20 -30 -55zM141 286q0 -33 21.5 -57t51.5 -24t51.5 23.5t21.5 57.5q0 32 -21.5 56t-51.5 24t-51.5 -23.5t-21.5 -56.5z" />
    <glyph glyph-name="h" unicode="h" 
d="M-7 46q0 16 5 26.5t15 14.5t16.5 4.5t17.5 0.5h25v444h-26q-10 0 -16.5 0.5t-16.5 4.5t-15 14t-5 26t5 26.5t15 14.5t16.5 5t17.5 1h68q32 0 42.5 -12t10.5 -45v-146q47 33 105 33q65 0 101 -38.5t36 -118.5v-209h25q11 0 17.5 -0.5t16 -4.5t14.5 -14t5 -26.5t-5 -27
t-15 -14t-16.5 -4.5t-16.5 -1h-141q-42 0 -51 24q-10 -24 -49 -24h-148q-10 0 -16.5 1t-16.5 4.5t-15 14t-5 26.5zM193 92q41 0 50 -25q4 12 14 18t17 6.5t20 0.5h20v205q0 37 -9.5 52.5t-36.5 15.5q-37 0 -68.5 -29.5t-31.5 -87.5v-156h25z" />
    <glyph glyph-name="i" unicode="i" 
d="M191 575q0 28 19.5 47.5t44.5 19.5t44 -19.5t19 -47.5t-19 -47.5t-43 -19.5q-28 0 -46.5 19.5t-18.5 47.5zM55 46.5q0 16.5 5 26.5t14.5 14t16 4.5t17.5 0.5h97v268h-89q-11 0 -17.5 1t-16.5 5t-15 14t-5 26.5t5 26.5t15 14t16.5 5t17.5 1h131q33 0 43 -12t10 -45v-304
h82q10 0 17 -0.5t17 -4.5t15 -14.5t5 -26.5t-5 -26.5t-15 -14t-17 -4.5t-17 -1h-274q-10 0 -16.5 1t-16.5 4.5t-15 14t-5 27z" />
    <glyph glyph-name="j" unicode="j" 
d="M251 575q0 28 19.5 47.5t44.5 19.5t44 -19.5t19 -47.5t-19 -47.5t-43 -19.5q-28 0 -46.5 19.5t-18.5 47.5zM25 -131q0 28 17 44.5t40 16.5q21 0 38.5 -16t18.5 -41q16 -2 35 -2q13 0 20.5 1t20 8t21.5 20q21 31 21 79v381h-104q-11 0 -17.5 1t-16 4.5t-14.5 13.5t-5 26
q0 17 5 27.5t14.5 14.5t16 5t18.5 1h146q33 0 43 -12t10 -45v-422q0 -23 -4.5 -47t-17.5 -51.5t-33 -48.5t-53.5 -35t-75.5 -14q-16 0 -26 0.5t-29.5 3t-32.5 8.5t-27.5 15t-21.5 25.5t-7 38.5z" />
    <glyph glyph-name="k" unicode="k" 
d="M2 46q0 16 5 26.5t14.5 14.5t16 4.5t17.5 0.5h29v444h-29q-12 0 -18.5 0.5t-16 4.5t-14 14t-4.5 26.5t5 26.5t14.5 14t16 5t17.5 1h60q32 0 42.5 -12t10.5 -45v-304l93 93q-46 0 -46 45q0 17 4.5 27.5t14 14.5t16 5t18.5 1h143q10 0 16.5 -1t16.5 -5t15 -14.5t5 -27.5
q0 -16 -5 -26t-15 -13.5t-16.5 -4.5t-16.5 -1h-27q-18 -17 -50 -49l-50 -50l126 -169h21q11 0 17.5 -0.5t16.5 -4.5t15 -14.5t5 -26.5t-5 -26.5t-15 -14t-16.5 -4.5t-17.5 -1h-109q-11 0 -17.5 1t-16 4.5t-14.5 14t-5 26.5q0 23 8.5 33t27.5 12l-82 112q-17 -18 -55 -56v-55
h29q12 0 18.5 -0.5t16 -4.5t14 -14t4.5 -26.5t-5 -27t-14.5 -14t-16 -4.5t-17.5 -1h-142q-12 0 -18.5 1t-16 4.5t-14 14t-4.5 26.5z" />
    <glyph glyph-name="l" unicode="l" 
d="M36 46.5q0 16.5 5 26.5t14.5 14t16 4.5t18.5 0.5h104v444h-105q-10 0 -16.5 0.5t-16.5 4.5t-15 14t-5 26t5 26.5t14.5 14.5t16 5t18.5 1h146q33 0 43 -11.5t10 -45.5v-479h105q11 0 17.5 -0.5t16 -4.5t14.5 -14t5 -26.5t-5 -27t-15 -14t-16.5 -4.5t-16.5 -1h-305
q-10 0 -16.5 1t-16.5 4.5t-15 14t-5 27z" />
    <glyph glyph-name="m" unicode="m" 
d="M-21 46q0 28 12 37t40 9v268q-28 1 -40 10t-12 36q0 17 5 27t15 14t16.5 5t16.5 1h30q34 0 45 -18q38 23 77 23q47 0 74 -39q20 19 46 29t48 10q23 0 41 -9t28 -24.5t16.5 -30.5t9 -34.5t3 -28.5t0.5 -19v-220q29 0 41 -9t12 -37q0 -16 -5 -26.5t-15 -14t-16.5 -4.5
t-17.5 -1h-74q-36 0 -47 17q-11 -17 -46 -17h-75q-36 0 -47 17q-11 -17 -46 -17h-82q-10 0 -16.5 1t-16.5 4.5t-15 14t-5 26.5zM283 92q36 -1 46 -16q10 15 38 16v210q0 63 -19 63q-25 0 -45 -31t-20 -84v-158zM115 92q36 -1 46 -16q10 15 38 16v210q0 63 -18 63
q-26 0 -46 -31t-20 -84v-158z" />
    <glyph glyph-name="n" unicode="n" 
d="M-7 46q0 16 5 26.5t15 14.5t16.5 4.5t17.5 0.5h25v268h-26q-10 0 -16.5 1t-16.5 4.5t-15 13.5t-5 26q0 17 5 27.5t15 14.5t16.5 5t17.5 1h68q25 0 36.5 -7t14.5 -22q48 34 107 34q65 0 101 -38.5t36 -118.5v-209h25q11 0 17.5 -0.5t16 -4.5t14.5 -14t5 -26.5t-5 -27
t-15 -14t-16.5 -4.5t-16.5 -1h-141q-42 0 -51 24q-10 -24 -49 -24h-148q-10 0 -16.5 1t-16.5 4.5t-15 14t-5 26.5zM193 92q41 0 50 -25q4 12 14 18t17 6.5t20 0.5h20v205q0 37 -9.5 52.5t-36.5 15.5q-37 0 -68.5 -29.5t-31.5 -87.5v-156h25z" />
    <glyph glyph-name="o" unicode="o" 
d="M35 227q0 97 61 165.5t145 68.5t145 -68.5t61 -165.5q0 -98 -61 -165.5t-145 -67.5t-145 67t-61 166zM131 233q0 -60 32.5 -103.5t77.5 -43.5t77.5 43.5t32.5 103.5q0 58 -32.5 97t-77.5 39t-77.5 -39t-32.5 -97z" />
    <glyph glyph-name="p" unicode="p" 
d="M-7 -170q0 16 5 26.5t14.5 14t16 4.5t18.5 1h25v484h-26q-10 0 -16.5 1t-16.5 4.5t-15 13.5t-5 26q0 17 5 27.5t14.5 14.5t16 5t18.5 1h67q26 0 37 -6t14 -21q49 32 104 32q81 0 139 -68t58 -163q0 -98 -62 -165.5t-145 -67.5q-49 0 -92 30v-148h25q12 0 18.5 -1t16 -4.5
t14.5 -14t5 -26.5t-5 -26.5t-15 -14t-16.5 -4.5t-16.5 -1h-147q-10 0 -16.5 1t-16.5 4.5t-15 14t-5 26.5zM167 203q0 -38 24 -77.5t65 -39.5q45 0 79.5 40t34.5 101q0 57 -31 97.5t-75 40.5q-38 0 -67.5 -27.5t-29.5 -64.5v-70z" />
    <glyph glyph-name="q" unicode="q" 
d="M20 226q0 98 64 165t150 67q57 0 101 -34q2 20 11.5 27t36.5 7q17 0 27 -4.5t14 -14t5 -17t1 -20.5v-526h30q11 0 17.5 -1t16 -4.5t14 -14t4.5 -26.5t-5 -26.5t-14.5 -14.5t-16 -4.5t-16.5 -0.5h-155q-12 0 -18.5 1t-16 4.5t-14 14t-4.5 27.5q0 16 5 26t14.5 13.5t16 4.5
t17.5 1h29v157q-49 -39 -109 -39q-83 0 -144 67.5t-61 164.5zM116 226q0 -58 34 -99t79 -41q46 0 75.5 39t29.5 81v38q0 45 -26.5 83t-68.5 38q-50 0 -86.5 -40t-36.5 -99z" />
    <glyph glyph-name="r" unicode="r" 
d="M12 46q0 16 5 26.5t14.5 14.5t16 4.5t17.5 0.5h59v268h-59q-12 0 -18.5 1t-16 5t-14 14t-4.5 26.5t5 26.5t14.5 14t16 5t17.5 1h102q30 0 40.5 -11t11.5 -39q62 55 142 55q32 0 54.5 -8.5t32 -21.5t13.5 -24.5t4 -22.5q0 -26 -16 -42t-39 -16q-20 0 -34 12t-19 30
q-67 -3 -102.5 -52t-35.5 -116v-105h88q10 0 16.5 -0.5t16.5 -4.5t15 -14.5t5 -26.5t-5 -26.5t-15 -14t-16.5 -4.5t-16.5 -1h-242q-12 0 -18.5 1t-16 4.5t-14 14t-4.5 26.5z" />
    <glyph glyph-name="s" unicode="s" 
d="M49 50v95q0 14 1 21t5 17t14.5 14.5t27.5 4.5q13 0 21.5 -3t13.5 -9.5t7.5 -12t5.5 -15.5q26 -76 103 -76q52 0 77.5 15t25.5 38q0 38 -106 54q-34 6 -55.5 10.5t-51.5 15t-47 24t-29.5 36t-12.5 51.5q0 14 3.5 29t15.5 34t32 33.5t56.5 24.5t84.5 10q52 0 91 -16
q9 16 36 16q15 0 24.5 -5t13 -15t4.5 -17t1 -19v-67q0 -14 -1 -21t-5 -17t-14.5 -14.5t-27.5 -4.5q-15 0 -25 4t-14.5 12t-6 14.5t-1.5 18.5q-3 17 -18.5 28t-58.5 11q-52 0 -77 -12t-25 -27q0 -24 81 -38q11 -3 41 -7l18 -4q16 -2 30.5 -5.5t40.5 -14t44.5 -24.5t32.5 -40
t14 -58q0 -18 -4.5 -35.5t-17.5 -38t-33 -36t-55.5 -25.5t-81.5 -10q-65 0 -113 28q-14 -28 -41 -28q-16 0 -25.5 5t-13 15.5t-4.5 17.5t-1 18z" />
    <glyph glyph-name="t" unicode="t" 
d="M5 405q0 17 5 27.5t14.5 14.5t16 5t17.5 1h65v63q0 13 1 20.5t5 17t14.5 14t27.5 4.5t27.5 -4.5t14.5 -14.5t5 -17t1 -20v-63h136q11 0 17.5 -1t16 -5t14.5 -14.5t5 -27.5q0 -16 -5 -26t-15 -13.5t-16.5 -4.5t-16.5 -1h-136v-215q0 -11 1 -18t5.5 -18t17 -17t31.5 -6
q20 0 39.5 12t20.5 42q0 12 1 19t5 16.5t14 13.5t27 4t27.5 -4t14.5 -13.5t5 -16.5t1 -19q0 -69 -48 -107.5t-111 -38.5t-105 35.5t-42 110.5v220h-66q-10 0 -16.5 1t-16 4.5t-14.5 13.5t-5 26z" />
    <glyph glyph-name="u" unicode="u" 
d="M-7 405q0 17 5 27.5t15 14.5t16.5 5t17.5 1h68q32 0 42.5 -12t10.5 -45v-263q0 -11 1 -17t6 -14.5t17.5 -12t32.5 -3.5q12 0 25 3t28.5 11t25.5 26t10 43v191h-26q-10 0 -16.5 1t-16.5 4.5t-15 13.5t-5 26q0 17 5 27.5t15 14.5t16.5 5t17.5 1h68q32 0 42.5 -12t10.5 -45
v-304h25q10 0 16.5 -0.5t16.5 -4.5t15 -14.5t5 -26.5t-5 -26.5t-14.5 -14t-16 -4.5t-17.5 -1h-68q-37 0 -47 20q-46 -26 -100 -26q-148 0 -148 133v233h-26q-10 0 -16.5 1t-16.5 4.5t-15 13.5t-5 26z" />
    <glyph glyph-name="v" unicode="v" 
d="M5 405q0 17 4.5 27.5t14 14.5t16 5t17.5 1h109q11 0 17.5 -1t16 -5t14.5 -14.5t5 -27.5q0 -16 -5 -26t-15 -13.5t-16.5 -4.5t-16.5 -1h-5l80 -246q9 29 25 77t29.5 89t25.5 80h-5q-11 0 -17.5 1t-16 5t-14.5 14t-5 26.5t5 26.5t14.5 14t16 5t17.5 1h108q12 0 18.5 -1
t16 -5t14 -14.5t4.5 -27.5q0 -16 -5 -26t-14.5 -13.5t-16 -4.5t-17.5 -1h-16l-103 -320q-15 -44 -64 -44q-12 0 -19 0.5t-16.5 4.5t-16.5 13.5t-12 25.5l-103 320h-17q-10 0 -16.5 1t-16 4.5t-14.5 13.5t-5 26z" />
    <glyph glyph-name="w" unicode="w" 
d="M-3 406q0 17 5 27t14.5 14t16.5 5t19 1h106q13 0 20 -1t16.5 -5t14 -14.5t4.5 -27.5q0 -16 -4.5 -26t-14.5 -13.5t-17 -4.5t-19 -1h-27q6 -37 16.5 -91.5t18.5 -102.5q23 85 25 88q15 32 52 32q31 0 41 -14t25 -70q7 -23 8 -23v-2q1 -4 2 -9q3 22 14 87.5t17 104.5h-27
q-13 0 -19.5 1t-16 5t-14 14t-4.5 26.5t4.5 26.5t14.5 14t16.5 5t18.5 1h107q12 0 19 -1t16.5 -5t14.5 -14t5 -27q0 -27 -12.5 -36t-37.5 -10l-53 -314q-2 -14 -4.5 -20.5t-8 -14.5t-16.5 -11.5t-28 -3.5q-36 0 -52 24q-8 11 -30 103l-12 -47q-16 -55 -26.5 -67.5
t-45.5 -12.5q-18 0 -29.5 3.5t-17 11.5t-8 14.5t-4.5 20.5l-53 314q-26 1 -38 9.5t-12 36.5z" />
    <glyph glyph-name="x" unicode="x" 
d="M7 46q0 16 5 26.5t15 14.5t16.5 4.5t17.5 0.5h31q19 27 52 72.5t49 67.5l-97 128h-29q-11 0 -17.5 1t-16.5 4.5t-15 13.5t-5 26q0 17 5 27.5t15 14.5t16.5 5t17.5 1h108q10 0 16.5 -1t16.5 -5t15 -14t5 -27q0 -39 -30 -44q3 -4 16.5 -23.5t23.5 -31.5q7 9 19.5 26.5
t19.5 27.5q-16 3 -24 13t-8 32q0 17 5 27t15 14t16.5 5t16.5 1h109q10 0 16.5 -1t16.5 -5t15 -14.5t5 -27.5q0 -16 -5 -26t-15 -13.5t-16.5 -4.5t-16.5 -1h-31q-73 -101 -93 -128q87 -113 107 -140h30q10 0 16.5 -0.5t16.5 -4.5t15 -14.5t5 -26.5t-5 -26.5t-15 -14
t-16.5 -4.5t-16.5 -1h-109q-10 0 -16.5 1t-16.5 4.5t-15 14t-5 26.5q0 40 33 45q-40 54 -53 75l-50 -75q18 -1 26 -10.5t8 -34.5q0 -16 -5 -26.5t-14.5 -14t-16 -4.5t-17.5 -1h-108q-11 0 -17.5 1t-16.5 4.5t-15 14t-5 26.5z" />
    <glyph glyph-name="y" unicode="y" 
d="M6 405q0 17 5 27.5t14.5 14.5t16 5t17.5 1h109q11 0 17.5 -1t16 -5t14 -14.5t4.5 -27.5q0 -16 -5 -26t-14.5 -13.5t-16 -4.5t-16.5 -1l78 -211l2 -9q15 42 41.5 124.5t31.5 95.5h-5q-11 0 -17.5 1t-16 5t-14.5 14t-5 26.5t5 26.5t14.5 14t16 5t17.5 1h108q12 0 18.5 -1
t16 -5t14 -14.5t4.5 -27.5q0 -16 -5 -26t-14.5 -13.5t-16 -4.5t-17.5 -1h-16q-123 -378 -140 -432q-4 -12 -7.5 -21.5t-18 -35.5t-30 -44t-42 -33.5t-55.5 -15.5q-40 0 -66.5 29t-26.5 67q0 27 15.5 43.5t41.5 16.5q24 0 39.5 -16.5t15.5 -42.5q25 13 40 43q4 8 10 25
t11 32.5t9 28t4 13.5l-3 6l-128 337h-18q-10 0 -16.5 1t-16.5 4.5t-15 13.5t-5 26z" />
    <glyph glyph-name="z" unicode="z" 
d="M13 49q0 18 3.5 25.5t21.5 25.5l260 260h-175v-8q0 -14 -1 -21t-5 -17t-14.5 -14.5t-27.5 -4.5t-27.5 4.5t-14.5 14.5t-5 17t-1 21v44q0 34 11 45.5t43 11.5h315q13 0 19.5 -1t16 -5.5t14 -15t4.5 -28t-3.5 -25.5t-21.5 -26l-260 -260h193v20q0 14 1 21.5t5 17t14.5 14
t27.5 4.5t27.5 -4.5t14.5 -14t5 -17t1 -21.5v-55v-13.5t-2 -12.5t-5.5 -12.5t-11 -10t-17.5 -8.5h-352q-13 0 -19.5 1t-16 5t-13.5 15t-4 28z" />
    <glyph glyph-name="braceleft" unicode="{" 
d="M32 320q0 18 9 31t24 17h15q107 3 113 38q1 8 1 18v158q0 69 48 105.5t162 36.5q27 0 38.5 -13.5t11.5 -33.5q0 -17 -4 -27t-15 -14t-20.5 -5.5t-28.5 -1.5q-46 -2 -73 -15q-20 -9 -20 -30v-160q0 -19 -1 -30.5t-11.5 -34t-30.5 -39.5q16 -12 25.5 -26t13 -30.5t4 -23.5
t0.5 -23v-155q0 -25 23 -36q24 -10 69 -12q15 -1 22.5 -2t18 -3.5t15.5 -7.5t9 -14t4 -22q0 -18 -11 -32.5t-37 -15.5h-10q-109 2 -155.5 38t-46.5 104v158q0 25 -14 34q-5 4 -11 6q-25 13 -71 15q-19 1 -27 2t-19.5 5.5t-15.5 14.5t-4 26z" />
    <glyph glyph-name="bar" unicode="|" 
d="M194 662q0 27 12.5 44.5t36.5 17.5q6 0 13 -2t16 -7t15 -17.5t6 -30.5v-687q0 -15 -1 -21q-3 -15 -16 -28.5t-33 -13.5q-6 0 -12.5 2t-15.5 7.5t-15 18t-6 30.5v687z" />
    <glyph glyph-name="braceright" unicode="}" 
d="M32 -35q0 33 27 44q5 2 30 4q91 5 104 32q1 2 1 18v154q0 18 0.5 25.5t3.5 24t12.5 29.5t24.5 25q-41 35 -41 97v161q0 8 -0.5 12t-6 12t-16.5 12.5t-33.5 8.5t-55.5 5q-50 0 -50 47q0 19 10.5 33t36.5 15h12q110 -2 156 -38t46 -104v-158q0 -9 0.5 -13t6 -13.5t16 -14.5
t33 -10t55.5 -5q6 0 12 -1.5t16 -5t16 -14t6 -26.5q0 -17 -9.5 -30t-23.5 -17l1 1q-5 -1 -19 -1q-102 -7 -109 -40q-1 -8 -1 -17v-157q0 -42 -16 -70.5t-46.5 -44t-66 -22t-83.5 -6.5q-49 0 -49 48z" />
    <glyph glyph-name="asciitilde" unicode="~" 
d="M177 541q-19 0 -42.5 -26.5t-41.5 -26.5q-17 0 -32 14.5t-15 34.5q0 22 42 63.5t88 41.5q38 0 89 -32q31 -21 46 -21q18 0 41 25.5t41 25.5q17 0 31.5 -14t14.5 -33q0 -23 -41.5 -64t-87.5 -41q-43 0 -90 34q-30 18 -43 19z" />
    <glyph glyph-name="uni00A0" unicode="&#xa0;" 
 />
    <glyph glyph-name="exclamdown" unicode="&#xa1;" 
d="M168 -151q0 6 1 24q1 56 5 161.5t5 134.5q2 50 47 50h33q16 0 26.5 -5t15 -15t5.5 -17.5t2 -19.5v-4q2 -51 5 -153.5t5 -153.5q0 -43 -24 -63t-51 -20q-30 0 -52.5 22t-22.5 59zM168 342q0 31 21.5 55t53.5 24q31 0 53 -22.5t22 -56.5q0 -30 -21.5 -55t-53.5 -25
q-30 0 -52.5 23t-22.5 57z" />
    <glyph glyph-name="cent" unicode="&#xa2;" 
d="M20 231q0 86 57 152t149 83v58q1 51 45 51q18 0 31.5 -11t13.5 -39v-55q29 -1 51.5 -4t48 -12t39.5 -27.5t14 -46.5q0 -25 -17 -43.5t-42 -18.5q-19 0 -36 13t-21 40l-18 2q-5 0 -9 0.5t-10 0.5v-281q21 5 35.5 13.5t19.5 14.5t11 17v-2q6 12 10.5 18t14.5 11t24 5
q26 0 37 -14t11 -31q0 -12 -8.5 -29.5t-25.5 -39t-51 -38.5t-78 -22v-56q0 -27 -13.5 -38.5t-31.5 -11.5q-44 0 -45 49v59q-93 16 -149.5 82t-56.5 151zM119 232q0 -42 28 -79.5t79 -53.5v270q-50 -16 -78.5 -55.5t-28.5 -81.5z" />
    <glyph glyph-name="sterling" unicode="&#xa3;" 
d="M22 68q0 39 30 63t75 24q14 0 32 -2q2 17 2 27v94h-29q-10 0 -16.5 1t-15.5 5.5t-13.5 14.5t-4.5 26t5 26.5t14 14t16 5t16 1.5h28v94q0 49 15.5 87t40 59t50.5 31.5t52 10.5q46 0 80 -29t49.5 -67.5t15.5 -77.5q0 -35 -18.5 -49.5t-38.5 -14.5q-25 0 -42 18.5t-17 41.5
q0 20 10 35l2 2q0 12 -11 28.5t-31 16.5q-21 0 -39.5 -23t-18.5 -67v-96h53q48 0 48 -48q0 -46 -48 -46h-53v-96q0 -33 -5 -54q1 0 1 -1q76 -31 102 -31q14 0 21 11.5t8 22.5l0.5 2t0.5 3q1 11 2 18t5.5 16t15 13.5t26.5 4.5q26 0 37.5 -14t11.5 -35q0 -28 -13 -59
t-44 -55.5t-72 -24.5q-11 0 -24.5 2t-23.5 4.5t-26 7.5t-23 7.5t-24 9t-19 7.5q-2 0 -11 5q-28 -24 -57.5 -33.5t-44.5 -9.5q-34 0 -58 20.5t-24 52.5z" />
    <glyph glyph-name="currency" unicode="&#xa4;" 
d="M477 121q54 -57 67.5 -74.5t13.5 -32.5q0 -22 -15 -37t-33 -15q-16 0 -32.5 13.5t-59.5 61.5l-12 10q-71 -52 -162 -52q-93 0 -164 52l-18 -19q-39 -42 -53.5 -54t-29.5 -12q-19 0 -34 15t-15 37q0 16 11 31t48 53l23 24q-51 74 -51 171q0 99 50 171l-20 20
q-44 47 -52.5 59t-8.5 28q0 21 15 36t34 15q14 0 32.5 -15t58.5 -58l12 -11q70 52 162 52q87 0 163 -53l17 17q37 39 54 53.5t32 14.5q18 0 33 -15t15 -36q0 -17 -11.5 -32.5t-52.5 -57.5l-17 -18q51 -78 51 -170q0 -97 -51 -172zM59 293q0 -79 53 -137t132 -58
q76 0 130.5 56t54.5 139q0 79 -53 136t-132 57q-76 0 -130.5 -55.5t-54.5 -137.5z" />
    <glyph glyph-name="yen" unicode="&#xa5;" 
d="M430 253q25 0 41.5 -12.5t16.5 -35.5q0 -9 -3 -17.5t-14.5 -19t-31.5 -10.5h-146v-62h9q52 0 52 -49q0 -11 -3 -20t-15 -18t-33 -9h-120q-50 0 -50 47q0 28 13 38.5t38 10.5h10v62h-148q-20 0 -31.5 10.5t-14 18.5t-2.5 17q0 15 9 28t23 18q10 3 26 3h137q0 3 -3 9.5
t-5 12.5l-15 33h-118q-54 0 -54 46q0 48 55 48h75q-8 17 -21.5 45.5t-24.5 52.5t-21 46h-14q-51 0 -51 47q0 20 11 34.5t38 14.5h108q52 0 52 -48q0 -37 -36 -46l65 -146h19q10 24 32 73t32 72q-18 4 -27 16.5t-9 29.5q0 10 3 19.5t15 19.5t32 10h108q27 0 39 -13.5
t12 -34.5q0 -48 -51 -48h-14l-66 -144h76q21 0 34 -9.5t16 -19t3 -19.5q0 -46 -51 -46h-120q-3 -7 -8.5 -17.5t-9.5 -19.5t-5 -18h136z" />
    <glyph glyph-name="brokenbar" unicode="&#xa6;" 
d="M194 -21v264q0 23 14 38.5t35 15.5q20 0 35 -13t15 -48v-258q0 -19 -5.5 -32t-14 -18.5t-15.5 -7.5t-15 -2q-49 0 -49 61zM194 405v259q0 34 16 47t33 13q13 0 26.5 -8.5t20.5 -26.5q3 -11 3 -26v-258q0 -19 -5 -31.5t-13.5 -18t-16 -8t-15.5 -2.5q-19 0 -30.5 11.5
t-15.5 24.5q-3 10 -3 24z" />
    <glyph glyph-name="section" unicode="&#xa7;" 
d="M366 450q-19 0 -34.5 14t-15.5 38q-2 21 -24 36q-20 13 -49 13q-41 0 -70.5 -22t-29.5 -53q0 -17 11 -31.5t32 -25.5t36.5 -17.5t37.5 -14.5l19 -6q151 -58 151 -176q0 -78 -63 -130q63 -54 63 -129.5t-55.5 -124t-131.5 -48.5q-70 0 -120.5 40.5t-50.5 101.5
q0 25 15 40.5t35 15.5q16 0 30 -11t18 -29l-2 3q2 -5 2 -15q3 -23 25 -38q21 -12 49 -12q42 0 71.5 22.5t29.5 53.5q0 50 -117 87l-22 7q-149 57 -149 177q0 77 63 130q-63 52 -63 129q0 74 56 123t131 49q77 0 124 -43.5t47 -98.5q0 -25 -14.5 -40t-34.5 -15zM143 216
q0 -18 12 -33.5t29 -25t35 -16t29 -9.5t13 -3q25 0 54.5 21t29.5 55q0 17 -12 32.5t-29 25t-35 16t-29.5 9.5t-13.5 3q-25 0 -54 -20.5t-29 -54.5z" />
    <glyph glyph-name="dieresis" unicode="&#xa8;" 
d="M83 574q0 28 18.5 48t45.5 20q25 0 44 -19.5t19 -47.5t-18 -47.5t-45 -19.5q-26 0 -45 19t-19 47zM277 574q0 28 18 48t45 20q25 0 44.5 -19.5t19.5 -47.5t-18 -47.5t-46 -19.5t-45.5 19.5t-17.5 46.5z" />
    <glyph glyph-name="copyright" unicode="&#xa9;" 
d="M50 230q0 102 56 171t134 69q42 0 79 -22q16 22 38 22q17 0 31 -11t14 -41v-96q0 -9 -1 -15t-5 -16.5t-15.5 -16t-30.5 -5.5q-14 0 -23 3.5t-14 11t-7.5 13.5t-4.5 18q0 2 -1 5.5t-1.5 6t-0.5 3.5q-5 17 -20 31t-36 14q-35 0 -64 -41t-29 -105q0 -63 29 -103.5t66 -40.5
q21 0 37.5 11.5t20.5 30.5q0 1 0.5 3.5l0.5 2.5q3 51 49 51q50 0 50 -51q0 -54 -47 -98.5t-115 -44.5q-79 0 -134.5 69t-55.5 171zM-92 252q0 130 43.5 240.5t121 176.5t171.5 66q138 0 237 -140t99 -343q0 -102 -27 -192.5t-72.5 -154t-107 -100.5t-128.5 -37
q-92 0 -169.5 64t-122.5 175.5t-45 244.5zM7 253q0 -105 31.5 -193t86 -138.5t118.5 -50.5q94 0 166 108t72 272q0 85 -21 158t-54.5 121t-76 75t-85.5 27q-45 0 -87.5 -27.5t-75.5 -76t-53.5 -121t-20.5 -154.5z" />
    <glyph glyph-name="ordfeminine" unicode="&#xaa;" 
d="M12 262q0 16 10 30t28 18q7 1 22 1h347q22 0 34 -9q22 -16 22 -40q0 -10 -3 -19t-16 -18.5t-34 -9.5h-359q-21 0 -33.5 10.5t-15 19.5t-2.5 17zM39 460q0 32 21 53t76.5 34t149.5 16q-2 32 -22 53t-58 21q-7 0 -23 -2q-3 -26 -20 -40.5t-38 -14.5q-23 0 -40.5 17
t-17.5 46q0 50 37.5 70t103.5 20q75 0 126.5 -49t51.5 -132v-112q1 0 17 0.5t25 0.5h15q26 0 38 -14t12 -34q0 -48 -49 -48h-21q-61 0 -84 5.5t-34 18.5q-51 -29 -115 -29t-107.5 33.5t-43.5 86.5zM282 470q-94 -2 -140 -20q15 -15 56 -15q21 0 47 8.5t37 26.5zM130 444
l8 18q0 -7 4 -12z" />
    <glyph glyph-name="guillemotleft" unicode="&#xab;" 
d="M263 0q-11 0 -20.5 4.5t-12.5 7.5l-12 12v-1l-178 171q-1 2 -8.5 10t-10 14.5t-2.5 17.5q0 24 21 39l178 172l4 2q20 21 41 21q24 0 34 -14.5t10 -30.5q0 -14 -5 -22t-19 -22q-91 -87 -152 -145l69 -67q13 -13 41 -40.5t42 -40.5t19 -21.5t5 -21.5q0 -15 -10 -30t-34 -15
zM343 446l12 12t13 8t19 4q24 0 34.5 -14.5t10.5 -30.5q0 -13 -5.5 -21.5t-19.5 -22.5l-119 -113q-9 -9 -15 -15.5t-7.5 -8.5t-3.5 -4t-6 -5q22 -22 47 -46.5t56 -54t48 -46.5q10 -10 14 -14.5t7.5 -12t3.5 -16.5q0 -15 -10.5 -30t-34.5 -15q-5 0 -9.5 1t-8 2.5t-8 4.5
t-6.5 4.5t-6.5 5.5t-5.5 5l-178 171q-1 2 -8.5 10t-10 14.5t-2.5 17.5q0 24 21 39l178 172v-1z" />
    <glyph glyph-name="logicalnot" unicode="&#xac;" 
d="M20 340q0 7 2 14.5t7 16.5t17 15t29 6h334q11 0 18.5 -1.5t17.5 -6.5t15.5 -18.5t5.5 -34.5v-233q0 -34 -15 -47.5t-34 -13.5q-51 0 -50 62v190h-292q-32 1 -43.5 18t-11.5 33z" />
    <glyph glyph-name="uni00AD" unicode="&#xad;" 
d="M145 232q0 46 49 46h98q50 0 50 -47t-50 -47h-97q-50 0 -50 48z" />
    <glyph glyph-name="registered" unicode="&#xae;" 
d="M271 150q0 32 -61 32h-23v-86h8q6 0 12.5 -1.5t16 -5.5t15 -15t5.5 -27q0 -47 -50 -47h-114q-50 0 -50 47q0 49 51 49h7v268h-7q-51 0 -51 48q0 15 4.5 25.5t13 14.5t16 5.5t18.5 1.5h124q1 0 5 0.5t6 0.5q46 0 81.5 -13.5t55 -35t29.5 -44.5t10 -46q0 -56 -46 -97
q22 -30 22 -75v-26q10 28 49 28q20 0 33 -12.5t13 -34.5q0 -25 -8 -50t-30 -44.5t-54 -19.5q-15 0 -30.5 4.5t-32.5 16.5t-27.5 38t-10.5 62v39zM187 277h17q46 0 68 14q23 13 23 29t-21 30t-64 14h-23v-87zM-92 252q0 130 43.5 240.5t121 176.5t171.5 66q138 0 237 -140
t99 -343q0 -102 -27 -192.5t-72.5 -154t-107 -100.5t-128.5 -37q-92 0 -169.5 64t-122.5 175.5t-45 244.5zM7 253q0 -105 31.5 -193t86 -138.5t118.5 -50.5q94 0 166 108t72 272q0 85 -21 158t-54.5 121t-76 75t-85.5 27q-45 0 -87.5 -27.5t-75.5 -76t-53.5 -121
t-20.5 -154.5z" />
    <glyph glyph-name="macron" unicode="&#xaf;" 
d="M47 604q0 48 50 48h293q26 0 37.5 -14.5t11.5 -33.5q0 -20 -12 -34t-39 -14h-293q-26 1 -37 15.5t-11 32.5z" />
    <glyph glyph-name="degree" unicode="&#xb0;" 
d="M85 476q0 67 45.5 116.5t112.5 49.5t112.5 -50t45.5 -116q0 -68 -45.5 -117t-112.5 -49q-63 0 -110.5 47.5t-47.5 118.5zM184 476q0 -27 17.5 -45t41.5 -18q26 0 43 18.5t17 44.5q0 27 -17.5 44.5t-42.5 17.5q-24 0 -41.5 -17.5t-17.5 -44.5z" />
    <glyph glyph-name="plusminus" unicode="&#xb1;" 
d="M412 239q60 0 60 -52q0 -6 -1.5 -12.5t-6.5 -16t-17 -16t-30 -6.5h-349q-26 0 -40 15t-14 37q0 26 17.5 38.5t44.5 12.5h118v87h-122q-18 0 -30.5 5.5t-18 14.5t-7.5 16.5t-2 14.5q0 19 13.5 33.5t32.5 16.5q5 1 20 1h114v128q0 20 5.5 33t14.5 18.5t16 7t13 1.5
q19 0 33 -13.5t16 -33.5q1 -6 1 -22v-119h122q18 0 30.5 -5.5t17.5 -14.5t7 -16.5t2 -14.5q0 -21 -13.5 -35.5t-34.5 -15.5h-131v-87h119z" />
    <glyph glyph-name="twosuperior" unicode="&#xb2;" 
d="M35 351q0 10 2 17t7.5 13t9 8.5t12.5 8t12 6.5l98 49q109 53 143 76.5t34 51.5q0 59 -135 59q-41 0 -67 -8q1 -3 1 -9q0 -26 -16.5 -43.5t-41.5 -17.5q-24 0 -41.5 18t-17.5 46q0 48 40 79q43 30 151 30q55 0 96.5 -10.5t65.5 -26t39 -37t20 -41t5 -40.5q0 -27 -9 -49
t-21.5 -38t-39 -33.5t-48 -29.5t-60.5 -31h79q2 46 52 46q47 0 47 -52v-38q3 -52 -51 -52h-314q-52 0 -52 48z" />
    <glyph glyph-name="threesuperior" unicode="&#xb3;" 
d="M26 398q0 27 17 44.5t40 17.5q24 0 41 -17.5t18 -43.5q27 -5 89 -5h13q49 0 83.5 12t34.5 30q0 13 -31 28v-1q-35 17 -87 17h-23q-12 0 -19 1t-17 5t-15 14t-5 26q0 14 4 23.5t9 14.5t17 8t19.5 4t24.5 2q43 2 67 13v-1q10 4 16 9.5t7.5 9t1.5 5.5q0 12 -24.5 19t-55.5 7
q-53 0 -81 -23q3 -9 3 -23q0 -27 -17 -44t-40 -17q-20 0 -39.5 14.5t-19.5 47.5q0 63 53.5 101.5t139.5 38.5q74 0 127 -31.5t53 -87.5q0 -15 -8.5 -38t-25.5 -42q65 -38 65 -100q0 -23 -11.5 -45.5t-35 -44t-69 -35t-105.5 -13.5h-11q-45 0 -77.5 4t-63 14t-46.5 30.5
t-16 51.5z" />
    <glyph glyph-name="acute" unicode="&#xb4;" 
d="M172 560q0 13 6 22.5t11 13.5t15 9q6 4 9 4l34 16q12 5 25 11t20.5 9.5t16 7.5t13 6l9 4t7.5 3t5.5 2t4.5 1.5t4 0.5h4q19 0 34.5 -15t15.5 -38q0 -32 -38 -51l-70 -32l-22 -10t-17 -7.5t-12 -5.5t-8.5 -4t-5.5 -2t-5 -1.5t-3.5 -0.5h-4.5q-21 0 -34.5 19.5t-13.5 37.5z
" />
    <glyph glyph-name="uni00B5" unicode="&#xb5;" 
d="M-10 -173q0 48 51 48h29v493h-27q-10 0 -16.5 0.5t-16.5 4.5t-15 14t-5 27q0 48 50 48h77q19 0 30.5 -4.5t15.5 -15t5 -17t1 -20.5v-269q0 -11 1 -16.5t5.5 -14t17.5 -12.5t34 -4q38 0 62.5 20t27.5 45q1 7 1 24v190h-27q-16 0 -25 2q-28 11 -28 44q0 10 3 19.5t15 19
t32 9.5h80q16 0 27 -5t15 -14t5.5 -16.5t1.5 -18.5v-312h28q52 0 52 -49q0 -47 -51 -47h-78q-31 0 -44 22q-46 -27 -102 -27q-36 0 -53 4v-124h29q51 0 51 -48q0 -47 -50 -47h-159q-50 0 -50 47z" />
    <glyph glyph-name="paragraph" unicode="&#xb6;" 
d="M24 400q0 61 26 115.5t78.5 90.5t119.5 36h181q18 0 30 -6t17 -15.5t7 -16.5t2 -14q0 -8 -2 -15.5t-7.5 -16.5t-18 -14.5t-30.5 -5.5h-9v-657h10q57 0 57 -50q0 -8 -2 -15t-7 -16t-17.5 -14.5t-30.5 -5.5h-245q-31 1 -42.5 18t-11.5 33q0 50 59 50h9v283q-77 19 -125 85
t-48 151zM295 -119h24v657h-24v-657z" />
    <glyph glyph-name="periodcentered" unicode="&#xb7;" 
d="M180 235q0 28 19 47t44 19q27 0 45.5 -20t18.5 -46q0 -27 -18.5 -47t-45.5 -20t-45 20t-18 47z" />
    <glyph glyph-name="cedilla" unicode="&#xb8;" 
d="M241 -66q-48 0 -48 60v32q0 12 0.5 18t3 16t7.5 15.5t15 10t24 4.5q15 0 25 -4.5t15 -9.5t7.5 -15.5t2.5 -14.5v-14v-11q92 -25 92 -110q0 -24 -8.5 -43t-20.5 -31t-32.5 -21t-38 -13t-43.5 -6.5t-42 -3t-41 -0.5h-11q-21 0 -34.5 13t-13.5 33q0 49 51 49h25q53 2 81.5 6
t28.5 16l-5 9q-20 13 -40 15z" />
    <glyph glyph-name="onesuperior" unicode="&#xb9;" 
d="M64 585q0 16 6 27t16 14.5t15.5 4.5t11.5 1q31 3 59.5 22.5t48.5 50.5q16 30 42 30q45 0 45 -57v-279h73q49 0 49 -48q0 -45 -48 -48h-262q-26 0 -37 15t-11 33q0 48 51 48h86v167q-49 -28 -93 -28q-25 0 -38.5 10t-13.5 37z" />
    <glyph glyph-name="ordmasculine" unicode="&#xba;" 
d="M419 311q23 0 39.5 -14t16.5 -35q0 -7 -2 -13.5t-7 -15t-16.5 -13.5t-28.5 -5h-359q-20 0 -32.5 10t-15.5 19.5t-3 17.5q0 16 10.5 30t28.5 18q7 1 22 1h347zM24 536q0 79 63 137.5t156 58.5q90 0 155 -56.5t65 -139.5q0 -82 -65 -139t-156 -57q-93 0 -155.5 58
t-62.5 138zM122 541q0 -45 36 -75.5t85 -30.5t85.5 30.5t36.5 75.5q0 40 -35 68t-87 28q-47 0 -84 -27t-37 -69z" />
    <glyph glyph-name="guillemotright" unicode="&#xbb;" 
d="M142 24q-19 -24 -43 -24t-35 15t-11 30q0 7 1.5 12.5t6 11.5t6.5 8.5t11 10.5l119 115q16 15 23 22.5t10 10.5q-23 22 -48 46t-56 53.5t-48 45.5q-10 10 -14 14.5t-7.5 12.5t-3.5 17q0 16 11 30.5t35 14.5q19 0 38 -17q1 -1 2 -2.5t2 -2.5l180 -173q20 -18 20 -39
t-18 -38l-2 -4l-179 -171v1zM268 24l-12 -12t-13 -8t-19 -4q-20 0 -33 14.5t-13 31.5q0 15 10.5 28t65.5 66q7 6 40.5 37.5t51.5 48.5l10 9q-4 3 -14 13.5t-19 18.5l-120 115q-25 23 -25 43q0 15 11 30t35 15q19 0 39 -18l1 -2l3 -3q13 -13 78.5 -76t100.5 -96
q20 -18 20 -39t-18 -38l-2 -4l-178 -171v1z" />
    <glyph glyph-name="onequarter" unicode="&#xbc;" 
d="M-22 252q0 20 13 35.5t46 15.5h416q58 0 58 -51q0 -10 -3 -20t-16 -20t-35 -11h-424q-32 0 -43.5 16.5t-11.5 34.5zM10 -60q0 15 18.5 37.5t83.5 88.5l80 85q10 11 16 15.5t17 8t28 3.5h46q18 0 29.5 -5t15.5 -15.5t5 -17.5t1 -17v-152h80q22 0 34.5 -14.5t12.5 -33.5
q0 -47 -51 -47h-76v-1h59q27 0 38 -14.5t11 -33.5t-11 -32.5t-37 -14.5h-211q-21 0 -33 13.5t-12 32.5q0 10 3 19.5t15.5 19.5t32.5 10h58v1h-197q-33 0 -44 10.5t-11 47.5l-0.5 1t-0.5 2v3zM64 617q0 29 14 37.5t46 12.5q21 2 32 4t31.5 13t37.5 30q20 21 40 21q13 0 22 -5
t13.5 -10t6.5 -15.5t2 -14v-12.5v-244h72q50 0 50 -48q0 -18 -11 -32t-37 -16h-260q-27 0 -38.5 15t-11.5 33q0 48 51 48h86v157q-53 -21 -91 -21l-30 5q-25 8 -25 42zM145 -29h118v122z" />
    <glyph glyph-name="onehalf" unicode="&#xbd;" 
d="M-22 252q0 20 13 35.5t46 15.5h416q58 0 58 -51q0 -10 -3 -20t-16 -20t-35 -11h-424q-32 0 -43.5 16.5t-11.5 34.5zM36 84q0 27 12.5 45.5t35 28.5t48.5 14t59 4h33q80 0 133.5 -15t78.5 -58q17 -29 17 -65q0 -42 -19 -70t-58 -52q9 5 27 5h3q14 0 24 -5t14.5 -10
t6.5 -16.5t2 -14v-13.5v-31q3 -51 -51 -51h-315q-51 0 -51 47v3q0 22 14 32t98 49q9 4 14 6q13 6 41.5 19.5t45.5 21.5l18 7h-2q18 8 27.5 12.5t27 15t26 22t8.5 23.5q0 23 -30.5 32t-87.5 11h-32q-16 0 -52 -3q-1 -25 -18.5 -40.5t-39.5 -15.5q-23 0 -40.5 16.5t-17.5 45.5
zM354 -125q1 28 18 40q-28 -16 -81 -40h63zM64 617q0 29 14 37.5t46 12.5q21 2 32 4t31.5 13t37.5 30q20 21 40 21q13 0 22 -5t13.5 -10t6.5 -15.5t2 -14v-12.5v-244h72q50 0 50 -48q0 -18 -11 -32t-37 -16h-260q-27 0 -38.5 15t-11.5 33q0 48 51 48h86v157q-53 -21 -91 -21
l-30 5q-25 8 -25 42z" />
    <glyph glyph-name="threequarters" unicode="&#xbe;" 
d="M-22 252q0 20 13 35.5t46 15.5h416q58 0 58 -51q0 -10 -3 -20t-16 -20t-35 -11h-424q-32 0 -43.5 16.5t-11.5 34.5zM10 -60q0 15 18.5 37.5t83.5 88.5l80 85q10 11 16 15.5t17 8t28 3.5h46q18 0 29.5 -5t15.5 -15.5t5 -17.5t1 -17v-152h80q22 0 34.5 -14.5t12.5 -33.5
q0 -47 -51 -47h-76v-1h59q27 0 38 -14.5t11 -33.5t-11 -32.5t-37 -14.5h-211q-21 0 -33 13.5t-12 32.5q0 10 3 19.5t15.5 19.5t32.5 10h58v1h-197q-33 0 -44 10.5t-11 47.5l-0.5 1t-0.5 2v3zM27 424q0 27 16.5 44.5t40.5 17.5q22 0 39.5 -15.5t19.5 -42.5q29 -5 79 -5h28
q36 0 62.5 6t38.5 13.5t12 15t-13 15.5t-41 13.5t-64 5.5h-30q-6 0 -12.5 1.5t-15.5 5.5t-15 14.5t-6 26.5q0 13 4 22.5t9 15t16.5 8.5t19.5 3.5l24 1.5q30 2 60 8.5t33 18.5q-4 10 -28.5 16t-59.5 6q-46 0 -71 -5q0 -1 0.5 -5t0.5 -5q0 -26 -17 -42.5t-41 -16.5t-41 18
t-17 46q0 31 20 57t57 39q33 9 99 9h12q79 0 132 -29.5t53 -82.5q0 -40 -29 -75q60 -35 60 -90q0 -58 -61 -94t-152 -36l-16 1h-27q-39 0 -68.5 4t-56 14t-40.5 29.5t-14 47.5zM145 -29h118v122z" />
    <glyph glyph-name="questiondown" unicode="&#xbf;" 
d="M37 -85q0 19 6 36.5t11 27.5t18 22.5t15.5 15t14.5 10.5h-1q73 52 73 138v16q0 14 1 20.5t5 16.5t15.5 14.5t30.5 4.5h5q12 0 19 -1t15.5 -6t12.5 -16t4 -29v-21q0 -43 -12 -79.5t-33.5 -63t-37 -41t-36.5 -29.5q-12 -9 -16 -13q-12 -11 -12 -23q0 -18 20.5 -32t72.5 -14
q79 0 108 23q-4 10 -4 23q0 26 17.5 43t41.5 17t41 -17.5t17 -45.5q0 -19 -4.5 -36t-18.5 -36.5t-37.5 -33.5t-66 -23.5t-98.5 -9.5q-53 0 -91.5 14t-58 36.5t-28.5 45t-9 46.5zM165 353q0 29 19 48t44 19q28 0 46 -20.5t18 -46.5t-18.5 -46t-45.5 -20t-45 19.5t-18 46.5z
" />
    <glyph glyph-name="Agrave" unicode="&#xc0;" 
d="M108 768q0 19 13 34.5t35 15.5q9 0 76 -24q8 -3 70 -25q38 -13 38 -46q0 -16 -10.5 -35.5t-35.5 -19.5q-6 0 -144 48q-42 14 -42 52zM5 47q0 30 23 43q11 4 36 4l112 509q4 18 9.5 28.5t15.5 15t17.5 5.5t24.5 1q18 0 26 -1t17.5 -5.5t15 -15.5t9.5 -29l111 -508
q27 0 35 -4q25 -14 25 -43q0 -16 -5 -26.5t-15.5 -14.5t-17.5 -5t-19 -1h-96q-13 0 -19.5 1t-16.5 5t-15 14.5t-5 26.5q0 28 11.5 37.5t37.5 9.5l-15 70h-127q-11 -47 -15 -70q26 0 37.5 -9.5t11.5 -37.5q0 -16 -5 -26.5t-15 -14.5t-17 -5t-19 -1h-96q-12 0 -19 1t-17.5 5
t-15.5 14.5t-5 26.5zM202 258h83l-42 213z" />
    <glyph glyph-name="Aacute" unicode="&#xc1;" 
d="M150 723q0 12 3 20.5t10.5 13.5t12 7t14.5 6l82 29q55 19 62 19q18 0 32.5 -14.5t14.5 -35.5q0 -38 -40 -51q-137 -49 -146 -49q-24 0 -34.5 19.5t-10.5 35.5zM5 47q0 30 23 43q11 4 36 4l112 509q4 18 9.5 28.5t15.5 15t17.5 5.5t24.5 1q18 0 26 -1t17.5 -5.5t15 -15.5
t9.5 -29l111 -508q27 0 35 -4q25 -14 25 -43q0 -16 -5 -26.5t-15.5 -14.5t-17.5 -5t-19 -1h-96q-13 0 -19.5 1t-16.5 5t-15 14.5t-5 26.5q0 28 11.5 37.5t37.5 9.5l-15 70h-127q-11 -47 -15 -70q26 0 37.5 -9.5t11.5 -37.5q0 -16 -5 -26.5t-15 -14.5t-17 -5t-19 -1h-96
q-12 0 -19 1t-17.5 5t-15.5 14.5t-5 26.5zM202 258h83l-42 213z" />
    <glyph glyph-name="Acircumflex" unicode="&#xc2;" 
d="M74 695q0 25 25 42q89 70 109.5 84t33.5 14q10 0 20.5 -6.5t57.5 -42.5l65 -51q23 -19 23 -39q0 -18 -16 -36t-34 -18q-20 0 -101 69l-17 15l-35 -29q-43 -37 -56.5 -46t-25.5 -9q-19 0 -34 18t-15 35zM5 47q0 30 23 43q11 4 36 4l112 509q4 18 9.5 28.5t15.5 15
t17.5 5.5t24.5 1q18 0 26 -1t17.5 -5.5t15 -15.5t9.5 -29l111 -508q27 0 35 -4q25 -14 25 -43q0 -16 -5 -26.5t-15.5 -14.5t-17.5 -5t-19 -1h-96q-13 0 -19.5 1t-16.5 5t-15 14.5t-5 26.5q0 28 11.5 37.5t37.5 9.5l-15 70h-127q-11 -47 -15 -70q26 0 37.5 -9.5t11.5 -37.5
q0 -16 -5 -26.5t-15 -14.5t-17 -5t-19 -1h-96q-12 0 -19 1t-17.5 5t-15.5 14.5t-5 26.5zM202 258h83l-42 213z" />
    <glyph glyph-name="Atilde" unicode="&#xc3;" 
d="M172 732q-17 0 -45 -30.5t-46 -30.5t-31.5 15t-13.5 32q0 9 12 27t30.5 37t44.5 33.5t50 14.5q41 0 92 -38q32 -22 44 -22q17 0 45.5 30t45.5 30q13 0 29 -13.5t16 -34.5q0 -9 -12 -27t-30 -37t-44 -33t-51 -14q-18 0 -36.5 7t-28.5 13t-27 19q-32 22 -44 22zM5 47
q0 30 23 43q11 4 36 4l112 509q4 18 9.5 28.5t15.5 15t17.5 5.5t24.5 1q18 0 26 -1t17.5 -5.5t15 -15.5t9.5 -29l111 -508q27 0 35 -4q25 -14 25 -43q0 -16 -5 -26.5t-15.5 -14.5t-17.5 -5t-19 -1h-96q-13 0 -19.5 1t-16.5 5t-15 14.5t-5 26.5q0 28 11.5 37.5t37.5 9.5
l-15 70h-127q-11 -47 -15 -70q26 0 37.5 -9.5t11.5 -37.5q0 -16 -5 -26.5t-15 -14.5t-17 -5t-19 -1h-96q-12 0 -19 1t-17.5 5t-15.5 14.5t-5 26.5zM202 258h83l-42 213z" />
    <glyph glyph-name="Adieresis" unicode="&#xc4;" 
d="M84 763.5q0 27.5 18 47t44 19.5q25 0 43.5 -18.5t18.5 -47.5q0 -26 -18 -45.5t-44 -19.5q-25 0 -43.5 18.5t-18.5 46zM273 763q0 27 18 47t44 20q25 0 43.5 -18.5t18.5 -47.5q0 -28 -17.5 -46.5t-44.5 -18.5t-44.5 19.5t-17.5 44.5zM5 47q0 30 23 43q11 4 36 4l112 509
q4 18 9.5 28.5t15.5 15t17.5 5.5t24.5 1q18 0 26 -1t17.5 -5.5t15 -15.5t9.5 -29l111 -508q27 0 35 -4q25 -14 25 -43q0 -16 -5 -26.5t-15.5 -14.5t-17.5 -5t-19 -1h-96q-13 0 -19.5 1t-16.5 5t-15 14.5t-5 26.5q0 28 11.5 37.5t37.5 9.5l-15 70h-127q-11 -47 -15 -70
q26 0 37.5 -9.5t11.5 -37.5q0 -16 -5 -26.5t-15 -14.5t-17 -5t-19 -1h-96q-12 0 -19 1t-17.5 5t-15.5 14.5t-5 26.5zM202 258h83l-42 213z" />
    <glyph glyph-name="Aring" unicode="&#xc5;" 
d="M117 707q0 52 35.5 91.5t87.5 39.5q50 0 87 -37.5t37 -93.5q0 -53 -35 -93t-88 -40q-54 0 -89 39.5t-35 93.5zM203 707q0 -16 11 -27.5t27 -11.5q15 0 26 11.5t11 27t-10.5 27.5t-26.5 12t-27 -12.5t-11 -26.5zM5 47q0 30 23 43q11 4 36 4l112 509q4 18 9.5 28.5t15.5 15
t17.5 5.5t24.5 1q18 0 26 -1t17.5 -5.5t15 -15.5t9.5 -29l111 -508q27 0 35 -4q25 -14 25 -43q0 -16 -5 -26.5t-15.5 -14.5t-17.5 -5t-19 -1h-96q-13 0 -19.5 1t-16.5 5t-15 14.5t-5 26.5q0 28 11.5 37.5t37.5 9.5l-15 70h-127q-11 -47 -15 -70q26 0 37.5 -9.5t11.5 -37.5
q0 -16 -5 -26.5t-15 -14.5t-17 -5t-19 -1h-96q-12 0 -19 1t-17.5 5t-15.5 14.5t-5 26.5zM202 258h83l-42 213z" />
    <glyph glyph-name="AE" unicode="&#xc6;" 
d="M0 47q0 19 10.5 33.5t37.5 15.5q7 36 38 198t47 254q-32 6 -32 46q0 10 3 19.5t15 19t32 9.5h278q47 0 47 -54v-83q1 -25 -11.5 -38.5t-30.5 -13.5q-42 0 -44 48v45h-76v-167h98q49 0 49 -47t-50 -47h-97v-189h85v56q0 25 12.5 38.5t29.5 13.5q43 0 43 -54v-94
q0 -1 0.5 -2t0.5 -2q0 -52 -49 -52h-195q-25 0 -38 13t-13 33q0 44 38 48v88h-75l-16 -88q39 -6 39 -47q0 -19 -11 -33t-38 -14h-78q-27 0 -38 14t-11 33zM171 276h57v270h-4q-9 -46 -26.5 -133t-26.5 -137z" />
    <glyph glyph-name="Ccedilla" unicode="&#xc7;" 
d="M263 -94q-48 0 -48 60v32q0 12 0.5 18t3 16t7.5 15.5t15 10t24 4.5q15 0 25 -4.5t15 -9.5t7.5 -15.5t2.5 -14.5v-14v-11q92 -25 92 -110q0 -24 -8.5 -43t-20.5 -31t-32.5 -21t-38 -13t-43.5 -6.5t-42 -3t-41 -0.5h-11q-21 0 -34.5 13t-13.5 33q0 49 51 49h25q53 2 81.5 6
t28.5 16l-5 9q-20 13 -40 15zM17 321q0 141 72.5 236t171.5 95q65 0 119 -39q4 9 4 12q2 3 2 5q15 22 39 22q16 0 26 -5t13.5 -15.5t4.5 -17.5t1 -20v-137q0 -14 -1 -21.5t-5 -17.5t-15 -14.5t-28 -4.5q-16 0 -25.5 3.5t-14.5 12t-6.5 13t-3.5 17.5q-9 53 -38.5 83t-67.5 30
q-59 0 -104.5 -68t-45.5 -169q0 -102 45.5 -169.5t105.5 -67.5q33 0 67 26t39 79q4 45 49 45q9 0 14.5 -1t15 -5t14.5 -15.5t5 -28.5q0 -77 -60 -135.5t-148 -58.5q-100 0 -172.5 95t-72.5 236z" />
    <glyph glyph-name="Egrave" unicode="&#xc8;" 
d="M110 768q0 19 13 34.5t35 15.5q9 0 76 -24q8 -3 70 -25q38 -13 38 -46q0 -16 -10.5 -35.5t-35.5 -19.5q-6 0 -144 48q-42 14 -42 52zM4 47.5q0 16.5 5 27t15 14.5t16.5 4.5t18.5 0.5h12v453h-12q-11 0 -17.5 1t-17 5t-15.5 14.5t-5 27t5 27t15.5 14.5t17 5t17.5 1h353
q34 0 44 -12t10 -46v-73q0 -14 -1 -21.5t-5 -17.5t-15 -14t-28 -4t-27.5 4.5t-14.5 14.5t-5 17.5t-1 20.5v36h-200v-168h92q0 33 9 45t40 12q17 0 27.5 -4.5t14.5 -15t5 -17.5t1 -21v-92q0 -14 -1 -21.5t-5 -17.5t-14.5 -14.5t-27.5 -4.5q-31 0 -40 12t-9 45h-92v-191h220
v52q0 14 1 21.5t5 17.5t15 14.5t29 4.5q17 0 27.5 -4.5t14.5 -15t5 -17.5t1 -21v-88q0 -35 -10.5 -46.5t-43.5 -11.5h-374q-11 0 -17.5 1t-17 5t-15.5 14.5t-5 27z" />
    <glyph glyph-name="Eacute" unicode="&#xc9;" 
d="M152 723q0 12 3 20.5t10.5 13.5t12 7t14.5 6l82 29q55 19 62 19q18 0 32.5 -14.5t14.5 -35.5q0 -38 -40 -51q-137 -49 -146 -49q-24 0 -34.5 19.5t-10.5 35.5zM4 47.5q0 16.5 5 27t15 14.5t16.5 4.5t18.5 0.5h12v453h-12q-11 0 -17.5 1t-17 5t-15.5 14.5t-5 27t5 27
t15.5 14.5t17 5t17.5 1h353q34 0 44 -12t10 -46v-73q0 -14 -1 -21.5t-5 -17.5t-15 -14t-28 -4t-27.5 4.5t-14.5 14.5t-5 17.5t-1 20.5v36h-200v-168h92q0 33 9 45t40 12q17 0 27.5 -4.5t14.5 -15t5 -17.5t1 -21v-92q0 -14 -1 -21.5t-5 -17.5t-14.5 -14.5t-27.5 -4.5
q-31 0 -40 12t-9 45h-92v-191h220v52q0 14 1 21.5t5 17.5t15 14.5t29 4.5q17 0 27.5 -4.5t14.5 -15t5 -17.5t1 -21v-88q0 -35 -10.5 -46.5t-43.5 -11.5h-374q-11 0 -17.5 1t-17 5t-15.5 14.5t-5 27z" />
    <glyph glyph-name="Ecircumflex" unicode="&#xca;" 
d="M76 695q0 25 25 42q89 70 109.5 84t33.5 14q10 0 20.5 -6.5t57.5 -42.5l65 -51q23 -19 23 -39q0 -18 -16 -36t-34 -18q-20 0 -101 69l-17 15l-35 -29q-43 -37 -56.5 -46t-25.5 -9q-19 0 -34 18t-15 35zM4 47.5q0 16.5 5 27t15 14.5t16.5 4.5t18.5 0.5h12v453h-12
q-11 0 -17.5 1t-17 5t-15.5 14.5t-5 27t5 27t15.5 14.5t17 5t17.5 1h353q34 0 44 -12t10 -46v-73q0 -14 -1 -21.5t-5 -17.5t-15 -14t-28 -4t-27.5 4.5t-14.5 14.5t-5 17.5t-1 20.5v36h-200v-168h92q0 33 9 45t40 12q17 0 27.5 -4.5t14.5 -15t5 -17.5t1 -21v-92
q0 -14 -1 -21.5t-5 -17.5t-14.5 -14.5t-27.5 -4.5q-31 0 -40 12t-9 45h-92v-191h220v52q0 14 1 21.5t5 17.5t15 14.5t29 4.5q17 0 27.5 -4.5t14.5 -15t5 -17.5t1 -21v-88q0 -35 -10.5 -46.5t-43.5 -11.5h-374q-11 0 -17.5 1t-17 5t-15.5 14.5t-5 27z" />
    <glyph glyph-name="Edieresis" unicode="&#xcb;" 
d="M86 763.5q0 27.5 18 47t44 19.5q25 0 43.5 -18.5t18.5 -47.5q0 -26 -18 -45.5t-44 -19.5q-25 0 -43.5 18.5t-18.5 46zM275 763q0 27 18 47t44 20q25 0 43.5 -18.5t18.5 -47.5q0 -28 -17.5 -46.5t-44.5 -18.5t-44.5 19.5t-17.5 44.5zM4 47.5q0 16.5 5 27t15 14.5t16.5 4.5
t18.5 0.5h12v453h-12q-11 0 -17.5 1t-17 5t-15.5 14.5t-5 27t5 27t15.5 14.5t17 5t17.5 1h353q34 0 44 -12t10 -46v-73q0 -14 -1 -21.5t-5 -17.5t-15 -14t-28 -4t-27.5 4.5t-14.5 14.5t-5 17.5t-1 20.5v36h-200v-168h92q0 33 9 45t40 12q17 0 27.5 -4.5t14.5 -15t5 -17.5
t1 -21v-92q0 -14 -1 -21.5t-5 -17.5t-14.5 -14.5t-27.5 -4.5q-31 0 -40 12t-9 45h-92v-191h220v52q0 14 1 21.5t5 17.5t15 14.5t29 4.5q17 0 27.5 -4.5t14.5 -15t5 -17.5t1 -21v-88q0 -35 -10.5 -46.5t-43.5 -11.5h-374q-11 0 -17.5 1t-17 5t-15.5 14.5t-5 27z" />
    <glyph glyph-name="Igrave" unicode="&#xcc;" 
d="M108 768q0 19 13 34.5t35 15.5q9 0 76 -24q8 -3 70 -25q38 -13 38 -46q0 -16 -10.5 -35.5t-35.5 -19.5q-6 0 -144 48q-42 14 -42 52zM54 47.5q0 16.5 5 27t15.5 14.5t17 4.5t17.5 0.5h86v453h-86q-11 0 -17.5 1t-17 5t-15.5 14.5t-5 27t5 27t15.5 14.5t17 5t17.5 1h270
q11 0 17.5 -1t17 -5t15.5 -14.5t5 -27t-5 -27t-15.5 -14.5t-17 -5t-17.5 -1h-86v-453h86q11 0 17.5 -0.5t17 -4.5t15.5 -14.5t5 -27t-5 -27t-15.5 -14.5t-17 -5t-17.5 -1h-270q-11 0 -17.5 1t-17 5t-15.5 14.5t-5 27z" />
    <glyph glyph-name="Iacute" unicode="&#xcd;" 
d="M150 723q0 12 3 20.5t10.5 13.5t12 7t14.5 6l82 29q55 19 62 19q18 0 32.5 -14.5t14.5 -35.5q0 -38 -40 -51q-137 -49 -146 -49q-24 0 -34.5 19.5t-10.5 35.5zM54 47.5q0 16.5 5 27t15.5 14.5t17 4.5t17.5 0.5h86v453h-86q-11 0 -17.5 1t-17 5t-15.5 14.5t-5 27t5 27
t15.5 14.5t17 5t17.5 1h270q11 0 17.5 -1t17 -5t15.5 -14.5t5 -27t-5 -27t-15.5 -14.5t-17 -5t-17.5 -1h-86v-453h86q11 0 17.5 -0.5t17 -4.5t15.5 -14.5t5 -27t-5 -27t-15.5 -14.5t-17 -5t-17.5 -1h-270q-11 0 -17.5 1t-17 5t-15.5 14.5t-5 27z" />
    <glyph glyph-name="Icircumflex" unicode="&#xce;" 
d="M74 695q0 25 25 42q89 70 109.5 84t33.5 14q10 0 20.5 -6.5t57.5 -42.5l65 -51q23 -19 23 -39q0 -18 -16 -36t-34 -18q-20 0 -101 69l-17 15l-35 -29q-43 -37 -56.5 -46t-25.5 -9q-19 0 -34 18t-15 35zM54 47.5q0 16.5 5 27t15.5 14.5t17 4.5t17.5 0.5h86v453h-86
q-11 0 -17.5 1t-17 5t-15.5 14.5t-5 27t5 27t15.5 14.5t17 5t17.5 1h270q11 0 17.5 -1t17 -5t15.5 -14.5t5 -27t-5 -27t-15.5 -14.5t-17 -5t-17.5 -1h-86v-453h86q11 0 17.5 -0.5t17 -4.5t15.5 -14.5t5 -27t-5 -27t-15.5 -14.5t-17 -5t-17.5 -1h-270q-11 0 -17.5 1t-17 5
t-15.5 14.5t-5 27z" />
    <glyph glyph-name="Idieresis" unicode="&#xcf;" 
d="M84 763.5q0 27.5 18 47t44 19.5q25 0 43.5 -18.5t18.5 -47.5q0 -26 -18 -45.5t-44 -19.5q-25 0 -43.5 18.5t-18.5 46zM273 763q0 27 18 47t44 20q25 0 43.5 -18.5t18.5 -47.5q0 -28 -17.5 -46.5t-44.5 -18.5t-44.5 19.5t-17.5 44.5zM54 47.5q0 16.5 5 27t15.5 14.5
t17 4.5t17.5 0.5h86v453h-86q-11 0 -17.5 1t-17 5t-15.5 14.5t-5 27t5 27t15.5 14.5t17 5t17.5 1h270q11 0 17.5 -1t17 -5t15.5 -14.5t5 -27t-5 -27t-15.5 -14.5t-17 -5t-17.5 -1h-86v-453h86q11 0 17.5 -0.5t17 -4.5t15.5 -14.5t5 -27t-5 -27t-15.5 -14.5t-17 -5t-17.5 -1
h-270q-11 0 -17.5 1t-17 5t-15.5 14.5t-5 27z" />
    <glyph glyph-name="Eth" unicode="&#xd0;" 
d="M-4 47q0 49 50 49h10v172h-9q-51 0 -51 47q0 48 52 48h8v183h-8q-52 0 -52 48q0 18 11 33t40 15h200q65 0 116.5 -46t79 -120t27.5 -160q0 -85 -28 -157.5t-79 -115.5t-113 -43h-206q-26 0 -37 14.5t-11 32.5zM154 96h73q37 0 66 20.5t45.5 53.5t25 70.5t8.5 74.5
q0 96 -39.5 163.5t-101.5 67.5h-77v-183h90q29 0 39.5 -15t10.5 -33q0 -16 -5 -26t-14 -14.5t-16.5 -5.5t-18.5 -1h-86v-172z" />
    <glyph glyph-name="Ntilde" unicode="&#xd1;" 
d="M172 732q-17 0 -45 -30.5t-46 -30.5t-31.5 15t-13.5 32q0 9 12 27t30.5 37t44.5 33.5t50 14.5q41 0 92 -38q32 -22 44 -22q17 0 45.5 30t45.5 30q13 0 29 -13.5t16 -34.5q0 -9 -12 -27t-30 -37t-44 -33t-51 -14q-18 0 -36.5 7t-28.5 13t-27 19q-32 22 -44 22zM6 47.5
q0 16.5 5 27t15 14.5t16.5 4.5t17.5 0.5h7v453h-7q-12 0 -18.5 1t-16 5t-14.5 14.5t-5 27t5 27t15 14.5t16.5 5t17.5 1h64q26 0 40.5 -9.5t25.5 -38.5l144 -407v360h-7q-11 0 -17.5 1t-16.5 5t-15 14.5t-5 27t5 27t14.5 14.5t16 5t18.5 1h100q12 0 18.5 -1t16 -5t14.5 -14.5
t5 -27t-5 -27t-15 -14.5t-16.5 -5t-17.5 -1h-7v-489q0 -38 -11.5 -48t-44.5 -10q-19 0 -28.5 2t-20.5 12.5t-19 32.5l-144 408v-361h8q12 0 18.5 -0.5t16 -4.5t14.5 -14.5t5 -27t-5 -27t-15 -14.5t-16.5 -5t-17.5 -1h-100q-12 0 -18.5 1t-16 5t-14.5 14.5t-5 27z" />
    <glyph glyph-name="Ograve" unicode="&#xd2;" 
d="M108 768q0 19 13 34.5t35 15.5q9 0 76 -24q8 -3 70 -25q38 -13 38 -46q0 -16 -10.5 -35.5t-35.5 -19.5q-6 0 -144 48q-42 14 -42 52zM32 320q0 61 1 102t5.5 78.5t10 59t18 40.5t26 27.5t38 15t49 8t63.5 1.5t64 -1.5t49 -8t38 -15.5t26.5 -28t18 -40.5t10 -59t5.5 -78
t1 -101.5t-1 -101.5t-5.5 -77.5t-10.5 -59t-18.5 -40.5t-26 -27.5t-37.5 -15.5t-49 -7.5t-64 -1t-63.5 1t-49 7.5t-38 15.5t-26 27.5t-18 40.5t-10 59t-5.5 77.5t-1 101.5zM130 330q0 -133 11 -188q8 -30 30 -44t72 -14q54 0 75.5 13.5t28.5 48.5q10 54 10 184
q0 134 -10 177q-9 32 -31 41.5t-73 9.5q-53 0 -74 -11.5t-29 -46.5q-10 -45 -10 -170z" />
    <glyph glyph-name="Oacute" unicode="&#xd3;" 
d="M150 723q0 12 3 20.5t10.5 13.5t12 7t14.5 6l82 29q55 19 62 19q18 0 32.5 -14.5t14.5 -35.5q0 -38 -40 -51q-137 -49 -146 -49q-24 0 -34.5 19.5t-10.5 35.5zM32 320q0 61 1 102t5.5 78.5t10 59t18 40.5t26 27.5t38 15t49 8t63.5 1.5t64 -1.5t49 -8t38 -15.5t26.5 -28
t18 -40.5t10 -59t5.5 -78t1 -101.5t-1 -101.5t-5.5 -77.5t-10.5 -59t-18.5 -40.5t-26 -27.5t-37.5 -15.5t-49 -7.5t-64 -1t-63.5 1t-49 7.5t-38 15.5t-26 27.5t-18 40.5t-10 59t-5.5 77.5t-1 101.5zM130 330q0 -133 11 -188q8 -30 30 -44t72 -14q54 0 75.5 13.5t28.5 48.5
q10 54 10 184q0 134 -10 177q-9 32 -31 41.5t-73 9.5q-53 0 -74 -11.5t-29 -46.5q-10 -45 -10 -170z" />
    <glyph glyph-name="Ocircumflex" unicode="&#xd4;" 
d="M74 695q0 25 25 42q89 70 109.5 84t33.5 14q10 0 20.5 -6.5t57.5 -42.5l65 -51q23 -19 23 -39q0 -18 -16 -36t-34 -18q-20 0 -101 69l-17 15l-35 -29q-43 -37 -56.5 -46t-25.5 -9q-19 0 -34 18t-15 35zM32 320q0 61 1 102t5.5 78.5t10 59t18 40.5t26 27.5t38 15t49 8
t63.5 1.5t64 -1.5t49 -8t38 -15.5t26.5 -28t18 -40.5t10 -59t5.5 -78t1 -101.5t-1 -101.5t-5.5 -77.5t-10.5 -59t-18.5 -40.5t-26 -27.5t-37.5 -15.5t-49 -7.5t-64 -1t-63.5 1t-49 7.5t-38 15.5t-26 27.5t-18 40.5t-10 59t-5.5 77.5t-1 101.5zM130 330q0 -133 11 -188
q8 -30 30 -44t72 -14q54 0 75.5 13.5t28.5 48.5q10 54 10 184q0 134 -10 177q-9 32 -31 41.5t-73 9.5q-53 0 -74 -11.5t-29 -46.5q-10 -45 -10 -170z" />
    <glyph glyph-name="Otilde" unicode="&#xd5;" 
d="M172 732q-17 0 -45 -30.5t-46 -30.5t-31.5 15t-13.5 32q0 9 12 27t30.5 37t44.5 33.5t50 14.5q41 0 92 -38q32 -22 44 -22q17 0 45.5 30t45.5 30q13 0 29 -13.5t16 -34.5q0 -9 -12 -27t-30 -37t-44 -33t-51 -14q-18 0 -36.5 7t-28.5 13t-27 19q-32 22 -44 22zM32 320
q0 61 1 102t5.5 78.5t10 59t18 40.5t26 27.5t38 15t49 8t63.5 1.5t64 -1.5t49 -8t38 -15.5t26.5 -28t18 -40.5t10 -59t5.5 -78t1 -101.5t-1 -101.5t-5.5 -77.5t-10.5 -59t-18.5 -40.5t-26 -27.5t-37.5 -15.5t-49 -7.5t-64 -1t-63.5 1t-49 7.5t-38 15.5t-26 27.5t-18 40.5
t-10 59t-5.5 77.5t-1 101.5zM130 330q0 -133 11 -188q8 -30 30 -44t72 -14q54 0 75.5 13.5t28.5 48.5q10 54 10 184q0 134 -10 177q-9 32 -31 41.5t-73 9.5q-53 0 -74 -11.5t-29 -46.5q-10 -45 -10 -170z" />
    <glyph glyph-name="Odieresis" unicode="&#xd6;" 
d="M84 763.5q0 27.5 18 47t44 19.5q25 0 43.5 -18.5t18.5 -47.5q0 -26 -18 -45.5t-44 -19.5q-25 0 -43.5 18.5t-18.5 46zM273 763q0 27 18 47t44 20q25 0 43.5 -18.5t18.5 -47.5q0 -28 -17.5 -46.5t-44.5 -18.5t-44.5 19.5t-17.5 44.5zM32 320q0 61 1 102t5.5 78.5t10 59
t18 40.5t26 27.5t38 15t49 8t63.5 1.5t64 -1.5t49 -8t38 -15.5t26.5 -28t18 -40.5t10 -59t5.5 -78t1 -101.5t-1 -101.5t-5.5 -77.5t-10.5 -59t-18.5 -40.5t-26 -27.5t-37.5 -15.5t-49 -7.5t-64 -1t-63.5 1t-49 7.5t-38 15.5t-26 27.5t-18 40.5t-10 59t-5.5 77.5t-1 101.5z
M130 330q0 -133 11 -188q8 -30 30 -44t72 -14q54 0 75.5 13.5t28.5 48.5q10 54 10 184q0 134 -10 177q-9 32 -31 41.5t-73 9.5q-53 0 -74 -11.5t-29 -46.5q-10 -45 -10 -170z" />
    <glyph glyph-name="multiply" unicode="&#xd7;" 
d="M67 187q0 17 9.5 29.5t61.5 67.5l36 37l-38 39q-46 49 -57.5 64t-11.5 31q0 22 14.5 36t34.5 14q16 0 35.5 -17.5t87.5 -88.5l5 -5l44 46q46 49 56.5 57t26.5 8q18 0 33 -14.5t15 -35.5q0 -18 -9.5 -31t-62.5 -68l-34 -36l43 -45q37 -38 50.5 -55.5t13.5 -31.5
q0 -21 -15 -36.5t-35 -15.5q-14 0 -31 14t-58 58q-2 3 -18 19t-20 21l-82 -87q-23 -25 -45 -25t-35.5 15.5t-13.5 35.5z" />
    <glyph glyph-name="Oslash" unicode="&#xd8;" 
d="M89 -38q0 8 13 48q-43 26 -55.5 83t-14.5 197v50q0 56 1.5 95t6 73t10.5 55.5t18.5 39t26.5 26t37 14.5t47 7.5t60 1.5q47 0 58 -1l3 11q12 38 20.5 51t30.5 13q18 0 32.5 -13t14.5 -34q0 -10 -6 -28l-7 -21q39 -26 53.5 -83.5t16.5 -194.5v-51q0 -56 -1.5 -95.5
t-6.5 -73.5t-11 -55t-18.5 -38.5t-26 -26t-36.5 -14t-47 -7t-60 -1.5q-46 0 -58 1q-12 -46 -22.5 -60.5t-32.5 -14.5q-15 0 -30.5 12t-15.5 34zM118 280q0 -9 0.5 -31t1 -31.5t1.5 -27t2.5 -27t4 -21t6.5 -19.5q20 66 64.5 209t69.5 224h-29q-29 0 -46.5 -2t-32.5 -11.5
t-22 -23t-12 -42t-6.5 -62t-1.5 -88.5v-47zM351 519l-133 -435h25h5q29 0 47 2.5t33 12.5t21.5 23.5t11.5 43t6 62.5t1 90v5q0 155 -17 196zM212 64l-13 21q3 0 9 -0.5t10 -0.5z" />
    <glyph glyph-name="Ugrave" unicode="&#xd9;" 
d="M108 768q0 19 13 34.5t35 15.5q9 0 76 -24q8 -3 70 -25q38 -13 38 -46q0 -16 -10.5 -35.5t-35.5 -19.5q-6 0 -144 48q-42 14 -42 52zM-17 594.5q0 16.5 5 27t15.5 14.5t17 5t17.5 1h122q11 0 17.5 -1t17 -5t15.5 -14.5t5 -27t-5 -27t-15.5 -14.5t-17 -5t-17.5 -1h-12
v-322q0 -67 29.5 -104t65.5 -37t66 37t30 104v322h-12q-11 0 -17.5 1t-17 5t-15.5 14.5t-5 27t5 27t15.5 14.5t17 5t17.5 1h122q11 0 17.5 -1t17 -5t15.5 -14.5t5 -27t-5 -27t-15 -14.5t-16.5 -5t-18.5 -1h-12v-328q0 -97 -57.5 -163t-136.5 -66t-136 66t-57 163v328h-12
q-11 0 -17.5 1t-17 5t-15.5 14.5t-5 27z" />
    <glyph glyph-name="Uacute" unicode="&#xda;" 
d="M150 723q0 12 3 20.5t10.5 13.5t12 7t14.5 6l82 29q55 19 62 19q18 0 32.5 -14.5t14.5 -35.5q0 -38 -40 -51q-137 -49 -146 -49q-24 0 -34.5 19.5t-10.5 35.5zM-17 594.5q0 16.5 5 27t15.5 14.5t17 5t17.5 1h122q11 0 17.5 -1t17 -5t15.5 -14.5t5 -27t-5 -27t-15.5 -14.5
t-17 -5t-17.5 -1h-12v-322q0 -67 29.5 -104t65.5 -37t66 37t30 104v322h-12q-11 0 -17.5 1t-17 5t-15.5 14.5t-5 27t5 27t15.5 14.5t17 5t17.5 1h122q11 0 17.5 -1t17 -5t15.5 -14.5t5 -27t-5 -27t-15 -14.5t-16.5 -5t-18.5 -1h-12v-328q0 -97 -57.5 -163t-136.5 -66
t-136 66t-57 163v328h-12q-11 0 -17.5 1t-17 5t-15.5 14.5t-5 27z" />
    <glyph glyph-name="Ucircumflex" unicode="&#xdb;" 
d="M74 695q0 25 25 42q89 70 109.5 84t33.5 14q10 0 20.5 -6.5t57.5 -42.5l65 -51q23 -19 23 -39q0 -18 -16 -36t-34 -18q-20 0 -101 69l-17 15l-35 -29q-43 -37 -56.5 -46t-25.5 -9q-19 0 -34 18t-15 35zM-17 594.5q0 16.5 5 27t15.5 14.5t17 5t17.5 1h122q11 0 17.5 -1
t17 -5t15.5 -14.5t5 -27t-5 -27t-15.5 -14.5t-17 -5t-17.5 -1h-12v-322q0 -67 29.5 -104t65.5 -37t66 37t30 104v322h-12q-11 0 -17.5 1t-17 5t-15.5 14.5t-5 27t5 27t15.5 14.5t17 5t17.5 1h122q11 0 17.5 -1t17 -5t15.5 -14.5t5 -27t-5 -27t-15 -14.5t-16.5 -5t-18.5 -1
h-12v-328q0 -97 -57.5 -163t-136.5 -66t-136 66t-57 163v328h-12q-11 0 -17.5 1t-17 5t-15.5 14.5t-5 27z" />
    <glyph glyph-name="Udieresis" unicode="&#xdc;" 
d="M84 763.5q0 27.5 18 47t44 19.5q25 0 43.5 -18.5t18.5 -47.5q0 -26 -18 -45.5t-44 -19.5q-25 0 -43.5 18.5t-18.5 46zM273 763q0 27 18 47t44 20q25 0 43.5 -18.5t18.5 -47.5q0 -28 -17.5 -46.5t-44.5 -18.5t-44.5 19.5t-17.5 44.5zM-17 594.5q0 16.5 5 27t15.5 14.5
t17 5t17.5 1h122q11 0 17.5 -1t17 -5t15.5 -14.5t5 -27t-5 -27t-15.5 -14.5t-17 -5t-17.5 -1h-12v-322q0 -67 29.5 -104t65.5 -37t66 37t30 104v322h-12q-11 0 -17.5 1t-17 5t-15.5 14.5t-5 27t5 27t15.5 14.5t17 5t17.5 1h122q11 0 17.5 -1t17 -5t15.5 -14.5t5 -27t-5 -27
t-15 -14.5t-16.5 -5t-18.5 -1h-12v-328q0 -97 -57.5 -163t-136.5 -66t-136 66t-57 163v328h-12q-11 0 -17.5 1t-17 5t-15.5 14.5t-5 27z" />
    <glyph glyph-name="Yacute" unicode="&#xdd;" 
d="M150 723q0 12 3 20.5t10.5 13.5t12 7t14.5 6l82 29q55 19 62 19q18 0 32.5 -14.5t14.5 -35.5q0 -38 -40 -51q-137 -49 -146 -49q-24 0 -34.5 19.5t-10.5 35.5zM-3 594.5q0 16.5 5 27t15 14.5t16.5 5t17.5 1h99q11 0 17.5 -1t16.5 -5t15 -14.5t5 -27.5q0 -42 -35 -46
q3 -5 24.5 -51.5t34 -75t16.5 -47.5q8 17 74 174q-17 2 -26 12t-9 34q0 17 5 27.5t15 14.5t16.5 5t17.5 1h99q11 0 17.5 -1t16.5 -5t15 -14.5t5 -27t-5 -27t-15 -14.5t-16.5 -5t-17.5 -1h-11l-132 -291v-162h7q12 0 18.5 -0.5t16 -4.5t14.5 -14.5t5 -27t-5 -27t-15 -14.5
t-16.5 -5t-17.5 -1h-112q-12 0 -18.5 1t-16 5t-14.5 14.5t-5 27t5 27t15 14.5t16.5 4.5t17.5 0.5h7v162l-133 291h-11q-12 0 -18.5 1t-16 5t-14.5 14.5t-5 27z" />
    <glyph glyph-name="Thorn" unicode="&#xde;" 
d="M7 47q0 20 10.5 31.5t20.5 14.5t20 3h22v450h-22q-51 0 -51 48t51 48h143q51 0 51 -48t-50 -48h-23v-8h96q81 0 134 -56.5t53 -132.5q0 -31 -10.5 -62.5t-32 -61t-61.5 -48t-92 -18.5h-87v-63h22q51 0 51 -49q0 -47 -51 -47h-143q-51 0 -51 47zM179 253h66
q61 0 89.5 30.5t28.5 65.5q0 34 -25.5 64t-77.5 30h-81v-190z" />
    <glyph glyph-name="germandbls" unicode="&#xdf;" 
d="M-3 46q0 47 48 47h39v266h-37q-50 0 -50 46q0 44 45 47h42v52q0 128 180 128q54 0 92 -12t56 -32t25.5 -39t7.5 -41q0 -56 -29 -97t-87 -45h-4q-19 -2 -26 -7q-8 -15 -8 -29q0 -23 14 -32t37 -13l23 -7q42 -14 72 -51t30 -88q0 -65 -38.5 -104.5t-102.5 -39.5
q-32 0 -50 10q-10 -10 -29 -10q-44 0 -44 51v98q-1 32 13 41.5t37 9.5q20 0 31 -9.5t13.5 -21t6 -32t7.5 -31.5q7 -14 16 -14q20 0 35.5 12t15.5 40q0 16 -15 37q-16 12 -43.5 17t-41.5 12q-31 13 -53.5 46.5t-22.5 77.5q0 55 30 90.5t84 39.5q32 0 32 45q0 17 -18.5 26.5
t-69.5 9.5q-70 0 -79 -28q-1 -4 -1 -11v-449q1 -17 -3.5 -28.5t-13 -16t-16 -6t-17.5 -1.5h-84q-49 0 -49 46z" />
    <glyph glyph-name="agrave" unicode="&#xe0;" 
d="M34 141q0 73 75.5 115t201.5 46q-7 67 -102 67q-21 0 -32 -1q-5 0 -5 4q-1 -32 -19 -46t-37 -14q-24 0 -41 16.5t-17 45.5q0 21 7.5 36.5t22 24.5t28.5 15t34.5 8t31 2.5t26.5 0.5q52 0 92 -15t62.5 -40t34 -53.5t11.5 -58.5l2 -200q6 -2 38 -2q10 0 16.5 -0.5t16 -4.5
t14.5 -14.5t5 -26.5t-4 -26t-14 -14t-18.5 -5t-25.5 -1q-26 0 -38.5 0.5t-32.5 7t-32 18.5q-58 -32 -132 -32q-76 0 -122.5 43.5t-46.5 103.5zM130 141q0 -22 22 -38.5t57 -16.5q47 0 76 15q13 6 19 14t7 14t1 18v65q-85 -5 -133.5 -24t-48.5 -47zM94 617q0 23 15 38t35 15
q11 0 79 -32q10 -3 33 -14.5t36 -17.5q1 -1 3 -2q10 -5 15.5 -8.5t11.5 -13.5t6 -22q0 -19 -13.5 -38t-34.5 -19q-9 0 -54 21q-11 5 -17 8l-78 35q-12 7 -17 10.5t-12.5 14.5t-7.5 25z" />
    <glyph glyph-name="aacute" unicode="&#xe1;" 
d="M88 560q0 13 6 22.5t11 13.5t15 9q6 4 9 4l34 16q12 5 25 11t20.5 9.5t16 7.5t13 6l9 4t7.5 3t5.5 2t4.5 1.5t4 0.5h4q19 0 34.5 -15t15.5 -38q0 -32 -38 -51l-70 -32l-22 -10t-17 -7.5t-12 -5.5t-8.5 -4t-5.5 -2t-5 -1.5t-3.5 -0.5h-4.5q-21 0 -34.5 19.5t-13.5 37.5z
M34 141q0 73 75.5 115t201.5 46q-7 67 -102 67q-21 0 -32 -1q-5 0 -5 4q-1 -32 -19 -46t-37 -14q-24 0 -41 16.5t-17 45.5q0 21 7.5 36.5t22 24.5t28.5 15t34.5 8t31 2.5t26.5 0.5q52 0 92 -15t62.5 -40t34 -53.5t11.5 -58.5l2 -200q6 -2 38 -2q10 0 16.5 -0.5t16 -4.5
t14.5 -14.5t5 -26.5t-4 -26t-14 -14t-18.5 -5t-25.5 -1q-26 0 -38.5 0.5t-32.5 7t-32 18.5q-58 -32 -132 -32q-76 0 -122.5 43.5t-46.5 103.5zM130 141q0 -22 22 -38.5t57 -16.5q47 0 76 15q13 6 19 14t7 14t1 18v65q-85 -5 -133.5 -24t-48.5 -47z" />
    <glyph glyph-name="acircumflex" unicode="&#xe2;" 
d="M38 541q0 23 28 44l58 41h-1q48 34 60.5 41t24.5 7q10 0 24.5 -8.5t79.5 -54.5q23 -16 37 -25q29 -21 29 -46q0 -16 -15.5 -35.5t-35.5 -19.5t-78 48l-42 32q-2 0 -7 -5l-13 -11h1l-30 -22q-6 -4 -14.5 -10.5t-12 -9.5t-9.5 -7t-8.5 -5.5t-7 -4t-7 -3.5t-6 -1.5
t-6.5 -0.5q-19 0 -34 19.5t-15 36.5zM34 141q0 73 75.5 115t201.5 46q-7 67 -102 67q-21 0 -32 -1q-5 0 -5 4q-1 -32 -19 -46t-37 -14q-24 0 -41 16.5t-17 45.5q0 21 7.5 36.5t22 24.5t28.5 15t34.5 8t31 2.5t26.5 0.5q52 0 92 -15t62.5 -40t34 -53.5t11.5 -58.5l2 -200
q6 -2 38 -2q10 0 16.5 -0.5t16 -4.5t14.5 -14.5t5 -26.5t-4 -26t-14 -14t-18.5 -5t-25.5 -1q-26 0 -38.5 0.5t-32.5 7t-32 18.5q-58 -32 -132 -32q-76 0 -122.5 43.5t-46.5 103.5zM130 141q0 -22 22 -38.5t57 -16.5q47 0 76 15q13 6 19 14t7 14t1 18v65q-85 -5 -133.5 -24
t-48.5 -47z" />
    <glyph glyph-name="atilde" unicode="&#xe3;" 
d="M26 538q0 19 20 38q66 66 116 66q17 0 33 -8t23 -13.5t21 -18.5q13 -14 17 -14q8 0 40 26q29 26 46.5 26t31.5 -14t14 -33q0 -21 -20 -40q-62 -65 -116 -65q-18 0 -33 7t-22.5 13t-18.5 18q-14 15 -19 15q-7 0 -40 -25q-1 -1 -5 -4.5t-5 -4.5t-4.5 -4t-4.5 -3.5t-4 -3
t-5 -3t-4.5 -2t-4.5 -2t-4.5 -1t-5.5 -0.5q-20 0 -33 16t-13 34zM34 141q0 73 75.5 115t201.5 46q-7 67 -102 67q-21 0 -32 -1q-5 0 -5 4q-1 -32 -19 -46t-37 -14q-24 0 -41 16.5t-17 45.5q0 21 7.5 36.5t22 24.5t28.5 15t34.5 8t31 2.5t26.5 0.5q52 0 92 -15t62.5 -40
t34 -53.5t11.5 -58.5l2 -200q6 -2 38 -2q10 0 16.5 -0.5t16 -4.5t14.5 -14.5t5 -26.5t-4 -26t-14 -14t-18.5 -5t-25.5 -1q-26 0 -38.5 0.5t-32.5 7t-32 18.5q-58 -32 -132 -32q-76 0 -122.5 43.5t-46.5 103.5zM130 141q0 -22 22 -38.5t57 -16.5q47 0 76 15q13 6 19 14t7 14
t1 18v65q-85 -5 -133.5 -24t-48.5 -47z" />
    <glyph glyph-name="adieresis" unicode="&#xe4;" 
d="M47 574q0 28 18.5 48t45.5 20q25 0 44 -19.5t19 -47.5t-18 -47.5t-45 -19.5q-26 0 -45 19t-19 47zM241 574q0 28 18 48t45 20q25 0 44.5 -19.5t19.5 -47.5t-18 -47.5t-46 -19.5t-45.5 19.5t-17.5 46.5zM34 141q0 73 75.5 115t201.5 46q-7 67 -102 67q-21 0 -32 -1
q-5 0 -5 4q-1 -32 -19 -46t-37 -14q-24 0 -41 16.5t-17 45.5q0 21 7.5 36.5t22 24.5t28.5 15t34.5 8t31 2.5t26.5 0.5q52 0 92 -15t62.5 -40t34 -53.5t11.5 -58.5l2 -200q6 -2 38 -2q10 0 16.5 -0.5t16 -4.5t14.5 -14.5t5 -26.5t-4 -26t-14 -14t-18.5 -5t-25.5 -1
q-26 0 -38.5 0.5t-32.5 7t-32 18.5q-58 -32 -132 -32q-76 0 -122.5 43.5t-46.5 103.5zM130 141q0 -22 22 -38.5t57 -16.5q47 0 76 15q13 6 19 14t7 14t1 18v65q-85 -5 -133.5 -24t-48.5 -47z" />
    <glyph glyph-name="aring" unicode="&#xe5;" 
d="M106 574q0 40 28.5 71.5t72.5 31.5q45 0 73 -31.5t28 -71.5t-27.5 -72t-73.5 -32q-43 0 -72 31.5t-29 72.5zM193 575q0 -14 4.5 -24.5t9.5 -10.5q9 0 13 22q1 6 1 12q0 15 -4 24.5t-10 9.5q-5 0 -9.5 -9.5t-4.5 -23.5zM34 141q0 73 75.5 115t201.5 46q-7 67 -102 67
q-21 0 -32 -1q-5 0 -5 4q-1 -32 -19 -46t-37 -14q-24 0 -41 16.5t-17 45.5q0 21 7.5 36.5t22 24.5t28.5 15t34.5 8t31 2.5t26.5 0.5q52 0 92 -15t62.5 -40t34 -53.5t11.5 -58.5l2 -200q6 -2 38 -2q10 0 16.5 -0.5t16 -4.5t14.5 -14.5t5 -26.5t-4 -26t-14 -14t-18.5 -5
t-25.5 -1q-26 0 -38.5 0.5t-32.5 7t-32 18.5q-58 -32 -132 -32q-76 0 -122.5 43.5t-46.5 103.5zM130 141q0 -22 22 -38.5t57 -16.5q47 0 76 15q13 6 19 14t7 14t1 18v65q-85 -5 -133.5 -24t-48.5 -47z" />
    <glyph glyph-name="ae" unicode="&#xe6;" 
d="M12 132q0 12 2 24t12 31.5t26 35.5t48 30t74 19q14 2 25 3v12q0 52 -28 72q-12 7 -29 7h-8q-2 -25 -19.5 -39.5t-37.5 -14.5q-21 0 -39 15.5t-18 45.5q0 15 5.5 28.5t18 27.5t38.5 22.5t63 8.5q67 0 106 -55q44 55 98 55q22 0 43 -10t42 -33t34 -69t13 -110
q0 -18 -4.5 -29.5t-12.5 -16t-14.5 -5.5t-16.5 -1h-146q10 -45 32 -72t43 -27q24 0 38 45l5 13l-4 -5q12 26 39 26q16 0 28.5 -12t12.5 -31q0 -21 -12 -49.5t-41.5 -53.5t-67.5 -25q-62 0 -105 55q-46 -55 -121 -55q-55 0 -88.5 42.5t-33.5 94.5zM96 131q0 -16 12 -30
t32 -14q19 0 38.5 12.5t19.5 40.5v43q-45 -3 -73.5 -17t-28.5 -35zM289 278h107q-5 43 -17.5 65.5t-28.5 22.5q-18 0 -35 -23.5t-26 -64.5z" />
    <glyph glyph-name="ccedilla" unicode="&#xe7;" 
d="M274 -94q-48 0 -48 60v32q0 12 0.5 18t3 16t7.5 15.5t15 10t24 4.5q15 0 25 -4.5t15 -9.5t7.5 -15.5t2.5 -14.5v-14v-11q92 -25 92 -110q0 -24 -8.5 -43t-20.5 -31t-32.5 -21t-38 -13t-43.5 -6.5t-42 -3t-41 -0.5h-11q-21 0 -34.5 13t-13.5 33q0 49 51 49h25q53 2 81.5 6
t28.5 16l-5 9q-20 13 -40 15zM50 227q0 29 7.5 59.5t25 62.5t43 56.5t66 40t89.5 15.5q17 0 28 -0.5t32 -2.5t35 -8t29 -15t22.5 -24.5t7.5 -36.5q0 -28 -17 -45t-41 -17t-39.5 15.5t-16.5 48.5q-3 -7 -40 -7q-32 0 -57 -11t-39 -27t-23.5 -36.5t-12.5 -37t-3 -30.5
q0 -59 38 -100t91 -41q59 0 78 49l-1 -1q7 21 16.5 26.5t29.5 5.5q48 0 48 -43q0 -8 -4.5 -21.5t-17 -32.5t-31 -35.5t-51 -28t-72.5 -11.5q-93 0 -156.5 68.5t-63.5 164.5z" />
    <glyph glyph-name="egrave" unicode="&#xe8;" 
d="M33 228q0 96 63 164.5t152 68.5q94 0 145 -63.5t51 -159.5q0 -18 -4 -29.5t-13 -16t-15.5 -5.5t-20.5 -1h-256q15 -46 52.5 -73t81.5 -27q22 0 45.5 11t35.5 38v-1q6 21 15.5 26.5t29.5 5.5q49 0 49 -43q0 -13 -10 -32.5t-30 -42.5t-57.5 -38.5t-84.5 -15.5
q-96 0 -162.5 68.5t-66.5 165.5zM136 277h208q-14 92 -96 92q-37 0 -67.5 -26t-44.5 -66zM138 617q0 23 15 38t35 15q11 0 79 -32q10 -3 33 -14.5t36 -17.5q1 -1 3 -2q10 -5 15.5 -8.5t11.5 -13.5t6 -22q0 -19 -13.5 -38t-34.5 -19q-9 0 -54 21q-11 5 -17 8l-78 35
q-12 7 -17 10.5t-12.5 14.5t-7.5 25z" />
    <glyph glyph-name="eacute" unicode="&#xe9;" 
d="M132 560q0 13 6 22.5t11 13.5t15 9q6 4 9 4l34 16q12 5 25 11t20.5 9.5t16 7.5t13 6l9 4t7.5 3t5.5 2t4.5 1.5t4 0.5h4q19 0 34.5 -15t15.5 -38q0 -32 -38 -51l-70 -32l-22 -10t-17 -7.5t-12 -5.5t-8.5 -4t-5.5 -2t-5 -1.5t-3.5 -0.5h-4.5q-21 0 -34.5 19.5t-13.5 37.5z
M33 228q0 96 63 164.5t152 68.5q94 0 145 -63.5t51 -159.5q0 -18 -4 -29.5t-13 -16t-15.5 -5.5t-20.5 -1h-256q15 -46 52.5 -73t81.5 -27q22 0 45.5 11t35.5 38v-1q6 21 15.5 26.5t29.5 5.5q49 0 49 -43q0 -13 -10 -32.5t-30 -42.5t-57.5 -38.5t-84.5 -15.5
q-96 0 -162.5 68.5t-66.5 165.5zM136 277h208q-14 92 -96 92q-37 0 -67.5 -26t-44.5 -66z" />
    <glyph glyph-name="ecircumflex" unicode="&#xea;" 
d="M82 541q0 23 28 44l58 41h-1q48 34 60.5 41t24.5 7q10 0 24.5 -8.5t79.5 -54.5q23 -16 37 -25q29 -21 29 -46q0 -16 -15.5 -35.5t-35.5 -19.5t-78 48l-42 32q-2 0 -7 -5l-13 -11h1l-30 -22q-6 -4 -14.5 -10.5t-12 -9.5t-9.5 -7t-8.5 -5.5t-7 -4t-7 -3.5t-6 -1.5
t-6.5 -0.5q-19 0 -34 19.5t-15 36.5zM33 228q0 96 63 164.5t152 68.5q94 0 145 -63.5t51 -159.5q0 -18 -4 -29.5t-13 -16t-15.5 -5.5t-20.5 -1h-256q15 -46 52.5 -73t81.5 -27q22 0 45.5 11t35.5 38v-1q6 21 15.5 26.5t29.5 5.5q49 0 49 -43q0 -13 -10 -32.5t-30 -42.5
t-57.5 -38.5t-84.5 -15.5q-96 0 -162.5 68.5t-66.5 165.5zM136 277h208q-14 92 -96 92q-37 0 -67.5 -26t-44.5 -66z" />
    <glyph glyph-name="edieresis" unicode="&#xeb;" 
d="M91 574q0 28 18.5 48t45.5 20q25 0 44 -19.5t19 -47.5t-18 -47.5t-45 -19.5q-26 0 -45 19t-19 47zM285 574q0 28 18 48t45 20q25 0 44.5 -19.5t19.5 -47.5t-18 -47.5t-46 -19.5t-45.5 19.5t-17.5 46.5zM33 228q0 96 63 164.5t152 68.5q94 0 145 -63.5t51 -159.5
q0 -18 -4 -29.5t-13 -16t-15.5 -5.5t-20.5 -1h-256q15 -46 52.5 -73t81.5 -27q22 0 45.5 11t35.5 38v-1q6 21 15.5 26.5t29.5 5.5q49 0 49 -43q0 -13 -10 -32.5t-30 -42.5t-57.5 -38.5t-84.5 -15.5q-96 0 -162.5 68.5t-66.5 165.5zM136 277h208q-14 92 -96 92
q-37 0 -67.5 -26t-44.5 -66z" />
    <glyph glyph-name="igrave" unicode="&#xec;" 
d="M55 46.5q0 16.5 5 26.5t14.5 14t16 4.5t17.5 0.5h97v268h-89q-11 0 -17.5 1t-16.5 5t-15 14t-5 26.5t5 26.5t15 14t16.5 5t17.5 1h131q33 0 43 -12t10 -45v-304h82q10 0 17 -0.5t17 -4.5t15 -14.5t5 -26.5t-5 -26.5t-15 -14t-17 -4.5t-17 -1h-274q-10 0 -16.5 1
t-16.5 4.5t-15 14t-5 27zM142 617q0 23 15 38t35 15q11 0 79 -32q10 -3 33 -14.5t36 -17.5q1 -1 3 -2q10 -5 15.5 -8.5t11.5 -13.5t6 -22q0 -19 -13.5 -38t-34.5 -19q-9 0 -54 21q-11 5 -17 8l-78 35q-12 7 -17 10.5t-12.5 14.5t-7.5 25z" />
    <glyph glyph-name="iacute" unicode="&#xed;" 
d="M55 46.5q0 16.5 5 26.5t14.5 14t16 4.5t17.5 0.5h97v268h-89q-11 0 -17.5 1t-16.5 5t-15 14t-5 26.5t5 26.5t15 14t16.5 5t17.5 1h131q33 0 43 -12t10 -45v-304h82q10 0 17 -0.5t17 -4.5t15 -14.5t5 -26.5t-5 -26.5t-15 -14t-17 -4.5t-17 -1h-274q-10 0 -16.5 1
t-16.5 4.5t-15 14t-5 27zM136 560q0 13 6 22.5t11 13.5t15 9q6 4 9 4l34 16q12 5 25 11t20.5 9.5t16 7.5t13 6l9 4t7.5 3t5.5 2t4.5 1.5t4 0.5h4q19 0 34.5 -15t15.5 -38q0 -32 -38 -51l-70 -32l-22 -10t-17 -7.5t-12 -5.5t-8.5 -4t-5.5 -2t-5 -1.5t-3.5 -0.5h-4.5
q-21 0 -34.5 19.5t-13.5 37.5z" />
    <glyph glyph-name="icircumflex" unicode="&#xee;" 
d="M86 541q0 23 28 44l58 41h-1q48 34 60.5 41t24.5 7q10 0 24.5 -8.5t79.5 -54.5q23 -16 37 -25q29 -21 29 -46q0 -16 -15.5 -35.5t-35.5 -19.5t-78 48l-42 32q-2 0 -7 -5l-13 -11h1l-30 -22q-6 -4 -14.5 -10.5t-12 -9.5t-9.5 -7t-8.5 -5.5t-7 -4t-7 -3.5t-6 -1.5
t-6.5 -0.5q-19 0 -34 19.5t-15 36.5zM55 46.5q0 16.5 5 26.5t14.5 14t16 4.5t17.5 0.5h97v268h-89q-11 0 -17.5 1t-16.5 5t-15 14t-5 26.5t5 26.5t15 14t16.5 5t17.5 1h131q33 0 43 -12t10 -45v-304h82q10 0 17 -0.5t17 -4.5t15 -14.5t5 -26.5t-5 -26.5t-15 -14t-17 -4.5
t-17 -1h-274q-10 0 -16.5 1t-16.5 4.5t-15 14t-5 27z" />
    <glyph glyph-name="idieresis" unicode="&#xef;" 
d="M55 46.5q0 16.5 5 26.5t14.5 14t16 4.5t17.5 0.5h97v268h-89q-11 0 -17.5 1t-16.5 5t-15 14t-5 26.5t5 26.5t15 14t16.5 5t17.5 1h131q33 0 43 -12t10 -45v-304h82q10 0 17 -0.5t17 -4.5t15 -14.5t5 -26.5t-5 -26.5t-15 -14t-17 -4.5t-17 -1h-274q-10 0 -16.5 1
t-16.5 4.5t-15 14t-5 27zM95 574q0 28 18.5 48t45.5 20q25 0 44 -19.5t19 -47.5t-18 -47.5t-45 -19.5q-26 0 -45 19t-19 47zM289 574q0 28 18 48t45 20q25 0 44.5 -19.5t19.5 -47.5t-18 -47.5t-46 -19.5t-45.5 19.5t-17.5 46.5z" />
    <glyph glyph-name="eth" unicode="&#xf0;" 
d="M34 227q0 99 61.5 166t144.5 67q12 0 18 -1q-8 8 -30 25q-43 -29 -61 -29t-32 15.5t-14 35.5q0 15 6 22l-30 4q-17 2 -24 3.5t-16 6t-12.5 13t-3.5 23.5q1 18 15.5 34t36.5 16q53 0 127 -28q5 -4 8 -4l18 11v-1q30 21 45 21q19 0 32 -17t13 -34q0 -23 -21 -38
q2 -3 17 -17t25 -24.5t20 -25.5q70 -96 70 -220v-17q0 -58 -19 -105t-49 -75.5t-66 -43.5t-72 -15q-83 0 -145 66.5t-62 165.5zM131 233q0 -61 32.5 -103.5t77.5 -42.5t77 43.5t32 99.5q0 52 -31 94t-79 42q-46 0 -77.5 -39t-31.5 -94z" />
    <glyph glyph-name="ntilde" unicode="&#xf1;" 
d="M62 538q0 19 20 38q66 66 116 66q17 0 33 -8t23 -13.5t21 -18.5q13 -14 17 -14q8 0 40 26q29 26 46.5 26t31.5 -14t14 -33q0 -21 -20 -40q-62 -65 -116 -65q-18 0 -33 7t-22.5 13t-18.5 18q-14 15 -19 15q-7 0 -40 -25q-1 -1 -5 -4.5t-5 -4.5t-4.5 -4t-4.5 -3.5t-4 -3
t-5 -3t-4.5 -2t-4.5 -2t-4.5 -1t-5.5 -0.5q-20 0 -33 16t-13 34zM-7 46q0 16 5 26.5t15 14.5t16.5 4.5t17.5 0.5h25v268h-26q-10 0 -16.5 1t-16.5 4.5t-15 13.5t-5 26q0 17 5 27.5t15 14.5t16.5 5t17.5 1h68q25 0 36.5 -7t14.5 -22q48 34 107 34q65 0 101 -38.5t36 -118.5
v-209h25q11 0 17.5 -0.5t16 -4.5t14.5 -14t5 -26.5t-5 -27t-15 -14t-16.5 -4.5t-16.5 -1h-141q-42 0 -51 24q-10 -24 -49 -24h-148q-10 0 -16.5 1t-16.5 4.5t-15 14t-5 26.5zM193 92q41 0 50 -25q4 12 14 18t17 6.5t20 0.5h20v205q0 37 -9.5 52.5t-36.5 15.5
q-37 0 -68.5 -29.5t-31.5 -87.5v-156h25z" />
    <glyph glyph-name="ograve" unicode="&#xf2;" 
d="M35 227q0 97 61 165.5t145 68.5t145 -68.5t61 -165.5q0 -98 -61 -165.5t-145 -67.5t-145 67t-61 166zM131 233q0 -60 32.5 -103.5t77.5 -43.5t77.5 43.5t32.5 103.5q0 58 -32.5 97t-77.5 39t-77.5 -39t-32.5 -97zM130 617q0 23 15 38t35 15q11 0 79 -32q10 -3 33 -14.5
t36 -17.5q1 -1 3 -2q10 -5 15.5 -8.5t11.5 -13.5t6 -22q0 -19 -13.5 -38t-34.5 -19q-9 0 -54 21q-11 5 -17 8l-78 35q-12 7 -17 10.5t-12.5 14.5t-7.5 25z" />
    <glyph glyph-name="oacute" unicode="&#xf3;" 
d="M124 560q0 13 6 22.5t11 13.5t15 9q6 4 9 4l34 16q12 5 25 11t20.5 9.5t16 7.5t13 6l9 4t7.5 3t5.5 2t4.5 1.5t4 0.5h4q19 0 34.5 -15t15.5 -38q0 -32 -38 -51l-70 -32l-22 -10t-17 -7.5t-12 -5.5t-8.5 -4t-5.5 -2t-5 -1.5t-3.5 -0.5h-4.5q-21 0 -34.5 19.5t-13.5 37.5z
M35 227q0 97 61 165.5t145 68.5t145 -68.5t61 -165.5q0 -98 -61 -165.5t-145 -67.5t-145 67t-61 166zM131 233q0 -60 32.5 -103.5t77.5 -43.5t77.5 43.5t32.5 103.5q0 58 -32.5 97t-77.5 39t-77.5 -39t-32.5 -97z" />
    <glyph glyph-name="ocircumflex" unicode="&#xf4;" 
d="M74 541q0 23 28 44l58 41h-1q48 34 60.5 41t24.5 7q10 0 24.5 -8.5t79.5 -54.5q23 -16 37 -25q29 -21 29 -46q0 -16 -15.5 -35.5t-35.5 -19.5t-78 48l-42 32q-2 0 -7 -5l-13 -11h1l-30 -22q-6 -4 -14.5 -10.5t-12 -9.5t-9.5 -7t-8.5 -5.5t-7 -4t-7 -3.5t-6 -1.5
t-6.5 -0.5q-19 0 -34 19.5t-15 36.5zM35 227q0 97 61 165.5t145 68.5t145 -68.5t61 -165.5q0 -98 -61 -165.5t-145 -67.5t-145 67t-61 166zM131 233q0 -60 32.5 -103.5t77.5 -43.5t77.5 43.5t32.5 103.5q0 58 -32.5 97t-77.5 39t-77.5 -39t-32.5 -97z" />
    <glyph glyph-name="otilde" unicode="&#xf5;" 
d="M62 538q0 19 20 38q66 66 116 66q17 0 33 -8t23 -13.5t21 -18.5q13 -14 17 -14q8 0 40 26q29 26 46.5 26t31.5 -14t14 -33q0 -21 -20 -40q-62 -65 -116 -65q-18 0 -33 7t-22.5 13t-18.5 18q-14 15 -19 15q-7 0 -40 -25q-1 -1 -5 -4.5t-5 -4.5t-4.5 -4t-4.5 -3.5t-4 -3
t-5 -3t-4.5 -2t-4.5 -2t-4.5 -1t-5.5 -0.5q-20 0 -33 16t-13 34zM35 227q0 97 61 165.5t145 68.5t145 -68.5t61 -165.5q0 -98 -61 -165.5t-145 -67.5t-145 67t-61 166zM131 233q0 -60 32.5 -103.5t77.5 -43.5t77.5 43.5t32.5 103.5q0 58 -32.5 97t-77.5 39t-77.5 -39
t-32.5 -97z" />
    <glyph glyph-name="odieresis" unicode="&#xf6;" 
d="M83 574q0 28 18.5 48t45.5 20q25 0 44 -19.5t19 -47.5t-18 -47.5t-45 -19.5q-26 0 -45 19t-19 47zM277 574q0 28 18 48t45 20q25 0 44.5 -19.5t19.5 -47.5t-18 -47.5t-46 -19.5t-45.5 19.5t-17.5 46.5zM35 227q0 97 61 165.5t145 68.5t145 -68.5t61 -165.5
q0 -98 -61 -165.5t-145 -67.5t-145 67t-61 166zM131 233q0 -60 32.5 -103.5t77.5 -43.5t77.5 43.5t32.5 103.5q0 58 -32.5 97t-77.5 39t-77.5 -39t-32.5 -97z" />
    <glyph glyph-name="divide" unicode="&#xf7;" 
d="M14 320q0 20 12.5 34.5t31.5 17.5h358q31 0 43.5 -15.5t12.5 -35.5q0 -7 -2 -14.5t-7.5 -16.5t-17.5 -14.5t-30 -5.5h-346q-32 0 -43.5 16t-11.5 34zM173 149q0 30 20.5 52t48.5 22q29 0 50 -21t21 -53q0 -30 -20.5 -51t-49.5 -21q-28 0 -49 20.5t-21 51.5zM173 492
q0 30 20.5 51.5t48.5 21.5q29 0 50 -20.5t21 -52.5q0 -29 -20.5 -51t-49.5 -22q-28 0 -49 21.5t-21 51.5z" />
    <glyph glyph-name="oslash" unicode="&#xf8;" 
d="M21 -90q0 11 5.5 22.5t45.5 82.5v-1q4 9 11 20.5t12 20.5q-72 64 -72 171q0 98 64.5 166t153.5 68q36 0 70 -13l5 10q20 36 56 99q1 1 3 5.5t3 5.5t3 4.5t3.5 5l4 4t5 3.5t5.5 2.5t7 2t8 0.5q16 0 31 -13.5t15 -32.5q0 -7 -4 -17t-8 -18t-13 -24.5t-14 -25.5
q-4 -8 -15.5 -26.5t-18.5 -32.5q71 -70 71 -173q0 -98 -64 -164.5t-153 -66.5q-42 0 -71 11q-25 -47 -26 -48v1q-40 -73 -48.5 -84t-27.5 -11q-18 0 -32.5 12.5t-14.5 33.5zM107 226q0 -53 33 -91l126 230q-4 0 -12.5 0.5t-12.5 0.5q-54 0 -94 -40t-40 -100zM343 317
q-114 -206 -126 -228q14 -2 23 -2q57 0 95.5 41.5t38.5 97.5q0 53 -31 91zM207 71l-10 25l20 -7z" />
    <glyph glyph-name="ugrave" unicode="&#xf9;" 
d="M-7 405q0 17 5 27.5t15 14.5t16.5 5t17.5 1h68q32 0 42.5 -12t10.5 -45v-263q0 -11 1 -17t6 -14.5t17.5 -12t32.5 -3.5q12 0 25 3t28.5 11t25.5 26t10 43v191h-26q-10 0 -16.5 1t-16.5 4.5t-15 13.5t-5 26q0 17 5 27.5t15 14.5t16.5 5t17.5 1h68q32 0 42.5 -12t10.5 -45
v-304h25q10 0 16.5 -0.5t16.5 -4.5t15 -14.5t5 -26.5t-5 -26.5t-14.5 -14t-16 -4.5t-17.5 -1h-68q-37 0 -47 20q-46 -26 -100 -26q-148 0 -148 133v233h-26q-10 0 -16.5 1t-16.5 4.5t-15 13.5t-5 26zM130 617q0 23 15 38t35 15q11 0 79 -32q10 -3 33 -14.5t36 -17.5
q1 -1 3 -2q10 -5 15.5 -8.5t11.5 -13.5t6 -22q0 -19 -13.5 -38t-34.5 -19q-9 0 -54 21q-11 5 -17 8l-78 35q-12 7 -17 10.5t-12.5 14.5t-7.5 25z" />
    <glyph glyph-name="uacute" unicode="&#xfa;" 
d="M124 560q0 13 6 22.5t11 13.5t15 9q6 4 9 4l34 16q12 5 25 11t20.5 9.5t16 7.5t13 6l9 4t7.5 3t5.5 2t4.5 1.5t4 0.5h4q19 0 34.5 -15t15.5 -38q0 -32 -38 -51l-70 -32l-22 -10t-17 -7.5t-12 -5.5t-8.5 -4t-5.5 -2t-5 -1.5t-3.5 -0.5h-4.5q-21 0 -34.5 19.5t-13.5 37.5z
M-7 405q0 17 5 27.5t15 14.5t16.5 5t17.5 1h68q32 0 42.5 -12t10.5 -45v-263q0 -11 1 -17t6 -14.5t17.5 -12t32.5 -3.5q12 0 25 3t28.5 11t25.5 26t10 43v191h-26q-10 0 -16.5 1t-16.5 4.5t-15 13.5t-5 26q0 17 5 27.5t15 14.5t16.5 5t17.5 1h68q32 0 42.5 -12t10.5 -45
v-304h25q10 0 16.5 -0.5t16.5 -4.5t15 -14.5t5 -26.5t-5 -26.5t-14.5 -14t-16 -4.5t-17.5 -1h-68q-37 0 -47 20q-46 -26 -100 -26q-148 0 -148 133v233h-26q-10 0 -16.5 1t-16.5 4.5t-15 13.5t-5 26z" />
    <glyph glyph-name="ucircumflex" unicode="&#xfb;" 
d="M74 541q0 23 28 44l58 41h-1q48 34 60.5 41t24.5 7q10 0 24.5 -8.5t79.5 -54.5q23 -16 37 -25q29 -21 29 -46q0 -16 -15.5 -35.5t-35.5 -19.5t-78 48l-42 32q-2 0 -7 -5l-13 -11h1l-30 -22q-6 -4 -14.5 -10.5t-12 -9.5t-9.5 -7t-8.5 -5.5t-7 -4t-7 -3.5t-6 -1.5
t-6.5 -0.5q-19 0 -34 19.5t-15 36.5zM-7 405q0 17 5 27.5t15 14.5t16.5 5t17.5 1h68q32 0 42.5 -12t10.5 -45v-263q0 -11 1 -17t6 -14.5t17.5 -12t32.5 -3.5q12 0 25 3t28.5 11t25.5 26t10 43v191h-26q-10 0 -16.5 1t-16.5 4.5t-15 13.5t-5 26q0 17 5 27.5t15 14.5t16.5 5
t17.5 1h68q32 0 42.5 -12t10.5 -45v-304h25q10 0 16.5 -0.5t16.5 -4.5t15 -14.5t5 -26.5t-5 -26.5t-14.5 -14t-16 -4.5t-17.5 -1h-68q-37 0 -47 20q-46 -26 -100 -26q-148 0 -148 133v233h-26q-10 0 -16.5 1t-16.5 4.5t-15 13.5t-5 26z" />
    <glyph glyph-name="udieresis" unicode="&#xfc;" 
d="M83 574q0 28 18.5 48t45.5 20q25 0 44 -19.5t19 -47.5t-18 -47.5t-45 -19.5q-26 0 -45 19t-19 47zM277 574q0 28 18 48t45 20q25 0 44.5 -19.5t19.5 -47.5t-18 -47.5t-46 -19.5t-45.5 19.5t-17.5 46.5zM-7 405q0 17 5 27.5t15 14.5t16.5 5t17.5 1h68q32 0 42.5 -12
t10.5 -45v-263q0 -11 1 -17t6 -14.5t17.5 -12t32.5 -3.5q12 0 25 3t28.5 11t25.5 26t10 43v191h-26q-10 0 -16.5 1t-16.5 4.5t-15 13.5t-5 26q0 17 5 27.5t15 14.5t16.5 5t17.5 1h68q32 0 42.5 -12t10.5 -45v-304h25q10 0 16.5 -0.5t16.5 -4.5t15 -14.5t5 -26.5t-5 -26.5
t-14.5 -14t-16 -4.5t-17.5 -1h-68q-37 0 -47 20q-46 -26 -100 -26q-148 0 -148 133v233h-26q-10 0 -16.5 1t-16.5 4.5t-15 13.5t-5 26z" />
    <glyph glyph-name="yacute" unicode="&#xfd;" 
d="M130 560q0 13 6 22.5t11 13.5t15 9q6 4 9 4l34 16q12 5 25 11t20.5 9.5t16 7.5t13 6l9 4t7.5 3t5.5 2t4.5 1.5t4 0.5h4q19 0 34.5 -15t15.5 -38q0 -32 -38 -51l-70 -32l-22 -10t-17 -7.5t-12 -5.5t-8.5 -4t-5.5 -2t-5 -1.5t-3.5 -0.5h-4.5q-21 0 -34.5 19.5t-13.5 37.5z
M6 405q0 17 5 27.5t14.5 14.5t16 5t17.5 1h109q11 0 17.5 -1t16 -5t14 -14.5t4.5 -27.5q0 -16 -5 -26t-14.5 -13.5t-16 -4.5t-16.5 -1l78 -211l2 -9q15 42 41.5 124.5t31.5 95.5h-5q-11 0 -17.5 1t-16 5t-14.5 14t-5 26.5t5 26.5t14.5 14t16 5t17.5 1h108q12 0 18.5 -1
t16 -5t14 -14.5t4.5 -27.5q0 -16 -5 -26t-14.5 -13.5t-16 -4.5t-17.5 -1h-16q-123 -378 -140 -432q-4 -12 -7.5 -21.5t-18 -35.5t-30 -44t-42 -33.5t-55.5 -15.5q-40 0 -66.5 29t-26.5 67q0 27 15.5 43.5t41.5 16.5q24 0 39.5 -16.5t15.5 -42.5q25 13 40 43q4 8 10 25
t11 32.5t9 28t4 13.5l-3 6l-128 337h-18q-10 0 -16.5 1t-16.5 4.5t-15 13.5t-5 26z" />
    <glyph glyph-name="thorn" unicode="&#xfe;" 
d="M-8 -169q0 46 50 46h29v657h-34q-45 3 -45 47q0 47 49 47h78q15 0 24.5 -4.5t14 -9t7 -15t2.5 -13.5v-14v-146q49 32 102 32q80 0 138.5 -67t58.5 -164q0 -67 -29.5 -121t-76.5 -82.5t-100 -28.5q-55 0 -93 29v-147h29q50 0 50 -46q0 -47 -49 -47h-156q-49 0 -49 47z
M167 196q0 -17 8.5 -41t30 -46t49.5 -22q45 0 79.5 39.5t34.5 100.5q0 57 -30.5 97t-74.5 40q-40 0 -68.5 -29t-28.5 -59v-80z" />
    <glyph glyph-name="ydieresis" unicode="&#xff;" 
d="M89 574q0 28 18.5 48t45.5 20q25 0 44 -19.5t19 -47.5t-18 -47.5t-45 -19.5q-26 0 -45 19t-19 47zM283 574q0 28 18 48t45 20q25 0 44.5 -19.5t19.5 -47.5t-18 -47.5t-46 -19.5t-45.5 19.5t-17.5 46.5zM6 405q0 17 5 27.5t14.5 14.5t16 5t17.5 1h109q11 0 17.5 -1t16 -5
t14 -14.5t4.5 -27.5q0 -16 -5 -26t-14.5 -13.5t-16 -4.5t-16.5 -1l78 -211l2 -9q15 42 41.5 124.5t31.5 95.5h-5q-11 0 -17.5 1t-16 5t-14.5 14t-5 26.5t5 26.5t14.5 14t16 5t17.5 1h108q12 0 18.5 -1t16 -5t14 -14.5t4.5 -27.5q0 -16 -5 -26t-14.5 -13.5t-16 -4.5t-17.5 -1
h-16q-123 -378 -140 -432q-4 -12 -7.5 -21.5t-18 -35.5t-30 -44t-42 -33.5t-55.5 -15.5q-40 0 -66.5 29t-26.5 67q0 27 15.5 43.5t41.5 16.5q24 0 39.5 -16.5t15.5 -42.5q25 13 40 43q4 8 10 25t11 32.5t9 28t4 13.5l-3 6l-128 337h-18q-10 0 -16.5 1t-16.5 4.5t-15 13.5
t-5 26z" />
    <glyph glyph-name="Amacron" unicode="&#x100;" 
d="M-18 764q0 49 48 49h424q45 -3 45 -49t-45 -46h-423q-49 0 -49 46zM5 47q0 30 23 43q11 4 36 4l112 509q4 18 9.5 28.5t15.5 15t17.5 5.5t24.5 1q18 0 26 -1t17.5 -5.5t15 -15.5t9.5 -29l111 -508q27 0 35 -4q25 -14 25 -43q0 -16 -5 -26.5t-15.5 -14.5t-17.5 -5t-19 -1
h-96q-13 0 -19.5 1t-16.5 5t-15 14.5t-5 26.5q0 28 11.5 37.5t37.5 9.5l-15 70h-127q-11 -47 -15 -70q26 0 37.5 -9.5t11.5 -37.5q0 -16 -5 -26.5t-15 -14.5t-17 -5t-19 -1h-96q-12 0 -19 1t-17.5 5t-15.5 14.5t-5 26.5zM202 258h83l-42 213z" />
    <glyph glyph-name="amacron" unicode="&#x101;" 
d="M11 564q0 49 50 49h293q26 0 37.5 -15t11.5 -34q0 -20 -12 -33.5t-39 -13.5h-293q-26 1 -37 15.5t-11 31.5zM34 141q0 73 75.5 115t201.5 46q-7 67 -102 67q-21 0 -32 -1q-5 0 -5 4q-1 -32 -19 -46t-37 -14q-24 0 -41 16.5t-17 45.5q0 21 7.5 36.5t22 24.5t28.5 15
t34.5 8t31 2.5t26.5 0.5q52 0 92 -15t62.5 -40t34 -53.5t11.5 -58.5l2 -200q6 -2 38 -2q10 0 16.5 -0.5t16 -4.5t14.5 -14.5t5 -26.5t-4 -26t-14 -14t-18.5 -5t-25.5 -1q-26 0 -38.5 0.5t-32.5 7t-32 18.5q-58 -32 -132 -32q-76 0 -122.5 43.5t-46.5 103.5zM130 141
q0 -22 22 -38.5t57 -16.5q47 0 76 15q13 6 19 14t7 14t1 18v65q-85 -5 -133.5 -24t-48.5 -47z" />
    <glyph glyph-name="Abreve" unicode="&#x102;" 
d="M62 783q0 21 12 34t32 13q42 0 45 -50q0 -1 0.5 -2.5t0.5 -2.5v3q4 -21 29.5 -34.5t60.5 -13.5q32 0 59.5 13.5t30.5 39.5q3 47 44 47q20 0 32.5 -12.5t12.5 -35.5q0 -62 -52 -105t-128 -43q-78 0 -128.5 44t-50.5 105zM5 47q0 30 23 43q11 4 36 4l112 509q4 18 9.5 28.5
t15.5 15t17.5 5.5t24.5 1q18 0 26 -1t17.5 -5.5t15 -15.5t9.5 -29l111 -508q27 0 35 -4q25 -14 25 -43q0 -16 -5 -26.5t-15.5 -14.5t-17.5 -5t-19 -1h-96q-13 0 -19.5 1t-16.5 5t-15 14.5t-5 26.5q0 28 11.5 37.5t37.5 9.5l-15 70h-127q-11 -47 -15 -70q26 0 37.5 -9.5
t11.5 -37.5q0 -16 -5 -26.5t-15 -14.5t-17 -5t-19 -1h-96q-12 0 -19 1t-17.5 5t-15.5 14.5t-5 26.5zM202 258h83l-42 213z" />
    <glyph glyph-name="abreve" unicode="&#x103;" 
d="M206 594q92 0 92 29q1 9 3 15.5t7 14.5t14.5 12.5t22.5 4.5q20 0 32.5 -13.5t12.5 -34.5t-9 -41.5t-28 -40.5t-57 -32t-89 -12t-89 12t-57.5 32t-28 40.5t-8.5 41.5t13 34.5t32 13.5q25 0 35.5 -17t10.5 -33q9 -26 91 -26zM34 141q0 73 75.5 115t201.5 46q-7 67 -102 67
q-21 0 -32 -1q-5 0 -5 4q-1 -32 -19 -46t-37 -14q-24 0 -41 16.5t-17 45.5q0 21 7.5 36.5t22 24.5t28.5 15t34.5 8t31 2.5t26.5 0.5q52 0 92 -15t62.5 -40t34 -53.5t11.5 -58.5l2 -200q6 -2 38 -2q10 0 16.5 -0.5t16 -4.5t14.5 -14.5t5 -26.5t-4 -26t-14 -14t-18.5 -5
t-25.5 -1q-26 0 -38.5 0.5t-32.5 7t-32 18.5q-58 -32 -132 -32q-76 0 -122.5 43.5t-46.5 103.5zM130 141q0 -22 22 -38.5t57 -16.5q47 0 76 15q13 6 19 14t7 14t1 18v65q-85 -5 -133.5 -24t-48.5 -47z" />
    <glyph glyph-name="Aogonek" unicode="&#x104;" 
d="M233 -87q0 25 11 47.5t29 38t31 23.5t26 15q3 3 9 5q32 17 56 36q15 11 28 11q16 0 29.5 -13t13.5 -31q0 -22 -18 -39t-52 -36q-3 -3 -14 -10.5t-16 -11t-12.5 -9.5t-12 -11t-7.5 -10l-0.5 -1.5l-0.5 -1.5q0 -7 21 -7q25 1 51 35q9 12 13.5 17t13 10t17.5 5q16 0 31 -14
t15 -33q0 -11 -10.5 -30t-28.5 -39t-47.5 -35t-60.5 -15q-46 0 -80.5 29.5t-34.5 74.5zM5 47q0 30 23 43q11 4 36 4l112 509q4 18 9.5 28.5t15.5 15t17.5 5.5t24.5 1q18 0 26 -1t17.5 -5.5t15 -15.5t9.5 -29l111 -508q27 0 35 -4q25 -14 25 -43q0 -16 -5 -26.5t-15.5 -14.5
t-17.5 -5t-19 -1h-96q-13 0 -19.5 1t-16.5 5t-15 14.5t-5 26.5q0 28 11.5 37.5t37.5 9.5l-15 70h-127q-11 -47 -15 -70q26 0 37.5 -9.5t11.5 -37.5q0 -16 -5 -26.5t-15 -14.5t-17 -5t-19 -1h-96q-12 0 -19 1t-17.5 5t-15.5 14.5t-5 26.5zM202 258h83l-42 213z" />
    <glyph glyph-name="aogonek" unicode="&#x105;" 
d="M222 -87q0 25 11 47.5t29 38t31 23.5t26 15q3 3 9 5q32 17 56 36q15 11 28 11q16 0 29.5 -13t13.5 -31q0 -22 -18 -39t-52 -36q-3 -3 -14 -10.5t-16 -11t-12.5 -9.5t-12 -11t-7.5 -10l-0.5 -1.5l-0.5 -1.5q0 -7 21 -7q25 1 51 35q9 12 13.5 17t13 10t17.5 5q16 0 31 -14
t15 -33q0 -11 -10.5 -30t-28.5 -39t-47.5 -35t-60.5 -15q-46 0 -80.5 29.5t-34.5 74.5zM34 141q0 73 75.5 115t201.5 46q-7 67 -102 67q-21 0 -32 -1q-5 0 -5 4q-1 -32 -19 -46t-37 -14q-24 0 -41 16.5t-17 45.5q0 21 7.5 36.5t22 24.5t28.5 15t34.5 8t31 2.5t26.5 0.5
q52 0 92 -15t62.5 -40t34 -53.5t11.5 -58.5l2 -200q6 -2 38 -2q10 0 16.5 -0.5t16 -4.5t14.5 -14.5t5 -26.5t-4 -26t-14 -14t-18.5 -5t-25.5 -1q-26 0 -38.5 0.5t-32.5 7t-32 18.5q-58 -32 -132 -32q-76 0 -122.5 43.5t-46.5 103.5zM130 141q0 -22 22 -38.5t57 -16.5
q47 0 76 15q13 6 19 14t7 14t1 18v65q-85 -5 -133.5 -24t-48.5 -47z" />
    <glyph glyph-name="Cacute" unicode="&#x106;" 
d="M168 723q0 12 3 20.5t10.5 13.5t12 7t14.5 6l82 29q55 19 62 19q18 0 32.5 -14.5t14.5 -35.5q0 -38 -40 -51q-137 -49 -146 -49q-24 0 -34.5 19.5t-10.5 35.5zM17 321q0 141 72.5 236t171.5 95q65 0 119 -39q4 9 4 12q2 3 2 5q15 22 39 22q16 0 26 -5t13.5 -15.5
t4.5 -17.5t1 -20v-137q0 -14 -1 -21.5t-5 -17.5t-15 -14.5t-28 -4.5q-16 0 -25.5 3.5t-14.5 12t-6.5 13t-3.5 17.5q-9 53 -38.5 83t-67.5 30q-59 0 -104.5 -68t-45.5 -169q0 -102 45.5 -169.5t105.5 -67.5q33 0 67 26t39 79q4 45 49 45q9 0 14.5 -1t15 -5t14.5 -15.5
t5 -28.5q0 -77 -60 -135.5t-148 -58.5q-100 0 -172.5 95t-72.5 236z" />
    <glyph glyph-name="cacute" unicode="&#x107;" 
d="M167 560q0 13 6 22.5t11 13.5t15 9q6 4 9 4l34 16q12 5 25 11t20.5 9.5t16 7.5t13 6l9 4t7.5 3t5.5 2t4.5 1.5t4 0.5h4q19 0 34.5 -15t15.5 -38q0 -32 -38 -51l-70 -32l-22 -10t-17 -7.5t-12 -5.5t-8.5 -4t-5.5 -2t-5 -1.5t-3.5 -0.5h-4.5q-21 0 -34.5 19.5t-13.5 37.5z
M50 227q0 29 7.5 59.5t25 62.5t43 56.5t66 40t89.5 15.5q17 0 28 -0.5t32 -2.5t35 -8t29 -15t22.5 -24.5t7.5 -36.5q0 -28 -17 -45t-41 -17t-39.5 15.5t-16.5 48.5q-3 -7 -40 -7q-32 0 -57 -11t-39 -27t-23.5 -36.5t-12.5 -37t-3 -30.5q0 -59 38 -100t91 -41q59 0 78 49
l-1 -1q7 21 16.5 26.5t29.5 5.5q48 0 48 -43q0 -8 -4.5 -21.5t-17 -32.5t-31 -35.5t-51 -28t-72.5 -11.5q-93 0 -156.5 68.5t-63.5 164.5z" />
    <glyph glyph-name="Ccircumflex" unicode="&#x108;" 
d="M92 695q0 25 25 42q89 70 109.5 84t33.5 14q10 0 20.5 -6.5t57.5 -42.5l65 -51q23 -19 23 -39q0 -18 -16 -36t-34 -18q-20 0 -101 69l-17 15l-35 -29q-43 -37 -56.5 -46t-25.5 -9q-19 0 -34 18t-15 35zM17 321q0 141 72.5 236t171.5 95q65 0 119 -39q4 9 4 12q2 3 2 5
q15 22 39 22q16 0 26 -5t13.5 -15.5t4.5 -17.5t1 -20v-137q0 -14 -1 -21.5t-5 -17.5t-15 -14.5t-28 -4.5q-16 0 -25.5 3.5t-14.5 12t-6.5 13t-3.5 17.5q-9 53 -38.5 83t-67.5 30q-59 0 -104.5 -68t-45.5 -169q0 -102 45.5 -169.5t105.5 -67.5q33 0 67 26t39 79q4 45 49 45
q9 0 14.5 -1t15 -5t14.5 -15.5t5 -28.5q0 -77 -60 -135.5t-148 -58.5q-100 0 -172.5 95t-72.5 236z" />
    <glyph glyph-name="ccircumflex" unicode="&#x109;" 
d="M117 541q0 23 28 44l58 41h-1q48 34 60.5 41t24.5 7q10 0 24.5 -8.5t79.5 -54.5q23 -16 37 -25q29 -21 29 -46q0 -16 -15.5 -35.5t-35.5 -19.5t-78 48l-42 32q-2 0 -7 -5l-13 -11h1l-30 -22q-6 -4 -14.5 -10.5t-12 -9.5t-9.5 -7t-8.5 -5.5t-7 -4t-7 -3.5t-6 -1.5
t-6.5 -0.5q-19 0 -34 19.5t-15 36.5zM50 227q0 29 7.5 59.5t25 62.5t43 56.5t66 40t89.5 15.5q17 0 28 -0.5t32 -2.5t35 -8t29 -15t22.5 -24.5t7.5 -36.5q0 -28 -17 -45t-41 -17t-39.5 15.5t-16.5 48.5q-3 -7 -40 -7q-32 0 -57 -11t-39 -27t-23.5 -36.5t-12.5 -37t-3 -30.5
q0 -59 38 -100t91 -41q59 0 78 49l-1 -1q7 21 16.5 26.5t29.5 5.5q48 0 48 -43q0 -8 -4.5 -21.5t-17 -32.5t-31 -35.5t-51 -28t-72.5 -11.5q-93 0 -156.5 68.5t-63.5 164.5z" />
    <glyph glyph-name="Cdotaccent" unicode="&#x10a;" 
d="M197 719.5q0 27.5 19 46t43 18.5q25 0 43.5 -18.5t18.5 -46.5q0 -27 -18.5 -46t-41.5 -19q-27 0 -45.5 19t-18.5 46.5zM17 321q0 141 72.5 236t171.5 95q65 0 119 -39q4 9 4 12q2 3 2 5q15 22 39 22q16 0 26 -5t13.5 -15.5t4.5 -17.5t1 -20v-137q0 -14 -1 -21.5t-5 -17.5
t-15 -14.5t-28 -4.5q-16 0 -25.5 3.5t-14.5 12t-6.5 13t-3.5 17.5q-9 53 -38.5 83t-67.5 30q-59 0 -104.5 -68t-45.5 -169q0 -102 45.5 -169.5t105.5 -67.5q33 0 67 26t39 79q4 45 49 45q9 0 14.5 -1t15 -5t14.5 -15.5t5 -28.5q0 -77 -60 -135.5t-148 -58.5
q-100 0 -172.5 95t-72.5 236z" />
    <glyph glyph-name="cdotaccent" unicode="&#x10b;" 
d="M222 575q0 28 19.5 47.5t44.5 19.5t44 -19.5t19 -47.5t-19 -47.5t-43 -19.5q-28 0 -46.5 19.5t-18.5 47.5zM50 227q0 29 7.5 59.5t25 62.5t43 56.5t66 40t89.5 15.5q17 0 28 -0.5t32 -2.5t35 -8t29 -15t22.5 -24.5t7.5 -36.5q0 -28 -17 -45t-41 -17t-39.5 15.5
t-16.5 48.5q-3 -7 -40 -7q-32 0 -57 -11t-39 -27t-23.5 -36.5t-12.5 -37t-3 -30.5q0 -59 38 -100t91 -41q59 0 78 49l-1 -1q7 21 16.5 26.5t29.5 5.5q48 0 48 -43q0 -8 -4.5 -21.5t-17 -32.5t-31 -35.5t-51 -28t-72.5 -11.5q-93 0 -156.5 68.5t-63.5 164.5z" />
    <glyph glyph-name="Ccaron" unicode="&#x10c;" 
d="M110 772q0 17 13 30.5t30 13.5q11 0 21.5 -8t34.5 -31q5 -4 7 -6q8 -8 22 -19.5t23 -19.5q62 58 66 62q25 22 39 22t29 -11.5t15 -38.5q0 -11 -18 -31.5t-98 -98.5q-17 -18 -35 -18t-35 18l-43 42q-53 55 -62 66.5t-9 27.5zM17 321q0 141 72.5 236t171.5 95q65 0 119 -39
q4 9 4 12q2 3 2 5q15 22 39 22q16 0 26 -5t13.5 -15.5t4.5 -17.5t1 -20v-137q0 -14 -1 -21.5t-5 -17.5t-15 -14.5t-28 -4.5q-16 0 -25.5 3.5t-14.5 12t-6.5 13t-3.5 17.5q-9 53 -38.5 83t-67.5 30q-59 0 -104.5 -68t-45.5 -169q0 -102 45.5 -169.5t105.5 -67.5q33 0 67 26
t39 79q4 45 49 45q9 0 14.5 -1t15 -5t14.5 -15.5t5 -28.5q0 -77 -60 -135.5t-148 -58.5q-100 0 -172.5 95t-72.5 236z" />
    <glyph glyph-name="ccaron" unicode="&#x10d;" 
d="M136 624q0 18 13 32t30 14q23 0 109 -77l4 3.5t12.5 10.5t15.5 13q58 49 77 50q19 0 32 -14.5t13 -31.5q0 -16 -14 -32t-62 -56l-44 -39q-21 -16 -36 -16q-10 0 -23.5 10.5t-79.5 67.5q-1 0 -9.5 8t-12.5 12q-25 19 -25 45zM50 227q0 29 7.5 59.5t25 62.5t43 56.5t66 40
t89.5 15.5q17 0 28 -0.5t32 -2.5t35 -8t29 -15t22.5 -24.5t7.5 -36.5q0 -28 -17 -45t-41 -17t-39.5 15.5t-16.5 48.5q-3 -7 -40 -7q-32 0 -57 -11t-39 -27t-23.5 -36.5t-12.5 -37t-3 -30.5q0 -59 38 -100t91 -41q59 0 78 49l-1 -1q7 21 16.5 26.5t29.5 5.5q48 0 48 -43
q0 -8 -4.5 -21.5t-17 -32.5t-31 -35.5t-51 -28t-72.5 -11.5q-93 0 -156.5 68.5t-63.5 164.5z" />
    <glyph glyph-name="Dcaron" unicode="&#x10e;" 
d="M47 772q0 17 13 30.5t30 13.5q11 0 21.5 -8t34.5 -31q5 -4 7 -6q8 -8 22 -19.5t23 -19.5q62 58 66 62q25 22 39 22t29 -11.5t15 -38.5q0 -11 -18 -31.5t-98 -98.5q-17 -18 -35 -18t-35 18l-43 42q-53 55 -62 66.5t-9 27.5zM-3 47q0 17 5 27.5t15 14.5t16.5 4.5t18.5 0.5
h5v453h-5q-9 0 -14 0.5t-14 3t-14 7t-9 14t-4 22.5q0 17 5 27.5t15 14.5t16.5 5t18.5 1h195q65 0 117 -47t79 -120.5t27 -158.5t-27.5 -156.5t-79 -115.5t-116.5 -44h-195q-9 0 -14 0.5t-14 3t-14 7t-9 14t-4 22.5zM154 94h75q45 0 79 33.5t49.5 83t15.5 105.5q0 57 -15 108
t-49 87t-80 36h-75v-453z" />
    <glyph glyph-name="dcaron" unicode="&#x10f;" 
d="M63 804q0 18 13 32t30 14q23 0 109 -77l4 3.5t12.5 10.5t15.5 13q58 49 77 50q19 0 32 -14.5t13 -31.5q0 -16 -14 -32t-62 -56l-44 -39q-21 -16 -36 -16q-10 0 -23.5 10.5t-79.5 67.5q-1 0 -9.5 8t-12.5 12q-25 19 -25 45zM16 226q0 98 61 165t145 67q47 0 92 -28v106
h-25q-10 0 -16.5 0.5t-16.5 4.5t-15 14t-5 26t5 26.5t14.5 14.5t16 5t17.5 1h68q33 0 43 -11.5t10 -45.5v-479h26q10 0 16.5 -0.5t16.5 -4.5t15 -14.5t5 -26.5t-5 -26.5t-15 -14t-16.5 -4.5t-17.5 -1h-68q-27 0 -38.5 7t-13.5 23q-45 -36 -102 -36q-80 0 -138.5 67.5
t-58.5 164.5zM112 226q0 -58 31 -99t74 -41q42 0 69.5 39.5t27.5 80.5v68q0 36 -25.5 63.5t-62.5 27.5q-45 0 -79.5 -39t-34.5 -100z" />
    <glyph glyph-name="Dcroat" unicode="&#x110;" 
d="M-4 47q0 49 50 49h10v172h-9q-51 0 -51 47q0 48 52 48h8v183h-8q-52 0 -52 48q0 18 11 33t40 15h200q65 0 116.5 -46t79 -120t27.5 -160q0 -85 -28 -157.5t-79 -115.5t-113 -43h-206q-26 0 -37 14.5t-11 32.5zM154 96h73q37 0 66 20.5t45.5 53.5t25 70.5t8.5 74.5
q0 96 -39.5 163.5t-101.5 67.5h-77v-183h90q29 0 39.5 -15t10.5 -33q0 -16 -5 -26t-14 -14.5t-16.5 -5.5t-18.5 -1h-86v-172z" />
    <glyph glyph-name="dcroat" unicode="&#x111;" 
d="M15 192q0 77 58 137.5t148 60.5q48 0 93 -17v43h-162q-28 0 -38.5 14t-10.5 31q0 47 48 47h163v26h-28q-50 0 -50 47t48 47h77q29 0 39.5 -12.5t10.5 -39.5v-68h28q50 0 50 -47q0 -45 -50 -45h-28v-323h27q51 0 51 -47q0 -46 -50 -46h-78q-32 1 -43 22q-46 -27 -106 -27
q-85 0 -141 59t-56 138zM112 192q0 -41 30 -73t75 -32q39 0 68 19t29 44v109q0 13 -7 17q-21 20 -79 20q-53 0 -84.5 -31.5t-31.5 -72.5z" />
    <glyph glyph-name="Emacron" unicode="&#x112;" 
d="M-16 764q0 49 48 49h424q45 -3 45 -49t-45 -46h-423q-49 0 -49 46zM4 47.5q0 16.5 5 27t15 14.5t16.5 4.5t18.5 0.5h12v453h-12q-11 0 -17.5 1t-17 5t-15.5 14.5t-5 27t5 27t15.5 14.5t17 5t17.5 1h353q34 0 44 -12t10 -46v-73q0 -14 -1 -21.5t-5 -17.5t-15 -14t-28 -4
t-27.5 4.5t-14.5 14.5t-5 17.5t-1 20.5v36h-200v-168h92q0 33 9 45t40 12q17 0 27.5 -4.5t14.5 -15t5 -17.5t1 -21v-92q0 -14 -1 -21.5t-5 -17.5t-14.5 -14.5t-27.5 -4.5q-31 0 -40 12t-9 45h-92v-191h220v52q0 14 1 21.5t5 17.5t15 14.5t29 4.5q17 0 27.5 -4.5t14.5 -15
t5 -17.5t1 -21v-88q0 -35 -10.5 -46.5t-43.5 -11.5h-374q-11 0 -17.5 1t-17 5t-15.5 14.5t-5 27z" />
    <glyph glyph-name="emacron" unicode="&#x113;" 
d="M55 564q0 49 50 49h293q26 0 37.5 -15t11.5 -34q0 -20 -12 -33.5t-39 -13.5h-293q-26 1 -37 15.5t-11 31.5zM33 228q0 96 63 164.5t152 68.5q94 0 145 -63.5t51 -159.5q0 -18 -4 -29.5t-13 -16t-15.5 -5.5t-20.5 -1h-256q15 -46 52.5 -73t81.5 -27q22 0 45.5 11t35.5 38
v-1q6 21 15.5 26.5t29.5 5.5q49 0 49 -43q0 -13 -10 -32.5t-30 -42.5t-57.5 -38.5t-84.5 -15.5q-96 0 -162.5 68.5t-66.5 165.5zM136 277h208q-14 92 -96 92q-37 0 -67.5 -26t-44.5 -66z" />
    <glyph glyph-name="Ebreve" unicode="&#x114;" 
d="M64 783q0 21 12 34t32 13q42 0 45 -50q0 -1 0.5 -2.5t0.5 -2.5v3q4 -21 29.5 -34.5t60.5 -13.5q32 0 59.5 13.5t30.5 39.5q3 47 44 47q20 0 32.5 -12.5t12.5 -35.5q0 -62 -52 -105t-128 -43q-78 0 -128.5 44t-50.5 105zM4 47.5q0 16.5 5 27t15 14.5t16.5 4.5t18.5 0.5h12
v453h-12q-11 0 -17.5 1t-17 5t-15.5 14.5t-5 27t5 27t15.5 14.5t17 5t17.5 1h353q34 0 44 -12t10 -46v-73q0 -14 -1 -21.5t-5 -17.5t-15 -14t-28 -4t-27.5 4.5t-14.5 14.5t-5 17.5t-1 20.5v36h-200v-168h92q0 33 9 45t40 12q17 0 27.5 -4.5t14.5 -15t5 -17.5t1 -21v-92
q0 -14 -1 -21.5t-5 -17.5t-14.5 -14.5t-27.5 -4.5q-31 0 -40 12t-9 45h-92v-191h220v52q0 14 1 21.5t5 17.5t15 14.5t29 4.5q17 0 27.5 -4.5t14.5 -15t5 -17.5t1 -21v-88q0 -35 -10.5 -46.5t-43.5 -11.5h-374q-11 0 -17.5 1t-17 5t-15.5 14.5t-5 27z" />
    <glyph glyph-name="ebreve" unicode="&#x115;" 
d="M250 594q92 0 92 29q1 9 3 15.5t7 14.5t14.5 12.5t22.5 4.5q20 0 32.5 -13.5t12.5 -34.5t-9 -41.5t-28 -40.5t-57 -32t-89 -12t-89 12t-57.5 32t-28 40.5t-8.5 41.5t13 34.5t32 13.5q25 0 35.5 -17t10.5 -33q9 -26 91 -26zM33 228q0 96 63 164.5t152 68.5q94 0 145 -63.5
t51 -159.5q0 -18 -4 -29.5t-13 -16t-15.5 -5.5t-20.5 -1h-256q15 -46 52.5 -73t81.5 -27q22 0 45.5 11t35.5 38v-1q6 21 15.5 26.5t29.5 5.5q49 0 49 -43q0 -13 -10 -32.5t-30 -42.5t-57.5 -38.5t-84.5 -15.5q-96 0 -162.5 68.5t-66.5 165.5zM136 277h208q-14 92 -96 92
q-37 0 -67.5 -26t-44.5 -66z" />
    <glyph glyph-name="Edotaccent" unicode="&#x116;" 
d="M181 719.5q0 27.5 19 46t43 18.5q25 0 43.5 -18.5t18.5 -46.5q0 -27 -18.5 -46t-41.5 -19q-27 0 -45.5 19t-18.5 46.5zM4 47.5q0 16.5 5 27t15 14.5t16.5 4.5t18.5 0.5h12v453h-12q-11 0 -17.5 1t-17 5t-15.5 14.5t-5 27t5 27t15.5 14.5t17 5t17.5 1h353q34 0 44 -12
t10 -46v-73q0 -14 -1 -21.5t-5 -17.5t-15 -14t-28 -4t-27.5 4.5t-14.5 14.5t-5 17.5t-1 20.5v36h-200v-168h92q0 33 9 45t40 12q17 0 27.5 -4.5t14.5 -15t5 -17.5t1 -21v-92q0 -14 -1 -21.5t-5 -17.5t-14.5 -14.5t-27.5 -4.5q-31 0 -40 12t-9 45h-92v-191h220v52
q0 14 1 21.5t5 17.5t15 14.5t29 4.5q17 0 27.5 -4.5t14.5 -15t5 -17.5t1 -21v-88q0 -35 -10.5 -46.5t-43.5 -11.5h-374q-11 0 -17.5 1t-17 5t-15.5 14.5t-5 27z" />
    <glyph glyph-name="edotaccent" unicode="&#x117;" 
d="M187 575q0 28 19.5 47.5t44.5 19.5t44 -19.5t19 -47.5t-19 -47.5t-43 -19.5q-28 0 -46.5 19.5t-18.5 47.5zM33 228q0 96 63 164.5t152 68.5q94 0 145 -63.5t51 -159.5q0 -18 -4 -29.5t-13 -16t-15.5 -5.5t-20.5 -1h-256q15 -46 52.5 -73t81.5 -27q22 0 45.5 11t35.5 38
v-1q6 21 15.5 26.5t29.5 5.5q49 0 49 -43q0 -13 -10 -32.5t-30 -42.5t-57.5 -38.5t-84.5 -15.5q-96 0 -162.5 68.5t-66.5 165.5zM136 277h208q-14 92 -96 92q-37 0 -67.5 -26t-44.5 -66z" />
    <glyph glyph-name="Eogonek" unicode="&#x118;" 
d="M96 -87q0 25 11 47.5t29 38t31 23.5t26 15q3 3 9 5q32 17 56 36q15 11 28 11q16 0 29.5 -13t13.5 -31q0 -22 -18 -39t-52 -36q-3 -3 -14 -10.5t-16 -11t-12.5 -9.5t-12 -11t-7.5 -10l-0.5 -1.5l-0.5 -1.5q0 -7 21 -7q25 1 51 35q9 12 13.5 17t13 10t17.5 5q16 0 31 -14
t15 -33q0 -11 -10.5 -30t-28.5 -39t-47.5 -35t-60.5 -15q-46 0 -80.5 29.5t-34.5 74.5zM4 47.5q0 16.5 5 27t15 14.5t16.5 4.5t18.5 0.5h12v453h-12q-11 0 -17.5 1t-17 5t-15.5 14.5t-5 27t5 27t15.5 14.5t17 5t17.5 1h353q34 0 44 -12t10 -46v-73q0 -14 -1 -21.5t-5 -17.5
t-15 -14t-28 -4t-27.5 4.5t-14.5 14.5t-5 17.5t-1 20.5v36h-200v-168h92q0 33 9 45t40 12q17 0 27.5 -4.5t14.5 -15t5 -17.5t1 -21v-92q0 -14 -1 -21.5t-5 -17.5t-14.5 -14.5t-27.5 -4.5q-31 0 -40 12t-9 45h-92v-191h220v52q0 14 1 21.5t5 17.5t15 14.5t29 4.5
q17 0 27.5 -4.5t14.5 -15t5 -17.5t1 -21v-88q0 -35 -10.5 -46.5t-43.5 -11.5h-374q-11 0 -17.5 1t-17 5t-15.5 14.5t-5 27z" />
    <glyph glyph-name="eogonek" unicode="&#x119;" 
d="M117 -87q0 25 11 47.5t29 38t31 23.5t26 15q3 3 9 5q32 17 56 36q15 11 28 11q16 0 29.5 -13t13.5 -31q0 -22 -18 -39t-52 -36q-3 -3 -14 -10.5t-16 -11t-12.5 -9.5t-12 -11t-7.5 -10l-0.5 -1.5l-0.5 -1.5q0 -7 21 -7q25 1 51 35q9 12 13.5 17t13 10t17.5 5q16 0 31 -14
t15 -33q0 -11 -10.5 -30t-28.5 -39t-47.5 -35t-60.5 -15q-46 0 -80.5 29.5t-34.5 74.5zM33 228q0 96 63 164.5t152 68.5q94 0 145 -63.5t51 -159.5q0 -18 -4 -29.5t-13 -16t-15.5 -5.5t-20.5 -1h-256q15 -46 52.5 -73t81.5 -27q22 0 45.5 11t35.5 38v-1q6 21 15.5 26.5
t29.5 5.5q49 0 49 -43q0 -13 -10 -32.5t-30 -42.5t-57.5 -38.5t-84.5 -15.5q-96 0 -162.5 68.5t-66.5 165.5zM136 277h208q-14 92 -96 92q-37 0 -67.5 -26t-44.5 -66z" />
    <glyph glyph-name="Ecaron" unicode="&#x11a;" 
d="M94 772q0 17 13 30.5t30 13.5q11 0 21.5 -8t34.5 -31q5 -4 7 -6q8 -8 22 -19.5t23 -19.5q62 58 66 62q25 22 39 22t29 -11.5t15 -38.5q0 -11 -18 -31.5t-98 -98.5q-17 -18 -35 -18t-35 18l-43 42q-53 55 -62 66.5t-9 27.5zM4 47.5q0 16.5 5 27t15 14.5t16.5 4.5t18.5 0.5
h12v453h-12q-11 0 -17.5 1t-17 5t-15.5 14.5t-5 27t5 27t15.5 14.5t17 5t17.5 1h353q34 0 44 -12t10 -46v-73q0 -14 -1 -21.5t-5 -17.5t-15 -14t-28 -4t-27.5 4.5t-14.5 14.5t-5 17.5t-1 20.5v36h-200v-168h92q0 33 9 45t40 12q17 0 27.5 -4.5t14.5 -15t5 -17.5t1 -21v-92
q0 -14 -1 -21.5t-5 -17.5t-14.5 -14.5t-27.5 -4.5q-31 0 -40 12t-9 45h-92v-191h220v52q0 14 1 21.5t5 17.5t15 14.5t29 4.5q17 0 27.5 -4.5t14.5 -15t5 -17.5t1 -21v-88q0 -35 -10.5 -46.5t-43.5 -11.5h-374q-11 0 -17.5 1t-17 5t-15.5 14.5t-5 27z" />
    <glyph glyph-name="ecaron" unicode="&#x11b;" 
d="M101 624q0 18 13 32t30 14q23 0 109 -77l4 3.5t12.5 10.5t15.5 13q58 49 77 50q19 0 32 -14.5t13 -31.5q0 -16 -14 -32t-62 -56l-44 -39q-21 -16 -36 -16q-10 0 -23.5 10.5t-79.5 67.5q-1 0 -9.5 8t-12.5 12q-25 19 -25 45zM33 228q0 96 63 164.5t152 68.5
q94 0 145 -63.5t51 -159.5q0 -18 -4 -29.5t-13 -16t-15.5 -5.5t-20.5 -1h-256q15 -46 52.5 -73t81.5 -27q22 0 45.5 11t35.5 38v-1q6 21 15.5 26.5t29.5 5.5q49 0 49 -43q0 -13 -10 -32.5t-30 -42.5t-57.5 -38.5t-84.5 -15.5q-96 0 -162.5 68.5t-66.5 165.5zM136 277h208
q-14 92 -96 92q-37 0 -67.5 -26t-44.5 -66z" />
    <glyph glyph-name="Gcircumflex" unicode="&#x11c;" 
d="M72 695q0 25 25 42q89 70 109.5 84t33.5 14q10 0 20.5 -6.5t57.5 -42.5l65 -51q23 -19 23 -39q0 -18 -16 -36t-34 -18q-20 0 -101 69l-17 15l-35 -29q-43 -37 -56.5 -46t-25.5 -9q-19 0 -34 18t-15 35zM15 321q0 141 67 236t161 95q58 0 104 -35q8 21 17.5 28t27.5 7
q16 0 26 -5t13.5 -15.5t4.5 -17.5t1 -20v-137q0 -14 -1 -21.5t-5 -17.5t-15 -14.5t-28 -4.5q-25 0 -35.5 11t-13.5 32q-10 62 -37.5 89t-55.5 27q-52 0 -92.5 -67.5t-40.5 -170.5q0 -100 40 -168t92 -68q32 0 56 31t33 93h-20q-12 0 -18.5 1t-16 5t-14.5 14t-5 27t5 27.5
t15 14.5t16.5 4.5t17.5 0.5h112q11 0 17.5 -0.5t17 -4.5t15.5 -14.5t5 -27.5q0 -45 -44 -47v-150q0 -14 -1 -21.5t-5 -17.5t-15 -14.5t-28 -4.5q-37 0 -45 24q-53 -34 -100 -34q-93 0 -160.5 94.5t-67.5 236.5z" />
    <glyph glyph-name="gcircumflex" unicode="&#x11d;" 
d="M44 541q0 23 28 44l58 41h-1q48 34 60.5 41t24.5 7q10 0 24.5 -8.5t79.5 -54.5q23 -16 37 -25q29 -21 29 -46q0 -16 -15.5 -35.5t-35.5 -19.5t-78 48l-42 32q-2 0 -7 -5l-13 -11h1l-30 -22q-6 -4 -14.5 -10.5t-12 -9.5t-9.5 -7t-8.5 -5.5t-7 -4t-7 -3.5t-6 -1.5
t-6.5 -0.5q-19 0 -34 19.5t-15 36.5zM9 -63q0 77 63 125q-15 34 -15 65q0 41 14 65q-25 43 -25 94q0 70 48.5 121t119.5 51q53 0 89 -25q44 30 99 30q42 0 63 -21.5t21 -47.5q0 -28 -16.5 -42t-36.5 -14q-11 0 -25 8t-22 24q-2 -1 -21 -6q18 -39 18 -78q0 -72 -49.5 -123
t-119.5 -51q-34 0 -73 17v-3q2 -15 7 -24q9 -8 19 -8q7 -2 27 -2h65q90 0 141 -30q36 -20 54.5 -55.5t18.5 -69.5q0 -68 -67.5 -114t-164.5 -46t-164.5 45.5t-67.5 114.5zM95 -63q0 -27 42.5 -47.5t103.5 -20.5t103.5 20.5t42.5 47.5q0 12 -4 22t-12.5 17t-17 12t-23.5 8
t-26 4.5t-29.5 2.5t-29 1h-29.5q-50 0 -63.5 -1.5t-27.5 -10.5q-30 -20 -30 -55zM141 286q0 -33 21.5 -57t51.5 -24t51.5 23.5t21.5 57.5q0 32 -21.5 56t-51.5 24t-51.5 -23.5t-21.5 -56.5z" />
    <glyph glyph-name="Gbreve" unicode="&#x11e;" 
d="M60 783q0 21 12 34t32 13q42 0 45 -50q0 -1 0.5 -2.5t0.5 -2.5v3q4 -21 29.5 -34.5t60.5 -13.5q32 0 59.5 13.5t30.5 39.5q3 47 44 47q20 0 32.5 -12.5t12.5 -35.5q0 -62 -52 -105t-128 -43q-78 0 -128.5 44t-50.5 105zM15 321q0 141 67 236t161 95q58 0 104 -35
q8 21 17.5 28t27.5 7q16 0 26 -5t13.5 -15.5t4.5 -17.5t1 -20v-137q0 -14 -1 -21.5t-5 -17.5t-15 -14.5t-28 -4.5q-25 0 -35.5 11t-13.5 32q-10 62 -37.5 89t-55.5 27q-52 0 -92.5 -67.5t-40.5 -170.5q0 -100 40 -168t92 -68q32 0 56 31t33 93h-20q-12 0 -18.5 1t-16 5
t-14.5 14t-5 27t5 27.5t15 14.5t16.5 4.5t17.5 0.5h112q11 0 17.5 -0.5t17 -4.5t15.5 -14.5t5 -27.5q0 -45 -44 -47v-150q0 -14 -1 -21.5t-5 -17.5t-15 -14.5t-28 -4.5q-37 0 -45 24q-53 -34 -100 -34q-93 0 -160.5 94.5t-67.5 236.5z" />
    <glyph glyph-name="gbreve" unicode="&#x11f;" 
d="M212 594q92 0 92 29q1 9 3 15.5t7 14.5t14.5 12.5t22.5 4.5q20 0 32.5 -13.5t12.5 -34.5t-9 -41.5t-28 -40.5t-57 -32t-89 -12t-89 12t-57.5 32t-28 40.5t-8.5 41.5t13 34.5t32 13.5q25 0 35.5 -17t10.5 -33q9 -26 91 -26zM9 -63q0 77 63 125q-15 34 -15 65q0 41 14 65
q-25 43 -25 94q0 70 48.5 121t119.5 51q53 0 89 -25q44 30 99 30q42 0 63 -21.5t21 -47.5q0 -28 -16.5 -42t-36.5 -14q-11 0 -25 8t-22 24q-2 -1 -21 -6q18 -39 18 -78q0 -72 -49.5 -123t-119.5 -51q-34 0 -73 17v-3q2 -15 7 -24q9 -8 19 -8q7 -2 27 -2h65q90 0 141 -30
q36 -20 54.5 -55.5t18.5 -69.5q0 -68 -67.5 -114t-164.5 -46t-164.5 45.5t-67.5 114.5zM95 -63q0 -27 42.5 -47.5t103.5 -20.5t103.5 20.5t42.5 47.5q0 12 -4 22t-12.5 17t-17 12t-23.5 8t-26 4.5t-29.5 2.5t-29 1h-29.5q-50 0 -63.5 -1.5t-27.5 -10.5q-30 -20 -30 -55z
M141 286q0 -33 21.5 -57t51.5 -24t51.5 23.5t21.5 57.5q0 32 -21.5 56t-51.5 24t-51.5 -23.5t-21.5 -56.5z" />
    <glyph glyph-name="Gdotaccent" unicode="&#x120;" 
d="M177 719.5q0 27.5 19 46t43 18.5q25 0 43.5 -18.5t18.5 -46.5q0 -27 -18.5 -46t-41.5 -19q-27 0 -45.5 19t-18.5 46.5zM15 321q0 141 67 236t161 95q58 0 104 -35q8 21 17.5 28t27.5 7q16 0 26 -5t13.5 -15.5t4.5 -17.5t1 -20v-137q0 -14 -1 -21.5t-5 -17.5t-15 -14.5
t-28 -4.5q-25 0 -35.5 11t-13.5 32q-10 62 -37.5 89t-55.5 27q-52 0 -92.5 -67.5t-40.5 -170.5q0 -100 40 -168t92 -68q32 0 56 31t33 93h-20q-12 0 -18.5 1t-16 5t-14.5 14t-5 27t5 27.5t15 14.5t16.5 4.5t17.5 0.5h112q11 0 17.5 -0.5t17 -4.5t15.5 -14.5t5 -27.5
q0 -45 -44 -47v-150q0 -14 -1 -21.5t-5 -17.5t-15 -14.5t-28 -4.5q-37 0 -45 24q-53 -34 -100 -34q-93 0 -160.5 94.5t-67.5 236.5z" />
    <glyph glyph-name="gdotaccent" unicode="&#x121;" 
d="M149 575q0 28 19.5 47.5t44.5 19.5t44 -19.5t19 -47.5t-19 -47.5t-43 -19.5q-28 0 -46.5 19.5t-18.5 47.5zM9 -63q0 77 63 125q-15 34 -15 65q0 41 14 65q-25 43 -25 94q0 70 48.5 121t119.5 51q53 0 89 -25q44 30 99 30q42 0 63 -21.5t21 -47.5q0 -28 -16.5 -42
t-36.5 -14q-11 0 -25 8t-22 24q-2 -1 -21 -6q18 -39 18 -78q0 -72 -49.5 -123t-119.5 -51q-34 0 -73 17v-3q2 -15 7 -24q9 -8 19 -8q7 -2 27 -2h65q90 0 141 -30q36 -20 54.5 -55.5t18.5 -69.5q0 -68 -67.5 -114t-164.5 -46t-164.5 45.5t-67.5 114.5zM95 -63
q0 -27 42.5 -47.5t103.5 -20.5t103.5 20.5t42.5 47.5q0 12 -4 22t-12.5 17t-17 12t-23.5 8t-26 4.5t-29.5 2.5t-29 1h-29.5q-50 0 -63.5 -1.5t-27.5 -10.5q-30 -20 -30 -55zM141 286q0 -33 21.5 -57t51.5 -24t51.5 23.5t21.5 57.5q0 32 -21.5 56t-51.5 24t-51.5 -23.5
t-21.5 -56.5z" />
    <glyph glyph-name="Hcircumflex" unicode="&#x124;" 
d="M74 695q0 25 25 42q89 70 109.5 84t33.5 14q10 0 20.5 -6.5t57.5 -42.5l65 -51q23 -19 23 -39q0 -18 -16 -36t-34 -18q-20 0 -101 69l-17 15l-35 -29q-43 -37 -56.5 -46t-25.5 -9q-19 0 -34 18t-15 35zM0 47.5q0 16.5 5 27t14.5 14.5t16 4.5t18.5 0.5h8v453h-8
q-11 0 -17.5 1t-16.5 5t-15 14.5t-5 27t5 27t14.5 14.5t16 5t18.5 1h113q11 0 17.5 -1t16.5 -5t15 -14.5t5 -27t-5 -27t-15 -14.5t-16.5 -5t-17.5 -1h-8v-167h169v167h-8q-12 0 -18.5 1t-16 5t-14.5 14.5t-5 27t5 27t15 14.5t16.5 5t17.5 1h113q12 0 18.5 -1t16 -5
t14.5 -14.5t5 -27t-5 -27t-15 -14.5t-16.5 -5t-17.5 -1h-8v-453h8q12 0 18.5 -0.5t16 -4.5t14.5 -14.5t5 -27t-5 -27t-15 -14.5t-16.5 -5t-17.5 -1h-113q-12 0 -18.5 1t-16 5t-14.5 14.5t-5 27t5 27t15 14.5t16.5 4.5t17.5 0.5h8v192h-169v-192h8q11 0 17.5 -0.5t16.5 -4.5
t15 -14.5t5 -27t-5 -27t-15 -14.5t-16.5 -5t-17.5 -1h-113q-11 0 -17.5 1t-16.5 5t-15 14.5t-5 27z" />
    <glyph glyph-name="hcircumflex" unicode="&#x125;" 
d="M74 721q0 23 28 44l58 41h-1q48 34 60.5 41t24.5 7q10 0 24.5 -8.5t79.5 -54.5q23 -16 37 -25q29 -21 29 -46q0 -16 -15.5 -35.5t-35.5 -19.5t-78 48l-42 32q-2 0 -7 -5l-13 -11h1l-30 -22q-6 -4 -14.5 -10.5t-12 -9.5t-9.5 -7t-8.5 -5.5t-7 -4t-7 -3.5t-6 -1.5
t-6.5 -0.5q-19 0 -34 19.5t-15 36.5zM-7 46q0 16 5 26.5t15 14.5t16.5 4.5t17.5 0.5h25v444h-26q-10 0 -16.5 0.5t-16.5 4.5t-15 14t-5 26t5 26.5t15 14.5t16.5 5t17.5 1h68q32 0 42.5 -12t10.5 -45v-146q47 33 105 33q65 0 101 -38.5t36 -118.5v-209h25q11 0 17.5 -0.5
t16 -4.5t14.5 -14t5 -26.5t-5 -27t-15 -14t-16.5 -4.5t-16.5 -1h-141q-42 0 -51 24q-10 -24 -49 -24h-148q-10 0 -16.5 1t-16.5 4.5t-15 14t-5 26.5zM193 92q41 0 50 -25q4 12 14 18t17 6.5t20 0.5h20v205q0 37 -9.5 52.5t-36.5 15.5q-37 0 -68.5 -29.5t-31.5 -87.5v-156h25
z" />
    <glyph glyph-name="uni0127" unicode="&#x127;" 
d="M287 458q130 -2 130 -167v-198h25q49 0 49 -47q0 -26 -13 -36t-37 -10h-139q-36 0 -46 23q-11 -23 -46 -23h-145q-51 0 -51 46q0 47 50 47h25v353h-46q-47 3 -47 48q0 16 9.5 29.5t32.5 15.5q-24 11 -24 44q0 19 12 32t36 13h73q17 0 28 -4.5t15.5 -13t5.5 -15.5t1 -17
v-38h67q49 0 49 -46q0 -24 -14 -36zM210 93q36 0 47 -25q11 25 44 25h20v203q0 33 -8 50.5t-32 17.5q-15 0 -30.5 -5.5t-31 -18.5t-25 -37.5t-9.5 -57.5v-152h25zM185 425q27 17 41 21h-41v-21z" />
    <glyph glyph-name="Itilde" unicode="&#x128;" 
d="M172 732q-17 0 -45 -30.5t-46 -30.5t-31.5 15t-13.5 32q0 9 12 27t30.5 37t44.5 33.5t50 14.5q41 0 92 -38q32 -22 44 -22q17 0 45.5 30t45.5 30q13 0 29 -13.5t16 -34.5q0 -9 -12 -27t-30 -37t-44 -33t-51 -14q-18 0 -36.5 7t-28.5 13t-27 19q-32 22 -44 22zM54 47.5
q0 16.5 5 27t15.5 14.5t17 4.5t17.5 0.5h86v453h-86q-11 0 -17.5 1t-17 5t-15.5 14.5t-5 27t5 27t15.5 14.5t17 5t17.5 1h270q11 0 17.5 -1t17 -5t15.5 -14.5t5 -27t-5 -27t-15.5 -14.5t-17 -5t-17.5 -1h-86v-453h86q11 0 17.5 -0.5t17 -4.5t15.5 -14.5t5 -27t-5 -27
t-15.5 -14.5t-17 -5t-17.5 -1h-270q-11 0 -17.5 1t-17 5t-15.5 14.5t-5 27z" />
    <glyph glyph-name="itilde" unicode="&#x129;" 
d="M74 538q0 19 20 38q66 66 116 66q17 0 33 -8t23 -13.5t21 -18.5q13 -14 17 -14q8 0 40 26q29 26 46.5 26t31.5 -14t14 -33q0 -21 -20 -40q-62 -65 -116 -65q-18 0 -33 7t-22.5 13t-18.5 18q-14 15 -19 15q-7 0 -40 -25q-1 -1 -5 -4.5t-5 -4.5t-4.5 -4t-4.5 -3.5t-4 -3
t-5 -3t-4.5 -2t-4.5 -2t-4.5 -1t-5.5 -0.5q-20 0 -33 16t-13 34zM55 46.5q0 16.5 5 26.5t14.5 14t16 4.5t17.5 0.5h97v268h-89q-11 0 -17.5 1t-16.5 5t-15 14t-5 26.5t5 26.5t15 14t16.5 5t17.5 1h131q33 0 43 -12t10 -45v-304h82q10 0 17 -0.5t17 -4.5t15 -14.5t5 -26.5
t-5 -26.5t-15 -14t-17 -4.5t-17 -1h-274q-10 0 -16.5 1t-16.5 4.5t-15 14t-5 27z" />
    <glyph glyph-name="Imacron" unicode="&#x12a;" 
d="M-18 764q0 49 48 49h424q45 -3 45 -49t-45 -46h-423q-49 0 -49 46zM54 47.5q0 16.5 5 27t15.5 14.5t17 4.5t17.5 0.5h86v453h-86q-11 0 -17.5 1t-17 5t-15.5 14.5t-5 27t5 27t15.5 14.5t17 5t17.5 1h270q11 0 17.5 -1t17 -5t15.5 -14.5t5 -27t-5 -27t-15.5 -14.5t-17 -5
t-17.5 -1h-86v-453h86q11 0 17.5 -0.5t17 -4.5t15.5 -14.5t5 -27t-5 -27t-15.5 -14.5t-17 -5t-17.5 -1h-270q-11 0 -17.5 1t-17 5t-15.5 14.5t-5 27z" />
    <glyph glyph-name="imacron" unicode="&#x12b;" 
d="M59 564q0 49 50 49h293q26 0 37.5 -15t11.5 -34q0 -20 -12 -33.5t-39 -13.5h-293q-26 1 -37 15.5t-11 31.5zM55 46.5q0 16.5 5 26.5t14.5 14t16 4.5t17.5 0.5h97v268h-89q-11 0 -17.5 1t-16.5 5t-15 14t-5 26.5t5 26.5t15 14t16.5 5t17.5 1h131q33 0 43 -12t10 -45v-304
h82q10 0 17 -0.5t17 -4.5t15 -14.5t5 -26.5t-5 -26.5t-15 -14t-17 -4.5t-17 -1h-274q-10 0 -16.5 1t-16.5 4.5t-15 14t-5 27z" />
    <glyph glyph-name="Ibreve" unicode="&#x12c;" 
d="M62 783q0 21 12 34t32 13q42 0 45 -50q0 -1 0.5 -2.5t0.5 -2.5v3q4 -21 29.5 -34.5t60.5 -13.5q32 0 59.5 13.5t30.5 39.5q3 47 44 47q20 0 32.5 -12.5t12.5 -35.5q0 -62 -52 -105t-128 -43q-78 0 -128.5 44t-50.5 105zM54 47.5q0 16.5 5 27t15.5 14.5t17 4.5t17.5 0.5
h86v453h-86q-11 0 -17.5 1t-17 5t-15.5 14.5t-5 27t5 27t15.5 14.5t17 5t17.5 1h270q11 0 17.5 -1t17 -5t15.5 -14.5t5 -27t-5 -27t-15.5 -14.5t-17 -5t-17.5 -1h-86v-453h86q11 0 17.5 -0.5t17 -4.5t15.5 -14.5t5 -27t-5 -27t-15.5 -14.5t-17 -5t-17.5 -1h-270
q-11 0 -17.5 1t-17 5t-15.5 14.5t-5 27z" />
    <glyph glyph-name="ibreve" unicode="&#x12d;" 
d="M254 594q92 0 92 29q1 9 3 15.5t7 14.5t14.5 12.5t22.5 4.5q20 0 32.5 -13.5t12.5 -34.5t-9 -41.5t-28 -40.5t-57 -32t-89 -12t-89 12t-57.5 32t-28 40.5t-8.5 41.5t13 34.5t32 13.5q25 0 35.5 -17t10.5 -33q9 -26 91 -26zM55 46.5q0 16.5 5 26.5t14.5 14t16 4.5
t17.5 0.5h97v268h-89q-11 0 -17.5 1t-16.5 5t-15 14t-5 26.5t5 26.5t15 14t16.5 5t17.5 1h131q33 0 43 -12t10 -45v-304h82q10 0 17 -0.5t17 -4.5t15 -14.5t5 -26.5t-5 -26.5t-15 -14t-17 -4.5t-17 -1h-274q-10 0 -16.5 1t-16.5 4.5t-15 14t-5 27z" />
    <glyph glyph-name="Idotaccent" unicode="&#x130;" 
d="M179 719.5q0 27.5 19 46t43 18.5q25 0 43.5 -18.5t18.5 -46.5q0 -27 -18.5 -46t-41.5 -19q-27 0 -45.5 19t-18.5 46.5zM54 47.5q0 16.5 5 27t15.5 14.5t17 4.5t17.5 0.5h86v453h-86q-11 0 -17.5 1t-17 5t-15.5 14.5t-5 27t5 27t15.5 14.5t17 5t17.5 1h270q11 0 17.5 -1
t17 -5t15.5 -14.5t5 -27t-5 -27t-15.5 -14.5t-17 -5t-17.5 -1h-86v-453h86q11 0 17.5 -0.5t17 -4.5t15.5 -14.5t5 -27t-5 -27t-15.5 -14.5t-17 -5t-17.5 -1h-270q-11 0 -17.5 1t-17 5t-15.5 14.5t-5 27z" />
    <glyph glyph-name="dotlessi" unicode="&#x131;" 
d="M55 46.5q0 16.5 5 26.5t14.5 14t16 4.5t17.5 0.5h97v268h-89q-11 0 -17.5 1t-16.5 5t-15 14t-5 26.5t5 26.5t15 14t16.5 5t17.5 1h131q33 0 43 -12t10 -45v-304h82q10 0 17 -0.5t17 -4.5t15 -14.5t5 -26.5t-5 -26.5t-15 -14t-17 -4.5t-17 -1h-274q-10 0 -16.5 1
t-16.5 4.5t-15 14t-5 27z" />
    <glyph glyph-name="IJ" unicode="&#x132;" 
d="M-12 47q0 49 52 49h5v450h-5q-52 0 -52 48q0 18 11 33t41 15h109q27 0 39 -14t12 -34q0 -48 -52 -48h-4v-450h4q52 0 52 -49q0 -47 -51 -47h-110q-51 0 -51 47zM184 116q0 31 17 47.5t41 16.5q23 0 40.5 -17.5t17.5 -43.5q0 -16 -6 -29q6 -5 17 -5q13 0 22 16.5t10 40.5
v404h-20q-29 0 -39.5 15.5t-10.5 32.5q0 11 3 20.5t15 18.5t32 9h109q26 0 37.5 -14.5t11.5 -33.5q0 -43 -40 -48v-391q0 -47 -13.5 -81.5t-35 -51.5t-42 -24.5t-39.5 -7.5q-53 0 -90 38.5t-37 87.5z" />
    <glyph glyph-name="ij" unicode="&#x133;" 
d="M16 46q0 10 3 19t14 18t30 10h51v266h-46q-46 3 -46 46q0 47 49 47h91q24 0 36.5 -10t12.5 -41v-308h36q11 0 18 -1t16 -5t14 -14.5t5 -26.5q0 -20 -11.5 -33t-37.5 -13h-186q-49 0 -49 46zM445 -26q0 -31 -1.5 -54.5t-7.5 -51.5t-17 -46t-30.5 -30t-46.5 -12
q-38 0 -65.5 25t-27.5 64q0 28 16.5 44t39.5 16q27 0 43 -19q1 18 1 78v371h-33q-50 0 -50 46.5t49 46.5h81q17 0 28 -5t15 -15t5 -17t1 -19v-422zM320 563q0 28 19 46.5t43 18.5q27 0 44.5 -20t17.5 -45q0 -26 -18 -45.5t-44 -19.5q-27 0 -44.5 19.5t-17.5 45.5zM87 563
q0 28 18.5 46.5t43.5 18.5q27 0 44.5 -20t17.5 -45q0 -26 -18 -45.5t-44 -19.5q-27 0 -44.5 19.5t-17.5 45.5z" />
    <glyph glyph-name="Jcircumflex" unicode="&#x134;" 
d="M184 695q0 25 25 42q89 70 109.5 84t33.5 14q10 0 20.5 -6.5t57.5 -42.5l65 -51q23 -19 23 -39q0 -18 -16 -36t-34 -18q-20 0 -101 69l-17 15l-35 -29q-43 -37 -56.5 -46t-25.5 -9q-19 0 -34 18t-15 35zM47 116q0 31 17 47.5t41 16.5q25 0 41.5 -18t16.5 -43
q0 -13 -3 -21q24 -14 60 -14q9 0 19 2t25.5 8t25.5 22t10 40v391h-62q-11 0 -17.5 1t-17 5t-15.5 14.5t-5 27t5 27t15.5 14.5t17 5t17.5 1h172q10 0 17 -1t17 -5t15 -14.5t5 -27t-5 -27t-15 -14.5t-16.5 -5t-17.5 -1h-13v-397q0 -73 -52 -116.5t-125 -43.5q-77 0 -125 35.5
t-48 90.5z" />
    <glyph glyph-name="jcircumflex" unicode="&#x135;" 
d="M146 541q0 23 28 44l58 41h-1q48 34 60.5 41t24.5 7q10 0 24.5 -8.5t79.5 -54.5q23 -16 37 -25q29 -21 29 -46q0 -16 -15.5 -35.5t-35.5 -19.5t-78 48l-42 32q-2 0 -7 -5l-13 -11h1l-30 -22q-6 -4 -14.5 -10.5t-12 -9.5t-9.5 -7t-8.5 -5.5t-7 -4t-7 -3.5t-6 -1.5
t-6.5 -0.5q-19 0 -34 19.5t-15 36.5zM25 -131q0 28 17 44.5t40 16.5q21 0 38.5 -16t18.5 -41q16 -2 35 -2q13 0 20.5 1t20 8t21.5 20q21 31 21 79v381h-104q-11 0 -17.5 1t-16 4.5t-14.5 13.5t-5 26q0 17 5 27.5t14.5 14.5t16 5t18.5 1h146q33 0 43 -12t10 -45v-422
q0 -23 -4.5 -47t-17.5 -51.5t-33 -48.5t-53.5 -35t-75.5 -14q-16 0 -26 0.5t-29.5 3t-32.5 8.5t-27.5 15t-21.5 25.5t-7 38.5z" />
    <glyph glyph-name="Lacute" unicode="&#x139;" 
d="M148 723q0 12 3 20.5t10.5 13.5t12 7t14.5 6l82 29q55 19 62 19q18 0 32.5 -14.5t14.5 -35.5q0 -38 -40 -51q-137 -49 -146 -49q-24 0 -34.5 19.5t-10.5 35.5zM9 47.5q0 16.5 5 27t15 14.5t16.5 4.5t17.5 0.5h19v453h-19q-11 0 -17.5 1t-16.5 5t-15 14.5t-5 27t5 27
t15 14.5t16.5 5t17.5 1h154q11 0 17.5 -1t17 -5t15.5 -14.5t5 -27t-5.5 -27t-15.5 -14.5t-16.5 -5t-17.5 -1h-37v-453h196v52q0 15 1 22.5t5 17t14.5 14t28 4.5t28.5 -4.5t15 -14.5t5 -17.5t1 -21.5v-88q0 -35 -10.5 -46.5t-43.5 -11.5h-357q-11 0 -17.5 1t-16.5 5t-15 14.5
t-5 27z" />
    <glyph glyph-name="lacute" unicode="&#x13a;" 
d="M124 740q0 13 6 22.5t11 13.5t15 9q6 4 9 4l34 16q12 5 25 11t20.5 9.5t16 7.5t13 6l9 4t7.5 3t5.5 2t4.5 1.5t4 0.5h4q19 0 34.5 -15t15.5 -38q0 -32 -38 -51l-70 -32l-22 -10t-17 -7.5t-12 -5.5t-8.5 -4t-5.5 -2t-5 -1.5t-3.5 -0.5h-4.5q-21 0 -34.5 19.5t-13.5 37.5z
M36 46.5q0 16.5 5 26.5t14.5 14t16 4.5t18.5 0.5h104v444h-105q-10 0 -16.5 0.5t-16.5 4.5t-15 14t-5 26t5 26.5t14.5 14.5t16 5t18.5 1h146q33 0 43 -11.5t10 -45.5v-479h105q11 0 17.5 -0.5t16 -4.5t14.5 -14t5 -26.5t-5 -27t-15 -14t-16.5 -4.5t-16.5 -1h-305
q-10 0 -16.5 1t-16.5 4.5t-15 14t-5 27z" />
    <glyph glyph-name="Lcaron" unicode="&#x13d;" 
d="M90 772q0 17 13 30.5t30 13.5q11 0 21.5 -8t34.5 -31q5 -4 7 -6q8 -8 22 -19.5t23 -19.5q62 58 66 62q25 22 39 22t29 -11.5t15 -38.5q0 -11 -18 -31.5t-98 -98.5q-17 -18 -35 -18t-35 18l-43 42q-53 55 -62 66.5t-9 27.5zM9 47.5q0 16.5 5 27t15 14.5t16.5 4.5t17.5 0.5
h19v453h-19q-11 0 -17.5 1t-16.5 5t-15 14.5t-5 27t5 27t15 14.5t16.5 5t17.5 1h154q11 0 17.5 -1t17 -5t15.5 -14.5t5 -27t-5.5 -27t-15.5 -14.5t-16.5 -5t-17.5 -1h-37v-453h196v52q0 15 1 22.5t5 17t14.5 14t28 4.5t28.5 -4.5t15 -14.5t5 -17.5t1 -21.5v-88
q0 -35 -10.5 -46.5t-43.5 -11.5h-357q-11 0 -17.5 1t-16.5 5t-15 14.5t-5 27z" />
    <glyph glyph-name="lcaron" unicode="&#x13e;" 
d="M93 804q0 18 13 32t30 14q23 0 109 -77l4 3.5t12.5 10.5t15.5 13q58 49 77 50q19 0 32 -14.5t13 -31.5q0 -16 -14 -32t-62 -56l-44 -39q-21 -16 -36 -16q-10 0 -23.5 10.5t-79.5 67.5q-1 0 -9.5 8t-12.5 12q-25 19 -25 45zM36 46.5q0 16.5 5 26.5t14.5 14t16 4.5
t18.5 0.5h104v444h-105q-10 0 -16.5 0.5t-16.5 4.5t-15 14t-5 26t5 26.5t14.5 14.5t16 5t18.5 1h146q33 0 43 -11.5t10 -45.5v-479h105q11 0 17.5 -0.5t16 -4.5t14.5 -14t5 -26.5t-5 -27t-15 -14t-16.5 -4.5t-16.5 -1h-305q-10 0 -16.5 1t-16.5 4.5t-15 14t-5 27z" />
    <glyph glyph-name="Lslash" unicode="&#x141;" 
d="M7 47q0 20 10.5 31.5t20.5 14.5t20 3h22v140q-10 -6 -19 -6q-18 0 -32 15t-14 33q0 9 3 16.5t18 22.5t44 37v192h-21q-52 0 -52 48t51 48h163q49 0 49 -48q0 -16 -4.5 -26.5t-13.5 -14.5t-16.5 -5.5t-17.5 -1.5h-39v-114l28 24v-1q30 24 40.5 30t21.5 6q18 0 31 -15.5
t13 -33.5q0 -17 -10 -28.5t-52 -44.5q-50 -40 -72 -56v-217h196v57q2 52 47 52h5q47 0 47 -54v-97q0 -13 -1 -20t-5.5 -16t-15.5 -13.5t-29 -4.5h-365q-51 0 -51 47z" />
    <glyph glyph-name="lslash" unicode="&#x142;" 
d="M35 46q0 47 49 47h109v165q-6 -4 -13 -11q-36 -29 -47 -35.5t-22 -6.5q-18 0 -30.5 15t-12.5 32q0 24 23 41q20 16 45 35t31 24t11 9t6.5 6t4 3.5t4.5 3.5v160h-112q-25 2 -35.5 16t-10.5 31q0 15 5.5 25.5t14.5 14.5t15.5 5.5t12.5 1.5h155q18 0 29.5 -5t15.5 -15t5 -16
t1 -19v-125l12 11q35 29 46.5 36t23.5 7q18 0 30.5 -15t12.5 -32t-9.5 -28t-54.5 -47q-36 -29 -61 -47v-240h108q50 0 50 -47q0 -18 -10.5 -32t-38.5 -14h-314q-28 0 -38.5 14.5t-10.5 31.5z" />
    <glyph glyph-name="Nacute" unicode="&#x143;" 
d="M150 723q0 12 3 20.5t10.5 13.5t12 7t14.5 6l82 29q55 19 62 19q18 0 32.5 -14.5t14.5 -35.5q0 -38 -40 -51q-137 -49 -146 -49q-24 0 -34.5 19.5t-10.5 35.5zM6 47.5q0 16.5 5 27t15 14.5t16.5 4.5t17.5 0.5h7v453h-7q-12 0 -18.5 1t-16 5t-14.5 14.5t-5 27t5 27
t15 14.5t16.5 5t17.5 1h64q26 0 40.5 -9.5t25.5 -38.5l144 -407v360h-7q-11 0 -17.5 1t-16.5 5t-15 14.5t-5 27t5 27t14.5 14.5t16 5t18.5 1h100q12 0 18.5 -1t16 -5t14.5 -14.5t5 -27t-5 -27t-15 -14.5t-16.5 -5t-17.5 -1h-7v-489q0 -38 -11.5 -48t-44.5 -10q-19 0 -28.5 2
t-20.5 12.5t-19 32.5l-144 408v-361h8q12 0 18.5 -0.5t16 -4.5t14.5 -14.5t5 -27t-5 -27t-15 -14.5t-16.5 -5t-17.5 -1h-100q-12 0 -18.5 1t-16 5t-14.5 14.5t-5 27z" />
    <glyph glyph-name="nacute" unicode="&#x144;" 
d="M124 560q0 13 6 22.5t11 13.5t15 9q6 4 9 4l34 16q12 5 25 11t20.5 9.5t16 7.5t13 6l9 4t7.5 3t5.5 2t4.5 1.5t4 0.5h4q19 0 34.5 -15t15.5 -38q0 -32 -38 -51l-70 -32l-22 -10t-17 -7.5t-12 -5.5t-8.5 -4t-5.5 -2t-5 -1.5t-3.5 -0.5h-4.5q-21 0 -34.5 19.5t-13.5 37.5z
M-7 46q0 16 5 26.5t15 14.5t16.5 4.5t17.5 0.5h25v268h-26q-10 0 -16.5 1t-16.5 4.5t-15 13.5t-5 26q0 17 5 27.5t15 14.5t16.5 5t17.5 1h68q25 0 36.5 -7t14.5 -22q48 34 107 34q65 0 101 -38.5t36 -118.5v-209h25q11 0 17.5 -0.5t16 -4.5t14.5 -14t5 -26.5t-5 -27t-15 -14
t-16.5 -4.5t-16.5 -1h-141q-42 0 -51 24q-10 -24 -49 -24h-148q-10 0 -16.5 1t-16.5 4.5t-15 14t-5 26.5zM193 92q41 0 50 -25q4 12 14 18t17 6.5t20 0.5h20v205q0 37 -9.5 52.5t-36.5 15.5q-37 0 -68.5 -29.5t-31.5 -87.5v-156h25z" />
    <glyph glyph-name="Ncaron" unicode="&#x147;" 
d="M92 772q0 17 13 30.5t30 13.5q11 0 21.5 -8t34.5 -31q5 -4 7 -6q8 -8 22 -19.5t23 -19.5q62 58 66 62q25 22 39 22t29 -11.5t15 -38.5q0 -11 -18 -31.5t-98 -98.5q-17 -18 -35 -18t-35 18l-43 42q-53 55 -62 66.5t-9 27.5zM6 47.5q0 16.5 5 27t15 14.5t16.5 4.5t17.5 0.5
h7v453h-7q-12 0 -18.5 1t-16 5t-14.5 14.5t-5 27t5 27t15 14.5t16.5 5t17.5 1h64q26 0 40.5 -9.5t25.5 -38.5l144 -407v360h-7q-11 0 -17.5 1t-16.5 5t-15 14.5t-5 27t5 27t14.5 14.5t16 5t18.5 1h100q12 0 18.5 -1t16 -5t14.5 -14.5t5 -27t-5 -27t-15 -14.5t-16.5 -5
t-17.5 -1h-7v-489q0 -38 -11.5 -48t-44.5 -10q-19 0 -28.5 2t-20.5 12.5t-19 32.5l-144 408v-361h8q12 0 18.5 -0.5t16 -4.5t14.5 -14.5t5 -27t-5 -27t-15 -14.5t-16.5 -5t-17.5 -1h-100q-12 0 -18.5 1t-16 5t-14.5 14.5t-5 27z" />
    <glyph glyph-name="ncaron" unicode="&#x148;" 
d="M93 624q0 18 13 32t30 14q23 0 109 -77l4 3.5t12.5 10.5t15.5 13q58 49 77 50q19 0 32 -14.5t13 -31.5q0 -16 -14 -32t-62 -56l-44 -39q-21 -16 -36 -16q-10 0 -23.5 10.5t-79.5 67.5q-1 0 -9.5 8t-12.5 12q-25 19 -25 45zM-7 46q0 16 5 26.5t15 14.5t16.5 4.5t17.5 0.5
h25v268h-26q-10 0 -16.5 1t-16.5 4.5t-15 13.5t-5 26q0 17 5 27.5t15 14.5t16.5 5t17.5 1h68q25 0 36.5 -7t14.5 -22q48 34 107 34q65 0 101 -38.5t36 -118.5v-209h25q11 0 17.5 -0.5t16 -4.5t14.5 -14t5 -26.5t-5 -27t-15 -14t-16.5 -4.5t-16.5 -1h-141q-42 0 -51 24
q-10 -24 -49 -24h-148q-10 0 -16.5 1t-16.5 4.5t-15 14t-5 26.5zM193 92q41 0 50 -25q4 12 14 18t17 6.5t20 0.5h20v205q0 37 -9.5 52.5t-36.5 15.5q-37 0 -68.5 -29.5t-31.5 -87.5v-156h25z" />
    <glyph glyph-name="Eng" unicode="&#x14a;" 
d="M-6 47q0 49 51 49h7v450h-7q-29 0 -40 15t-11 33q0 48 52 48h55q32 0 44 -22q49 39 117 39q85 0 147 -67.5t62 -175.5v-264q0 -75 -39 -118.5t-95 -43.5q-34 0 -63 15t-47 41q-1 -46 -50 -46h-133q-50 0 -50 47zM177 96q18 0 30 -8q-3 14 -3 28q0 34 19 49t40 15
q24 0 41 -17.5t17 -44.5q0 -16 -5 -26q9 -8 20 -8q13 0 25 17t12 51v261q0 68 -34.5 105.5t-76.5 37.5q-43 0 -77.5 -37.5t-34.5 -105.5v-317h27z" />
    <glyph glyph-name="eng" unicode="&#x14b;" 
d="M-9 46q0 47 50 47h29v266h-28q-51 0 -51 46.5t48 46.5h75q41 0 49 -31q49 37 110 37q136 0 136 -165v-290q-3 -93 -11.5 -139t-34.5 -69q-20 -15 -43 -15q-37 0 -59.5 27.5t-22.5 60.5q0 28 17.5 44.5t39.5 16.5q10 0 16 -3q1 37 1 111v256q0 37 -8.5 54t-36.5 17
q-15 0 -30.5 -5.5t-32.5 -18t-27.5 -37.5t-10.5 -58v-152h29q50 0 50 -47q0 -15 -5.5 -25t-14.5 -14t-15.5 -5.5t-12.5 -1.5h-156q-50 0 -50 46z" />
    <glyph glyph-name="Omacron" unicode="&#x14c;" 
d="M-18 764q0 49 48 49h424q45 -3 45 -49t-45 -46h-423q-49 0 -49 46zM32 320q0 61 1 102t5.5 78.5t10 59t18 40.5t26 27.5t38 15t49 8t63.5 1.5t64 -1.5t49 -8t38 -15.5t26.5 -28t18 -40.5t10 -59t5.5 -78t1 -101.5t-1 -101.5t-5.5 -77.5t-10.5 -59t-18.5 -40.5t-26 -27.5
t-37.5 -15.5t-49 -7.5t-64 -1t-63.5 1t-49 7.5t-38 15.5t-26 27.5t-18 40.5t-10 59t-5.5 77.5t-1 101.5zM130 330q0 -133 11 -188q8 -30 30 -44t72 -14q54 0 75.5 13.5t28.5 48.5q10 54 10 184q0 134 -10 177q-9 32 -31 41.5t-73 9.5q-53 0 -74 -11.5t-29 -46.5
q-10 -45 -10 -170z" />
    <glyph glyph-name="omacron" unicode="&#x14d;" 
d="M47 564q0 49 50 49h293q26 0 37.5 -15t11.5 -34q0 -20 -12 -33.5t-39 -13.5h-293q-26 1 -37 15.5t-11 31.5zM35 227q0 97 61 165.5t145 68.5t145 -68.5t61 -165.5q0 -98 -61 -165.5t-145 -67.5t-145 67t-61 166zM131 233q0 -60 32.5 -103.5t77.5 -43.5t77.5 43.5
t32.5 103.5q0 58 -32.5 97t-77.5 39t-77.5 -39t-32.5 -97z" />
    <glyph glyph-name="Obreve" unicode="&#x14e;" 
d="M62 783q0 21 12 34t32 13q42 0 45 -50q0 -1 0.5 -2.5t0.5 -2.5v3q4 -21 29.5 -34.5t60.5 -13.5q32 0 59.5 13.5t30.5 39.5q3 47 44 47q20 0 32.5 -12.5t12.5 -35.5q0 -62 -52 -105t-128 -43q-78 0 -128.5 44t-50.5 105zM32 320q0 61 1 102t5.5 78.5t10 59t18 40.5
t26 27.5t38 15t49 8t63.5 1.5t64 -1.5t49 -8t38 -15.5t26.5 -28t18 -40.5t10 -59t5.5 -78t1 -101.5t-1 -101.5t-5.5 -77.5t-10.5 -59t-18.5 -40.5t-26 -27.5t-37.5 -15.5t-49 -7.5t-64 -1t-63.5 1t-49 7.5t-38 15.5t-26 27.5t-18 40.5t-10 59t-5.5 77.5t-1 101.5zM130 330
q0 -133 11 -188q8 -30 30 -44t72 -14q54 0 75.5 13.5t28.5 48.5q10 54 10 184q0 134 -10 177q-9 32 -31 41.5t-73 9.5q-53 0 -74 -11.5t-29 -46.5q-10 -45 -10 -170z" />
    <glyph glyph-name="obreve" unicode="&#x14f;" 
d="M242 594q92 0 92 29q1 9 3 15.5t7 14.5t14.5 12.5t22.5 4.5q20 0 32.5 -13.5t12.5 -34.5t-9 -41.5t-28 -40.5t-57 -32t-89 -12t-89 12t-57.5 32t-28 40.5t-8.5 41.5t13 34.5t32 13.5q25 0 35.5 -17t10.5 -33q9 -26 91 -26zM35 227q0 97 61 165.5t145 68.5t145 -68.5
t61 -165.5q0 -98 -61 -165.5t-145 -67.5t-145 67t-61 166zM131 233q0 -60 32.5 -103.5t77.5 -43.5t77.5 43.5t32.5 103.5q0 58 -32.5 97t-77.5 39t-77.5 -39t-32.5 -97z" />
    <glyph glyph-name="Ohungarumlaut" unicode="&#x150;" 
d="M92 723q0 12 3 20.5t10.5 13.5t12 7t14.5 6l83 29q54 19 62 19q18 0 32.5 -14.5t14.5 -35.5q0 -39 -41 -51q-137 -49 -145 -49q-24 0 -35 19.5t-11 35.5zM308 723q0 12 3 20.5t10.5 13.5t12 7t14.5 6l83 29q54 19 62 19q18 0 32.5 -14.5t14.5 -35.5q0 -38 -41 -51
q-137 -49 -145 -49q-24 0 -35 19.5t-11 35.5zM32 320q0 61 1 102t5.5 78.5t10 59t18 40.5t26 27.5t38 15t49 8t63.5 1.5t64 -1.5t49 -8t38 -15.5t26.5 -28t18 -40.5t10 -59t5.5 -78t1 -101.5t-1 -101.5t-5.5 -77.5t-10.5 -59t-18.5 -40.5t-26 -27.5t-37.5 -15.5t-49 -7.5
t-64 -1t-63.5 1t-49 7.5t-38 15.5t-26 27.5t-18 40.5t-10 59t-5.5 77.5t-1 101.5zM130 330q0 -133 11 -188q8 -30 30 -44t72 -14q54 0 75.5 13.5t28.5 48.5q10 54 10 184q0 134 -10 177q-9 32 -31 41.5t-73 9.5q-53 0 -74 -11.5t-29 -46.5q-10 -45 -10 -170z" />
    <glyph glyph-name="ohungarumlaut" unicode="&#x151;" 
d="M79 560q0 13 6 22.5t11 13.5t15 9q6 4 10 4l34 16q15 7 30.5 14t23.5 10.5t16.5 7.5t13 6t8.5 3.5t6.5 2l5 1t5.5 0.5q18 0 33.5 -15t15.5 -38q0 -32 -38 -51l-70 -32l-18 -8t-14.5 -6.5t-11 -5.5t-9 -4.5t-6.5 -3t-5 -2t-3.5 -1t-3.5 -0.5h-3h-4q-21 0 -34.5 19.5
t-13.5 37.5zM300 560q0 13 6 22.5t11 13.5t15 9q6 4 9 4l34 16q12 5 25 11t20.5 9.5t16 7.5t13 6l9 4t7.5 3t5.5 2t4.5 1.5t4 0.5h4q19 0 34.5 -15t15.5 -38q0 -32 -38 -51l-70 -32l-22 -10t-17 -7.5t-12 -5.5t-8.5 -4t-5.5 -2t-5 -1.5t-3.5 -0.5h-4.5q-21 0 -34.5 19.5
t-13.5 37.5zM35 227q0 97 61 165.5t145 68.5t145 -68.5t61 -165.5q0 -98 -61 -165.5t-145 -67.5t-145 67t-61 166zM131 233q0 -60 32.5 -103.5t77.5 -43.5t77.5 43.5t32.5 103.5q0 58 -32.5 97t-77.5 39t-77.5 -39t-32.5 -97z" />
    <glyph glyph-name="OE" unicode="&#x152;" 
d="M7 343v27q1 40 2 65t3 54t5 45.5t8 35.5t11.5 29t16.5 21t21.5 16t28 9t35.5 5.5t44 1.5q29 0 54 -5q22 -5 36 -5h159q9 0 15.5 -1.5t15 -6.5t13.5 -16.5t5 -28.5v-84q0 -30 -13.5 -41t-28.5 -11q-9 0 -17.5 3t-17 15t-8.5 33v42h-81v-166h103q49 0 49 -49
q0 -17 -4.5 -27t-14.5 -14t-17 -4.5t-20 -0.5h-96v-189h88v55q0 53 43 53t43 -52v-98q0 -19 -4.5 -31t-13 -16.5t-15 -5.5t-17.5 -1h-157q-21 0 -49 -6q-17 -4 -50 -4q-27 0 -47 1t-37.5 7.5t-29.5 10.5t-22 20t-16 25.5t-10.5 36.5t-7 44t-3.5 58t-1.5 67.5t-0.5 82.5z
M93 327q0 -128 6.5 -172t23.5 -56q23 -15 62 -15q26 0 33 20.5t9 73.5v283q-1 58 -9 76.5t-35 18.5q-17 0 -29.5 -1.5t-22 -8.5t-16 -13t-11 -21.5t-6.5 -27t-3.5 -37t-1.5 -43.5v-54v-23z" />
    <glyph glyph-name="oe" unicode="&#x153;" 
d="M-1 227q0 98 43 165.5t107 67.5q65 0 108 -67q38 67 101 67q21 0 41 -10t39.5 -32.5t31.5 -69t12 -110.5q0 -18 -4.5 -29.5t-13 -16t-14.5 -5.5t-16 -1h-130q7 -44 25.5 -71t38.5 -27q16 0 27 29l0.5 2.5t0.5 3.5t1 3q4 12 7.5 18.5t13 14t23.5 7.5q15 0 27.5 -12
t12.5 -31q0 -22 -11.5 -50t-39.5 -53t-64 -25q-64 0 -109 69q-42 -69 -108 -69q-65 0 -107.5 68.5t-42.5 163.5zM83 233q0 -60 20 -102.5t46 -42.5q25 0 46 42.5t21 102.5q0 57 -21 95t-46 38q-24 0 -45 -36t-21 -97zM303 278h93q-2 38 -12.5 63t-25.5 25q-19 0 -34 -26
t-21 -62z" />
    <glyph glyph-name="Racute" unicode="&#x154;" 
d="M106 723q0 12 3 20.5t10.5 13.5t12 7t14.5 6l82 29q55 19 62 19q18 0 32.5 -14.5t14.5 -35.5q0 -38 -40 -51q-137 -49 -146 -49q-24 0 -34.5 19.5t-10.5 35.5zM0 47.5q0 16.5 5 27t14.5 14.5t16 4.5t18.5 0.5h8v453h-8q-11 0 -17.5 1t-16.5 5t-15 14.5t-5 27t5 27
t14.5 14.5t16 5t18.5 1h168q88 0 144 -55t56 -129q0 -91 -70 -141q22 -24 35 -52q7 -19 8 -34t1 -66v-31.5t1 -24.5t3.5 -19.5t6.5 -5.5q2 0 2 27q1 48 48 48q9 0 14.5 -1t15 -5t14.5 -15.5t5 -28.5q0 -24 -9 -50t-32.5 -47.5t-56.5 -21.5q-61 0 -89 54v-1q-14 24 -17 50
t-3 85q0 23 -0.5 32.5t-4 20.5t-11.5 19q-25 24 -66 24h-58v-180h8q12 0 18.5 -0.5t16 -4.5t14.5 -14.5t5 -27t-5 -27t-15 -14.5t-16.5 -5t-17.5 -1h-113q-11 0 -17.5 1t-16.5 5t-15 14.5t-5 27zM159 368h52q53 0 83 27.5t30 62.5q0 34 -30 61.5t-83 27.5h-52v-179z" />
    <glyph glyph-name="racute" unicode="&#x155;" 
d="M110 560q0 13 6 22.5t11 13.5t15 9q6 4 9 4l34 16q12 5 25 11t20.5 9.5t16 7.5t13 6l9 4t7.5 3t5.5 2t4.5 1.5t4 0.5h4q19 0 34.5 -15t15.5 -38q0 -32 -38 -51l-70 -32l-22 -10t-17 -7.5t-12 -5.5t-8.5 -4t-5.5 -2t-5 -1.5t-3.5 -0.5h-4.5q-21 0 -34.5 19.5t-13.5 37.5z
M12 46q0 16 5 26.5t14.5 14.5t16 4.5t17.5 0.5h59v268h-59q-12 0 -18.5 1t-16 5t-14 14t-4.5 26.5t5 26.5t14.5 14t16 5t17.5 1h102q30 0 40.5 -11t11.5 -39q62 55 142 55q32 0 54.5 -8.5t32 -21.5t13.5 -24.5t4 -22.5q0 -26 -16 -42t-39 -16q-20 0 -34 12t-19 30
q-67 -3 -102.5 -52t-35.5 -116v-105h88q10 0 16.5 -0.5t16.5 -4.5t15 -14.5t5 -26.5t-5 -26.5t-15 -14t-16.5 -4.5t-16.5 -1h-242q-12 0 -18.5 1t-16 4.5t-14 14t-4.5 26.5z" />
    <glyph glyph-name="Rcaron" unicode="&#x158;" 
d="M48 772q0 17 13 30.5t30 13.5q11 0 21.5 -8t34.5 -31q5 -4 7 -6q8 -8 22 -19.5t23 -19.5q62 58 66 62q25 22 39 22t29 -11.5t15 -38.5q0 -11 -18 -31.5t-98 -98.5q-17 -18 -35 -18t-35 18l-43 42q-53 55 -62 66.5t-9 27.5zM0 47.5q0 16.5 5 27t14.5 14.5t16 4.5t18.5 0.5
h8v453h-8q-11 0 -17.5 1t-16.5 5t-15 14.5t-5 27t5 27t14.5 14.5t16 5t18.5 1h168q88 0 144 -55t56 -129q0 -91 -70 -141q22 -24 35 -52q7 -19 8 -34t1 -66v-31.5t1 -24.5t3.5 -19.5t6.5 -5.5q2 0 2 27q1 48 48 48q9 0 14.5 -1t15 -5t14.5 -15.5t5 -28.5q0 -24 -9 -50
t-32.5 -47.5t-56.5 -21.5q-61 0 -89 54v-1q-14 24 -17 50t-3 85q0 23 -0.5 32.5t-4 20.5t-11.5 19q-25 24 -66 24h-58v-180h8q12 0 18.5 -0.5t16 -4.5t14.5 -14.5t5 -27t-5 -27t-15 -14.5t-16.5 -5t-17.5 -1h-113q-11 0 -17.5 1t-16.5 5t-15 14.5t-5 27zM159 368h52
q53 0 83 27.5t30 62.5q0 34 -30 61.5t-83 27.5h-52v-179z" />
    <glyph glyph-name="rcaron" unicode="&#x159;" 
d="M79 624q0 18 13 32t30 14q23 0 109 -77l4 3.5t12.5 10.5t15.5 13q58 49 77 50q19 0 32 -14.5t13 -31.5q0 -16 -14 -32t-62 -56l-44 -39q-21 -16 -36 -16q-10 0 -23.5 10.5t-79.5 67.5q-1 0 -9.5 8t-12.5 12q-25 19 -25 45zM12 46q0 16 5 26.5t14.5 14.5t16 4.5t17.5 0.5
h59v268h-59q-12 0 -18.5 1t-16 5t-14 14t-4.5 26.5t5 26.5t14.5 14t16 5t17.5 1h102q30 0 40.5 -11t11.5 -39q62 55 142 55q32 0 54.5 -8.5t32 -21.5t13.5 -24.5t4 -22.5q0 -26 -16 -42t-39 -16q-20 0 -34 12t-19 30q-67 -3 -102.5 -52t-35.5 -116v-105h88q10 0 16.5 -0.5
t16.5 -4.5t15 -14.5t5 -26.5t-5 -26.5t-15 -14t-16.5 -4.5t-16.5 -1h-242q-12 0 -18.5 1t-16 4.5t-14 14t-4.5 26.5z" />
    <glyph glyph-name="Sacute" unicode="&#x15a;" 
d="M125 723q0 12 3 20.5t10.5 13.5t12 7t14.5 6l82 29q55 19 62 19q18 0 32.5 -14.5t14.5 -35.5q0 -38 -40 -51q-137 -49 -146 -49q-24 0 -34.5 19.5t-10.5 35.5zM28 47v131q0 14 1 21.5t5 17.5t15 14.5t29 4.5q16 0 26 -4t14.5 -12.5t6 -15.5t1.5 -19q3 -50 37 -74
q38 -27 102 -27q46 0 73 28.5t27 64.5q0 76 -93 96l-110 26q-62 19 -98 67.5t-36 105.5q0 73 54.5 126.5t138.5 53.5q71 0 124 -36q6 20 14.5 28t28.5 8q16 0 26 -5t13.5 -15.5t4.5 -17.5t1 -20v-131q0 -14 -1 -21t-5 -17.5t-15 -15t-28 -4.5q-23 0 -34 9.5t-15 33.5v-1
q-16 111 -115 111q-42 0 -70 -24.5t-28 -56.5q0 -28 18.5 -49.5t46.5 -28.5l-1 1l76 -18q64 -15 90 -27t56 -43q50 -53 50 -130t-54 -134.5t-140 -57.5q-88 0 -147 35q-6 -19 -16 -27t-28 -8q-16 0 -26 5t-13.5 15.5t-4.5 17.5t-1 19z" />
    <glyph glyph-name="sacute" unicode="&#x15b;" 
d="M124 560q0 13 6 22.5t11 13.5t15 9q6 4 9 4l34 16q12 5 25 11t20.5 9.5t16 7.5t13 6l9 4t7.5 3t5.5 2t4.5 1.5t4 0.5h4q19 0 34.5 -15t15.5 -38q0 -32 -38 -51l-70 -32l-22 -10t-17 -7.5t-12 -5.5t-8.5 -4t-5.5 -2t-5 -1.5t-3.5 -0.5h-4.5q-21 0 -34.5 19.5t-13.5 37.5z
M49 50v95q0 14 1 21t5 17t14.5 14.5t27.5 4.5q13 0 21.5 -3t13.5 -9.5t7.5 -12t5.5 -15.5q26 -76 103 -76q52 0 77.5 15t25.5 38q0 38 -106 54q-34 6 -55.5 10.5t-51.5 15t-47 24t-29.5 36t-12.5 51.5q0 14 3.5 29t15.5 34t32 33.5t56.5 24.5t84.5 10q52 0 91 -16
q9 16 36 16q15 0 24.5 -5t13 -15t4.5 -17t1 -19v-67q0 -14 -1 -21t-5 -17t-14.5 -14.5t-27.5 -4.5q-15 0 -25 4t-14.5 12t-6 14.5t-1.5 18.5q-3 17 -18.5 28t-58.5 11q-52 0 -77 -12t-25 -27q0 -24 81 -38q11 -3 41 -7l18 -4q16 -2 30.5 -5.5t40.5 -14t44.5 -24.5t32.5 -40
t14 -58q0 -18 -4.5 -35.5t-17.5 -38t-33 -36t-55.5 -25.5t-81.5 -10q-65 0 -113 28q-14 -28 -41 -28q-16 0 -25.5 5t-13 15.5t-4.5 17.5t-1 18z" />
    <glyph glyph-name="Scircumflex" unicode="&#x15c;" 
d="M49 695q0 25 25 42q89 70 109.5 84t33.5 14q10 0 20.5 -6.5t57.5 -42.5l65 -51q23 -19 23 -39q0 -18 -16 -36t-34 -18q-20 0 -101 69l-17 15l-35 -29q-43 -37 -56.5 -46t-25.5 -9q-19 0 -34 18t-15 35zM28 47v131q0 14 1 21.5t5 17.5t15 14.5t29 4.5q16 0 26 -4
t14.5 -12.5t6 -15.5t1.5 -19q3 -50 37 -74q38 -27 102 -27q46 0 73 28.5t27 64.5q0 76 -93 96l-110 26q-62 19 -98 67.5t-36 105.5q0 73 54.5 126.5t138.5 53.5q71 0 124 -36q6 20 14.5 28t28.5 8q16 0 26 -5t13.5 -15.5t4.5 -17.5t1 -20v-131q0 -14 -1 -21t-5 -17.5
t-15 -15t-28 -4.5q-23 0 -34 9.5t-15 33.5v-1q-16 111 -115 111q-42 0 -70 -24.5t-28 -56.5q0 -28 18.5 -49.5t46.5 -28.5l-1 1l76 -18q64 -15 90 -27t56 -43q50 -53 50 -130t-54 -134.5t-140 -57.5q-88 0 -147 35q-6 -19 -16 -27t-28 -8q-16 0 -26 5t-13.5 15.5t-4.5 17.5
t-1 19z" />
    <glyph glyph-name="scircumflex" unicode="&#x15d;" 
d="M74 541q0 23 28 44l58 41h-1q48 34 60.5 41t24.5 7q10 0 24.5 -8.5t79.5 -54.5q23 -16 37 -25q29 -21 29 -46q0 -16 -15.5 -35.5t-35.5 -19.5t-78 48l-42 32q-2 0 -7 -5l-13 -11h1l-30 -22q-6 -4 -14.5 -10.5t-12 -9.5t-9.5 -7t-8.5 -5.5t-7 -4t-7 -3.5t-6 -1.5
t-6.5 -0.5q-19 0 -34 19.5t-15 36.5zM49 50v95q0 14 1 21t5 17t14.5 14.5t27.5 4.5q13 0 21.5 -3t13.5 -9.5t7.5 -12t5.5 -15.5q26 -76 103 -76q52 0 77.5 15t25.5 38q0 38 -106 54q-34 6 -55.5 10.5t-51.5 15t-47 24t-29.5 36t-12.5 51.5q0 14 3.5 29t15.5 34t32 33.5
t56.5 24.5t84.5 10q52 0 91 -16q9 16 36 16q15 0 24.5 -5t13 -15t4.5 -17t1 -19v-67q0 -14 -1 -21t-5 -17t-14.5 -14.5t-27.5 -4.5q-15 0 -25 4t-14.5 12t-6 14.5t-1.5 18.5q-3 17 -18.5 28t-58.5 11q-52 0 -77 -12t-25 -27q0 -24 81 -38q11 -3 41 -7l18 -4q16 -2 30.5 -5.5
t40.5 -14t44.5 -24.5t32.5 -40t14 -58q0 -18 -4.5 -35.5t-17.5 -38t-33 -36t-55.5 -25.5t-81.5 -10q-65 0 -113 28q-14 -28 -41 -28q-16 0 -25.5 5t-13 15.5t-4.5 17.5t-1 18z" />
    <glyph glyph-name="Scedilla" unicode="&#x15e;" 
d="M265 -94q-48 0 -48 60v32q0 12 0.5 18t3 16t7.5 15.5t15 10t24 4.5q15 0 25 -4.5t15 -9.5t7.5 -15.5t2.5 -14.5v-14v-11q92 -25 92 -110q0 -24 -8.5 -43t-20.5 -31t-32.5 -21t-38 -13t-43.5 -6.5t-42 -3t-41 -0.5h-11q-21 0 -34.5 13t-13.5 33q0 49 51 49h25q53 2 81.5 6
t28.5 16l-5 9q-20 13 -40 15zM28 47v131q0 14 1 21.5t5 17.5t15 14.5t29 4.5q16 0 26 -4t14.5 -12.5t6 -15.5t1.5 -19q3 -50 37 -74q38 -27 102 -27q46 0 73 28.5t27 64.5q0 76 -93 96l-110 26q-62 19 -98 67.5t-36 105.5q0 73 54.5 126.5t138.5 53.5q71 0 124 -36
q6 20 14.5 28t28.5 8q16 0 26 -5t13.5 -15.5t4.5 -17.5t1 -20v-131q0 -14 -1 -21t-5 -17.5t-15 -15t-28 -4.5q-23 0 -34 9.5t-15 33.5v-1q-16 111 -115 111q-42 0 -70 -24.5t-28 -56.5q0 -28 18.5 -49.5t46.5 -28.5l-1 1l76 -18q64 -15 90 -27t56 -43q50 -53 50 -130
t-54 -134.5t-140 -57.5q-88 0 -147 35q-6 -19 -16 -27t-28 -8q-16 0 -26 5t-13.5 15.5t-4.5 17.5t-1 19z" />
    <glyph glyph-name="scedilla" unicode="&#x15f;" 
d="M250 -94q-48 0 -48 60v32q0 12 0.5 18t3 16t7.5 15.5t15 10t24 4.5q15 0 25 -4.5t15 -9.5t7.5 -15.5t2.5 -14.5v-14v-11q92 -25 92 -110q0 -24 -8.5 -43t-20.5 -31t-32.5 -21t-38 -13t-43.5 -6.5t-42 -3t-41 -0.5h-11q-21 0 -34.5 13t-13.5 33q0 49 51 49h25q53 2 81.5 6
t28.5 16l-5 9q-20 13 -40 15zM49 50v95q0 14 1 21t5 17t14.5 14.5t27.5 4.5q13 0 21.5 -3t13.5 -9.5t7.5 -12t5.5 -15.5q26 -76 103 -76q52 0 77.5 15t25.5 38q0 38 -106 54q-34 6 -55.5 10.5t-51.5 15t-47 24t-29.5 36t-12.5 51.5q0 14 3.5 29t15.5 34t32 33.5t56.5 24.5
t84.5 10q52 0 91 -16q9 16 36 16q15 0 24.5 -5t13 -15t4.5 -17t1 -19v-67q0 -14 -1 -21t-5 -17t-14.5 -14.5t-27.5 -4.5q-15 0 -25 4t-14.5 12t-6 14.5t-1.5 18.5q-3 17 -18.5 28t-58.5 11q-52 0 -77 -12t-25 -27q0 -24 81 -38q11 -3 41 -7l18 -4q16 -2 30.5 -5.5t40.5 -14
t44.5 -24.5t32.5 -40t14 -58q0 -18 -4.5 -35.5t-17.5 -38t-33 -36t-55.5 -25.5t-81.5 -10q-65 0 -113 28q-14 -28 -41 -28q-16 0 -25.5 5t-13 15.5t-4.5 17.5t-1 18z" />
    <glyph glyph-name="Scaron" unicode="&#x160;" 
d="M67 772q0 17 13 30.5t30 13.5q11 0 21.5 -8t34.5 -31q5 -4 7 -6q8 -8 22 -19.5t23 -19.5q62 58 66 62q25 22 39 22t29 -11.5t15 -38.5q0 -11 -18 -31.5t-98 -98.5q-17 -18 -35 -18t-35 18l-43 42q-53 55 -62 66.5t-9 27.5zM28 47v131q0 14 1 21.5t5 17.5t15 14.5t29 4.5
q16 0 26 -4t14.5 -12.5t6 -15.5t1.5 -19q3 -50 37 -74q38 -27 102 -27q46 0 73 28.5t27 64.5q0 76 -93 96l-110 26q-62 19 -98 67.5t-36 105.5q0 73 54.5 126.5t138.5 53.5q71 0 124 -36q6 20 14.5 28t28.5 8q16 0 26 -5t13.5 -15.5t4.5 -17.5t1 -20v-131q0 -14 -1 -21
t-5 -17.5t-15 -15t-28 -4.5q-23 0 -34 9.5t-15 33.5v-1q-16 111 -115 111q-42 0 -70 -24.5t-28 -56.5q0 -28 18.5 -49.5t46.5 -28.5l-1 1l76 -18q64 -15 90 -27t56 -43q50 -53 50 -130t-54 -134.5t-140 -57.5q-88 0 -147 35q-6 -19 -16 -27t-28 -8q-16 0 -26 5t-13.5 15.5
t-4.5 17.5t-1 19z" />
    <glyph glyph-name="scaron" unicode="&#x161;" 
d="M93 624q0 18 13 32t30 14q23 0 109 -77l4 3.5t12.5 10.5t15.5 13q58 49 77 50q19 0 32 -14.5t13 -31.5q0 -16 -14 -32t-62 -56l-44 -39q-21 -16 -36 -16q-10 0 -23.5 10.5t-79.5 67.5q-1 0 -9.5 8t-12.5 12q-25 19 -25 45zM49 50v95q0 14 1 21t5 17t14.5 14.5t27.5 4.5
q13 0 21.5 -3t13.5 -9.5t7.5 -12t5.5 -15.5q26 -76 103 -76q52 0 77.5 15t25.5 38q0 38 -106 54q-34 6 -55.5 10.5t-51.5 15t-47 24t-29.5 36t-12.5 51.5q0 14 3.5 29t15.5 34t32 33.5t56.5 24.5t84.5 10q52 0 91 -16q9 16 36 16q15 0 24.5 -5t13 -15t4.5 -17t1 -19v-67
q0 -14 -1 -21t-5 -17t-14.5 -14.5t-27.5 -4.5q-15 0 -25 4t-14.5 12t-6 14.5t-1.5 18.5q-3 17 -18.5 28t-58.5 11q-52 0 -77 -12t-25 -27q0 -24 81 -38q11 -3 41 -7l18 -4q16 -2 30.5 -5.5t40.5 -14t44.5 -24.5t32.5 -40t14 -58q0 -18 -4.5 -35.5t-17.5 -38t-33 -36
t-55.5 -25.5t-81.5 -10q-65 0 -113 28q-14 -28 -41 -28q-16 0 -25.5 5t-13 15.5t-4.5 17.5t-1 18z" />
    <glyph glyph-name="Tcommaaccent" unicode="&#x162;" 
d="M243 -94q-48 0 -48 60v32q0 12 0.5 18t3 16t7.5 15.5t15 10t24 4.5q15 0 25 -4.5t15 -9.5t7.5 -15.5t2.5 -14.5v-14v-11q92 -25 92 -110q0 -24 -8.5 -43t-20.5 -31t-32.5 -21t-38 -13t-43.5 -6.5t-42 -3t-41 -0.5h-11q-21 0 -34.5 13t-13.5 33q0 49 51 49h25q53 2 81.5 6
t28.5 16l-5 9q-20 13 -40 15zM4 511v73q0 35 10.5 46.5t44.5 11.5h370q34 0 44 -12t10 -46v-73q0 -14 -1 -21.5t-5 -17.5t-15 -14t-28 -4t-27.5 4.5t-14.5 14.5t-5 17.5t-1 20.5v36h-93v-453h33q12 0 18.5 -0.5t16 -4.5t14.5 -14.5t5 -27t-5 -27t-15 -14.5t-16.5 -5
t-17.5 -1h-164q-12 0 -18.5 1t-16 5t-14.5 14.5t-5 27t5 27t15 14.5t16.5 4.5t17.5 0.5h33v453h-94v-36q0 -14 -1 -21.5t-5 -17.5t-15 -14t-28 -4t-27.5 4.5t-14.5 14.5t-5 17.5t-1 20.5z" />
    <glyph glyph-name="tcommaaccent" unicode="&#x163;" 
d="M240 -94q-48 0 -48 60v32q0 12 0.5 18t3 16t7.5 15.5t15 10t24 4.5q15 0 25 -4.5t15 -9.5t7.5 -15.5t2.5 -14.5v-14v-11q92 -25 92 -110q0 -24 -8.5 -43t-20.5 -31t-32.5 -21t-38 -13t-43.5 -6.5t-42 -3t-41 -0.5h-11q-21 0 -34.5 13t-13.5 33q0 49 51 49h25q53 2 81.5 6
t28.5 16l-5 9q-20 13 -40 15zM5 405q0 17 5 27.5t14.5 14.5t16 5t17.5 1h65v63q0 13 1 20.5t5 17t14.5 14t27.5 4.5t27.5 -4.5t14.5 -14.5t5 -17t1 -20v-63h136q11 0 17.5 -1t16 -5t14.5 -14.5t5 -27.5q0 -16 -5 -26t-15 -13.5t-16.5 -4.5t-16.5 -1h-136v-215q0 -11 1 -18
t5.5 -18t17 -17t31.5 -6q20 0 39.5 12t20.5 42q0 12 1 19t5 16.5t14 13.5t27 4t27.5 -4t14.5 -13.5t5 -16.5t1 -19q0 -69 -48 -107.5t-111 -38.5t-105 35.5t-42 110.5v220h-66q-10 0 -16.5 1t-16 4.5t-14.5 13.5t-5 26z" />
    <glyph glyph-name="Tcaron" unicode="&#x164;" 
d="M92 772q0 17 13 30.5t30 13.5q11 0 21.5 -8t34.5 -31q5 -4 7 -6q8 -8 22 -19.5t23 -19.5q62 58 66 62q25 22 39 22t29 -11.5t15 -38.5q0 -11 -18 -31.5t-98 -98.5q-17 -18 -35 -18t-35 18l-43 42q-53 55 -62 66.5t-9 27.5zM4 511v73q0 35 10.5 46.5t44.5 11.5h370
q34 0 44 -12t10 -46v-73q0 -14 -1 -21.5t-5 -17.5t-15 -14t-28 -4t-27.5 4.5t-14.5 14.5t-5 17.5t-1 20.5v36h-93v-453h33q12 0 18.5 -0.5t16 -4.5t14.5 -14.5t5 -27t-5 -27t-15 -14.5t-16.5 -5t-17.5 -1h-164q-12 0 -18.5 1t-16 5t-14.5 14.5t-5 27t5 27t15 14.5t16.5 4.5
t17.5 0.5h33v453h-94v-36q0 -14 -1 -21.5t-5 -17.5t-15 -14t-28 -4t-27.5 4.5t-14.5 14.5t-5 17.5t-1 20.5z" />
    <glyph glyph-name="tcaron" unicode="&#x165;" 
d="M19 744q0 18 13 32t30 14q23 0 109 -77l4 3.5t12.5 10.5t15.5 13q58 49 77 50q19 0 32 -14.5t13 -31.5q0 -16 -14 -32t-62 -56l-44 -39q-21 -16 -36 -16q-10 0 -23.5 10.5t-79.5 67.5q-1 0 -9.5 8t-12.5 12q-25 19 -25 45zM5 405q0 17 5 27.5t14.5 14.5t16 5t17.5 1h65
v63q0 13 1 20.5t5 17t14.5 14t27.5 4.5t27.5 -4.5t14.5 -14.5t5 -17t1 -20v-63h136q11 0 17.5 -1t16 -5t14.5 -14.5t5 -27.5q0 -16 -5 -26t-15 -13.5t-16.5 -4.5t-16.5 -1h-136v-215q0 -11 1 -18t5.5 -18t17 -17t31.5 -6q20 0 39.5 12t20.5 42q0 12 1 19t5 16.5t14 13.5
t27 4t27.5 -4t14.5 -13.5t5 -16.5t1 -19q0 -69 -48 -107.5t-111 -38.5t-105 35.5t-42 110.5v220h-66q-10 0 -16.5 1t-16 4.5t-14.5 13.5t-5 26z" />
    <glyph glyph-name="Utilde" unicode="&#x168;" 
d="M172 732q-17 0 -45 -30.5t-46 -30.5t-31.5 15t-13.5 32q0 9 12 27t30.5 37t44.5 33.5t50 14.5q41 0 92 -38q32 -22 44 -22q17 0 45.5 30t45.5 30q13 0 29 -13.5t16 -34.5q0 -9 -12 -27t-30 -37t-44 -33t-51 -14q-18 0 -36.5 7t-28.5 13t-27 19q-32 22 -44 22zM-17 594.5
q0 16.5 5 27t15.5 14.5t17 5t17.5 1h122q11 0 17.5 -1t17 -5t15.5 -14.5t5 -27t-5 -27t-15.5 -14.5t-17 -5t-17.5 -1h-12v-322q0 -67 29.5 -104t65.5 -37t66 37t30 104v322h-12q-11 0 -17.5 1t-17 5t-15.5 14.5t-5 27t5 27t15.5 14.5t17 5t17.5 1h122q11 0 17.5 -1t17 -5
t15.5 -14.5t5 -27t-5 -27t-15 -14.5t-16.5 -5t-18.5 -1h-12v-328q0 -97 -57.5 -163t-136.5 -66t-136 66t-57 163v328h-12q-11 0 -17.5 1t-17 5t-15.5 14.5t-5 27z" />
    <glyph glyph-name="utilde" unicode="&#x169;" 
d="M62 538q0 19 20 38q66 66 116 66q17 0 33 -8t23 -13.5t21 -18.5q13 -14 17 -14q8 0 40 26q29 26 46.5 26t31.5 -14t14 -33q0 -21 -20 -40q-62 -65 -116 -65q-18 0 -33 7t-22.5 13t-18.5 18q-14 15 -19 15q-7 0 -40 -25q-1 -1 -5 -4.5t-5 -4.5t-4.5 -4t-4.5 -3.5t-4 -3
t-5 -3t-4.5 -2t-4.5 -2t-4.5 -1t-5.5 -0.5q-20 0 -33 16t-13 34zM-7 405q0 17 5 27.5t15 14.5t16.5 5t17.5 1h68q32 0 42.5 -12t10.5 -45v-263q0 -11 1 -17t6 -14.5t17.5 -12t32.5 -3.5q12 0 25 3t28.5 11t25.5 26t10 43v191h-26q-10 0 -16.5 1t-16.5 4.5t-15 13.5t-5 26
q0 17 5 27.5t15 14.5t16.5 5t17.5 1h68q32 0 42.5 -12t10.5 -45v-304h25q10 0 16.5 -0.5t16.5 -4.5t15 -14.5t5 -26.5t-5 -26.5t-14.5 -14t-16 -4.5t-17.5 -1h-68q-37 0 -47 20q-46 -26 -100 -26q-148 0 -148 133v233h-26q-10 0 -16.5 1t-16.5 4.5t-15 13.5t-5 26z" />
    <glyph glyph-name="Umacron" unicode="&#x16a;" 
d="M-18 764q0 49 48 49h424q45 -3 45 -49t-45 -46h-423q-49 0 -49 46zM-17 594.5q0 16.5 5 27t15.5 14.5t17 5t17.5 1h122q11 0 17.5 -1t17 -5t15.5 -14.5t5 -27t-5 -27t-15.5 -14.5t-17 -5t-17.5 -1h-12v-322q0 -67 29.5 -104t65.5 -37t66 37t30 104v322h-12q-11 0 -17.5 1
t-17 5t-15.5 14.5t-5 27t5 27t15.5 14.5t17 5t17.5 1h122q11 0 17.5 -1t17 -5t15.5 -14.5t5 -27t-5 -27t-15 -14.5t-16.5 -5t-18.5 -1h-12v-328q0 -97 -57.5 -163t-136.5 -66t-136 66t-57 163v328h-12q-11 0 -17.5 1t-17 5t-15.5 14.5t-5 27z" />
    <glyph glyph-name="umacron" unicode="&#x16b;" 
d="M47 564q0 49 50 49h293q26 0 37.5 -15t11.5 -34q0 -20 -12 -33.5t-39 -13.5h-293q-26 1 -37 15.5t-11 31.5zM-7 405q0 17 5 27.5t15 14.5t16.5 5t17.5 1h68q32 0 42.5 -12t10.5 -45v-263q0 -11 1 -17t6 -14.5t17.5 -12t32.5 -3.5q12 0 25 3t28.5 11t25.5 26t10 43v191
h-26q-10 0 -16.5 1t-16.5 4.5t-15 13.5t-5 26q0 17 5 27.5t15 14.5t16.5 5t17.5 1h68q32 0 42.5 -12t10.5 -45v-304h25q10 0 16.5 -0.5t16.5 -4.5t15 -14.5t5 -26.5t-5 -26.5t-14.5 -14t-16 -4.5t-17.5 -1h-68q-37 0 -47 20q-46 -26 -100 -26q-148 0 -148 133v233h-26
q-10 0 -16.5 1t-16.5 4.5t-15 13.5t-5 26z" />
    <glyph glyph-name="Ubreve" unicode="&#x16c;" 
d="M62 783q0 21 12 34t32 13q42 0 45 -50q0 -1 0.5 -2.5t0.5 -2.5v3q4 -21 29.5 -34.5t60.5 -13.5q32 0 59.5 13.5t30.5 39.5q3 47 44 47q20 0 32.5 -12.5t12.5 -35.5q0 -62 -52 -105t-128 -43q-78 0 -128.5 44t-50.5 105zM-17 594.5q0 16.5 5 27t15.5 14.5t17 5t17.5 1h122
q11 0 17.5 -1t17 -5t15.5 -14.5t5 -27t-5 -27t-15.5 -14.5t-17 -5t-17.5 -1h-12v-322q0 -67 29.5 -104t65.5 -37t66 37t30 104v322h-12q-11 0 -17.5 1t-17 5t-15.5 14.5t-5 27t5 27t15.5 14.5t17 5t17.5 1h122q11 0 17.5 -1t17 -5t15.5 -14.5t5 -27t-5 -27t-15 -14.5
t-16.5 -5t-18.5 -1h-12v-328q0 -97 -57.5 -163t-136.5 -66t-136 66t-57 163v328h-12q-11 0 -17.5 1t-17 5t-15.5 14.5t-5 27z" />
    <glyph glyph-name="ubreve" unicode="&#x16d;" 
d="M242 594q92 0 92 29q1 9 3 15.5t7 14.5t14.5 12.5t22.5 4.5q20 0 32.5 -13.5t12.5 -34.5t-9 -41.5t-28 -40.5t-57 -32t-89 -12t-89 12t-57.5 32t-28 40.5t-8.5 41.5t13 34.5t32 13.5q25 0 35.5 -17t10.5 -33q9 -26 91 -26zM-7 405q0 17 5 27.5t15 14.5t16.5 5t17.5 1h68
q32 0 42.5 -12t10.5 -45v-263q0 -11 1 -17t6 -14.5t17.5 -12t32.5 -3.5q12 0 25 3t28.5 11t25.5 26t10 43v191h-26q-10 0 -16.5 1t-16.5 4.5t-15 13.5t-5 26q0 17 5 27.5t15 14.5t16.5 5t17.5 1h68q32 0 42.5 -12t10.5 -45v-304h25q10 0 16.5 -0.5t16.5 -4.5t15 -14.5
t5 -26.5t-5 -26.5t-14.5 -14t-16 -4.5t-17.5 -1h-68q-37 0 -47 20q-46 -26 -100 -26q-148 0 -148 133v233h-26q-10 0 -16.5 1t-16.5 4.5t-15 13.5t-5 26z" />
    <glyph glyph-name="Uring" unicode="&#x16e;" 
d="M117 707q0 52 35.5 91.5t87.5 39.5q50 0 87 -37.5t37 -93.5q0 -53 -35 -93t-88 -40q-54 0 -89 39.5t-35 93.5zM203 707q0 -16 11 -27.5t27 -11.5q15 0 26 11.5t11 27t-10.5 27.5t-26.5 12t-27 -12.5t-11 -26.5zM-17 594.5q0 16.5 5 27t15.5 14.5t17 5t17.5 1h122
q11 0 17.5 -1t17 -5t15.5 -14.5t5 -27t-5 -27t-15.5 -14.5t-17 -5t-17.5 -1h-12v-322q0 -67 29.5 -104t65.5 -37t66 37t30 104v322h-12q-11 0 -17.5 1t-17 5t-15.5 14.5t-5 27t5 27t15.5 14.5t17 5t17.5 1h122q11 0 17.5 -1t17 -5t15.5 -14.5t5 -27t-5 -27t-15 -14.5
t-16.5 -5t-18.5 -1h-12v-328q0 -97 -57.5 -163t-136.5 -66t-136 66t-57 163v328h-12q-11 0 -17.5 1t-17 5t-15.5 14.5t-5 27z" />
    <glyph glyph-name="uring" unicode="&#x16f;" 
d="M142 574q0 40 28.5 71.5t72.5 31.5q45 0 73 -31.5t28 -71.5t-27.5 -72t-73.5 -32q-43 0 -72 31.5t-29 72.5zM229 575q0 -14 4.5 -24.5t9.5 -10.5q9 0 13 22q1 6 1 12q0 15 -4 24.5t-10 9.5q-5 0 -9.5 -9.5t-4.5 -23.5zM-7 405q0 17 5 27.5t15 14.5t16.5 5t17.5 1h68
q32 0 42.5 -12t10.5 -45v-263q0 -11 1 -17t6 -14.5t17.5 -12t32.5 -3.5q12 0 25 3t28.5 11t25.5 26t10 43v191h-26q-10 0 -16.5 1t-16.5 4.5t-15 13.5t-5 26q0 17 5 27.5t15 14.5t16.5 5t17.5 1h68q32 0 42.5 -12t10.5 -45v-304h25q10 0 16.5 -0.5t16.5 -4.5t15 -14.5
t5 -26.5t-5 -26.5t-14.5 -14t-16 -4.5t-17.5 -1h-68q-37 0 -47 20q-46 -26 -100 -26q-148 0 -148 133v233h-26q-10 0 -16.5 1t-16.5 4.5t-15 13.5t-5 26z" />
    <glyph glyph-name="Uhungarumlaut" unicode="&#x170;" 
d="M92 723q0 12 3 20.5t10.5 13.5t12 7t14.5 6l83 29q54 19 62 19q18 0 32.5 -14.5t14.5 -35.5q0 -39 -41 -51q-137 -49 -145 -49q-24 0 -35 19.5t-11 35.5zM308 723q0 12 3 20.5t10.5 13.5t12 7t14.5 6l83 29q54 19 62 19q18 0 32.5 -14.5t14.5 -35.5q0 -38 -41 -51
q-137 -49 -145 -49q-24 0 -35 19.5t-11 35.5zM-17 594.5q0 16.5 5 27t15.5 14.5t17 5t17.5 1h122q11 0 17.5 -1t17 -5t15.5 -14.5t5 -27t-5 -27t-15.5 -14.5t-17 -5t-17.5 -1h-12v-322q0 -67 29.5 -104t65.5 -37t66 37t30 104v322h-12q-11 0 -17.5 1t-17 5t-15.5 14.5t-5 27
t5 27t15.5 14.5t17 5t17.5 1h122q11 0 17.5 -1t17 -5t15.5 -14.5t5 -27t-5 -27t-15 -14.5t-16.5 -5t-18.5 -1h-12v-328q0 -97 -57.5 -163t-136.5 -66t-136 66t-57 163v328h-12q-11 0 -17.5 1t-17 5t-15.5 14.5t-5 27z" />
    <glyph glyph-name="uhungarumlaut" unicode="&#x171;" 
d="M79 560q0 13 6 22.5t11 13.5t15 9q6 4 10 4l34 16q15 7 30.5 14t23.5 10.5t16.5 7.5t13 6t8.5 3.5t6.5 2l5 1t5.5 0.5q18 0 33.5 -15t15.5 -38q0 -32 -38 -51l-70 -32l-18 -8t-14.5 -6.5t-11 -5.5t-9 -4.5t-6.5 -3t-5 -2t-3.5 -1t-3.5 -0.5h-3h-4q-21 0 -34.5 19.5
t-13.5 37.5zM300 560q0 13 6 22.5t11 13.5t15 9q6 4 9 4l34 16q12 5 25 11t20.5 9.5t16 7.5t13 6l9 4t7.5 3t5.5 2t4.5 1.5t4 0.5h4q19 0 34.5 -15t15.5 -38q0 -32 -38 -51l-70 -32l-22 -10t-17 -7.5t-12 -5.5t-8.5 -4t-5.5 -2t-5 -1.5t-3.5 -0.5h-4.5q-21 0 -34.5 19.5
t-13.5 37.5zM-7 405q0 17 5 27.5t15 14.5t16.5 5t17.5 1h68q32 0 42.5 -12t10.5 -45v-263q0 -11 1 -17t6 -14.5t17.5 -12t32.5 -3.5q12 0 25 3t28.5 11t25.5 26t10 43v191h-26q-10 0 -16.5 1t-16.5 4.5t-15 13.5t-5 26q0 17 5 27.5t15 14.5t16.5 5t17.5 1h68q32 0 42.5 -12
t10.5 -45v-304h25q10 0 16.5 -0.5t16.5 -4.5t15 -14.5t5 -26.5t-5 -26.5t-14.5 -14t-16 -4.5t-17.5 -1h-68q-37 0 -47 20q-46 -26 -100 -26q-148 0 -148 133v233h-26q-10 0 -16.5 1t-16.5 4.5t-15 13.5t-5 26z" />
    <glyph glyph-name="Wcircumflex" unicode="&#x174;" 
d="M74 695q0 25 25 42q89 70 109.5 84t33.5 14q10 0 20.5 -6.5t57.5 -42.5l65 -51q23 -19 23 -39q0 -18 -16 -36t-34 -18q-20 0 -101 69l-17 15l-35 -29q-43 -37 -56.5 -46t-25.5 -9q-19 0 -34 18t-15 35zM-10 594q0 17 5 27.5t15 14.5t17 5t17 1h75q12 0 18.5 -1t16 -5
t14.5 -14.5t5 -27t-5 -27t-15 -14.5t-16.5 -5t-17.5 -1h-5q6 -50 13 -106.5t15.5 -123.5t13.5 -106q25 133 34 157q15 31 53 31q42 0 55 -37q2 -7 4 -17q3 -14 10.5 -43t11.5 -49t7 -44l1 15q0 2 0.5 5.5t0.5 5.5l40 312h-5q-11 0 -17.5 1t-16.5 5t-15 14.5t-5 27t5 27
t14.5 14.5t16 5t18.5 1h74q11 0 17.5 -1t17 -5t15.5 -14.5t5 -27.5q0 -42 -38 -47l-66 -505q-2 -18 -8.5 -29t-16 -15t-15.5 -5t-15 -1q-42 0 -52 34q-7 19 -43 191q-38 -183 -43 -196q-14 -29 -51 -29q-9 0 -15 1t-15.5 5t-16 15t-8.5 29l-68 506q-36 7 -36 46z" />
    <glyph glyph-name="wcircumflex" unicode="&#x175;" 
d="M74 541q0 23 28 44l58 41h-1q48 34 60.5 41t24.5 7q10 0 24.5 -8.5t79.5 -54.5q23 -16 37 -25q29 -21 29 -46q0 -16 -15.5 -35.5t-35.5 -19.5t-78 48l-42 32q-2 0 -7 -5l-13 -11h1l-30 -22q-6 -4 -14.5 -10.5t-12 -9.5t-9.5 -7t-8.5 -5.5t-7 -4t-7 -3.5t-6 -1.5
t-6.5 -0.5q-19 0 -34 19.5t-15 36.5zM-3 406q0 17 5 27t14.5 14t16.5 5t19 1h106q13 0 20 -1t16.5 -5t14 -14.5t4.5 -27.5q0 -16 -4.5 -26t-14.5 -13.5t-17 -4.5t-19 -1h-27q6 -37 16.5 -91.5t18.5 -102.5q23 85 25 88q15 32 52 32q31 0 41 -14t25 -70q7 -23 8 -23v-2
q1 -4 2 -9q3 22 14 87.5t17 104.5h-27q-13 0 -19.5 1t-16 5t-14 14t-4.5 26.5t4.5 26.5t14.5 14t16.5 5t18.5 1h107q12 0 19 -1t16.5 -5t14.5 -14t5 -27q0 -27 -12.5 -36t-37.5 -10l-53 -314q-2 -14 -4.5 -20.5t-8 -14.5t-16.5 -11.5t-28 -3.5q-36 0 -52 24q-8 11 -30 103
l-12 -47q-16 -55 -26.5 -67.5t-45.5 -12.5q-18 0 -29.5 3.5t-17 11.5t-8 14.5t-4.5 20.5l-53 314q-26 1 -38 9.5t-12 36.5z" />
    <glyph glyph-name="Ycircumflex" unicode="&#x176;" 
d="M74 695q0 25 25 42q89 70 109.5 84t33.5 14q10 0 20.5 -6.5t57.5 -42.5l65 -51q23 -19 23 -39q0 -18 -16 -36t-34 -18q-20 0 -101 69l-17 15l-35 -29q-43 -37 -56.5 -46t-25.5 -9q-19 0 -34 18t-15 35zM-3 594.5q0 16.5 5 27t15 14.5t16.5 5t17.5 1h99q11 0 17.5 -1
t16.5 -5t15 -14.5t5 -27.5q0 -42 -35 -46q3 -5 24.5 -51.5t34 -75t16.5 -47.5q8 17 74 174q-17 2 -26 12t-9 34q0 17 5 27.5t15 14.5t16.5 5t17.5 1h99q11 0 17.5 -1t16.5 -5t15 -14.5t5 -27t-5 -27t-15 -14.5t-16.5 -5t-17.5 -1h-11l-132 -291v-162h7q12 0 18.5 -0.5
t16 -4.5t14.5 -14.5t5 -27t-5 -27t-15 -14.5t-16.5 -5t-17.5 -1h-112q-12 0 -18.5 1t-16 5t-14.5 14.5t-5 27t5 27t15 14.5t16.5 4.5t17.5 0.5h7v162l-133 291h-11q-12 0 -18.5 1t-16 5t-14.5 14.5t-5 27z" />
    <glyph glyph-name="ycircumflex" unicode="&#x177;" 
d="M80 541q0 23 28 44l58 41h-1q48 34 60.5 41t24.5 7q10 0 24.5 -8.5t79.5 -54.5q23 -16 37 -25q29 -21 29 -46q0 -16 -15.5 -35.5t-35.5 -19.5t-78 48l-42 32q-2 0 -7 -5l-13 -11h1l-30 -22q-6 -4 -14.5 -10.5t-12 -9.5t-9.5 -7t-8.5 -5.5t-7 -4t-7 -3.5t-6 -1.5
t-6.5 -0.5q-19 0 -34 19.5t-15 36.5zM6 405q0 17 5 27.5t14.5 14.5t16 5t17.5 1h109q11 0 17.5 -1t16 -5t14 -14.5t4.5 -27.5q0 -16 -5 -26t-14.5 -13.5t-16 -4.5t-16.5 -1l78 -211l2 -9q15 42 41.5 124.5t31.5 95.5h-5q-11 0 -17.5 1t-16 5t-14.5 14t-5 26.5t5 26.5
t14.5 14t16 5t17.5 1h108q12 0 18.5 -1t16 -5t14 -14.5t4.5 -27.5q0 -16 -5 -26t-14.5 -13.5t-16 -4.5t-17.5 -1h-16q-123 -378 -140 -432q-4 -12 -7.5 -21.5t-18 -35.5t-30 -44t-42 -33.5t-55.5 -15.5q-40 0 -66.5 29t-26.5 67q0 27 15.5 43.5t41.5 16.5q24 0 39.5 -16.5
t15.5 -42.5q25 13 40 43q4 8 10 25t11 32.5t9 28t4 13.5l-3 6l-128 337h-18q-10 0 -16.5 1t-16.5 4.5t-15 13.5t-5 26z" />
    <glyph glyph-name="Ydieresis" unicode="&#x178;" 
d="M84 763.5q0 27.5 18 47t44 19.5q25 0 43.5 -18.5t18.5 -47.5q0 -26 -18 -45.5t-44 -19.5q-25 0 -43.5 18.5t-18.5 46zM273 763q0 27 18 47t44 20q25 0 43.5 -18.5t18.5 -47.5q0 -28 -17.5 -46.5t-44.5 -18.5t-44.5 19.5t-17.5 44.5zM-3 594.5q0 16.5 5 27t15 14.5t16.5 5
t17.5 1h99q11 0 17.5 -1t16.5 -5t15 -14.5t5 -27.5q0 -42 -35 -46q3 -5 24.5 -51.5t34 -75t16.5 -47.5q8 17 74 174q-17 2 -26 12t-9 34q0 17 5 27.5t15 14.5t16.5 5t17.5 1h99q11 0 17.5 -1t16.5 -5t15 -14.5t5 -27t-5 -27t-15 -14.5t-16.5 -5t-17.5 -1h-11l-132 -291v-162
h7q12 0 18.5 -0.5t16 -4.5t14.5 -14.5t5 -27t-5 -27t-15 -14.5t-16.5 -5t-17.5 -1h-112q-12 0 -18.5 1t-16 5t-14.5 14.5t-5 27t5 27t15 14.5t16.5 4.5t17.5 0.5h7v162l-133 291h-11q-12 0 -18.5 1t-16 5t-14.5 14.5t-5 27z" />
    <glyph glyph-name="Zacute" unicode="&#x179;" 
d="M152 723q0 12 3 20.5t10.5 13.5t12 7t14.5 6l82 29q55 19 62 19q18 0 32.5 -14.5t14.5 -35.5q0 -38 -40 -51q-137 -49 -146 -49q-24 0 -34.5 19.5t-10.5 35.5zM25 50q0 21 12 40l295 457h-198v-36q0 -14 -1 -21.5t-5 -17.5t-15 -14t-29 -4q-17 0 -27.5 4.5t-14.5 14.5
t-5 17.5t-1 20.5v73q0 35 10.5 46.5t44.5 11.5h316q13 0 20 -1t16.5 -5.5t14 -15.5t4.5 -29q0 -21 -12 -41l-295 -456h214v55q0 14 1 21.5t5 17.5t15 14.5t29 4.5q17 0 27.5 -4.5t14.5 -14.5t5 -17.5t1 -21.5v-91q0 -35 -10.5 -46.5t-43.5 -11.5h-333q-13 0 -20 1t-16.5 5
t-14 15t-4.5 29z" />
    <glyph glyph-name="zacute" unicode="&#x17a;" 
d="M116 560q0 13 6 22.5t11 13.5t15 9q6 4 9 4l34 16q12 5 25 11t20.5 9.5t16 7.5t13 6l9 4t7.5 3t5.5 2t4.5 1.5t4 0.5h4q19 0 34.5 -15t15.5 -38q0 -32 -38 -51l-70 -32l-22 -10t-17 -7.5t-12 -5.5t-8.5 -4t-5.5 -2t-5 -1.5t-3.5 -0.5h-4.5q-21 0 -34.5 19.5t-13.5 37.5z
M13 49q0 18 3.5 25.5t21.5 25.5l260 260h-175v-8q0 -14 -1 -21t-5 -17t-14.5 -14.5t-27.5 -4.5t-27.5 4.5t-14.5 14.5t-5 17t-1 21v44q0 34 11 45.5t43 11.5h315q13 0 19.5 -1t16 -5.5t14 -15t4.5 -28t-3.5 -25.5t-21.5 -26l-260 -260h193v20q0 14 1 21.5t5 17t14.5 14
t27.5 4.5t27.5 -4.5t14.5 -14t5 -17t1 -21.5v-55v-13.5t-2 -12.5t-5.5 -12.5t-11 -10t-17.5 -8.5h-352q-13 0 -19.5 1t-16 5t-13.5 15t-4 28z" />
    <glyph glyph-name="Zdotaccent" unicode="&#x17b;" 
d="M181 719.5q0 27.5 19 46t43 18.5q25 0 43.5 -18.5t18.5 -46.5q0 -27 -18.5 -46t-41.5 -19q-27 0 -45.5 19t-18.5 46.5zM25 50q0 21 12 40l295 457h-198v-36q0 -14 -1 -21.5t-5 -17.5t-15 -14t-29 -4q-17 0 -27.5 4.5t-14.5 14.5t-5 17.5t-1 20.5v73q0 35 10.5 46.5
t44.5 11.5h316q13 0 20 -1t16.5 -5.5t14 -15.5t4.5 -29q0 -21 -12 -41l-295 -456h214v55q0 14 1 21.5t5 17.5t15 14.5t29 4.5q17 0 27.5 -4.5t14.5 -14.5t5 -17.5t1 -21.5v-91q0 -35 -10.5 -46.5t-43.5 -11.5h-333q-13 0 -20 1t-16.5 5t-14 15t-4.5 29z" />
    <glyph glyph-name="zdotaccent" unicode="&#x17c;" 
d="M171 575q0 28 19.5 47.5t44.5 19.5t44 -19.5t19 -47.5t-19 -47.5t-43 -19.5q-28 0 -46.5 19.5t-18.5 47.5zM13 49q0 18 3.5 25.5t21.5 25.5l260 260h-175v-8q0 -14 -1 -21t-5 -17t-14.5 -14.5t-27.5 -4.5t-27.5 4.5t-14.5 14.5t-5 17t-1 21v44q0 34 11 45.5t43 11.5h315
q13 0 19.5 -1t16 -5.5t14 -15t4.5 -28t-3.5 -25.5t-21.5 -26l-260 -260h193v20q0 14 1 21.5t5 17t14.5 14t27.5 4.5t27.5 -4.5t14.5 -14t5 -17t1 -21.5v-55v-13.5t-2 -12.5t-5.5 -12.5t-11 -10t-17.5 -8.5h-352q-13 0 -19.5 1t-16 5t-13.5 15t-4 28z" />
    <glyph glyph-name="Zcaron" unicode="&#x17d;" 
d="M94 772q0 17 13 30.5t30 13.5q11 0 21.5 -8t34.5 -31q5 -4 7 -6q8 -8 22 -19.5t23 -19.5q62 58 66 62q25 22 39 22t29 -11.5t15 -38.5q0 -11 -18 -31.5t-98 -98.5q-17 -18 -35 -18t-35 18l-43 42q-53 55 -62 66.5t-9 27.5zM25 50q0 21 12 40l295 457h-198v-36
q0 -14 -1 -21.5t-5 -17.5t-15 -14t-29 -4q-17 0 -27.5 4.5t-14.5 14.5t-5 17.5t-1 20.5v73q0 35 10.5 46.5t44.5 11.5h316q13 0 20 -1t16.5 -5.5t14 -15.5t4.5 -29q0 -21 -12 -41l-295 -456h214v55q0 14 1 21.5t5 17.5t15 14.5t29 4.5q17 0 27.5 -4.5t14.5 -14.5t5 -17.5
t1 -21.5v-91q0 -35 -10.5 -46.5t-43.5 -11.5h-333q-13 0 -20 1t-16.5 5t-14 15t-4.5 29z" />
    <glyph glyph-name="zcaron" unicode="&#x17e;" 
d="M85 624q0 18 13 32t30 14q23 0 109 -77l4 3.5t12.5 10.5t15.5 13q58 49 77 50q19 0 32 -14.5t13 -31.5q0 -16 -14 -32t-62 -56l-44 -39q-21 -16 -36 -16q-10 0 -23.5 10.5t-79.5 67.5q-1 0 -9.5 8t-12.5 12q-25 19 -25 45zM13 49q0 18 3.5 25.5t21.5 25.5l260 260h-175
v-8q0 -14 -1 -21t-5 -17t-14.5 -14.5t-27.5 -4.5t-27.5 4.5t-14.5 14.5t-5 17t-1 21v44q0 34 11 45.5t43 11.5h315q13 0 19.5 -1t16 -5.5t14 -15t4.5 -28t-3.5 -25.5t-21.5 -26l-260 -260h193v20q0 14 1 21.5t5 17t14.5 14t27.5 4.5t27.5 -4.5t14.5 -14t5 -17t1 -21.5v-55
v-13.5t-2 -12.5t-5.5 -12.5t-11 -10t-17.5 -8.5h-352q-13 0 -19.5 1t-16 5t-13.5 15t-4 28z" />
    <glyph glyph-name="longs" unicode="&#x17f;" 
d="M20 46q0 16 5 26.5t15 14.5t17 4.5t17 0.5h78v268h-78q-10 0 -16.5 1t-16.5 4.5t-15 13.5t-5 26q0 17 5 27.5t15 14.5t16.5 5t17.5 1h77v34q0 68 47.5 107t113.5 39q10 0 18.5 -0.5t26 -4.5t29.5 -11t21.5 -22t9.5 -36q0 -27 -17.5 -43.5t-38.5 -16.5q-20 0 -33 13
t-19 29q-63 -3 -63 -59v-390h78q11 0 17.5 -0.5t16.5 -4.5t15 -14.5t5 -26.5t-5 -26.5t-15 -14t-16.5 -4.5t-17.5 -1h-251q-10 0 -17 1t-17 4.5t-15 14t-5 26.5z" />
    <glyph glyph-name="uni0180" unicode="&#x180;" 
d="M-17 494q0 41 34 45q-25 10 -25 43q0 46 49 46h77q49 0 49 -50v-38h74q22 0 34.5 -14.5t12.5 -33.5q0 -23 -14 -34q78 -3 134.5 -69.5t56.5 -161.5q0 -101 -62.5 -166.5t-143.5 -65.5q-56 0 -96 32q-9 -27 -43 -27q-15 0 -25 4.5t-14.5 8.5t-7 14.5t-2.5 13v14.5v391h-42
q-25 2 -35.5 16t-10.5 32zM167 426q23 14 40 20h-40v-20zM167 196q0 -17 8 -41t29.5 -46t50.5 -22q45 0 79.5 40t34.5 100q0 57 -31 97t-75 40q-40 0 -68 -28t-28 -59v-81z" />
    <glyph glyph-name="uni0186" unicode="&#x186;" 
d="M17 44v141q0 16 1 22q0 1 1 3.5t4 8.5t8 11t14 9t20 4q30 0 39 -11.5t13 -37.5l7 -29q14 -39 41.5 -60.5t54.5 -21.5h4q1 0 2.5 0.5t2.5 0.5q50 0 96 67t46 170q0 60 -18 113.5t-53.5 87.5t-80.5 34t-74 -32t-29 -65q0 -54 -48 -54q-26 0 -38.5 11.5t-12.5 41.5
q0 74 61.5 133.5t146.5 59.5q102 0 173.5 -96t71.5 -236q0 -89 -32 -164.5t-89 -121t-125 -45.5q-58 0 -114 39q-20 -39 -48 -39q-45 0 -45 56z" />
    <glyph glyph-name="uni0188" unicode="&#x188;" 
d="M42 227q0 29 6.5 59.5t23 62t40 56t60.5 40t83 15.5q13 0 43 -2q5 64 42 105t95 41q57 0 79.5 -23t22.5 -53q0 -26 -16.5 -43t-39.5 -17q-39 0 -55 41q-31 -11 -31 -67v-64q0 -21 -6.5 -35t-17 -20.5t-18.5 -8.5t-16 -2q-22 0 -38.5 15t-17.5 38q-10 1 -28 1
q-32 0 -56 -15t-36 -38t-17.5 -45t-5.5 -41q0 -62 33.5 -101t77.5 -39q20 0 35 11t20 21t7 20v1q15 26 48 26q20 0 32.5 -12t12.5 -32q0 -15 -9.5 -34.5t-27.5 -41.5t-50.5 -36.5t-72.5 -14.5q-83 0 -142.5 66.5t-59.5 165.5z" />
    <glyph glyph-name="uni018E" unicode="&#x18e;" 
d="M42 0q-22 0 -32 14.5t-10 33.5v6l-1 20v69q0 11 0.5 17t3 16t7 15t14 9.5t23.5 4.5q15 0 25.5 -5t15 -9.5t7 -14.5t2.5 -12.5v-10.5v-57h221v189h-92v-4q0 -10 -1 -16.5t-5 -16.5t-14.5 -15t-27.5 -5q-11 0 -18 1.5t-15.5 6t-12.5 16t-4 28.5v102q0 11 1 18t5.5 16.5
t15.5 14.5t28 5q14 0 24 -4.5t14.5 -9.5t7 -14t2.5 -13v-13v-3h92v167h-199v-44q0 -49 -51 -49q-23 0 -35.5 13t-11.5 37v101q7 38 51 38h361q51 0 51 -48t-50 -48h-17v-450h14q26 0 39.5 -14.5t13.5 -34.5q0 -18 -11 -32.5t-40 -14.5h-391z" />
    <glyph glyph-name="uni018F" unicode="&#x18f;" 
d="M-11 301q0 33 14.5 43t38.5 10h343q-9 93 -57.5 147.5t-106.5 54.5q-39 0 -70 -27.5t-40 -69.5q-5 -27 -15 -38t-37 -11q-17 0 -28 5t-15 15.5t-5 17.5t-1 19v130q0 55 46 55q18 0 28 -9t19 -28q53 37 118 37q108 0 186.5 -94.5t78.5 -237.5q0 -138 -75 -234t-180 -96
q-33 0 -64.5 8.5t-64.5 31t-57.5 56.5t-40 89.5t-15.5 125.5zM382 258h-292q5 -52 19.5 -88t36 -53.5t42 -24.5t43.5 -7q56 0 97 51t54 122zM73 258l16 18q0 -2 0.5 -8t0.5 -10h-17z" />
    <glyph glyph-name="uni0190" unicode="&#x190;" 
d="M26 184q0 100 86 153q-64 57 -64 131q0 77 63.5 130.5t158.5 53.5q102 0 170 -48t68 -125q0 -34 -18.5 -49.5t-39.5 -15.5q-25 0 -41.5 18t-16.5 43q0 18 7 31q-35 50 -128 50q-55 0 -89.5 -26.5t-34.5 -62.5q0 -12 5 -26t15.5 -28t31.5 -23.5t49 -9.5h47q10 0 16.5 -1
t16 -4.5t14.5 -14.5t5 -27t-4.5 -26t-13.5 -14.5t-16.5 -5.5t-18.5 -1h-38q-66 0 -98.5 -32.5t-32.5 -69.5q0 -38 33.5 -69t90.5 -31t106.5 25.5t58.5 70.5q1 2 1 3q1 12 2 17.5t5.5 15.5t14.5 14.5t26 4.5q50 0 50 -49q0 -87 -76.5 -141.5t-187.5 -54.5q-99 0 -161 59
t-62 135z" />
    <glyph glyph-name="florin" unicode="&#x192;" 
d="M-13 -134q1 31 18.5 50.5t43.5 19.5q22 0 37.5 -15.5t15.5 -39.5q0 -3 1.5 -4.5t-1.5 -4.5h2q15 0 27.5 21.5t22.5 62.5t16.5 75t14.5 83t23 139t18 106h-42q-23 0 -34.5 12.5t-11.5 31.5q0 49 48 49h55q4 28 7 45t8.5 39t11.5 34t16.5 25.5t23.5 20.5t31.5 11.5
t42.5 4.5q66 0 94.5 -25t28.5 -61q0 -32 -18 -51t-43 -19q-23 0 -38.5 15t-15.5 39q0 4 -1 4.5t1 4.5q-2 0 -5 0.5t-4 0.5q-19 -1 -26.5 -16.5t-15.5 -71.5h59q24 0 36 -12.5t12 -32.5q0 -17 -11.5 -32.5t-38.5 -15.5h-72q-8 -50 -18 -108t-21.5 -124.5t-18.5 -107.5
q-16 -83 -27 -117t-28 -57q-43 -67 -109 -67q-50 0 -82 24t-33 64z" />
    <glyph glyph-name="uni0195" unicode="&#x195;" 
d="M-19 46q0 47 50 47h7v443h-6q-51 0 -51 46t50 46h57q16 0 26 -5t14.5 -14t5.5 -17t1 -20v-136q34 22 68 22q51 0 82 -41q26 -38 26 -119v-14q0 -43 0.5 -63.5t7.5 -60t21 -57.5q11 -15 19 -15q20 0 20 160v6q0 103 -8 131q-2 11 -2 21q0 22 14 36.5t33 14.5
q20 0 32 -11.5t20 -53t8 -119.5v-34q0 -26 -0.5 -42t-2.5 -45t-6 -47.5t-12.5 -41.5t-20.5 -36.5t-30.5 -22.5t-42.5 -9q-11 0 -22.5 2t-30 11t-33.5 24t-29.5 44.5t-22.5 69.5q-9 42 -9 131v24q0 43 -9 60q-4 3 -5 3q-22 0 -43.5 -29t-21.5 -86v-156h6q50 0 50 -47
q0 -46 -49 -46h-111q-50 0 -50 46z" />
    <glyph glyph-name="uni0199" unicode="&#x199;" 
d="M395 359q-4 0 -7 -0.5t-5.5 -2t-3.5 -2t-3 -3t-3 -3.5v1l-61 -60l-13.5 -13.5l-7 -7l-3 -3t-3.5 -4.5l13 -16q10 -14 39 -54.5t47 -65t26 -32.5h26q28 0 38.5 -14.5t10.5 -32.5t-11.5 -32t-37.5 -14h-120q-20 0 -31.5 9.5t-14 18.5t-2.5 18q0 40 36 46l-81 110l-51 -51
q-4 -6 -4 -9v-49h31q52 0 52 -47q0 -19 -11.5 -32.5t-38.5 -13.5h-150q-27 0 -38.5 13.5t-11.5 32.5q0 47 50 47h33v352q0 49 17 86.5t45 59t59.5 32t64.5 10.5q44 0 74.5 -9t44.5 -24.5t19.5 -30t5.5 -31.5q0 -27 -16.5 -44t-39.5 -17q-24 0 -41 17t-17 43v1h-1
q-24 2 -34 2q-39 0 -68 -23.5t-29 -69.5v-178l92 90q-45 0 -45 46.5t48 46.5h150q10 0 17 -1.5t16 -5.5t13.5 -14t4.5 -26q0 -19 -11.5 -32.5t-38.5 -13.5h-19zM300 538h-1l1 -1v1z" />
    <glyph glyph-name="uni019A" unicode="&#x19a;" 
d="M54 360q0 46 50 46h89v130h-64q-48 0 -48 46t49 46h110q15 0 25 -4.5t14.5 -9t7 -15t2.5 -13v-13.5v-167h91q48 0 48 -47q0 -9 -3 -18t-14.5 -18.5t-30.5 -9.5h-91v-220h64q48 0 48 -47q0 -18 -10.5 -31.5t-36.5 -14.5h-223q-50 0 -50 46q0 47 48 47h64v220h-91
q-48 0 -48 47z" />
    <glyph glyph-name="uni019b" unicode="&#x19b;" 
d="M-17 581q0 8 3 17t15.5 19.5t32.5 10.5q43 0 69.5 -3.5t41.5 -13.5t21 -18t15 -27l25.5 -51t19.5 -40l58 32q37 21 47.5 26t20.5 5q19 0 32 -17.5t13 -35.5q0 -20 -11.5 -29.5t-76.5 -45.5l-40 -22l145 -288q9 -18 21 -26q15 -16 15 -35q0 -16 -12 -30t-35 -14
q-45 0 -69 48q-83 166 -94 189q-13 -22 -38 -63t-45 -75t-37 -64q-6 -11 -10 -16.5t-14 -12t-23 -6.5q-21 0 -34.5 15t-13.5 35q0 16 16 41q25 42 74 124t73 124q-2 2 -4 6q-7 -3 -20.5 -11t-20.5 -12q-48 -27 -61 -33t-24 -6q-19 0 -32 17.5t-13 35.5q0 21 13 31.5t76 43.5
q8 5 18.5 10.5t20.5 10.5q-4 6 -7.5 13.5t-8 16.5l-6.5 13q-27 56 -30 58q-7 5 -33 5q-17 0 -27 1.5t-22 5.5t-18 14.5t-6 26.5z" />
    <glyph glyph-name="uni019E" unicode="&#x19e;" 
d="M-5 46q0 47 50 47h33v266h-35q-48 0 -48 46.5t50 46.5h83q35 0 44 -32q52 38 116 38q43 0 72.5 -14t44 -39.5t20 -52.5t5.5 -61v-414h32q51 0 51 -46q0 -47 -49 -47h-163q-49 0 -49 47q0 46 50 46h32v414q1 38 -9.5 55.5t-42.5 17.5q-16 0 -33 -5.5t-34.5 -18
t-28.5 -37.5t-11 -58v-152h32q50 0 50 -47q0 -18 -10 -29.5t-19.5 -14t-19.5 -2.5h-162q-51 0 -51 46z" />
    <glyph glyph-name="Ohorn" unicode="&#x1a0;" 
d="M33 317q0 61 1 101t5 77.5t9.5 59.5t17.5 41.5t25.5 29t36 16.5t47 8.5t61.5 1.5h11q79 0 115 -13q-8 14 -8 35q0 27 16.5 47t44.5 20q33 0 49.5 -24.5t16.5 -60.5q0 -64 -43 -100q17 -54 17 -216v-44q0 -72 -2.5 -117.5t-11.5 -82t-21.5 -55.5t-37 -32t-53.5 -16t-76 -3
h-15q-37 0 -63 1.5t-48.5 9t-36 16.5t-25 28.5t-17 41t-9.5 58.5t-5 75t-1 97zM131 331q0 -60 1 -95.5t5.5 -66.5t11 -45t20.5 -24.5t30.5 -13t44.5 -2.5q20 0 35 1.5t26.5 7.5t19.5 12t13.5 20.5t8.5 26.5t5 36t2.5 44.5t1.5 56.5v60q0 50 -1.5 81t-6.5 56.5t-11.5 38
t-21 20.5t-31 10.5t-43.5 2.5q-52 0 -72.5 -13t-27.5 -38q-10 -43 -10 -148v-28z" />
    <glyph glyph-name="ohorn" unicode="&#x1a1;" 
d="M34 226q0 96 60 165t147 69q48 0 89 -23l4 1q-16 17 -16 46q0 26 17 45t43 20q32 0 48 -23.5t16 -58.5q0 -26 -11 -52.5t-28 -43.5q44 -65 44 -144q0 -99 -61.5 -165.5t-145.5 -66.5t-145 66t-61 165zM131 233q0 -60 32.5 -103t77.5 -43q44 0 76.5 42.5t32.5 103.5
q0 58 -32.5 95.5t-76.5 37.5q-46 0 -78 -38.5t-32 -94.5z" />
    <glyph glyph-name="uni01A5" unicode="&#x1a5;" 
d="M303 633q159 0 159 -95q0 -30 -17.5 -45.5t-38.5 -15.5q-24 0 -41 16.5t-17 43.5q-28 3 -65 3q-64 0 -98 -23.5t-37 -53.5v-40q52 35 109 35q84 0 144.5 -67t60.5 -164q0 -100 -64.5 -166t-150.5 -66q-56 0 -99 33v-151h33q50 0 50 -46q0 -10 -3 -19.5t-15 -18.5t-32 -9
h-164q-49 0 -49 47q0 46 50 46h34v569q-1 42 14 75t39 53.5t56 34t63.5 19t64.5 5.5h14zM148 202q0 -37 26 -76t70 -39q49 0 85.5 40.5t36.5 99.5q0 54 -32 95.5t-82 41.5q-42 0 -73 -28t-31 -60v-74z" />
    <glyph glyph-name="uni01A7" unicode="&#x1a7;" 
d="M29 185q0 61 40.5 116t115.5 71l84 21l19 4l17 5q29 10 44 31t15 43q0 28 -25.5 54t-73.5 26q-42 0 -73.5 -24.5t-38.5 -76.5q-1 -13 -3 -19.5t-7 -15t-15 -12t-27 -3.5q-47 0 -47 53v139v3q-1 52 45 52q29 0 43 -37q50 37 126 37q84 0 137 -55t53 -123
q0 -53 -29.5 -98.5t-81.5 -67.5q-13 -6 -105 -30q-58 -14 -65 -18v1q-28 -13 -40.5 -37t-12.5 -40v-9q0 -36 27 -63t66 -27h15q18 0 45.5 6t45.5 20q15 12 24.5 29.5t11 27t1.5 15.5q0 17 5 29t14 16.5t16 6t16 1.5q14 0 23.5 -4.5t14 -9.5t7 -15t2.5 -13v-11v-139
q0 -54 -45 -54q-32 0 -45 36q-57 -36 -153 -36q-30 0 -61.5 12t-60 34.5t-46.5 61.5t-18 87z" />
    <glyph glyph-name="uni01A8" unicode="&#x1a8;" 
d="M42 139q0 113 165 143l15 3q36 6 52.5 9.5t36 8.5t26.5 11t7 15q0 17 -28 27t-70 10q-19 0 -26.5 -0.5t-21.5 -3t-21 -8.5t-10 -16v-10q-2 -12 -3 -17t-6 -13.5t-15 -12.5t-26 -4q-18 0 -30 9t-14 18l-3 9q-1 6 -1 20v60l1 13q0 50 44 50q22 0 33 -15q36 14 96 14
q55 0 94.5 -13t59 -33.5t28 -41.5t8.5 -43q0 -36 -24.5 -67t-71.5 -47q-30 -10 -86 -20q-21 -4 -29.5 -5.5t-26.5 -5.5t-26.5 -8t-19 -9.5t-14.5 -13t-4 -16.5q0 -22 29 -35.5t77 -13.5q49 3 67 22q20 18 30 47q4 13 6.5 18.5t8 13t14.5 10.5t22 3q20 0 31.5 -10.5t14 -19.5
t2.5 -19v-106q0 -51 -45 -51q-25 0 -40 28q-46 -29 -113 -29q-55 0 -95.5 14t-60 37t-28.5 46t-9 48z" />
    <glyph glyph-name="uni01AA" unicode="&#x1aa;" 
d="M57 517.5q0 50.5 33.5 83t77.5 32.5q71 0 103 -86l-1 1q16 -33 16 -118v-446q0 -112 38 -112l2.5 0.5t4.5 0.5q1 25 17 40.5t40 15.5q22 0 39.5 -15.5t17.5 -44.5q0 -40 -33 -65.5t-86 -25.5q-23 0 -45 9.5t-43.5 30.5t-35 63t-13.5 99v424q-12 -2 -21 -2
q-44 0 -77.5 32.5t-33.5 83zM153 518q0 -8 4 -15t11 -7q5 0 9.5 5t4.5 12q0 10 -4 18.5t-10 8.5t-10.5 -6.5t-4.5 -15.5z" />
    <glyph glyph-name="uni01AB" unicode="&#x1ab;" 
d="M2 405.5q0 46.5 48 46.5h61v70q0 10 1 16.5t5.5 15.5t15.5 13.5t28 4.5q46 0 46 -51v-69h126q28 0 38 -14.5t10 -32.5q0 -46 -48 -46h-126v-214q0 -58 47 -58q25 0 37.5 17t13.5 34v16q4 19 17 29t30 10q49 0 49 -50v-164q0 -99 -40 -150t-99 -51q-56 0 -89 25t-33 66
q0 27 17 43.5t40 16.5q22 0 38.5 -15.5t17.5 -39.5l12 -2q39 3 39 107v25q-29 -9 -54 -9q-60 0 -97.5 35t-41.5 96v233h-61q-48 0 -48 46.5z" />
    <glyph glyph-name="uni01AD" unicode="&#x1ad;" 
d="M3 405.5q0 46.5 48 46.5h60q6 78 54.5 129.5t121.5 51.5q72 0 109.5 -18t37.5 -67q0 -25 -16.5 -43t-40.5 -18q-23 0 -39 15t-18 37q-13 1 -37 1q-36 0 -54.5 -26.5t-20.5 -61.5h126q27 0 37.5 -15t10.5 -32q0 -46 -48 -46h-126v-218q0 -54 47 -54q21 0 34.5 15t15.5 38
q0 53 48 53q49 0 49 -53q0 -60 -43.5 -102.5t-108.5 -42.5q-27 0 -49.5 6.5t-44 22.5t-33.5 47t-12 74v214h-60q-48 0 -48 46.5z" />
    <glyph glyph-name="Uhorn" unicode="&#x1af;" 
d="M-18 594q0 48 51 48h131q51 0 51 -48q0 -19 -11 -31t-20.5 -14.5t-18.5 -2.5h-17v-315q0 -73 30.5 -109.5t64.5 -36.5t64.5 35.5t30.5 106.5v319h-14q-52 0 -52 48q0 19 12 33.5t34 14.5h71q-7 14 -7 32q0 27 17 46.5t46 19.5t46.5 -22.5t17.5 -60.5q0 -39 -20.5 -68
t-51.5 -41v-311q0 -84 -28 -137q-13 -28 -34 -51.5t-56.5 -41t-75.5 -17.5q-79 0 -134 63t-60 157v336h-18q-6 0 -12.5 1.5t-16 5.5t-15 14.5t-5.5 26.5z" />
    <glyph glyph-name="uhorn" unicode="&#x1b0;" 
d="M-8 405q0 47 51 47h71q1 0 3 0.5l2 0.5q15 0 25 -4.5t14.5 -9.5t7 -15t2.5 -14v-14v-263q0 -11 1 -16.5t5.5 -13.5t17 -12t33.5 -4q38 0 61 19t27 44q1 8 1 24v185h-25q-11 0 -18.5 1t-16.5 5.5t-14 14.5t-5 25q0 17 10.5 32t38.5 15h86q-8 11 -8 32q0 26 17.5 45.5
t44.5 19.5q28 0 45 -22t17 -59q0 -20 -8 -38.5t-19 -31t-22 -21.5t-19 -14l-8 -4v-266h28q51 0 51 -47q0 -46 -50 -46h-76h-5h-8.5t-8 1t-8.5 3t-7 6.5t-6 10.5q-47 -26 -100 -26q-41 0 -70.5 10.5t-44 24.5t-23 35t-10 34.5t-1.5 30.5v229h-27q-10 0 -16.5 1t-16 4.5
t-14.5 14t-5 26.5z" />
    <glyph glyph-name="uni01B7" unicode="&#x1b7;" 
d="M16 145q0 35 19 50t40 15q22 0 40 -17.5t18 -43.5q0 -14 -11 -30q22 -35 111 -35q64 0 101.5 34t37.5 75q0 37 -38 68.5t-100 31.5q-20 0 -28 -2q-10 -5 -25 -5q-25 0 -36.5 14t-11.5 33q0 16 13 32.5t95 101.5l79 84h-205v-72q0 -12 -1 -18.5t-5.5 -16.5t-16 -15
t-29.5 -5q-21 0 -34.5 13t-12.5 42v109q-1 18 3 29t12.5 16t16.5 7t19 2h354q20 0 33.5 -12t13.5 -39q0 -15 -4 -23.5t-18 -23.5l-146 -154q75 -18 123 -72t48 -125q0 -37 -16 -73t-45.5 -65t-76 -47t-101.5 -18q-52 0 -91.5 10t-62.5 26t-37.5 37.5t-19.5 41t-5 40.5z" />
    <glyph glyph-name="uni01B9" unicode="&#x1b9;" 
d="M28 -1q0 73 49.5 130.5t124.5 80.5l-148 147q-15 15 -19.5 23.5t-4.5 23.5q0 19 11 33.5t37 14.5h328q10 0 16 -1.5t14.5 -6t13 -15.5t4.5 -29v-31q0 -12 -1 -19.5t-5.5 -17.5t-14.5 -15t-26 -5q-10 0 -17.5 1.5t-15.5 6.5t-12 16t-4 28h-189q26 -26 80 -78.5t80 -78.5
q17 -18 17 -37q0 -15 -5.5 -25t-16 -14t-21 -5t-26.5 -2.5t-26 -3.5q-50 -12 -88.5 -45t-38.5 -78q0 -49 36.5 -87t91.5 -38q70 0 94 39q-6 11 -6 29q0 26 17.5 43.5t39.5 17.5t39.5 -15.5t17.5 -47.5q0 -70 -59.5 -114t-143.5 -44q-96 0 -159.5 65t-63.5 154z" />
    <glyph glyph-name="uni01BA" unicode="&#x1ba;" 
d="M28 369v30q0 27 9.5 40t40.5 13h328q19 0 32 -11.5t13 -37.5v-3q0 -18 -13.5 -32.5t-92.5 -76.5l-41 -32q150 -15 150 -126q0 -25 -9.5 -46.5t-22 -36t-36.5 -30t-39.5 -23t-44.5 -20.5q-26 -12 -36.5 -17.5t-27 -15.5t-23 -19t-6.5 -18q0 -15 21.5 -25t52.5 -10
q22 0 40.5 7.5t26.5 13.5t21 18q1 1 4 3.5t4 3.5l3.5 3.5t3.5 3t3.5 2t4 2.5t4 1.5l5 1t5.5 0.5q16 0 33 -16.5t17 -36.5q0 -29 -55.5 -64t-119.5 -35q-30 0 -58.5 7t-54 22t-41 41.5t-15.5 61.5q0 25 10 46.5t22 35.5t37 30t39.5 23t44.5 21q31 14 47 22.5t30.5 21
t14.5 24.5q0 18 -38.5 24t-110.5 7h-23q-15 0 -23 3q-29 12 -29 41q0 17 14.5 32t103.5 86q9 7 17 14t26 21h-172q0 -30 -12 -41t-38 -11q-14 0 -23.5 5t-13.5 10.5t-6.5 15.5t-2.5 14v12z" />
    <glyph glyph-name="uni01BF" unicode="&#x1bf;" 
d="M-19 405.5q0 46.5 50 46.5h100q36 0 45 -25q59 19 76.5 24t35.5 5q72 0 121 -56t49 -133q0 -71 -37.5 -132t-96.5 -89q-16 -6 -144 -40v-208q0 -10 -1.5 -17t-5.5 -16t-15 -14t-27 -5h-71q-52 0 -52 47q0 46 49 46h26v520h-51q-51 0 -51 46.5zM180 330v-228q13 4 42 11.5
t47.5 12.5t21.5 6q32 15 51 52t19 83q0 40 -22 67.5t-52 27.5q-8 0 -57 -16q-34 -11 -50 -16zM180 81l-20 17l20 4v-21z" />
    <glyph glyph-name="uni01C0" unicode="&#x1c0;" 
d="M194 -167v756q0 53 49 53q14 0 24.5 -4.5t15 -10t7.5 -14.5t3 -13.5v-11.5v-756q0 -32 -13 -42t-37 -10q-49 1 -49 53z" />
    <glyph glyph-name="uni01C1" unicode="&#x1c1;" 
d="M293 589q0 53 48 53q18 0 29 -5.5t15.5 -15t5.5 -16.5t1 -17v-756q0 -32 -13.5 -42t-36.5 -10q-14 0 -24 4t-14.5 9.5t-7 14.5t-2.5 13v12v746l-0.5 2t-0.5 3v5zM95 -167v756q0 53 49 53q17 0 28.5 -6t15 -16.5t4.5 -16.5t1 -15v-756q0 -32 -12.5 -42t-36.5 -10
q-49 1 -49 53z" />
    <glyph glyph-name="uni01C2" unicode="&#x1c2;" 
d="M28 130q0 50 50 50h116v55h-116q-50 0 -50 49q0 19 4 30.5t13 16.5t16 6t20 1h113v249q0 10 1.5 18t5.5 17t14 14.5t26 5.5h3q30 0 39.5 -15t9.5 -38v-251h116q25 0 37 -11.5t12 -42.5q0 -21 -10 -32.5t-19.5 -14t-19.5 -2.5h-116v-55h114q51 0 51 -51q0 -34 -13.5 -43.5
t-37.5 -9.5h-114v-243q0 -11 -1 -16.5t-5 -16t-15 -15.5t-29 -5q-17 0 -28.5 5.5t-15 16t-4.5 16.5t-1 15v243h-115q-12 0 -19.5 1t-15.5 6t-12 17t-4 30z" />
    <glyph glyph-name="uni01C3" unicode="&#x1c3;" 
d="M180 583q0 35 19.5 52t43.5 17t44 -17.5t20 -52.5l-9 -351q-1 -29 -14 -39t-37 -10h-6q-16 0 -26 4t-15.5 8t-8 16t-3 19t-0.5 25zM180 66q0 29 19 48t44 19q27 0 45.5 -20.5t18.5 -46.5t-18.5 -46t-45.5 -20t-45 20t-18 46z" />
    <glyph glyph-name="uni01C4" unicode="&#x1c4;" 
d="M286 789q0 18 8.5 31.5t20.5 13.5q11 0 17.5 -9t24.5 -42l13 -25l27 49q1 2 6 11t10 12.5t12 3.5q12 0 21 -14t9 -32q0 -11 -6 -30v-1l-11 -22q-38 -76 -47 -89.5t-21 -13.5q-11 0 -17 7.5t-27 50.5l-31 64v-1q-9 19 -9 36zM-13 47q0 46 30 49v450q-30 2 -30 48
q0 18 8 33t27 15h99q35 0 62.5 -46t42 -119.5t14.5 -160.5q0 -85 -15 -157.5t-42.5 -115.5t-60.5 -43h-102q-18 0 -25.5 14.5t-7.5 32.5zM83 96h28q32 0 48.5 68t16.5 151q0 95 -18 163t-45 68h-30v-450zM250 49q0 20 5 36l150 461h-84v-42q0 -51 -33 -51q-32 0 -32 52v85
q0 31 9 41.5t24 10.5h163q16 0 25 -10.5t9 -40.5q0 -12 -8 -38l-1 -4l-146 -453h91v60q0 31 8.5 41.5t24.5 10.5q7 0 11.5 -1t10 -5.5t8.5 -16t3 -29.5v-105q0 -18 -3 -29t-9 -15.5t-10.5 -5.5t-11.5 -1h-170q-6 0 -10 1t-10.5 5t-10 15t-3.5 28z" />
    <glyph glyph-name="uni01C5" unicode="&#x1c5;" 
d="M279 610q0 18 8 31.5t20 13.5q6 0 12 -4t13 -14t11 -16.5l12 -19.5l6 -12q1 2 4.5 7.5t4.5 7.5q29 51 45 51q11 0 20 -15t9 -30t-4.5 -25.5t-28.5 -51.5l-24 -42q-13 -20 -26 -20q-6 0 -11 4.5t-20 27.5t-41 70q-10 15 -10 37zM-10 46q0 44 29 47v441q-29 2 -29 47
q0 17 7.5 32t26.5 15h97q34 0 61 -44.5t41.5 -117t14.5 -156.5t-15 -154.5t-41.5 -113t-59.5 -42.5h-100q-17 0 -24.5 14t-7.5 32zM84 93h27q31 0 47.5 67.5t16.5 148.5q0 93 -17.5 159t-44.5 66h-29v-441zM240 47q0 24 9 43l135 269h-72v-8v-4q0 -11 -0.5 -18t-3 -16.5
t-10 -14.5t-18.5 -5q-33 0 -33 57v46q0 56 34 56h163q31 0 31 -50q0 -24 -9 -41q-22 -44 -67 -132t-68 -136h81v26q0 50 33 50q32 0 32 -49v-63q0 -57 -33 -57h-173q-31 3 -31 47z" />
    <glyph glyph-name="uni01C6" unicode="&#x1c6;" 
d="M279 610q0 18 8 31.5t20 13.5q6 0 12 -4t13 -14t11 -16.5l12 -19.5l6 -12q1 2 4.5 7.5t4.5 7.5q29 51 45 51q11 0 20.5 -15t9.5 -30q0 -14 -4.5 -24.5t-29.5 -52.5l-24 -42q-13 -20 -26 -20q-6 0 -11 5t-19.5 27t-41.5 70q-10 15 -10 37zM-1 226q0 96 32 164t78 68
q20 0 38 -14v90h-6q-33 0 -33 46q0 48 34 48h38q32 0 32 -49v-486h6q6 0 11 -1t10.5 -5.5t8.5 -14.5t3 -26q0 -46 -33 -46h-39q-20 0 -27 18q-22 -23 -47 -23q-45 0 -75.5 68t-30.5 163zM62 225q0 -58 13 -98t32 -40q17 0 28.5 38.5t11.5 77.5v76q0 29 -10.5 57t-25.5 28
q-19 0 -34 -39t-15 -100zM240 47q0 24 9 43l135 269h-72v-8v-4q0 -11 -0.5 -18t-3 -16.5t-10 -14.5t-18.5 -5q-33 0 -33 57v46q0 56 35 56h163q30 0 30 -50q0 -28 -9 -41q-12 -24 -60 -119t-74 -149h80v26q0 50 34 50q31 0 31 -49v-63q0 -57 -32 -57h-174q-31 3 -31 47z" />
    <glyph glyph-name="uni01C7" unicode="&#x1c7;" 
d="M-7 47q0 20 7 31.5t13.5 14.5t12.5 3h4v450h-3q-34 0 -34 48q0 20 8 34t25 14h82q32 0 32 -48q0 -21 -5.5 -32t-11.5 -13.5t-16 -2.5h-12v-450h82v57q0 17 3 28.5t9 16t10.5 6t11.5 1.5q31 0 31 -54v-97q0 -13 -0.5 -20t-3.5 -16t-10 -13.5t-19 -4.5h-183q-33 0 -33 47z
M261 117q0 27 11 45t26 18q16 0 26.5 -18.5t10.5 -43.5q0 -14 -3 -22q8 -11 24 -11q7 0 13.5 5t12.5 22t6 42v392h-25q-33 0 -33 48q0 21 7.5 33.5t21.5 14.5h96q15 0 23.5 -13t8.5 -35q0 -48 -33 -48h-1v-394q1 -70 -27 -116t-69 -46q-42 0 -69 35t-27 92z" />
    <glyph glyph-name="uni01C8" unicode="&#x1c8;" 
d="M-5 46q0 19 6.5 30.5t13 14t12.5 2.5h4v441h-3q-33 0 -33 47t32 47h80q32 0 32 -47q0 -20 -5.5 -31t-11.5 -13.5t-16 -2.5h-12v-441h81v57q0 31 9.5 41t23.5 10q31 0 31 -53v-96q0 -16 -1 -25t-9 -18t-23 -9h-179q-32 0 -32 46zM246 -131q0 25 9.5 42.5t26.5 17.5
q14 0 25 -16.5t11 -39.5q3 -1 10 -1q14 0 22 19h-1q14 37 14 89v379h-47q-17 0 -25 14.5t-8 31.5t7.5 32t26.5 15h77q10 0 16.5 -4.5t9.5 -8.5t4.5 -14t1.5 -13v-14v-420q0 -87 -26 -143.5t-70 -56.5h-4q-35 0 -57.5 19t-22.5 72zM348 563q0 28 12.5 46.5t27.5 18.5
q17 0 27.5 -20t10.5 -45q0 -26 -11 -45.5t-27 -19.5q-17 0 -28.5 19.5t-11.5 45.5z" />
    <glyph glyph-name="uni01C9" unicode="&#x1c9;" 
d="M7 46q0 47 33 47h47v441h-47q-17 0 -25 14t-8 33q0 47 33 47h78q11 0 18.5 -5.5t10 -15.5t3 -16.5t0.5 -17.5v-480h46q34 0 34 -47q0 -17 -7.5 -31.5t-25.5 -14.5h-157q-33 0 -33 46zM246 -131q0 25 10 42.5t27 17.5q14 0 24.5 -16.5t11.5 -39.5q2 -1 9 -1q14 0 22 19h-1
q14 32 14 89v379h-47q-17 0 -25 14.5t-8 31.5t7.5 32t26.5 15h78q8 0 14 -2.5t9 -8t5 -8.5t2.5 -13t0.5 -10.5v-11.5v-420q0 -87 -26 -143.5t-70 -56.5h-4q-35 0 -57.5 19t-22.5 72zM348 563q0 27 12.5 46t27.5 19q17 0 27.5 -20t10.5 -45q0 -26 -11 -45.5t-27 -19.5
q-17 0 -28.5 19.5t-11.5 45.5z" />
    <glyph glyph-name="uni01CA" unicode="&#x1ca;" 
d="M-8 47q0 45 31 49v450q-31 0 -31 48t33 48h36q5 0 9 -1t7 -2t6 -4l4.5 -4.5t3.5 -6t3 -6t2.5 -7t1.5 -6.5t1.5 -7.5t1.5 -7.5v-2q1 -2 1 -3q11 -63 25 -140t30 -170q0 46 -0.5 136t-0.5 135q-31 3 -31 48q0 48 34 48h54q18 0 25.5 -14.5t7.5 -33.5q0 -46 -30 -48v-488
q0 -17 -1.5 -28t-9.5 -20.5t-22 -9.5h-6q-20 0 -28.5 13.5t-14.5 45.5l-53 309v-272q32 -3 32 -49q0 -47 -34 -47h-55q-32 0 -32 47zM261 117q0 27 11 45t26 18q16 0 26.5 -18.5t10.5 -43.5q0 -14 -3 -22q8 -11 24 -11q7 0 13.5 5t12.5 22t6 42v392h-25q-33 0 -33 48
q0 21 7.5 33.5t21.5 14.5h96q15 0 23.5 -13t8.5 -35q0 -48 -33 -48h-1v-394q1 -70 -27 -116t-69 -46q-42 0 -69 35t-27 92z" />
    <glyph glyph-name="uni01CB" unicode="&#x1cb;" 
d="M-6 46q0 44 30 47v441q-30 0 -30 47t33 47h35q9 0 15.5 -3.5t10 -7t6.5 -12.5t4 -12.5t3 -14.5v-2q1 -3 1 -4q13 -81 26 -151t27 -151q0 44 -0.5 132t-0.5 132q-30 3 -30 47q0 47 33 47h53q32 0 32 -47q0 -45 -29 -47v-477q0 -17 -1.5 -27.5t-9.5 -20t-22 -9.5h-5
q-20 0 -28 13t-14 45l-52 301v-266q31 -2 31 -47q0 -46 -33 -46h-53q-32 0 -32 46zM246 -131q0 25 9.5 42.5t26.5 17.5q14 0 25 -16.5t11 -39.5q3 -1 10 -1q14 0 22 19h-1q14 37 14 89v379h-47q-17 0 -25 14.5t-8 31.5t7.5 32t26.5 15h77q10 0 16.5 -4.5t9.5 -8.5t4.5 -14
t1.5 -13v-14v-420q0 -87 -26 -143.5t-70 -56.5h-4q-35 0 -57.5 19t-22.5 72zM348 563q0 28 12.5 46.5t27.5 18.5q17 0 27.5 -20t10.5 -45q0 -26 -11 -45.5t-27 -19.5q-17 0 -28.5 19.5t-11.5 45.5z" />
    <glyph glyph-name="uni01CC" unicode="&#x1cc;" 
d="M-13 46q0 47 32 47h6v266h-6q-6 0 -10.5 1t-10 5.5t-8.5 14.5t-3 25q0 47 31 47h38q22 0 29 -18q23 24 50 24q76 0 76 -162v-203h6q33 0 33 -47q0 -18 -8 -32t-25 -14h-75q-14 0 -23 9q-11 -9 -22 -9h-78q-32 0 -32 46zM96 93q14 0 23 -10q8 10 23 10h5v201
q0 35 -2.5 52.5t-12.5 17.5q-9 0 -18 -9t-17 -38t-8 -72v-152h7zM246 -131q0 25 9.5 42.5t26.5 17.5q14 0 24.5 -16.5t11.5 -39.5q3 -1 10 -1t11.5 3.5t10.5 15.5h-1q14 37 14 89v379h-47q-17 0 -25 14.5t-8 31.5t7.5 32t25.5 15h78q10 0 16.5 -4.5t9.5 -8.5t4.5 -14
t1.5 -13v-14v-420q0 -87 -26 -143.5t-71 -56.5h-3q-35 0 -57.5 19t-22.5 72zM348 563q0 28 12.5 46.5t27.5 18.5q17 0 27.5 -20t10.5 -45q0 -26 -11 -45.5t-27 -19.5q-17 0 -28.5 19.5t-11.5 45.5z" />
    <glyph glyph-name="uni01CD" unicode="&#x1cd;" 
d="M92 772q0 17 13 30.5t30 13.5q11 0 21.5 -8t34.5 -31q5 -4 7 -6q8 -8 22 -19.5t23 -19.5q62 58 66 62q25 22 39 22t29 -11.5t15 -38.5q0 -11 -18 -31.5t-98 -98.5q-17 -18 -35 -18t-35 18l-43 42q-53 55 -62 66.5t-9 27.5zM5 47q0 30 23 43q11 4 36 4l112 509
q4 18 9.5 28.5t15.5 15t17.5 5.5t24.5 1q18 0 26 -1t17.5 -5.5t15 -15.5t9.5 -29l111 -508q27 0 35 -4q25 -14 25 -43q0 -16 -5 -26.5t-15.5 -14.5t-17.5 -5t-19 -1h-96q-13 0 -19.5 1t-16.5 5t-15 14.5t-5 26.5q0 28 11.5 37.5t37.5 9.5l-15 70h-127q-11 -47 -15 -70
q26 0 37.5 -9.5t11.5 -37.5q0 -16 -5 -26.5t-15 -14.5t-17 -5t-19 -1h-96q-12 0 -19 1t-17.5 5t-15.5 14.5t-5 26.5zM202 258h83l-42 213z" />
    <glyph glyph-name="uni01CE" unicode="&#x1ce;" 
d="M57 624q0 18 13 32t30 14q23 0 109 -77l4 3.5t12.5 10.5t15.5 13q58 49 77 50q19 0 32 -14.5t13 -31.5q0 -16 -14 -32t-62 -56l-44 -39q-21 -16 -36 -16q-10 0 -23.5 10.5t-79.5 67.5q-1 0 -9.5 8t-12.5 12q-25 19 -25 45zM34 141q0 73 75.5 115t201.5 46q-7 67 -102 67
q-21 0 -32 -1q-5 0 -5 4q-1 -32 -19 -46t-37 -14q-24 0 -41 16.5t-17 45.5q0 21 7.5 36.5t22 24.5t28.5 15t34.5 8t31 2.5t26.5 0.5q52 0 92 -15t62.5 -40t34 -53.5t11.5 -58.5l2 -200q6 -2 38 -2q10 0 16.5 -0.5t16 -4.5t14.5 -14.5t5 -26.5t-4 -26t-14 -14t-18.5 -5
t-25.5 -1q-26 0 -38.5 0.5t-32.5 7t-32 18.5q-58 -32 -132 -32q-76 0 -122.5 43.5t-46.5 103.5zM130 141q0 -22 22 -38.5t57 -16.5q47 0 76 15q13 6 19 14t7 14t1 18v65q-85 -5 -133.5 -24t-48.5 -47z" />
    <glyph glyph-name="uni01CF" unicode="&#x1cf;" 
d="M92 772q0 17 13 30.5t30 13.5q11 0 21.5 -8t34.5 -31q5 -4 7 -6q8 -8 22 -19.5t23 -19.5q62 58 66 62q25 22 39 22t29 -11.5t15 -38.5q0 -11 -18 -31.5t-98 -98.5q-17 -18 -35 -18t-35 18l-43 42q-53 55 -62 66.5t-9 27.5zM54 47.5q0 16.5 5 27t15.5 14.5t17 4.5
t17.5 0.5h86v453h-86q-11 0 -17.5 1t-17 5t-15.5 14.5t-5 27t5 27t15.5 14.5t17 5t17.5 1h270q11 0 17.5 -1t17 -5t15.5 -14.5t5 -27t-5 -27t-15.5 -14.5t-17 -5t-17.5 -1h-86v-453h86q11 0 17.5 -0.5t17 -4.5t15.5 -14.5t5 -27t-5 -27t-15.5 -14.5t-17 -5t-17.5 -1h-270
q-11 0 -17.5 1t-17 5t-15.5 14.5t-5 27z" />
    <glyph glyph-name="uni01D0" unicode="&#x1d0;" 
d="M105 624q0 18 13 32t30 14q23 0 109 -77l4 3.5t12.5 10.5t15.5 13q58 49 77 50q19 0 32 -14.5t13 -31.5q0 -16 -14 -32t-62 -56l-44 -39q-21 -16 -36 -16q-10 0 -23.5 10.5t-79.5 67.5q-1 0 -9.5 8t-12.5 12q-25 19 -25 45zM55 46.5q0 16.5 5 26.5t14.5 14t16 4.5
t17.5 0.5h97v268h-89q-11 0 -17.5 1t-16.5 5t-15 14t-5 26.5t5 26.5t15 14t16.5 5t17.5 1h131q33 0 43 -12t10 -45v-304h82q10 0 17 -0.5t17 -4.5t15 -14.5t5 -26.5t-5 -26.5t-15 -14t-17 -4.5t-17 -1h-274q-10 0 -16.5 1t-16.5 4.5t-15 14t-5 27z" />
    <glyph glyph-name="uni01D1" unicode="&#x1d1;" 
d="M92 772q0 17 13 30.5t30 13.5q11 0 21.5 -8t34.5 -31q5 -4 7 -6q8 -8 22 -19.5t23 -19.5q62 58 66 62q25 22 39 22t29 -11.5t15 -38.5q0 -11 -18 -31.5t-98 -98.5q-17 -18 -35 -18t-35 18l-43 42q-53 55 -62 66.5t-9 27.5zM32 320q0 61 1 102t5.5 78.5t10 59t18 40.5
t26 27.5t38 15t49 8t63.5 1.5t64 -1.5t49 -8t38 -15.5t26.5 -28t18 -40.5t10 -59t5.5 -78t1 -101.5t-1 -101.5t-5.5 -77.5t-10.5 -59t-18.5 -40.5t-26 -27.5t-37.5 -15.5t-49 -7.5t-64 -1t-63.5 1t-49 7.5t-38 15.5t-26 27.5t-18 40.5t-10 59t-5.5 77.5t-1 101.5zM130 330
q0 -133 11 -188q8 -30 30 -44t72 -14q54 0 75.5 13.5t28.5 48.5q10 54 10 184q0 134 -10 177q-9 32 -31 41.5t-73 9.5q-53 0 -74 -11.5t-29 -46.5q-10 -45 -10 -170z" />
    <glyph glyph-name="uni01D2" unicode="&#x1d2;" 
d="M93 624q0 18 13 32t30 14q23 0 109 -77l4 3.5t12.5 10.5t15.5 13q58 49 77 50q19 0 32 -14.5t13 -31.5q0 -16 -14 -32t-62 -56l-44 -39q-21 -16 -36 -16q-10 0 -23.5 10.5t-79.5 67.5q-1 0 -9.5 8t-12.5 12q-25 19 -25 45zM35 227q0 97 61 165.5t145 68.5t145 -68.5
t61 -165.5q0 -98 -61 -165.5t-145 -67.5t-145 67t-61 166zM131 233q0 -60 32.5 -103.5t77.5 -43.5t77.5 43.5t32.5 103.5q0 58 -32.5 97t-77.5 39t-77.5 -39t-32.5 -97z" />
    <glyph glyph-name="uni01D3" unicode="&#x1d3;" 
d="M92 772q0 17 13 30.5t30 13.5q11 0 21.5 -8t34.5 -31q5 -4 7 -6q8 -8 22 -19.5t23 -19.5q62 58 66 62q25 22 39 22t29 -11.5t15 -38.5q0 -11 -18 -31.5t-98 -98.5q-17 -18 -35 -18t-35 18l-43 42q-53 55 -62 66.5t-9 27.5zM-17 594.5q0 16.5 5 27t15.5 14.5t17 5t17.5 1
h122q11 0 17.5 -1t17 -5t15.5 -14.5t5 -27t-5 -27t-15.5 -14.5t-17 -5t-17.5 -1h-12v-322q0 -67 29.5 -104t65.5 -37t66 37t30 104v322h-12q-11 0 -17.5 1t-17 5t-15.5 14.5t-5 27t5 27t15.5 14.5t17 5t17.5 1h122q11 0 17.5 -1t17 -5t15.5 -14.5t5 -27t-5 -27t-15 -14.5
t-16.5 -5t-18.5 -1h-12v-328q0 -97 -57.5 -163t-136.5 -66t-136 66t-57 163v328h-12q-11 0 -17.5 1t-17 5t-15.5 14.5t-5 27z" />
    <glyph glyph-name="uni01D4" unicode="&#x1d4;" 
d="M93 624q0 18 13 32t30 14q23 0 109 -77l4 3.5t12.5 10.5t15.5 13q58 49 77 50q19 0 32 -14.5t13 -31.5q0 -16 -14 -32t-62 -56l-44 -39q-21 -16 -36 -16q-10 0 -23.5 10.5t-79.5 67.5q-1 0 -9.5 8t-12.5 12q-25 19 -25 45zM-7 405q0 17 5 27.5t15 14.5t16.5 5t17.5 1h68
q32 0 42.5 -12t10.5 -45v-263q0 -11 1 -17t6 -14.5t17.5 -12t32.5 -3.5q12 0 25 3t28.5 11t25.5 26t10 43v191h-26q-10 0 -16.5 1t-16.5 4.5t-15 13.5t-5 26q0 17 5 27.5t15 14.5t16.5 5t17.5 1h68q32 0 42.5 -12t10.5 -45v-304h25q10 0 16.5 -0.5t16.5 -4.5t15 -14.5
t5 -26.5t-5 -26.5t-14.5 -14t-16 -4.5t-17.5 -1h-68q-37 0 -47 20q-46 -26 -100 -26q-148 0 -148 133v233h-26q-10 0 -16.5 1t-16.5 4.5t-15 13.5t-5 26z" />
    <glyph glyph-name="uni01DD" unicode="&#x1dd;" 
d="M24 218q0 17 4.5 28t13 15t14.5 5.5t15 1.5h262q-15 45 -53.5 71.5t-83.5 26.5q-22 0 -38.5 -6.5t-26 -16.5t-14 -17t-6.5 -14l2 1q-16 -25 -43 -25q-18 0 -32 12t-14 32q0 15 11 35.5t32 41.5t57.5 36t80.5 15q98 0 163 -69.5t65 -163.5q0 -96 -63 -164t-152 -68
q-88 0 -141 60.5t-53 162.5zM331 176h-209q17 -89 97 -89q35 0 66.5 24t45.5 65zM103 176l16 18l3 -18h-19z" />
    <glyph glyph-name="uni01E2" unicode="&#x1e2;" 
d="M12 764q0 49 48 49h424q45 -3 45 -49t-45 -46h-423q-49 0 -49 46zM0 47q0 19 10.5 33.5t37.5 15.5q7 36 38 198t47 254q-32 6 -32 46q0 10 3 19.5t15 19t32 9.5h278q47 0 47 -54v-83q1 -25 -11.5 -38.5t-30.5 -13.5q-42 0 -44 48v45h-76v-167h98q49 0 49 -47t-50 -47h-97
v-189h85v56q0 25 12.5 38.5t29.5 13.5q43 0 43 -54v-94q0 -1 0.5 -2t0.5 -2q0 -52 -49 -52h-195q-25 0 -38 13t-13 33q0 44 38 48v88h-75l-16 -88q39 -6 39 -47q0 -19 -11 -33t-38 -14h-78q-27 0 -38 14t-11 33zM171 276h57v270h-4q-9 -46 -26.5 -133t-26.5 -137z" />
    </font>
</defs>
</svg>
